<?xml version="1.0" encoding="UTF-8" standalone="no"?>
<!-- Generator: Adobe Illustrator 11 Build 196, SVG Export Plug-In . SVG Version: 6.0.0 Build 78)  -->

<svg
   xmlns:dc="http://purl.org/dc/elements/1.1/"
   xmlns:cc="http://creativecommons.org/ns#"
   xmlns:rdf="http://www.w3.org/1999/02/22-rdf-syntax-ns#"
   xmlns:svg="http://www.w3.org/2000/svg"
   xmlns="http://www.w3.org/2000/svg"
   xmlns:sodipodi="http://sodipodi.sourceforge.net/DTD/sodipodi-0.dtd"
   xmlns:inkscape="http://www.inkscape.org/namespaces/inkscape"
   width="320.315"
   height="83.094"
   viewBox="0 0 320.315 83.094"
   style="overflow:visible;enable-background:new 0 0 320.315 83.094"
   xml:space="preserve"
   version="1.1"
   id="svg876"
   sodipodi:docname="eqn-hydrogen.svg"
   inkscape:version="0.92.3 (2405546, 2018-03-11)"><metadata
   id="metadata882"><rdf:RDF><cc:Work
       rdf:about=""><dc:format>image/svg+xml</dc:format><dc:type
         rdf:resource="http://purl.org/dc/dcmitype/StillImage" /></cc:Work></rdf:RDF></metadata><defs
   id="defs880">
		
		
		
		
		 
		
		 
	</defs><sodipodi:namedview
   pagecolor="#ffffff"
   bordercolor="#666666"
   borderopacity="1"
   objecttolerance="10"
   gridtolerance="10"
   guidetolerance="10"
   inkscape:pageopacity="0"
   inkscape:pageshadow="2"
   inkscape:window-width="1280"
   inkscape:window-height="996"
   id="namedview878"
   showgrid="false"
   inkscape:zoom="8.0642793"
   inkscape:cx="151.10443"
   inkscape:cy="127.29974"
   inkscape:window-x="0"
   inkscape:window-y="0"
   inkscape:window-maximized="1"
   inkscape:current-layer="svg876" />
	<style
   type="text/css"
   id="style817">
	
	</style>
	<path
   inkscape:connector-curvature="0"
   id="path819"
   d="m 172.33107,-80.918536 c 0.59158,0 1.33114,12.159168 1.99681,12.159168 0.66567,0 1.83921,-8.385517 3.10625,-8.385517 1.34623,0 2.95826,4.612043 5.32475,4.612043 2.36649,0 3.69783,-3.004827 6.95187,-3.004827 3.25405,0 6.57219,1.32769 9.67845,1.32769"
   style="fill:none;stroke:#000000;stroke-width:1.067;stroke-miterlimit:4;stroke-dasharray:none" /><path
   inkscape:connector-curvature="0"
   id="path821"
   d="m 172.33264,-80.918536 c -0.59157,0 -1.33133,12.159168 -1.99681,12.159168 -0.66547,0 -1.83901,-8.385517 -3.10605,-8.385517 -1.34623,0 -2.95826,4.612043 -5.32475,4.612043 -2.36669,0 -3.69783,-3.004827 -6.95187,-3.004827 -3.25405,0 -6.57239,1.32769 -9.67845,1.32769"
   style="fill:none;stroke:#000000;stroke-width:1.067;stroke-miterlimit:4;stroke-dasharray:none" />
</svg>