<?xml version="1.0" encoding="UTF-8" standalone="no"?>
<svg
   xmlns:dc="http://purl.org/dc/elements/1.1/"
   xmlns:cc="http://creativecommons.org/ns#"
   xmlns:rdf="http://www.w3.org/1999/02/22-rdf-syntax-ns#"
   xmlns:svg="http://www.w3.org/2000/svg"
   xmlns="http://www.w3.org/2000/svg"
   xmlns:sodipodi="http://sodipodi.sourceforge.net/DTD/sodipodi-0.dtd"
   xmlns:inkscape="http://www.inkscape.org/namespaces/inkscape"
   version="1.1"
   id="Layer_1"
   width="428.770"
   height="600"
   viewBox="0 0 178.729 250.105"
   inkscape:version="0.92.4 (5da689c313, 2019-01-14)"
   sodipodi:docname="eqn-brain.svg">
  <metadata
     id="metadata671">
    <rdf:RDF>
      <cc:Work
         rdf:about="">
        <dc:format>image/svg+xml</dc:format>
        <dc:type
           rdf:resource="http://purl.org/dc/dcmitype/StillImage" />
        <dc:title />
        <dc:creator>
          <cc:Agent>
            <dc:title>Patrick J. Lynch</dc:title>
          </cc:Agent>
        </dc:creator>
        <dc:date>2006</dc:date>
        <cc:license
           rdf:resource="http://creativecommons.org/licenses/by/3.0/" />
      </cc:Work>
      <cc:License
         rdf:about="http://creativecommons.org/licenses/by/3.0/">
        <cc:permits
           rdf:resource="http://creativecommons.org/ns#Reproduction" />
        <cc:permits
           rdf:resource="http://creativecommons.org/ns#Distribution" />
        <cc:requires
           rdf:resource="http://creativecommons.org/ns#Notice" />
        <cc:requires
           rdf:resource="http://creativecommons.org/ns#Attribution" />
        <cc:permits
           rdf:resource="http://creativecommons.org/ns#DerivativeWorks" />
      </cc:License>
    </rdf:RDF>
  </metadata>
  <defs
     id="defs669">
    <inkscape:perspective
       sodipodi:type="inkscape:persp3d"
       inkscape:vp_x="0 : 300 : 1"
       inkscape:vp_y="0 : 1000 : 0"
       inkscape:vp_z="428.76999 : 300 : 1"
       inkscape:persp3d-origin="214.38499 : 200 : 1"
       id="perspective673" />
  </defs>
  <sodipodi:namedview
     pagecolor="#ffffff"
     bordercolor="#666666"
     borderopacity="1"
     objecttolerance="10"
     gridtolerance="10"
     guidetolerance="10"
     inkscape:pageopacity="0"
     inkscape:pageshadow="2"
     inkscape:window-width="1265"
     inkscape:window-height="889"
     id="namedview667"
     showgrid="false"
     inkscape:zoom="29.476066"
     inkscape:cx="36.576285"
     inkscape:cy="590.42253"
     inkscape:window-x="0"
     inkscape:window-y="0"
     inkscape:window-maximized="0"
     inkscape:current-layer="Layer_1"
     inkscape:snap-global="false" />
  <g
     id="g864">
    <path
       inkscape:connector-curvature="0"
       id="path1608"
       d="m 15.858046,5.3866652 c 0.183544,0.1284802 0.568985,-0.2386064 0.862654,-0.2569608 0.293669,-0.018353 0.568984,-0.073417 0.67911,-0.1835433 0.110126,-0.1101262 0.201898,-0.1651889 0.275316,-0.3303782 0.07342,-0.165189 0.165188,-0.4588582 0.165188,-0.4588582"
       style="fill:none;fill-opacity:1;stroke:#000000;stroke-width:0.27094708;stroke-miterlimit:4;stroke-dasharray:none;stroke-dashoffset:0;stroke-opacity:1" />
    <path
       sodipodi:nodetypes="csszcccsscc"
       inkscape:connector-curvature="0"
       id="path1610"
       d="M 17.675126,4.2119875 C 17.858669,4.0467987 17.968795,3.955027 17.877023,3.6430033 17.785251,3.3309797 17.82196,3.0740189 17.766897,3.0006016 17.711834,2.9271843 17.594129,2.875424 17.473228,2.743641 c -0.120901,-0.131783 0,-0.2202521 -0.403796,-0.5506301 -0.403795,-0.330378 -0.80759,-0.495567 -0.97278,-0.605693 -0.165189,-0.110126 -1.064551,-0.2018977 -1.156323,-0.2386063 -0.09177,-0.036709 -0.367086,0.018354 -0.532275,0.018354 -0.165189,0 -0.679111,0.055063 -0.752528,0.055063 -0.07342,0 -0.422149,-0.018354 -0.403795,0.2386064 0.01835,0.2569606 0.110126,0.6974647 0.110126,0.6974647"
       style="fill:none;fill-opacity:1;stroke:#000000;stroke-width:0.27094708;stroke-miterlimit:4;stroke-dasharray:none;stroke-dashoffset:0;stroke-opacity:1" />
    <path
       inkscape:connector-curvature="0"
       id="path1614"
       d="m 13.930841,4.3037594 c 0.605693,0.1468345 1.027843,0.2018976 1.193032,0.4037953 0.165189,0.2018977 0.936071,0.6974645 0.825945,1.1379686 C 15.839692,6.2860274 15.601086,6.3961536 15.289062,6.432862 14.977038,6.469569 14.866912,6.653114 14.628306,6.5613426 14.3897,6.4695707 14.004259,6.6164053 13.802361,6.542989 13.600463,6.4695715 12.902998,6.2676739 12.609329,6.2126108 12.31566,6.1575481 11.746675,5.9923591 11.526423,5.9005873 11.306171,5.8088154 10.957439,5.8455241 10.957439,5.8455241"
       style="fill:none;fill-opacity:1;stroke:#000000;stroke-width:0.27094708;stroke-miterlimit:4;stroke-dasharray:none;stroke-dashoffset:0;stroke-opacity:1" />
    <path
       inkscape:connector-curvature="0"
       id="path1616"
       d="m 13.086542,1.4037746 c -0.256961,0.091772 -0.440504,0.275315 -0.55063,0.275315 -0.110126,0 -0.312024,0 -0.440504,0.1468346 -0.128481,0.1468347 -0.532276,0.2753151 -0.697465,0.330378 -0.165189,0.055063 -0.440504,0.2753151 -0.385441,0.4588584 0.05506,0.1835433 0.165189,0.330378 0.165189,0.330378"
       style="fill:none;fill-opacity:1;stroke:#000000;stroke-width:0.27094708;stroke-miterlimit:4;stroke-dasharray:none;stroke-dashoffset:0;stroke-opacity:1" />
    <path
       sodipodi:nodetypes="ccascsc"
       inkscape:connector-curvature="0"
       id="path1618"
       d="m 10.92073,2.7803496 c -0.09177,0.110126 -0.477212,0.3670867 -0.422149,0.5873387 0.05506,0.220252 -0.321728,0.2184415 -0.403796,0.385441 -0.05155,0.1049037 -0.03671,0.165189 -0.03671,0.3487324 0,0.1835433 -0.1468349,0.2018977 -0.1651893,0.4405041 -0.018353,0.2386064 0.055063,0.6240474 0.1651893,0.770882 l 0.110126,0.1468345"
       style="fill:none;fill-opacity:1;stroke:#000000;stroke-width:0.27094708;stroke-miterlimit:4;stroke-dasharray:none;stroke-dashoffset:0;stroke-opacity:1" />
    <path
       inkscape:connector-curvature="0"
       id="path1620"
       d="m 9.966305,5.4417279 c 0.018353,0.2386065 -0.091772,0.2386065 0.110126,0.2936696 0.201898,0.055063 0.440504,0.091771 0.67911,0.055063 0.238607,-0.036707 0.770882,-0.2202521 0.770882,-0.2202521"
       style="fill:none;fill-opacity:1;stroke:#000000;stroke-width:0.27094708;stroke-miterlimit:4;stroke-dasharray:none;stroke-dashoffset:0;stroke-opacity:1" />
  </g>
  <g
     id="g850">
    <path
       sodipodi:nodetypes="ccccscc"
       inkscape:connector-curvature="0"
       id="path1612"
       d="m 13.677414,2.1591295 c -0.12848,0.1468346 -0.242137,0.4927398 -0.113657,0.5478028 0.128481,0.055063 0.165189,-0.036709 0.220253,0.2018977 0.05506,0.2386063 0.330377,0.9544253 0.25696,1.046197 -0.07342,0.091772 -0.110126,0.1835433 -0.312024,0.1835433 -0.201897,0 -0.440503,-0.073417 -0.770882,-0.2018976 C 12.627684,3.8081923 12.590975,3.734775 12.590975,3.734775"
       style="fill:none;fill-opacity:1;stroke:#000000;stroke-width:0.18757875;stroke-miterlimit:4;stroke-dasharray:none;stroke-dashoffset:0;stroke-opacity:1" />
    <path
       inkscape:connector-curvature="0"
       id="path1622"
       d="m 11.434652,3.679712 c -0.01835,0.2936693 0.275315,0.5322755 0.348732,0.5689842 0.07342,0.036707 -0.07342,-0.018354 0.256961,0.146835 0.330378,0.165189 1.10126,0.5689843 1.303157,0.5873387 0.201898,0.018353 0.403796,0.1284802 0.495568,0.1835433 0.09177,0.055063 0.07342,-0.1651894 0.385441,-0.018353 0.312023,0.1468345 0.477212,0.018353 0.568984,0.220252 0.09177,0.2018977 0.330378,0.2018977 0.330378,0.2018977"
       style="fill:none;fill-opacity:1;stroke:#000000;stroke-width:0.18757875;stroke-miterlimit:4;stroke-dasharray:none;stroke-dashoffset:0;stroke-opacity:1" />
    <path
       inkscape:connector-curvature="0"
       id="path1624"
       d="m 15.601086,2.7619953 c 0.25696,0.1284803 0.642401,0.1835433 0.80759,0.385441 0.165189,0.2018977 0.385441,0.1835434 0.495567,0.3670867 0.110126,0.1835433 0.146835,0.3487323 0.146835,0.3487323"
       style="fill:none;fill-opacity:1;stroke:#000000;stroke-width:0.18757875;stroke-miterlimit:4;stroke-dasharray:none;stroke-dashoffset:0;stroke-opacity:1" />
    <path
       inkscape:connector-curvature="0"
       id="path1626"
       d="m 14.187802,2.0094676 c 0.09177,0.2936693 0.312023,0.55063 0.440504,0.6791104 0.12848,0.1284803 0.293669,0.2936693 0.440504,0.1468346 0.146835,-0.1468346 0.403795,-0.3487323 0.403795,-0.3487323"
       style="fill:none;fill-opacity:1;stroke:#000000;stroke-width:0.18757875;stroke-miterlimit:4;stroke-dasharray:none;stroke-dashoffset:0;stroke-opacity:1" />
    <path
       sodipodi:nodetypes="czc"
       inkscape:connector-curvature="0"
       id="path1628"
       d="m 14.738432,2.9455386 c 0.01835,0.3854411 -0.074,0.4025415 0.03671,0.5322757 0.110707,0.1297342 0.477213,0.110126 0.477213,0.110126"
       style="fill:none;fill-opacity:1;stroke:#000000;stroke-width:0.18757875;stroke-miterlimit:4;stroke-dasharray:none;stroke-dashoffset:0;stroke-opacity:1" />
    <path
       inkscape:connector-curvature="0"
       id="path1630"
       d="m 12.040345,2.4683259 c -0.312024,0.2202521 -0.642402,0.7158191 -0.936071,0.9177168 -0.29367,0.2018976 -0.385441,0.2569606 -0.330378,0.6056929 0.05506,0.3487325 0.165189,0.4588583 0.165189,0.4588583"
       style="fill:none;fill-opacity:1;stroke:#000000;stroke-width:0.18757875;stroke-miterlimit:4;stroke-dasharray:none;stroke-dashoffset:0;stroke-opacity:1" />
    <path
       inkscape:connector-curvature="0"
       id="path1632"
       d="m 10.351746,4.8543893 c 0.05506,0.2018977 -0.07342,0.3120239 0.440504,0.3120239 0.513921,0 0.770882,-0.055063 0.770882,-0.055063"
       style="fill:none;fill-opacity:1;stroke:#000000;stroke-width:0.18757875;stroke-miterlimit:4;stroke-dasharray:none;stroke-dashoffset:0;stroke-opacity:1" />
    <path
       inkscape:connector-curvature="0"
       id="path1634"
       d="m 12.168825,5.5518542 c 0.367087,0.091771 0.165189,-0.073418 0.770882,0.1651889 0.605693,0.2386064 0.734174,0.2936691 0.881008,0.2386064 0.146835,-0.055063 0.532276,-0.220252 0.532276,-0.220252"
       style="fill:none;fill-opacity:1;stroke:#000000;stroke-width:0.18757875;stroke-miterlimit:4;stroke-dasharray:none;stroke-dashoffset:0;stroke-opacity:1" />
    <path
       inkscape:connector-curvature="0"
       id="path1636"
       d="m 14.022613,5.882232 0.67911,0.2753152"
       style="fill:none;fill-opacity:1;stroke:#000000;stroke-width:0.18757875;stroke-miterlimit:4;stroke-dasharray:none;stroke-dashoffset:0;stroke-opacity:1" />
    <path
       inkscape:connector-curvature="0"
       id="path1638"
       d="m 15.564377,4.5607202 c 0.275315,-0.5139215 0.05506,-0.6424019 0.293669,-0.6424019 0.238606,0 0.568985,0.091772 0.568985,0.091772 0,0 -0.03671,-0.110126 0.220252,0.036709 0.25696,0.1468347 0.330378,0.2202518 0.330378,0.2202518"
       style="fill:none;fill-opacity:1;stroke:#000000;stroke-width:0.18757875;stroke-miterlimit:4;stroke-dasharray:none;stroke-dashoffset:0;stroke-opacity:1" />
    <path
       inkscape:connector-curvature="0"
       id="path1640"
       d="m 14.793495,1.6423809 c 0.55063,0.3487324 0.734173,0.018354 1.10126,0.275315 0.367087,0.2569607 0.495567,0.385441 0.825945,0.605693 0.330378,0.2202521 0.42215,0.4772127 0.42215,0.4772127"
       style="fill:none;fill-opacity:1;stroke:#000000;stroke-width:0.18757875;stroke-miterlimit:4;stroke-dasharray:none;stroke-dashoffset:0;stroke-opacity:1" />
    <path
       inkscape:connector-curvature="0"
       id="path1648"
       d="M 13.535423,3.7381826 C 13.433779,3.5603066 13.543923,3.424782 13.510013,3.3061979 13.476133,3.1876138 13.289786,2.7386885 12.984855,2.8572726 12.679925,2.9758567 12.451227,3.2299653 12.307232,3.162203 12.163237,3.094441 12.002302,3.3485493 12.002302,3.3485493"
       style="fill:none;fill-opacity:1;stroke:#000000;stroke-width:0.18757875;stroke-miterlimit:4;stroke-dasharray:none;stroke-dashoffset:0;stroke-opacity:1" />
  </g>
</svg>
