<?xml version="1.0" encoding="UTF-8" standalone="no"?>
<!-- Created with Inkscape (http://www.inkscape.org/) -->

<svg
   xmlns:dc="http://purl.org/dc/elements/1.1/"
   xmlns:cc="http://creativecommons.org/ns#"
   xmlns:rdf="http://www.w3.org/1999/02/22-rdf-syntax-ns#"
   xmlns:svg="http://www.w3.org/2000/svg"
   xmlns="http://www.w3.org/2000/svg"
   xmlns:xlink="http://www.w3.org/1999/xlink"
   xmlns:sodipodi="http://sodipodi.sourceforge.net/DTD/sodipodi-0.dtd"
   xmlns:inkscape="http://www.inkscape.org/namespaces/inkscape"
   width="18.323in"
   height="11.25in"
   viewBox="0 0 1649.07 1012.5"
   id="svg2"
   version="1.1"
   sodipodi:docname="lulu_cover.svg"
   inkscape:export-filename="/home/bcrowell/Documents/writing/books/physics/fac/front/figs/cover.png"
   inkscape:export-xdpi="300"
   inkscape:export-ydpi="300"
   inkscape:version="0.92.4 (5da689c313, 2019-01-14)">
  <defs
     id="defs4">
    <radialGradient
       inkscape:collect="always"
       xlink:href="#linearGradient1353"
       id="radialGradient1355"
       cx="58.153538"
       cy="222.09763"
       fx="58.153538"
       fy="222.09763"
       r="3.4014549"
       gradientUnits="userSpaceOnUse"
       gradientTransform="matrix(1,0,0,1.0000011,3.435207,-13.917224)" />
    <linearGradient
       inkscape:collect="always"
       id="linearGradient1353">
      <stop
         style="stop-color:#ffffff;stop-opacity:1;"
         offset="0"
         id="stop1349" />
      <stop
         style="stop-color:#000000;stop-opacity:1"
         offset="1"
         id="stop1351" />
    </linearGradient>
  </defs>
  <sodipodi:namedview
     id="base"
     pagecolor="#ffffff"
     bordercolor="#666666"
     borderopacity="1.0"
     inkscape:pageopacity="0.0"
     inkscape:pageshadow="2"
     inkscape:zoom="2.7407248"
     inkscape:cx="572.70356"
     inkscape:cy="386.38788"
     inkscape:document-units="px"
     inkscape:current-layer="layer1"
     showgrid="false"
     units="in"
     inkscape:window-width="1280"
     inkscape:window-height="998"
     inkscape:window-x="0"
     inkscape:window-y="0"
     inkscape:window-maximized="1"
     inkscape:snap-global="false"
     showguides="false" />
  <metadata
     id="metadata7">
    <rdf:RDF>
      <cc:Work
         rdf:about="">
        <dc:format>image/svg+xml</dc:format>
        <dc:type
           rdf:resource="http://purl.org/dc/dcmitype/StillImage" />
        <dc:title />
      </cc:Work>
    </rdf:RDF>
  </metadata>
  <g
     inkscape:label="Layer 1"
     inkscape:groupmode="layer"
     id="layer1"
     transform="translate(0,-39.862145)">
    <rect
       style="fill:#dedede;fill-opacity:1;stroke:none;stroke-width:1.46863878;stroke-miterlimit:4;stroke-dasharray:5.87455493, 5.87455493;stroke-dashoffset:0;stroke-opacity:1"
       id="rect989-3-2-0-6-4"
       width="208.60992"
       height="149.68594"
       x="425.8432"
       y="755.83875" />
    <rect
       style="fill:#dedede;fill-opacity:1;stroke:none;stroke-width:1.33906221;stroke-miterlimit:4;stroke-dasharray:5.35624889, 5.35624889;stroke-dashoffset:0;stroke-opacity:1"
       id="rect989-3-2-0"
       width="208.60991"
       height="124.43789"
       x="178.13129"
       y="613.92017" />
    <text
       xml:space="preserve"
       style="font-style:normal;font-variant:normal;font-weight:normal;font-stretch:normal;font-size:29.99999809px;line-height:1.25;font-family:cmr10;-inkscape-font-specification:cmr10;font-variant-ligatures:normal;font-variant-position:normal;font-variant-caps:normal;font-variant-numeric:normal;font-variant-alternates:normal;font-feature-settings:normal;text-indent:0;text-align:start;text-decoration:none;text-decoration-line:none;text-decoration-style:solid;text-decoration-color:#000000;letter-spacing:0px;word-spacing:0px;text-transform:none;writing-mode:lr-tb;direction:ltr;text-orientation:mixed;dominant-baseline:auto;baseline-shift:baseline;text-anchor:start;white-space:normal;shape-padding:0;opacity:1;vector-effect:none;fill:#000000;fill-opacity:1;stroke:none;stroke-width:0.93749994;stroke-linecap:butt;stroke-linejoin:miter;stroke-miterlimit:4;stroke-dasharray:none;stroke-dashoffset:0;stroke-opacity:1"
       x="118.13715"
       y="102.22367"
       id="text1038"><tspan
         sodipodi:role="line"
         id="tspan1036"
         x="118.13715"
         y="102.22367"
         style="font-style:normal;font-variant:normal;font-weight:normal;font-stretch:normal;font-size:27.5px;font-family:cmr10;-inkscape-font-specification:cmr10;stroke-width:0.93749994">Maxwell's equations: the complete laws</tspan><tspan
         sodipodi:role="line"
         x="118.13715"
         y="139.72368"
         style="font-style:normal;font-variant:normal;font-weight:normal;font-stretch:normal;font-size:27.5px;font-family:cmr10;-inkscape-font-specification:cmr10;stroke-width:0.93749994"
         id="tspan1007">of electricity and magnetism.</tspan></text>
    <text
       xml:space="preserve"
       style="font-style:normal;font-variant:normal;font-weight:normal;font-stretch:normal;font-size:20px;line-height:1.25;font-family:cmr10;-inkscape-font-specification:cmr10;font-variant-ligatures:normal;font-variant-position:normal;font-variant-caps:normal;font-variant-numeric:normal;font-variant-alternates:normal;font-feature-settings:normal;text-indent:0;text-align:start;text-decoration:none;text-decoration-line:none;text-decoration-style:solid;text-decoration-color:#000000;letter-spacing:0px;word-spacing:0px;text-transform:none;writing-mode:lr-tb;direction:ltr;text-orientation:mixed;dominant-baseline:auto;baseline-shift:baseline;text-anchor:start;white-space:normal;shape-padding:0;opacity:1;vector-effect:none;fill:#000000;fill-opacity:1;stroke:none;stroke-width:0.93749994;stroke-linecap:butt;stroke-linejoin:miter;stroke-miterlimit:4;stroke-dasharray:none;stroke-dashoffset:0;stroke-opacity:1"
       x="118.24701"
       y="168.6747"
       id="text1038-9"><tspan
         sodipodi:role="line"
         id="tspan1036-0"
         x="118.24701"
         y="168.6747"
         style="font-style:normal;font-variant:normal;font-weight:normal;font-stretch:normal;font-size:20px;font-family:cmr10;-inkscape-font-specification:cmr10;stroke-width:0.93749994">As equations:</tspan></text>
    <text
       xml:space="preserve"
       style="font-style:normal;font-variant:normal;font-weight:normal;font-stretch:normal;font-size:20px;line-height:1.25;font-family:cmr10;-inkscape-font-specification:cmr10;font-variant-ligatures:normal;font-variant-position:normal;font-variant-caps:normal;font-variant-numeric:normal;font-variant-alternates:normal;font-feature-settings:normal;text-indent:0;text-align:start;text-decoration:none;text-decoration-line:none;text-decoration-style:solid;text-decoration-color:#000000;letter-spacing:0px;word-spacing:0px;text-transform:none;writing-mode:lr-tb;direction:ltr;text-orientation:mixed;dominant-baseline:auto;baseline-shift:baseline;text-anchor:start;white-space:normal;shape-padding:0;opacity:1;vector-effect:none;fill:#000000;fill-opacity:1;stroke:none;stroke-width:0.93749994;stroke-linecap:butt;stroke-linejoin:miter;stroke-miterlimit:4;stroke-dasharray:none;stroke-dashoffset:0;stroke-opacity:1"
       x="118.38983"
       y="413.92496"
       id="text1038-9-5"><tspan
         sodipodi:role="line"
         id="tspan1036-0-3"
         x="118.38983"
         y="413.92496"
         style="font-style:normal;font-variant:normal;font-weight:normal;font-stretch:normal;font-size:20px;font-family:cmr10;-inkscape-font-specification:cmr10;stroke-width:0.93749994">In words:</tspan></text>
    <rect
       style="fill:#dedede;fill-opacity:1;stroke:none;stroke-width:0.98199546;stroke-miterlimit:4;stroke-dasharray:3.92798191, 3.92798191;stroke-dashoffset:0;stroke-opacity:1"
       id="rect989-3-5"
       width="208.60991"
       height="66.92218"
       x="179.27753"
       y="180.95996" />
    <rect
       style="fill:#dedede;fill-opacity:1;stroke:none;stroke-width:0.98199546;stroke-miterlimit:4;stroke-dasharray:3.92798191, 3.92798191;stroke-dashoffset:0;stroke-opacity:1"
       id="rect989-7-3"
       width="208.60991"
       height="66.92218"
       x="178.13116"
       y="266.43149" />
    <rect
       style="fill:#dedede;fill-opacity:1;stroke:none;stroke-width:0.98199546;stroke-miterlimit:4;stroke-dasharray:3.92798188, 3.92798188;stroke-dashoffset:0;stroke-opacity:1"
       id="rect989-3"
       width="208.60989"
       height="66.92218"
       x="426.98944"
       y="180.95996" />
    <rect
       style="fill:#dedede;fill-opacity:1;stroke:none;stroke-width:0.98199546;stroke-miterlimit:4;stroke-dasharray:3.92798188, 3.92798188;stroke-dashoffset:0;stroke-opacity:1"
       id="rect989-7"
       width="208.60989"
       height="66.92218"
       x="425.8432"
       y="266.43149" />
    <path
       style="fill:#000000;stroke:none;stroke-width:0.01146465"
       id="path956"
       d="m 204.2622,203.82546 -1.1235,0.10318 v 0.33246 c 0,0.32103 0.023,0.33248 0.5044,0.33248 0.321,0 0.5962,0.0803 0.7682,0.21784 l 0.2751,0.21784 0.034,3.17571 0.034,3.16425 -0.4012,-0.44713 c -0.2179,-0.24076 -0.6764,-0.58469 -1.0089,-0.77959 -0.5503,-0.2981 -0.7108,-0.33247 -1.6395,-0.33247 -0.9401,0 -1.112,0.0344 -1.8114,0.3898 -1.4445,0.69934 -2.4305,2.00632 -2.7859,3.65722 -0.1949,0.96303 -0.1949,1.37576 0.011,2.35025 0.3554,1.70824 1.2955,2.98081 2.6828,3.66869 0.6535,0.32103 0.8713,0.36687 1.6738,0.36687 1.1006,0 1.9375,-0.33246 2.6827,-1.07767 l 0.4701,-0.47005 v 0.81398 0.81399 l 1.1809,-0.0803 c 1.5821,-0.0918 1.6853,-0.12611 1.6853,-0.44712 0,-0.24077 -0.069,-0.27514 -0.5847,-0.32103 -1.0433,-0.10318 -0.9631,0.57324 -0.9975,-8.11697 l -0.034,-7.68132 -0.2523,0.0113 c -0.1375,0.0113 -0.7566,0.0688 -1.3642,0.13758 z m -1.6509,6.43167 c 0.6535,0.19488 1.2382,0.63055 1.6853,1.24965 l 0.3325,0.45859 v 2.91201 c 0,3.26742 -0.034,3.41647 -0.8599,4.13875 -2.0292,1.78848 -4.5056,0.75666 -5.1017,-2.12097 -0.2179,-1.04328 -0.092,-3.61137 0.2178,-4.40242 0.3439,-0.90571 0.8254,-1.52481 1.4445,-1.89167 0.8714,-0.50445 1.4446,-0.59617 2.2815,-0.34395 z"
       inkscape:connector-curvature="0" />
    <path
       style="fill:#000000;stroke:none;stroke-width:0.01146465"
       id="path962"
       d="m 230.9061,204.50187 0.034,0.49298 1.2381,0.0344 1.2268,0.0344 v 7.03929 7.05076 h -1.2612 -1.2611 v 0.45859 0.45859 h 7.4521 c 5.8813,0 7.452,-0.0344 7.452,-0.14904 0,-0.0688 0.2064,-1.42161 0.4586,-2.9808 0.2522,-1.57065 0.4586,-2.92349 0.4586,-3.0152 0,-0.13759 -0.1147,-0.16052 -0.4816,-0.13759 l -0.47,0.0344 -0.2178,1.08914 c -0.3784,1.8802 -1.1121,3.08399 -2.2127,3.61136 -0.8599,0.40127 -1.6853,0.51592 -4.2076,0.59617 l -2.4993,0.0688 v -3.4738 -3.46231 l 1.2956,0.0458 c 1.9375,0.0688 2.3044,0.34395 2.5107,1.86874 l 0.1261,0.85985 h 0.4472 0.4356 v -3.26743 -3.26742 h -0.4471 -0.4471 l -0.1147,0.82545 c -0.2178,1.46748 -0.7108,1.82288 -2.568,1.90313 l -1.2382,0.0573 v -3.12985 -3.11839 l 2.7286,0.0459 c 3.0381,0.0574 3.405,0.12611 4.2419,0.84839 0.6076,0.51591 1.0203,1.37576 1.2725,2.63687 l 0.195,1.02035 0.4815,0.0344 c 0.2637,0.0231 0.4815,0.0113 0.4815,-0.0231 0,-0.14903 -0.5732,-4.84955 -0.6306,-5.20496 l -0.069,-0.36686 h -7.2227 -7.2227 z"
       inkscape:connector-curvature="0" />
    <path
       style="fill:#000000;stroke:none;stroke-width:0.01146465"
       id="path966"
       d="m 210.6366,205.09803 c -0.665,0.56178 -0.2293,1.67384 0.6534,1.67384 0.4701,0 0.9058,-0.44712 0.9058,-0.9401 -0.011,-0.87131 -0.9172,-1.2955 -1.5592,-0.73374 z"
       inkscape:connector-curvature="0" />
    <path
       style="fill:#000000;stroke:none;stroke-width:0.01146465"
       id="path970"
       d="m 304.1423,209.82147 c -1.6509,0.45859 -3.3706,2.1439 -4.1273,4.04702 -0.2637,0.68788 -2.7515,10.39844 -2.7515,10.76531 0,0.57324 0.9515,0.73374 1.307,0.22929 0.092,-0.1261 0.4929,-1.53625 0.8827,-3.14131 0.4013,-1.60506 0.7567,-2.91203 0.7911,-2.91203 0.034,0 0.172,0.19492 0.321,0.43566 0.149,0.24077 0.4471,0.56177 0.6764,0.71081 0.3669,0.25222 0.5503,0.28662 1.3414,0.28662 1.2955,0 2.2012,-0.43566 3.3935,-1.65091 2.7286,-2.75152 2.9923,-7.17688 0.5159,-8.51824 -0.7337,-0.38979 -1.5362,-0.48151 -2.3502,-0.25222 z m 1.7197,0.60763 c 0.8598,0.59616 0.9974,2.36172 0.3554,4.75783 -0.1949,0.75667 -0.5159,1.6853 -0.6994,2.08656 -0.9745,2.02925 -2.5451,3.00374 -3.8636,2.37319 -0.4471,-0.20636 -1.0203,-1.00889 -1.135,-1.58213 -0.069,-0.38979 0.5618,-3.06105 1.0548,-4.41389 0.9516,-2.6598 2.9464,-4.1502 4.2878,-3.22156 z"
       inkscape:connector-curvature="0" />
    <path
       style="fill:#000000;stroke:none;stroke-width:0.01146465"
       id="path972"
       d="m 211.1066,209.81001 c -0.057,0.0231 -0.5159,0.0688 -0.9974,0.11466 -0.8943,0.0803 -0.8943,0.0803 -0.8943,0.41273 0,0.32102 0.023,0.33246 0.5159,0.33246 0.3669,0 0.5847,0.0688 0.7453,0.22929 0.2178,0.21785 0.2292,0.37834 0.2292,4.16166 0,3.11839 -0.034,3.97825 -0.1605,4.15021 -0.1032,0.14904 -0.3439,0.22929 -0.8025,0.26369 -0.5847,0.0458 -0.642,0.0802 -0.642,0.32103 v 0.27514 h 2.1209 2.121 v -0.28662 c 0,-0.25222 -0.046,-0.28662 -0.4357,-0.28662 -0.2407,0 -0.5503,-0.0802 -0.6878,-0.18344 l -0.2522,-0.17195 v -4.70052 -4.68904 l -0.3669,0.0113 c -0.2064,0 -0.4242,0.0231 -0.493,0.0459 z"
       inkscape:connector-curvature="0" />
    <path
       style="fill:#000000;stroke:none;stroke-width:0.01146465"
       id="path976"
       d="m 214.4887,210.25713 c 0,0.24077 0.057,0.27514 0.5961,0.32102 0.4128,0.0458 0.6535,0.13759 0.7796,0.2981 0.1032,0.12611 1.0089,2.28147 1.9949,4.78076 1.0089,2.52222 1.8917,4.5744 1.9834,4.60879 0.092,0.0344 0.2178,0.0113 0.2751,-0.0458 0.057,-0.0573 0.8713,-2.00631 1.8114,-4.34511 1.8802,-4.64318 2.0866,-4.99858 2.9464,-5.22787 0.4128,-0.11467 0.5045,-0.18344 0.5045,-0.40127 0,-0.26369 -0.011,-0.26369 -1.6051,-0.26369 h -1.605 v 0.28662 c 0,0.16051 0.069,0.28661 0.1605,0.28661 0.3325,0 0.7567,0.47006 0.7567,0.83693 0.011,0.41272 -2.6484,7.22272 -2.763,7.09662 -0.069,-0.0688 -1.949,-4.80369 -2.6942,-6.76415 -0.2751,-0.71081 -0.2751,-0.71081 -0.046,-0.9401 0.1261,-0.1261 0.3783,-0.22929 0.5732,-0.22929 0.2866,0 0.3439,-0.0458 0.3439,-0.28662 v -0.28661 h -2.0063 -2.0063 z"
       inkscape:connector-curvature="0" />
    <path
       style="fill:#000000;stroke:none;stroke-width:0.01146465"
       id="path980"
       d="m 255.2914,211.88511 c -0.1032,0.12611 -0.1147,0.22929 -0.023,0.36687 0.1032,0.18343 0.7223,0.19492 7.3832,0.19492 h 7.2686 v -0.34395 -0.34395 l -7.2342,-0.0344 c -6.5004,-0.0231 -7.2571,-0.0113 -7.3947,0.16051 z"
       inkscape:connector-curvature="0" />
    <g
       id="g1971"
       transform="matrix(3.5433071,0,0,3.5433071,53.2127,25.20126)">
      <path
         inkscape:connector-curvature="0"
         d="m 67.410846,52.721926 c -0.119716,0.01941 -0.09383,0.08736 0.03559,0.100303 0.07765,0.0065 0.103538,0.02589 0.103538,0.07442 0,0.03559 -0.110009,0.49828 -0.242668,1.03215 -0.132659,0.533871 -0.242669,0.999795 -0.242669,1.035386 0,0.05501 0.01618,0.06795 0.08736,0.05824 0.08413,-0.0097 0.09383,-0.02912 0.187664,-0.381798 0.110009,-0.407683 0.129423,-0.430332 0.320322,-0.339736 0.126188,0.06148 0.181193,0.174721 0.158544,0.330029 -0.03559,0.239433 0.07442,0.397977 0.275024,0.397977 0.171486,0 0.281495,-0.122952 0.355914,-0.397977 0.04853,-0.181192 -0.01941,-0.13913 -0.09383,0.05501 -0.07765,0.203842 -0.152072,0.284731 -0.252375,0.271789 -0.08413,-0.0097 -0.08413,-0.01294 -0.07442,-0.275024 0.0097,-0.24914 0.0032,-0.275025 -0.07118,-0.349443 -0.04206,-0.04206 -0.145601,-0.09707 -0.229726,-0.116481 l -0.152072,-0.03883 0.190899,-0.194135 c 0.271789,-0.27826 0.41739,-0.378563 0.553284,-0.378563 h 0.113246 l -0.08736,0.08089 c -0.100303,0.09383 -0.106774,0.161779 -0.02265,0.210313 0.106774,0.055 0.229726,-0.03559 0.229726,-0.174722 0,-0.08736 -0.122952,-0.181192 -0.239433,-0.181192 -0.135894,0 -0.281495,0.09707 -0.546813,0.368856 -0.200606,0.207077 -0.281495,0.255611 -0.281495,0.174721 0,-0.01941 0.07442,-0.320322 0.161779,-0.663294 0.0906,-0.342971 0.161779,-0.647116 0.161779,-0.673 0,-0.04853 -0.16825,-0.05824 -0.397977,-0.02588 z"
         id="path984"
         style="fill:#3f3f3f;fill-opacity:1;stroke:none;stroke-width:0.00323558" />
      <path
         inkscape:connector-curvature="0"
         d="m 63.932598,53.550235 c -0.271789,0.433567 -0.491808,0.81213 -0.491808,0.84125 0,0.04853 0.04853,0.05501 0.420625,0.05501 h 0.423861 l -0.0097,0.216784 -0.0097,0.220019 -0.135895,0.02912 c -0.242668,0.05501 -0.148836,0.08413 0.265318,0.08413 0.404447,0 0.530635,-0.03883 0.262082,-0.07765 -0.165015,-0.02589 -0.181193,-0.05177 -0.181193,-0.297673 v -0.174722 h 0.177957 c 0.135895,0 0.177957,-0.0097 0.177957,-0.04853 0,-0.03883 -0.04206,-0.04853 -0.177957,-0.04853 h -0.17797 v -0.792717 c 0,-0.436804 -0.01294,-0.792717 -0.02588,-0.792717 -0.01618,0 -0.24914,0.352678 -0.517693,0.786246 z m 0.372092,0.789481 c -0.0097,0.0065 -0.1909,0.0065 -0.404448,0.0032 l -0.388269,-0.0097 0.391505,-0.630938 0.394741,-0.627703 0.0097,0.624467 c 0.0032,0.346207 0.0032,0.634174 -0.0032,0.640645 z"
         id="path986"
         style="fill:#3f3f3f;fill-opacity:1;stroke:none;stroke-width:0.00323558" />
      <path
         inkscape:connector-curvature="0"
         d="m 65.294777,53.63436 c -0.13913,0.08736 -0.36562,0.423861 -0.284731,0.423861 0.0097,0 0.06795,-0.05824 0.132659,-0.129424 0.116481,-0.129423 0.265317,-0.194134 0.443274,-0.194134 0.04853,0 0.08736,0.01294 0.08736,0.02588 0,0.07442 -0.119716,0.407683 -0.27826,0.789482 -0.177957,0.423861 -0.187664,0.498279 -0.05824,0.472394 0.08736,-0.01618 0.119716,-0.103538 0.281495,-0.721534 l 0.142366,-0.550048 0.181192,-0.0097 c 0.103539,-0.0065 0.184428,0.0032 0.184428,0.01941 0,0.01618 -0.02912,0.165015 -0.06471,0.333265 -0.103539,0.498279 -0.07442,0.935083 0.06471,0.935083 0.113246,0 0.132659,-0.07442 0.07765,-0.294438 -0.05501,-0.207077 -0.05177,-0.812131 0.0032,-0.941554 0.01618,-0.0453 0.07118,-0.05824 0.268553,-0.06471 0.223255,-0.0097 0.249139,-0.01618 0.249139,-0.07442 0,-0.06148 -0.02588,-0.06471 -0.663293,-0.07442 -0.608289,-0.0065 -0.673001,-0.0032 -0.766833,0.05501 z"
         id="path988"
         style="fill:#3f3f3f;fill-opacity:1;stroke:none;stroke-width:0.00323558" />
    </g>
    <path
       style="fill:#000000;stroke:none;stroke-width:0.01146465"
       id="path990"
       d="m 255.2685,216.02385 c -0.1606,0.14903 -0.08,0.49298 0.1375,0.60762 0.2752,0.13759 14.2047,0.16052 14.434,0.0113 0.092,-0.0459 0.1376,-0.21785 0.1147,-0.36687 l -0.034,-0.27514 -7.2915,-0.0344 c -4.0012,-0.0113 -7.3259,0.0114 -7.3603,0.0573 z"
       inkscape:connector-curvature="0" />
    <path
       style="fill:#000000;stroke:none;stroke-width:0.01146465"
       id="path958"
       d="m 454.9165,206.17563 -1.1809,0.10318 v 0.32102 c 0,0.2981 0.035,0.32103 0.642,0.36687 0.4586,0.0344 0.6994,0.11467 0.8026,0.26369 0.1261,0.17196 0.1605,0.89426 0.1605,3.3133 v 3.09545 l -0.4816,-0.47005 c -0.8369,-0.80253 -1.3642,-1.00889 -2.5566,-0.99743 -1.284,0 -2.0407,0.32102 -2.9923,1.21526 -1.1579,1.08914 -1.6508,2.29293 -1.6508,3.97823 0,1.65091 0.5044,2.93496 1.5591,3.9897 0.9057,0.90571 1.6854,1.23819 2.9121,1.23819 1.1464,-0.0113 1.7311,-0.24077 2.6368,-1.05476 l 0.5733,-0.5159 v 0.82545 0.81399 l 1.1808,-0.0688 c 1.6051,-0.0917 1.6853,-0.11467 1.6853,-0.45859 0,-0.25222 -0.046,-0.28662 -0.3898,-0.28662 -0.4586,0 -0.9974,-0.18343 -1.1235,-0.37833 -0.046,-0.0803 -0.092,-3.57697 -0.092,-7.79597 v -7.64695 l -0.2523,0.0113 c -0.1492,0.0113 -0.7911,0.0688 -1.4331,0.13759 z m -1.2153,6.60364 c 0.5618,0.27513 1.135,0.84838 1.4216,1.41015 0.1949,0.37833 0.2179,0.68788 0.2179,2.98081 0,1.41016 -0.057,2.74006 -0.1148,2.96934 -0.1605,0.5847 -0.9515,1.43309 -1.6509,1.78849 -1.5018,0.76814 -3.1298,0.11466 -3.8979,-1.57066 -0.837,-1.84581 -0.6421,-5.15909 0.3783,-6.55778 0.9057,-1.22672 2.419,-1.65091 3.6457,-1.02035 z"
       inkscape:connector-curvature="0" />
    <path
       style="fill:#000000;stroke:none;stroke-width:0.01146465"
       id="path960"
       d="m 481.5947,206.77179 v 0.51591 h 1.2611 1.2611 l -0.021,7.07369 -0.035,7.08516 -1.2267,0.0344 -1.2382,0.0344 v 0.45859 0.45859 l 6.2826,-0.0458 c 6.7871,-0.0344 6.5808,-0.0231 7.8877,-0.68788 0.8484,-0.43566 1.456,-1.02035 1.8917,-1.82287 0.3669,-0.67642 0.3898,-0.79107 0.3898,-1.75409 0,-0.89425 -0.046,-1.11208 -0.3097,-1.60506 -0.6305,-1.21525 -1.8573,-2.05217 -3.4738,-2.38464 l -0.8025,-0.16052 0.5044,-0.13759 c 1.4904,-0.41273 2.6598,-1.28404 3.107,-2.31586 0.2522,-0.58469 0.3096,-1.38722 0.1718,-2.0751 -0.2062,-0.96303 -1.2152,-2.08657 -2.3273,-2.57954 -1.2955,-0.57324 -1.7197,-0.60763 -7.7272,-0.60763 h -5.5947 z m 10.9832,0.69934 c 0.9401,0.3898 1.5133,1.27258 1.605,2.46491 0.1148,1.55919 -0.4586,2.68273 -1.6624,3.27888 -0.6534,0.32103 -0.6878,0.32103 -3.0954,0.35541 l -2.442,0.0344 v -3.15279 -3.16424 h 2.5795 c 2.0751,0 2.6713,0.0344 3.0153,0.18344 z m 0.5388,7.22274 c 0.6535,0.3554 1.0777,0.81398 1.4216,1.53626 0.2523,0.53884 0.298,0.79106 0.298,1.73116 0,0.99742 -0.035,1.15793 -0.344,1.77702 -0.3898,0.74521 -1.0892,1.30697 -1.9261,1.55919 -0.298,0.0802 -1.4216,0.13759 -3.0037,0.13759 l -2.5222,0.0113 -0.035,-3.53112 -0.021,-3.54257 2.8317,0.0458 c 2.6484,0.0344 2.8777,0.0458 3.3018,0.27514 z"
       inkscape:connector-curvature="0" />
    <path
       style="fill:#000000;stroke:none;stroke-width:0.01146465"
       id="path964"
       d="m 534.1372,206.98961 c -2.5336,0.80253 -3.703,4.04703 -3.3591,9.36663 0.2179,3.38207 1.0662,5.21642 2.8088,6.07627 1.2153,0.59616 2.6828,0.49297 3.8063,-0.28662 1.0891,-0.75667 1.9146,-2.41904 2.2012,-4.47121 0.1836,-1.31845 0.1605,-4.78077 -0.046,-5.98455 -0.3324,-1.99485 -0.9974,-3.30183 -2.098,-4.13875 -0.8713,-0.66495 -2.2356,-0.89424 -3.3133,-0.56177 z m 2.293,0.55031 c 0.9171,0.50445 1.4445,1.62798 1.6853,3.53112 0.1491,1.24964 0.1491,6.07626 0,7.33737 -0.321,2.64834 -1.2841,4.00117 -2.8318,4.01263 -0.321,0 -0.7223,-0.0458 -0.8713,-0.10318 -0.4815,-0.18344 -1.1121,-0.82546 -1.4102,-1.42161 -0.5388,-1.06622 -0.642,-1.82289 -0.6993,-5.5145 -0.08,-4.98714 0.1375,-6.32849 1.2152,-7.40618 0.2867,-0.28661 0.7108,-0.58469 0.9287,-0.65348 0.5617,-0.19492 1.4101,-0.0917 1.9834,0.21785 z"
       inkscape:connector-curvature="0" />
    <path
       style="fill:#000000;stroke:none;stroke-width:0.01146465"
       id="path968"
       d="m 461.4513,207.2877 c -0.8598,0.3554 -0.5159,1.83434 0.4242,1.83434 0.7567,0 1.2038,-0.99742 0.7223,-1.59359 -0.2406,-0.27514 -0.7796,-0.40126 -1.1465,-0.24077 z"
       inkscape:connector-curvature="0" />
    <path
       style="fill:#000000;stroke:none;stroke-width:0.01146465"
       id="path974"
       d="m 460.8666,212.2519 c -1.0662,0.10318 -1.0662,0.10318 -1.0318,0.41272 0.035,0.26369 0.092,0.30954 0.5962,0.36687 0.3554,0.0344 0.6076,0.13759 0.7108,0.27514 0.1261,0.17196 0.1605,0.99742 0.1605,4.19606 0,4.51707 0.057,4.23046 -0.986,4.32218 -0.5617,0.0458 -0.6191,0.0803 -0.6191,0.32102 v 0.27514 h 2.121 2.1209 v -0.28662 c 0,-0.25221 -0.046,-0.28662 -0.4356,-0.28662 -0.2406,0 -0.5503,-0.0803 -0.6879,-0.18343 l -0.2522,-0.17196 v -4.7005 -4.68905 l -0.3097,0.0114 c -0.1836,0.0113 -0.8026,0.0688 -1.3872,0.13758 z"
       inkscape:connector-curvature="0" />
    <path
       style="fill:#000000;stroke:none;stroke-width:0.01146465"
       id="path978"
       d="m 465.0856,212.6073 c 0,0.24076 0.057,0.27514 0.5847,0.32102 0.3554,0.0344 0.665,0.13759 0.7911,0.27514 0.1148,0.1261 1.0318,2.28147 2.0407,4.80369 1.5018,3.78334 1.8687,4.59732 2.0521,4.62025 0.2063,0.0344 0.4357,-0.47005 1.9949,-4.35656 1.9375,-4.87249 2.1095,-5.17056 3.0611,-5.3196 0.4127,-0.0688 0.4815,-0.11466 0.4815,-0.34395 v -0.27514 h -1.6624 -1.6624 v 0.28662 c 0,0.20636 0.057,0.28662 0.2293,0.28662 0.3669,0 0.6879,0.41272 0.6879,0.88278 0,0.56177 -2.6254,7.24566 -2.7515,7.01637 -0.2406,-0.42419 -2.8662,-7.2342 -2.8662,-7.41763 0,-0.24077 0.4356,-0.48152 0.8598,-0.48152 0.2293,0 0.2867,-0.0573 0.2867,-0.28662 v -0.28662 h -2.0636 -2.0637 z"
       inkscape:connector-curvature="0" />
    <path
       style="fill:#000000;stroke:none;stroke-width:0.01146465"
       id="path982"
       d="m 507.3787,214.23528 c -0.1031,0.1261 -0.1148,0.22928 -0.021,0.36687 0.1032,0.18343 0.7223,0.19492 7.3833,0.19492 h 7.2686 v -0.34395 -0.34395 l -7.2342,-0.0344 c -6.5005,-0.0231 -7.2571,-0.0113 -7.3947,0.16051 z"
       inkscape:connector-curvature="0" />
    <path
       style="fill:#000000;stroke:none;stroke-width:0.01146465"
       id="path992"
       d="m 507.3558,218.37401 c -0.1605,0.14904 -0.08,0.49299 0.1375,0.60764 0.2753,0.13758 14.2047,0.1605 14.434,0.0113 0.092,-0.0458 0.1375,-0.21785 0.1148,-0.36687 l -0.035,-0.27514 -7.2915,-0.0344 c -4.0012,-0.0113 -7.326,0.0113 -7.3604,0.0573 z"
       inkscape:connector-curvature="0" />
    <path
       style="fill:#000000;stroke:none;stroke-width:0.01146465"
       id="path994"
       d="m 303.2345,275.27248 c -0.8484,0.32102 -1.1808,0.55031 -1.7541,1.15793 -0.9401,0.99742 -1.3986,2.38465 -0.9286,2.77444 0.1032,0.0803 0.3898,0.16051 0.642,0.16051 0.3784,0 0.5274,-0.0803 0.7911,-0.37832 0.5618,-0.61909 0.4012,-1.21526 -0.3898,-1.46748 l -0.321,-0.10318 0.47,-0.53884 c 0.642,-0.7452 1.5133,-1.14647 2.591,-1.21525 0.5045,-0.0344 1.0548,0 1.3643,0.0917 0.7567,0.20637 1.5477,0.97451 1.949,1.85728 0.4357,0.95157 0.5274,2.64834 0.2408,4.25339 -0.1949,1.05475 -0.5045,2.22414 -0.5159,1.94899 -0.023,-0.43565 -0.5274,-1.42161 -0.9401,-1.83435 -2.0293,-2.06363 -6.6037,-0.13759 -8.2546,3.48526 -0.1834,0.37833 -0.4127,1.14647 -0.5159,1.69677 -0.2408,1.20378 -0.1147,2.15535 0.4357,3.18718 1.433,2.68272 5.2737,2.78591 7.8189,0.21783 1.8916,-1.90313 3.3706,-5.2852 3.726,-8.51823 0.321,-3.01521 -0.7682,-5.52597 -2.8318,-6.54631 -0.6764,-0.33248 -0.8713,-0.37834 -1.9031,-0.40127 -0.8713,-0.0231 -1.2841,0.0231 -1.6739,0.17195 z m 1.9605,6.45461 c 2.0636,0.69933 2.3617,3.61136 0.7108,6.92464 -0.2293,0.43566 -0.6076,1.05475 -0.8599,1.37576 -2.2126,2.78591 -5.824,2.17829 -5.824,-0.9745 0,-0.99742 0.6994,-3.69162 1.2153,-4.72343 0.3783,-0.7452 1.5592,-1.97193 2.1897,-2.28147 0.9172,-0.44713 1.8458,-0.56177 2.5681,-0.32102 z"
       inkscape:connector-curvature="0" />
    <path
       style="fill:#000000;stroke:none;stroke-width:0.01146465"
       id="path998"
       d="m 311.1451,276.21258 v 0.45859 h 1.2038 1.2038 v 7.10808 7.10809 h -1.2038 -1.2038 v 0.51591 0.5159 h 5.8814 c 6.317,0 6.7183,-0.0344 8.0138,-0.60762 0.3669,-0.16052 0.9172,-0.53884 1.2496,-0.84838 2.0752,-1.93753 1.628,-4.98713 -0.9057,-6.27117 -0.5847,-0.2981 -1.5821,-0.60762 -2.1438,-0.66495 -0.2981,-0.0344 -0.2523,-0.0688 0.3439,-0.25221 1.4331,-0.43565 2.3388,-1.07768 2.8662,-2.02924 0.2981,-0.52738 0.3439,-0.7452 0.3439,-1.47895 0,-1.45601 -0.7223,-2.55662 -2.1324,-3.27889 -1.3528,-0.67641 -1.1579,-0.66495 -7.5782,-0.69934 l -5.9386,-0.0459 z m 10.8915,0.71081 c 1.112,0.48151 1.6509,1.38722 1.6509,2.78591 0,1.51334 -0.5847,2.48783 -1.8229,3.06106 -0.5274,0.24077 -0.7567,0.26369 -2.9464,0.2981 l -2.3847,0.0344 v -3.22157 -3.23303 l 2.5567,0.0459 c 1.9375,0.0344 2.6368,0.0918 2.9464,0.22929 z m 0.2407,7.15394 c 1.2497,0.37834 2.0522,1.65091 2.0751,3.31329 0.011,1.15793 -0.2637,1.9146 -0.9286,2.57955 -0.8484,0.83691 -1.1923,0.91717 -4.2763,0.91717 h -2.614 v -3.49672 -3.49672 h 2.5567 c 2.0177,0 2.6942,0.0344 3.1871,0.18343 z"
       inkscape:connector-curvature="0" />
    <path
       style="fill:#000000;stroke:none;stroke-width:0.01146465"
       id="path1002"
       d="m 221.8928,291.65547 c -0.1834,0.0113 -0.6191,0.0688 -0.9401,0.10318 -0.5388,0.0574 -0.6076,0.0918 -0.6076,0.33247 0,0.22928 0.069,0.27514 0.5618,0.34395 1.0776,0.14903 0.9859,-0.5503 1.0203,7.4291 0.023,6.19091 0.011,7.07369 -0.149,7.22273 -0.092,0.10318 -0.4586,0.21784 -0.8025,0.25221 -0.5618,0.0803 -0.6306,0.11466 -0.6306,0.3554 v 0.27514 h 2.2356 2.2356 v -0.27514 c 0,-0.24077 -0.057,-0.27513 -0.6764,-0.34395 -0.4013,-0.0458 -0.7452,-0.14902 -0.8369,-0.26369 -0.1147,-0.14903 -0.1605,-1.65091 -0.1835,-7.85328 l -0.034,-7.6584 -0.4242,0.0114 c -0.2292,0.0113 -0.5732,0.0458 -0.7681,0.0688 z"
       inkscape:connector-curvature="0" />
    <path
       style="fill:#000000;stroke:none;stroke-width:0.01146465"
       id="path1008"
       d="m 230.3193,292.32042 v 0.50444 l 1.2382,0.0344 1.2267,0.0344 0.034,7.01637 0.023,7.02783 h -1.2611 -1.2612 v 0.51591 0.51591 h 7.3947 c 4.07,0 7.3947,-0.0344 7.3947,-0.0917 0,-0.0458 0.2064,-1.36429 0.4586,-2.92348 0.2522,-1.57066 0.4586,-2.96935 0.4586,-3.12985 0,-0.24077 -0.046,-0.27514 -0.4586,-0.27514 -0.4242,0 -0.4471,0.0231 -0.5159,0.42419 -0.2981,1.79995 -0.8025,3.06107 -1.4904,3.76041 -0.9745,0.96303 -1.9948,1.20378 -5.2393,1.20378 h -2.3847 v -3.45086 -3.46232 l 1.1809,0.0573 c 1.9604,0.10318 2.442,0.45859 2.6483,1.92607 l 0.1147,0.92863 0.47,-0.0344 0.4586,-0.0344 v -3.26742 -3.26744 l -0.47,-0.0344 -0.4701,-0.0344 -0.08,0.80253 c -0.149,1.50187 -0.6764,1.90313 -2.6139,2.02924 l -1.2382,0.0803 v -3.17571 -3.16424 h 2.098 c 1.1465,0 2.4305,0.0574 2.8433,0.11462 2.0292,0.29811 2.9808,1.32991 3.3476,3.6343 l 0.1376,0.83692 h 0.4815 c 0.2752,0 0.493,-0.0574 0.493,-0.12611 0,-0.21784 -0.5732,-4.96419 -0.6305,-5.23935 l -0.057,-0.2522 h -7.1654 -7.1655 z"
       inkscape:connector-curvature="0" />
    <path
       style="fill:#000000;stroke:none;stroke-width:0.01146465"
       id="path1022"
       d="m 193.3917,297.81199 c -0.7911,0.32102 -1.1923,0.59615 -1.7885,1.24965 -2.2929,2.48782 -1.6509,7.02783 1.1923,8.5297 1.6739,0.88278 3.3936,0.7108 4.5973,-0.45859 0.5618,-0.53883 1.0548,-1.41015 1.0548,-1.85727 0,-0.49298 -0.2293,-0.32103 -0.5618,0.44712 -0.7222,1.59359 -2.2012,2.35025 -3.6228,1.85728 -1.628,-0.55031 -2.5108,-2.20122 -2.5108,-4.71198 0,-1.37576 0.1491,-2.21268 0.5847,-3.09546 0.5733,-1.18085 1.4331,-1.76555 2.5681,-1.77701 1.0548,0 2.0637,0.48151 2.5108,1.20378 0.298,0.48152 0.2866,0.51591 -0.092,0.51591 -0.4357,0 -0.7108,0.32102 -0.7108,0.82545 0,0.50445 0.2866,0.7796 0.8254,0.7796 0.5503,0 0.7796,-0.28661 0.7796,-0.97449 0,-2.05217 -2.6483,-3.4394 -4.8266,-2.53369 z"
       inkscape:connector-curvature="0" />
    <path
       style="fill:#000000;stroke:none;stroke-width:0.01146465"
       id="path1026"
       d="m 201.1991,297.73174 c -1.2726,0.1261 -1.3757,0.14902 -1.3757,0.42419 0,0.22928 0.069,0.27514 0.5961,0.33246 0.986,0.12612 0.9401,-0.0573 1.0089,4.06995 0.057,3.42794 0.069,3.6687 0.3095,4.17315 0.3325,0.72226 1.0319,1.16939 2.0981,1.35282 1.4789,0.25221 2.6025,-0.21784 3.405,-1.41015 l 0.3669,-0.55031 0.034,1.00889 0.034,1.0089 0.6305,-0.0344 c 0.344,-0.0113 0.9745,-0.0573 1.4102,-0.0917 0.7108,-0.0688 0.7681,-0.0918 0.7681,-0.33246 0,-0.22929 -0.069,-0.27514 -0.5847,-0.34395 -1.0776,-0.14903 -1.0203,0.13758 -1.0203,-5.11323 v -4.6088 l -1.0548,0.0803 c -1.6279,0.11466 -1.8114,0.16051 -1.8114,0.47004 0,0.21785 0.08,0.2637 0.5962,0.32103 0.9745,0.11462 0.9515,0.0344 0.9859,3.24449 0.023,2.25854 0,2.94643 -0.149,3.51965 -0.2293,0.92864 -0.6879,1.65091 -1.2955,2.08657 -0.4242,0.28662 -0.6191,0.34395 -1.3184,0.37833 -1.0548,0.0459 -1.5248,-0.17195 -1.8802,-0.89424 -0.2637,-0.50444 -0.2637,-0.57323 -0.2637,-4.83808 v -4.33364 l -0.5389,0.0231 c -0.3095,0 -0.7337,0.0344 -0.9515,0.0573 z"
       inkscape:connector-curvature="0" />
    <path
       style="fill:#000000;stroke:none;stroke-width:0.01146465"
       id="path1028"
       d="m 213.1797,297.73174 c -1.3185,0.14902 -1.3185,0.14902 -1.3185,0.42419 0,0.24077 0.069,0.27514 0.6077,0.33246 1.0318,0.12612 0.9974,-0.0458 0.9974,4.49415 0,3.34768 -0.023,3.96677 -0.172,4.11581 -0.092,0.0917 -0.4586,0.20636 -0.8025,0.24077 -0.5618,0.0802 -0.6305,0.11466 -0.6305,0.3554 v 0.27514 h 2.4075 2.4076 v -0.28662 c 0,-0.25221 -0.046,-0.28661 -0.4242,-0.28661 -0.6076,-0.0113 -1.307,-0.18344 -1.4216,-0.36688 -0.149,-0.22928 -0.1261,-5.4801 0.023,-6.19091 0.1948,-0.88278 0.4929,-1.50186 0.9859,-2.05217 0.493,-0.5503 0.986,-0.79106 1.5936,-0.79106 0.4013,0 0.4127,0.0113 0.2522,0.19488 -0.2751,0.30954 -0.3439,0.68788 -0.1949,0.9745 0.1835,0.35541 0.3211,0.43566 0.7452,0.43566 0.7682,0 1.0089,-0.95156 0.3898,-1.54773 -0.47,-0.45859 -1.5592,-0.5503 -2.2585,-0.19492 -0.5732,0.2981 -1.135,0.9401 -1.4789,1.67384 l -0.2637,0.5847 v -1.23819 l -0.011,-1.22672 -0.5388,0.0113 c -0.3096,0.0113 -0.6994,0.0458 -0.8943,0.0688 z"
       inkscape:connector-curvature="0" />
    <path
       style="fill:#000000;stroke:none;stroke-width:0.01146465"
       id="path1036"
       d="m 254.8881,299.56608 c -0.1376,0.0231 -0.2866,0.16051 -0.3325,0.28662 -0.1719,0.55029 -0.149,0.55029 7.4176,0.55029 6.3629,0 7.0967,-0.0231 7.2686,-0.18343 0.1032,-0.10318 0.1606,-0.24077 0.1376,-0.32102 -0.1261,-0.3898 -0.5044,-0.41273 -7.4176,-0.3898 -3.7489,0 -6.9361,0.0344 -7.0737,0.0573 z"
       inkscape:connector-curvature="0" />
    <path
       style="fill:#000000;stroke:none;stroke-width:0.01146465"
       id="path1040"
       d="m 279.2161,301.69851 c -0.149,0.11465 -0.1835,0.24077 -0.1261,0.47005 l 0.069,0.2981 7.1425,-0.0231 7.131,-0.0344 0.034,-0.27514 c 0.092,-0.5847 0.149,-0.5847 -7.1998,-0.5847 -5.5375,0 -6.8788,0.0344 -7.0508,0.14904 z"
       inkscape:connector-curvature="0" />
    <path
       style="fill:#000000;stroke:none;stroke-width:0.01146465"
       id="path1042"
       d="m 296.585,302.06538 c 0,0.14902 1.8802,0.17196 16.2798,0.17196 14.3996,0 16.2799,-0.0231 16.2799,-0.17196 0,-0.14904 -1.8803,-0.17196 -16.2799,-0.17196 -14.3996,0 -16.2798,0.0231 -16.2798,0.17196 z"
       inkscape:connector-curvature="0" />
    <path
       style="fill:#000000;stroke:none;stroke-width:0.01146465"
       id="path1046"
       d="m 254.6703,303.88825 c -0.172,0.13759 -0.1949,0.20637 -0.092,0.37834 0.1261,0.19492 0.5273,0.20636 7.3259,0.24077 7.0851,0.0231 7.5093,0.0113 7.5093,-0.33247 0,-0.0458 -0.08,-0.17196 -0.1834,-0.2637 -0.1605,-0.1605 -0.9745,-0.18344 -7.2571,-0.18344 -5.9846,0 -7.1081,0.0231 -7.303,0.16052 z"
       inkscape:connector-curvature="0" />
    <path
       style="fill:#000000;stroke:none;stroke-width:0.01146465"
       id="path1054"
       d="m 308.8522,307.4423 c -0.8598,0.22928 -1.3987,0.5503 -2.0063,1.15792 -0.9745,0.96304 -1.4675,2.32734 -1.0318,2.80885 0.3898,0.43565 1.3757,0.19491 1.6394,-0.40126 0.2981,-0.65349 0.011,-1.20379 -0.642,-1.20379 -0.3325,0 -0.2293,-0.20636 0.4013,-0.84839 1.2611,-1.27257 3.5425,-1.44455 4.8151,-0.35541 1.3185,1.13501 1.6509,3.37062 0.9516,6.47754 l -0.2637,1.15792 -0.2064,-0.64202 c -0.6764,-2.20121 -2.9235,-2.8203 -5.503,-1.52479 -2.1554,1.07767 -3.7948,3.32475 -4.1273,5.65207 -0.3554,2.60247 1.2726,4.74637 3.7719,4.95273 1.9834,0.16051 3.9324,-0.84838 5.4342,-2.8203 0.7567,-1.00889 1.8344,-3.23303 2.2586,-4.67758 0.8942,-3.03814 0.8713,-5.1247 -0.057,-7.10809 -1.0089,-2.13243 -3.2675,-3.22157 -5.4343,-2.6254 z m 2.2929,6.87879 c 0.2867,0.18344 0.5503,0.51591 0.7682,0.95156 0.2866,0.59617 0.321,0.7796 0.3095,1.81142 0,0.98596 -0.057,1.30697 -0.3783,2.2356 -0.5389,1.59359 -1.1006,2.57955 -1.9719,3.45086 -0.9745,0.98597 -1.7083,1.28405 -2.9808,1.22672 -0.7109,-0.0231 -0.9516,-0.0918 -1.3299,-0.34395 -1.1007,-0.72227 -1.2956,-2.28146 -0.6191,-4.83808 0.1949,-0.75666 0.5273,-1.70823 0.7337,-2.12096 0.4471,-0.9057 1.5248,-2.0407 2.2815,-2.40757 1.0776,-0.51591 2.3846,-0.49298 3.1871,0.0344 z"
       inkscape:connector-curvature="0" />
    <path
       style="fill:#000000;stroke:none;stroke-width:0.01146465"
       id="path1062"
       d="m 320.1105,309.71229 c -0.1605,0.18345 -0.3898,0.89426 -0.7337,2.27001 l -0.5045,2.00632 -1.4216,0.0573 c -1.284,0.0458 -1.4331,0.0803 -1.4675,0.27514 -0.069,0.33247 0.1835,0.41272 1.4446,0.41272 0.8713,0 1.1694,0.0344 1.1694,0.14903 0,0.0802 -0.3898,1.70823 -0.8599,3.62283 -0.47,1.90314 -0.8598,3.65723 -0.8598,3.89799 0,0.57323 0.4356,1.38722 0.8942,1.69676 0.9974,0.65349 2.2012,0.40127 3.3018,-0.69934 1.0204,-1.02035 1.8573,-2.82031 1.307,-2.82031 -0.057,0 -0.3095,0.40127 -0.5618,0.88278 -0.7681,1.52481 -1.7426,2.43051 -2.6483,2.47637 -0.5847,0.0231 -0.814,-0.20636 -0.8828,-0.84838 -0.046,-0.43566 0.7108,-3.78334 1.8114,-7.93355 l 0.1147,-0.42419 h 1.2038 c 1.284,0 1.6509,-0.10318 1.6509,-0.45859 0,-0.21783 -0.08,-0.22928 -1.3184,-0.22928 -1.0777,0 -1.3185,-0.0344 -1.3185,-0.17196 0,-0.0917 0.2064,-0.95156 0.4586,-1.9146 0.2522,-0.96303 0.4586,-1.8458 0.4586,-1.94898 0,-0.53884 -0.814,-0.73375 -1.2382,-0.29811 z"
       inkscape:connector-curvature="0" />
    <path
       style="fill:#000000;stroke:none;stroke-width:0.01146465"
       id="path996"
       d="m 547.7285,275.27085 c -0.8025,0.30954 -1.1579,0.52737 -1.7082,1.06621 -0.5962,0.60763 -1.158,1.7197 -1.158,2.3044 0,1.15793 1.7197,0.91717 1.9032,-0.2637 0.08,-0.44711 -0.1148,-0.68788 -0.6994,-0.87131 l -0.344,-0.11466 0.6305,-0.63056 c 0.7911,-0.77959 1.6166,-1.12353 2.7172,-1.12353 0.4127,0 0.963,0.0573 1.2038,0.13759 0.6878,0.20636 1.4903,0.98595 1.8801,1.83434 0.3211,0.68788 0.3324,0.80253 0.3324,2.32733 0,1.2955 -0.057,1.83434 -0.2753,2.78591 l -0.2753,1.18086 -0.2636,-0.72227 c -0.3097,-0.84839 -1.1121,-1.68531 -1.8459,-1.90314 -1.5018,-0.44712 -3.6916,0.21784 -5.2393,1.59359 -1.8,1.61652 -2.8547,4.18459 -2.4764,6.08773 0.4815,2.44197 2.3618,3.74894 4.9298,3.405 2.3732,-0.32102 4.6662,-2.60248 5.9731,-5.92723 1.7197,-4.41389 1.5363,-8.00233 -0.5388,-10.07743 -0.9172,-0.91716 -1.6624,-1.22672 -3.084,-1.2611 -0.8713,-0.0231 -1.2726,0.0231 -1.6624,0.17195 z m 1.9604,6.4546 c 0.6535,0.22929 1.1465,0.67641 1.4675,1.35283 0.4242,0.91717 0.4128,2.40758 -0.046,3.7948 -0.6993,2.17828 -1.9375,3.90945 -3.2445,4.55147 -0.8484,0.41272 -2.247,0.45859 -2.8776,0.0917 -1.3643,-0.80253 -1.5821,-2.37318 -0.7566,-5.29667 0.5503,-1.92606 1.3872,-3.21011 2.591,-4.01263 0.814,-0.53884 2.0636,-0.7452 2.8661,-0.48151 z"
       inkscape:connector-curvature="0" />
    <path
       style="fill:#000000;stroke:none;stroke-width:0.01146465"
       id="path1000"
       d="m 555.5474,276.34853 0.035,0.49298 1.2382,0.0344 1.2267,0.0344 v 6.98198 6.98197 l -1.2267,0.0344 -1.2382,0.0344 -0.035,0.48151 -0.035,0.49298 h 7.4291 7.4291 l 0.4356,-2.84323 c 0.2523,-1.5592 0.4701,-2.96935 0.5045,-3.15279 0.057,-0.29809 0.046,-0.30954 -0.4356,-0.30954 h -0.5045 l -0.1949,0.99743 c -0.2866,1.57065 -0.5961,2.27 -1.3414,3.02667 -1.0662,1.07767 -1.433,1.18086 -4.8495,1.22672 l -2.8432,0.0458 v -3.39354 -3.39354 h 1.2381 c 1.5707,0 2.0981,0.20636 2.4305,0.94011 0.1375,0.29809 0.2293,0.7452 0.2293,1.14646 v 0.66495 h 0.5159 0.5159 v -3.26743 -3.26743 h -0.5045 -0.493 l -0.057,0.814 c -0.1031,1.45601 -0.6878,1.86873 -2.6139,1.8802 h -1.2038 l -0.035,-3.07252 -0.021,-3.06107 h 2.5681 c 2.2356,0 2.6598,0.0344 3.3019,0.22929 1.4101,0.43566 2.098,1.35282 2.4649,3.31328 l 0.1948,1.04328 h 0.4243 c 0.2405,0 0.4585,-0.0344 0.4815,-0.0917 0.035,-0.0459 -0.092,-1.23819 -0.2754,-2.6598 -0.1718,-1.42163 -0.321,-2.64834 -0.321,-2.7286 -0.011,-0.10318 -1.5363,-0.13759 -7.2457,-0.13759 h -7.2227 z"
       inkscape:connector-curvature="0" />
    <path
       style="fill:#000000;stroke:none;stroke-width:0.01146465"
       id="path1004"
       d="m 474.0681,291.64238 c -0.1261,0.0231 -0.5274,0.0688 -0.8828,0.10318 -0.5961,0.0688 -0.6649,0.10318 -0.6649,0.34395 0,0.22928 0.069,0.27513 0.5618,0.34395 1.0547,0.14902 0.9859,-0.40127 1.0203,7.38323 0.011,5.354 -0.011,6.89025 -0.1261,7.11955 -0.1148,0.22929 -0.2753,0.30955 -0.8025,0.3898 -0.5733,0.0917 -0.6535,0.13759 -0.6535,0.37834 v 0.26369 h 2.1783 2.1783 v -0.27514 c 0,-0.24077 -0.069,-0.27514 -0.6306,-0.35541 -0.4586,-0.0573 -0.6764,-0.13758 -0.8025,-0.32102 -0.1492,-0.21784 -0.1719,-1.26111 -0.1719,-7.84183 v -7.60106 l -0.4815,0.0113 c -0.2749,0.0114 -0.5961,0.0344 -0.7222,0.0573 z"
       inkscape:connector-curvature="0" />
    <path
       style="fill:#000000;stroke:none;stroke-width:0.01146465"
       id="path1006"
       d="m 482.4946,292.19268 v 0.51591 l 1.2382,0.0344 1.2267,0.0344 0.035,7.0737 0.021,7.08514 h -1.2611 -1.2611 v 0.52739 0.5159 l 6.168,-0.0344 c 5.5603,-0.0344 6.2138,-0.0688 6.7871,-0.25222 1.5935,-0.51591 2.6254,-1.35282 3.1871,-2.56808 0.2406,-0.52738 0.298,-0.82545 0.298,-1.51334 0,-1.12353 -0.321,-1.85727 -1.1235,-2.61393 -0.8255,-0.79107 -1.4675,-1.08914 -3.1069,-1.45602 -0.3211,-0.0688 -0.275,-0.10318 0.5388,-0.3554 1.2726,-0.40126 2.1439,-1.07768 2.614,-2.0407 0.344,-0.68789 0.3669,-0.82546 0.321,-1.5248 -0.1261,-1.78849 -1.3299,-3.01521 -3.5884,-3.65723 -0.5962,-0.17195 -1.4217,-0.20636 -6.3858,-0.25221 l -5.7094,-0.0344 z m 11.0749,0.83691 c 1.8802,1.0089 2.0522,4.0585 0.298,5.3884 -0.7452,0.56176 -1.135,0.64202 -3.6573,0.68787 l -2.3273,0.0574 v -3.23304 -3.23303 l 2.614,0.0458 c 2.419,0.0344 2.6369,0.0573 3.0725,0.28662 z m 0.1949,7.09663 c 1.1579,0.3898 1.949,1.76555 1.9604,3.37061 0,1.42161 -0.5847,2.48782 -1.6967,3.07252 -0.5847,0.30955 -0.5962,0.30955 -3.3592,0.34395 l -2.7859,0.0458 v -3.50818 -3.50818 h 2.6713 c 2.1439,0 2.7859,0.0344 3.2101,0.18343 z"
       inkscape:connector-curvature="0" />
    <path
       style="fill:#000000;stroke:none;stroke-width:0.01146465"
       id="path1010"
       d="m 621.2055,292.18121 c -0.4472,0.2981 -0.7911,0.90571 -0.7911,1.39869 0,0.49298 0.3441,1.1006 0.7911,1.39869 0.814,0.5503 2.0063,0.22929 2.4419,-0.65348 0.5733,-1.12354 -0.2405,-2.40759 -1.5133,-2.40759 -0.3668,0 -0.6649,0.0803 -0.9286,0.26369 z"
       inkscape:connector-curvature="0" />
    <path
       style="fill:#000000;stroke:none;stroke-width:0.01146465"
       id="path1012"
       d="m 586.7083,294.88687 c -0.069,0.13758 -0.1148,1.46747 -0.1148,3.49672 v 3.27889 l -3.3935,0.0231 c -3.0267,0.0344 -3.4165,0.0573 -3.5197,0.22929 -0.092,0.13758 -0.08,0.24076 0.021,0.36687 0.1375,0.16051 0.5847,0.18344 3.5197,0.18344 h 3.3706 v 3.27889 c 0,2.02924 0.046,3.35914 0.1148,3.49672 0.1605,0.28661 0.5274,0.28661 0.6879,0 0.069,-0.13759 0.1148,-1.46748 0.1148,-3.49672 v -3.27889 l 3.3935,-0.0231 c 3.0267,-0.0344 3.4165,-0.0573 3.5197,-0.22929 0.092,-0.13759 0.08,-0.24077 -0.021,-0.36687 -0.1375,-0.16051 -0.5847,-0.18344 -3.5197,-0.18344 h -3.3706 v -3.27889 c 0,-2.02925 -0.046,-3.35915 -0.1148,-3.49672 -0.069,-0.11462 -0.2179,-0.21784 -0.344,-0.21784 -0.1262,0 -0.2754,0.10318 -0.3441,0.21784 z"
       inkscape:connector-curvature="0" />
    <path
       style="fill:#000000;stroke:none;stroke-width:0.01146465"
       id="path1020"
       d="m 621.2743,297.43203 c -0.814,0.0344 -1.5249,0.0803 -1.5707,0.0917 -0.057,0 -0.092,0.24077 -0.092,0.52737 v 0.5159 h 0.642 c 1.1809,0 1.0777,-0.5503 1.0777,5.77819 0,6.17945 -0.021,6.42021 -0.7452,7.14248 -0.3441,0.34395 -0.4357,0.37833 -1.0777,0.37833 -0.3898,0 -0.6993,-0.0113 -0.6993,-0.0344 0,-0.0113 0.1031,-0.2293 0.2292,-0.48152 0.275,-0.53884 0.2867,-0.87131 0.046,-1.37576 -0.321,-0.68787 -1.2726,-0.9401 -1.9604,-0.51591 -0.516,0.30954 -0.6421,0.61909 -0.5847,1.35283 0.046,0.56177 0.1031,0.67642 0.5159,1.06621 0.6535,0.59617 1.4904,0.83692 2.7744,0.76813 1.7656,-0.10318 3.0037,-0.82545 3.6458,-2.13242 l 0.321,-0.65349 0.035,-6.28263 0.035,-6.27116 -0.5503,0.0231 c -0.298,0.0113 -1.2152,0.0573 -2.0407,0.10318 z"
       inkscape:connector-curvature="0" />
    <path
       style="fill:#000000;stroke:none;stroke-width:0.01146465"
       id="path1024"
       d="m 445.5899,297.75304 c -1.8458,0.68787 -3.0725,2.49929 -3.1986,4.71197 -0.057,1.1694 0.092,1.99485 0.5503,2.95788 1.3528,2.86616 4.8839,3.64575 6.81,1.51334 0.6649,-0.73375 1.112,-1.949 0.7222,-1.949 -0.08,0 -0.2753,0.2981 -0.4241,0.65348 -0.5618,1.35283 -1.5019,2.02925 -2.8089,2.04072 -0.665,0 -0.8942,-0.0459 -1.3299,-0.30955 -0.986,-0.5847 -1.5821,-1.50186 -1.8802,-2.91201 -0.4471,-2.08658 0.046,-4.58587 1.1006,-5.64062 0.8713,-0.87131 2.121,-1.08914 3.2674,-0.5503 0.5045,0.24076 1.4216,1.1006 1.4216,1.35283 0,0.0458 -0.1491,0.0917 -0.3323,0.0917 -1.0433,0 -1.0204,1.4904 0.025,1.58212 0.5732,0.0458 0.8828,-0.27514 0.8828,-0.92863 -0.011,-0.97451 -0.7223,-1.9834 -1.7885,-2.48784 -0.7796,-0.37832 -2.1668,-0.43565 -3.0152,-0.1261 z"
       inkscape:connector-curvature="0" />
    <path
       style="fill:#000000;stroke:none;stroke-width:0.01146465"
       id="path1030"
       d="m 453.2024,297.73011 c -1.0547,0.0918 -1.2037,0.13758 -1.2037,0.43565 0,0.24077 0.057,0.28662 0.3323,0.28662 0.5389,0 1.0548,0.24076 1.1694,0.53883 0.057,0.14904 0.1031,1.76556 0.1031,3.57698 0,3.63429 0.08,4.1846 0.6535,4.73491 0.6994,0.6764 2.1095,1.00888 3.2216,0.76812 0.7796,-0.16051 1.4675,-0.68787 1.949,-1.47893 l 0.3668,-0.6191 v 1.1006 1.11208 l 0.5503,-0.0458 c 0.298,-0.0344 0.9402,-0.0803 1.4331,-0.12611 0.8255,-0.0573 0.8828,-0.0802 0.8828,-0.33247 0,-0.22928 -0.08,-0.26369 -0.5961,-0.33246 -1.0777,-0.14904 -1.0089,0.19488 -1.0089,-5.09032 v -4.64318 l -1.1694,0.0803 c -1.5707,0.11466 -1.6968,0.14903 -1.6968,0.48152 0,0.20635 0.057,0.27514 0.2636,0.27514 0.1375,0 0.4471,0.0573 0.6764,0.11465 0.642,0.18344 0.6994,0.53884 0.642,3.78334 -0.057,2.99227 -0.1374,3.41646 -0.8369,4.36803 -0.5503,0.76813 -1.2152,1.05475 -2.2356,0.99742 -0.9057,-0.0458 -1.307,-0.27514 -1.628,-0.9057 -0.1835,-0.3554 -0.2062,-0.82546 -0.2062,-4.78076 v -4.3795 l -0.5962,0.0231 c -0.3323,0.0113 -0.8139,0.0344 -1.0662,0.0573 z"
       inkscape:connector-curvature="0" />
    <path
       style="fill:#000000;stroke:none;stroke-width:0.01146465"
       id="path1032"
       d="m 465.2403,297.73011 c -1.0547,0.0918 -1.2037,0.13758 -1.2037,0.43565 0,0.24077 0.057,0.28662 0.3323,0.28662 0.5388,0 1.0547,0.24076 1.1694,0.53883 0.057,0.14904 0.1031,1.99485 0.1031,4.10435 0,3.2445 -0.021,3.85213 -0.1718,4.00117 -0.092,0.0917 -0.4586,0.20636 -0.8026,0.24076 -0.5617,0.0803 -0.6305,0.11467 -0.6305,0.35541 v 0.27514 h 2.4076 2.4076 v -0.27514 c 0,-0.24077 -0.057,-0.27514 -0.7452,-0.33246 -0.4128,-0.0459 -0.8484,-0.12612 -0.9631,-0.19489 -0.321,-0.17196 -0.4013,-1.00889 -0.321,-3.71455 0.046,-1.9146 0.092,-2.4305 0.298,-3.07253 0.4815,-1.4904 1.3872,-2.38464 2.442,-2.38464 h 0.4471 l -0.2293,0.29809 c -0.47,0.60762 -0.1492,1.30697 0.5962,1.30697 0.9859,0 1.0433,-1.28404 0.08,-1.77702 -0.3783,-0.19492 -1.3299,-0.22928 -1.7656,-0.0573 -0.5159,0.19491 -1.2382,0.96304 -1.5821,1.66237 l -0.321,0.68788 v -1.23818 -1.22672 l -0.5389,0.0231 c -0.3097,0.0113 -0.7567,0.0344 -1.0089,0.0574 z"
       inkscape:connector-curvature="0" />
    <path
       style="fill:#000000;stroke:none;stroke-width:0.01146465"
       id="path1038"
       d="m 508.4391,299.59884 c -0.3096,0.12611 -0.3668,0.63056 -0.08,0.73374 0.3324,0.12611 14.1474,0.0803 14.3882,-0.0458 0.321,-0.17196 0.2753,-0.56177 -0.08,-0.68789 -0.3669,-0.14903 -13.8723,-0.13758 -14.2276,0 z"
       inkscape:connector-curvature="0" />
    <path
       style="fill:#000000;stroke:none;stroke-width:0.01146465"
       id="path1044"
       d="m 541.079,302.06375 c 0,0.14903 1.8,0.17195 15.5346,0.17195 13.7347,0 15.5346,-0.0231 15.5346,-0.17195 0,-0.14904 -1.7999,-0.17196 -15.5346,-0.17196 -13.7346,0 -15.5346,0.0231 -15.5346,0.17196 z"
       inkscape:connector-curvature="0" />
    <path
       style="fill:#000000;stroke:none;stroke-width:0.01146465"
       id="path1048"
       d="m 508.3703,303.80637 c -0.1491,0.0344 -0.1948,0.13759 -0.1718,0.35541 l 0.035,0.30954 h 7.3374 c 7.1539,0 7.3374,0 7.3718,-0.21784 0.1031,-0.52738 0.057,-0.52738 -7.3604,-0.51591 -3.8521,0.0113 -7.0966,0.0344 -7.2113,0.0688 z"
       inkscape:connector-curvature="0" />
    <path
       style="fill:#000000;stroke:none;stroke-width:0.01146465"
       id="path1056"
       d="m 552.5436,307.45213 c -1.2152,0.34395 -2.2241,1.18086 -2.7858,2.31586 -0.4701,0.94011 -0.4816,1.47895 -0.035,1.77702 0.5044,0.34395 1.4904,-0.20636 1.6279,-0.89424 0.08,-0.43566 -0.2522,-0.84838 -0.6993,-0.84838 -0.3783,0 -0.3669,-0.10318 0.1148,-0.66495 0.5618,-0.64202 1.6624,-1.18086 2.6025,-1.24965 2.7056,-0.21785 4.219,2.18975 3.6342,5.81257 -0.1835,1.14647 -0.4585,2.29294 -0.5502,2.29294 -0.046,0 -0.1375,-0.21785 -0.2062,-0.49298 -0.1949,-0.73374 -0.7453,-1.41015 -1.4331,-1.75409 -0.493,-0.25221 -0.7682,-0.30955 -1.4675,-0.32102 -2.6598,-0.0231 -5.3426,2.0751 -6.3973,4.99859 -0.2523,0.68788 -0.298,1.04328 -0.3097,1.98338 0,1.05475 0.035,1.20379 0.3669,1.91459 0.8025,1.69677 2.27,2.51077 4.2305,2.35026 2.5566,-0.21784 4.7463,-2.22415 6.2138,-5.67501 1.1006,-2.591 1.5707,-5.70939 1.1235,-7.47495 -0.47,-1.8802 -1.6279,-3.38207 -3.0152,-3.89798 -0.8713,-0.33247 -2.1783,-0.40126 -3.0152,-0.17196 z m 2.3962,6.91319 c 0.2292,0.17196 0.5617,0.61909 0.7452,0.98596 0.298,0.58469 0.3323,0.7796 0.3323,1.65091 -0.011,1.63945 -0.6878,3.53111 -1.8114,5.13616 -0.8942,1.24965 -2.0063,1.8802 -3.3247,1.8802 -1.3299,-0.0113 -2.1095,-0.52737 -2.4649,-1.65091 -0.3211,-0.99742 0.2406,-4.12726 1.0203,-5.66354 0.4472,-0.88277 1.4331,-1.94898 2.1898,-2.36171 1.0891,-0.59616 2.5566,-0.5847 3.3133,0.0231 z"
       inkscape:connector-curvature="0" />
    <g
       id="g1976"
       transform="matrix(3.5433071,0,0,3.5433071,53.2127,25.20126)">
      <path
         inkscape:connector-curvature="0"
         d="m 136.02364,76.729272 c -0.055,0.03236 -0.15208,0.07118 -0.22002,0.08089 -0.068,0.01294 -0.12296,0.03559 -0.12296,0.055 0,0.03559 0.15531,0.01941 0.26856,-0.02265 0.0518,-0.02265 0.055,0.02265 0.0485,0.763596 l -0.01,0.789482 -0.15207,0.0097 c -0.0874,0.0065 -0.15531,0.02265 -0.15531,0.04206 0,0.01618 0.17149,0.02912 0.40445,0.02912 0.23296,0 0.40445,-0.01294 0.40445,-0.02912 0,-0.01941 -0.0679,-0.03559 -0.15207,-0.04206 l -0.15531,-0.0097 -0.01,-0.867136 c -0.003,-0.47563 -0.0194,-0.863899 -0.0323,-0.863899 -0.013,0 -0.0647,0.02912 -0.11648,0.06471 z"
         id="path1018"
         style="fill:#3f3f3f;fill-opacity:1;stroke:none;stroke-width:0.00323558" />
      <path
         inkscape:connector-curvature="0"
         d="m 134.90412,78.961822 c 0,0.01941 0.27503,0.03236 0.7636,0.03236 h 0.76683 l -0.0809,0.06471 c -0.16177,0.122952 -0.21354,0.436803 -0.0744,0.436803 0.0938,0 0.11001,-0.145601 0.0194,-0.16825 -0.0615,-0.01618 -0.0615,-0.02265 -0.0194,-0.11001 0.0485,-0.08736 0.19413,-0.190899 0.27502,-0.190899 0.0874,0 0.25238,0.106774 0.28797,0.181192 0.0485,0.11001 0.0453,0.317087 -0.01,0.446511 -0.0226,0.05824 -0.18119,0.265317 -0.35268,0.459452 -0.16825,0.194135 -0.30091,0.362385 -0.2912,0.375327 0.006,0.01618 0.19413,0.02589 0.41092,0.02589 h 0.39797 l 0.0226,-0.122952 c 0.0291,-0.190899 0.0194,-0.268553 -0.0194,-0.152072 -0.0194,0.05177 -0.0518,0.106774 -0.0712,0.119716 -0.0485,0.03236 -0.60182,0.03236 -0.60182,0 0,-0.01294 0.13913,-0.161779 0.31062,-0.330029 0.35267,-0.349443 0.40121,-0.427097 0.40121,-0.621232 -0.003,-0.16825 -0.055,-0.268553 -0.1812,-0.352678 l -0.0938,-0.06148 h 0.22002 c 0.12295,0 0.21679,-0.01294 0.21679,-0.03236 0,-0.01941 -0.40445,-0.03235 -1.14863,-0.03235 -0.74419,0 -1.14864,0.01294 -1.14864,0.03235 z"
         id="path1050"
         style="fill:#3f3f3f;fill-opacity:1;stroke:none;stroke-width:0.00323558" />
      <path
         inkscape:connector-curvature="0"
         d="m 135.50271,80.155751 c -0.14884,0.06795 -0.35915,0.284731 -0.42386,0.443275 -0.10354,0.24914 -0.0388,0.553284 0.15207,0.685943 0.16501,0.116481 0.59211,0.02265 0.7733,-0.171486 0.11972,-0.129423 0.0485,-0.132659 -0.0971,-0.0065 -0.11971,0.100303 -0.33002,0.184428 -0.46592,0.184428 -0.0259,0 -0.0874,-0.03236 -0.13266,-0.07442 -0.0744,-0.06148 -0.0874,-0.100303 -0.0874,-0.239433 0.003,-0.275025 0.0938,-0.524164 0.24914,-0.682708 0.11972,-0.119716 0.15531,-0.135894 0.2815,-0.135894 0.17795,0 0.26208,0.07118 0.1553,0.129423 -0.0841,0.0453 -0.0776,0.171486 0.01,0.187664 0.15854,0.03236 0.21031,-0.203842 0.068,-0.313851 -0.10678,-0.08413 -0.30415,-0.08736 -0.4821,-0.0065 z"
         id="path1058"
         style="fill:#3f3f3f;fill-opacity:1;stroke:none;stroke-width:0.00323558" />
    </g>
    <g
       id="g1983"
       transform="matrix(3.5433071,0,0,3.5433071,53.2127,25.20126)">
      <path
         inkscape:connector-curvature="0"
         d="m 158.06117,76.590142 c -0.0453,0.04206 -0.0194,0.07442 0.055,0.07442 0.0453,0 0.0874,0.01294 0.0971,0.02588 0.006,0.01294 -0.0841,0.414154 -0.20384,0.886549 -0.12295,0.472395 -0.21031,0.876842 -0.19737,0.899491 0.0129,0.02265 0.0518,0.03236 0.0841,0.02589 0.0453,-0.0065 0.0777,-0.08089 0.13589,-0.326794 0.0712,-0.281495 0.0874,-0.313851 0.15207,-0.313851 0.0388,0 0.11001,0.02912 0.15855,0.06795 0.0744,0.05824 0.0841,0.0906 0.0841,0.252376 0,0.152072 0.0129,0.19737 0.0744,0.25561 0.0874,0.08413 0.20708,0.0906 0.30414,0.02265 0.068,-0.04853 0.19414,-0.35915 0.15855,-0.394741 -0.01,-0.0097 -0.0324,0.02265 -0.0518,0.07442 -0.0809,0.236197 -0.17149,0.333265 -0.27503,0.291202 -0.0485,-0.01618 -0.055,-0.04853 -0.0388,-0.210312 0.0259,-0.229727 -0.0388,-0.336501 -0.2362,-0.394741 l -0.12619,-0.03883 0.22973,-0.22002 c 0.13266,-0.126187 0.27179,-0.229726 0.32356,-0.242668 0.11648,-0.02265 0.1553,0.0065 0.0777,0.06148 -0.0777,0.05501 -0.055,0.165015 0.0356,0.177957 0.0841,0.01294 0.15207,-0.09383 0.12295,-0.190899 -0.0129,-0.03559 -0.0582,-0.07765 -0.1003,-0.09707 -0.12295,-0.0453 -0.28797,0.04206 -0.53387,0.27826 -0.11972,0.116481 -0.22326,0.210313 -0.23296,0.210313 -0.01,0 0.0485,-0.252375 0.12619,-0.559756 0.0777,-0.304144 0.14236,-0.575933 0.14236,-0.598582 0,-0.04206 -0.32679,-0.05824 -0.36562,-0.01618 z"
         id="path1014"
         style="fill:#3f3f3f;fill-opacity:1;stroke:none;stroke-width:0.00323558" />
      <path
         inkscape:connector-curvature="0"
         d="m 155.18474,77.289028 c -0.22973,0.362385 -0.41415,0.673 -0.41415,0.695649 0,0.02912 0.1003,0.03883 0.35591,0.03883 h 0.35915 l -0.01,0.184428 c -0.01,0.184428 -0.01,0.187664 -0.11324,0.197371 -0.0582,0.0065 -0.10678,0.02265 -0.10678,0.04206 0,0.01618 0.1456,0.02912 0.32356,0.02912 0.19414,0 0.32356,-0.01294 0.32356,-0.03235 0,-0.01941 -0.0421,-0.03236 -0.0906,-0.03236 -0.12942,0 -0.16825,-0.05501 -0.16825,-0.232962 v -0.155308 h 0.1456 c 0.10678,0 0.1456,-0.01294 0.1456,-0.04853 0,-0.03559 -0.0388,-0.04853 -0.1456,-0.04853 h -0.1456 V 77.27933 c 0,-0.355914 -0.01,-0.647116 -0.0226,-0.647116 -0.0162,0 -0.21031,0.294438 -0.4368,0.656823 z m 0.32032,0.627702 c -0.01,0.0065 -0.15854,0.0065 -0.3365,0.0032 l -0.32356,-0.0097 0.3268,-0.517693 0.32679,-0.517693 0.01,0.514458 c 0.003,0.281495 0.003,0.520928 -0.003,0.527399 z"
         id="path1016"
         style="fill:#3f3f3f;fill-opacity:1;stroke:none;stroke-width:0.00323558" />
      <path
         inkscape:connector-curvature="0"
         d="m 156.33337,77.344032 c -0.10354,0.06148 -0.29444,0.310616 -0.26208,0.339736 0.01,0.0097 0.0744,-0.04206 0.1456,-0.113245 0.11648,-0.113245 0.14884,-0.129423 0.2815,-0.129423 0.14236,0 0.15207,0.0032 0.13265,0.07118 -0.0518,0.171485 -0.25561,0.698885 -0.31385,0.81213 -0.0647,0.132659 -0.055,0.184428 0.0356,0.184428 0.0841,0 0.0938,-0.02588 0.33003,-0.948025 0.0324,-0.116481 0.0324,-0.119716 0.1909,-0.119716 0.0906,0 0.16178,0.0032 0.16178,0.0065 0,0.0065 -0.0226,0.0906 -0.0485,0.187664 -0.0615,0.232961 -0.0906,0.637409 -0.055,0.760361 0.0194,0.07442 0.0453,0.09707 0.10678,0.09707 0.0874,0 0.0906,-0.03883 0.0291,-0.339736 -0.0356,-0.16825 -0.0259,-0.543577 0.0194,-0.660058 0.0129,-0.03559 0.0744,-0.05177 0.21678,-0.05824 0.17473,-0.0097 0.20061,-0.01618 0.20061,-0.07442 0,-0.06148 -0.0259,-0.06471 -0.53387,-0.07442 -0.4821,-0.0065 -0.54358,0 -0.63741,0.05824 z"
         id="path1034"
         style="fill:#3f3f3f;fill-opacity:1;stroke:none;stroke-width:0.00323558" />
      <path
         inkscape:connector-curvature="0"
         d="m 154.72205,78.961822 c -0.0129,0.02265 0.42063,0.03236 1.27806,0.03236 h 1.3007 l -0.0971,0.0906 c -0.15531,0.145602 -0.1909,0.410919 -0.055,0.410919 0.0841,0 0.10354,-0.113245 0.0291,-0.16825 -0.0777,-0.05824 -0.0194,-0.181193 0.11971,-0.255611 0.0874,-0.04206 0.12619,-0.0453 0.22649,-0.01618 0.15531,0.0453 0.22973,0.165015 0.22973,0.35915 0,0.200606 -0.055,0.297673 -0.39474,0.692414 -0.16178,0.184428 -0.2912,0.352678 -0.2912,0.372091 0,0.02265 0.13266,0.03559 0.40121,0.03559 h 0.40121 l 0.0194,-0.100303 c 0.01,-0.055 0.0194,-0.13913 0.0162,-0.187664 -0.003,-0.07765 -0.003,-0.07765 -0.0324,0.01941 -0.0388,0.129423 -0.0906,0.145601 -0.43034,0.132658 l -0.25237,-0.0097 0.32032,-0.339736 c 0.37209,-0.391505 0.40445,-0.440039 0.40445,-0.630938 0,-0.158544 -0.0712,-0.287967 -0.19737,-0.355914 -0.0744,-0.04206 0,-0.0453 0.66976,-0.04853 0.47887,0 0.75066,-0.01294 0.75066,-0.03236 0,-0.02265 -0.75389,-0.03235 -2.19696,-0.03235 -1.43336,0 -2.20667,0.0097 -2.21961,0.03235 z"
         id="path1052"
         style="fill:#3f3f3f;fill-opacity:1;stroke:none;stroke-width:0.00323558" />
      <path
         inkscape:connector-curvature="0"
         d="m 156.38838,80.146045 c -0.49828,0.213548 -0.65683,0.960967 -0.24591,1.148631 0.16178,0.07442 0.1909,0.07442 0.39474,0.01294 0.16502,-0.04853 0.43681,-0.24914 0.39474,-0.291202 -0.0129,-0.01294 -0.0809,0.02588 -0.15207,0.08736 -0.22649,0.1909 -0.47563,0.236198 -0.60182,0.106775 -0.10354,-0.100303 -0.10677,-0.310616 -0.0162,-0.60829 0.0874,-0.278259 0.25884,-0.443274 0.46268,-0.443274 0.0744,0 0.15855,0.01618 0.18443,0.03236 0.0388,0.02588 0.0356,0.03883 -0.0259,0.09707 -0.0841,0.08089 -0.0841,0.171486 0.003,0.187664 0.0841,0.01618 0.15207,-0.05177 0.15207,-0.155308 0,-0.19737 -0.28796,-0.287967 -0.55004,-0.174721 z"
         id="path1060"
         style="fill:#3f3f3f;fill-opacity:1;stroke:none;stroke-width:0.00323558" />
    </g>
    <path
       style="fill:#000000;stroke:none;stroke-width:0.01146465"
       id="path1064"
       d="m 564.0312,309.5387 c -0.2636,0.10318 -0.4815,0.69934 -0.8942,2.41904 -0.2179,0.92864 -0.4242,1.77702 -0.4586,1.8802 -0.046,0.17196 -0.2523,0.20636 -1.456,0.2293 -1.2611,0.0344 -1.3987,0.0573 -1.4331,0.2522 -0.069,0.33248 0.1836,0.41273 1.4446,0.41273 0.642,0 1.1694,0.0231 1.1694,0.0573 0,0.0231 -0.3898,1.61652 -0.8713,3.51965 -0.4816,1.91459 -0.8714,3.73748 -0.8714,4.04702 -0.011,0.66495 0.2179,1.1694 0.6994,1.58213 1.0318,0.85984 2.3732,0.61908 3.5884,-0.64202 0.665,-0.69935 1.5821,-2.41905 1.3872,-2.61395 -0.1948,-0.19488 -0.344,-0.0458 -0.7108,0.69935 -0.7337,1.47894 -1.5018,2.27 -2.4305,2.52222 -0.4471,0.1261 -0.8484,0.0231 -1.0433,-0.27514 -0.2405,-0.34395 -0.046,-1.50186 0.8484,-5.0903 l 0.9516,-3.80627 h 1.284 c 1.0204,0 1.3185,-0.0344 1.4675,-0.18343 0.3554,-0.36687 0.1375,-0.44712 -1.2496,-0.48152 -1.2038,-0.0231 -1.3414,-0.0459 -1.2841,-0.22929 0.2636,-0.88277 0.8713,-3.51964 0.8713,-3.77187 0,-0.18344 -0.057,-0.38979 -0.1374,-0.47004 -0.1375,-0.13759 -0.5962,-0.17196 -0.8714,-0.0574 z"
       inkscape:connector-curvature="0" />
    <text
       xml:space="preserve"
       style="font-style:normal;font-variant:normal;font-weight:normal;font-stretch:normal;font-size:12.5px;line-height:1.25;font-family:cmr10;-inkscape-font-specification:cmr10;font-variant-ligatures:normal;font-variant-position:normal;font-variant-caps:normal;font-variant-numeric:normal;font-variant-alternates:normal;font-feature-settings:normal;text-indent:0;text-align:start;text-decoration:none;text-decoration-line:none;text-decoration-style:solid;text-decoration-color:#000000;letter-spacing:0px;word-spacing:0px;text-transform:none;writing-mode:lr-tb;direction:ltr;text-orientation:mixed;dominant-baseline:auto;baseline-shift:baseline;text-anchor:start;white-space:normal;shape-padding:0;opacity:1;vector-effect:none;fill:#000000;fill-opacity:1;stroke:none;stroke-width:0.93749994;stroke-linecap:butt;stroke-linejoin:miter;stroke-miterlimit:4;stroke-dasharray:none;stroke-dashoffset:0;stroke-opacity:1"
       x="345.93585"
       y="352.65274"
       id="text900"><tspan
         sodipodi:role="line"
         id="tspan898"
         x="345.93585"
         y="352.65274"
         style="font-style:normal;font-variant:normal;font-weight:normal;font-stretch:normal;font-family:cmr10;-inkscape-font-specification:cmr10;stroke-width:0.93749994">E = electric field</tspan><tspan
         sodipodi:role="line"
         x="345.93585"
         y="368.27774"
         style="font-style:normal;font-variant:normal;font-weight:normal;font-stretch:normal;font-family:cmr10;-inkscape-font-specification:cmr10;stroke-width:0.93749994"
         id="tspan904">B = magnetic field</tspan><tspan
         sodipodi:role="line"
         x="345.93585"
         y="383.90274"
         style="font-style:normal;font-variant:normal;font-weight:normal;font-stretch:normal;font-family:cmr10;-inkscape-font-specification:cmr10;stroke-width:0.93749994"
         id="tspan908" /></text>
    <text
       xml:space="preserve"
       style="font-style:normal;font-variant:normal;font-weight:normal;font-stretch:normal;font-size:12.5px;line-height:1.25;font-family:cmr10;-inkscape-font-specification:cmr10;font-variant-ligatures:normal;font-variant-position:normal;font-variant-caps:normal;font-variant-numeric:normal;font-variant-alternates:normal;font-feature-settings:normal;text-indent:0;text-align:start;text-decoration:none;text-decoration-line:none;text-decoration-style:solid;text-decoration-color:#000000;letter-spacing:0px;word-spacing:0px;text-transform:none;writing-mode:lr-tb;direction:ltr;text-orientation:mixed;dominant-baseline:auto;baseline-shift:baseline;text-anchor:start;white-space:normal;shape-padding:0;opacity:1;vector-effect:none;fill:#000000;fill-opacity:1;stroke:none;stroke-width:0.93749994;stroke-linecap:butt;stroke-linejoin:miter;stroke-miterlimit:4;stroke-dasharray:none;stroke-dashoffset:0;stroke-opacity:1"
       x="469.41827"
       y="352.57083"
       id="text912"><tspan
         sodipodi:role="line"
         id="tspan910"
         x="469.41827"
         y="352.57083"
         style="font-style:normal;font-variant:normal;font-weight:normal;font-stretch:normal;font-family:cmr10;-inkscape-font-specification:cmr10;stroke-width:0.93749994"> = density of electric charge</tspan><tspan
         sodipodi:role="line"
         x="469.41827"
         y="368.37186"
         style="font-style:normal;font-variant:normal;font-weight:normal;font-stretch:normal;font-family:cmr10;-inkscape-font-specification:cmr10;stroke-width:0.93749994"
         id="tspan914">j = density of electric current</tspan></text>
    <path
       inkscape:connector-curvature="0"
       style="fill:none;stroke:#000000;stroke-width:0.625;stroke-miterlimit:4;stroke-dasharray:none"
       d="m 347.0242,378.64613 c 4.7818,10.21102 47.8165,1.57134 50.8057,7.06921"
       id="path957" />
    <path
       inkscape:connector-curvature="0"
       style="fill:none;stroke:#000000;stroke-width:0.625;stroke-miterlimit:4;stroke-dasharray:none"
       d="m 448.6356,378.64613 c -4.7819,10.21102 -47.8165,1.57134 -50.8057,7.06921"
       id="path959" />
    <path
       inkscape:connector-curvature="0"
       style="fill:none;stroke:#000000;stroke-width:0.625;stroke-miterlimit:4;stroke-dasharray:none"
       d="m 469.2673,378.72391 c 7.5946,9.98498 75.9429,1.53658 80.6905,6.91273"
       id="path957-6" />
    <path
       inkscape:connector-curvature="0"
       style="fill:none;stroke:#000000;stroke-width:0.625;stroke-miterlimit:4;stroke-dasharray:none"
       d="m 630.6483,378.72391 c -7.5947,9.98498 -75.943,1.53658 -80.6905,6.91273"
       id="path959-7" />
    <text
       xml:space="preserve"
       style="font-style:normal;font-variant:normal;font-weight:normal;font-stretch:normal;font-size:12.5px;line-height:1.25;font-family:cmr10;-inkscape-font-specification:cmr10;font-variant-ligatures:normal;font-variant-position:normal;font-variant-caps:normal;font-variant-numeric:normal;font-variant-alternates:normal;font-feature-settings:normal;text-indent:0;text-align:start;text-decoration:none;text-decoration-line:none;text-decoration-style:solid;text-decoration-color:#000000;letter-spacing:0px;word-spacing:0px;text-transform:none;writing-mode:lr-tb;direction:ltr;text-orientation:mixed;dominant-baseline:auto;baseline-shift:baseline;text-anchor:start;white-space:normal;shape-padding:0;opacity:1;vector-effect:none;fill:#000000;fill-opacity:1;stroke:none;stroke-width:0.93749994;stroke-linecap:butt;stroke-linejoin:miter;stroke-miterlimit:4;stroke-dasharray:none;stroke-dashoffset:0;stroke-opacity:1"
       x="354.51581"
       y="400.28461"
       id="text927"><tspan
         sodipodi:role="line"
         id="tspan925"
         x="354.51581"
         y="400.28461"
         style="stroke-width:0.93749994">fields of force</tspan></text>
    <text
       xml:space="preserve"
       style="font-style:normal;font-variant:normal;font-weight:normal;font-stretch:normal;font-size:12.5px;line-height:1.25;font-family:cmr10;-inkscape-font-specification:cmr10;font-variant-ligatures:normal;font-variant-position:normal;font-variant-caps:normal;font-variant-numeric:normal;font-variant-alternates:normal;font-feature-settings:normal;text-indent:0;text-align:start;text-decoration:none;text-decoration-line:none;text-decoration-style:solid;text-decoration-color:#000000;letter-spacing:0px;word-spacing:0px;text-transform:none;writing-mode:lr-tb;direction:ltr;text-orientation:mixed;dominant-baseline:auto;baseline-shift:baseline;text-anchor:start;white-space:normal;shape-padding:0;opacity:1;vector-effect:none;fill:#000000;fill-opacity:1;stroke:none;stroke-width:0.93749994;stroke-linecap:butt;stroke-linejoin:miter;stroke-miterlimit:4;stroke-dasharray:none;stroke-dashoffset:0;stroke-opacity:1"
       x="495.12103"
       y="399.14322"
       id="text931"><tspan
         sodipodi:role="line"
         id="tspan929"
         x="495.12103"
         y="399.14322"
         style="stroke-width:0.93749994">properties of matter</tspan></text>
    <g
       id="g1151">
      <rect
         y="429.48825"
         x="179.27751"
         height="54.593266"
         width="208.60992"
         id="rect989-3-5-5"
         style="fill:#dedede;fill-opacity:1;stroke:none;stroke-width:0.88693947;stroke-miterlimit:4;stroke-dasharray:3.54775792, 3.54775792;stroke-dashoffset:0;stroke-opacity:1" />
      <rect
         y="501.86014"
         x="178.13126"
         height="75.398315"
         width="208.60992"
         id="rect989-7-3-6"
         style="fill:#dedede;fill-opacity:1;stroke:none;stroke-width:1.04233003;stroke-miterlimit:4;stroke-dasharray:4.16932017, 4.16932017;stroke-dashoffset:0;stroke-opacity:1" />
      <rect
         y="429.48825"
         x="426.98953"
         height="54.593266"
         width="208.60991"
         id="rect989-3-2"
         style="fill:#dedede;fill-opacity:1;stroke:none;stroke-width:0.88693947;stroke-miterlimit:4;stroke-dasharray:3.54775788, 3.54775788;stroke-dashoffset:0;stroke-opacity:1" />
      <rect
         y="501.86014"
         x="425.84323"
         height="75.398315"
         width="208.60991"
         id="rect989-7-9"
         style="fill:#dedede;fill-opacity:1;stroke:none;stroke-width:1.04233003;stroke-miterlimit:4;stroke-dasharray:4.16932014, 4.16932014;stroke-dashoffset:0;stroke-opacity:1" />
      <text
         id="text977"
         y="451.42337"
         x="203.83044"
         style="font-style:normal;font-variant:normal;font-weight:normal;font-stretch:normal;font-size:12.5px;line-height:1.25;font-family:cmr10;-inkscape-font-specification:cmr10;font-variant-ligatures:normal;font-variant-position:normal;font-variant-caps:normal;font-variant-numeric:normal;font-variant-alternates:normal;font-feature-settings:normal;text-indent:0;text-align:start;text-decoration:none;text-decoration-line:none;text-decoration-style:solid;text-decoration-color:#000000;letter-spacing:0px;word-spacing:0px;text-transform:none;writing-mode:lr-tb;direction:ltr;text-orientation:mixed;dominant-baseline:auto;baseline-shift:baseline;text-anchor:start;white-space:normal;shape-padding:0;opacity:1;vector-effect:none;fill:#000000;fill-opacity:1;stroke:none;stroke-width:0.93749994;stroke-linecap:butt;stroke-linejoin:miter;stroke-miterlimit:4;stroke-dasharray:none;stroke-dashoffset:0;stroke-opacity:1"
         xml:space="preserve"><tspan
           id="tspan979"
           style="stroke-width:0.93749994"
           y="451.42337"
           x="203.83044"
           sodipodi:role="line">A charge creates an electric</tspan><tspan
           id="tspan983"
           style="stroke-width:0.93749994"
           y="467.04837"
           x="203.83044"
           sodipodi:role="line">field that diverges from it.</tspan></text>
      <text
         id="text987"
         y="451.35611"
         x="458.76663"
         style="font-style:normal;font-variant:normal;font-weight:normal;font-stretch:normal;font-size:12.5px;line-height:1.25;font-family:cmr10;-inkscape-font-specification:cmr10;font-variant-ligatures:normal;font-variant-position:normal;font-variant-caps:normal;font-variant-numeric:normal;font-variant-alternates:normal;font-feature-settings:normal;text-indent:0;text-align:start;text-decoration:none;text-decoration-line:none;text-decoration-style:solid;text-decoration-color:#000000;letter-spacing:0px;word-spacing:0px;text-transform:none;writing-mode:lr-tb;direction:ltr;text-orientation:mixed;dominant-baseline:auto;baseline-shift:baseline;text-anchor:start;white-space:normal;shape-padding:0;opacity:1;vector-effect:none;fill:#000000;fill-opacity:1;stroke:none;stroke-width:0.93749994;stroke-linecap:butt;stroke-linejoin:miter;stroke-miterlimit:4;stroke-dasharray:none;stroke-dashoffset:0;stroke-opacity:1"
         xml:space="preserve"><tspan
           style="stroke-width:0.93749994"
           y="451.35611"
           x="458.76663"
           id="tspan985"
           sodipodi:role="line">Magnetic field patterns</tspan><tspan
           id="tspan989"
           style="stroke-width:0.93749994"
           y="466.98111"
           x="458.76663"
           sodipodi:role="line">never diverge.</tspan></text>
      <text
         id="text993"
         y="534.9389"
         x="201.41641"
         style="font-style:normal;font-variant:normal;font-weight:normal;font-stretch:normal;font-size:12.5px;line-height:1.25;font-family:cmr10;-inkscape-font-specification:cmr10;font-variant-ligatures:normal;font-variant-position:normal;font-variant-caps:normal;font-variant-numeric:normal;font-variant-alternates:normal;font-feature-settings:normal;text-indent:0;text-align:start;text-decoration:none;text-decoration-line:none;text-decoration-style:solid;text-decoration-color:#000000;letter-spacing:0px;word-spacing:0px;text-transform:none;writing-mode:lr-tb;direction:ltr;text-orientation:mixed;dominant-baseline:auto;baseline-shift:baseline;text-anchor:start;white-space:normal;shape-padding:0;opacity:1;vector-effect:none;fill:#000000;fill-opacity:1;stroke:none;stroke-width:0.93749994;stroke-linecap:butt;stroke-linejoin:miter;stroke-miterlimit:4;stroke-dasharray:none;stroke-dashoffset:0;stroke-opacity:1"
         xml:space="preserve"><tspan
           style="stroke-width:0.93749994"
           y="534.9389"
           x="201.41641"
           id="tspan991"
           sodipodi:role="line">A changing magnetic field</tspan><tspan
           id="tspan995"
           style="stroke-width:0.93749994"
           y="550.5639"
           x="201.41641"
           sodipodi:role="line">induces a curly electric field.</tspan></text>
      <text
         id="text999"
         y="519.30786"
         x="450.31754"
         style="font-style:normal;font-variant:normal;font-weight:normal;font-stretch:normal;font-size:12.5px;line-height:1.25;font-family:cmr10;-inkscape-font-specification:cmr10;font-variant-ligatures:normal;font-variant-position:normal;font-variant-caps:normal;font-variant-numeric:normal;font-variant-alternates:normal;font-feature-settings:normal;text-indent:0;text-align:start;text-decoration:none;text-decoration-line:none;text-decoration-style:solid;text-decoration-color:#000000;letter-spacing:0px;word-spacing:0px;text-transform:none;writing-mode:lr-tb;direction:ltr;text-orientation:mixed;dominant-baseline:auto;baseline-shift:baseline;text-anchor:start;white-space:normal;shape-padding:0;opacity:1;vector-effect:none;fill:#000000;fill-opacity:1;stroke:none;stroke-width:0.93749994;stroke-linecap:butt;stroke-linejoin:miter;stroke-miterlimit:4;stroke-dasharray:none;stroke-dashoffset:0;stroke-opacity:1"
         xml:space="preserve"><tspan
           style="stroke-width:0.93749994"
           y="519.30786"
           x="450.31754"
           id="tspan997"
           sodipodi:role="line">A changing electric field</tspan><tspan
           id="tspan1001"
           style="stroke-width:0.93749994"
           y="534.93286"
           x="450.31754"
           sodipodi:role="line">induces a curly magnetic field.</tspan><tspan
           id="tspan1003"
           style="stroke-width:0.93749994"
           y="550.55786"
           x="450.31754"
           sodipodi:role="line">A current creates a curly</tspan><tspan
           id="tspan1005"
           style="stroke-width:0.93749994"
           y="566.18286"
           x="450.31754"
           sodipodi:role="line">magnetic field.</tspan></text>
    </g>
    <g
       id="g1539"
       transform="matrix(3.5433071,0,0,3.5433071,69.2882,-56.33142)">
      <g
         transform="translate(0,-2.3528347)"
         id="g1375">
        <path
           style="fill:#ffffff;fill-opacity:1;stroke:#000000;stroke-width:0.24694444;stroke-miterlimit:4;stroke-dasharray:none;stroke-dashoffset:0;stroke-opacity:1"
           d="m 70.871723,206.19495 v 0.97369 h -2.799398 v 3.40804 h 2.799398 v 0.97369 l 3.322958,-2.82251 z"
           id="rect1309"
           inkscape:connector-curvature="0" />
        <circle
           style="fill:url(#radialGradient1355);fill-opacity:1;stroke:#000000;stroke-width:0.24694444;stroke-miterlimit:4;stroke-dasharray:none;stroke-dashoffset:0;stroke-opacity:1"
           id="path1347"
           cx="60.948902"
           cy="208.88141"
           r="3.2779827" />
        <path
           style="fill:#ffffff;fill-opacity:1;stroke:#000000;stroke-width:0.24694444;stroke-miterlimit:4;stroke-dasharray:none;stroke-dashoffset:0;stroke-opacity:1"
           d="m 51.026077,211.56788 v -0.97369 h 2.7994 v -3.40804 h -2.7994 v -0.97369 l -3.32296,2.82251 z"
           id="rect1309-7"
           inkscape:connector-curvature="0" />
      </g>
      <path
         inkscape:connector-curvature="0"
         id="rect1309-0"
         d="m 58.262443,196.60575 h 0.97369 v 2.7994 h 3.40804 v -2.7994 h 0.97369 l -2.82251,-3.32296 z"
         style="fill:#ffffff;fill-opacity:1;stroke:#000000;stroke-width:0.24694444;stroke-miterlimit:4;stroke-dasharray:none;stroke-dashoffset:0;stroke-opacity:1" />
      <path
         inkscape:connector-curvature="0"
         id="rect1309-7-2"
         d="m 63.635373,216.4514 h -0.97369 v -2.7994 h -3.40804 v 2.7994 h -0.97369 l 2.82251,3.32296 z"
         style="fill:#ffffff;fill-opacity:1;stroke:#000000;stroke-width:0.24694444;stroke-miterlimit:4;stroke-dasharray:none;stroke-dashoffset:0;stroke-opacity:1" />
    </g>
    <text
       xml:space="preserve"
       style="font-style:normal;font-variant:normal;font-weight:normal;font-stretch:normal;font-size:20px;line-height:1.25;font-family:cmr10;-inkscape-font-specification:cmr10;font-variant-ligatures:normal;font-variant-position:normal;font-variant-caps:normal;font-variant-numeric:normal;font-variant-alternates:normal;font-feature-settings:normal;text-indent:0;text-align:start;text-decoration:none;text-decoration-line:none;text-decoration-style:solid;text-decoration-color:#000000;letter-spacing:0px;word-spacing:0px;text-transform:none;writing-mode:lr-tb;direction:ltr;text-orientation:mixed;dominant-baseline:auto;baseline-shift:baseline;text-anchor:start;white-space:normal;shape-padding:0;opacity:1;vector-effect:none;fill:#000000;fill-opacity:1;stroke:none;stroke-width:0.93749994;stroke-linecap:butt;stroke-linejoin:miter;stroke-miterlimit:4;stroke-dasharray:none;stroke-dashoffset:0;stroke-opacity:1"
       x="118.34027"
       y="601.83282"
       id="text1038-9-5-1"><tspan
         sodipodi:role="line"
         id="tspan1036-0-3-8"
         x="118.34027"
         y="601.83282"
         style="font-style:normal;font-variant:normal;font-weight:normal;font-stretch:normal;font-size:20px;font-family:cmr10;-inkscape-font-specification:cmr10;stroke-width:0.93749994">In pictures:</tspan></text>
    <g
       id="g1674">
      <rect
         y="613.57867"
         x="425.8432"
         height="124.43789"
         width="208.60992"
         id="rect989-3-2-0-6"
         style="fill:#dedede;fill-opacity:1;stroke:none;stroke-width:1.33906221;stroke-miterlimit:4;stroke-dasharray:5.35624896, 5.35624896;stroke-dashoffset:0;stroke-opacity:1" />
      <path
         inkscape:connector-curvature="0"
         id="rect1309-2-3-1"
         d="m 580.46943,662.66887 1.48708,2.74085 -18.67551,10.13334 6.10585,11.25296 18.6756,-10.13339 1.45737,2.68612 5.58032,-14.40651 z"
         style="fill:#444444;fill-opacity:1;stroke:#000000;stroke-width:0.875;stroke-miterlimit:4;stroke-dasharray:none;stroke-dashoffset:0;stroke-opacity:1" />
      <path
         inkscape:connector-curvature="0"
         id="rect1309-2-3-4"
         d="m 529.2498,643.83762 1.1167,2.9115 -19.8384,7.60901 4.5848,11.95366 19.8384,-7.60904 1.0944,2.85336 7.413,-13.55488 z"
         style="fill:#444444;fill-opacity:1;stroke:#000000;stroke-width:0.875;stroke-miterlimit:4;stroke-dasharray:none;stroke-dashoffset:0;stroke-opacity:1" />
      <path
         inkscape:connector-curvature="0"
         id="rect1309-2-3-1-8"
         d="m 475.07234,624.61909 1.48717,2.74084 -18.67551,10.13333 6.10584,11.25296 18.67551,-10.13337 1.45747,2.68609 5.58031,-14.40651 z"
         style="fill:#444444;fill-opacity:1;stroke:#000000;stroke-width:0.875;stroke-miterlimit:4;stroke-dasharray:none;stroke-dashoffset:0;stroke-opacity:1" />
      <path
         inkscape:connector-curvature="0"
         id="rect1309-2-3-1-5"
         d="m 577.45202,702.07029 1.48715,2.74084 -18.67552,10.13334 6.10588,11.25296 18.67551,-10.13338 1.45745,2.6861 5.5803,-14.40651 z"
         style="fill:#444444;fill-opacity:1;stroke:#000000;stroke-width:0.875;stroke-miterlimit:4;stroke-dasharray:none;stroke-dashoffset:0;stroke-opacity:1" />
      <path
         inkscape:connector-curvature="0"
         id="rect1309-2-3-4-0"
         d="m 526.23248,683.23903 1.11667,2.9115 -19.83841,7.60901 4.58483,11.95366 19.83841,-7.60904 1.09438,2.85336 7.41299,-13.55489 z"
         style="fill:#444444;fill-opacity:1;stroke:#000000;stroke-width:0.875;stroke-miterlimit:4;stroke-dasharray:none;stroke-dashoffset:0;stroke-opacity:1" />
      <path
         inkscape:connector-curvature="0"
         id="rect1309-2-3-1-8-3"
         d="m 472.055,664.02049 1.48715,2.74084 -18.67552,10.13333 6.10588,11.25297 18.67551,-10.13338 1.45746,2.68609 5.58029,-14.4065 z"
         style="fill:#444444;fill-opacity:1;stroke:#000000;stroke-width:0.875;stroke-miterlimit:4;stroke-dasharray:none;stroke-dashoffset:0;stroke-opacity:1" />
      <path
         inkscape:connector-curvature="0"
         id="rect1309-2-3-1-1"
         d="m 583.68433,624.06692 1.48708,2.74085 -18.67551,10.13333 6.10594,11.25296 18.6755,-10.13338 1.45738,2.68611 5.58031,-14.40652 z"
         style="fill:#444444;fill-opacity:1;stroke:#000000;stroke-width:0.875;stroke-miterlimit:4;stroke-dasharray:none;stroke-dashoffset:0;stroke-opacity:1" />
      <path
         inkscape:connector-curvature="0"
         id="rect1309-2-3-1-1-0"
         d="m 472.46953,703.50613 1.48708,2.74085 -18.67551,10.13333 6.10585,11.25297 18.67559,-10.13339 1.45738,2.68612 5.58031,-14.40652 z"
         style="fill:#444444;fill-opacity:1;stroke:#000000;stroke-width:0.875;stroke-miterlimit:4;stroke-dasharray:none;stroke-dashoffset:0;stroke-opacity:1" />
    </g>
    <path
       style="fill:#444444;fill-opacity:1;stroke:#000000;stroke-width:0.875;stroke-miterlimit:4;stroke-dasharray:none;stroke-dashoffset:0;stroke-opacity:1"
       d="m 568.8478,820.74279 3.1183,0.002 -0.014,21.24754 12.8028,0.007 0.014,-21.24762 3.056,0.002 -9.994,-11.78167 z"
       id="rect1309-2-3-1-8-6"
       inkscape:connector-curvature="0" />
    <path
       style="fill:#444444;fill-opacity:1;stroke:#000000;stroke-width:0.875;stroke-miterlimit:4;stroke-dasharray:none;stroke-dashoffset:0;stroke-opacity:1"
       d="m 519.3703,790.62497 v -3.11829 l 21.2475,0.0142 0.01,-12.80276 -21.2476,-0.0141 v -3.05603 l -11.7817,9.99397 z"
       id="rect1309-2-3-1-8-6-3"
       inkscape:connector-curvature="0" />
    <path
       style="fill:#444444;fill-opacity:1;stroke:#000000;stroke-width:0.875;stroke-miterlimit:4;stroke-dasharray:none;stroke-dashoffset:0;stroke-opacity:1"
       d="m 484.8073,829.96864 -3.1182,-0.002 0.014,-21.24755 -12.8028,-0.007 -0.014,21.24762 -3.056,-0.002 9.9939,11.78175 z"
       id="rect1309-2-3-1-8-6-3-2"
       inkscape:connector-curvature="0" />
    <path
       style="fill:#444444;fill-opacity:1;stroke:#000000;stroke-width:0.875;stroke-miterlimit:4;stroke-dasharray:none;stroke-dashoffset:0;stroke-opacity:1"
       d="m 528.5961,870.72809 v 3.11828 l -21.2475,-0.0142 -0.01,12.80276 21.2476,0.0141 v 3.05603 l 11.7817,-9.99397 z"
       id="rect1309-2-3-1-8-6-3-2-0"
       inkscape:connector-curvature="0" />
    <path
       style="opacity:1;vector-effect:none;fill:#ffffff;fill-opacity:1;stroke:#000000;stroke-width:0.875;stroke-linecap:butt;stroke-linejoin:miter;stroke-miterlimit:4;stroke-dasharray:none;stroke-dashoffset:0;stroke-opacity:1"
       d="m 548.9161,814.60784 -34.5247,9.05783 -1.1814,-3.15057 -7.7451,14.17745 14.7025,4.46328 -1.3127,-3.41309 32.0305,-16.80288 z"
       id="path1768"
       inkscape:connector-curvature="0" />
    <text
       xml:space="preserve"
       style="font-style:normal;font-variant:normal;font-weight:normal;font-stretch:normal;font-size:12.5px;line-height:1.25;font-family:cmr10;-inkscape-font-specification:cmr10;font-variant-ligatures:normal;font-variant-position:normal;font-variant-caps:normal;font-variant-numeric:normal;font-variant-alternates:normal;font-feature-settings:normal;text-indent:0;text-align:start;text-decoration:none;text-decoration-line:none;text-decoration-style:solid;text-decoration-color:#000000;letter-spacing:0px;word-spacing:0px;text-transform:none;writing-mode:lr-tb;direction:ltr;text-orientation:mixed;dominant-baseline:auto;baseline-shift:baseline;text-anchor:start;white-space:normal;shape-padding:0;opacity:1;vector-effect:none;fill:#000000;fill-opacity:1;stroke:none;stroke-width:0.93749994;stroke-linecap:butt;stroke-linejoin:miter;stroke-miterlimit:4;stroke-dasharray:none;stroke-dashoffset:0;stroke-opacity:1"
       x="27.907904"
       y="996.37952"
       id="text1772"
       transform="rotate(-29.888736)"><tspan
         sodipodi:role="line"
         id="tspan1770"
         x="27.907904"
         y="996.37952"
         style="stroke-width:0.93749994">j or E</tspan></text>
    <rect
       style="fill:#dedede;fill-opacity:1;stroke:none;stroke-width:1.46863878;stroke-miterlimit:4;stroke-dasharray:5.87455499, 5.87455499;stroke-dashoffset:0;stroke-opacity:1"
       id="rect989-3-2-0-6-4-7"
       width="208.60992"
       height="149.68594"
       x="176.14032"
       y="756.2088" />
    <path
       style="fill:#ffffff;fill-opacity:1;stroke:#000000;stroke-width:0.875;stroke-miterlimit:4;stroke-dasharray:none;stroke-dashoffset:0;stroke-opacity:1"
       d="m 338.122,830.5985 -3.1183,-0.002 0.014,-21.24755 -12.8028,-0.007 -0.014,21.24762 -3.056,-0.002 9.994,11.78167 z"
       id="rect1309-2-3-1-8-6-6"
       inkscape:connector-curvature="0" />
    <path
       style="fill:#ffffff;fill-opacity:1;stroke:#000000;stroke-width:0.875;stroke-miterlimit:4;stroke-dasharray:none;stroke-dashoffset:0;stroke-opacity:1"
       d="m 279.1534,772.01758 v 3.11828 l -21.2475,-0.0141 -0.01,12.80274 21.2476,0.0142 v 3.05603 l 11.7817,-9.99396 z"
       id="rect1309-2-3-1-8-6-3-5"
       inkscape:connector-curvature="0" />
    <path
       style="fill:#ffffff;fill-opacity:1;stroke:#000000;stroke-width:0.875;stroke-miterlimit:4;stroke-dasharray:none;stroke-dashoffset:0;stroke-opacity:1"
       d="m 216.1274,820.85306 3.1183,0.002 -0.014,21.24751 12.8027,0.007 0.014,-21.24761 3.056,0.002 -9.994,-11.78174 z"
       id="rect1309-2-3-1-8-6-3-2-6"
       inkscape:connector-curvature="0" />
    <path
       style="fill:#ffffff;fill-opacity:1;stroke:#000000;stroke-width:0.875;stroke-miterlimit:4;stroke-dasharray:none;stroke-dashoffset:0;stroke-opacity:1"
       d="m 269.4077,890.07518 v -3.11828 l 21.2475,0.0141 0.01,-12.80274 -21.2476,-0.0142 v -3.05603 l -11.7817,9.99397 z"
       id="rect1309-2-3-1-8-6-3-2-0-9"
       inkscape:connector-curvature="0" />
    <path
       style="opacity:1;vector-effect:none;fill:#444444;fill-opacity:1;stroke:#000000;stroke-width:0.875;stroke-linecap:butt;stroke-linejoin:miter;stroke-miterlimit:4;stroke-dasharray:none;stroke-dashoffset:0;stroke-opacity:1"
       d="m 299.2132,814.97787 -34.5247,9.05782 -1.1814,-3.15056 -7.7451,14.17745 14.7025,4.46329 -1.3127,-3.4131 32.0305,-16.80289 z"
       id="path1768-3"
       inkscape:connector-curvature="0" />
    <text
       xml:space="preserve"
       style="font-style:normal;font-variant:normal;font-weight:normal;font-stretch:normal;font-size:12.5px;line-height:1.25;font-family:cmr10;-inkscape-font-specification:cmr10;font-variant-ligatures:normal;font-variant-position:normal;font-variant-caps:normal;font-variant-numeric:normal;font-variant-alternates:normal;font-feature-settings:normal;text-indent:0;text-align:start;text-decoration:none;text-decoration-line:none;text-decoration-style:solid;text-decoration-color:#000000;letter-spacing:0px;word-spacing:0px;text-transform:none;writing-mode:lr-tb;direction:ltr;text-orientation:mixed;dominant-baseline:auto;baseline-shift:baseline;text-anchor:start;white-space:normal;shape-padding:0;opacity:1;vector-effect:none;fill:#000000;fill-opacity:1;stroke:none;stroke-width:0.93749994;stroke-linecap:butt;stroke-linejoin:miter;stroke-miterlimit:4;stroke-dasharray:none;stroke-dashoffset:0;stroke-opacity:1"
       x="-180.10895"
       y="872.10461"
       id="text1772-7"
       transform="rotate(-29.888736)"><tspan
         sodipodi:role="line"
         id="tspan1770-4"
         x="-180.10895"
         y="872.10461"
         style="stroke-width:0.93749994">B</tspan></text>
    <text
       xml:space="preserve"
       style="font-style:normal;font-variant:normal;font-weight:normal;font-stretch:normal;font-size:12.5px;line-height:1.25;font-family:cmr10;-inkscape-font-specification:cmr10;font-variant-ligatures:normal;font-variant-position:normal;font-variant-caps:normal;font-variant-numeric:normal;font-variant-alternates:normal;font-feature-settings:normal;text-indent:0;text-align:start;text-decoration:none;text-decoration-line:none;text-decoration-style:solid;text-decoration-color:#000000;letter-spacing:0px;word-spacing:0px;text-transform:none;writing-mode:lr-tb;direction:ltr;text-orientation:mixed;dominant-baseline:auto;baseline-shift:baseline;text-anchor:start;white-space:normal;shape-padding:0;opacity:1;vector-effect:none;fill:#000000;fill-opacity:1;stroke:none;stroke-width:0.93749994;stroke-linecap:butt;stroke-linejoin:miter;stroke-miterlimit:4;stroke-dasharray:none;stroke-dashoffset:0;stroke-opacity:1"
       x="279.78217"
       y="923.12054"
       id="text1987"><tspan
         sodipodi:role="line"
         id="tspan1985"
         x="279.78217"
         y="923.12054"
         style="stroke-width:0.93749994">White arrows are electric fields. Dark arrows are magnetic fields.</tspan></text>
    <text
       xml:space="preserve"
       style="font-style:normal;font-variant:normal;font-weight:normal;font-stretch:normal;font-size:12.5px;line-height:1.25;font-family:cmr10;-inkscape-font-specification:cmr10;font-variant-ligatures:normal;font-variant-position:normal;font-variant-caps:normal;font-variant-numeric:normal;font-variant-alternates:normal;font-feature-settings:normal;text-indent:0;text-align:start;text-decoration:none;text-decoration-line:none;text-decoration-style:solid;text-decoration-color:#000000;letter-spacing:0px;word-spacing:0px;text-transform:none;writing-mode:lr-tb;direction:ltr;text-orientation:mixed;dominant-baseline:auto;baseline-shift:baseline;text-anchor:start;white-space:normal;shape-padding:0;opacity:1;vector-effect:none;fill:#000000;fill-opacity:1;stroke:none;stroke-width:0.93749994;stroke-linecap:butt;stroke-linejoin:miter;stroke-miterlimit:4;stroke-dasharray:none;stroke-dashoffset:0;stroke-opacity:1"
       x="173.40007"
       y="997.18939"
       id="text2307"><tspan
         sodipodi:role="line"
         id="tspan2305"
         x="173.40007"
         y="997.18939"
         style="font-style:normal;font-variant:normal;font-weight:normal;font-stretch:normal;font-family:cmr10;-inkscape-font-specification:cmr10;stroke-width:0.93749994">This book can be downloaded for free, or bought in print, at www.lightandmatter.com.</tspan></text>
    <rect
       style="fill:#000000;fill-opacity:1;stroke:none;stroke-width:2.54744053;stroke-miterlimit:4;stroke-dasharray:none;stroke-dashoffset:0;stroke-opacity:0.58447487"
       id="rect973"
       width="763.14777"
       height="1012.5"
       x="811.92126"
       y="39.862137" />
    <rect
       style="fill:#000000;fill-opacity:1;stroke:none;stroke-width:2.0111165;stroke-miterlimit:4;stroke-dasharray:none;stroke-dashoffset:0;stroke-opacity:0.58447487"
       id="rect2319"
       width="837.14545"
       height="1012.493"
       x="811.92126"
       y="39.865402" />
    <image
       sodipodi:absref="/home/bcrowell/Documents/writing/books/physics/fac/front/figs/cover-bitmap.jpg"
       xlink:href="cover-bitmap.jpg"
       width="776.17749"
       height="868.95911"
       preserveAspectRatio="none"
       id="image4214"
       x="872.97864"
       y="183.4041" />
    <rect
       style="color:#000000;clip-rule:nonzero;display:inline;overflow:visible;visibility:visible;opacity:1;isolation:auto;mix-blend-mode:normal;color-interpolation:sRGB;color-interpolation-filters:linearRGB;solid-color:#000000;solid-opacity:1;fill:#000000;fill-opacity:1;fill-rule:nonzero;stroke:none;stroke-width:0.98258156;stroke-linecap:butt;stroke-linejoin:miter;stroke-miterlimit:1;stroke-dasharray:none;stroke-dashoffset:0;stroke-opacity:1;color-rendering:auto;image-rendering:auto;shape-rendering:auto;text-rendering:auto;enable-background:accumulate"
       id="rect4217"
       width="776.17749"
       height="169.42004"
       x="850.01038"
       y="47.898232" />
    <text
       xml:space="preserve"
       style="color:#000000;font-style:normal;font-variant:normal;font-weight:bold;font-stretch:normal;font-size:60.87666702px;line-height:125%;font-family:'Liberation Sans';-inkscape-font-specification:'Liberation Sans Bold';text-indent:0;text-align:start;text-decoration:none;text-decoration-line:none;text-decoration-style:solid;text-decoration-color:#000000;letter-spacing:0px;word-spacing:0px;text-transform:none;writing-mode:lr-tb;direction:ltr;baseline-shift:baseline;text-anchor:start;white-space:normal;clip-rule:nonzero;display:inline;overflow:visible;visibility:visible;opacity:1;isolation:auto;mix-blend-mode:normal;color-interpolation:sRGB;color-interpolation-filters:linearRGB;solid-color:#000000;solid-opacity:1;fill:#ffffff;fill-opacity:1;fill-rule:nonzero;stroke:none;stroke-width:1.2682637px;stroke-linecap:butt;stroke-linejoin:miter;stroke-miterlimit:4;stroke-dasharray:none;stroke-dashoffset:0;stroke-opacity:1;marker:none;marker-start:none;marker-mid:none;marker-end:none;color-rendering:auto;image-rendering:auto;shape-rendering:auto;text-rendering:auto;enable-background:accumulate"
       x="962.33221"
       y="150.08955"
       id="text4219"><tspan
         sodipodi:role="line"
         id="tspan4221"
         x="962.33221"
         y="150.08955"
         style="stroke-width:1.2682637px">Fields and Circuits</tspan></text>
    <text
       xml:space="preserve"
       style="color:#000000;font-style:normal;font-variant:normal;font-weight:normal;font-stretch:normal;font-size:30.43833351px;line-height:125%;font-family:'Liberation Sans';-inkscape-font-specification:'Liberation Sans';text-indent:0;text-align:start;text-decoration:none;text-decoration-line:none;text-decoration-style:solid;text-decoration-color:#000000;letter-spacing:0px;word-spacing:0px;text-transform:none;writing-mode:lr-tb;direction:ltr;baseline-shift:baseline;text-anchor:start;white-space:normal;clip-rule:nonzero;display:inline;overflow:visible;visibility:visible;opacity:1;isolation:auto;mix-blend-mode:normal;color-interpolation:sRGB;color-interpolation-filters:linearRGB;solid-color:#000000;solid-opacity:1;fill:#000000;fill-opacity:1;fill-rule:nonzero;stroke:none;stroke-width:1.2682637px;stroke-linecap:butt;stroke-linejoin:miter;stroke-miterlimit:4;stroke-dasharray:none;stroke-dashoffset:0;stroke-opacity:1;marker:none;marker-start:none;marker-mid:none;marker-end:none;color-rendering:auto;image-rendering:auto;shape-rendering:auto;text-rendering:auto;enable-background:accumulate"
       x="965.59625"
       y="186.73036"
       id="text4223"><tspan
         sodipodi:role="line"
         id="tspan4225"
         x="965.59625"
         y="186.73036"
         style="font-style:italic;font-variant:normal;font-weight:normal;font-stretch:normal;font-size:30.43833351px;font-family:'Liberation Sans';-inkscape-font-specification:'Liberation Sans Italic';fill:#d0d0d0;fill-opacity:1;stroke-width:1.2682637px">Crowell</tspan></text>
    <rect
       style="fill:#000000;fill-opacity:1;stroke:none;stroke-width:0.74446756;stroke-miterlimit:4;stroke-dasharray:none;stroke-dashoffset:0;stroke-opacity:0.58447487"
       id="rect2309"
       width="73.080818"
       height="1012.5"
       x="776.66302"
       y="39.862137" />
    <g
       id="g977"
       transform="translate(11.134044)">
      <text
         transform="rotate(90)"
         id="text2323"
         y="-794.87488"
         x="131.12682"
         style="font-style:normal;font-variant:normal;font-weight:normal;font-stretch:normal;font-size:60px;line-height:1.25;font-family:'Liberation Sans';-inkscape-font-specification:'Liberation Sans';font-variant-ligatures:normal;font-variant-position:normal;font-variant-caps:normal;font-variant-numeric:normal;font-variant-alternates:normal;font-feature-settings:normal;text-indent:0;text-align:start;text-decoration:none;text-decoration-line:none;text-decoration-style:solid;text-decoration-color:#000000;letter-spacing:0px;word-spacing:0px;text-transform:none;writing-mode:lr-tb;direction:ltr;text-orientation:mixed;dominant-baseline:auto;baseline-shift:baseline;text-anchor:start;white-space:normal;shape-padding:0;opacity:1;vector-effect:none;fill:#ffffff;fill-opacity:1;stroke:none;stroke-width:0.93749994;stroke-linecap:butt;stroke-linejoin:miter;stroke-miterlimit:4;stroke-dasharray:none;stroke-dashoffset:0;stroke-opacity:1"
         xml:space="preserve"><tspan
           style="font-size:60px;fill:#ffffff;fill-opacity:1;stroke-width:0.93749994"
           y="-794.87488"
           x="131.12682"
           id="tspan2321"
           sodipodi:role="line">Crowell</tspan></text>
      <text
         transform="rotate(90)"
         id="text2327"
         y="-794.87488"
         x="386.1268"
         style="font-style:italic;font-variant:normal;font-weight:bold;font-stretch:normal;font-size:60px;line-height:1.25;font-family:'Liberation Sans';-inkscape-font-specification:'Liberation Sans Bold Italic';font-variant-ligatures:normal;font-variant-position:normal;font-variant-caps:normal;font-variant-numeric:normal;font-variant-alternates:normal;font-feature-settings:normal;text-indent:0;text-align:start;text-decoration:none;text-decoration-line:none;text-decoration-style:solid;text-decoration-color:#000000;letter-spacing:0px;word-spacing:0px;text-transform:none;writing-mode:lr-tb;direction:ltr;text-orientation:mixed;dominant-baseline:auto;baseline-shift:baseline;text-anchor:start;white-space:normal;shape-padding:0;opacity:1;vector-effect:none;fill:#ffffff;fill-opacity:1;stroke:none;stroke-width:0.93749994;stroke-linecap:butt;stroke-linejoin:miter;stroke-miterlimit:4;stroke-dasharray:none;stroke-dashoffset:0;stroke-opacity:1"
         xml:space="preserve"><tspan
           style="font-style:italic;font-variant:normal;font-weight:bold;font-stretch:normal;font-size:60px;font-family:'Liberation Sans';-inkscape-font-specification:'Liberation Sans Bold Italic';fill:#ffffff;fill-opacity:1;stroke-width:0.93749994"
           y="-794.87488"
           x="386.1268"
           id="tspan2325"
           sodipodi:role="line">Fields and Circuits</tspan></text>
    </g>
  </g>
</svg>
