<?xml version="1.0" encoding="UTF-8" standalone="no"?>
<!-- Created with Inkscape (http://www.inkscape.org/) -->

<svg
   xmlns:dc="http://purl.org/dc/elements/1.1/"
   xmlns:cc="http://creativecommons.org/ns#"
   xmlns:rdf="http://www.w3.org/1999/02/22-rdf-syntax-ns#"
   xmlns:svg="http://www.w3.org/2000/svg"
   xmlns="http://www.w3.org/2000/svg"
   xmlns:xlink="http://www.w3.org/1999/xlink"
   xmlns:sodipodi="http://sodipodi.sourceforge.net/DTD/sodipodi-0.dtd"
   xmlns:inkscape="http://www.inkscape.org/namespaces/inkscape"
   width="210mm"
   height="297mm"
   viewBox="0 0 210 297"
   version="1.1"
   id="svg1144"
   inkscape:version="0.92.4 (5da689c313, 2019-01-14)"
   sodipodi:docname="maxwell-summary.svg">
  <defs
     id="defs1138">
    <linearGradient
       inkscape:collect="always"
       id="linearGradient1353">
      <stop
         style="stop-color:#ffffff;stop-opacity:1;"
         offset="0"
         id="stop1349" />
      <stop
         style="stop-color:#000000;stop-opacity:1"
         offset="1"
         id="stop1351" />
    </linearGradient>
    <radialGradient
       inkscape:collect="always"
       xlink:href="#linearGradient1353"
       id="radialGradient1355"
       cx="58.153538"
       cy="222.09763"
       fx="58.153538"
       fy="222.09763"
       r="3.4014549"
       gradientUnits="userSpaceOnUse"
       gradientTransform="matrix(1,0,0,1.0000011,3.435207,-13.917224)" />
  </defs>
  <sodipodi:namedview
     id="base"
     pagecolor="#ffffff"
     bordercolor="#666666"
     borderopacity="1.0"
     inkscape:pageopacity="0.0"
     inkscape:pageshadow="2"
     inkscape:zoom="2.9399814"
     inkscape:cx="563.58202"
     inkscape:cy="442.0393"
     inkscape:document-units="mm"
     inkscape:current-layer="layer1"
     showgrid="false"
     inkscape:window-width="1280"
     inkscape:window-height="998"
     inkscape:window-x="0"
     inkscape:window-y="0"
     inkscape:window-maximized="1"
     inkscape:snap-global="false" />
  <metadata
     id="metadata1141">
    <rdf:RDF>
      <cc:Work
         rdf:about="">
        <dc:format>image/svg+xml</dc:format>
        <dc:type
           rdf:resource="http://purl.org/dc/dcmitype/StillImage" />
        <dc:title />
      </cc:Work>
    </rdf:RDF>
  </metadata>
  <g
     inkscape:label="Layer 1"
     inkscape:groupmode="layer"
     id="layer1">
    <rect
       style="fill:#dedede;fill-opacity:1;stroke:none;stroke-width:0.41448247;stroke-miterlimit:4;stroke-dasharray:1.65792994, 1.65792994;stroke-dashoffset:0;stroke-opacity:1"
       id="rect989-3-2-0-6-4"
       width="58.874359"
       height="42.244701"
       x="117.02308"
       y="203.55791" />
    <rect
       style="fill:#dedede;fill-opacity:1;stroke:none;stroke-width:0.37791312;stroke-miterlimit:4;stroke-dasharray:1.51165246, 1.51165246;stroke-dashoffset:0;stroke-opacity:1"
       id="rect989-3-2-0"
       width="58.874352"
       height="35.119137"
       x="47.11327"
       y="163.50534" />
    <text
       xml:space="preserve"
       style="font-style:normal;font-variant:normal;font-weight:normal;font-stretch:normal;font-size:8.46666622px;line-height:1.25;font-family:cmr10;-inkscape-font-specification:cmr10;font-variant-ligatures:normal;font-variant-position:normal;font-variant-caps:normal;font-variant-numeric:normal;font-variant-alternates:normal;font-feature-settings:normal;text-indent:0;text-align:start;text-decoration:none;text-decoration-line:none;text-decoration-style:solid;text-decoration-color:#000000;letter-spacing:0px;word-spacing:0px;text-transform:none;writing-mode:lr-tb;direction:ltr;text-orientation:mixed;dominant-baseline:auto;baseline-shift:baseline;text-anchor:start;white-space:normal;shape-padding:0;opacity:1;vector-effect:none;fill:#000000;fill-opacity:1;stroke:none;stroke-width:0.26458332;stroke-linecap:butt;stroke-linejoin:miter;stroke-miterlimit:4;stroke-dasharray:none;stroke-dashoffset:0;stroke-opacity:1"
       x="30.18161"
       y="19.093208"
       id="text1038"><tspan
         sodipodi:role="line"
         id="tspan1036"
         x="30.18161"
         y="19.093208"
         style="font-style:normal;font-variant:normal;font-weight:normal;font-stretch:normal;font-size:7.76111111px;font-family:cmr10;-inkscape-font-specification:cmr10;stroke-width:0.26458332">Maxwell's equations: the complete laws</tspan><tspan
         sodipodi:role="line"
         x="30.18161"
         y="29.67654"
         style="font-style:normal;font-variant:normal;font-weight:normal;font-stretch:normal;font-size:7.76111111px;font-family:cmr10;-inkscape-font-specification:cmr10;stroke-width:0.26458332"
         id="tspan1007">of electricity and magnetism.</tspan></text>
    <text
       xml:space="preserve"
       style="font-style:normal;font-variant:normal;font-weight:normal;font-stretch:normal;font-size:5.64444447px;line-height:1.25;font-family:cmr10;-inkscape-font-specification:cmr10;font-variant-ligatures:normal;font-variant-position:normal;font-variant-caps:normal;font-variant-numeric:normal;font-variant-alternates:normal;font-feature-settings:normal;text-indent:0;text-align:start;text-decoration:none;text-decoration-line:none;text-decoration-style:solid;text-decoration-color:#000000;letter-spacing:0px;word-spacing:0px;text-transform:none;writing-mode:lr-tb;direction:ltr;text-orientation:mixed;dominant-baseline:auto;baseline-shift:baseline;text-anchor:start;white-space:normal;shape-padding:0;opacity:1;vector-effect:none;fill:#000000;fill-opacity:1;stroke:none;stroke-width:0.26458332;stroke-linecap:butt;stroke-linejoin:miter;stroke-miterlimit:4;stroke-dasharray:none;stroke-dashoffset:0;stroke-opacity:1"
       x="30.212616"
       y="37.847164"
       id="text1038-9"><tspan
         sodipodi:role="line"
         id="tspan1036-0"
         x="30.212616"
         y="37.847164"
         style="font-style:normal;font-variant:normal;font-weight:normal;font-stretch:normal;font-size:5.64444447px;font-family:cmr10;-inkscape-font-specification:cmr10;stroke-width:0.26458332">As equations:</tspan></text>
    <text
       xml:space="preserve"
       style="font-style:normal;font-variant:normal;font-weight:normal;font-stretch:normal;font-size:5.64444447px;line-height:1.25;font-family:cmr10;-inkscape-font-specification:cmr10;font-variant-ligatures:normal;font-variant-position:normal;font-variant-caps:normal;font-variant-numeric:normal;font-variant-alternates:normal;font-feature-settings:normal;text-indent:0;text-align:start;text-decoration:none;text-decoration-line:none;text-decoration-style:solid;text-decoration-color:#000000;letter-spacing:0px;word-spacing:0px;text-transform:none;writing-mode:lr-tb;direction:ltr;text-orientation:mixed;dominant-baseline:auto;baseline-shift:baseline;text-anchor:start;white-space:normal;shape-padding:0;opacity:1;vector-effect:none;fill:#000000;fill-opacity:1;stroke:none;stroke-width:0.26458332;stroke-linecap:butt;stroke-linejoin:miter;stroke-miterlimit:4;stroke-dasharray:none;stroke-dashoffset:0;stroke-opacity:1"
       x="30.252924"
       y="107.06223"
       id="text1038-9-5"><tspan
         sodipodi:role="line"
         id="tspan1036-0-3"
         x="30.252924"
         y="107.06223"
         style="font-style:normal;font-variant:normal;font-weight:normal;font-stretch:normal;font-size:5.64444447px;font-family:cmr10;-inkscape-font-specification:cmr10;stroke-width:0.26458332">In words:</tspan></text>
    <rect
       style="fill:#dedede;fill-opacity:1;stroke:none;stroke-width:0.27714095;stroke-miterlimit:4;stroke-dasharray:1.10856378, 1.10856378;stroke-dashoffset:0;stroke-opacity:1"
       id="rect989-3-5"
       width="58.874352"
       height="18.886927"
       x="47.436764"
       y="41.314335" />
    <rect
       style="fill:#dedede;fill-opacity:1;stroke:none;stroke-width:0.27714095;stroke-miterlimit:4;stroke-dasharray:1.10856378, 1.10856378;stroke-dashoffset:0;stroke-opacity:1"
       id="rect989-7-3"
       width="58.874352"
       height="18.886927"
       x="47.113262"
       y="65.436302" />
    <rect
       style="fill:#dedede;fill-opacity:1;stroke:none;stroke-width:0.27714095;stroke-miterlimit:4;stroke-dasharray:1.10856377, 1.10856377;stroke-dashoffset:0;stroke-opacity:1"
       id="rect989-3"
       width="58.874348"
       height="18.886927"
       x="117.3466"
       y="41.314335" />
    <rect
       style="fill:#dedede;fill-opacity:1;stroke:none;stroke-width:0.27714095;stroke-miterlimit:4;stroke-dasharray:1.10856377, 1.10856377;stroke-dashoffset:0;stroke-opacity:1"
       id="rect989-7"
       width="58.874348"
       height="18.886927"
       x="117.02309"
       y="65.436302" />
    <path
       style="fill:#000000;stroke:none;stroke-width:0.00323558"
       id="path956"
       d="m 54.488009,47.767489 -0.317087,0.02912 v 0.09383 c 0,0.0906 0.0065,0.09383 0.142366,0.09383 0.0906,0 0.16825,0.02265 0.216784,0.06148 l 0.07765,0.06148 0.0097,0.896255 0.0097,0.893021 -0.113245,-0.126188 c -0.06148,-0.06795 -0.190899,-0.165015 -0.284731,-0.220019 -0.155308,-0.08413 -0.200606,-0.09383 -0.462688,-0.09383 -0.265318,0 -0.313851,0.0097 -0.511222,0.110009 -0.407683,0.197371 -0.685943,0.566227 -0.786246,1.03215 -0.055,0.271789 -0.055,0.38827 0.0032,0.663294 0.100303,0.482102 0.36562,0.841251 0.757126,1.035386 0.184428,0.0906 0.245904,0.103539 0.472394,0.103539 0.310616,0 0.546813,-0.09383 0.757126,-0.304145 l 0.132659,-0.132659 v 0.229726 0.229727 l 0.333265,-0.02265 c 0.44651,-0.02589 0.47563,-0.03559 0.47563,-0.126188 0,-0.06795 -0.01941,-0.07765 -0.165015,-0.0906 -0.294438,-0.02912 -0.271788,0.161779 -0.281495,-2.290791 l -0.0097,-2.167839 -0.07118,0.0032 c -0.03883,0.0032 -0.213548,0.01941 -0.385034,0.03883 z m -0.465923,1.81516 c 0.184428,0.055 0.349442,0.177957 0.47563,0.352679 l 0.09383,0.129423 v 0.821837 c 0,0.92214 -0.0097,0.964203 -0.242669,1.168044 -0.572697,0.504751 -1.271583,0.213549 -1.439833,-0.598582 -0.06148,-0.294438 -0.02588,-1.019208 0.06148,-1.242463 0.09707,-0.25561 0.232962,-0.430332 0.407683,-0.53387 0.245904,-0.142366 0.407683,-0.16825 0.643881,-0.09707 z"
       inkscape:connector-curvature="0" />
    <path
       style="fill:#000000;stroke:none;stroke-width:0.00323558"
       id="path962"
       d="m 62.007497,47.958388 0.0097,0.13913 0.349443,0.0097 0.346207,0.0097 v 1.986646 1.989881 h -0.355914 -0.355914 v 0.129424 0.129423 h 2.103127 c 1.659853,0 2.103127,-0.0097 2.103127,-0.04206 0,-0.01941 0.05824,-0.401212 0.129423,-0.841251 0.07118,-0.443274 0.129423,-0.825072 0.129423,-0.850957 0,-0.03883 -0.03235,-0.0453 -0.135894,-0.03883 l -0.132659,0.0097 -0.06148,0.30738 c -0.106774,0.530635 -0.313851,0.870371 -0.624467,1.019208 -0.242668,0.113245 -0.47563,0.145601 -1.187458,0.16825 l -0.705356,0.01941 v -0.980381 -0.977145 l 0.365621,0.01294 c 0.546813,0.01941 0.650351,0.09707 0.708592,0.527399 l 0.03559,0.242669 h 0.126188 0.122952 v -0.922141 -0.92214 H 64.85156 64.725372 l -0.03235,0.232962 c -0.06148,0.414154 -0.200606,0.514457 -0.72477,0.537106 l -0.349443,0.01618 V 48.987278 48.1072 l 0.770068,0.01294 c 0.857429,0.01618 0.960967,0.03559 1.197165,0.239433 0.171485,0.145601 0.287966,0.38827 0.359149,0.744183 l 0.05501,0.287967 0.135894,0.0097 c 0.07442,0.0065 0.135895,0.0032 0.135895,-0.0065 0,-0.04206 -0.161779,-1.368651 -0.177957,-1.468954 l -0.01941,-0.103538 h -2.038415 -2.038416 z"
       inkscape:connector-curvature="0" />
    <path
       style="fill:#000000;stroke:none;stroke-width:0.00323558"
       id="path966"
       d="m 56.286992,48.126638 c -0.187664,0.158544 -0.06471,0.472395 0.184428,0.472395 0.132659,0 0.255611,-0.126188 0.255611,-0.265318 -0.0032,-0.245904 -0.258847,-0.36562 -0.440039,-0.207077 z"
       inkscape:connector-curvature="0" />
    <path
       style="fill:#000000;stroke:none;stroke-width:0.00323558"
       id="path970"
       d="m 82.676382,49.459697 c -0.465923,0.129423 -0.95126,0.605054 -1.164809,1.14216 -0.07442,0.194135 -0.776539,2.934671 -0.776539,3.03821 0,0.161779 0.268553,0.207077 0.368856,0.06471 0.02589,-0.03559 0.13913,-0.433567 0.24914,-0.886549 0.113245,-0.452981 0.213548,-0.821837 0.223255,-0.821837 0.0097,0 0.04853,0.05501 0.0906,0.122952 0.04206,0.06795 0.126188,0.158543 0.190899,0.200606 0.103539,0.07118 0.155308,0.08089 0.378563,0.08089 0.365621,0 0.621232,-0.122953 0.957732,-0.465924 0.770068,-0.776539 0.844486,-2.025473 0.145601,-2.404036 -0.207077,-0.11001 -0.433568,-0.135894 -0.663294,-0.07118 z m 0.485337,0.171486 c 0.242669,0.16825 0.281496,0.66653 0.100303,1.342766 -0.055,0.213548 -0.145601,0.47563 -0.19737,0.588875 -0.275025,0.572698 -0.718299,0.847722 -1.090391,0.669765 -0.126187,-0.05824 -0.287966,-0.284731 -0.320322,-0.44651 -0.01941,-0.110009 0.158543,-0.8639 0.297673,-1.245698 0.268553,-0.750655 0.831544,-1.17128 1.210107,-0.909198 z"
       inkscape:connector-curvature="0" />
    <path
       style="fill:#000000;stroke:none;stroke-width:0.00323558"
       id="path972"
       d="m 56.419651,49.456462 c -0.01618,0.0065 -0.145602,0.01941 -0.281496,0.03236 -0.252375,0.02265 -0.252375,0.02265 -0.252375,0.11648 0,0.0906 0.0065,0.09383 0.145601,0.09383 0.103538,0 0.165014,0.01941 0.210313,0.06471 0.06148,0.06148 0.06471,0.106774 0.06471,1.174515 0,0.880078 -0.0097,1.122747 -0.0453,1.17128 -0.02912,0.04206 -0.09707,0.06471 -0.226491,0.07442 -0.165014,0.01294 -0.181192,0.02265 -0.181192,0.0906 v 0.07765 h 0.598582 0.598583 v -0.08089 c 0,-0.07118 -0.01294,-0.08089 -0.122952,-0.08089 -0.06795,0 -0.155308,-0.02265 -0.194135,-0.05177 l -0.07118,-0.04853 v -1.326591 -1.323352 l -0.103539,0.0032 c -0.05824,0 -0.119716,0.0065 -0.139129,0.01294 z"
       inkscape:connector-curvature="0" />
    <path
       style="fill:#000000;stroke:none;stroke-width:0.00323558"
       id="path976"
       d="m 57.374147,49.582649 c 0,0.06795 0.01618,0.07765 0.16825,0.0906 0.116481,0.01294 0.184428,0.03883 0.220019,0.08413 0.02912,0.03559 0.284731,0.64388 0.562991,1.349237 0.284731,0.711827 0.533871,1.290996 0.559755,1.300703 0.02589,0.0097 0.06148,0.0032 0.07765,-0.01294 0.01618,-0.01618 0.245904,-0.566226 0.511222,-1.226284 0.530635,-1.31041 0.588876,-1.410713 0.831544,-1.475425 0.116481,-0.03236 0.142366,-0.05177 0.142366,-0.113245 0,-0.07442 -0.0032,-0.07442 -0.452982,-0.07442 h -0.452977 v 0.08089 c 0,0.0453 0.01941,0.08089 0.0453,0.08089 0.09383,0 0.213549,0.132659 0.213549,0.236198 0.0032,0.116481 -0.747419,2.038415 -0.779775,2.002824 -0.01941,-0.01941 -0.550049,-1.355708 -0.760361,-1.908992 -0.07765,-0.200606 -0.07765,-0.200606 -0.01294,-0.265318 0.03559,-0.03559 0.106774,-0.06471 0.161779,-0.06471 0.08089,0 0.09707,-0.01294 0.09707,-0.08089 v -0.08089 H 57.94038 57.374154 Z"
       inkscape:connector-curvature="0" />
    <path
       style="fill:#000000;stroke:none;stroke-width:0.00323558"
       id="path980"
       d="m 68.889576,50.042102 c -0.02912,0.03559 -0.03236,0.06471 -0.0065,0.103538 0.02912,0.05177 0.203841,0.05501 2.083713,0.05501 h 2.051358 v -0.09707 -0.09707 l -2.041651,-0.0097 c -1.834574,-0.0065 -2.048122,-0.0032 -2.086949,0.0453 z"
       inkscape:connector-curvature="0" />
    <g
       id="g1971"
       transform="translate(11.85847,-2.6442285)">
      <path
         inkscape:connector-curvature="0"
         d="m 67.410846,52.721926 c -0.119716,0.01941 -0.09383,0.08736 0.03559,0.100303 0.07765,0.0065 0.103538,0.02589 0.103538,0.07442 0,0.03559 -0.110009,0.49828 -0.242668,1.03215 -0.132659,0.533871 -0.242669,0.999795 -0.242669,1.035386 0,0.05501 0.01618,0.06795 0.08736,0.05824 0.08413,-0.0097 0.09383,-0.02912 0.187664,-0.381798 0.110009,-0.407683 0.129423,-0.430332 0.320322,-0.339736 0.126188,0.06148 0.181193,0.174721 0.158544,0.330029 -0.03559,0.239433 0.07442,0.397977 0.275024,0.397977 0.171486,0 0.281495,-0.122952 0.355914,-0.397977 0.04853,-0.181192 -0.01941,-0.13913 -0.09383,0.05501 -0.07765,0.203842 -0.152072,0.284731 -0.252375,0.271789 -0.08413,-0.0097 -0.08413,-0.01294 -0.07442,-0.275024 0.0097,-0.24914 0.0032,-0.275025 -0.07118,-0.349443 -0.04206,-0.04206 -0.145601,-0.09707 -0.229726,-0.116481 l -0.152072,-0.03883 0.190899,-0.194135 c 0.271789,-0.27826 0.41739,-0.378563 0.553284,-0.378563 h 0.113246 l -0.08736,0.08089 c -0.100303,0.09383 -0.106774,0.161779 -0.02265,0.210313 0.106774,0.055 0.229726,-0.03559 0.229726,-0.174722 0,-0.08736 -0.122952,-0.181192 -0.239433,-0.181192 -0.135894,0 -0.281495,0.09707 -0.546813,0.368856 -0.200606,0.207077 -0.281495,0.255611 -0.281495,0.174721 0,-0.01941 0.07442,-0.320322 0.161779,-0.663294 0.0906,-0.342971 0.161779,-0.647116 0.161779,-0.673 0,-0.04853 -0.16825,-0.05824 -0.397977,-0.02588 z"
         id="path984"
         style="fill:#3f3f3f;fill-opacity:1;stroke:none;stroke-width:0.00323558" />
      <path
         inkscape:connector-curvature="0"
         d="m 63.932598,53.550235 c -0.271789,0.433567 -0.491808,0.81213 -0.491808,0.84125 0,0.04853 0.04853,0.05501 0.420625,0.05501 h 0.423861 l -0.0097,0.216784 -0.0097,0.220019 -0.135895,0.02912 c -0.242668,0.05501 -0.148836,0.08413 0.265318,0.08413 0.404447,0 0.530635,-0.03883 0.262082,-0.07765 -0.165015,-0.02589 -0.181193,-0.05177 -0.181193,-0.297673 v -0.174722 h 0.177957 c 0.135895,0 0.177957,-0.0097 0.177957,-0.04853 0,-0.03883 -0.04206,-0.04853 -0.177957,-0.04853 h -0.17797 v -0.792717 c 0,-0.436804 -0.01294,-0.792717 -0.02588,-0.792717 -0.01618,0 -0.24914,0.352678 -0.517693,0.786246 z m 0.372092,0.789481 c -0.0097,0.0065 -0.1909,0.0065 -0.404448,0.0032 l -0.388269,-0.0097 0.391505,-0.630938 0.394741,-0.627703 0.0097,0.624467 c 0.0032,0.346207 0.0032,0.634174 -0.0032,0.640645 z"
         id="path986"
         style="fill:#3f3f3f;fill-opacity:1;stroke:none;stroke-width:0.00323558" />
      <path
         inkscape:connector-curvature="0"
         d="m 65.294777,53.63436 c -0.13913,0.08736 -0.36562,0.423861 -0.284731,0.423861 0.0097,0 0.06795,-0.05824 0.132659,-0.129424 0.116481,-0.129423 0.265317,-0.194134 0.443274,-0.194134 0.04853,0 0.08736,0.01294 0.08736,0.02588 0,0.07442 -0.119716,0.407683 -0.27826,0.789482 -0.177957,0.423861 -0.187664,0.498279 -0.05824,0.472394 0.08736,-0.01618 0.119716,-0.103538 0.281495,-0.721534 l 0.142366,-0.550048 0.181192,-0.0097 c 0.103539,-0.0065 0.184428,0.0032 0.184428,0.01941 0,0.01618 -0.02912,0.165015 -0.06471,0.333265 -0.103539,0.498279 -0.07442,0.935083 0.06471,0.935083 0.113246,0 0.132659,-0.07442 0.07765,-0.294438 -0.05501,-0.207077 -0.05177,-0.812131 0.0032,-0.941554 0.01618,-0.0453 0.07118,-0.05824 0.268553,-0.06471 0.223255,-0.0097 0.249139,-0.01618 0.249139,-0.07442 0,-0.06148 -0.02588,-0.06471 -0.663293,-0.07442 -0.608289,-0.0065 -0.673001,-0.0032 -0.766833,0.05501 z"
         id="path988"
         style="fill:#3f3f3f;fill-opacity:1;stroke:none;stroke-width:0.00323558" />
    </g>
    <path
       style="fill:#000000;stroke:none;stroke-width:0.00323558"
       id="path990"
       d="m 68.883105,51.210146 c -0.0453,0.04206 -0.02265,0.13913 0.03883,0.171486 0.07765,0.03883 4.008883,0.0453 4.073595,0.0032 0.02588,-0.01294 0.03883,-0.06148 0.03236,-0.103538 l -0.0097,-0.07765 -2.057829,-0.0097 c -1.129217,-0.0032 -2.067536,0.0032 -2.077242,0.01618 z"
       inkscape:connector-curvature="0" />
    <path
       style="fill:#000000;stroke:none;stroke-width:0.00323558"
       id="path958"
       d="m 125.22821,48.430759 -0.33326,0.02912 v 0.0906 c 0,0.08413 0.01,0.0906 0.18119,0.103539 0.12942,0.0097 0.19737,0.03236 0.22649,0.07442 0.0356,0.04853 0.0453,0.252376 0.0453,0.935083 v 0.873607 l -0.1359,-0.132659 c -0.23619,-0.226491 -0.38503,-0.284731 -0.72153,-0.281496 -0.36239,0 -0.57593,0.0906 -0.84449,0.342972 -0.32679,0.30738 -0.46592,0.647116 -0.46592,1.122746 0,0.465924 0.14236,0.828309 0.44004,1.125982 0.25561,0.255611 0.47563,0.349443 0.82184,0.349443 0.32355,-0.0032 0.48857,-0.06795 0.74418,-0.297674 l 0.16178,-0.145601 v 0.232962 0.229726 l 0.33326,-0.01941 c 0.45298,-0.02589 0.47563,-0.03236 0.47563,-0.129424 0,-0.07118 -0.0129,-0.08089 -0.11001,-0.08089 -0.12942,0 -0.28149,-0.05177 -0.31708,-0.106774 -0.013,-0.02265 -0.0259,-1.009501 -0.0259,-2.200195 v -2.15814 l -0.0712,0.0032 c -0.0421,0.0032 -0.22326,0.01941 -0.40445,0.03883 z m -0.34297,1.863694 c 0.15854,0.07765 0.32032,0.239433 0.40121,0.397976 0.055,0.106775 0.0615,0.194135 0.0615,0.841251 0,0.397977 -0.0162,0.773304 -0.0324,0.838015 -0.0453,0.165015 -0.26855,0.404448 -0.46592,0.504751 -0.42386,0.216784 -0.88331,0.03236 -1.1001,-0.443275 -0.2362,-0.520928 -0.18119,-1.456011 0.10678,-1.850751 0.25561,-0.346207 0.6827,-0.465924 1.02891,-0.287967 z"
       inkscape:connector-curvature="0" />
    <path
       style="fill:#000000;stroke:none;stroke-width:0.00323558"
       id="path960"
       d="m 132.75741,48.599009 v 0.145601 h 0.35591 0.35591 l -0.006,1.996353 -0.01,1.999589 -0.34621,0.0097 -0.34944,0.0097 v 0.129423 0.129423 l 1.77309,-0.01294 c 1.91547,-0.0097 1.85723,-0.0065 2.22608,-0.194135 0.23944,-0.122952 0.41092,-0.287966 0.53387,-0.514457 0.10354,-0.190899 0.11001,-0.223255 0.11001,-0.495044 0,-0.252375 -0.0129,-0.313851 -0.0874,-0.452981 -0.17795,-0.342971 -0.52416,-0.579169 -0.98038,-0.673001 l -0.22649,-0.0453 0.14237,-0.03883 c 0.42062,-0.116481 0.75065,-0.362385 0.87684,-0.653587 0.0712,-0.165014 0.0874,-0.391505 0.0485,-0.58564 -0.0582,-0.271788 -0.34297,-0.588875 -0.65682,-0.728005 -0.36562,-0.161779 -0.48534,-0.171486 -2.18078,-0.171486 h -1.57896 z m 3.09968,0.19737 c 0.26532,0.11001 0.4271,0.35915 0.45298,0.69565 0.0324,0.440039 -0.12942,0.757126 -0.46916,0.925376 -0.18442,0.0906 -0.19413,0.0906 -0.8736,0.100303 l -0.68918,0.0097 v -0.889785 -0.89302 h 0.728 c 0.58564,0 0.75389,0.0097 0.85096,0.05177 z m 0.15207,2.038416 c 0.18443,0.100303 0.30415,0.229726 0.40122,0.433568 0.0712,0.152072 0.0841,0.223255 0.0841,0.488572 0,0.281496 -0.01,0.326794 -0.0971,0.501515 -0.11001,0.210313 -0.30738,0.368856 -0.54357,0.440039 -0.0841,0.02265 -0.40122,0.03883 -0.84773,0.03883 l -0.71182,0.0032 -0.01,-0.996559 -0.006,-0.999794 0.79919,0.01294 c 0.74742,0.0097 0.81213,0.01294 0.93184,0.07765 z"
       inkscape:connector-curvature="0" />
    <path
       style="fill:#000000;stroke:none;stroke-width:0.00323558"
       id="path964"
       d="m 147.58607,48.660485 c -0.71506,0.226491 -1.04509,1.14216 -0.94803,2.643469 0.0615,0.954496 0.30091,1.472189 0.79272,1.714857 0.34297,0.168251 0.75713,0.13913 1.07421,-0.08089 0.30738,-0.213548 0.54035,-0.682707 0.62124,-1.261876 0.0518,-0.372092 0.0453,-1.349237 -0.0129,-1.688973 -0.0938,-0.562991 -0.28149,-0.931847 -0.59211,-1.168044 -0.2459,-0.187664 -0.63094,-0.252376 -0.93508,-0.158544 z m 0.64712,0.155308 c 0.25884,0.142365 0.40768,0.459452 0.47563,0.996559 0.0421,0.352678 0.0421,1.714857 0,2.070771 -0.0906,0.747419 -0.36239,1.129217 -0.79919,1.132453 -0.0906,0 -0.20384,-0.01294 -0.24591,-0.02912 -0.13589,-0.05177 -0.31385,-0.232962 -0.39797,-0.401212 -0.15208,-0.300909 -0.1812,-0.514458 -0.19737,-1.556314 -0.0226,-1.407478 0.0388,-1.78604 0.34297,-2.090185 0.0809,-0.08089 0.2006,-0.165015 0.26208,-0.184428 0.15854,-0.05501 0.39798,-0.02589 0.55976,0.06148 z"
       inkscape:connector-curvature="0" />
    <path
       style="fill:#000000;stroke:none;stroke-width:0.00323558"
       id="path968"
       d="m 127.07249,48.74461 c -0.24267,0.100303 -0.1456,0.517693 0.11972,0.517693 0.21355,0 0.33973,-0.281495 0.20384,-0.449746 -0.0679,-0.07765 -0.22002,-0.113245 -0.32356,-0.06795 z"
       inkscape:connector-curvature="0" />
    <path
       style="fill:#000000;stroke:none;stroke-width:0.00323558"
       id="path974"
       d="m 126.90748,50.145616 c -0.30091,0.02912 -0.30091,0.02912 -0.2912,0.116481 0.01,0.07442 0.0259,0.08736 0.16825,0.103539 0.1003,0.0097 0.17148,0.03883 0.2006,0.07765 0.0356,0.04853 0.0453,0.281495 0.0453,1.184222 0,1.274818 0.0162,1.193929 -0.27826,1.219814 -0.15854,0.01294 -0.17472,0.02265 -0.17472,0.0906 v 0.07765 h 0.59858 0.59858 v -0.08089 c 0,-0.07118 -0.0129,-0.08089 -0.12295,-0.08089 -0.0679,0 -0.15531,-0.02265 -0.19413,-0.05177 l -0.0712,-0.04853 v -1.326586 -1.323352 l -0.0874,0.0032 c -0.0518,0.0032 -0.22649,0.01941 -0.3915,0.03883 z"
       inkscape:connector-curvature="0" />
    <path
       style="fill:#000000;stroke:none;stroke-width:0.00323558"
       id="path978"
       d="m 128.09817,50.245919 c 0,0.06795 0.0162,0.07765 0.16502,0.0906 0.1003,0.0097 0.18766,0.03883 0.22325,0.07765 0.0324,0.03559 0.2912,0.643881 0.57593,1.355709 0.42386,1.067741 0.5274,1.297467 0.57917,1.303938 0.0582,0.0097 0.12295,-0.132659 0.56299,-1.22952 0.54682,-1.375122 0.59535,-1.459247 0.8639,-1.501309 0.11648,-0.01941 0.1359,-0.03236 0.1359,-0.09707 v -0.07765 h -0.46916 -0.46916 v 0.08089 c 0,0.05824 0.0162,0.08089 0.0647,0.08089 0.10354,0 0.19414,0.116481 0.19414,0.24914 0,0.158543 -0.74095,2.044887 -0.77654,1.980175 -0.0679,-0.119716 -0.8089,-2.041651 -0.8089,-2.09342 0,-0.06795 0.12295,-0.135895 0.24267,-0.135895 0.0647,0 0.0809,-0.01618 0.0809,-0.08089 v -0.08089 h -0.5824 -0.58241 z"
       inkscape:connector-curvature="0" />
    <path
       style="fill:#000000;stroke:none;stroke-width:0.00323558"
       id="path982"
       d="m 140.03423,50.705372 c -0.0291,0.03559 -0.0324,0.06471 -0.006,0.103538 0.0291,0.05177 0.20385,0.05501 2.08372,0.05501 h 2.05136 v -0.09707 -0.09707 l -2.04166,-0.0097 c -1.83457,-0.0065 -2.04812,-0.0032 -2.08694,0.0453 z"
       inkscape:connector-curvature="0" />
    <path
       style="fill:#000000;stroke:none;stroke-width:0.00323558"
       id="path992"
       d="m 140.02775,51.873416 c -0.0453,0.04206 -0.0226,0.13913 0.0388,0.171486 0.0777,0.03883 4.00889,0.0453 4.0736,0.0032 0.0259,-0.01294 0.0388,-0.06148 0.0324,-0.103538 l -0.01,-0.07765 -2.05783,-0.0097 c -1.12922,-0.0032 -2.06754,0.0032 -2.07725,0.01618 z"
       inkscape:connector-curvature="0" />
    <path
       style="fill:#000000;stroke:none;stroke-width:0.00323558"
       id="path994"
       d="m 82.420198,67.931426 c -0.239433,0.0906 -0.333265,0.155308 -0.495044,0.326794 -0.265317,0.281495 -0.394741,0.673 -0.262082,0.78301 0.02912,0.02265 0.11001,0.0453 0.181193,0.0453 0.106774,0 0.148836,-0.02265 0.223255,-0.106774 0.158543,-0.174721 0.113245,-0.342972 -0.11001,-0.414154 l -0.0906,-0.02912 0.132658,-0.152073 c 0.181193,-0.210312 0.427097,-0.323558 0.731241,-0.342971 0.142366,-0.0097 0.297674,0 0.385034,0.02588 0.213549,0.05824 0.436804,0.275025 0.550049,0.524164 0.122952,0.268553 0.148837,0.747419 0.06795,1.200401 -0.05501,0.297673 -0.142365,0.627702 -0.145601,0.550048 -0.0065,-0.122952 -0.148836,-0.401212 -0.265317,-0.517693 -0.572698,-0.582404 -1.863694,-0.03883 -2.329618,0.983617 -0.05177,0.106774 -0.116481,0.323558 -0.145601,0.478866 -0.06795,0.339735 -0.03236,0.608289 0.122952,0.899491 0.404447,0.757125 1.488367,0.786246 2.206666,0.06148 0.53387,-0.537107 0.95126,-1.491603 1.051563,-2.404036 0.0906,-0.850958 -0.216784,-1.55955 -0.799188,-1.847516 -0.190899,-0.09383 -0.245904,-0.106775 -0.537107,-0.113246 -0.245904,-0.0065 -0.362384,0.0065 -0.472394,0.04853 z m 0.553284,1.821632 c 0.582404,0.19737 0.666529,1.019207 0.200606,1.95429 -0.06471,0.122952 -0.171486,0.297673 -0.242669,0.38827 -0.624466,0.786245 -1.643674,0.61476 -1.643674,-0.275025 0,-0.281495 0.19737,-1.041857 0.342971,-1.333059 0.106774,-0.210312 0.440039,-0.55652 0.617996,-0.64388 0.258846,-0.126188 0.520928,-0.158544 0.72477,-0.0906 z"
       inkscape:connector-curvature="0" />
    <path
       style="fill:#000000;stroke:none;stroke-width:0.00323558"
       id="path998"
       d="m 84.652748,68.196744 v 0.129423 h 0.339736 0.339736 v 2.006059 2.00606 h -0.339736 -0.339736 v 0.145601 0.145601 h 1.659853 c 1.782804,0 1.896049,-0.0097 2.26167,-0.171486 0.103539,-0.0453 0.258846,-0.152072 0.352678,-0.239432 0.58564,-0.546813 0.459453,-1.407478 -0.255611,-1.769863 -0.165014,-0.08413 -0.44651,-0.171485 -0.605053,-0.187663 -0.08413,-0.0097 -0.07118,-0.01941 0.09707,-0.07118 0.404448,-0.122952 0.660059,-0.304145 0.808895,-0.572698 0.08413,-0.148836 0.09707,-0.210312 0.09707,-0.41739 0,-0.410918 -0.203842,-0.721534 -0.601818,-0.925375 -0.381799,-0.1909 -0.326794,-0.187664 -2.138719,-0.197371 l -1.67603,-0.01294 z m 3.073801,0.200606 c 0.313851,0.135894 0.465924,0.391505 0.465924,0.786246 0,0.427096 -0.165015,0.70212 -0.514458,0.863899 -0.148836,0.06795 -0.213548,0.07442 -0.831544,0.08413 l -0.673,0.0097 v -0.909198 -0.912433 l 0.721534,0.01294 c 0.546813,0.0097 0.744183,0.02589 0.831544,0.06471 z m 0.06795,2.019001 c 0.352678,0.106775 0.579169,0.465924 0.58564,0.935083 0.0032,0.326794 -0.07442,0.540342 -0.262082,0.728006 -0.239433,0.236197 -0.3365,0.258846 -1.206871,0.258846 h -0.737712 v -0.986852 -0.986852 h 0.721534 c 0.569462,0 0.760361,0.0097 0.899491,0.05177 z"
       inkscape:connector-curvature="0" />
    <path
       style="fill:#000000;stroke:none;stroke-width:0.00323558"
       id="path1002"
       d="m 59.463758,72.55507 c -0.05177,0.0032 -0.174722,0.01941 -0.265318,0.02912 -0.152072,0.01618 -0.171486,0.02589 -0.171486,0.09383 0,0.06471 0.01941,0.07765 0.158544,0.09707 0.304144,0.04206 0.27826,-0.155308 0.287966,2.096656 0.0065,1.747213 0.0032,1.996353 -0.04206,2.038416 -0.02589,0.02912 -0.129423,0.06148 -0.226491,0.07118 -0.158543,0.02265 -0.177957,0.03236 -0.177957,0.100303 v 0.07765 h 0.630938 0.630939 v -0.07765 c 0,-0.06795 -0.01618,-0.07765 -0.1909,-0.09707 -0.113245,-0.01294 -0.210312,-0.04206 -0.236197,-0.07442 -0.03236,-0.04206 -0.0453,-0.465924 -0.05177,-2.216373 l -0.0097,-2.161367 -0.119716,0.0032 c -0.06471,0.0032 -0.161779,0.01294 -0.216784,0.01941 z"
       inkscape:connector-curvature="0" />
    <path
       style="fill:#000000;stroke:none;stroke-width:0.00323558"
       id="path1008"
       d="m 61.841909,72.742734 v 0.142365 l 0.349443,0.0097 0.346207,0.0097 0.0097,1.980174 0.0065,1.983411 h -0.355936 -0.355914 v 0.145601 0.145601 h 2.086949 c 1.148631,0 2.086949,-0.0097 2.086949,-0.02588 0,-0.01294 0.05824,-0.385034 0.129423,-0.825073 0.07118,-0.443275 0.129424,-0.838016 0.129424,-0.883314 0,-0.06795 -0.01294,-0.07765 -0.129424,-0.07765 -0.119716,0 -0.126187,0.0065 -0.145601,0.119717 -0.08413,0.507986 -0.22649,0.8639 -0.420625,1.06127 -0.275024,0.271789 -0.562991,0.339736 -1.47866,0.339736 h -0.673001 v -0.97391 -0.977145 l 0.333265,0.01618 c 0.553284,0.02912 0.689178,0.129423 0.747419,0.543578 l 0.03236,0.262082 0.132658,-0.0097 0.129424,-0.0097 v -0.92214 -0.92214 l -0.132659,-0.0097 -0.132659,-0.0097 -0.02265,0.226491 c -0.04206,0.423861 -0.190899,0.537106 -0.737712,0.572697 l -0.349443,0.02265 V 73.78138 72.88836 h 0.592111 c 0.323558,0 0.685943,0.01618 0.802424,0.03235 0.572698,0.08413 0.841251,0.375328 0.94479,1.025679 l 0.03883,0.236198 h 0.135894 c 0.07765,0 0.13913,-0.01618 0.13913,-0.03559 0,-0.06148 -0.161779,-1.401006 -0.177957,-1.47866 l -0.01618,-0.07118 h -2.022237 -2.022238 z"
       inkscape:connector-curvature="0" />
    <path
       style="fill:#000000;stroke:none;stroke-width:0.00323558"
       id="path1022"
       d="m 51.420106,74.292576 c -0.223255,0.0906 -0.3365,0.16825 -0.504751,0.352679 -0.647116,0.70212 -0.465923,1.98341 0.336501,2.407271 0.472394,0.24914 0.957731,0.200606 1.297467,-0.129423 0.158544,-0.152072 0.297674,-0.397976 0.297674,-0.524164 0,-0.13913 -0.06471,-0.0906 -0.158544,0.126188 -0.203841,0.449745 -0.621231,0.663293 -1.022443,0.524163 -0.459452,-0.155307 -0.708592,-0.621231 -0.708592,-1.329823 0,-0.388269 0.04206,-0.624467 0.165014,-0.873606 0.161779,-0.333265 0.404448,-0.49828 0.72477,-0.501515 0.297674,0 0.582405,0.135894 0.708592,0.339735 0.08412,0.135895 0.08089,0.145602 -0.02588,0.145602 -0.122952,0 -0.200606,0.0906 -0.200606,0.232961 0,0.142366 0.08089,0.22002 0.232962,0.22002 0.155307,0 0.220019,-0.08089 0.220019,-0.275024 0,-0.579169 -0.747419,-0.970675 -1.362179,-0.715064 z"
       inkscape:connector-curvature="0" />
    <path
       style="fill:#000000;stroke:none;stroke-width:0.00323558"
       id="path1026"
       d="m 53.623536,74.269927 c -0.35915,0.03559 -0.38827,0.04206 -0.38827,0.119717 0,0.06471 0.01941,0.07765 0.16825,0.09383 0.27826,0.03559 0.265318,-0.01618 0.284731,1.14863 0.01618,0.967439 0.01941,1.035386 0.08736,1.177752 0.09383,0.203841 0.291202,0.330029 0.592111,0.381798 0.41739,0.07118 0.734477,-0.06148 0.960967,-0.397976 l 0.103539,-0.155308 0.0097,0.284731 0.0097,0.284731 0.177956,-0.0097 c 0.09707,-0.0032 0.275025,-0.01618 0.397977,-0.02588 0.200606,-0.01941 0.216784,-0.02589 0.216784,-0.09383 0,-0.06471 -0.01941,-0.07765 -0.165015,-0.09707 -0.304144,-0.04206 -0.287967,0.03883 -0.287967,-1.443068 V 74.23758 l -0.297673,0.02265 c -0.459452,0.03236 -0.511222,0.0453 -0.511222,0.132658 0,0.06148 0.02265,0.07442 0.168251,0.0906 0.275024,0.03235 0.268553,0.0097 0.278259,0.915669 0.0065,0.637409 0,0.831544 -0.04206,0.993323 -0.06471,0.262082 -0.194135,0.465923 -0.365621,0.588875 -0.119716,0.08089 -0.174721,0.09707 -0.372091,0.106774 -0.297674,0.01294 -0.430332,-0.04853 -0.530635,-0.252375 -0.07442,-0.142365 -0.07442,-0.161779 -0.07442,-1.365415 V 74.24729 l -0.152072,0.0065 c -0.08736,0 -0.207077,0.0097 -0.268553,0.01618 z"
       inkscape:connector-curvature="0" />
    <path
       style="fill:#000000;stroke:none;stroke-width:0.00323558"
       id="path1028"
       d="m 57.004717,74.269927 c -0.372092,0.04206 -0.372092,0.04206 -0.372092,0.119717 0,0.06795 0.01941,0.07765 0.171486,0.09383 0.291202,0.03559 0.281495,-0.01294 0.281495,1.268347 0,0.944789 -0.0065,1.119511 -0.04853,1.161573 -0.02588,0.02589 -0.129423,0.05824 -0.226491,0.06795 -0.158543,0.02265 -0.177957,0.03236 -0.177957,0.100303 v 0.07765 h 0.679472 0.679472 v -0.08089 c 0,-0.07118 -0.01294,-0.08089 -0.119717,-0.08089 -0.171485,-0.0032 -0.368856,-0.05177 -0.401212,-0.103538 -0.04206,-0.06471 -0.03559,-1.546608 0.0065,-1.747214 0.055,-0.249139 0.13913,-0.423861 0.278259,-0.579168 0.13913,-0.155308 0.27826,-0.223255 0.449746,-0.223255 0.113245,0 0.116481,0.0032 0.07118,0.055 -0.07765,0.08736 -0.09707,0.194135 -0.055,0.275025 0.05177,0.100303 0.0906,0.122952 0.210313,0.122952 0.216784,0 0.284731,-0.268553 0.110009,-0.436803 -0.132658,-0.129424 -0.440038,-0.155308 -0.637409,-0.05501 -0.161779,0.08413 -0.320322,0.265317 -0.41739,0.472394 l -0.07442,0.165015 v -0.349443 l -0.0032,-0.346207 -0.152072,0.0032 c -0.08736,0.0032 -0.19737,0.01294 -0.252375,0.01941 z"
       inkscape:connector-curvature="0" />
    <path
       style="fill:#000000;stroke:none;stroke-width:0.00323558"
       id="path1036"
       d="m 68.775757,74.78762 c -0.03883,0.0065 -0.08089,0.0453 -0.09383,0.08089 -0.04853,0.155307 -0.04206,0.155307 2.09342,0.155307 1.795747,0 2.002824,-0.0065 2.051358,-0.05177 0.02912,-0.02912 0.0453,-0.06795 0.03883,-0.0906 -0.03559,-0.11001 -0.142365,-0.116481 -2.09342,-0.11001 -1.058035,0 -1.957526,0.0097 -1.996353,0.01618 z"
       inkscape:connector-curvature="0" />
    <path
       style="fill:#000000;stroke:none;stroke-width:0.00323558"
       id="path1040"
       d="m 75.641658,75.389438 c -0.04206,0.03236 -0.05177,0.06795 -0.03559,0.132659 l 0.01941,0.08413 2.015766,-0.0065 2.012531,-0.0097 0.0097,-0.07765 c 0.02588,-0.165015 0.04206,-0.165015 -2.031945,-0.165015 -1.562785,0 -1.941348,0.0097 -1.989881,0.04206 z"
       inkscape:connector-curvature="0" />
    <path
       style="fill:#000000;stroke:none;stroke-width:0.00323558"
       id="path1042"
       d="m 80.543561,75.492977 c 0,0.04206 0.530636,0.04853 4.594524,0.04853 4.063888,0 4.594524,-0.0065 4.594524,-0.04853 0,-0.04206 -0.530636,-0.04853 -4.594524,-0.04853 -4.063888,0 -4.594524,0.0065 -4.594524,0.04853 z"
       inkscape:connector-curvature="0" />
    <path
       style="fill:#000000;stroke:none;stroke-width:0.00323558"
       id="path1046"
       d="m 68.714281,76.007434 c -0.04853,0.03883 -0.055,0.05824 -0.02588,0.106774 0.03559,0.05501 0.148837,0.05824 2.067536,0.06795 1.999588,0.0065 2.119305,0.0032 2.119305,-0.09383 0,-0.01294 -0.02265,-0.04853 -0.05177,-0.07442 -0.0453,-0.0453 -0.275025,-0.05177 -2.048123,-0.05177 -1.688972,0 -2.006059,0.0065 -2.061064,0.0453 z"
       inkscape:connector-curvature="0" />
    <path
       style="fill:#000000;stroke:none;stroke-width:0.00323558"
       id="path1054"
       d="m 84.005632,77.010464 c -0.242668,0.06471 -0.394741,0.155307 -0.566226,0.326793 -0.275025,0.271789 -0.414155,0.656823 -0.291203,0.792717 0.11001,0.122952 0.38827,0.05501 0.462688,-0.113245 0.08412,-0.184428 0.0032,-0.339736 -0.181192,-0.339736 -0.09383,0 -0.06471,-0.05824 0.113245,-0.239433 0.355914,-0.359149 0.999794,-0.407683 1.358944,-0.100303 0.372091,0.320323 0.465923,0.951261 0.268553,1.828103 l -0.07442,0.326793 -0.05824,-0.181192 c -0.190899,-0.621231 -0.825073,-0.795953 -1.553078,-0.430332 -0.608289,0.304144 -1.070977,0.938318 -1.164809,1.595141 -0.100303,0.734476 0.359149,1.33953 1.064506,1.39777 0.559755,0.0453 1.109804,-0.239433 1.533665,-0.795952 0.213548,-0.284731 0.517692,-0.912434 0.637409,-1.320117 0.252375,-0.857429 0.245904,-1.446304 -0.01618,-2.00606 -0.284731,-0.601818 -0.92214,-0.909198 -1.533665,-0.740947 z m 0.647116,1.941348 c 0.08089,0.05177 0.155308,0.145601 0.216784,0.268553 0.08089,0.16825 0.0906,0.220019 0.08736,0.511221 0,0.27826 -0.01618,0.368856 -0.106775,0.630938 -0.152072,0.449746 -0.310615,0.728006 -0.556519,0.97391 -0.275025,0.27826 -0.482102,0.362385 -0.841251,0.346207 -0.200606,-0.0065 -0.268553,-0.02589 -0.375327,-0.09707 -0.310616,-0.203842 -0.365621,-0.643881 -0.174722,-1.365415 0.05501,-0.213548 0.148837,-0.482102 0.207077,-0.598582 0.126188,-0.255611 0.430332,-0.575934 0.643881,-0.679472 0.304144,-0.145601 0.673,-0.13913 0.899491,0.0097 z"
       inkscape:connector-curvature="0" />
    <path
       style="fill:#000000;stroke:none;stroke-width:0.00323558"
       id="path1062"
       d="m 87.182972,77.651108 c -0.0453,0.05177 -0.11001,0.252376 -0.207078,0.640645 l -0.142365,0.566227 -0.401212,0.01618 c -0.362385,0.01294 -0.404447,0.02265 -0.414154,0.07765 -0.01941,0.09383 0.05177,0.11648 0.407683,0.11648 0.245904,0 0.330029,0.0097 0.330029,0.04206 0,0.02265 -0.11001,0.482101 -0.242669,1.022443 -0.132658,0.537107 -0.242668,1.03215 -0.242668,1.100097 0,0.161779 0.122952,0.391506 0.252375,0.478866 0.281496,0.184428 0.621232,0.113246 0.931847,-0.19737 0.287967,-0.287967 0.524164,-0.795953 0.368856,-0.795953 -0.01618,0 -0.08736,0.113246 -0.158543,0.24914 -0.216784,0.430332 -0.491808,0.685943 -0.747419,0.698885 -0.165015,0.0065 -0.229726,-0.05824 -0.24914,-0.239433 -0.01294,-0.122952 0.200606,-1.067741 0.511222,-2.239021 l 0.03236,-0.119717 h 0.339736 c 0.362385,0 0.465923,-0.02912 0.465923,-0.129423 0,-0.06148 -0.02265,-0.06471 -0.372091,-0.06471 -0.304145,0 -0.372092,-0.0097 -0.372092,-0.04853 0,-0.02589 0.05824,-0.268553 0.129423,-0.540342 0.07118,-0.271789 0.129423,-0.520928 0.129423,-0.550049 0,-0.152072 -0.229726,-0.207077 -0.349442,-0.08413 z"
       inkscape:connector-curvature="0" />
    <path
       style="fill:#000000;stroke:none;stroke-width:0.00323558"
       id="path996"
       d="m 151.42183,67.930966 c -0.22649,0.08736 -0.32679,0.148837 -0.4821,0.300909 -0.16825,0.171486 -0.3268,0.485337 -0.3268,0.650352 0,0.326793 0.48534,0.258846 0.53711,-0.07442 0.0226,-0.126187 -0.0324,-0.194135 -0.19737,-0.245904 l -0.0971,-0.03236 0.17796,-0.177957 c 0.22326,-0.220019 0.45622,-0.317086 0.76683,-0.317086 0.11648,0 0.27179,0.01618 0.33974,0.03883 0.19413,0.05824 0.42062,0.278259 0.53063,0.517692 0.0906,0.194135 0.0938,0.226491 0.0938,0.656823 0,0.365621 -0.0162,0.517693 -0.0777,0.786246 l -0.0777,0.333265 -0.0744,-0.203842 c -0.0874,-0.239433 -0.31385,-0.47563 -0.52093,-0.537106 -0.42386,-0.126188 -1.04186,0.06148 -1.47866,0.449746 -0.50799,0.456216 -0.80566,1.180986 -0.69888,1.718093 0.13589,0.689178 0.66653,1.058034 1.3913,0.960967 0.66976,-0.0906 1.31688,-0.734477 1.68573,-1.672795 0.48534,-1.245698 0.43357,-2.258435 -0.15207,-2.844075 -0.25885,-0.258846 -0.46916,-0.346207 -0.87037,-0.355914 -0.24591,-0.0065 -0.35915,0.0065 -0.46916,0.04853 z m 0.55328,1.821632 c 0.18443,0.06471 0.32356,0.190899 0.41416,0.381798 0.11971,0.258846 0.11648,0.679472 -0.0129,1.070977 -0.19737,0.61476 -0.54682,1.103333 -0.91567,1.284525 -0.23944,0.116481 -0.63418,0.129423 -0.81213,0.02588 -0.38504,-0.226491 -0.44651,-0.669765 -0.21355,-1.494838 0.15531,-0.543577 0.3915,-0.905962 0.73124,-1.132453 0.22973,-0.152072 0.5824,-0.210313 0.80889,-0.135894 z"
       inkscape:connector-curvature="0" />
    <path
       style="fill:#000000;stroke:none;stroke-width:0.00323558"
       id="path1000"
       d="m 153.6285,68.235111 0.01,0.13913 0.34944,0.0097 0.34621,0.0097 v 1.970468 1.970468 l -0.34621,0.0097 -0.34944,0.0097 -0.01,0.135894 -0.01,0.13913 h 2.09665 2.09666 l 0.12295,-0.802424 c 0.0712,-0.440039 0.13266,-0.838015 0.14237,-0.889784 0.0162,-0.08413 0.0129,-0.08736 -0.12295,-0.08736 h -0.14237 l -0.055,0.281496 c -0.0809,0.443274 -0.16825,0.640645 -0.37857,0.854193 -0.30091,0.304144 -0.40444,0.333265 -1.36865,0.346207 l -0.80242,0.01294 v -0.957732 -0.957731 h 0.34944 c 0.44328,0 0.59211,0.05824 0.68594,0.265317 0.0388,0.08413 0.0647,0.210313 0.0647,0.323558 v 0.187664 h 0.1456 0.1456 v -0.92214 -0.922141 h -0.14237 -0.13913 l -0.0162,0.229727 c -0.0291,0.410918 -0.19413,0.527399 -0.73771,0.530635 h -0.33973 l -0.01,-0.867136 -0.006,-0.8639 h 0.72477 c 0.63094,0 0.75065,0.0097 0.93185,0.06471 0.39797,0.122952 0.59211,0.381798 0.69565,0.935083 l 0.055,0.294437 h 0.11972 c 0.0679,0 0.12942,-0.0097 0.13589,-0.02588 0.01,-0.01294 -0.0259,-0.349443 -0.0777,-0.750655 -0.0485,-0.401212 -0.0906,-0.747419 -0.0906,-0.770068 -0.003,-0.02912 -0.43357,-0.03883 -2.04489,-0.03883 h -2.03841 z"
       inkscape:connector-curvature="0" />
    <path
       style="fill:#000000;stroke:none;stroke-width:0.00323558"
       id="path1004"
       d="m 130.63323,72.551374 c -0.0356,0.0065 -0.14884,0.01941 -0.24914,0.02912 -0.16825,0.01941 -0.18766,0.02912 -0.18766,0.09707 0,0.06471 0.0194,0.07765 0.15854,0.09707 0.29767,0.04206 0.27826,-0.113245 0.28797,2.083714 0.003,1.511016 -0.003,1.944583 -0.0356,2.009295 -0.0324,0.06471 -0.0777,0.08736 -0.22649,0.11001 -0.16178,0.02588 -0.18442,0.03883 -0.18442,0.106774 v 0.07442 h 0.61476 0.61476 v -0.07765 c 0,-0.06795 -0.0194,-0.07765 -0.17796,-0.100303 -0.12942,-0.01618 -0.1909,-0.03883 -0.22649,-0.0906 -0.0421,-0.06148 -0.0485,-0.355914 -0.0485,-2.213137 v -2.145189 l -0.13589,0.0032 c -0.0776,0.0032 -0.16825,0.0097 -0.20384,0.01618 z"
       inkscape:connector-curvature="0" />
    <path
       style="fill:#000000;stroke:none;stroke-width:0.00323558"
       id="path1006"
       d="m 133.01138,72.706682 v 0.145601 l 0.34944,0.0097 0.34621,0.0097 0.01,1.996353 0.006,1.999588 h -0.35592 -0.35591 v 0.148837 0.145601 l 1.74074,-0.0097 c 1.56926,-0.0097 1.75369,-0.01941 1.91547,-0.07118 0.44974,-0.145601 0.74094,-0.381798 0.89949,-0.72477 0.0679,-0.148836 0.0841,-0.232961 0.0841,-0.427096 0,-0.317087 -0.0906,-0.524164 -0.31709,-0.737712 -0.23296,-0.223255 -0.41415,-0.307381 -0.87684,-0.410919 -0.0906,-0.01941 -0.0776,-0.02912 0.15207,-0.100303 0.35915,-0.113245 0.60506,-0.304145 0.73772,-0.575933 0.0971,-0.194135 0.10354,-0.232962 0.0906,-0.430332 -0.0356,-0.504751 -0.37532,-0.850958 -1.01273,-1.03215 -0.16825,-0.04853 -0.40122,-0.05824 -1.80222,-0.07118 l -1.61132,-0.0097 z m 3.12557,0.236197 c 0.53064,0.284732 0.57917,1.145396 0.0841,1.520723 -0.21031,0.158543 -0.32032,0.181193 -1.03215,0.194135 l -0.65682,0.01618 V 73.761483 72.84905 l 0.73771,0.01294 c 0.68271,0.0097 0.74419,0.01618 0.86714,0.08089 z m 0.055,2.002824 c 0.3268,0.11001 0.55005,0.49828 0.55329,0.951261 0,0.401212 -0.16502,0.702121 -0.47887,0.867135 -0.16501,0.08736 -0.16825,0.08736 -0.94802,0.09707 l -0.78625,0.01294 v -0.990087 -0.990088 h 0.75389 c 0.60506,0 0.78625,0.0097 0.90596,0.05177 z"
       inkscape:connector-curvature="0" />
    <path
       style="fill:#000000;stroke:none;stroke-width:0.00323558"
       id="path1010"
       d="m 172.15866,72.703447 c -0.12619,0.08413 -0.22325,0.25561 -0.22325,0.39474 0,0.13913 0.0971,0.310616 0.22325,0.394741 0.22973,0.155308 0.56623,0.06471 0.68918,-0.184428 0.16178,-0.317087 -0.0679,-0.679472 -0.4271,-0.679472 -0.10353,0 -0.18766,0.02265 -0.26208,0.07442 z"
       inkscape:connector-curvature="0" />
    <path
       style="fill:#000000;stroke:none;stroke-width:0.00323558"
       id="path1012"
       d="m 162.4228,73.467043 c -0.0194,0.03883 -0.0324,0.414155 -0.0324,0.986852 v 0.925376 l -0.95774,0.0065 c -0.85419,0.0097 -0.9642,0.01618 -0.99332,0.06471 -0.0259,0.03883 -0.0226,0.06795 0.006,0.103539 0.0388,0.0453 0.16502,0.05177 0.99333,0.05177 h 0.95126 v 0.925376 c 0,0.572697 0.0129,0.948025 0.0324,0.986852 0.0453,0.08089 0.14884,0.08089 0.19414,0 0.0194,-0.03883 0.0324,-0.414155 0.0324,-0.986852 V 75.60579 l 0.95773,-0.0065 c 0.8542,-0.0097 0.96421,-0.01618 0.99333,-0.06471 0.0259,-0.03883 0.0226,-0.06795 -0.006,-0.103539 -0.0388,-0.0453 -0.16502,-0.05177 -0.99333,-0.05177 h -0.95126 v -0.925376 c 0,-0.572697 -0.0129,-0.948025 -0.0324,-0.986852 -0.0194,-0.03235 -0.0615,-0.06148 -0.0971,-0.06148 -0.0356,0 -0.0777,0.02912 -0.0971,0.06148 z"
       inkscape:connector-curvature="0" />
    <path
       style="fill:#000000;stroke:none;stroke-width:0.00323558"
       id="path1020"
       d="m 172.17808,74.185342 c -0.22973,0.0097 -0.43034,0.02265 -0.44328,0.02589 -0.0162,0 -0.0259,0.06795 -0.0259,0.148837 v 0.145601 h 0.18119 c 0.33326,0 0.30414,-0.155308 0.30414,1.630732 0,1.743978 -0.006,1.811925 -0.21031,2.015766 -0.0971,0.09707 -0.12295,0.106774 -0.30414,0.106774 -0.11001,0 -0.19737,-0.0032 -0.19737,-0.0097 0,-0.0032 0.0291,-0.06471 0.0647,-0.135895 0.0776,-0.152072 0.0809,-0.245904 0.0129,-0.388269 -0.0906,-0.194135 -0.35915,-0.265318 -0.55328,-0.145601 -0.14561,0.08736 -0.1812,0.174721 -0.16502,0.381798 0.0129,0.158543 0.0291,0.190899 0.1456,0.300909 0.18443,0.16825 0.42063,0.236197 0.78301,0.216784 0.49828,-0.02912 0.84772,-0.232962 1.02892,-0.601818 l 0.0906,-0.184428 0.01,-1.773098 0.01,-1.769862 -0.15531,0.0065 c -0.0841,0.0032 -0.34297,0.01618 -0.57593,0.02912 z"
       inkscape:connector-curvature="0" />
    <path
       style="fill:#000000;stroke:none;stroke-width:0.00323558"
       id="path1024"
       d="m 122.59605,74.275938 c -0.52093,0.194135 -0.86714,0.705357 -0.90273,1.329824 -0.0162,0.330029 0.0259,0.562991 0.15531,0.834779 0.3818,0.808895 1.37835,1.028915 1.92193,0.427097 0.18766,-0.207077 0.31385,-0.550049 0.20384,-0.550049 -0.0227,0 -0.0777,0.08413 -0.11971,0.184428 -0.15855,0.381799 -0.42387,0.572698 -0.79272,0.575934 -0.18767,0 -0.25238,-0.01294 -0.37533,-0.08736 -0.27826,-0.165015 -0.44651,-0.423861 -0.53063,-0.821837 -0.12619,-0.588876 0.0129,-1.294232 0.31061,-1.591906 0.24591,-0.245904 0.59858,-0.30738 0.92214,-0.155307 0.14237,0.06795 0.40121,0.310615 0.40121,0.381798 0,0.01294 -0.0421,0.02588 -0.0938,0.02588 -0.29443,0 -0.28796,0.420625 0.007,0.44651 0.16178,0.01294 0.24914,-0.07765 0.24914,-0.262082 -0.003,-0.275025 -0.20384,-0.559756 -0.50475,-0.702121 -0.22002,-0.106774 -0.61152,-0.122952 -0.85095,-0.03559 z"
       inkscape:connector-curvature="0" />
    <path
       style="fill:#000000;stroke:none;stroke-width:0.00323558"
       id="path1030"
       d="m 124.74447,74.269467 c -0.29767,0.02589 -0.33973,0.03883 -0.33973,0.122952 0,0.06795 0.0162,0.08089 0.0938,0.08089 0.15207,0 0.29767,0.06795 0.33003,0.152072 0.0162,0.04206 0.0291,0.498279 0.0291,1.009501 0,1.025679 0.0226,1.180987 0.18443,1.336295 0.19737,0.190899 0.59534,0.284731 0.90919,0.216783 0.22002,-0.0453 0.41416,-0.194134 0.55005,-0.417389 l 0.10354,-0.174722 v 0.310616 0.313851 l 0.15531,-0.01294 c 0.0841,-0.0097 0.26532,-0.02265 0.40445,-0.03559 0.23296,-0.01618 0.24914,-0.02265 0.24914,-0.09383 0,-0.06471 -0.0226,-0.07442 -0.16825,-0.09383 -0.30415,-0.04206 -0.28473,0.055 -0.28473,-1.436598 v -1.31041 l -0.33003,0.02265 c -0.44328,0.03236 -0.47887,0.04206 -0.47887,0.135894 0,0.05824 0.0162,0.07765 0.0744,0.07765 0.0388,0 0.12619,0.01618 0.1909,0.03236 0.18119,0.05177 0.19737,0.152072 0.18119,1.067741 -0.0162,0.844486 -0.0388,0.964203 -0.2362,1.232756 -0.15531,0.216784 -0.34297,0.297673 -0.63094,0.281495 -0.25561,-0.01294 -0.36885,-0.07765 -0.45945,-0.25561 -0.0518,-0.100303 -0.0582,-0.232962 -0.0582,-1.349237 v -1.235992 l -0.16825,0.0065 c -0.0938,0.0032 -0.22972,0.0097 -0.30091,0.01618 z"
       inkscape:connector-curvature="0" />
    <path
       style="fill:#000000;stroke:none;stroke-width:0.00323558"
       id="path1032"
       d="m 128.14183,74.269467 c -0.29767,0.02589 -0.33973,0.03883 -0.33973,0.122952 0,0.06795 0.0162,0.08089 0.0938,0.08089 0.15207,0 0.29767,0.06795 0.33003,0.152072 0.0162,0.04206 0.0291,0.562991 0.0291,1.158338 0,0.915669 -0.006,1.087155 -0.0485,1.129217 -0.0259,0.02589 -0.12942,0.05824 -0.22649,0.06795 -0.15854,0.02265 -0.17795,0.03236 -0.17795,0.100303 v 0.07765 h 0.67947 0.67947 v -0.07765 c 0,-0.06795 -0.0162,-0.07765 -0.21031,-0.09383 -0.11648,-0.01294 -0.23944,-0.03559 -0.27179,-0.055 -0.0906,-0.04853 -0.11325,-0.284731 -0.0906,-1.048328 0.0129,-0.540342 0.0259,-0.685943 0.0841,-0.867136 0.13589,-0.420625 0.3915,-0.673 0.68918,-0.673 h 0.12618 l -0.0647,0.08413 c -0.13266,0.171485 -0.0421,0.368856 0.16825,0.368856 0.27826,0 0.29444,-0.362385 0.0226,-0.501515 -0.10677,-0.05501 -0.37533,-0.06471 -0.49828,-0.01618 -0.1456,0.05501 -0.34944,0.271789 -0.44651,0.469159 l -0.0906,0.194135 V 74.593037 74.24683 l -0.15208,0.0065 c -0.0874,0.0032 -0.21355,0.0097 -0.28473,0.01618 z"
       inkscape:connector-curvature="0" />
    <path
       style="fill:#000000;stroke:none;stroke-width:0.00323558"
       id="path1038"
       d="m 140.3335,74.796867 c -0.0874,0.03559 -0.10354,0.177957 -0.0226,0.207077 0.0938,0.03559 3.9927,0.02265 4.06065,-0.01294 0.0906,-0.04853 0.0777,-0.158544 -0.0226,-0.194135 -0.10354,-0.04206 -3.91505,-0.03883 -4.01535,0 z"
       inkscape:connector-curvature="0" />
    <path
       style="fill:#000000;stroke:none;stroke-width:0.00323558"
       id="path1044"
       d="m 149.54519,75.492517 c 0,0.04206 0.50799,0.04853 4.38421,0.04853 3.87623,0 4.38422,-0.0065 4.38422,-0.04853 0,-0.04206 -0.50799,-0.04853 -4.38422,-0.04853 -3.87622,0 -4.38421,0.0065 -4.38421,0.04853 z"
       inkscape:connector-curvature="0" />
    <path
       style="fill:#000000;stroke:none;stroke-width:0.00323558"
       id="path1048"
       d="m 140.31408,75.984325 c -0.0421,0.0097 -0.055,0.03883 -0.0485,0.100303 l 0.01,0.08736 h 2.07077 c 2.019,0 2.07077,0 2.08048,-0.06148 0.0291,-0.148836 0.0162,-0.148836 -2.07725,-0.145601 -1.08715,0.0032 -2.00282,0.0097 -2.03518,0.01941 z"
       inkscape:connector-curvature="0" />
    <path
       style="fill:#000000;stroke:none;stroke-width:0.00323558"
       id="path1056"
       d="m 152.78077,77.013239 c -0.34297,0.09707 -0.6277,0.333265 -0.78624,0.653587 -0.13266,0.265318 -0.1359,0.41739 -0.01,0.501515 0.14237,0.09707 0.42063,-0.05824 0.45945,-0.252375 0.0226,-0.122952 -0.0712,-0.239433 -0.19737,-0.239433 -0.10677,0 -0.10354,-0.02912 0.0324,-0.187664 0.15854,-0.181192 0.46916,-0.333264 0.73448,-0.352678 0.76359,-0.06148 1.19069,0.617996 1.02567,1.640439 -0.0518,0.323558 -0.12942,0.647116 -0.1553,0.647116 -0.0129,0 -0.0388,-0.06148 -0.0582,-0.13913 -0.055,-0.207077 -0.21032,-0.397976 -0.40445,-0.495043 -0.13913,-0.07118 -0.21679,-0.08736 -0.41416,-0.0906 -0.75065,-0.0065 -1.50778,0.58564 -1.80545,1.410713 -0.0712,0.194135 -0.0841,0.294438 -0.0874,0.559756 0,0.297673 0.01,0.339735 0.10354,0.540341 0.22649,0.478866 0.64064,0.708592 1.19393,0.663294 0.72153,-0.06148 1.33953,-0.627702 1.75368,-1.601612 0.31062,-0.731241 0.44328,-1.611319 0.31709,-2.109598 -0.13266,-0.530635 -0.45945,-0.954496 -0.85096,-1.100097 -0.2459,-0.09383 -0.61476,-0.113245 -0.85096,-0.04853 z m 0.67624,1.951055 c 0.0647,0.04853 0.15854,0.174721 0.21031,0.27826 0.0841,0.165014 0.0938,0.220019 0.0938,0.465923 -0.003,0.462688 -0.19413,0.996559 -0.51122,1.44954 -0.25237,0.352678 -0.56622,0.530635 -0.93832,0.530635 -0.37532,-0.0032 -0.59534,-0.148836 -0.69565,-0.465923 -0.0906,-0.281496 0.0679,-1.164809 0.28797,-1.598377 0.12619,-0.24914 0.40445,-0.550048 0.618,-0.666529 0.30738,-0.16825 0.72153,-0.165015 0.93508,0.0065 z"
       inkscape:connector-curvature="0" />
    <g
       id="g1976"
       transform="translate(11.85847,-2.6442285)">
      <path
         inkscape:connector-curvature="0"
         d="m 136.02364,76.729272 c -0.055,0.03236 -0.15208,0.07118 -0.22002,0.08089 -0.068,0.01294 -0.12296,0.03559 -0.12296,0.055 0,0.03559 0.15531,0.01941 0.26856,-0.02265 0.0518,-0.02265 0.055,0.02265 0.0485,0.763596 l -0.01,0.789482 -0.15207,0.0097 c -0.0874,0.0065 -0.15531,0.02265 -0.15531,0.04206 0,0.01618 0.17149,0.02912 0.40445,0.02912 0.23296,0 0.40445,-0.01294 0.40445,-0.02912 0,-0.01941 -0.0679,-0.03559 -0.15207,-0.04206 l -0.15531,-0.0097 -0.01,-0.867136 c -0.003,-0.47563 -0.0194,-0.863899 -0.0323,-0.863899 -0.013,0 -0.0647,0.02912 -0.11648,0.06471 z"
         id="path1018"
         style="fill:#3f3f3f;fill-opacity:1;stroke:none;stroke-width:0.00323558" />
      <path
         inkscape:connector-curvature="0"
         d="m 134.90412,78.961822 c 0,0.01941 0.27503,0.03236 0.7636,0.03236 h 0.76683 l -0.0809,0.06471 c -0.16177,0.122952 -0.21354,0.436803 -0.0744,0.436803 0.0938,0 0.11001,-0.145601 0.0194,-0.16825 -0.0615,-0.01618 -0.0615,-0.02265 -0.0194,-0.11001 0.0485,-0.08736 0.19413,-0.190899 0.27502,-0.190899 0.0874,0 0.25238,0.106774 0.28797,0.181192 0.0485,0.11001 0.0453,0.317087 -0.01,0.446511 -0.0226,0.05824 -0.18119,0.265317 -0.35268,0.459452 -0.16825,0.194135 -0.30091,0.362385 -0.2912,0.375327 0.006,0.01618 0.19413,0.02589 0.41092,0.02589 h 0.39797 l 0.0226,-0.122952 c 0.0291,-0.190899 0.0194,-0.268553 -0.0194,-0.152072 -0.0194,0.05177 -0.0518,0.106774 -0.0712,0.119716 -0.0485,0.03236 -0.60182,0.03236 -0.60182,0 0,-0.01294 0.13913,-0.161779 0.31062,-0.330029 0.35267,-0.349443 0.40121,-0.427097 0.40121,-0.621232 -0.003,-0.16825 -0.055,-0.268553 -0.1812,-0.352678 l -0.0938,-0.06148 h 0.22002 c 0.12295,0 0.21679,-0.01294 0.21679,-0.03236 0,-0.01941 -0.40445,-0.03235 -1.14863,-0.03235 -0.74419,0 -1.14864,0.01294 -1.14864,0.03235 z"
         id="path1050"
         style="fill:#3f3f3f;fill-opacity:1;stroke:none;stroke-width:0.00323558" />
      <path
         inkscape:connector-curvature="0"
         d="m 135.50271,80.155751 c -0.14884,0.06795 -0.35915,0.284731 -0.42386,0.443275 -0.10354,0.24914 -0.0388,0.553284 0.15207,0.685943 0.16501,0.116481 0.59211,0.02265 0.7733,-0.171486 0.11972,-0.129423 0.0485,-0.132659 -0.0971,-0.0065 -0.11971,0.100303 -0.33002,0.184428 -0.46592,0.184428 -0.0259,0 -0.0874,-0.03236 -0.13266,-0.07442 -0.0744,-0.06148 -0.0874,-0.100303 -0.0874,-0.239433 0.003,-0.275025 0.0938,-0.524164 0.24914,-0.682708 0.11972,-0.119716 0.15531,-0.135894 0.2815,-0.135894 0.17795,0 0.26208,0.07118 0.1553,0.129423 -0.0841,0.0453 -0.0776,0.171486 0.01,0.187664 0.15854,0.03236 0.21031,-0.203842 0.068,-0.313851 -0.10678,-0.08413 -0.30415,-0.08736 -0.4821,-0.0065 z"
         id="path1058"
         style="fill:#3f3f3f;fill-opacity:1;stroke:none;stroke-width:0.00323558" />
    </g>
    <g
       id="g1983"
       transform="translate(11.85847,-2.6442285)">
      <path
         inkscape:connector-curvature="0"
         d="m 158.06117,76.590142 c -0.0453,0.04206 -0.0194,0.07442 0.055,0.07442 0.0453,0 0.0874,0.01294 0.0971,0.02588 0.006,0.01294 -0.0841,0.414154 -0.20384,0.886549 -0.12295,0.472395 -0.21031,0.876842 -0.19737,0.899491 0.0129,0.02265 0.0518,0.03236 0.0841,0.02589 0.0453,-0.0065 0.0777,-0.08089 0.13589,-0.326794 0.0712,-0.281495 0.0874,-0.313851 0.15207,-0.313851 0.0388,0 0.11001,0.02912 0.15855,0.06795 0.0744,0.05824 0.0841,0.0906 0.0841,0.252376 0,0.152072 0.0129,0.19737 0.0744,0.25561 0.0874,0.08413 0.20708,0.0906 0.30414,0.02265 0.068,-0.04853 0.19414,-0.35915 0.15855,-0.394741 -0.01,-0.0097 -0.0324,0.02265 -0.0518,0.07442 -0.0809,0.236197 -0.17149,0.333265 -0.27503,0.291202 -0.0485,-0.01618 -0.055,-0.04853 -0.0388,-0.210312 0.0259,-0.229727 -0.0388,-0.336501 -0.2362,-0.394741 l -0.12619,-0.03883 0.22973,-0.22002 c 0.13266,-0.126187 0.27179,-0.229726 0.32356,-0.242668 0.11648,-0.02265 0.1553,0.0065 0.0777,0.06148 -0.0777,0.05501 -0.055,0.165015 0.0356,0.177957 0.0841,0.01294 0.15207,-0.09383 0.12295,-0.190899 -0.0129,-0.03559 -0.0582,-0.07765 -0.1003,-0.09707 -0.12295,-0.0453 -0.28797,0.04206 -0.53387,0.27826 -0.11972,0.116481 -0.22326,0.210313 -0.23296,0.210313 -0.01,0 0.0485,-0.252375 0.12619,-0.559756 0.0777,-0.304144 0.14236,-0.575933 0.14236,-0.598582 0,-0.04206 -0.32679,-0.05824 -0.36562,-0.01618 z"
         id="path1014"
         style="fill:#3f3f3f;fill-opacity:1;stroke:none;stroke-width:0.00323558" />
      <path
         inkscape:connector-curvature="0"
         d="m 155.18474,77.289028 c -0.22973,0.362385 -0.41415,0.673 -0.41415,0.695649 0,0.02912 0.1003,0.03883 0.35591,0.03883 h 0.35915 l -0.01,0.184428 c -0.01,0.184428 -0.01,0.187664 -0.11324,0.197371 -0.0582,0.0065 -0.10678,0.02265 -0.10678,0.04206 0,0.01618 0.1456,0.02912 0.32356,0.02912 0.19414,0 0.32356,-0.01294 0.32356,-0.03235 0,-0.01941 -0.0421,-0.03236 -0.0906,-0.03236 -0.12942,0 -0.16825,-0.05501 -0.16825,-0.232962 v -0.155308 h 0.1456 c 0.10678,0 0.1456,-0.01294 0.1456,-0.04853 0,-0.03559 -0.0388,-0.04853 -0.1456,-0.04853 h -0.1456 V 77.27933 c 0,-0.355914 -0.01,-0.647116 -0.0226,-0.647116 -0.0162,0 -0.21031,0.294438 -0.4368,0.656823 z m 0.32032,0.627702 c -0.01,0.0065 -0.15854,0.0065 -0.3365,0.0032 l -0.32356,-0.0097 0.3268,-0.517693 0.32679,-0.517693 0.01,0.514458 c 0.003,0.281495 0.003,0.520928 -0.003,0.527399 z"
         id="path1016"
         style="fill:#3f3f3f;fill-opacity:1;stroke:none;stroke-width:0.00323558" />
      <path
         inkscape:connector-curvature="0"
         d="m 156.33337,77.344032 c -0.10354,0.06148 -0.29444,0.310616 -0.26208,0.339736 0.01,0.0097 0.0744,-0.04206 0.1456,-0.113245 0.11648,-0.113245 0.14884,-0.129423 0.2815,-0.129423 0.14236,0 0.15207,0.0032 0.13265,0.07118 -0.0518,0.171485 -0.25561,0.698885 -0.31385,0.81213 -0.0647,0.132659 -0.055,0.184428 0.0356,0.184428 0.0841,0 0.0938,-0.02588 0.33003,-0.948025 0.0324,-0.116481 0.0324,-0.119716 0.1909,-0.119716 0.0906,0 0.16178,0.0032 0.16178,0.0065 0,0.0065 -0.0226,0.0906 -0.0485,0.187664 -0.0615,0.232961 -0.0906,0.637409 -0.055,0.760361 0.0194,0.07442 0.0453,0.09707 0.10678,0.09707 0.0874,0 0.0906,-0.03883 0.0291,-0.339736 -0.0356,-0.16825 -0.0259,-0.543577 0.0194,-0.660058 0.0129,-0.03559 0.0744,-0.05177 0.21678,-0.05824 0.17473,-0.0097 0.20061,-0.01618 0.20061,-0.07442 0,-0.06148 -0.0259,-0.06471 -0.53387,-0.07442 -0.4821,-0.0065 -0.54358,0 -0.63741,0.05824 z"
         id="path1034"
         style="fill:#3f3f3f;fill-opacity:1;stroke:none;stroke-width:0.00323558" />
      <path
         inkscape:connector-curvature="0"
         d="m 154.72205,78.961822 c -0.0129,0.02265 0.42063,0.03236 1.27806,0.03236 h 1.3007 l -0.0971,0.0906 c -0.15531,0.145602 -0.1909,0.410919 -0.055,0.410919 0.0841,0 0.10354,-0.113245 0.0291,-0.16825 -0.0777,-0.05824 -0.0194,-0.181193 0.11971,-0.255611 0.0874,-0.04206 0.12619,-0.0453 0.22649,-0.01618 0.15531,0.0453 0.22973,0.165015 0.22973,0.35915 0,0.200606 -0.055,0.297673 -0.39474,0.692414 -0.16178,0.184428 -0.2912,0.352678 -0.2912,0.372091 0,0.02265 0.13266,0.03559 0.40121,0.03559 h 0.40121 l 0.0194,-0.100303 c 0.01,-0.055 0.0194,-0.13913 0.0162,-0.187664 -0.003,-0.07765 -0.003,-0.07765 -0.0324,0.01941 -0.0388,0.129423 -0.0906,0.145601 -0.43034,0.132658 l -0.25237,-0.0097 0.32032,-0.339736 c 0.37209,-0.391505 0.40445,-0.440039 0.40445,-0.630938 0,-0.158544 -0.0712,-0.287967 -0.19737,-0.355914 -0.0744,-0.04206 0,-0.0453 0.66976,-0.04853 0.47887,0 0.75066,-0.01294 0.75066,-0.03236 0,-0.02265 -0.75389,-0.03235 -2.19696,-0.03235 -1.43336,0 -2.20667,0.0097 -2.21961,0.03235 z"
         id="path1052"
         style="fill:#3f3f3f;fill-opacity:1;stroke:none;stroke-width:0.00323558" />
      <path
         inkscape:connector-curvature="0"
         d="m 156.38838,80.146045 c -0.49828,0.213548 -0.65683,0.960967 -0.24591,1.148631 0.16178,0.07442 0.1909,0.07442 0.39474,0.01294 0.16502,-0.04853 0.43681,-0.24914 0.39474,-0.291202 -0.0129,-0.01294 -0.0809,0.02588 -0.15207,0.08736 -0.22649,0.1909 -0.47563,0.236198 -0.60182,0.106775 -0.10354,-0.100303 -0.10677,-0.310616 -0.0162,-0.60829 0.0874,-0.278259 0.25884,-0.443274 0.46268,-0.443274 0.0744,0 0.15855,0.01618 0.18443,0.03236 0.0388,0.02588 0.0356,0.03883 -0.0259,0.09707 -0.0841,0.08089 -0.0841,0.171486 0.003,0.187664 0.0841,0.01618 0.15207,-0.05177 0.15207,-0.155308 0,-0.19737 -0.28796,-0.287967 -0.55004,-0.174721 z"
         id="path1060"
         style="fill:#3f3f3f;fill-opacity:1;stroke:none;stroke-width:0.00323558" />
    </g>
    <path
       style="fill:#000000;stroke:none;stroke-width:0.00323558"
       id="path1064"
       d="m 156.02282,77.602115 c -0.0744,0.02912 -0.13589,0.19737 -0.25237,0.682707 -0.0615,0.262082 -0.11972,0.501515 -0.12942,0.530635 -0.0129,0.04853 -0.0712,0.05824 -0.41092,0.06471 -0.35592,0.0097 -0.39474,0.01618 -0.40445,0.07118 -0.0194,0.09383 0.0518,0.11648 0.40768,0.11648 0.1812,0 0.33003,0.0065 0.33003,0.01618 0,0.0065 -0.11001,0.456217 -0.2459,0.993323 -0.1359,0.540342 -0.24591,1.054799 -0.24591,1.14216 -0.003,0.187664 0.0615,0.330029 0.19737,0.44651 0.29121,0.242669 0.66977,0.174721 1.01274,-0.181192 0.18766,-0.197371 0.44651,-0.682708 0.39151,-0.737713 -0.055,-0.055 -0.0971,-0.01294 -0.20061,0.197371 -0.20708,0.41739 -0.42386,0.640645 -0.68594,0.711827 -0.12619,0.03559 -0.23944,0.0065 -0.29444,-0.07765 -0.0679,-0.09707 -0.0129,-0.42386 0.23943,-1.436597 l 0.26856,-1.074213 h 0.36238 c 0.28797,0 0.37209,-0.0097 0.41415,-0.05177 0.10031,-0.103538 0.0388,-0.126188 -0.35267,-0.135894 -0.33974,-0.0065 -0.37857,-0.01294 -0.36239,-0.06471 0.0744,-0.249139 0.24591,-0.993323 0.24591,-1.064506 0,-0.05177 -0.0162,-0.110009 -0.0388,-0.132658 -0.0388,-0.03883 -0.16825,-0.04853 -0.24591,-0.01618 z"
       inkscape:connector-curvature="0" />
    <text
       xml:space="preserve"
       style="font-style:normal;font-variant:normal;font-weight:normal;font-stretch:normal;font-size:3.52777767px;line-height:1.25;font-family:cmr10;-inkscape-font-specification:cmr10;font-variant-ligatures:normal;font-variant-position:normal;font-variant-caps:normal;font-variant-numeric:normal;font-variant-alternates:normal;font-feature-settings:normal;text-indent:0;text-align:start;text-decoration:none;text-decoration-line:none;text-decoration-style:solid;text-decoration-color:#000000;letter-spacing:0px;word-spacing:0px;text-transform:none;writing-mode:lr-tb;direction:ltr;text-orientation:mixed;dominant-baseline:auto;baseline-shift:baseline;text-anchor:start;white-space:normal;shape-padding:0;opacity:1;vector-effect:none;fill:#000000;fill-opacity:1;stroke:none;stroke-width:0.26458332;stroke-linecap:butt;stroke-linejoin:miter;stroke-miterlimit:4;stroke-dasharray:none;stroke-dashoffset:0;stroke-opacity:1"
       x="94.471451"
       y="89.769859"
       id="text900"><tspan
         sodipodi:role="line"
         id="tspan898"
         x="94.471451"
         y="89.769859"
         style="font-style:normal;font-variant:normal;font-weight:normal;font-stretch:normal;font-family:cmr10;-inkscape-font-specification:cmr10;stroke-width:0.26458332">E = electric field</tspan><tspan
         sodipodi:role="line"
         x="94.471451"
         y="94.179581"
         style="font-style:normal;font-variant:normal;font-weight:normal;font-stretch:normal;font-family:cmr10;-inkscape-font-specification:cmr10;stroke-width:0.26458332"
         id="tspan904">B = magnetic field</tspan><tspan
         sodipodi:role="line"
         x="94.471451"
         y="98.589302"
         style="font-style:normal;font-variant:normal;font-weight:normal;font-stretch:normal;font-family:cmr10;-inkscape-font-specification:cmr10;stroke-width:0.26458332"
         id="tspan908" /></text>
    <text
       xml:space="preserve"
       style="font-style:normal;font-variant:normal;font-weight:normal;font-stretch:normal;font-size:3.52777767px;line-height:1.25;font-family:cmr10;-inkscape-font-specification:cmr10;font-variant-ligatures:normal;font-variant-position:normal;font-variant-caps:normal;font-variant-numeric:normal;font-variant-alternates:normal;font-feature-settings:normal;text-indent:0;text-align:start;text-decoration:none;text-decoration-line:none;text-decoration-style:solid;text-decoration-color:#000000;letter-spacing:0px;word-spacing:0px;text-transform:none;writing-mode:lr-tb;direction:ltr;text-orientation:mixed;dominant-baseline:auto;baseline-shift:baseline;text-anchor:start;white-space:normal;shape-padding:0;opacity:1;vector-effect:none;fill:#000000;fill-opacity:1;stroke:none;stroke-width:0.26458332;stroke-linecap:butt;stroke-linejoin:miter;stroke-miterlimit:4;stroke-dasharray:none;stroke-dashoffset:0;stroke-opacity:1"
       x="129.32095"
       y="89.746742"
       id="text912"><tspan
         sodipodi:role="line"
         id="tspan910"
         x="129.32095"
         y="89.746742"
         style="font-style:normal;font-variant:normal;font-weight:normal;font-stretch:normal;font-family:cmr10;-inkscape-font-specification:cmr10;stroke-width:0.26458332"> = density of electric charge</tspan><tspan
         sodipodi:role="line"
         x="129.32095"
         y="94.206146"
         style="font-style:normal;font-variant:normal;font-weight:normal;font-stretch:normal;font-family:cmr10;-inkscape-font-specification:cmr10;stroke-width:0.26458332"
         id="tspan914">j = density of electric current</tspan></text>
    <path
       inkscape:connector-curvature="0"
       style="fill:none;stroke:#000000;stroke-width:0.17638889;stroke-miterlimit:4;stroke-dasharray:none"
       d="m 94.778602,97.105768 c 1.349547,2.881775 13.494888,0.443467 14.338518,1.995088"
       id="path957" />
    <path
       inkscape:connector-curvature="0"
       style="fill:none;stroke:#000000;stroke-width:0.17638889;stroke-miterlimit:4;stroke-dasharray:none"
       d="m 123.45561,97.105768 c -1.34955,2.881775 -13.49487,0.443467 -14.33849,1.995088"
       id="path959" />
    <path
       inkscape:connector-curvature="0"
       style="fill:none;stroke:#000000;stroke-width:0.17638889;stroke-miterlimit:4;stroke-dasharray:none"
       d="m 129.27834,97.127718 c 2.14337,2.817985 21.43278,0.433657 22.77264,1.950928"
       id="path957-6" />
    <path
       inkscape:connector-curvature="0"
       style="fill:none;stroke:#000000;stroke-width:0.17638889;stroke-miterlimit:4;stroke-dasharray:none"
       d="m 174.82363,97.127718 c -2.14338,2.817985 -21.43279,0.433657 -22.77265,1.950928"
       id="path959-7" />
    <text
       xml:space="preserve"
       style="font-style:normal;font-variant:normal;font-weight:normal;font-stretch:normal;font-size:3.52777767px;line-height:1.25;font-family:cmr10;-inkscape-font-specification:cmr10;font-variant-ligatures:normal;font-variant-position:normal;font-variant-caps:normal;font-variant-numeric:normal;font-variant-alternates:normal;font-feature-settings:normal;text-indent:0;text-align:start;text-decoration:none;text-decoration-line:none;text-decoration-style:solid;text-decoration-color:#000000;letter-spacing:0px;word-spacing:0px;text-transform:none;writing-mode:lr-tb;direction:ltr;text-orientation:mixed;dominant-baseline:auto;baseline-shift:baseline;text-anchor:start;white-space:normal;shape-padding:0;opacity:1;vector-effect:none;fill:#000000;fill-opacity:1;stroke:none;stroke-width:0.26458332;stroke-linecap:butt;stroke-linejoin:miter;stroke-miterlimit:4;stroke-dasharray:none;stroke-dashoffset:0;stroke-opacity:1"
       x="96.892899"
       y="103.21262"
       id="text927"><tspan
         sodipodi:role="line"
         id="tspan925"
         x="96.892899"
         y="103.21262"
         style="stroke-width:0.26458332">fields of force</tspan></text>
    <text
       xml:space="preserve"
       style="font-style:normal;font-variant:normal;font-weight:normal;font-stretch:normal;font-size:3.52777767px;line-height:1.25;font-family:cmr10;-inkscape-font-specification:cmr10;font-variant-ligatures:normal;font-variant-position:normal;font-variant-caps:normal;font-variant-numeric:normal;font-variant-alternates:normal;font-feature-settings:normal;text-indent:0;text-align:start;text-decoration:none;text-decoration-line:none;text-decoration-style:solid;text-decoration-color:#000000;letter-spacing:0px;word-spacing:0px;text-transform:none;writing-mode:lr-tb;direction:ltr;text-orientation:mixed;dominant-baseline:auto;baseline-shift:baseline;text-anchor:start;white-space:normal;shape-padding:0;opacity:1;vector-effect:none;fill:#000000;fill-opacity:1;stroke:none;stroke-width:0.26458332;stroke-linecap:butt;stroke-linejoin:miter;stroke-miterlimit:4;stroke-dasharray:none;stroke-dashoffset:0;stroke-opacity:1"
       x="136.57484"
       y="102.8905"
       id="text931"><tspan
         sodipodi:role="line"
         id="tspan929"
         x="136.57484"
         y="102.8905"
         style="stroke-width:0.26458332">properties of matter</tspan></text>
    <g
       id="g1307"
       transform="translate(11.85847,-12.432589)">
      <rect
         y="123.88713"
         x="35.578293"
         height="15.407433"
         width="58.874355"
         id="rect989-3-5-5"
         style="fill:#dedede;fill-opacity:1;stroke:none;stroke-width:0.25031403;stroke-miterlimit:4;stroke-dasharray:1.00125612, 1.00125612;stroke-dashoffset:0;stroke-opacity:1" />
      <rect
         y="144.31209"
         x="35.254791"
         height="21.279079"
         width="58.874355"
         id="rect989-7-3-6"
         style="fill:#dedede;fill-opacity:1;stroke:none;stroke-width:0.29416871;stroke-miterlimit:4;stroke-dasharray:1.1766748, 1.1766748;stroke-dashoffset:0;stroke-opacity:1" />
      <rect
         y="123.88713"
         x="105.48813"
         height="15.407433"
         width="58.874352"
         id="rect989-3-2"
         style="fill:#dedede;fill-opacity:1;stroke:none;stroke-width:0.25031403;stroke-miterlimit:4;stroke-dasharray:1.00125611, 1.00125611;stroke-dashoffset:0;stroke-opacity:1" />
      <rect
         y="144.31209"
         x="105.16462"
         height="21.279079"
         width="58.874352"
         id="rect989-7-9"
         style="fill:#dedede;fill-opacity:1;stroke:none;stroke-width:0.29416871;stroke-miterlimit:4;stroke-dasharray:1.17667479, 1.17667479;stroke-dashoffset:0;stroke-opacity:1" />
      <text
         id="text977"
         y="130.07771"
         x="44.62434"
         style="font-style:normal;font-variant:normal;font-weight:normal;font-stretch:normal;font-size:3.52777767px;line-height:1.25;font-family:cmr10;-inkscape-font-specification:cmr10;font-variant-ligatures:normal;font-variant-position:normal;font-variant-caps:normal;font-variant-numeric:normal;font-variant-alternates:normal;font-feature-settings:normal;text-indent:0;text-align:start;text-decoration:none;text-decoration-line:none;text-decoration-style:solid;text-decoration-color:#000000;letter-spacing:0px;word-spacing:0px;text-transform:none;writing-mode:lr-tb;direction:ltr;text-orientation:mixed;dominant-baseline:auto;baseline-shift:baseline;text-anchor:start;white-space:normal;shape-padding:0;opacity:1;vector-effect:none;fill:#000000;fill-opacity:1;stroke:none;stroke-width:0.26458332;stroke-linecap:butt;stroke-linejoin:miter;stroke-miterlimit:4;stroke-dasharray:none;stroke-dashoffset:0;stroke-opacity:1"
         xml:space="preserve"><tspan
           id="tspan979"
           style="stroke-width:0.26458332"
           y="130.07771"
           x="44.62434"
           sodipodi:role="line">A charge creates an electric</tspan><tspan
           id="tspan983"
           style="stroke-width:0.26458332"
           y="134.48744"
           x="44.62434"
           sodipodi:role="line">field that diverges from it.</tspan></text>
      <text
         id="text987"
         y="130.05873"
         x="114.45633"
         style="font-style:normal;font-variant:normal;font-weight:normal;font-stretch:normal;font-size:3.52777767px;line-height:1.25;font-family:cmr10;-inkscape-font-specification:cmr10;font-variant-ligatures:normal;font-variant-position:normal;font-variant-caps:normal;font-variant-numeric:normal;font-variant-alternates:normal;font-feature-settings:normal;text-indent:0;text-align:start;text-decoration:none;text-decoration-line:none;text-decoration-style:solid;text-decoration-color:#000000;letter-spacing:0px;word-spacing:0px;text-transform:none;writing-mode:lr-tb;direction:ltr;text-orientation:mixed;dominant-baseline:auto;baseline-shift:baseline;text-anchor:start;white-space:normal;shape-padding:0;opacity:1;vector-effect:none;fill:#000000;fill-opacity:1;stroke:none;stroke-width:0.26458332;stroke-linecap:butt;stroke-linejoin:miter;stroke-miterlimit:4;stroke-dasharray:none;stroke-dashoffset:0;stroke-opacity:1"
         xml:space="preserve"><tspan
           style="stroke-width:0.26458332"
           y="130.05873"
           x="114.45633"
           id="tspan985"
           sodipodi:role="line">Magnetic field patterns</tspan><tspan
           id="tspan989"
           style="stroke-width:0.26458332"
           y="134.46846"
           x="114.45633"
           sodipodi:role="line">never diverge.</tspan></text>
      <text
         id="text993"
         y="153.64766"
         x="43.943047"
         style="font-style:normal;font-variant:normal;font-weight:normal;font-stretch:normal;font-size:3.52777767px;line-height:1.25;font-family:cmr10;-inkscape-font-specification:cmr10;font-variant-ligatures:normal;font-variant-position:normal;font-variant-caps:normal;font-variant-numeric:normal;font-variant-alternates:normal;font-feature-settings:normal;text-indent:0;text-align:start;text-decoration:none;text-decoration-line:none;text-decoration-style:solid;text-decoration-color:#000000;letter-spacing:0px;word-spacing:0px;text-transform:none;writing-mode:lr-tb;direction:ltr;text-orientation:mixed;dominant-baseline:auto;baseline-shift:baseline;text-anchor:start;white-space:normal;shape-padding:0;opacity:1;vector-effect:none;fill:#000000;fill-opacity:1;stroke:none;stroke-width:0.26458332;stroke-linecap:butt;stroke-linejoin:miter;stroke-miterlimit:4;stroke-dasharray:none;stroke-dashoffset:0;stroke-opacity:1"
         xml:space="preserve"><tspan
           style="stroke-width:0.26458332"
           y="153.64766"
           x="43.943047"
           id="tspan991"
           sodipodi:role="line">A changing magnetic field</tspan><tspan
           id="tspan995"
           style="stroke-width:0.26458332"
           y="158.05739"
           x="43.943047"
           sodipodi:role="line">induces a curly electric field.</tspan></text>
      <text
         id="text999"
         y="149.23622"
         x="112.07181"
         style="font-style:normal;font-variant:normal;font-weight:normal;font-stretch:normal;font-size:3.52777767px;line-height:1.25;font-family:cmr10;-inkscape-font-specification:cmr10;font-variant-ligatures:normal;font-variant-position:normal;font-variant-caps:normal;font-variant-numeric:normal;font-variant-alternates:normal;font-feature-settings:normal;text-indent:0;text-align:start;text-decoration:none;text-decoration-line:none;text-decoration-style:solid;text-decoration-color:#000000;letter-spacing:0px;word-spacing:0px;text-transform:none;writing-mode:lr-tb;direction:ltr;text-orientation:mixed;dominant-baseline:auto;baseline-shift:baseline;text-anchor:start;white-space:normal;shape-padding:0;opacity:1;vector-effect:none;fill:#000000;fill-opacity:1;stroke:none;stroke-width:0.26458332;stroke-linecap:butt;stroke-linejoin:miter;stroke-miterlimit:4;stroke-dasharray:none;stroke-dashoffset:0;stroke-opacity:1"
         xml:space="preserve"><tspan
           style="stroke-width:0.26458332"
           y="149.23622"
           x="112.07181"
           id="tspan997"
           sodipodi:role="line">A changing electric field</tspan><tspan
           id="tspan1001"
           style="stroke-width:0.26458332"
           y="153.64595"
           x="112.07181"
           sodipodi:role="line">induces a curly magnetic field.</tspan><tspan
           id="tspan1003"
           style="stroke-width:0.26458332"
           y="158.05566"
           x="112.07181"
           sodipodi:role="line">A current creates a curly</tspan><tspan
           id="tspan1005"
           style="stroke-width:0.26458332"
           y="162.46539"
           x="112.07181"
           sodipodi:role="line">magnetic field.</tspan></text>
    </g>
    <g
       id="g1539"
       transform="translate(16.395339,-25.654562)">
      <g
         transform="translate(0,-2.3528347)"
         id="g1375">
        <path
           style="fill:#ffffff;fill-opacity:1;stroke:#000000;stroke-width:0.24694444;stroke-miterlimit:4;stroke-dasharray:none;stroke-dashoffset:0;stroke-opacity:1"
           d="m 70.871723,206.19495 v 0.97369 h -2.799398 v 3.40804 h 2.799398 v 0.97369 l 3.322958,-2.82251 z"
           id="rect1309"
           inkscape:connector-curvature="0" />
        <circle
           style="fill:url(#radialGradient1355);fill-opacity:1;stroke:#000000;stroke-width:0.24694444;stroke-miterlimit:4;stroke-dasharray:none;stroke-dashoffset:0;stroke-opacity:1"
           id="path1347"
           cx="60.948902"
           cy="208.88141"
           r="3.2779827" />
        <path
           style="fill:#ffffff;fill-opacity:1;stroke:#000000;stroke-width:0.24694444;stroke-miterlimit:4;stroke-dasharray:none;stroke-dashoffset:0;stroke-opacity:1"
           d="m 51.026077,211.56788 v -0.97369 h 2.7994 v -3.40804 h -2.7994 v -0.97369 l -3.32296,2.82251 z"
           id="rect1309-7"
           inkscape:connector-curvature="0" />
      </g>
      <path
         inkscape:connector-curvature="0"
         id="rect1309-0"
         d="m 58.262443,196.60575 h 0.97369 v 2.7994 h 3.40804 v -2.7994 h 0.97369 l -2.82251,-3.32296 z"
         style="fill:#ffffff;fill-opacity:1;stroke:#000000;stroke-width:0.24694444;stroke-miterlimit:4;stroke-dasharray:none;stroke-dashoffset:0;stroke-opacity:1" />
      <path
         inkscape:connector-curvature="0"
         id="rect1309-7-2"
         d="m 63.635373,216.4514 h -0.97369 v -2.7994 h -3.40804 v 2.7994 h -0.97369 l 2.82251,3.32296 z"
         style="fill:#ffffff;fill-opacity:1;stroke:#000000;stroke-width:0.24694444;stroke-miterlimit:4;stroke-dasharray:none;stroke-dashoffset:0;stroke-opacity:1" />
    </g>
    <text
       xml:space="preserve"
       style="font-style:normal;font-variant:normal;font-weight:normal;font-stretch:normal;font-size:5.64444447px;line-height:1.25;font-family:cmr10;-inkscape-font-specification:cmr10;font-variant-ligatures:normal;font-variant-position:normal;font-variant-caps:normal;font-variant-numeric:normal;font-variant-alternates:normal;font-feature-settings:normal;text-indent:0;text-align:start;text-decoration:none;text-decoration-line:none;text-decoration-style:solid;text-decoration-color:#000000;letter-spacing:0px;word-spacing:0px;text-transform:none;writing-mode:lr-tb;direction:ltr;text-orientation:mixed;dominant-baseline:auto;baseline-shift:baseline;text-anchor:start;white-space:normal;shape-padding:0;opacity:1;vector-effect:none;fill:#000000;fill-opacity:1;stroke:none;stroke-width:0.26458332;stroke-linecap:butt;stroke-linejoin:miter;stroke-miterlimit:4;stroke-dasharray:none;stroke-dashoffset:0;stroke-opacity:1"
       x="30.238935"
       y="160.09401"
       id="text1038-9-5-1"><tspan
         sodipodi:role="line"
         id="tspan1036-0-3-8"
         x="30.238935"
         y="160.09401"
         style="font-style:normal;font-variant:normal;font-weight:normal;font-stretch:normal;font-size:5.64444447px;font-family:cmr10;-inkscape-font-specification:cmr10;stroke-width:0.26458332">In pictures:</tspan></text>
    <path
       style="fill:#444444;fill-opacity:1;stroke:#000000;stroke-width:0.24694444;stroke-miterlimit:4;stroke-dasharray:none;stroke-dashoffset:0;stroke-opacity:1"
       d="m 157.38217,221.87527 0.88005,5.6e-4 -0.004,5.99653 3.61323,0.002 0.004,-5.99655 0.86247,5e-4 -2.82052,-3.32505 z"
       id="rect1309-2-3-1-8-6"
       inkscape:connector-curvature="0" />
    <path
       style="fill:#444444;fill-opacity:1;stroke:#000000;stroke-width:0.24694444;stroke-miterlimit:4;stroke-dasharray:none;stroke-dashoffset:0;stroke-opacity:1"
       d="m 143.41851,213.37535 5.6e-4,-0.88005 5.99653,0.004 0.002,-3.61322 -5.99655,-0.004 5e-4,-0.86248 -3.32506,2.82052 z"
       id="rect1309-2-3-1-8-6-3"
       inkscape:connector-curvature="0" />
    <path
       style="fill:#444444;fill-opacity:1;stroke:#000000;stroke-width:0.24694444;stroke-miterlimit:4;stroke-dasharray:none;stroke-dashoffset:0;stroke-opacity:1"
       d="m 133.66408,224.47901 -0.88005,-5.5e-4 0.004,-5.99653 -3.61322,-0.002 -0.004,5.99655 -0.86248,-5.1e-4 2.82052,3.32507 z"
       id="rect1309-2-3-1-8-6-3-2"
       inkscape:connector-curvature="0" />
    <path
       style="fill:#444444;fill-opacity:1;stroke:#000000;stroke-width:0.24694444;stroke-miterlimit:4;stroke-dasharray:none;stroke-dashoffset:0;stroke-opacity:1"
       d="m 146.02225,235.98223 -5.5e-4,0.88005 -5.99653,-0.004 -0.002,3.61322 5.99655,0.004 -5.1e-4,0.86248 3.32507,-2.82052 z"
       id="rect1309-2-3-1-8-6-3-2-0"
       inkscape:connector-curvature="0" />
    <path
       style="opacity:1;vector-effect:none;fill:#ffffff;fill-opacity:1;stroke:#000000;stroke-width:0.24694444;stroke-linecap:butt;stroke-linejoin:miter;stroke-miterlimit:4;stroke-dasharray:none;stroke-dashoffset:0;stroke-opacity:1"
       d="m 151.757,220.14385 -9.74364,2.55632 -0.33343,-0.88916 -2.18584,4.00119 4.14938,1.25964 -0.37048,-0.96325 9.03973,-4.74215 z"
       id="path1768"
       inkscape:connector-curvature="0" />
    <text
       xml:space="preserve"
       style="font-style:normal;font-variant:normal;font-weight:normal;font-stretch:normal;font-size:3.52777767px;line-height:1.25;font-family:cmr10;-inkscape-font-specification:cmr10;font-variant-ligatures:normal;font-variant-position:normal;font-variant-caps:normal;font-variant-numeric:normal;font-variant-alternates:normal;font-feature-settings:normal;text-indent:0;text-align:start;text-decoration:none;text-decoration-line:none;text-decoration-style:solid;text-decoration-color:#000000;letter-spacing:0px;word-spacing:0px;text-transform:none;writing-mode:lr-tb;direction:ltr;text-orientation:mixed;dominant-baseline:auto;baseline-shift:baseline;text-anchor:start;white-space:normal;shape-padding:0;opacity:1;vector-effect:none;fill:#000000;fill-opacity:1;stroke:none;stroke-width:0.26458332;stroke-linecap:butt;stroke-linejoin:miter;stroke-miterlimit:4;stroke-dasharray:none;stroke-dashoffset:0;stroke-opacity:1"
       x="9.9989758"
       y="271.16721"
       id="text1772"
       transform="rotate(-29.888736)"><tspan
         sodipodi:role="line"
         id="tspan1770"
         x="9.9989758"
         y="271.16721"
         style="stroke-width:0.26458332">j or E</tspan></text>
    <rect
       style="fill:#dedede;fill-opacity:1;stroke:none;stroke-width:0.41448247;stroke-miterlimit:4;stroke-dasharray:1.65792996, 1.65792996;stroke-dashoffset:0;stroke-opacity:1"
       id="rect989-3-2-0-6-4-7"
       width="58.874359"
       height="42.244701"
       x="46.551376"
       y="203.66234" />
    <path
       style="fill:#ffffff;fill-opacity:1;stroke:#000000;stroke-width:0.24694444;stroke-miterlimit:4;stroke-dasharray:none;stroke-dashoffset:0;stroke-opacity:1"
       d="m 92.266215,224.65677 -0.88005,-5.5e-4 0.004,-5.99653 -3.61323,-0.002 -0.004,5.99655 -0.86247,-5.1e-4 2.82052,3.32505 z"
       id="rect1309-2-3-1-8-6-6"
       inkscape:connector-curvature="0" />
    <path
       style="fill:#ffffff;fill-opacity:1;stroke:#000000;stroke-width:0.24694444;stroke-miterlimit:4;stroke-dasharray:none;stroke-dashoffset:0;stroke-opacity:1"
       d="m 75.62397,208.12393 -5.6e-4,0.88005 -5.99653,-0.004 -0.002,3.61322 5.99655,0.004 -5e-4,0.86248 3.32506,-2.82052 z"
       id="rect1309-2-3-1-8-6-3-5"
       inkscape:connector-curvature="0" />
    <path
       style="fill:#ffffff;fill-opacity:1;stroke:#000000;stroke-width:0.24694444;stroke-miterlimit:4;stroke-dasharray:none;stroke-dashoffset:0;stroke-opacity:1"
       d="m 57.836633,221.90639 0.88004,5.6e-4 -0.004,5.99652 3.61322,0.002 0.004,-5.99655 0.86247,5e-4 -2.82052,-3.32507 z"
       id="rect1309-2-3-1-8-6-3-2-6"
       inkscape:connector-curvature="0" />
    <path
       style="fill:#ffffff;fill-opacity:1;stroke:#000000;stroke-width:0.24694444;stroke-miterlimit:4;stroke-dasharray:none;stroke-dashoffset:0;stroke-opacity:1"
       d="m 72.873515,241.44241 5.3e-4,-0.88005 5.99653,0.004 0.002,-3.61322 -5.99655,-0.004 5.3e-4,-0.86248 -3.32507,2.82052 z"
       id="rect1309-2-3-1-8-6-3-2-0-9"
       inkscape:connector-curvature="0" />
    <path
       style="opacity:1;vector-effect:none;fill:#444444;fill-opacity:1;stroke:#000000;stroke-width:0.24694444;stroke-linecap:butt;stroke-linejoin:miter;stroke-miterlimit:4;stroke-dasharray:none;stroke-dashoffset:0;stroke-opacity:1"
       d="m 81.285293,220.24828 -9.74364,2.55632 -0.33343,-0.88916 -2.185839,4.00119 4.149379,1.25964 -0.37048,-0.96325 9.03973,-4.74215 z"
       id="path1768-3"
       inkscape:connector-curvature="0" />
    <text
       xml:space="preserve"
       style="font-style:normal;font-variant:normal;font-weight:normal;font-stretch:normal;font-size:3.52777767px;line-height:1.25;font-family:cmr10;-inkscape-font-specification:cmr10;font-variant-ligatures:normal;font-variant-position:normal;font-variant-caps:normal;font-variant-numeric:normal;font-variant-alternates:normal;font-feature-settings:normal;text-indent:0;text-align:start;text-decoration:none;text-decoration-line:none;text-decoration-style:solid;text-decoration-color:#000000;letter-spacing:0px;word-spacing:0px;text-transform:none;writing-mode:lr-tb;direction:ltr;text-orientation:mixed;dominant-baseline:auto;baseline-shift:baseline;text-anchor:start;white-space:normal;shape-padding:0;opacity:1;vector-effect:none;fill:#000000;fill-opacity:1;stroke:none;stroke-width:0.26458332;stroke-linecap:butt;stroke-linejoin:miter;stroke-miterlimit:4;stroke-dasharray:none;stroke-dashoffset:0;stroke-opacity:1"
       x="-48.707973"
       y="236.09406"
       id="text1772-7"
       transform="rotate(-29.888736)"><tspan
         sodipodi:role="line"
         id="tspan1770-4"
         x="-48.707973"
         y="236.09406"
         style="stroke-width:0.26458332">B</tspan></text>
    <text
       xml:space="preserve"
       style="font-style:normal;font-variant:normal;font-weight:normal;font-stretch:normal;font-size:3.52777767px;line-height:1.25;font-family:cmr10;-inkscape-font-specification:cmr10;font-variant-ligatures:normal;font-variant-position:normal;font-variant-caps:normal;font-variant-numeric:normal;font-variant-alternates:normal;font-feature-settings:normal;text-indent:0;text-align:start;text-decoration:none;text-decoration-line:none;text-decoration-style:solid;text-decoration-color:#000000;letter-spacing:0px;word-spacing:0px;text-transform:none;writing-mode:lr-tb;direction:ltr;text-orientation:mixed;dominant-baseline:auto;baseline-shift:baseline;text-anchor:start;white-space:normal;shape-padding:0;opacity:1;vector-effect:none;fill:#000000;fill-opacity:1;stroke:none;stroke-width:0.26458332;stroke-linecap:butt;stroke-linejoin:miter;stroke-miterlimit:4;stroke-dasharray:none;stroke-dashoffset:0;stroke-opacity:1"
       x="75.801414"
       y="250.76852"
       id="text1987"><tspan
         sodipodi:role="line"
         id="tspan1985"
         x="75.801414"
         y="250.76852"
         style="stroke-width:0.26458332">White arrows are electric fields. Dark arrows are magnetic fields.</tspan></text>
    <g
       transform="matrix(0.28222223,0,0,0.28222223,-3.0821834,-9.6099743)"
       id="g1674">
      <rect
         y="613.57867"
         x="425.8432"
         height="124.43789"
         width="208.60992"
         id="rect989-3-2-0-6-3"
         style="fill:#dedede;fill-opacity:1;stroke:none;stroke-width:1.33906221;stroke-miterlimit:4;stroke-dasharray:5.35624896, 5.35624896;stroke-dashoffset:0;stroke-opacity:1" />
      <path
         inkscape:connector-curvature="0"
         id="rect1309-2-3-1-6"
         d="m 580.46943,662.66887 1.48708,2.74085 -18.67551,10.13334 6.10585,11.25296 18.6756,-10.13339 1.45737,2.68612 5.58032,-14.40651 z"
         style="fill:#444444;fill-opacity:1;stroke:#000000;stroke-width:0.875;stroke-miterlimit:4;stroke-dasharray:none;stroke-dashoffset:0;stroke-opacity:1" />
      <path
         inkscape:connector-curvature="0"
         id="rect1309-2-3-4-7"
         d="m 529.2498,643.83762 1.1167,2.9115 -19.8384,7.60901 4.5848,11.95366 19.8384,-7.60904 1.0944,2.85336 7.413,-13.55488 z"
         style="fill:#444444;fill-opacity:1;stroke:#000000;stroke-width:0.875;stroke-miterlimit:4;stroke-dasharray:none;stroke-dashoffset:0;stroke-opacity:1" />
      <path
         inkscape:connector-curvature="0"
         id="rect1309-2-3-1-8-5"
         d="m 475.07234,624.61909 1.48717,2.74084 -18.67551,10.13333 6.10584,11.25296 18.67551,-10.13337 1.45747,2.68609 5.58031,-14.40651 z"
         style="fill:#444444;fill-opacity:1;stroke:#000000;stroke-width:0.875;stroke-miterlimit:4;stroke-dasharray:none;stroke-dashoffset:0;stroke-opacity:1" />
      <path
         inkscape:connector-curvature="0"
         id="rect1309-2-3-1-5-3"
         d="m 577.45202,702.07029 1.48715,2.74084 -18.67552,10.13334 6.10588,11.25296 18.67551,-10.13338 1.45745,2.6861 5.5803,-14.40651 z"
         style="fill:#444444;fill-opacity:1;stroke:#000000;stroke-width:0.875;stroke-miterlimit:4;stroke-dasharray:none;stroke-dashoffset:0;stroke-opacity:1" />
      <path
         inkscape:connector-curvature="0"
         id="rect1309-2-3-4-0-5"
         d="m 526.23248,683.23903 1.11667,2.9115 -19.83841,7.60901 4.58483,11.95366 19.83841,-7.60904 1.09438,2.85336 7.41299,-13.55489 z"
         style="fill:#444444;fill-opacity:1;stroke:#000000;stroke-width:0.875;stroke-miterlimit:4;stroke-dasharray:none;stroke-dashoffset:0;stroke-opacity:1" />
      <path
         inkscape:connector-curvature="0"
         id="rect1309-2-3-1-8-3-6"
         d="m 472.055,664.02049 1.48715,2.74084 -18.67552,10.13333 6.10588,11.25297 18.67551,-10.13338 1.45746,2.68609 5.58029,-14.4065 z"
         style="fill:#444444;fill-opacity:1;stroke:#000000;stroke-width:0.875;stroke-miterlimit:4;stroke-dasharray:none;stroke-dashoffset:0;stroke-opacity:1" />
      <path
         inkscape:connector-curvature="0"
         id="rect1309-2-3-1-1-2"
         d="m 583.68433,624.06692 1.48708,2.74085 -18.67551,10.13333 6.10594,11.25296 18.6755,-10.13338 1.45738,2.68611 5.58031,-14.40652 z"
         style="fill:#444444;fill-opacity:1;stroke:#000000;stroke-width:0.875;stroke-miterlimit:4;stroke-dasharray:none;stroke-dashoffset:0;stroke-opacity:1" />
      <path
         inkscape:connector-curvature="0"
         id="rect1309-2-3-1-1-0-9"
         d="m 472.46953,703.50613 1.48708,2.74085 -18.67551,10.13333 6.10585,11.25297 18.67559,-10.13339 1.45738,2.68612 5.58031,-14.40652 z"
         style="fill:#444444;fill-opacity:1;stroke:#000000;stroke-width:0.875;stroke-miterlimit:4;stroke-dasharray:none;stroke-dashoffset:0;stroke-opacity:1" />
    </g>
  </g>
</svg>
