<?xml version="1.0" encoding="UTF-8" standalone="no"?>
<!-- Created with Inkscape (http://www.inkscape.org/) -->

<svg
   xmlns:dc="http://purl.org/dc/elements/1.1/"
   xmlns:cc="http://creativecommons.org/ns#"
   xmlns:rdf="http://www.w3.org/1999/02/22-rdf-syntax-ns#"
   xmlns:svg="http://www.w3.org/2000/svg"
   xmlns="http://www.w3.org/2000/svg"
   xmlns:sodipodi="http://sodipodi.sourceforge.net/DTD/sodipodi-0.dtd"
   xmlns:inkscape="http://www.inkscape.org/namespaces/inkscape"
   width="210mm"
   height="297mm"
   viewBox="0 0 210 297"
   version="1.1"
   id="svg8"
   inkscape:version="0.92.3 (2405546, 2018-03-11)"
   sodipodi:docname="ex-preview-of-potential-1.svg">
  <defs
     id="defs2" />
  <sodipodi:namedview
     id="base"
     pagecolor="#ffffff"
     bordercolor="#666666"
     borderopacity="1.0"
     inkscape:pageopacity="0.0"
     inkscape:pageshadow="2"
     inkscape:zoom="2.0923358"
     inkscape:cx="190"
     inkscape:cy="927.14286"
     inkscape:document-units="mm"
     inkscape:current-layer="layer1"
     showgrid="false"
     inkscape:window-width="1280"
     inkscape:window-height="996"
     inkscape:window-x="0"
     inkscape:window-y="0"
     inkscape:window-maximized="1" />
  <metadata
     id="metadata5">
    <rdf:RDF>
      <cc:Work
         rdf:about="">
        <dc:format>image/svg+xml</dc:format>
        <dc:type
           rdf:resource="http://purl.org/dc/dcmitype/StillImage" />
        <dc:title></dc:title>
      </cc:Work>
    </rdf:RDF>
  </metadata>
  <g
     inkscape:label="Layer 1"
     inkscape:groupmode="layer"
     id="layer1">
    <path
       style="fill:none;fill-opacity:1;stroke:#000000;stroke-width:0.24694444;stroke-miterlimit:4;stroke-dasharray:none;stroke-dashoffset:0;stroke-opacity:1"
       d="m 16.944702,31.573939 c -0.700553,0 -1.264522,0.563967 -1.264522,1.26452 V 47.00142 c 0,0.700553 0.563969,1.264523 1.264522,1.264523 h 27.6934 c 0.700553,0 1.264521,-0.56397 1.264521,-1.264523 v -4.868437 h 0.75861 c 0.700554,0 1.264524,-0.56397 1.264524,-1.264523 v -1.897041 c 0,-0.700554 -0.56397,-1.264523 -1.264524,-1.264523 h -0.75861 v -4.868437 c 0,-0.700553 -0.563968,-1.26452 -1.264521,-1.26452 z"
       id="rect815"
       inkscape:connector-curvature="0" />
    <path
       inkscape:connector-curvature="0"
       style="fill:none;fill-opacity:1;stroke:#000000;stroke-width:0.24694444;stroke-miterlimit:4;stroke-dasharray:none;stroke-dashoffset:0;stroke-opacity:1"
       d="m 60.381611,31.573938 c -0.700553,0 -1.264523,0.563968 -1.264523,1.264521 v 14.16296 c 0,0.700554 0.56397,1.264524 1.264523,1.264524 H 88.07501 c 0.700553,0 1.26452,-0.56397 1.26452,-1.264524 v -4.868436 h 0.758611 c 0.700553,0 1.264523,-0.56397 1.264523,-1.264523 v -1.897041 c 0,-0.700553 -0.56397,-1.264523 -1.264523,-1.264523 H 89.33953 v -4.868437 c 0,-0.700553 -0.563967,-1.264521 -1.26452,-1.264521 z"
       id="rect815-3" />
    <path
       style="opacity:1;vector-effect:none;fill:none;fill-opacity:1;stroke:#000000;stroke-width:0.35277778;stroke-linecap:butt;stroke-linejoin:miter;stroke-miterlimit:4;stroke-dasharray:none;stroke-dashoffset:0;stroke-opacity:1;marker:none;marker-start:none;marker-mid:none;marker-end:none"
       d="m 48.052357,39.919886 h 11.00146"
       id="path835"
       inkscape:connector-curvature="0" />
  </g>
</svg>
