<?xml version="1.0" encoding="UTF-8" standalone="no"?>
<!-- Created with Inkscape (http://www.inkscape.org/) -->

<svg
   xmlns:dc="http://purl.org/dc/elements/1.1/"
   xmlns:cc="http://creativecommons.org/ns#"
   xmlns:rdf="http://www.w3.org/1999/02/22-rdf-syntax-ns#"
   xmlns:svg="http://www.w3.org/2000/svg"
   xmlns="http://www.w3.org/2000/svg"
   xmlns:sodipodi="http://sodipodi.sourceforge.net/DTD/sodipodi-0.dtd"
   xmlns:inkscape="http://www.inkscape.org/namespaces/inkscape"
   width="210mm"
   height="297mm"
   viewBox="0 0 210 297"
   version="1.1"
   id="svg8"
   inkscape:version="0.92.3 (2405546, 2018-03-11)"
   sodipodi:docname="ex-preview-of-potential-2.svg">
  <defs
     id="defs2" />
  <sodipodi:namedview
     id="base"
     pagecolor="#ffffff"
     bordercolor="#666666"
     borderopacity="1.0"
     inkscape:pageopacity="0.0"
     inkscape:pageshadow="2"
     inkscape:zoom="1.7454569"
     inkscape:cx="262.62208"
     inkscape:cy="831.05298"
     inkscape:document-units="mm"
     inkscape:current-layer="layer1"
     showgrid="false"
     inkscape:window-width="1280"
     inkscape:window-height="996"
     inkscape:window-x="0"
     inkscape:window-y="0"
     inkscape:window-maximized="1"
     inkscape:snap-global="false" />
  <metadata
     id="metadata5">
    <rdf:RDF>
      <cc:Work
         rdf:about="">
        <dc:format>image/svg+xml</dc:format>
        <dc:type
           rdf:resource="http://purl.org/dc/dcmitype/StillImage" />
        <dc:title />
      </cc:Work>
    </rdf:RDF>
  </metadata>
  <g
     inkscape:label="Layer 1"
     inkscape:groupmode="layer"
     id="layer1">
    <path
       style="opacity:1;vector-effect:none;fill:none;fill-opacity:1;stroke:#000000;stroke-width:0.35277778;stroke-linecap:butt;stroke-linejoin:miter;stroke-miterlimit:4;stroke-dasharray:none;stroke-dashoffset:0;stroke-opacity:1;marker:none;marker-start:none;marker-mid:none;marker-end:none"
       d="M 40.954224,125.80181 H 28.81082 l 0,-35.878117"
       id="path835"
       inkscape:connector-curvature="0"
       sodipodi:nodetypes="ccc" />
    <path
       style="opacity:1;vector-effect:none;fill:none;fill-opacity:1;stroke:#000000;stroke-width:0.35277778;stroke-linecap:butt;stroke-linejoin:miter;stroke-miterlimit:4;stroke-dasharray:none;stroke-dashoffset:0;stroke-opacity:1;marker:none;marker-start:none;marker-mid:none;marker-end:none"
       d="m 55.9549,125.5637 h 8.571815 l 0,-35.514414"
       id="path837"
       inkscape:connector-curvature="0"
       sodipodi:nodetypes="ccc" />
    <path
       style="opacity:1;vector-effect:none;fill:none;fill-opacity:1;stroke:#000000;stroke-width:0.35277778;stroke-linecap:butt;stroke-linejoin:miter;stroke-miterlimit:4;stroke-dasharray:none;stroke-dashoffset:0;stroke-opacity:1;marker:none;marker-start:none;marker-mid:none;marker-end:none"
       d="m 20.477112,65.918164 c 0,17.381736 3.690643,21.310483 5.833596,22.977226 2.142954,1.666743 12.143405,2.619166 12.143405,2.619166"
       id="path861"
       inkscape:connector-curvature="0" />
    <path
       style="opacity:1;vector-effect:none;fill:none;fill-opacity:1;stroke:#000000;stroke-width:0.35277778;stroke-linecap:butt;stroke-linejoin:miter;stroke-miterlimit:4;stroke-dasharray:none;stroke-dashoffset:0;stroke-opacity:1;marker:none;marker-start:none;marker-mid:none;marker-end:none"
       d="m 38.930323,38.53598 c -13.21488,-0.119052 -17.500787,9.167079 -17.500787,10.238557 0,1.071475 -1.19053,10.476661 -1.19053,10.476661"
       id="path859"
       inkscape:connector-curvature="0" />
    <path
       style="opacity:1;vector-effect:none;fill:none;fill-opacity:1;stroke:#000000;stroke-width:0.35277778;stroke-linecap:butt;stroke-linejoin:miter;stroke-miterlimit:4;stroke-dasharray:none;stroke-dashoffset:0;stroke-opacity:1;marker:none;marker-start:none;marker-mid:none;marker-end:none"
       d="M 73.57474,49.012641 C 70.122205,36.631133 56.788272,36.988292 56.788272,36.988292"
       id="path857"
       inkscape:connector-curvature="0" />
    <path
       style="opacity:1;vector-effect:none;fill:none;fill-opacity:1;stroke:#000000;stroke-width:0.35277778;stroke-linecap:butt;stroke-linejoin:miter;stroke-miterlimit:4;stroke-dasharray:none;stroke-dashoffset:0;stroke-opacity:1;marker:none;marker-start:none;marker-mid:none;marker-end:none"
       d="m 73.931901,76.156721 c 1.19053,-8.571814 0,-20.953325 0,-20.953325"
       id="path855"
       inkscape:connector-curvature="0" />
    <path
       style="opacity:1;vector-effect:none;fill:none;fill-opacity:1;stroke:#000000;stroke-width:0.35277778;stroke-linecap:butt;stroke-linejoin:miter;stroke-miterlimit:4;stroke-dasharray:none;stroke-dashoffset:0;stroke-opacity:1;marker:none;marker-start:none;marker-mid:none;marker-end:none"
       d="M 57.383535,91.752661 C 68.693567,91.276448 72.860422,81.990316 72.860422,81.990316"
       id="path853"
       inkscape:connector-curvature="0"
       sodipodi:nodetypes="cc" />
    <path
       style="fill:#ffffff;fill-opacity:1;stroke:#000000;stroke-width:0.24694444;stroke-miterlimit:4;stroke-dasharray:none;stroke-dashoffset:0;stroke-opacity:1"
       d="m 37.227164,86.161316 c -0.470442,0 -0.849164,0.378721 -0.849164,0.849163 v 9.51085 c 0,0.470447 0.378722,0.84917 0.849164,0.84917 h 18.596947 c 0.470443,0 0.849164,-0.378723 0.849164,-0.84917 V 93.25203 h 0.509429 c 0.470443,0 0.849166,-0.378723 0.849166,-0.849165 v -1.27392 c 0,-0.470443 -0.378723,-0.849165 -0.849166,-0.849165 h -0.509429 v -3.269301 c 0,-0.470442 -0.378721,-0.849163 -0.849164,-0.849163 z"
       id="rect815"
       inkscape:connector-curvature="0" />
    <path
       style="fill:#ffffff;fill-opacity:1;stroke:#000000;stroke-width:0.24694444;stroke-miterlimit:4;stroke-dasharray:none;stroke-dashoffset:0;stroke-opacity:1"
       d="m 58.699161,43.279368 c 0.469857,-0.02344 0.829242,-0.420555 0.805805,-0.890413 l -0.473824,-9.49904 c -0.02344,-0.469862 -0.420558,-0.829247 -0.890415,-0.80581 l -18.573854,0.926487 c -0.46986,0.02344 -0.829243,0.420558 -0.805806,0.890421 l 0.162875,3.265239 -0.508797,0.02538 c -0.469858,0.02344 -0.829242,0.420558 -0.805805,0.890416 l 0.06346,1.272338 c 0.02344,0.469859 0.420558,0.829243 0.890416,0.805805 l 0.508796,-0.02538 0.162875,3.265241 c 0.02344,0.469858 0.420556,0.82924 0.890415,0.805803 z"
       id="rect815-3"
       inkscape:connector-curvature="0" />
    <rect
       style="fill:#696969;fill-opacity:1;stroke:#000000;stroke-width:0.24694444;stroke-miterlimit:4;stroke-dasharray:none;stroke-dashoffset:0;stroke-opacity:1"
       id="rect830"
       width="4.0478015"
       height="8.2146559"
       x="18.096052"
       y="58.53688"
       ry="0" />
    <rect
       style="fill:#696969;fill-opacity:1;stroke:#000000;stroke-width:0.24694444;stroke-miterlimit:4;stroke-dasharray:none;stroke-dashoffset:0;stroke-opacity:1"
       id="rect830-6"
       width="4.0478015"
       height="8.2146559"
       x="84.255432"
       y="60.087959"
       ry="0"
       transform="rotate(10.353968)" />
    <rect
       style="fill:#696969;fill-opacity:1;stroke:#000000;stroke-width:0.24694444;stroke-miterlimit:4;stroke-dasharray:none;stroke-dashoffset:0;stroke-opacity:1"
       id="rect830-7"
       width="4.0478015"
       height="8.2146559"
       x="63.095657"
       y="57.806587"
       ry="0"
       transform="rotate(-8.3890795)" />
    <rect
       style="fill:#ffffff;fill-opacity:1;stroke:#000000;stroke-width:0.24694444;stroke-miterlimit:4;stroke-dasharray:none;stroke-dashoffset:0;stroke-opacity:1"
       id="rect825"
       width="16.905523"
       height="22.143854"
       x="40.001801"
       y="106.75333" />
    <text
       xml:space="preserve"
       style="font-style:normal;font-variant:normal;font-weight:normal;font-stretch:normal;font-size:3.52777767px;line-height:1.25;font-family:'Liberation Sans';-inkscape-font-specification:'Liberation Sans';font-variant-ligatures:normal;font-variant-position:normal;font-variant-caps:normal;font-variant-numeric:normal;font-variant-alternates:normal;font-feature-settings:normal;text-indent:0;text-align:start;text-decoration:none;text-decoration-line:none;text-decoration-style:solid;text-decoration-color:#000000;letter-spacing:0px;word-spacing:0px;text-transform:none;writing-mode:lr-tb;direction:ltr;text-orientation:mixed;dominant-baseline:auto;baseline-shift:baseline;text-anchor:start;white-space:normal;shape-padding:0;opacity:1;vector-effect:none;fill:#000000;fill-opacity:1;stroke:none;stroke-width:0.26458332;stroke-linecap:butt;stroke-linejoin:miter;stroke-miterlimit:4;stroke-dasharray:none;stroke-dashoffset:0;stroke-opacity:1"
       x="52.85952"
       y="127.02679"
       id="text829"><tspan
         sodipodi:role="line"
         id="tspan827"
         x="52.85952"
         y="127.02679"
         style="stroke-width:0.26458332">V</tspan></text>
    <text
       xml:space="preserve"
       style="font-style:normal;font-variant:normal;font-weight:normal;font-stretch:normal;font-size:3.52777767px;line-height:1.25;font-family:'Liberation Sans';-inkscape-font-specification:'Liberation Sans';font-variant-ligatures:normal;font-variant-position:normal;font-variant-caps:normal;font-variant-numeric:normal;font-variant-alternates:normal;font-feature-settings:normal;text-indent:0;text-align:start;text-decoration:none;text-decoration-line:none;text-decoration-style:solid;text-decoration-color:#000000;letter-spacing:0px;word-spacing:0px;text-transform:none;writing-mode:lr-tb;direction:ltr;text-orientation:mixed;dominant-baseline:auto;baseline-shift:baseline;text-anchor:start;white-space:normal;shape-padding:0;opacity:1;vector-effect:none;fill:#000000;fill-opacity:1;stroke:none;stroke-width:0.26458332;stroke-linecap:butt;stroke-linejoin:miter;stroke-miterlimit:4;stroke-dasharray:none;stroke-dashoffset:0;stroke-opacity:1"
       x="40.954224"
       y="127.02679"
       id="text833"><tspan
         sodipodi:role="line"
         id="tspan831"
         x="40.954224"
         y="127.02679"
         style="stroke-width:0.26458332">COM</tspan></text>
    <g
       id="g1953"
       transform="matrix(-1.6902946,0,0,-1.6902946,122.72174,353.51384)">
      <path
         style="fill:#ffffff;stroke-width:0.26458332"
         d="m 46.40088,143.91739 c 0.618887,0 1.120717,-0.50223 1.120717,-1.12111 v -1.44895 c 0,-0.61888 -0.50183,-1.12071 -1.120717,-1.12071 h -4.876342 c -0.618885,0 -1.120716,0.50183 -1.120716,1.12071 v 1.44895 c 0,0.61888 0.501831,1.12111 1.120716,1.12111 z"
         id="path9"
         inkscape:connector-curvature="0" />
      <polygon
         transform="matrix(0.39545392,0,0,0.39545392,14.057473,1.6037909)"
         id="polygon319"
         points="84.01,355.641 84.011,355.641 84.01,355.641 83.511,355.336 82.72,355.336 82.719,355.336 81.928,355.336 81.429,355.641 81.428,355.641 81.429,355.641 81.928,355.946 82.719,355.946 82.72,355.946 83.511,355.946 84.01,355.641 84.011,355.641 " />
      <polygon
         transform="matrix(0.39545392,0,0,0.39545392,14.057473,1.6037909)"
         id="polygon321"
         points="79.572,358.383 79.572,358.383 79.572,358.383 79.072,358.079 78.282,358.079 78.281,358.079 77.49,358.079 76.99,358.383 77.49,358.688 78.281,358.688 78.282,358.688 79.072,358.688 79.572,358.383 " />
      <polygon
         transform="matrix(0.39545392,0,0,0.39545392,14.057473,1.6037909)"
         id="polygon323"
         points="79.572,355.641 79.572,355.641 79.572,355.641 79.072,355.336 78.282,355.336 78.281,355.336 77.49,355.336 76.99,355.641 77.49,355.946 78.281,355.946 78.282,355.946 79.072,355.946 79.572,355.641 " />
      <polygon
         transform="matrix(0.39545392,0,0,0.39545392,14.057473,1.6037909)"
         id="polygon325"
         points="79.572,352.899 79.572,352.899 79.572,352.899 79.072,352.595 78.282,352.595 78.281,352.595 77.49,352.595 76.99,352.899 77.49,353.204 78.281,353.204 78.282,353.204 79.072,353.204 79.572,352.899 " />
      <polygon
         transform="matrix(0.39545392,0,0,0.39545392,14.057473,1.6037909)"
         id="polygon327"
         points="76.748,358.333 76.748,358.333 76.748,358.332 77.053,357.833 77.053,357.042 77.053,357.041 77.053,356.25 76.748,355.75 76.443,356.25 76.443,357.041 76.443,357.042 76.443,357.833 76.748,358.332 76.748,358.333 " />
      <polygon
         transform="matrix(0.39545392,0,0,0.39545392,14.057473,1.6037909)"
         id="polygon329"
         points="76.748,355.548 76.748,355.548 76.748,355.548 77.053,355.048 77.053,354.258 77.053,354.257 77.053,353.466 76.748,352.966 76.443,353.466 76.443,354.257 76.443,354.258 76.443,355.048 76.748,355.548 " />
      <polygon
         transform="matrix(0.39545392,0,0,0.39545392,14.057473,1.6037909)"
         id="polygon331"
         points="75.376,358.324 75.376,358.324 75.376,358.324 75.68,357.824 75.68,357.034 75.68,357.033 75.68,356.242 75.376,355.743 75.376,355.742 75.375,355.742 75.375,355.743 75.071,356.242 75.071,357.033 75.071,357.034 75.071,357.824 75.375,358.324 " />
      <polygon
         transform="matrix(0.39545392,0,0,0.39545392,14.057473,1.6037909)"
         id="polygon333"
         points="75.376,355.54 75.376,355.541 75.376,355.54 75.68,355.041 75.68,354.25 75.68,354.249 75.68,353.458 75.376,352.958 75.375,352.958 75.071,353.458 75.071,354.249 75.071,354.25 75.071,355.041 75.375,355.54 75.375,355.541 " />
      <polygon
         transform="matrix(0.39545392,0,0,0.39545392,14.057473,1.6037909)"
         id="polygon335"
         points="75.134,358.383 75.134,358.383 75.134,358.383 74.634,358.079 73.843,358.079 73.842,358.079 73.052,358.079 72.552,358.383 73.052,358.688 73.842,358.688 73.843,358.688 74.634,358.688 75.134,358.383 " />
      <polygon
         transform="matrix(0.39545392,0,0,0.39545392,14.057473,1.6037909)"
         id="polygon337"
         points="75.134,352.899 75.134,352.899 75.134,352.899 74.634,352.595 73.843,352.595 73.842,352.595 73.052,352.595 72.552,352.899 73.052,353.204 73.842,353.204 73.843,353.204 74.634,353.204 75.134,352.899 " />
      <polygon
         transform="matrix(0.39545392,0,0,0.39545392,14.057473,1.6037909)"
         id="polygon339"
         points="72.31,358.333 72.31,358.333 72.31,358.332 72.615,357.833 72.615,357.042 72.615,357.041 72.615,356.25 72.31,355.75 72.005,356.25 72.005,357.041 72.005,357.042 72.005,357.833 72.31,358.332 72.31,358.333 " />
      <polygon
         transform="matrix(0.39545392,0,0,0.39545392,14.057473,1.6037909)"
         id="polygon341"
         points="72.31,355.548 72.31,355.548 72.31,355.548 72.615,355.048 72.615,354.258 72.615,354.257 72.615,353.466 72.31,352.966 72.005,353.466 72.005,354.257 72.005,354.258 72.005,355.048 72.31,355.548 " />
      <polygon
         transform="matrix(0.39545392,0,0,0.39545392,14.057473,1.6037909)"
         id="polygon343"
         points="70.938,358.324 70.938,358.324 70.938,358.324 71.242,357.824 71.242,357.034 71.242,357.033 71.242,356.242 70.938,355.743 70.938,355.742 70.938,355.743 70.633,356.242 70.633,357.033 70.633,357.034 70.633,357.824 70.938,358.324 " />
      <polygon
         transform="matrix(0.39545392,0,0,0.39545392,14.057473,1.6037909)"
         id="polygon345"
         points="70.938,355.54 70.938,355.541 70.938,355.54 71.242,355.041 71.242,354.25 71.242,354.249 71.242,353.458 70.938,352.958 70.633,353.458 70.633,354.249 70.633,354.25 70.633,355.041 70.938,355.54 70.938,355.541 " />
      <polygon
         transform="matrix(0.39545392,0,0,0.39545392,14.057473,1.6037909)"
         id="polygon347"
         points="70.696,358.383 70.696,358.383 70.695,358.383 70.196,358.079 69.405,358.079 69.404,358.079 68.613,358.079 68.114,358.383 68.113,358.383 68.114,358.383 68.113,358.383 68.114,358.383 68.613,358.688 69.404,358.688 69.405,358.688 70.196,358.688 70.695,358.383 70.696,358.383 " />
      <polygon
         transform="matrix(0.39545392,0,0,0.39545392,14.057473,1.6037909)"
         id="polygon349"
         points="70.696,352.899 70.696,352.899 70.695,352.899 70.196,352.595 69.405,352.595 69.404,352.595 68.613,352.595 68.114,352.899 68.113,352.899 68.114,352.899 68.113,352.899 68.114,352.899 68.613,353.204 69.404,353.204 69.405,353.204 70.196,353.204 70.695,352.899 70.696,352.899 " />
      <polygon
         transform="matrix(0.39545392,0,0,0.39545392,14.057473,1.6037909)"
         id="polygon351"
         points="67.872,358.333 67.872,358.333 67.872,358.332 68.176,357.833 68.176,357.042 68.176,357.041 68.176,356.25 67.872,355.75 67.567,356.25 67.567,357.041 67.567,357.042 67.567,357.833 67.872,358.332 67.872,358.333 " />
      <polygon
         transform="matrix(0.39545392,0,0,0.39545392,14.057473,1.6037909)"
         id="polygon353"
         points="67.872,355.548 67.872,355.548 67.872,355.548 68.176,355.048 68.176,354.258 68.176,354.257 68.176,353.466 67.872,352.966 67.567,353.466 67.567,354.257 67.567,354.258 67.567,355.048 67.872,355.548 " />
      <circle
         style="stroke-width:0.39545393"
         id="circle355"
         r="0.16767246"
         cy="141.02226"
         cx="44.182362" />
    </g>
    <text
       xml:space="preserve"
       style="font-style:normal;font-variant:normal;font-weight:normal;font-stretch:normal;font-size:3.52777767px;line-height:1.25;font-family:'Liberation Sans';-inkscape-font-specification:'Liberation Sans';font-variant-ligatures:normal;font-variant-position:normal;font-variant-caps:normal;font-variant-numeric:normal;font-variant-alternates:normal;font-feature-settings:normal;text-indent:0;text-align:start;text-decoration:none;text-decoration-line:none;text-decoration-style:solid;text-decoration-color:#000000;letter-spacing:0px;word-spacing:0px;text-transform:none;writing-mode:lr-tb;direction:ltr;text-orientation:mixed;dominant-baseline:auto;baseline-shift:baseline;text-anchor:start;white-space:normal;shape-padding:0;opacity:1;vector-effect:none;fill:#000000;fill-opacity:1;stroke:none;stroke-width:0.26458332;stroke-linecap:butt;stroke-linejoin:miter;stroke-miterlimit:4;stroke-dasharray:none;stroke-dashoffset:0;stroke-opacity:1"
       x="73.41642"
       y="106.42724"
       id="text852"><tspan
         sodipodi:role="line"
         id="tspan850"
         x="73.41642"
         y="106.42724"
         style="stroke-width:0.26458332">example of one of the</tspan><tspan
         sodipodi:role="line"
         x="73.41642"
         y="110.83696"
         style="stroke-width:0.26458332"
         id="tspan854">five measurements</tspan></text>
  </g>
</svg>
