<?xml version="1.0" encoding="UTF-8" standalone="no"?>
<!-- Created with Inkscape (http://www.inkscape.org/) -->

<svg
   xmlns:dc="http://purl.org/dc/elements/1.1/"
   xmlns:cc="http://creativecommons.org/ns#"
   xmlns:rdf="http://www.w3.org/1999/02/22-rdf-syntax-ns#"
   xmlns:svg="http://www.w3.org/2000/svg"
   xmlns="http://www.w3.org/2000/svg"
   xmlns:sodipodi="http://sodipodi.sourceforge.net/DTD/sodipodi-0.dtd"
   xmlns:inkscape="http://www.inkscape.org/namespaces/inkscape"
   width="210mm"
   height="297mm"
   viewBox="0 0 210 297"
   version="1.1"
   id="svg8"
   inkscape:version="0.92.3 (2405546, 2018-03-11)"
   sodipodi:docname="ex-tension-in-e-warmup.svg">
  <defs
     id="defs2" />
  <sodipodi:namedview
     id="base"
     pagecolor="#ffffff"
     bordercolor="#666666"
     borderopacity="1.0"
     inkscape:pageopacity="0.0"
     inkscape:pageshadow="2"
     inkscape:zoom="3.4329235"
     inkscape:cx="407.67945"
     inkscape:cy="677.81856"
     inkscape:document-units="mm"
     inkscape:current-layer="layer1"
     showgrid="false"
     inkscape:window-width="1280"
     inkscape:window-height="996"
     inkscape:window-x="0"
     inkscape:window-y="0"
     inkscape:window-maximized="1"
     inkscape:snap-global="false" />
  <metadata
     id="metadata5">
    <rdf:RDF>
      <cc:Work
         rdf:about="">
        <dc:format>image/svg+xml</dc:format>
        <dc:type
           rdf:resource="http://purl.org/dc/dcmitype/StillImage" />
        <dc:title />
      </cc:Work>
    </rdf:RDF>
  </metadata>
  <g
     inkscape:label="Layer 1"
     inkscape:groupmode="layer"
     id="layer1">
    <path
       style="opacity:1;vector-effect:none;fill:#000000;fill-opacity:1;stroke:#000000;stroke-width:0.20767608;stroke-linecap:butt;stroke-linejoin:miter;stroke-miterlimit:4;stroke-dasharray:none;stroke-dashoffset:0;stroke-opacity:1;marker:none;marker-start:none;marker-mid:none;marker-end:none"
       d="m 155.45678,101.55352 c -1.49472,0.67942 -2.4913,1.31337 -2.76306,1.99279 -0.27177,0.67943 -1.31352,2.26483 -1.4947,2.62719 -0.18118,0.36236 -0.49824,1.13232 -0.13589,2.44587 0.36236,1.31355 1.08719,3.17069 1.54013,4.80129 0.45295,1.63061 0.72444,3.71422 0.58856,4.93718 -0.13589,1.22296 -0.72444,2.71763 -0.72444,2.71763 0,0 0.27175,0.31693 0.95118,0.4981 0.67942,0.18118 1.58514,0.27178 1.9928,0 0.40764,-0.27176 1.13247,-0.58895 1.13247,-0.58895 0,0 -0.72496,-0.90586 -0.77026,-2.03823 -0.0453,-1.13237 0.0455,-2.4909 0.0455,-2.4909 0,0 0.4075,0.27149 0.63397,1.13208 0.22648,0.8606 0.31718,2.62731 0.99661,3.35203 0.67942,0.72471 2.35553,1.72129 3.89555,1.81189 1.54001,0.0906 3.62337,0.13561 4.16691,0.045 0.54353,-0.0906 3.03482,-0.72443 3.03482,-0.72443 0,0 -0.0453,-1.08746 -0.27176,-1.22335 -0.22648,-0.13588 -3.216,-1.81161 -3.57836,-2.12868 -0.36235,-0.31706 -2.53632,-1.67572 -2.53632,-2.26455 0,-0.58883 -0.86072,-4.2126 -1.13249,-5.25437 -0.27176,-1.04178 -3.62364,-7.38291 -4.12188,-8.2888 -0.49824,-0.90589 -1.44928,-1.35881 -1.44928,-1.35881 z m -0.0909,0.99619 c 0,0 0.54378,0.31718 0.90615,0.9966 0.36235,0.67943 1.4494,3.12555 1.90234,3.75967 0.45295,0.63413 2.31012,5.2088 2.4913,5.70704 0.18118,0.49824 0.63398,3.26116 0.63398,3.26116 0,0 -0.45293,1.4e-4 -0.95117,-0.0905 -0.49824,-0.0906 -0.95144,-2.44627 -1.04203,-2.98981 -0.0906,-0.54353 -4.12175,-9.8289 -3.94057,-10.64421 z"
       id="path956"
       inkscape:connector-curvature="0" />
    <path
       style="display:inline;overflow:visible;visibility:visible;opacity:1;fill:#000000;fill-opacity:1;fill-rule:evenodd;stroke:none;stroke-width:0.05927772;stroke-linecap:butt;stroke-linejoin:miter;stroke-miterlimit:4;stroke-dasharray:none;stroke-dashoffset:0;stroke-opacity:1;marker:none;marker-start:none;marker-mid:none;marker-end:none;enable-background:accumulate"
       d="m 126.97674,100.80851 v 3.7e-4 c -0.0567,0.005 -0.10866,0.027 -0.15421,0.0601 -0.13693,0.0678 -0.22757,0.23406 -0.18832,0.41185 0.0267,0.13234 -0.044,0.29844 -0.22651,0.50788 -0.10566,0.12658 -0.17093,0.19941 -0.22761,0.23836 -0.063,0.0231 -0.12559,0.005 -0.2354,-0.0319 -0.14538,-0.0538 -0.2012,-0.0678 -0.22465,-0.0241 -0.0533,8.3e-4 -0.0601,0.0454 -0.0638,0.15014 -0.007,0.0964 -0.039,0.15894 -0.0819,0.19425 -0.0893,0.027 -0.20422,-0.0425 -0.27617,-0.2139 -0.0615,-0.13961 -0.10938,-0.31018 -0.0949,-0.37961 0.003,-0.0718 -0.10668,-0.25872 -0.24911,-0.41519 -0.21137,-0.24017 -0.38551,-0.31177 -0.50638,-0.21538 -0.0539,0.0236 -0.10032,0.0718 -0.13606,0.15199 -0.0543,0.11545 0.0213,0.27609 0.34179,0.76551 0.37923,0.57908 0.40235,0.61924 0.25209,0.6973 -0.0991,0.051 -0.20673,0.0606 -0.24207,0.036 -0.0522,-0.0413 -0.10509,-0.0349 -0.14607,0.005 -0.0644,0.0202 -0.11632,0.10489 -0.12196,0.22798 -0.005,0.0839 -0.10002,0.19772 -0.23169,0.3051 -0.11186,-0.0224 -0.21861,0.002 -0.30176,0.0593 -0.081,0.0411 -0.14415,0.11188 -0.17756,0.20352 -0.0502,0.017 -0.0988,0.0316 -0.14199,0.0356 -0.10597,0.0104 -0.16551,0.0254 -0.20648,0.0601 -0.0629,0.027 -0.0943,0.0727 -0.12234,0.17126 -0.0543,0.20569 -1.05309,0.85429 -4.10336,2.6906 -0.15877,0.0955 -0.25526,0.15502 -0.42557,0.25728 -0.0177,0.0106 -0.0266,0.0163 -0.0445,0.027 -0.0118,0.007 -0.026,0.0158 -0.0378,0.023 -0.60298,0.36376 -1.25303,0.75997 -1.9199,1.16514 l -0.34736,0.19018 -0.92454,-0.66394 0.15421,-0.24912 c -1.87263,-1.53374 -3.19698,-1.38021 -4.34766,-0.78293 -0.002,8.2e-4 -0.004,0.002 -0.007,0.003 -0.0135,0.007 -0.0273,0.013 -0.0408,0.02 -0.88106,0.45733 -1.90247,1.42167 -1.90247,1.42167 l 0.0108,-0.007 c -0.18647,0.16095 -0.49864,0.43273 -0.70806,0.63873 -0.13385,0.13168 -0.27749,0.22686 -0.39406,0.2936 -0.10405,0.0557 -0.17942,0.0853 -0.17942,0.0853 l -0.29064,0.0949 c 0,0 0.003,0.0107 0.003,0.0123 l -0.05,0.0167 c 0,0 0.0329,0.11907 0.0808,0.22799 0.048,0.10893 0.21867,0.4413 0.27618,0.70769 0.0575,0.26637 -0.22343,0.66059 -0.54123,1.03241 -0.0793,0.0927 -0.18401,0.1774 -0.30917,0.25839 -3.1e-4,2e-4 -4.4e-4,5.5e-4 -7.4e-4,7.5e-4 -0.0503,0.0311 -0.10089,0.062 -0.15682,0.0923 -7.3e-4,4.2e-4 -0.002,7e-4 -0.002,8.3e-4 -0.36212,0.19632 -0.83496,0.38242 -1.33454,0.62204 l -0.003,0.007 c -0.014,0.007 -0.0268,0.0118 -0.0408,0.0185 l -0.0208,0.0434 c -0.34208,0.10466 -0.86413,0.21053 -1.21037,0.23355 h -0.16607 c -0.50067,-0.0285 -1.05198,-0.3228 -1.16254,-0.64059 -0.0431,-0.11161 -0.12763,-0.24739 -0.18981,-0.29656 -0.0653,-0.0494 -0.10094,-0.0524 -0.12974,-0.0126 -0.0381,-0.003 -0.059,0.0356 -0.0853,0.12381 -0.0282,0.0937 -0.13057,0.19286 -0.28582,0.29064 -0.27934,0.16625 -0.71064,0.32612 -1.21926,0.4404 -0.75533,0.16399 -1.422523,0.39993 -1.996632,0.70287 -0.959434,0.49547 -1.662714,1.1753 -2.07856,2.02035 -0.124922,0.25164 -0.352088,0.61935 -0.49749,0.82446 -0.344573,0.46541 -0.472784,1.13835 -0.336232,1.72824 0.35379,1.51657 0.493031,1.91434 1.10508,3.03202 0.609635,1.12924 0.625441,0.99065 0.852999,1.32157 0.695279,0.83289 0.934442,1.04509 1.294142,1.339 0.910663,0.70654 0.833083,0.59257 1.412023,0.94271 0.4982,0.30311 1.39093,0.56968 1.54474,0.46894 0.006,-0.003 0.006,-0.007 0.009,-0.0104 0,0 3.8e-4,-3.6e-4 3.8e-4,-3.6e-4 0.0149,-0.003 0.0272,-0.008 0.0367,-0.0144 0.0419,-0.0275 0.0122,-0.0481 -0.0712,-0.0534 -0.0788,0.002 -0.14472,-0.0319 -0.13049,-0.0712 1.1e-4,-0.002 0.003,-0.002 0.004,-0.004 0.0441,-0.0127 0.11316,-0.0148 0.19017,-0.002 0.24297,0.0507 0.4559,0.0412 1.24224,-0.0241 0.40595,-0.0361 0.52863,-0.0168 0.44448,0.0682 -0.19626,0.18846 0.76266,-0.11864 1.33307,-0.42224 0.01,-0.005 0.0193,-0.0121 0.0289,-0.0174 0.004,-0.002 0.009,-0.004 0.0137,-0.007 0.69384,-0.37447 1.40523,-1.09286 2.01072,-1.99887 0.31001,-0.46098 0.52165,-0.71787 0.73363,-0.85596 0.12689,-0.0723 0.25621,-0.10528 0.40889,-0.11232 0.16307,-0.004 0.23549,-0.0167 0.2658,-0.0578 0.0512,-0.0223 0.0646,-0.0603 0.0626,-0.13049 -0.002,-0.0788 -0.0891,-0.26731 -0.1898,-0.42112 -0.35497,-0.52677 -0.32811,-1.05124 0.083,-1.72009 0.37318,-0.58562 1.21469,-1.31747 1.97624,-1.76049 0.24658,-0.13993 0.48391,-0.24899 0.69248,-0.31065 0.5159,-0.15803 0.89335,-0.0274 1.19553,0.4341 0.13278,0.20275 0.21998,0.27599 0.2899,0.2302 0.007,-0.004 0.009,-0.0112 0.0134,-0.0167 0.011,-0.002 0.0217,-0.005 0.0319,-0.0119 0.0478,-0.0314 0.0397,-0.0955 -0.0171,-0.1772 l 0.0278,-0.0308 c 0.002,0.002 0.0129,0.0123 0.0129,0.0123 l 0.20166,-0.22539 c 0,0 0.1411,-0.14481 0.36626,-0.28026 0.0649,-0.0367 0.13412,-0.0725 0.21019,-0.10306 0.37024,-0.14891 1.07951,-0.49675 1.07951,-0.49675 l 0.0348,-0.0219 c 2.8e-4,-1.5e-4 0.0114,-0.006 0.0114,-0.006 l 1.8565,-1.16254 0.17016,-0.23614 c 0.0252,-0.007 0.0528,-0.0226 0.0827,-0.0464 0.17732,-0.0965 0.45034,-0.53132 0.63094,-0.96866 l 0.23133,-0.32623 -0.0416,-0.32622 c 0.1174,-0.71772 0.0431,-1.50361 -0.21946,-2.32507 0.21951,-0.16131 0.24244,-0.21905 0.16607,-0.23726 -0.0464,-0.005 -0.17972,-0.0931 -0.32622,-0.21353 -0.0789,-0.215 -0.12831,-0.44116 -0.1127,-0.51603 0.0244,-0.14584 3.37243,-2.57325 5.82457,-4.22903 0.45688,-0.30918 0.88238,-0.63019 0.95495,-0.71769 0.0274,-0.0296 0.0627,-0.0708 0.0971,-0.11047 0.027,0.0243 0.0539,0.0498 0.0797,0.0775 0.17371,0.19226 0.24993,0.23641 0.32993,0.16534 0.0192,-0.006 0.0377,-0.0186 0.0567,-0.0378 0.0747,-0.0689 0.0577,-0.18237 -0.0474,-0.37331 -0.0166,-0.0312 -0.0291,-0.0644 -0.0416,-0.0953 0.0414,-0.0641 0.0984,-0.13001 0.16015,-0.17757 0.007,-0.006 0.0138,-0.009 0.0207,-0.0141 0.0896,-0.0407 0.1458,0.0215 0.31918,0.28618 0.17856,0.27268 0.21881,0.42652 0.19128,0.67432 -0.0471,0.37048 0.14887,0.62278 0.51936,0.66987 0.10401,0.0166 0.21725,-0.0168 0.32103,-0.079 0.15895,-0.0789 0.30122,-0.23184 0.36033,-0.40444 0.0644,-0.222 -0.2782,-0.68818 -0.51009,-0.67617 -0.15066,-0.002 -0.25037,-0.0745 -0.41519,-0.32623 -0.21062,-0.32161 -0.20762,-0.34035 -0.0119,-0.46857 0.0182,-0.0119 0.034,-0.0184 0.0508,-0.0274 0.0897,-0.0349 0.16129,-0.0222 0.22984,0.0371 0.095,0.0847 0.17916,0.09 0.22317,0.0419 0.0683,-0.0154 0.10131,-0.0966 0.0597,-0.22354 -0.0252,-0.0799 -0.0224,-0.13134 -0.004,-0.16088 0.0645,-0.004 0.1707,0.0651 0.27952,0.20685 0.12387,0.15864 0.18353,0.30876 0.1594,0.42446 -0.0435,0.20827 0.0927,0.44784 0.35996,0.64244 0.12792,0.0927 0.20858,0.10131 0.34624,0.027 0.0373,-0.0162 0.079,-0.0402 0.12789,-0.0723 0.1748,-0.11447 0.24085,-0.2165 0.23725,-0.34402 -0.0279,-0.27143 -0.32014,-0.66664 -0.51009,-0.6821 -0.11112,-0.0172 -0.21117,-0.11474 -0.30249,-0.2847 -0.13002,-0.24128 -0.13289,-0.27094 0.099,-0.40148 0.21891,-0.12338 0.36907,-0.1398 0.60722,-0.0659 0.19656,0.0576 0.3643,0.0401 0.47228,-0.0315 0.1182,-0.0547 0.185,-0.16175 0.16793,-0.30806 -0.002,-0.10896 0.009,-0.29385 0.0356,-0.42112 0.0241,-0.1157 0.0275,-0.24869 0,-0.29064 -0.0229,-0.0349 0.0223,-0.13199 0.0949,-0.21946 0.10753,-0.11038 0.10993,-0.21375 0.0119,-0.40926 -0.0365,-0.071 -0.0732,-0.13464 -0.10676,-0.18387 -0.0335,-0.0493 -0.0679,-0.0829 -0.083,-0.083 -0.0178,-0.007 -0.0663,0.0144 -0.12234,0.0449 -0.0419,0.0175 -0.0933,0.0453 -0.14531,0.0793 -0.0898,0.0397 -0.18012,0.0302 -0.24837,-0.0352 -0.0912,-0.0808 -0.19978,-0.0795 -0.25505,-0.0267 -0.0593,0.0213 -0.0951,0.0793 -0.0722,0.16052 0.007,0.0254 -0.002,0.05 -0.0192,0.0686 -0.009,0.002 -0.0172,0.005 -0.0271,0.005 -0.15307,0.0104 -0.32539,-0.24703 -0.21352,-0.32029 0.0559,-0.0367 0.0219,-0.0753 -0.10084,-0.0949 -0.0289,-0.006 -0.0554,-0.008 -0.083,-0.006 z m -22.57353,23.44247 c 0.0557,-0.007 0.10712,0.009 0.12086,0.03 0.008,0.0118 -0.009,0.0368 -0.0378,0.0608 -0.032,0.003 -0.0693,-0.0134 -0.0901,-0.0452 -0.0104,-0.0159 -0.009,-0.0311 -0.001,-0.0437 0.003,-4.1e-4 0.005,-0.002 0.008,-0.002 z"
       id="path3204-6"
       inkscape:connector-curvature="0" />
    <path
       style="fill:#000000;fill-opacity:1;stroke:none;stroke-width:0.62520254"
       d="m 37.896467,103.74407 c 0,0 0.03213,0.273 0.05038,0.54029 0.01118,0.1863 0.01651,0.37102 -0.004,0.45297 -0.0184,0.0736 -0.06113,0.22883 -0.113743,0.39561 -0.0924,0.28207 -0.224264,0.60829 -0.381139,0.70241 -0.212719,0.12763 -0.497483,0.87075 -0.731349,1.33349 -0.0054,0.0106 -0.01112,0.0232 -0.01646,0.0334 -2.22e-4,4.3e-4 -2.75e-4,8.3e-4 -4.98e-4,0.002 -0.0337,0.0649 -0.06641,0.12321 -0.09728,0.17261 -0.01535,0.0246 -0.02726,0.0498 -0.03691,0.0753 -1.28e-4,3.4e-4 -3.71e-4,6.5e-4 -4.98e-4,8.3e-4 -0.0092,0.0242 -0.0154,0.049 -0.01996,0.0738 -3.07e-4,0.002 -0.0012,0.003 -0.0015,0.005 -0.0038,0.0221 -0.0049,0.044 -0.0055,0.0664 -1.32e-4,0.005 -9.95e-4,0.01 -9.95e-4,0.015 0,0 0,5e-4 0,5e-4 1.05e-4,0.0266 0.0026,0.0533 0.0065,0.0798 0.002,0.0129 0.0072,0.0255 0.01,0.0384 0.06454,0.30864 0.342226,0.59466 0.342226,0.59466 l -0.893482,0.89348 c 0,0 -0.01618,0.0825 -0.02395,0.19157 -0.01184,0.14263 -0.0088,0.33651 0.07583,0.50586 0.149349,0.2987 0.44803,0.69734 0.945863,0.89648 0.03329,0.0133 0.06895,0.023 0.105762,0.0309 0.156764,0.0438 0.313433,0.0518 0.467943,0.0359 l 0.04839,0.029 2.050868,-0.19256 c -0.0022,0.0602 0.01243,0.1401 0.06536,0.24594 0.149348,0.2987 0.248938,1.49363 0.248935,1.49363 l 0.07284,-0.53629 0.01895,0.37216 -0.0419,0.0644 0.06185,0.32028 0.0085,0.15964 0.138187,0.69144 -0.05937,0.0733 c 0,0 0.008,-8.3e-4 0.0085,-8.3e-4 l -0.0035,0.004 c 0,0 0.02197,-0.004 0.03742,-0.007 0.0076,-5.9e-4 0.02004,-0.002 0.03292,-0.003 l 0.306809,1.5046 -0.181591,-0.15365 c 3.55e-4,6.6e-4 6.44e-4,0.002 9.96e-4,0.002 l -0.0025,-0.002 c 0.398265,0.74675 0.448214,1.54331 0.7967,2.63854 0.348482,1.09523 0.796516,2.2901 0.945863,3.13641 0.14935,0.84632 0.0495,1.84228 0.09928,2.29033 0.04978,0.44804 -0.597281,0.1987 -0.895978,0.74632 -0.248478,0.45554 -0.288309,0.62834 -0.295333,0.67597 -2.25e-4,0.002 -0.0065,0.022 -0.0065,0.022 0,0 0.0027,-0.002 0.003,-0.002 v 0.002 c 0,0 0.0076,-0.007 0.02245,-0.0134 0,0 5e-4,0 5e-4,0 0.05043,-0.0208 0.20261,-0.046 0.522818,5e-4 0.03684,0.006 0.05984,0.005 0.101771,0.0129 0.136904,0.0249 0.273745,0.0776 0.402092,0.1352 0.03288,0.0148 0.05818,0.027 0.0898,0.0419 0.338893,0.16229 0.603139,0.31996 0.603139,-0.023 0,-0.002 -5e-6,-0.003 0,-0.005 0,-0.0238 0.0018,-0.0428 0.0025,-0.0649 0.0011,-0.035 0.0018,-0.0716 0.0045,-0.10278 5.1e-5,-6e-4 -5.1e-5,-0.002 0,-0.002 0.02027,-0.22384 0.0851,-0.36637 0.170616,-0.54477 0.01145,-0.0239 0.02015,-0.0442 0.03242,-0.0698 1.95e-4,-4.1e-4 3.07e-4,-8.3e-4 5.01e-4,-0.002 0.04186,-0.0868 0.08863,-0.18592 0.138187,-0.3098 0.199133,-0.49783 0.199051,-0.44766 0.199051,-1.24419 0,-0.79654 0.09927,-1.29475 0.09927,-2.09128 0,-0.79653 -0.09927,-0.69649 -0.09927,-1.44324 0,-0.0669 -0.0063,-0.12617 -0.0085,-0.19107 -0.0025,-0.0858 -0.0053,-0.16831 -0.01048,-0.24545 -0.0046,-0.0636 -0.0087,-0.12208 -0.01447,-0.18159 -0.0032,-0.0323 -0.0066,-0.0567 -0.01,-0.0873 -0.02177,-0.19686 -0.03558,-0.29391 -0.05687,-0.41256 l 0.386626,-0.27539 0.03043,0.024 0.02893,0.0289 0.24395,0.41008 0.106261,0.18209 0.02844,0.15216 0.271387,1.49213 0.319279,1.03815 0.07782,0.25841 c 0,0 -0.0189,0.21336 -0.02794,0.32228 -0.03127,0.36648 -0.09353,1.06919 -0.170116,1.56696 -0.03734,0.24269 -0.109845,0.46457 -0.193562,0.66001 -0.02759,0.0639 -0.05613,0.12547 -0.08531,0.18358 -4.79e-4,8.3e-4 -9.95e-4,0.002 -0.0015,0.003 -0.118508,0.23555 -0.242953,0.42189 -0.317284,0.54577 -0.149348,0.24891 -0.796429,0.54907 -1.144913,0.69842 -0.04386,0.0188 -0.07195,0.0385 -0.0873,0.0584 -0.0024,0.003 -0.0027,0.007 -0.0045,0.009 -0.08063,0.13556 0.390618,0.28086 0.390618,0.28086 0,0 0.0078,4.9e-4 0.008,5e-4 0.0141,8.3e-4 0.592193,0.0501 0.838107,0.0993 0.248917,0.0498 0.846587,-0.14967 0.846587,-0.14967 0,0 0.0015,-0.004 0.0015,-0.004 3.3e-5,-1e-5 0.0035,-8.3e-4 0.0035,-8.3e-4 0,0 0.199863,-0.48605 0.349212,-1.03367 0.1115,-0.40881 0.553802,-0.90683 0.771257,-1.13344 0.0022,-0.002 0.0014,-0.002 0.0035,-0.003 0,0 5.01e-4,-5e-4 5.01e-4,-5e-4 0.0682,-0.0694 0.115239,-0.11325 0.115239,-0.11325 0,0 -4.96e-4,-0.002 -4.98e-4,-0.002 1.02e-4,-1e-4 0.004,-0.004 0.004,-0.004 0,0 -0.09599,-0.449 -0.195557,-0.69793 -0.08063,-0.20158 0.0924,-0.75554 0.215513,-1.329 0.02161,-0.0999 0.04075,-0.19928 0.05737,-0.29832 0.0058,-0.0347 0.01506,-0.0699 0.01996,-0.10427 0.09956,-0.69696 0.251434,-1.80109 0.251434,-2.59763 0,-0.23196 -0.0022,-0.49098 0,-0.73983 0,0 0.03939,0.007 0.06984,0.0134 0.161482,0.033 0.625486,0.1166 0.872033,0.0344 0.298699,-0.0996 2.937365,-0.7967 2.937365,-0.7967 l 2.488879,-0.89597 c 0,0 0.298741,0.99558 0.497877,1.39385 0.08955,0.1791 0.314625,0.52132 0.552747,0.85507 0.288828,0.40937 0.599331,0.80778 0.736337,0.88999 0.217799,0.13067 0.664936,0.75121 1.240203,1.30455 0,0 4.98e-4,5e-4 4.98e-4,5e-4 0.0017,0.002 0.0025,0.002 0.0041,0.004 0.08079,0.0776 0.164422,0.15369 0.249934,0.22698 0.0017,0.002 0.0025,0.003 0.0041,0.004 0.04139,0.0358 0.07839,0.0704 0.110256,0.10377 3.73e-4,3.8e-4 6.22e-4,8.3e-4 8.3e-4,0.002 0.411385,0.4324 0.05831,0.67035 -0.127211,0.87252 -0.0075,0.008 -0.01667,0.0164 -0.02348,0.0245 -0.02787,0.0326 -0.05018,0.0646 -0.06287,0.0963 -0.08046,0.2012 -0.124315,0.67484 -0.165126,1.18433 -0.01,0.12212 -0.02182,0.23071 -0.03144,0.35569 -0.0058,0.0799 -0.01626,0.14421 -0.02994,0.19656 -0.09887,0.36599 -0.386276,0.11599 -0.821144,0.24644 -0.497843,0.14936 -0.349215,0.65652 -0.349215,0.65652 0,0 0.348742,0.0948 0.62609,0.15216 0.01866,0.004 0.03807,0.009 0.05591,0.0124 0.09099,0.0181 0.170717,0.0304 0.219507,0.0304 7.3e-4,0 0.0025,-4.9e-4 0.0033,-5e-4 7.88e-4,1e-5 0.0025,5e-4 0.0033,5e-4 0.09377,0 0.331962,-0.091 0.557243,-0.18608 0.01302,-0.006 0.02546,-0.009 0.0384,-0.0149 0.0017,-5.5e-4 8.3e-4,-4.5e-4 0.0025,-8.3e-4 0.0085,-0.003 0.0075,-0.004 0.01593,-0.007 0.221399,-0.0942 0.425039,-0.18858 0.425039,-0.18858 0,0 4.97e-4,-0.003 4.97e-4,-0.003 1.17e-4,-6e-5 0.0075,-0.003 0.0075,-0.003 0,0 0.293341,-1.33942 0.293341,-1.78746 0,-0.16802 0.112014,-0.39297 0.251932,-0.60813 0.04579,-0.0704 0.09484,-0.13948 0.143676,-0.20553 0.199127,-0.26759 0.398097,-0.47893 0.398097,-0.47893 l -4.98e-4,-0.002 c 5.8e-5,-5e-5 0.0033,-0.003 0.0033,-0.003 l -0.01045,-0.023 -0.20753,-0.73883 c 0.317594,0.42877 0.657826,0.88831 0.860056,1.16637 0.232572,0.31979 0.339618,0.49314 0.466447,0.73284 0.08919,0.17058 0.175793,0.3466 0.382635,0.76029 0.497826,0.99566 0.149167,1.69267 0.149167,1.69267 l -0.322273,0.13619 -0.969317,0.40659 0.0033,0.002 -0.0058,0.002 0.133191,0.0888 0.162638,0.11623 1.647781,0.0978 c 0,0 0.25321,-0.55768 0.153646,-1.00573 -0.09956,-0.44805 -0.203432,-1.48363 -0.153646,-2.42951 0.04985,-0.94588 -0.09778,-1.45222 -0.09778,-1.45222 l -0.695933,-0.94736 -0.456468,-0.62708 -0.04089,-0.27239 0.04438,0.0594 -8.3e-4,-0.007 0.005,0.007 -0.04239,-0.23796 -0.169614,-1.04713 -0.332749,-2.09427 c 0.0083,0.0491 0.01543,0.12112 0.02347,0.18358 l -0.03044,-0.18957 c 0.01841,0.1104 0.03558,0.2396 0.05242,0.38014 l -0.101228,-0.58517 c -0.03583,-0.22701 -0.05665,-0.32772 -0.08381,-0.48889 l -0.05591,-0.34872 c -0.0083,-0.0444 -0.01758,-0.0844 -0.02596,-0.12721 -0.0075,-0.0393 -0.01841,-0.0928 -0.02596,-0.13021 -0.04529,-0.22118 -0.09357,-0.43812 -0.157147,-0.69243 0,0 -4.97e-4,-5.1e-4 -4.97e-4,-5.1e-4 -0.149607,-0.59701 -0.989424,-1.6451 -0.990768,-1.64677 l 0.791715,-0.69293 c 0,0 0.238536,-0.17497 0.549255,-0.42904 0.01584,-0.0129 0.0277,-0.0221 0.04388,-0.0354 0.556761,-0.45638 1.324495,-1.15409 1.449226,-1.62183 0.111118,-0.41667 0.296642,-1.26862 0.423545,-2.07183 0.101032,-0.6334 0.166694,-1.23717 0.122723,-1.56695 -2.82e-4,-0.002 -8.29e-4,-0.004 -0.0017,-0.006 -0.01219,-0.0912 -0.03036,-0.17759 -0.05284,-0.25941 -1.91e-4,-6.9e-4 -3.07e-4,-0.002 -4.98e-4,-0.002 -0.02298,-0.0832 -0.0506,-0.16104 -0.08079,-0.23398 -0.02795,-0.0675 -0.05798,-0.12976 -0.08929,-0.18808 -0.0025,-0.005 -0.005,-0.0114 -0.0083,-0.0164 0,0 -4.97e-4,-5e-4 -4.97e-4,-5e-4 -0.0087,-0.0159 -0.01759,-0.0287 -0.02646,-0.0439 -0.163169,-0.28359 -0.337735,-0.4445 -0.337735,-0.4445 0,0 -8.29e-4,0.005 -8.29e-4,0.005 -8.3e-5,-7e-5 -0.0033,-0.003 -0.0033,-0.003 0,0 -0.249644,1.23986 -0.349207,1.78747 -0.05757,0.31676 -0.147052,0.67739 -0.249436,1.10949 -0.07656,0.31496 -0.159345,0.66352 -0.243455,1.08405 -0.06221,0.31115 -0.129616,0.52025 -0.233468,0.68646 -0.0093,0.0148 -0.01999,0.0282 -0.02994,0.0424 -0.01186,0.0166 -0.02264,0.034 -0.03542,0.0499 -0.242369,0.30149 -0.658523,0.47828 -1.498614,1.00723 -0.670153,0.42195 -0.931409,0.47433 -1.093035,0.40209 -0.159345,-0.0758 -0.222942,-0.27205 -0.494881,-0.34622 -0.23706,-0.0646 -0.656998,-0.10966 -1.128944,-0.15315 -0.07424,-0.007 -0.135356,-0.0147 -0.212523,-0.0215 -0.28196,-0.0249 -0.581307,-0.0494 -0.878015,-0.0773 -8.29e-4,-1e-4 -0.0025,-3.8e-4 -0.0033,-4.9e-4 -0.296675,-0.028 -0.590671,-0.0592 -0.863548,-0.0963 -8.3e-4,-1.6e-4 -0.0025,-3.4e-4 -0.0033,-5.1e-4 -0.135746,-0.0185 -0.273118,-0.032 -0.412066,-0.0419 -0.982099,-0.07 -2.051729,0.063 -3.316508,0.23747 -1.443715,0.19913 -1.586542,0.0978 -1.885241,0.0978 -0.201654,0 -0.820715,-0.11615 -1.642789,-0.35819 l -1.782475,-0.87204 c -0.0013,-0.002 -0.0054,-0.007 -0.007,-0.009 -0.03065,-0.0392 -0.180502,-0.22985 -0.407578,-0.54776 -0.04098,-0.0574 -0.07573,-0.0938 -0.112746,-0.13918 -0.02271,-0.028 -0.04738,-0.0616 -0.06935,-0.0858 -0.07669,-0.0839 -0.152495,-0.153 -0.236963,-0.20753 l -0.377148,-0.46089 c 0.03661,-0.0406 0.0637,-0.0889 0.0868,-0.13369 0.0032,-0.006 0.0076,-0.0113 0.01048,-0.0169 0.01262,-0.0252 0.02061,-0.0547 0.02445,-0.0873 0.02895,-0.22471 -0.132171,-0.61346 -0.219503,-0.96283 -0.09957,-0.39826 -0.100294,-0.39363 -0.349212,-0.64254 -0.248915,-0.24892 -0.599087,-0.35352 -1.047135,-0.50287 -0.213559,-0.0712 -0.351753,-0.12619 -0.446492,-0.16662 -0.105711,-0.0484 -0.152155,-0.0773 -0.152155,-0.0773 8.25e-4,0.003 0.0012,0.006 0.002,0.008 -7.1e-5,-4e-5 -0.004,-0.002 -0.004,-0.002 0.09956,0.34848 -0.0018,0.63898 0.09778,0.83811 l -0.103765,0.0389 0.008,-0.18658 c 0,0 -0.0024,-4.9e-4 -0.0025,-4.9e-4 l 5.01e-4,-0.006 c 0,0 -0.0463,-0.003 -0.127214,-0.0174 -0.03558,-0.007 -0.05984,-0.0114 -0.119729,-0.0265 -0.0509,-0.0127 -0.111512,-0.0151 -0.173608,-0.0124 -0.0017,6e-5 -0.0033,4.1e-4 -0.005,4.9e-4 -0.179703,0.006 -0.370165,0.0559 -0.370165,0.0559 0,0 -0.241763,-0.44772 -0.391115,-0.79621 -0.114111,-0.26626 -0.457558,-0.35261 -0.615111,-0.37913 -0.0061,-8.3e-4 -0.0044,-5.3e-4 -0.01,-0.002 -0.04349,-0.007 -0.07782,-0.0119 -0.07782,-0.0119 z m 5.059571,4.41454 0.113742,0.11374 -0.03442,-0.0169 z"
       id="path3050-6"
       inkscape:connector-curvature="0" />
    <path
       style="opacity:1;vector-effect:none;fill:none;fill-opacity:1;stroke:#000000;stroke-width:0.35277778;stroke-linecap:butt;stroke-linejoin:miter;stroke-miterlimit:4;stroke-dasharray:none;stroke-dashoffset:0;stroke-opacity:1;marker:none;marker-start:none;marker-mid:none;marker-end:none"
       d="m 48.174271,111.28143 c 0.900451,-8.55431 2.251133,-16.208165 2.251133,-16.208165"
       id="path2616"
       inkscape:connector-curvature="0" />
    <path
       style="opacity:1;vector-effect:none;fill:none;fill-opacity:1;stroke:#000000;stroke-width:0.35277778;stroke-linecap:butt;stroke-linejoin:miter;stroke-miterlimit:4;stroke-dasharray:none;stroke-dashoffset:0;stroke-opacity:1;marker:none;marker-start:none;marker-mid:none;marker-end:none"
       d="M 38.94462,108.12985 C 31.515877,105.6536 21.610888,105.42849 21.610888,105.42849"
       id="path2618"
       inkscape:connector-curvature="0" />
    <path
       style="opacity:1;vector-effect:none;fill:none;fill-opacity:1;stroke:#000000;stroke-width:0.35277778;stroke-linecap:butt;stroke-linejoin:miter;stroke-miterlimit:4;stroke-dasharray:none;stroke-dashoffset:0;stroke-opacity:1;marker:none;marker-start:none;marker-mid:none;marker-end:none"
       d="m 45.022681,114.20791 c -6.753402,2.70136 -17.333732,10.80544 -17.333732,10.80544"
       id="path2620"
       inkscape:connector-curvature="0" />
    <path
       style="opacity:1;vector-effect:none;fill:none;fill-opacity:1;stroke:#000000;stroke-width:0.35277778;stroke-linecap:butt;stroke-linejoin:miter;stroke-miterlimit:4;stroke-dasharray:none;stroke-dashoffset:0;stroke-opacity:1;marker:none;marker-start:none;marker-mid:none;marker-end:none"
       d="m 49.52495,115.10836 c 1.35068,6.97852 0.675341,20.71044 0.675341,20.71044"
       id="path2622"
       inkscape:connector-curvature="0" />
    <path
       style="opacity:1;vector-effect:none;fill:none;fill-opacity:1;stroke:#000000;stroke-width:0.35277778;stroke-linecap:butt;stroke-linejoin:miter;stroke-miterlimit:4;stroke-dasharray:none;stroke-dashoffset:0;stroke-opacity:1;marker:none;marker-start:none;marker-mid:none;marker-end:none"
       d="m 54.027219,116.00882 c 7.203628,-1.12557 14.632371,-1.5758 14.632371,-1.5758"
       id="path2624"
       inkscape:connector-curvature="0" />
    <path
       style="opacity:1;vector-effect:none;fill:none;fill-opacity:1;stroke:#000000;stroke-width:0.35277778;stroke-linecap:butt;stroke-linejoin:miter;stroke-miterlimit:4;stroke-dasharray:none;stroke-dashoffset:0;stroke-opacity:1;marker:none;marker-start:none;marker-mid:none;marker-end:none"
       d="m 107.60421,92.146791 c 2.02602,8.779419 4.27716,19.134639 4.27716,19.134639"
       id="path2626"
       inkscape:connector-curvature="0" />
    <path
       style="opacity:1;vector-effect:none;fill:none;fill-opacity:1;stroke:#000000;stroke-width:0.35277778;stroke-linecap:butt;stroke-linejoin:miter;stroke-miterlimit:4;stroke-dasharray:none;stroke-dashoffset:0;stroke-opacity:1;marker:none;marker-start:none;marker-mid:none;marker-end:none"
       d="m 87.344003,128.61516 c 11.030558,-6.52829 17.108617,-11.25567 17.108617,-11.25567"
       id="path2628"
       inkscape:connector-curvature="0" />
    <path
       style="opacity:1;vector-effect:none;fill:none;fill-opacity:1;stroke:#000000;stroke-width:0.35277778;stroke-linecap:butt;stroke-linejoin:miter;stroke-miterlimit:4;stroke-dasharray:none;stroke-dashoffset:0;stroke-opacity:1;marker:none;marker-start:none;marker-mid:none;marker-end:none"
       d="m 122.4617,134.69323 c -8.3292,-9.45477 -12.83147,-16.88351 -12.83147,-16.88351"
       id="path2630"
       inkscape:connector-curvature="0" />
    <g
       id="g2641"
       transform="rotate(19.267891,160.72994,117.1325)">
      <path
         inkscape:connector-curvature="0"
         id="path2632"
         d="m 152.37258,135.66674 c 2.02602,-19.58487 -2.67216,-44.420403 -2.67216,-44.420403"
         style="opacity:1;vector-effect:none;fill:none;fill-opacity:1;stroke:#000000;stroke-width:0.35277778;stroke-linecap:butt;stroke-linejoin:miter;stroke-miterlimit:4;stroke-dasharray:none;stroke-dashoffset:0;stroke-opacity:1;marker:none;marker-start:none;marker-mid:none;marker-end:none"
         sodipodi:nodetypes="cc" />
      <path
         inkscape:connector-curvature="0"
         id="path2634"
         d="m 157.33453,136.79902 c 0.22512,-12.83147 3.39645,-42.851322 3.39645,-42.851322"
         style="opacity:1;vector-effect:none;fill:none;fill-opacity:1;stroke:#000000;stroke-width:0.35277778;stroke-linecap:butt;stroke-linejoin:miter;stroke-miterlimit:4;stroke-dasharray:none;stroke-dashoffset:0;stroke-opacity:1;marker:none;marker-start:none;marker-mid:none;marker-end:none"
         sodipodi:nodetypes="cc" />
      <path
         inkscape:connector-curvature="0"
         id="path2636"
         d="m 161.25288,136.71124 c 1.80091,-14.18214 10.50865,-40.06218 10.50865,-40.06218"
         style="opacity:1;vector-effect:none;fill:none;fill-opacity:1;stroke:#000000;stroke-width:0.35277778;stroke-linecap:butt;stroke-linejoin:miter;stroke-miterlimit:4;stroke-dasharray:none;stroke-dashoffset:0;stroke-opacity:1;marker:none;marker-start:none;marker-mid:none;marker-end:none"
         sodipodi:nodetypes="cc" />
    </g>
    <path
       style="opacity:1;vector-effect:none;fill:#000000;fill-opacity:1;stroke:none;stroke-width:0.07949924;stroke-linecap:butt;stroke-linejoin:miter;stroke-miterlimit:4;stroke-dasharray:none;stroke-dashoffset:0;stroke-opacity:1;marker:none;marker-start:none;marker-mid:none;marker-end:none"
       d="m 49.75909,98.382138 -2.582532,4.649862 2.077644,-0.85293 1.570884,1.41874 z"
       id="path2643"
       inkscape:connector-curvature="0"
       sodipodi:nodetypes="ccccc" />
    <path
       style="opacity:1;vector-effect:none;fill:#000000;fill-opacity:1;stroke:none;stroke-width:0.07949924;stroke-linecap:butt;stroke-linejoin:miter;stroke-miterlimit:4;stroke-dasharray:none;stroke-dashoffset:0;stroke-opacity:1;marker:none;marker-start:none;marker-mid:none;marker-end:none"
       d="m 27.214532,106.1559 4.706771,2.47728 -0.899448,-2.05794 1.383045,-1.6024 z"
       id="path2643-2"
       inkscape:connector-curvature="0"
       sodipodi:nodetypes="ccccc" />
    <path
       style="opacity:1;vector-effect:none;fill:#000000;fill-opacity:1;stroke:none;stroke-width:0.07949924;stroke-linecap:butt;stroke-linejoin:miter;stroke-miterlimit:4;stroke-dasharray:none;stroke-dashoffset:0;stroke-opacity:1;marker:none;marker-start:none;marker-mid:none;marker-end:none"
       d="m 28.992068,123.6457 5.075913,-1.58925 -2.093236,-0.81392 -0.160413,-2.11063 z"
       id="path2643-9"
       inkscape:connector-curvature="0"
       sodipodi:nodetypes="ccccc" />
    <path
       style="opacity:1;vector-effect:none;fill:#000000;fill-opacity:1;stroke:none;stroke-width:0.07949924;stroke-linecap:butt;stroke-linejoin:miter;stroke-miterlimit:4;stroke-dasharray:none;stroke-dashoffset:0;stroke-opacity:1;marker:none;marker-start:none;marker-mid:none;marker-end:none"
       d="m 50.349923,134.27998 2.07896,-4.89577 -1.97637,1.06679 -1.71144,-1.24559 z"
       id="path2643-1"
       inkscape:connector-curvature="0"
       sodipodi:nodetypes="ccccc" />
    <path
       style="opacity:1;vector-effect:none;fill:#000000;fill-opacity:1;stroke:none;stroke-width:0.07949924;stroke-linecap:butt;stroke-linejoin:miter;stroke-miterlimit:4;stroke-dasharray:none;stroke-dashoffset:0;stroke-opacity:1;marker:none;marker-start:none;marker-mid:none;marker-end:none"
       d="m 68.361452,114.73718 -5.201589,-1.11093 1.422858,1.73769 -0.897737,1.91692 z"
       id="path2643-27"
       inkscape:connector-curvature="0"
       sodipodi:nodetypes="ccccc" />
    <path
       style="opacity:1;vector-effect:none;fill:#000000;fill-opacity:1;stroke:none;stroke-width:0.07949924;stroke-linecap:butt;stroke-linejoin:miter;stroke-miterlimit:4;stroke-dasharray:none;stroke-dashoffset:0;stroke-opacity:1;marker:none;marker-start:none;marker-mid:none;marker-end:none"
       d="m 93.969331,124.50489 -5.14284,1.35718 2.05413,0.9081 0.0644,2.11574 z"
       id="path2643-0"
       inkscape:connector-curvature="0"
       sodipodi:nodetypes="ccccc" />
    <path
       style="opacity:1;vector-effect:none;fill:#000000;fill-opacity:1;stroke:none;stroke-width:0.07949924;stroke-linecap:butt;stroke-linejoin:miter;stroke-miterlimit:4;stroke-dasharray:none;stroke-dashoffset:0;stroke-opacity:1;marker:none;marker-start:none;marker-mid:none;marker-end:none"
       d="m 109.33345,99.571605 0.56876,-5.2884 -1.58175,1.59443 -1.99925,-0.69534 z"
       id="path2643-93"
       inkscape:connector-curvature="0"
       sodipodi:nodetypes="ccccc" />
    <path
       style="opacity:1;vector-effect:none;fill:#000000;fill-opacity:1;stroke:none;stroke-width:0.07949924;stroke-linecap:butt;stroke-linejoin:miter;stroke-miterlimit:4;stroke-dasharray:none;stroke-dashoffset:0;stroke-opacity:1;marker:none;marker-start:none;marker-mid:none;marker-end:none"
       d="m 113.98944,124.25374 1.37663,5.13765 0.90032,-2.05754 2.11548,-0.0724 z"
       id="path2643-6"
       inkscape:connector-curvature="0"
       sodipodi:nodetypes="ccccc" />
    <path
       style="opacity:1;vector-effect:none;fill:#000000;fill-opacity:1;stroke:none;stroke-width:0.07949924;stroke-linecap:butt;stroke-linejoin:miter;stroke-miterlimit:4;stroke-dasharray:none;stroke-dashoffset:0;stroke-opacity:1;marker:none;marker-start:none;marker-mid:none;marker-end:none"
       d="m 158.42693,91.658874 -2.8916,4.464224 2.13065,-0.71022 1.47117,1.5219 z"
       id="path2643-06"
       inkscape:connector-curvature="0"
       sodipodi:nodetypes="ccccc" />
    <path
       style="opacity:1;vector-effect:none;fill:#000000;fill-opacity:1;stroke:none;stroke-width:0.07949924;stroke-linecap:butt;stroke-linejoin:miter;stroke-miterlimit:4;stroke-dasharray:none;stroke-dashoffset:0;stroke-opacity:1;marker:none;marker-start:none;marker-mid:none;marker-end:none"
       d="m 166.78676,98.894327 -3.89379,3.623393 2.23956,-0.16867 1.05519,1.83496 z"
       id="path2643-26"
       inkscape:connector-curvature="0"
       sodipodi:nodetypes="ccccc" />
    <path
       style="opacity:1;vector-effect:none;fill:#000000;fill-opacity:1;stroke:none;stroke-width:0.07949924;stroke-linecap:butt;stroke-linejoin:miter;stroke-miterlimit:4;stroke-dasharray:none;stroke-dashoffset:0;stroke-opacity:1;marker:none;marker-start:none;marker-mid:none;marker-end:none"
       d="m 174.83023,105.32155 -4.58414,2.69746 2.22318,0.31874 0.63421,2.01947 z"
       id="path2643-18"
       inkscape:connector-curvature="0"
       sodipodi:nodetypes="ccccc" />
  </g>
</svg>
