<?xml version="1.0" encoding="UTF-8" standalone="no"?>
<!-- Generator: Adobe Illustrator 11 Build 196, SVG Export Plug-In . SVG Version: 6.0.0 Build 78)  -->

<svg
   xmlns:dc="http://purl.org/dc/elements/1.1/"
   xmlns:cc="http://creativecommons.org/ns#"
   xmlns:rdf="http://www.w3.org/1999/02/22-rdf-syntax-ns#"
   xmlns:svg="http://www.w3.org/2000/svg"
   xmlns="http://www.w3.org/2000/svg"
   xmlns:sodipodi="http://sodipodi.sourceforge.net/DTD/sodipodi-0.dtd"
   xmlns:inkscape="http://www.inkscape.org/namespaces/inkscape"
   width="128.197"
   height="80.572"
   viewBox="0 0 128.197 80.572"
   style="overflow:visible;enable-background:new 0 0 128.197 80.572"
   xml:space="preserve"
   version="1.1"
   id="svg67"
   sodipodi:docname="generator-one-loop.svg"
   inkscape:version="0.92.5 (2060ec1f9f, 2020-04-08)"><metadata
   id="metadata73"><rdf:RDF><cc:Work
       rdf:about=""><dc:format>image/svg+xml</dc:format><dc:type
         rdf:resource="http://purl.org/dc/dcmitype/StillImage" /></cc:Work></rdf:RDF></metadata><defs
   id="defs71">
		
			 
		
		
		
		
		
		
		
		
	
			
			
		
			
			
			
		
			
			
			
			
			
			
			
			
			
			
			
			
			
		
			 
			 
			
			 
			
		</defs><sodipodi:namedview
   pagecolor="#ffffff"
   bordercolor="#666666"
   borderopacity="1"
   objecttolerance="10"
   gridtolerance="10"
   guidetolerance="10"
   inkscape:pageopacity="0"
   inkscape:pageshadow="2"
   inkscape:window-width="1280"
   inkscape:window-height="998"
   id="namedview69"
   showgrid="false"
   inkscape:snap-global="false"
   inkscape:zoom="2.5002109"
   inkscape:cx="74.658523"
   inkscape:cy="29.560227"
   inkscape:window-x="0"
   inkscape:window-y="0"
   inkscape:window-maximized="1"
   inkscape:current-layer="svg67" />
	<path
   style="opacity:1;vector-effect:none;fill:#b4b4b4;fill-opacity:1;stroke:none;stroke-width:0.93333334;stroke-linecap:butt;stroke-linejoin:miter;stroke-miterlimit:4;stroke-dasharray:none;stroke-dashoffset:0;stroke-opacity:1"
   d="M 48.467992,56.487043 36.48513,78.366198 30.583124,80.333534 43.817926,56.367811 Z"
   id="path965"
   inkscape:connector-curvature="0" /><rect
   id="rect2"
   height="12.836029"
   width="37.825085"
   style="fill:#b4b4b4;stroke:#000000;stroke-width:0.50000107;fill-opacity:1"
   transform="rotate(119.3668)"
   y="-65.963219"
   x="17.121693" /><ellipse
   style="fill:#ffffff;stroke:#000000"
   cx="110.991"
   cy="35.980999"
   rx="16.291"
   ry="7.1869998"
   id="ellipse6" /><ellipse
   style="fill:#ffffff;stroke:#000000"
   cx="110.991"
   cy="33.525002"
   rx="16.291"
   ry="7.1869998"
   id="ellipse8" /><path
   style="fill:#ffffff;stroke:#000000"
   d="m 99.779,32.847 c 5.646,-1.468 7.228,-11.858 7.228,-11.858 h 8.809 c 0,0 0.48,9.684 5.901,12.395"
   id="path10"
   inkscape:connector-curvature="0" /><circle
   style="fill:#ffffff;stroke:#000000"
   cx="110.991"
   cy="15.992"
   r="6.7080002"
   id="circle12" /><path
   style="fill:#ffffff;stroke:#000000;stroke-width:0.5"
   d="m 108.701,19.182 c -0.452,-3.614 -0.565,-6.55 0.226,-4.969 0.791,1.581 -0.113,0.791 1.129,-0.226 1.242,-1.017 2.146,-1.581 2.259,-0.113 0.113,1.468 -1.129,2.937 -0.565,1.468 0.565,-1.468 2.033,-2.033 2.259,0.791 0.226,2.823 -0.226,3.275 -0.226,3.275"
   id="path14"
   inkscape:connector-curvature="0" /><path
   style="fill:#dcdcdc;stroke:#000000;stroke-width:0.5"
   d="m 79.689,53.96 c -0.403,0.696 -1.291,0.938 -1.986,0.534 C 77.007,54.1 76.765,53.213 77.169,52.517 77.37,51.559 77.804,50.621 77.663,49.633 77.441,48.03 76.574,46.588 75.495,45.378 74.578,44.35 73.731,43.361 72.551,42.575 69.153,40.316 65.573,39.106 61.863,37.957 56.095,37.089 50.408,35.517 44.529,35.89 c -0.55,-0.17 -0.821,-0.089 -1.371,-0.091 -0.544,0.182 -1.089,0.182 -1.855,0.171 -3.055,0.444 -6.081,0.051 -9.176,0.414 -0.736,0.081 -1.508,0.054 -2.219,0.141 -2.964,0.363 -3.69,0.605 -7.008,1.271 -3.056,0.613 -5.959,1.331 -8.964,1.936 -4.114,1.634 -8.53,3.398 -10.92,7.371 0.021,0.01 0.041,0.02 0.061,0.03 -0.312,0.736 -1.16,1.089 -1.906,0.776 -0.736,-0.312 -1.089,-1.16 -0.776,-1.906 2.077,-3.933 5.949,-6.423 10.053,-7.916 0.303,-0.111 0.535,-0.343 0.837,-0.454 3.469,-1.261 7.099,-1.825 10.699,-2.491 3.388,-0.797 6.413,-1.281 10.154,-1.644 2.854,-0.182 5.694,-0.123 8.607,-0.376 0.237,-0.168 0.708,-0.047 1.022,-0.047 0.615,-0.05 1.119,-0.202 1.754,-0.121 0.484,0.07 0.827,0.01 1.281,0.03 1.754,0.101 3.499,-0.05 5.253,0.081 4.346,0.343 8.379,1.341 12.786,2.188 1.019,0.191 1.957,0.474 2.894,0.908 1.966,0.897 3.973,1.532 5.929,2.47 2.692,1.281 4.79,3.196 6.615,5.576 1.079,1.412 1.916,2.884 2.249,4.648 0.331,1.767 -0.214,3.511 -0.839,5.105 z"
   id="path26"
   inkscape:connector-curvature="0" /><path
   style="fill:#dcdcdc;stroke:#000000;stroke-width:0.5"
   d="m 79.661,39.306 c -0.403,-0.696 -1.291,-0.938 -1.986,-0.535 -0.696,0.394 -0.938,1.281 -0.535,1.977 0.202,0.958 0.635,1.896 0.494,2.884 -0.222,1.604 -1.089,3.045 -2.168,4.255 -0.917,1.028 -1.765,2.017 -2.944,2.803 -3.398,2.259 -6.978,3.469 -10.688,4.618 -5.768,0.867 -11.455,2.44 -17.333,2.067 -0.551,0.17 -0.821,0.089 -1.371,0.091 -0.545,-0.181 -1.089,-0.181 -1.855,-0.171 -3.056,-0.443 -6.081,-0.05 -9.176,-0.413 -0.736,-0.081 -1.508,-0.054 -2.218,-0.142 -2.964,-0.363 -3.69,-0.605 -7.008,-1.271 -3.056,-0.613 -5.959,-1.331 -8.964,-1.936 -4.114,-1.634 -8.531,-3.398 -10.92,-7.371 0.02,-0.01 0.04,-0.021 0.061,-0.03 -0.312,-0.736 -1.16,-1.089 -1.906,-0.776 -0.736,0.312 -1.089,1.159 -0.776,1.905 2.077,3.933 5.949,6.423 10.053,7.916 0.302,0.111 0.534,0.343 0.837,0.454 3.469,1.26 7.099,1.825 10.698,2.491 3.388,0.796 6.413,1.28 10.154,1.644 2.854,0.182 5.694,0.123 8.607,0.376 0.237,0.168 0.707,0.047 1.022,0.047 0.615,0.05 1.119,0.202 1.754,0.121 0.484,-0.071 0.827,-0.01 1.281,-0.03 1.754,-0.101 3.499,0.05 5.253,-0.081 4.346,-0.343 8.379,-1.341 12.786,-2.188 1.019,-0.191 1.957,-0.474 2.894,-0.907 1.966,-0.897 3.973,-1.533 5.929,-2.471 2.692,-1.28 4.79,-3.196 6.615,-5.576 1.079,-1.412 1.916,-2.884 2.249,-4.648 0.33,-1.765 -0.214,-3.51 -0.839,-5.103 z"
   id="path36"
   inkscape:connector-curvature="0" /><line
   id="line46"
   y2="10.254"
   x2="128.11301"
   y1="12.674"
   x1="121.337"
   style="fill:#ffffff;stroke:#000000;stroke-width:0.5" /><line
   id="line48"
   y2="0.090000004"
   x2="117.949"
   y1="6.382"
   x1="115.529"
   style="fill:#ffffff;stroke:#000000;stroke-width:0.5" /><line
   id="line50"
   y2="2.51"
   x2="97.621002"
   y1="8.3179998"
   x1="102.945"
   style="fill:#ffffff;stroke:#000000;stroke-width:0.5" /><polygon
   style="fill:#b4b4b4;stroke:#000000;stroke-width:0.5;stroke-linejoin:round"
   points="56.606,31.012 61.781,29.946 50.457,24.182 45.281,25.247 "
   id="polygon52" /><path
   style="fill:#b4b4b4;stroke:#000000;stroke-width:0.5"
   d="m 33.416,49.317 c 0.71,0.087 1.482,0.061 2.218,0.141 3.096,0.363 6.121,-0.03 9.176,0.414 0.766,-0.01 1.311,-0.01 1.855,0.171 0.111,0 0.205,0.003 0.297,0.007 l 9.655,-18.967 -11.438,-5.823 -12.217,24 c 0.146,0.019 0.295,0.038 0.454,0.057 z"
   id="path54"
   inkscape:connector-curvature="0" /><path
   style="fill:#b4b4b4;stroke:#000000;stroke-width:0.5"
   d="m 48.249,50.098 c 1.229,0.078 2.447,0.056 3.662,-0.012 l 10.166,-19.971 -5.294,1.09 -9.666,18.989 c 0.396,0.014 0.67,0.046 1.132,-0.096 z"
   id="path56"
   inkscape:connector-curvature="0" /><path
   style="fill:none;stroke:#000000;stroke-width:0.5"
   d="M 58.258,24.517 C 51.967,20.019 44,17.845 35.741,19.031 c -1.562,0.225 -3.081,0.562 -4.548,1.001"
   id="path60"
   inkscape:connector-curvature="0" /><path
   d="m 59.445,25.368 c -0.708,-0.192 -1.654,-0.334 -2.352,-0.267 l 1.008,-0.694 0.331,-1.178 c 0.162,0.682 0.602,1.532 1.013,2.139 z"
   id="path62"
   inkscape:connector-curvature="0" />
<path
   style="opacity:1;vector-effect:none;fill:#b4b4b4;fill-opacity:1;stroke:none;stroke-width:0.93333334;stroke-linecap:butt;stroke-linejoin:miter;stroke-miterlimit:4;stroke-dasharray:none;stroke-dashoffset:0;stroke-opacity:1"
   d="M 33.651935,48.556924 29.656069,56.259799 43.13,57.466 47.372682,48.749496 Z"
   id="path938"
   inkscape:connector-curvature="0" /><path
   style="opacity:1;vector-effect:none;fill:#b4b4b4;fill-opacity:1;stroke:none;stroke-width:0.93333334;stroke-linecap:butt;stroke-linejoin:miter;stroke-miterlimit:4;stroke-dasharray:none;stroke-dashoffset:0;stroke-opacity:1"
   d="m 45.904494,49.27348 7.332796,-1.907719 -5.186612,9.359747 h -7.690493 z"
   id="path940"
   inkscape:connector-curvature="0" /><path
   style="opacity:1;vector-effect:none;fill:none;fill-opacity:1;stroke:#000000;stroke-width:0.66666669;stroke-linecap:butt;stroke-linejoin:miter;stroke-miterlimit:4;stroke-dasharray:none;stroke-dashoffset:0;stroke-opacity:1"
   d="m 48.266926,47.616787 -4.958077,9.968445"
   id="path942"
   inkscape:connector-curvature="0"
   sodipodi:nodetypes="cc" /><path
   style="overflow:visible;opacity:1;vector-effect:none;fill:none;fill-opacity:1;stroke:#000000;stroke-width:0.66666669;stroke-linecap:butt;stroke-linejoin:miter;stroke-miterlimit:4;stroke-dasharray:none;stroke-dashoffset:0;stroke-opacity:1"
   d="m 34.314104,46.733523 -4.958078,9.968445"
   id="path942-3"
   inkscape:connector-curvature="0"
   sodipodi:nodetypes="cc" /><path
   style="overflow:visible;opacity:1;vector-effect:none;fill:none;fill-opacity:1;stroke:#000000;stroke-width:0.66666669;stroke-linecap:butt;stroke-linejoin:miter;stroke-miterlimit:4;stroke-dasharray:none;stroke-dashoffset:0;stroke-opacity:1"
   d="M 61.916416,30.517908 48.25437,57.000049"
   id="path942-6"
   inkscape:connector-curvature="0"
   sodipodi:nodetypes="cc" /><path
   style="opacity:1;vector-effect:none;fill:#dcdcdc;fill-opacity:1;stroke:none;stroke-width:0.93333334;stroke-linecap:butt;stroke-linejoin:miter;stroke-miterlimit:4;stroke-dasharray:none;stroke-dashoffset:0;stroke-opacity:1"
   d="m 1.3696459,44.72506 -0.9209688,1.818323 0.51952084,1.109886 2.59760426,0.141687 -0.283375,-1.1335 0.5903646,-1.96001 z"
   id="path967"
   inkscape:connector-curvature="0" /><rect
   style="opacity:1;vector-effect:none;fill:#ffffff;fill-opacity:1;fill-rule:evenodd;stroke:none;stroke-width:5.33333349;stroke-linecap:butt;stroke-linejoin:miter;stroke-miterlimit:4;stroke-dasharray:none;stroke-dashoffset:0;stroke-opacity:1"
   id="rect969"
   width="8.4536905"
   height="22.930635"
   x="75.871872"
   y="35.133411" /><path
   style="opacity:1;vector-effect:none;fill:#dcdcdc;fill-opacity:1;stroke:#000000;stroke-width:0.66666669;stroke-linecap:butt;stroke-linejoin:miter;stroke-miterlimit:4;stroke-dasharray:none;stroke-dashoffset:0;stroke-opacity:1"
   d="M 75.805827,41.634589 97.640125,31.646265 98.696836,34.393714 75.66053,45.17217"
   id="path971"
   inkscape:connector-curvature="0"
   sodipodi:nodetypes="cccc" /><path
   style="overflow:visible;opacity:1;vector-effect:none;fill:#dcdcdc;fill-opacity:1;stroke:#000000;stroke-width:0.66666669;stroke-linecap:butt;stroke-linejoin:miter;stroke-miterlimit:4;stroke-dasharray:none;stroke-dashoffset:0;stroke-opacity:1"
   d="M 75.421799,45.756105 125.08471,33.352356 125.89505,36.18228 75.020197,49.149008"
   id="path971-7"
   inkscape:connector-curvature="0"
   sodipodi:nodetypes="cccc" /><path
   style="opacity:1;vector-effect:none;fill:none;fill-opacity:1;stroke:#000000;stroke-width:0.66666667;stroke-linecap:butt;stroke-linejoin:miter;stroke-miterlimit:4;stroke-dasharray:none;stroke-dashoffset:0;stroke-opacity:1"
   d="m 75.106083,48.136211 c 0.03535,-0.08838 0.477257,-2.368608 0.477257,-2.368608"
   id="path990"
   inkscape:connector-curvature="0" /><path
   style="opacity:1;vector-effect:none;fill:none;fill-opacity:1;stroke:#000000;stroke-width:0.66666667;stroke-linecap:butt;stroke-linejoin:miter;stroke-miterlimit:4;stroke-dasharray:none;stroke-dashoffset:0;stroke-opacity:1"
   d="m 75.760102,51.901237 2.191846,-3.340798"
   id="path992"
   inkscape:connector-curvature="0" /><path
   style="opacity:1;vector-effect:none;fill:#dcdcdc;fill-opacity:1;stroke:none;stroke-width:0.93333334;stroke-linecap:butt;stroke-linejoin:miter;stroke-miterlimit:4;stroke-dasharray:none;stroke-dashoffset:0;stroke-opacity:1"
   d="m 75.247493,47.800363 -0.583314,2.068113 0.83078,1.767618 2.669103,-3.800378 z"
   id="path994"
   inkscape:connector-curvature="0" /></svg>