<?xml version="1.0" encoding="UTF-8" standalone="no"?>
<svg
   xmlns:dc="http://purl.org/dc/elements/1.1/"
   xmlns:cc="http://creativecommons.org/ns#"
   xmlns:rdf="http://www.w3.org/1999/02/22-rdf-syntax-ns#"
   xmlns:svg="http://www.w3.org/2000/svg"
   xmlns="http://www.w3.org/2000/svg"
   xmlns:xlink="http://www.w3.org/1999/xlink"
   xmlns:sodipodi="http://sodipodi.sourceforge.net/DTD/sodipodi-0.dtd"
   xmlns:inkscape="http://www.inkscape.org/namespaces/inkscape"
   version="1.1"
   width="600"
   height="600"
   id="svg189"
   sodipodi:docname="hw-conducting-sphere-in-uniform-field.svg"
   inkscape:version="0.92.3 (2405546, 2018-03-11)">
  <metadata
     id="metadata193">
    <rdf:RDF>
      <cc:Work
         rdf:about="">
        <dc:format>image/svg+xml</dc:format>
        <dc:type
           rdf:resource="http://purl.org/dc/dcmitype/StillImage" />
      </cc:Work>
    </rdf:RDF>
  </metadata>
  <sodipodi:namedview
     pagecolor="#ffffff"
     bordercolor="#666666"
     borderopacity="1"
     objecttolerance="10"
     gridtolerance="10"
     guidetolerance="10"
     inkscape:pageopacity="0"
     inkscape:pageshadow="2"
     inkscape:window-width="1280"
     inkscape:window-height="996"
     id="namedview191"
     showgrid="false"
     inkscape:zoom="3.151406"
     inkscape:cx="123.5962"
     inkscape:cy="109.45789"
     inkscape:window-x="0"
     inkscape:window-y="0"
     inkscape:window-maximized="1"
     inkscape:current-layer="svg189" />
  <title
     id="title2">hw-conducting-sphere-in-uniform-field</title>
  <desc
     id="desc4">hw-conducting-sphere-in-uniform-field
created with VectorFieldPlot 1.3
http://commons.wikimedia.org/wiki/User:Geek3/VectorFieldPlot
rights: GNU Free Documentation license,
        Creative Commons Attribution ShareAlike license
  </desc>
  <defs
     id="defs7">
    <path
       id="arrow1"
       stroke="none"
       fill="#000000"
       transform="scale(0.01)"
       d="M 0.3,0 L -2.2,2.25 L 3.8,0 L -2.2,-2.25 L 0.3,0 Z" />
    <radialGradient
       gradientUnits="userSpaceOnUse"
       fy="0.484"
       fx="0.36299995"
       r="1.3310001"
       cy="0.096800059"
       cx="0.072599933"
       id="metal_spot"
       gradientTransform="matrix(100,0,0,100,300,-300)">
      <stop
         id="stop171"
         stop-color="#fff"
         offset="0" />
      <stop
         id="stop173"
         stop-color="#e7e7e7"
         offset="0.15" />
      <stop
         id="stop175"
         stop-color="#ddd"
         offset="0.25" />
      <stop
         id="stop177"
         stop-color="#aaa"
         offset="0.7" />
      <stop
         id="stop179"
         stop-color="#888"
         offset="0.9" />
      <stop
         id="stop181"
         stop-color="#666"
         offset="1" />
    </radialGradient>
  </defs>
  <g
     style="fill:none;stroke:#000000;stroke-width:0.02;stroke-linecap:round;stroke-linejoin:round"
     id="fieldlines"
     transform="matrix(32.29409,0,0,-32.29409,109.73174,504.48149)">
    <g
       id="fieldline1">
      <path
         inkscape:connector-curvature="0"
         id="path10"
         d="M -2.7979,3.01 -2.7849,2.6858 -2.7702,2.381 -2.7537,2.0862 -2.7345,1.7886 -2.7105,1.4572 -2.664,0.8515 -2.6488,0.6276 -2.6388,0.4482 -2.6323,0.29 -2.6285,0.1426 -2.6273,0 -2.6285,-0.1422 -2.6323,-0.2892 -2.6388,-0.4476 -2.6488,-0.627 -2.664,-0.8507 -2.7108,-1.4605 -2.7346,-1.79 -2.7537,-2.0869 -2.7702,-2.3813 -2.7849,-2.6859 -2.7979,-3.01" />
      <g
         id="arrows1">
        <use
           height="100%"
           width="100%"
           y="0"
           x="0"
           id="use12"
           transform="matrix(0.29852256,-3.988845,3.988845,0.29852256,-2.7139,1.5048)"
           xlink:href="#arrow1" />
        <use
           height="100%"
           width="100%"
           y="0"
           x="0"
           id="use14"
           transform="matrix(-0.28807877,-3.9896128,3.9896128,-0.28807877,-2.714,-1.5048)"
           xlink:href="#arrow1" />
      </g>
    </g>
    <g
       id="fieldline2">
      <path
         inkscape:connector-curvature="0"
         id="path18"
         d="M -2.4947,3.01 -2.4816,2.7244 -2.4671,2.4621 -2.4512,2.2175 -2.4337,1.9857 -2.4143,1.7617 -2.3925,1.5385 -2.3668,1.303 -2.3309,1.0007 -2.2926,0.6813 -2.2745,0.5137 -2.2624,0.3804 -2.2542,0.263 -2.2489,0.1546 -2.2464,0.051 V -0.0508 L -2.2489,-0.1545 -2.2541,-0.2628 -2.2624,-0.3802 -2.2745,-0.5134 -2.2925,-0.6811 -2.3307,-0.9985 -2.3667,-1.3021 -2.3924,-1.538 -2.4143,-1.7614 -2.4337,-1.9856 -2.4512,-2.2174 -2.4671,-2.462 -2.4816,-2.7243 -2.4947,-3.01" />
      <g
         id="arrows2">
        <use
           height="100%"
           width="100%"
           y="0"
           x="0"
           id="use20"
           transform="matrix(0.43338549,-3.9764528,3.9764528,0.43338549,-2.3887,1.5032)"
           xlink:href="#arrow1" />
        <use
           height="100%"
           width="100%"
           y="0"
           x="0"
           id="use22"
           transform="matrix(-0.40561428,-3.9793815,3.9793815,-0.40561428,-2.3885,-1.5032)"
           xlink:href="#arrow1" />
      </g>
    </g>
    <g
       id="fieldline3">
      <path
         inkscape:connector-curvature="0"
         id="path26"
         d="m -2.1925,3.01 0.013,-0.2554 0.0143,-0.2312 0.0155,-0.2114 0.0167,-0.1953 0.0181,-0.1819 0.0195,-0.1709 0.021,-0.162 0.0227,-0.155 0.0244,-0.1503 0.0267,-0.148 L -1.971,0.9992 -1.9362,0.8376 -1.8863,0.6198 -1.8454,0.4405 -1.8243,0.338 -1.8099,0.2566 -1.7997,0.1855 -1.7929,0.1207 -1.789,0.0596 -1.7877,2e-4 -1.7889,-0.0594 -1.7929,-0.1206 -1.7997,-0.1853 -1.8098,-0.2564 -1.8243,-0.3379 -1.8454,-0.4404 -1.8862,-0.6197 -1.9361,-0.8371 -1.9709,-0.9988 -2.0006,-1.1485 -2.0273,-1.2966 -2.0517,-1.4468 -2.0744,-1.6019 -2.0953,-1.7638 -2.1149,-1.9347 -2.133,-2.1166 -2.1497,-2.3119 -2.1652,-2.5235 -2.1795,-2.7544 -2.1926,-3.01" />
      <g
         id="arrows3">
        <use
           height="100%"
           width="100%"
           y="0"
           x="0"
           id="use28"
           transform="matrix(0.61332313,-3.9526997,3.9526997,0.61332313,-2.0586,1.4951)"
           xlink:href="#arrow1" />
        <use
           height="100%"
           width="100%"
           y="0"
           x="0"
           id="use30"
           transform="matrix(-0.56982473,-3.9592044,3.9592044,-0.56982473,-2.0587,-1.4951)"
           xlink:href="#arrow1" />
      </g>
    </g>
    <g
       id="fieldline4">
      <path
         inkscape:connector-curvature="0"
         id="path34"
         d="m -1.892,3.01 0.0127,-0.2308 0.0138,-0.2066 0.0149,-0.1877 0.016,-0.1706 0.0172,-0.1568 0.0182,-0.1444 0.0193,-0.1339 0.0205,-0.1243 0.0215,-0.116 0.0225,-0.108 0.0236,-0.1011 0.0246,-0.0945 0.0254,-0.0881 0.0264,-0.0824 0.0271,-0.0767 0.0277,-0.0711 0.0283,-0.066 0.0288,-0.0607 0.029,-0.0556 0.0292,-0.0508 0.0293,-0.046 0.0292,-0.0412 0.0291,-0.037 0.0289,-0.0328 0.0287,-0.0288 0.0286,-0.0253 0.0286,-0.0219 0.0286,-0.0189 0.0289,-0.0162 0.0294,-0.0135 0.0304,-0.0112 0.0318,-0.009 0.0338,-0.0069 0.0368,-0.0048 0.0416,-0.0027 0.0493,-4e-4 0.0682,0.0024 0.1395,0.0073 0.068,0.0014 L -0.5981,0.3772 -0.5448,0.3736 -0.495,0.3679 -0.448,0.36 -0.4033,0.3499 -0.3606,0.3378 -0.32,0.3237 -0.2814,0.3077 -0.2448,0.2897 -0.2102,0.27 -0.1777,0.2486 -0.1475,0.2258 -0.1196,0.2015 -0.0942,0.1762 -0.0715,0.15 -0.0516,0.1233 -0.0346,0.0964 -0.0209,0.0701 -0.0105,0.0449 -0.0036,0.0223 -3e-4,0.004 V -0.004 L -0.0036,-0.0222 -0.0104,-0.0449 -0.0209,-0.0701 -0.0346,-0.0964 -0.0516,-0.1233 -0.0715,-0.15 -0.0942,-0.1762 -0.1196,-0.2015 -0.1475,-0.2258 -0.1777,-0.2486 -0.2102,-0.27 -0.2447,-0.2897 -0.2814,-0.3077 -0.32,-0.3237 -0.3606,-0.3378 -0.4032,-0.3499 -0.448,-0.36 l -0.047,-0.0079 -0.0498,-0.0057 -0.0533,-0.0036 -0.0585,-0.0012 -0.068,0.0014 -0.1396,0.0073 -0.0681,0.0024 -0.0493,-4e-4 L -1.0232,-0.3704 -1.06,-0.3752 -1.0938,-0.3821 -1.1256,-0.3911 -1.156,-0.4023 -1.1854,-0.4158 -1.2143,-0.432 -1.2429,-0.4509 -1.2715,-0.4728 -1.3,-0.4981 -1.3288,-0.527 -1.3577,-0.5597 -1.3868,-0.5966 -1.416,-0.638 -1.4453,-0.684 -1.4745,-0.7347 -1.5035,-0.7903 -1.5323,-0.851 -1.5606,-0.917 -1.5883,-0.9881 -1.6154,-1.0648 -1.6417,-1.1471 -1.6672,-1.2354 -1.6918,-1.3297 -1.7154,-1.4309 -1.7379,-1.539 -1.7594,-1.6548 -1.7799,-1.7793 -1.7992,-1.9131 -1.8175,-2.0577 -1.8346,-2.2145 -1.8506,-2.3851 -1.8655,-2.5727 -1.8793,-2.7796 -1.892,-3.01" />
      <g
         id="arrows4">
        <use
           height="100%"
           width="100%"
           y="0"
           x="0"
           id="use36"
           transform="matrix(0.7385501,-3.9312267,3.9312267,0.7385501,-1.7573,1.644)"
           xlink:href="#arrow1" />
        <use
           height="100%"
           width="100%"
           y="0"
           x="0"
           id="use38"
           transform="matrix(-0.6643214,-3.9444489,3.9444489,-0.6643214,-1.7571,-1.644)"
           xlink:href="#arrow1" />
      </g>
    </g>
    <g
       id="fieldline5">
      <path
         inkscape:connector-curvature="0"
         id="path42"
         d="M -1.5935,3.01 -1.5813,2.7939 -1.5679,2.6011 -1.5535,2.4283 -1.5381,2.2719 -1.5215,2.1291 -1.504,1.9989 -1.4855,1.879 -1.4659,1.7686 -1.4454,1.6666 -1.4238,1.5722 -1.4014,1.4847 -1.3781,1.4034 -1.3539,1.3282 -1.3288,1.2581 -1.303,1.1933 -1.2763,1.133 -1.2489,1.0771 -1.2208,1.0252 -1.1918,0.9771 -1.1621,0.9325 -1.1316,0.891 -1.1,0.8525 l 0.0325,-0.0358 0.0337,-0.0335 0.0352,-0.0313 0.037,-0.0295 0.0393,-0.0281 0.0422,-0.027 0.0464,-0.0266 0.0526,-0.027 0.0634,-0.0296 0.1042,-0.0445 0.1058,-0.0453 0.0672,-0.0311 0.0564,-0.0287 0.0498,-0.028 0.045,-0.0282 0.0411,-0.0286 0.0378,-0.0293 0.0346,-0.03 0.0316,-0.0307 0.0287,-0.0313 0.0258,-0.0317 0.0227,-0.032 0.0196,-0.0318 0.0165,-0.0313 0.013,-0.0301 0.0096,-0.0282 0.006,-0.0246 L 0,0 l -0.0023,-0.0187 -0.006,-0.0246 -0.0096,-0.0282 -0.013,-0.0301 -0.0164,-0.0313 -0.0197,-0.0318 -0.0227,-0.032 -0.0257,-0.0317 -0.0287,-0.0313 -0.0317,-0.0307 -0.0346,-0.03 -0.0378,-0.0293 -0.0411,-0.0286 -0.045,-0.0282 -0.0498,-0.028 -0.0563,-0.0287 -0.0673,-0.0311 -0.1057,-0.0452 -0.1042,-0.0446 -0.0635,-0.0296 -0.0526,-0.027 L -0.88,-0.6672 -0.9223,-0.6943 -0.9616,-0.7224 -0.9986,-0.7519 -1.0337,-0.7832 -1.0675,-0.8167 -1.1,-0.8525 -1.1315,-0.891 -1.1621,-0.9325 -1.1918,-0.9771 -1.2208,-1.0252 -1.2489,-1.0771 -1.2763,-1.133 -1.3029,-1.1932 -1.3288,-1.2582 -1.3539,-1.3281 -1.378,-1.4034 -1.4014,-1.4847 -1.4238,-1.5722 -1.4453,-1.6665 -1.4659,-1.7686 -1.4855,-1.8791 -1.504,-1.9987 -1.5216,-2.1292 -1.5381,-2.2719 -1.5535,-2.4283 -1.5679,-2.6011 -1.5812,-2.7937 -1.5935,-3.01" />
      <g
         id="arrows5">
        <use
           height="100%"
           width="100%"
           y="0"
           x="0"
           id="use44"
           transform="matrix(0.76597702,-3.9259749,3.9259749,0.76597702,-1.4693,1.7895)"
           xlink:href="#arrow1" />
        <use
           height="100%"
           width="100%"
           y="0"
           x="0"
           id="use46"
           transform="matrix(-0.67739802,-3.9422242,3.9422242,-0.67739802,-1.4695,-1.7894)"
           xlink:href="#arrow1" />
      </g>
    </g>
    <g
       id="fieldline6">
      <path
         inkscape:connector-curvature="0"
         id="path50"
         d="M -1.2978,3.01 -1.2862,2.8009 -1.2736,2.616 -1.2599,2.4504 -1.2452,2.3013 -1.2295,2.1665 -1.2127,2.0433 -1.1949,1.9304 -1.1762,1.8266 -1.1563,1.7306 -1.1355,1.6418 -1.1137,1.5592 -1.0908,1.4823 -1.0669,1.4105 -1.042,1.3432 -1.016,1.2801 -0.9889,1.2207 -0.9606,1.1647 -0.9311,1.1116 -0.9001,1.0611 -0.8676,1.0128 -0.8332,0.9662 -0.7968,0.921 -0.7575,0.8764 -0.715,0.8319 -0.6674,0.786 -0.6122,0.7365 -0.5392,0.6749 -0.3942,0.5563 -0.3273,0.499 -0.2755,0.4514 -0.231,0.4073 -0.1918,0.365 -0.1568,0.3238 -0.1257,0.2833 -0.0981,0.2434 -0.0739,0.2041 -0.053,0.1655 -0.0354,0.1281 -0.0213,0.0923 -0.0107,0.059 -0.0037,0.0294 -3e-4,0.0056 V -0.0056 L -0.0037,-0.0294 -0.0107,-0.059 -0.0213,-0.0923 -0.0354,-0.1281 -0.053,-0.1655 -0.0739,-0.2041 -0.0981,-0.2434 -0.1257,-0.2833 -0.1569,-0.3238 -0.1918,-0.365 -0.231,-0.4073 -0.2755,-0.4514 -0.3274,-0.499 -0.3942,-0.5564 -0.5392,-0.6749 -0.6122,-0.7365 -0.6674,-0.786 -0.7149,-0.8319 -0.7576,-0.8765 -0.7967,-0.9209 -0.8332,-0.9662 -0.8675,-1.0127 -0.9001,-1.0611 -0.931,-1.1116 -0.9606,-1.1646 -0.9889,-1.2207 -1.016,-1.2801 -1.042,-1.3432 -1.0669,-1.4104 -1.0908,-1.4822 -1.1136,-1.5591 -1.1355,-1.6417 -1.1563,-1.7305 -1.1761,-1.8265 -1.1949,-1.9304 -1.2127,-2.0431 -1.2295,-2.1663 -1.2452,-2.3015 -1.2599,-2.4503 -1.2735,-2.6156 -1.2862,-2.8006 -1.2978,-3.01" />
      <g
         id="arrows6">
        <use
           height="100%"
           width="100%"
           y="0"
           x="0"
           id="use52"
           transform="matrix(0.76460655,-3.9262421,3.9262421,0.76460655,-1.1847,1.8749)"
           xlink:href="#arrow1" />
        <use
           height="100%"
           width="100%"
           y="0"
           x="0"
           id="use54"
           transform="matrix(-0.66845166,-3.9437511,3.9437511,-0.66845166,-1.1847,-1.8748)"
           xlink:href="#arrow1" />
      </g>
    </g>
    <g
       id="fieldline7">
      <path
         inkscape:connector-curvature="0"
         id="path58"
         d="M -1.005,3.01 -0.9943,2.7962 -0.9826,2.6092 -0.9698,2.4433 -0.9559,2.2945 -0.941,2.1603 -0.925,2.0383 -0.908,1.9264 -0.8898,1.8234 -0.8705,1.728 -0.8501,1.6392 -0.8285,1.5561 -0.8056,1.478 -0.7815,1.4041 -0.7559,1.334 -0.7289,1.2668 -0.7002,1.2022 -0.6694,1.1393 -0.6367,1.0779 -0.6009,1.0163 -0.5618,0.9541 -0.5175,0.8885 -0.4651,0.8157 -0.3884,0.7147 -0.2899,0.587 -0.2327,0.5095 -0.1882,0.4453 -0.1509,0.3872 -0.1187,0.3327 -0.0909,0.2808 -0.067,0.2311 -0.0468,0.1834 -0.0302,0.138 -0.0172,0.0955 -0.0078,0.0567 -0.0021,0.0236 0,0 -0.0021,-0.0235 -0.0078,-0.0567 -0.0172,-0.0954 -0.0302,-0.138 -0.0468,-0.1834 -0.067,-0.231 -0.0909,-0.2808 -0.1187,-0.3326 -0.1508,-0.3871 -0.1882,-0.4452 -0.2327,-0.5095 -0.2899,-0.5869 -0.3881,-0.7144 -0.465,-0.8156 -0.5174,-0.8883 -0.5616,-0.9538 -0.6009,-1.0163 -0.6365,-1.0776 -0.6694,-1.1393 -0.7001,-1.2021 -0.7288,-1.2667 -0.7559,-1.3339 -0.7814,-1.404 -0.8056,-1.4779 -0.8285,-1.556 -0.8501,-1.6391 -0.8705,-1.7279 -0.8898,-1.8233 -0.9079,-1.9262 -0.925,-2.0381 -0.941,-2.1602 -0.9559,-2.2944 -0.9697,-2.4428 -0.9825,-2.6088 -0.9943,-2.7961 -1.005,-3.01" />
      <g
         id="arrows7">
        <use
           height="100%"
           width="100%"
           y="0"
           x="0"
           id="use60"
           transform="matrix(0.69115482,-3.9398357,3.9398357,0.69115482,-0.9085,1.9322)"
           xlink:href="#arrow1" />
        <use
           height="100%"
           width="100%"
           y="0"
           x="0"
           id="use62"
           transform="matrix(-0.59883165,-3.9549211,3.9549211,-0.59883165,-0.9086,-1.9322)"
           xlink:href="#arrow1" />
      </g>
    </g>
    <g
       id="fieldline8">
      <path
         inkscape:connector-curvature="0"
         id="path66"
         d="M -0.7153,3.01 -0.7057,2.7761 -0.6952,2.5747 -0.6835,2.3986 -0.6708,2.2424 -0.657,2.1019 -0.642,1.9743 -0.6258,1.8577 -0.6084,1.7498 -0.5896,1.6492 -0.5695,1.5547 -0.5479,1.465 -0.5246,1.3791 -0.4995,1.296 -0.4722,1.2144 -0.4422,1.1329 -0.409,1.05 -0.3707,0.9615 -0.3243,0.8614 -0.2416,0.6917 -0.1783,0.5606 -0.1372,0.4706 -0.1044,0.3929 -0.0773,0.3226 -0.0547,0.2574 -0.0363,0.1965 -0.0216,0.1399 -0.0108,0.0882 -0.0037,0.0432 -3e-4,0.008 V -0.0081 L -0.0037,-0.0435 -0.0108,-0.0886 -0.0217,-0.1403 -0.0364,-0.1969 -0.0549,-0.2579 -0.0775,-0.3231 -0.1046,-0.3935 -0.1375,-0.4712 -0.1786,-0.5614 -0.2423,-0.693 -0.3246,-0.862 -0.371,-0.9622 -0.4091,-1.0504 -0.4425,-1.1336 -0.4723,-1.2148 -0.4996,-1.2964 -0.5248,-1.3797 -0.548,-1.4655 -0.5696,-1.5552 -0.5897,-1.6498 -0.6085,-1.7504 -0.6259,-1.8583 -0.6421,-1.9751 -0.657,-2.1025 -0.6709,-2.2431 -0.6836,-2.3998 -0.6952,-2.5762 -0.7058,-2.7778 -0.7153,-3.01" />
      <g
         id="arrows8">
        <use
           height="100%"
           width="100%"
           y="0"
           x="0"
           id="use68"
           transform="matrix(0.54977818,-3.9620379,3.9620379,0.54977818,-0.6412,1.9705)"
           xlink:href="#arrow1" />
        <use
           height="100%"
           width="100%"
           y="0"
           x="0"
           id="use70"
           transform="matrix(-0.47916118,-3.9711969,3.9711969,-0.47916118,-0.6411,-1.9705)"
           xlink:href="#arrow1" />
      </g>
    </g>
    <g
       id="fieldline9">
      <path
         inkscape:connector-curvature="0"
         id="path74"
         d="m -0.428,3.01 0.0074,-0.273 0.0084,-0.2305 0.0095,-0.198 0.0106,-0.1734 0.0117,-0.1548 0.0129,-0.1404 0.0142,-0.129 0.0156,-0.1206 0.0172,-0.1142 0.019,-0.1102 0.0212,-0.1088 0.0239,-0.11 L -0.2285,1.0303 -0.1923,0.8911 -0.1111,0.5939 -0.0773,0.463 -0.0537,0.3624 -0.0353,0.2738 -0.021,0.194 -0.0105,0.1225 -0.0037,0.0607 -4e-4,0.0134 v -0.0266 l -0.0033,-0.0474 -0.0068,-0.0618 -0.0105,-0.0715 -0.0143,-0.0798 -0.0184,-0.0886 -0.0236,-0.1006 -0.0337,-0.1306 -0.0812,-0.297 -0.0361,-0.1392 -0.028,-0.1169 -0.024,-0.1103 -0.0212,-0.1088 -0.0189,-0.11 -0.0172,-0.1144 -0.0156,-0.1205 -0.0143,-0.129 L -0.3804,-1.9798 -0.3921,-2.1346 -0.4027,-2.3082 -0.4122,-2.5063 -0.4206,-2.737 -0.428,-3.01" />
      <g
         id="arrows9">
        <use
           height="100%"
           width="100%"
           y="0"
           x="0"
           id="use76"
           transform="matrix(0.35279563,-3.9844115,3.9844115,0.35279563,-0.3813,1.9941)"
           xlink:href="#arrow1" />
        <use
           height="100%"
           width="100%"
           y="0"
           x="0"
           id="use78"
           transform="matrix(-0.3026995,-3.9885302,3.9885302,-0.3026995,-0.3814,-1.9941)"
           xlink:href="#arrow1" />
      </g>
    </g>
    <g
       id="fieldline10">
      <path
         inkscape:connector-curvature="0"
         id="path82"
         d="M -0.1425,3.01 -0.138,2.5798 -0.1325,2.2499 -0.1259,1.9817 -0.1181,1.7511 -0.1088,1.5449 -0.0978,1.3512 -0.0843,1.1565 -0.0657,0.9279 -0.0317,0.5403 -0.0165,0.3459 -0.0073,0.2005 -0.0019,0.0819 0,0 -0.0019,-0.0818 -0.0073,-0.2003 -0.0165,-0.3458 -0.0317,-0.5404 -0.0657,-0.9278 -0.0843,-1.1566 -0.0978,-1.3514 -0.1088,-1.5453 -0.1181,-1.7513 -0.1259,-1.9818 -0.1325,-2.2502 -0.138,-2.58 -0.1425,-3.01" />
      <g
         id="arrows10">
        <use
           height="100%"
           width="100%"
           y="0"
           x="0"
           id="use84"
           transform="matrix(0.12564304,-3.9980262,3.9980262,0.12564304,-0.1264,2.0053)"
           xlink:href="#arrow1" />
        <use
           height="100%"
           width="100%"
           y="0"
           x="0"
           id="use86"
           transform="matrix(-0.09772871,-3.998806,3.998806,-0.09772871,-0.1265,-2.0053)"
           xlink:href="#arrow1" />
      </g>
    </g>
    <g
       id="fieldline11">
      <path
         inkscape:connector-curvature="0"
         id="path90"
         d="M 0.1425,3.01 0.138,2.5798 0.1325,2.2499 0.1259,1.9817 0.1181,1.7511 0.1088,1.5449 0.0978,1.3512 0.0843,1.1565 0.0657,0.9279 0.0317,0.5403 0.0165,0.3459 0.0073,0.2005 0.0019,0.0819 0,0 0.0019,-0.0818 0.0073,-0.2003 0.0165,-0.3458 0.0317,-0.5404 0.0657,-0.9278 0.0843,-1.1566 0.0978,-1.3514 0.1088,-1.5453 0.1181,-1.7513 0.1259,-1.9818 0.1325,-2.2502 0.138,-2.58 0.1425,-3.01" />
      <g
         id="arrows11">
        <use
           height="100%"
           width="100%"
           y="0"
           x="0"
           id="use92"
           transform="matrix(-0.12564304,-3.9980262,3.9980262,-0.12564304,0.1264,2.0053)"
           xlink:href="#arrow1" />
        <use
           height="100%"
           width="100%"
           y="0"
           x="0"
           id="use94"
           transform="matrix(0.09772871,-3.998806,3.998806,0.09772871,0.1265,-2.0053)"
           xlink:href="#arrow1" />
      </g>
    </g>
    <g
       id="fieldline12">
      <path
         inkscape:connector-curvature="0"
         id="path98"
         d="M 0.428,3.01 0.4206,2.737 0.4122,2.5065 0.4027,2.3085 0.3921,2.1351 0.3804,1.9803 0.3675,1.8399 0.3533,1.7109 0.3377,1.5903 0.3205,1.4761 0.3015,1.3659 0.2803,1.2571 0.2564,1.1471 0.2285,1.0303 0.1923,0.8911 0.1111,0.5939 0.0773,0.463 0.0537,0.3624 0.0353,0.2738 0.021,0.194 0.0105,0.1225 0.0037,0.0607 4e-4,0.0134 v -0.0266 l 0.0033,-0.0474 0.0068,-0.0618 0.0105,-0.0715 0.0143,-0.0798 0.0184,-0.0886 0.0236,-0.1006 0.0337,-0.1306 0.0812,-0.297 0.0361,-0.1392 0.028,-0.1169 0.024,-0.1103 0.0212,-0.1088 0.0189,-0.11 0.0172,-0.1144 0.0156,-0.1205 0.0143,-0.129 L 0.3804,-1.9798 0.3921,-2.1346 0.4027,-2.3082 0.4122,-2.5063 0.4206,-2.737 0.428,-3.01" />
      <g
         id="arrows12">
        <use
           height="100%"
           width="100%"
           y="0"
           x="0"
           id="use100"
           transform="matrix(-0.35279563,-3.9844115,3.9844115,-0.35279563,0.3813,1.9941)"
           xlink:href="#arrow1" />
        <use
           height="100%"
           width="100%"
           y="0"
           x="0"
           id="use102"
           transform="matrix(0.3026995,-3.9885302,3.9885302,0.3026995,0.3814,-1.9941)"
           xlink:href="#arrow1" />
      </g>
    </g>
    <g
       id="fieldline13">
      <path
         inkscape:connector-curvature="0"
         id="path106"
         d="M 0.7153,3.01 0.7057,2.7761 0.6952,2.5747 0.6835,2.3986 0.6708,2.2424 0.657,2.1019 0.642,1.9743 0.6258,1.8577 0.6084,1.7498 0.5896,1.6492 0.5695,1.5547 0.5479,1.465 0.5246,1.3791 0.4995,1.296 0.4722,1.2144 0.4422,1.1329 0.409,1.05 0.3707,0.9615 0.3243,0.8614 0.2416,0.6917 0.1783,0.5606 0.1372,0.4706 0.1044,0.3929 0.0773,0.3226 0.0547,0.2574 0.0363,0.1965 0.0216,0.1399 0.0108,0.0882 0.0037,0.0432 3e-4,0.008 V -0.0081 L 0.0037,-0.0435 0.0108,-0.0886 0.0217,-0.1403 0.0364,-0.1969 0.0549,-0.2579 0.0775,-0.3231 0.1046,-0.3935 0.1375,-0.4712 0.1786,-0.5614 0.2423,-0.693 0.3246,-0.862 0.371,-0.9622 0.4091,-1.0504 0.4425,-1.1336 0.4723,-1.2148 0.4996,-1.2964 0.5248,-1.3797 0.548,-1.4655 0.5696,-1.5552 0.5897,-1.6498 0.6085,-1.7504 0.6259,-1.8583 0.6421,-1.9751 0.657,-2.1025 0.6709,-2.2431 0.6836,-2.3998 0.6952,-2.5762 0.7058,-2.7778 0.7153,-3.01" />
      <g
         id="arrows13">
        <use
           height="100%"
           width="100%"
           y="0"
           x="0"
           id="use108"
           transform="matrix(-0.54977818,-3.9620379,3.9620379,-0.54977818,0.6412,1.9705)"
           xlink:href="#arrow1" />
        <use
           height="100%"
           width="100%"
           y="0"
           x="0"
           id="use110"
           transform="matrix(0.47916118,-3.9711969,3.9711969,0.47916118,0.6411,-1.9705)"
           xlink:href="#arrow1" />
      </g>
    </g>
    <g
       id="fieldline14">
      <path
         inkscape:connector-curvature="0"
         id="path114"
         d="M 1.005,3.01 0.9943,2.7962 0.9826,2.6092 0.9698,2.4433 0.9559,2.2945 0.941,2.1603 0.925,2.0383 0.908,1.9264 0.8898,1.8234 0.8705,1.728 0.8501,1.6392 0.8285,1.5561 0.8056,1.478 0.7815,1.4041 0.7559,1.334 0.7289,1.2668 0.7002,1.2022 0.6694,1.1393 0.6367,1.0779 0.6009,1.0163 0.5618,0.9541 0.5175,0.8885 0.4651,0.8157 0.3884,0.7147 0.2899,0.587 0.2327,0.5095 0.1882,0.4453 0.1509,0.3872 0.1187,0.3327 0.0909,0.2808 0.067,0.2311 0.0468,0.1834 0.0302,0.138 0.0172,0.0955 0.0078,0.0567 0.0021,0.0236 0,0 0.0021,-0.0235 0.0078,-0.0567 0.0172,-0.0954 0.0302,-0.138 0.0468,-0.1834 0.067,-0.231 0.0909,-0.2808 0.1187,-0.3326 0.1508,-0.3871 0.1882,-0.4452 0.2327,-0.5095 0.2899,-0.5869 0.3881,-0.7144 0.465,-0.8156 0.5174,-0.8883 0.5616,-0.9538 0.6009,-1.0163 0.6365,-1.0776 0.6694,-1.1393 0.7001,-1.2021 0.7288,-1.2667 0.7559,-1.3339 0.7814,-1.404 0.8056,-1.4779 0.8285,-1.556 0.8501,-1.6391 0.8705,-1.7279 0.8898,-1.8233 0.9079,-1.9262 0.925,-2.0381 0.941,-2.1602 0.9559,-2.2944 0.9697,-2.4428 0.9825,-2.6088 0.9943,-2.7961 1.005,-3.01" />
      <g
         id="arrows14">
        <use
           height="100%"
           width="100%"
           y="0"
           x="0"
           id="use116"
           transform="matrix(-0.69115482,-3.9398357,3.9398357,-0.69115482,0.9085,1.9322)"
           xlink:href="#arrow1" />
        <use
           height="100%"
           width="100%"
           y="0"
           x="0"
           id="use118"
           transform="matrix(0.59883165,-3.9549211,3.9549211,0.59883165,0.9086,-1.9322)"
           xlink:href="#arrow1" />
      </g>
    </g>
    <g
       id="fieldline15">
      <path
         inkscape:connector-curvature="0"
         id="path122"
         d="M 1.2978,3.01 1.2862,2.8009 1.2736,2.616 1.2599,2.4504 1.2452,2.3013 1.2295,2.1665 1.2127,2.0433 1.1949,1.9304 1.1762,1.8266 1.1563,1.7306 1.1355,1.6418 1.1137,1.5592 1.0908,1.4823 1.0669,1.4105 1.042,1.3432 1.016,1.2801 0.9889,1.2207 0.9606,1.1647 0.9311,1.1116 0.9001,1.0611 0.8676,1.0128 0.8332,0.9662 0.7968,0.921 0.7575,0.8764 0.715,0.8319 0.6674,0.786 0.6122,0.7365 0.5392,0.6749 0.3942,0.5563 0.3273,0.499 0.2755,0.4514 0.231,0.4073 0.1918,0.365 0.1568,0.3238 0.1257,0.2833 0.0981,0.2434 0.0739,0.2041 0.053,0.1655 0.0354,0.1281 0.0213,0.0923 0.0107,0.059 0.0037,0.0294 3e-4,0.0056 V -0.0056 L 0.0037,-0.0294 0.0107,-0.059 0.0213,-0.0923 0.0354,-0.1281 0.053,-0.1655 0.0739,-0.2041 0.0981,-0.2434 0.1257,-0.2833 0.1569,-0.3238 0.1918,-0.365 0.231,-0.4073 0.2755,-0.4514 0.3274,-0.499 0.3942,-0.5564 0.5392,-0.6749 0.6122,-0.7365 0.6674,-0.786 0.7149,-0.8319 0.7576,-0.8765 0.7967,-0.9209 0.8332,-0.9662 0.8675,-1.0127 0.9001,-1.0611 0.931,-1.1116 0.9606,-1.1646 0.9889,-1.2207 1.016,-1.2801 1.042,-1.3432 1.0669,-1.4104 1.0908,-1.4822 1.1136,-1.5591 1.1355,-1.6417 1.1563,-1.7305 1.1761,-1.8265 1.1949,-1.9304 1.2127,-2.0431 1.2295,-2.1663 1.2452,-2.3015 1.2599,-2.4503 1.2735,-2.6156 1.2862,-2.8006 1.2978,-3.01" />
      <g
         id="arrows15">
        <use
           height="100%"
           width="100%"
           y="0"
           x="0"
           id="use124"
           transform="matrix(-0.76460655,-3.9262421,3.9262421,-0.76460655,1.1847,1.8749)"
           xlink:href="#arrow1" />
        <use
           height="100%"
           width="100%"
           y="0"
           x="0"
           id="use126"
           transform="matrix(0.66845166,-3.9437511,3.9437511,0.66845166,1.1847,-1.8748)"
           xlink:href="#arrow1" />
      </g>
    </g>
    <g
       id="fieldline16">
      <path
         inkscape:connector-curvature="0"
         id="path130"
         d="M 1.5935,3.01 1.5813,2.7939 1.5679,2.6011 1.5535,2.4283 1.5381,2.2719 1.5215,2.1291 1.504,1.9989 1.4855,1.879 1.4659,1.7686 1.4454,1.6666 1.4238,1.5722 1.4014,1.4847 1.3781,1.4034 1.3539,1.3282 1.3288,1.2581 1.303,1.1933 1.2763,1.133 1.2489,1.0771 1.2208,1.0252 1.1918,0.9771 1.1621,0.9325 1.1316,0.891 1.1,0.8525 1.0675,0.8167 1.0338,0.7832 0.9986,0.7519 0.9616,0.7224 0.9223,0.6943 0.8801,0.6673 0.8337,0.6407 0.7811,0.6137 0.7177,0.5841 0.6135,0.5396 0.5077,0.4943 0.4405,0.4632 0.3841,0.4345 0.3343,0.4065 0.2893,0.3783 0.2482,0.3497 0.2104,0.3204 0.1758,0.2904 0.1442,0.2597 0.1155,0.2284 0.0897,0.1967 0.067,0.1647 0.0474,0.1329 0.0309,0.1016 0.0179,0.0715 0.0083,0.0433 0.0023,0.0187 0,0 l 0.0023,-0.0187 0.006,-0.0246 0.0096,-0.0282 0.013,-0.0301 0.0164,-0.0313 0.0197,-0.0318 0.0227,-0.032 0.0257,-0.0317 0.0287,-0.0313 0.0317,-0.0307 0.0346,-0.03 0.0378,-0.0293 0.0411,-0.0286 0.045,-0.0282 0.0498,-0.028 0.0563,-0.0287 0.0673,-0.0311 0.1057,-0.0452 0.1042,-0.0446 0.0635,-0.0296 0.0526,-0.027 L 0.88,-0.6672 0.9223,-0.6943 0.9616,-0.7224 0.9986,-0.7519 1.0337,-0.7832 1.0675,-0.8167 1.1,-0.8525 1.1315,-0.891 1.1621,-0.9325 1.1918,-0.9771 1.2208,-1.0252 1.2489,-1.0771 1.2763,-1.133 1.3029,-1.1932 1.3288,-1.2582 1.3539,-1.3281 1.378,-1.4034 1.4014,-1.4847 1.4238,-1.5722 1.4453,-1.6665 1.4659,-1.7686 1.4855,-1.8791 1.504,-1.9987 1.5216,-2.1292 1.5381,-2.2719 1.5535,-2.4283 1.5679,-2.6011 1.5812,-2.7937 1.5935,-3.01" />
      <g
         id="arrows16">
        <use
           height="100%"
           width="100%"
           y="0"
           x="0"
           id="use132"
           transform="matrix(-0.76597702,-3.9259749,3.9259749,-0.76597702,1.4693,1.7895)"
           xlink:href="#arrow1" />
        <use
           height="100%"
           width="100%"
           y="0"
           x="0"
           id="use134"
           transform="matrix(0.67739802,-3.9422242,3.9422242,0.67739802,1.4695,-1.7894)"
           xlink:href="#arrow1" />
      </g>
    </g>
    <g
       id="fieldline17">
      <path
         inkscape:connector-curvature="0"
         id="path138"
         d="M 1.892,3.01 1.8793,2.7792 1.8655,2.5726 1.8506,2.3849 1.8346,2.2143 1.8174,2.0575 1.7992,1.9131 1.7799,1.7792 1.7594,1.6549 1.7379,1.5389 1.7154,1.4309 1.6918,1.3298 1.6672,1.2353 1.6418,1.1472 1.6154,1.0648 1.5883,0.9881 1.5606,0.917 1.5323,0.851 1.5035,0.7903 1.4745,0.7347 1.4453,0.6839 1.416,0.6379 1.3868,0.5967 1.3577,0.5597 1.3288,0.5269 1.3001,0.4981 1.2715,0.4728 1.2429,0.4509 1.2143,0.432 1.1854,0.4158 1.156,0.4023 1.1256,0.3911 1.0938,0.3821 1.06,0.3752 1.0232,0.3704 0.9816,0.3677 0.9323,0.3673 0.8641,0.3697 0.7246,0.377 0.6566,0.3784 0.5981,0.3772 0.5448,0.3736 0.495,0.3679 0.448,0.36 0.4033,0.3499 0.3606,0.3378 0.32,0.3237 0.2814,0.3077 0.2448,0.2897 0.2102,0.27 0.1777,0.2486 0.1475,0.2258 0.1196,0.2015 0.0942,0.1762 0.0715,0.15 0.0516,0.1233 0.0346,0.0964 0.0209,0.0701 0.0105,0.0449 0.0036,0.0223 3e-4,0.004 V -0.004 L 0.0036,-0.0222 0.0104,-0.0449 0.0209,-0.0701 0.0346,-0.0964 0.0516,-0.1233 0.0715,-0.15 0.0942,-0.1762 0.1196,-0.2015 0.1475,-0.2258 0.1777,-0.2486 0.2102,-0.27 0.2447,-0.2897 0.2814,-0.3077 0.32,-0.3237 0.3606,-0.3378 0.4032,-0.3499 0.448,-0.36 l 0.047,-0.0079 0.0498,-0.0057 0.0533,-0.0036 0.0585,-0.0012 0.068,0.0014 0.1396,0.0073 0.0681,0.0024 0.0493,-4e-4 L 1.0232,-0.3704 1.06,-0.3752 1.0938,-0.3821 1.1256,-0.3911 1.156,-0.4023 1.1854,-0.4158 1.2143,-0.432 1.2429,-0.4509 1.2715,-0.4728 1.3,-0.4981 1.3288,-0.527 1.3577,-0.5597 1.3868,-0.5966 1.416,-0.638 1.4453,-0.684 1.4745,-0.7347 1.5035,-0.7903 1.5323,-0.851 1.5606,-0.917 1.5883,-0.9881 1.6154,-1.0648 1.6417,-1.1471 1.6672,-1.2354 1.6918,-1.3297 1.7154,-1.4309 1.7379,-1.539 1.7594,-1.6548 1.7799,-1.7793 1.7992,-1.9131 1.8175,-2.0577 1.8346,-2.2145 1.8506,-2.3851 1.8655,-2.5727 1.8793,-2.7796 1.892,-3.01" />
      <g
         id="arrows17">
        <use
           height="100%"
           width="100%"
           y="0"
           x="0"
           id="use140"
           transform="matrix(-0.7385501,-3.9312267,3.9312267,-0.7385501,1.7573,1.644)"
           xlink:href="#arrow1" />
        <use
           height="100%"
           width="100%"
           y="0"
           x="0"
           id="use142"
           transform="matrix(0.6643214,-3.9444489,3.9444489,0.6643214,1.7571,-1.644)"
           xlink:href="#arrow1" />
      </g>
    </g>
    <g
       id="fieldline18">
      <path
         inkscape:connector-curvature="0"
         id="path146"
         d="M 2.1925,3.01 2.1795,2.7546 2.1652,2.5234 2.1497,2.312 2.133,2.1167 2.1149,1.9348 2.0954,1.7639 2.0744,1.6019 2.0517,1.4469 2.0273,1.2966 2.0006,1.1486 1.971,0.9992 1.9362,0.8376 1.8863,0.6198 1.8454,0.4405 1.8243,0.338 1.8099,0.2566 1.7997,0.1855 1.7929,0.1207 1.789,0.0596 1.7877,2e-4 1.7889,-0.0594 1.7929,-0.1206 1.7997,-0.1853 1.8098,-0.2564 1.8243,-0.3379 1.8454,-0.4404 1.8862,-0.6197 1.9361,-0.8371 1.9709,-0.9988 2.0006,-1.1485 2.0273,-1.2966 2.0517,-1.4468 2.0744,-1.6019 2.0953,-1.7638 2.1149,-1.9347 2.133,-2.1166 2.1497,-2.3119 2.1652,-2.5235 2.1795,-2.7544 2.1926,-3.01" />
      <g
         id="arrows18">
        <use
           height="100%"
           width="100%"
           y="0"
           x="0"
           id="use148"
           transform="matrix(-0.61332313,-3.9526997,3.9526997,-0.61332313,2.0586,1.4951)"
           xlink:href="#arrow1" />
        <use
           height="100%"
           width="100%"
           y="0"
           x="0"
           id="use150"
           transform="matrix(0.56982473,-3.9592044,3.9592044,0.56982473,2.0587,-1.4951)"
           xlink:href="#arrow1" />
      </g>
    </g>
    <g
       id="fieldline19">
      <path
         inkscape:connector-curvature="0"
         id="path154"
         d="M 2.4947,3.01 2.4816,2.7244 2.4671,2.4621 2.4512,2.2175 2.4337,1.9857 2.4143,1.7617 2.3925,1.5385 2.3668,1.303 2.3309,1.0007 2.2926,0.6813 2.2745,0.5137 2.2624,0.3804 2.2542,0.263 2.2489,0.1546 2.2464,0.051 V -0.0508 L 2.2489,-0.1545 2.2541,-0.2628 2.2624,-0.3802 2.2745,-0.5134 2.2925,-0.6811 2.3307,-0.9985 2.3667,-1.3021 2.3924,-1.538 2.4143,-1.7614 2.4337,-1.9856 2.4512,-2.2174 2.4671,-2.462 2.4816,-2.7243 2.4947,-3.01" />
      <g
         id="arrows19">
        <use
           height="100%"
           width="100%"
           y="0"
           x="0"
           id="use156"
           transform="matrix(-0.43338549,-3.9764528,3.9764528,-0.43338549,2.3887,1.5032)"
           xlink:href="#arrow1" />
        <use
           height="100%"
           width="100%"
           y="0"
           x="0"
           id="use158"
           transform="matrix(0.40561428,-3.9793815,3.9793815,0.40561428,2.3885,-1.5032)"
           xlink:href="#arrow1" />
      </g>
    </g>
    <g
       id="fieldline20">
      <path
         inkscape:connector-curvature="0"
         id="path162"
         d="M 2.7979,3.01 2.7849,2.6858 2.7702,2.381 2.7537,2.0862 2.7345,1.7886 2.7105,1.4572 2.664,0.8515 2.6488,0.6276 2.6388,0.4482 2.6323,0.29 2.6285,0.1426 2.6273,0 2.6285,-0.1422 2.6323,-0.2892 2.6388,-0.4476 2.6488,-0.627 2.664,-0.8507 2.7108,-1.4605 2.7346,-1.79 2.7537,-2.0869 2.7702,-2.3813 2.7849,-2.6859 2.7979,-3.01" />
      <g
         id="arrows20">
        <use
           height="100%"
           width="100%"
           y="0"
           x="0"
           id="use164"
           transform="matrix(-0.29852256,-3.988845,3.988845,-0.29852256,2.7139,1.5048)"
           xlink:href="#arrow1" />
        <use
           height="100%"
           width="100%"
           y="0"
           x="0"
           id="use166"
           transform="matrix(0.28807877,-3.9896128,3.9896128,0.28807877,2.714,-1.5048)"
           xlink:href="#arrow1" />
      </g>
    </g>
  </g>
  <circle
     id="circle184"
     style="fill:#ffffff;fill-opacity:1;stroke:none;stroke-width:0.64588183"
     r="38.752911"
     cy="-504.48148"
     cx="109.73174"
     transform="scale(1,-1)" />
  <rect
     style="fill:#000000;fill-opacity:1;stroke:none;stroke-width:1.33333337;stroke-miterlimit:4;stroke-dasharray:none;stroke-dashoffset:0;stroke-opacity:1"
     id="rect1147"
     width="3.4905055"
     height="3.4905055"
     x="467.61884"
     y="243.01625"
     transform="rotate(45)" />
  <text
     xml:space="preserve"
     style="font-style:normal;font-variant:normal;font-weight:normal;font-stretch:normal;font-size:13.33333302px;line-height:1.25;font-family:'Liberation Sans';-inkscape-font-specification:'Liberation Sans';font-variant-ligatures:normal;font-variant-position:normal;font-variant-caps:normal;font-variant-numeric:normal;font-variant-alternates:normal;font-feature-settings:normal;text-indent:0;text-align:start;text-decoration:none;text-decoration-line:none;text-decoration-style:solid;text-decoration-color:#000000;letter-spacing:0px;word-spacing:0px;text-transform:none;writing-mode:lr-tb;direction:ltr;text-orientation:mixed;dominant-baseline:auto;baseline-shift:baseline;text-anchor:start;white-space:normal;shape-padding:0;opacity:1;vector-effect:none;fill:#000000;fill-opacity:1;stroke:none;stroke-width:0.99999994;stroke-linecap:butt;stroke-linejoin:miter;stroke-miterlimit:4;stroke-dasharray:none;stroke-dashoffset:0;stroke-opacity:1"
     x="106.93639"
     y="561.60443"
     id="text1175"><tspan
       sodipodi:role="line"
       id="tspan1173"
       x="106.93639"
       y="561.60443"
       style="font-style:normal;font-variant:normal;font-weight:bold;font-stretch:normal;font-family:'Liberation Sans';-inkscape-font-specification:'Liberation Sans Bold'">*</tspan></text>
</svg>
