<?xml version="1.0" encoding="UTF-8" standalone="no"?>
<svg
   xmlns:dc="http://purl.org/dc/elements/1.1/"
   xmlns:cc="http://creativecommons.org/ns#"
   xmlns:rdf="http://www.w3.org/1999/02/22-rdf-syntax-ns#"
   xmlns:svg="http://www.w3.org/2000/svg"
   xmlns="http://www.w3.org/2000/svg"
   xmlns:sodipodi="http://sodipodi.sourceforge.net/DTD/sodipodi-0.dtd"
   xmlns:inkscape="http://www.inkscape.org/namespaces/inkscape"
   viewBox="0 0 130.66667 92"
   height="92"
   width="130.66667"
   xml:space="preserve"
   id="svg2"
   version="1.1"
   sodipodi:docname="gears.svg"
   inkscape:version="0.92.3 (2405546, 2018-03-11)"><sodipodi:namedview
     pagecolor="#ffffff"
     bordercolor="#666666"
     borderopacity="1"
     objecttolerance="10"
     gridtolerance="10"
     guidetolerance="10"
     inkscape:pageopacity="0"
     inkscape:pageshadow="2"
     inkscape:window-width="1280"
     inkscape:window-height="996"
     id="namedview14"
     showgrid="false"
     inkscape:snap-global="false"
     inkscape:zoom="1.4741936"
     inkscape:cx="204.89701"
     inkscape:cy="22.582735"
     inkscape:window-x="0"
     inkscape:window-y="0"
     inkscape:window-maximized="1"
     inkscape:current-layer="svg2" /><metadata
     id="metadata8"><rdf:RDF><cc:Work
         rdf:about=""><dc:format>image/svg+xml</dc:format><dc:type
           rdf:resource="http://purl.org/dc/dcmitype/StillImage" /></cc:Work></rdf:RDF></metadata><defs
     id="defs6">
</defs><path
     style="fill:#bfbfbf;fill-opacity:1;stroke:#000000;stroke-width:0.69023734;stroke-linecap:butt;stroke-linejoin:miter;stroke-miterlimit:4;stroke-dasharray:none;stroke-opacity:1"
     d="M 79.062326,23.832806 C 78.122774,23.664188 77.177928,23.53209 76.232495,23.434565 l -0.114076,0.07925 -0.406943,5.037098 -4.894847,-0.08045 -0.439123,-4.788842 -0.06325,-0.210998 c -1.929862,0.138777 -3.817747,0.47379 -5.685985,0.97905 l -0.01741,0.09666 1.232694,4.832001 -4.609077,1.673524 -2.001188,-4.4685 -0.175914,-0.131489 c -1.717765,0.827936 -3.384859,1.789545 -4.934565,2.918176 l -0.01741,0.09667 2.86467,4.12358 -3.866995,3.110497 -3.392825,-3.415914 -0.175659,-0.132913 c -1.321648,1.342648 -2.562403,2.820286 -3.706318,4.442727 l 0.07924,0.114076 4.097807,2.842836 -2.568581,4.245548 -4.33455,-2.082675 -0.193328,-0.03483 c -0.75439,1.660953 -1.400494,3.417757 -1.949916,5.259611 l 0.19475,0.03508 4.667699,1.341343 -0.856603,4.755024 -4.940689,-0.388108 -0.09667,-0.01741 c -0.138267,1.964415 -0.14307,3.910408 0.05373,5.820164 l 0.09666,0.01741 4.788843,-0.439124 0.925545,4.875001 -4.832256,1.234117 c 0.474145,1.928057 1.140261,3.765954 1.905533,5.553485 l 0.114331,-0.08067 4.371581,-2.01718 2.538428,4.26441 -4.12358,2.864671 c 1.130219,1.564811 2.377208,3.069849 3.702663,4.474145 l 0.09666,0.01741 3.434748,-3.489234 3.735062,3.178163 -2.823747,3.999976 c 1.586776,1.128883 3.273443,2.114805 5.084961,2.919402 l 2.082673,-4.334549 4.615201,1.632758 -1.359013,4.765786 c 0.06898,-0.02632 0.09485,-0.01813 0.09666,0.01741 1.911788,0.484906 3.805308,0.823671 5.72593,1.031508 l 0.37186,-4.842349 4.912516,-0.01764 0.42171,4.885507 c 1.974635,-0.172633 3.900191,-0.499997 5.78407,-0.961382 l -1.251785,-4.73417 4.610757,-1.674691 2.097847,4.485914 c 1.734599,-0.851866 3.433842,-1.815577 5.031229,-2.900762 l -2.785669,-4.008081 3.77058,-3.129331 3.489236,3.434749 c 1.36945,-1.33604 2.642649,-2.817952 3.802993,-4.425313 l -3.999986,-2.823745 2.470755,-4.264638 4.430951,2.101507 c 0.86333,-1.766166 1.57058,-3.655535 2.1165,-5.630273 l -4.76411,-1.360181 0.8566,-4.755024 4.84235,0.371861 0.0966,0.0174 c 0.17798,-1.961269 0.18312,-3.915184 0.0432,-5.804173 l -4.98242,0.405719 -0.82721,-4.858753 4.73392,-1.250364 0.11404,-0.07925 c -0.55037,-1.852519 -1.21316,-3.682791 -2.01962,-5.474235 l -4.582584,2.080438 -2.441758,-4.246996 4.009502,-2.785421 0.11408,-0.07924 c -1.104287,-1.582494 -2.338288,-3.070632 -3.702663,-4.474145 l -0.09667,-0.01741 -3.548822,3.568487 -3.736485,-3.178419 2.825167,-3.999721 0.03483,-0.193329 C 90.872524,28.302803 89.212355,27.332664 87.50962,26.467047 l -0.212419,0.063 -2.117501,4.527878 -4.597532,-1.730844 1.341344,-4.667699 -0.06184,-0.210742 C 80.9368,24.206685 80.001788,24.001408 79.062238,23.83279 Z m -3.25498,11.909323 -3.185433,17.682433 a 3.4221307,3.4221307 0 0 0 -2.417444,1.679411 L 52.640021,51.939794 A 21.189701,21.189701 0 0 1 75.807346,35.742129 Z m 2.244219,0.414616 A 21.189701,21.189701 0 0 1 94.255362,59.436664 L 76.547343,56.246622 a 3.4221307,3.4221307 0 0 0 -1.679666,-2.416024 z m -4.645451,19.350862 a 1.3118168,1.3118168 0 0 1 1.058227,1.523276 1.3118168,1.3118168 0 0 1 -1.523277,1.058227 1.3118168,1.3118168 0 0 1 -1.058226,-1.523276 1.3118168,1.3118168 0 0 1 1.523276,-1.058227 z m -21.18351,-1.324045 17.577241,3.166482 a 3.4221307,3.4221307 0 0 0 1.679666,2.416024 L 68.31227,77.347522 A 21.189701,21.189701 0 0 1 52.222614,54.18351 Z M 76.141299,58.492437 93.83084,61.67915 A 21.189701,21.189701 0 0 1 70.554448,77.773458 L 73.725285,60.17205 a 3.4221307,3.4221307 0 0 0 2.416024,-1.679664 z"
     id="path16"
     inkscape:connector-curvature="0" /><path
     style="fill:#bfbfbf;fill-opacity:1;stroke:#000000;stroke-width:0.69023734;stroke-linecap:butt;stroke-linejoin:miter;stroke-miterlimit:4;stroke-dasharray:none;stroke-opacity:1"
     d="m 108.72515,40.175503 c -0.47425,0.828429 -0.91586,1.674091 -1.32512,2.531922 l 0.0364,0.134066 4.60818,2.074291 -1.71899,4.583781 -4.65835,-1.193985 -0.22001,-0.01122 c -0.51712,1.864454 -0.83532,3.755247 -0.98655,5.684686 l 0.0852,0.04884 4.96541,0.460953 0.0291,4.903407 -4.88098,0.384975 -0.18292,0.121571 c 0.20323,1.896014 0.54938,3.789182 1.09229,5.62784 l 0.0852,0.04884 4.84595,-1.314135 1.63185,4.68678 -4.35667,2.049211 -0.18417,0.120845 c 0.82106,1.695681 1.79642,3.360474 2.94069,4.982662 l 0.13405,-0.03632 4.05349,-2.905656 3.13691,3.844758 -3.41693,3.383849 -0.0977,0.170427 c 1.31133,1.268204 2.74927,2.466578 4.29981,3.602428 l 0.0985,-0.171665 2.83046,-3.946539 4.19151,2.403164 -2.02418,4.523688 -0.0488,0.08526 c 1.804,0.789698 3.63545,1.447492 5.50044,1.903207 l 0.0488,-0.08526 1.19398,-4.658359 4.9028,0.764717 -0.4597,4.966131 c 1.97535,0.200619 3.9302,0.19014 5.87091,0.06936 l -0.0376,-0.134782 -0.43257,-4.795056 4.86909,-0.959548 1.31413,4.845955 c 1.85342,-0.539324 3.68974,-1.208709 5.4575,-1.985818 l 0.0488,-0.08526 -2.1337,-4.406771 4.2476,-2.451387 2.81992,4.002679 c 1.59605,-1.115727 3.09098,-2.373542 4.45701,-3.809826 l -3.38385,-3.416931 3.08733,-3.799257 4.033,2.88004 c -0.002,-0.07377 0.0148,-0.09541 0.0488,-0.08526 1.09856,-1.638066 2.05333,-3.30798 2.89386,-5.04737 l -4.43651,-1.97586 1.63256,-4.633346 4.74357,1.242829 c 0.50027,-1.917992 0.83831,-3.841699 1.03613,-5.771145 l -4.87966,-0.410128 -0.0297,-4.905378 4.92983,-0.470176 c -0.22012,-1.919919 -0.55746,-3.844062 -1.04343,-5.713053 l -4.71064,1.278491 -1.68194,-4.602291 4.40677,-2.133698 c -0.79878,-1.738489 -1.76729,-3.435284 -2.89184,-5.067874 l -4.00267,2.819922 -3.18772,-3.759025 3.46703,-3.468338 c -1.37386,-1.406126 -2.91616,-2.706606 -4.59303,-3.883767 l -2.88057,4.03103 -4.19151,-2.403167 1.97586,-4.436504 0.0488,-0.08516 c -1.78771,-0.826058 -3.6265,-1.486827 -5.45285,-1.989134 l -1.29044,4.829488 -4.85449,-0.851891 0.41138,-4.878957 -0.0363,-0.134013 c -1.92978,-0.103457 -3.87634,-0.09356 -5.83455,0.06471 l 0.42132,5.015056 -4.82024,0.874335 -1.27778,-4.711888 -0.0364,-0.134073 c -1.86136,0.508958 -3.6774,1.17178 -5.45749,1.985816 l -0.0488,0.08526 2.17006,4.540825 -4.24832,2.452645 -2.81919,-4.003924 -0.17043,-0.09767 c -1.50168,1.085894 -2.97283,2.324047 -4.35983,3.637379 l -0.0119,0.221238 3.55427,3.514638 -3.1738,3.749687 -3.94653,-2.83046 -0.21926,-0.01252 c -0.5384,0.789972 -1.04565,1.60181 -1.51989,2.430238 z m 10.12549,7.064074 15.58695,8.936592 a 3.4221307,3.4221307 0 0 0 0.7704,2.840943 l -8.87696,15.482931 a 21.189701,21.189701 0 0 1 -7.48039,-27.260466 z m 1.14395,-1.974798 a 21.189701,21.189701 0 0 1 27.36859,-7.448355 l -8.94953,15.609491 a 3.4221307,3.4221307 0 0 0 -2.83968,0.771124 z M 136.663,56.136765 a 1.3118168,1.3118168 0 0 1 1.79014,-0.48545 1.3118168,1.3118168 0 0 1 0.48544,1.790119 1.3118168,1.3118168 0 0 1 -1.79013,0.485453 1.3118168,1.3118168 0 0 1 -0.48545,-1.790122 z m -8.35855,19.50971 8.88345,-15.494214 a 3.4221307,3.4221307 0 0 0 2.83967,-0.771128 l 15.49793,8.885572 a 21.189701,21.189701 0 0 1 -27.2211,7.379743 z m 12.08838,-21.084158 8.94018,-15.593198 a 21.189701,21.189701 0 0 1 7.34642,27.328513 l -15.51552,-8.895654 a 3.4221307,3.4221307 0 0 0 -0.77114,-2.839688 z"
     id="path16-6"
     inkscape:connector-curvature="0" /><path
     style="fill:#bfbfbf;fill-opacity:1;stroke:#000000;stroke-width:0.69023734;stroke-linecap:butt;stroke-linejoin:miter;stroke-miterlimit:4;stroke-dasharray:none;stroke-opacity:1"
     d="m 176.59097,78.056968 c 0.60851,0.735475 1.24463,1.446475 1.90352,2.131466 l 0.1383,0.01316 3.56347,-3.583236 3.68546,3.222319 -2.75717,3.940041 -0.0879,0.201972 c 1.56313,1.140265 3.22095,2.103591 4.9737,2.92424 l 0.0758,-0.06258 2.17911,-4.48545 4.5999,1.698555 -1.35758,4.704168 0.0495,0.213998 c 1.84623,0.477099 3.74009,0.81942 5.65217,0.958403 l 0.0758,-0.06258 0.47556,-4.998411 4.96124,0.12216 0.38469,4.799144 0.0483,0.214918 c 1.87616,-0.171698 3.77773,-0.498708 5.69886,-0.99881 l 0.0131,-0.138244 -1.29305,-4.816814 4.70282,-1.58296 1.96469,4.389286 0.12512,0.15141 c 1.64858,-0.781049 3.27638,-1.705204 4.88529,-2.756743 l -0.12601,-0.152565 -2.6978,-4.03839 3.72464,-3.077487 3.52181,3.486838 0.0626,0.07573 c 1.3741,-1.410624 2.63441,-2.893369 3.71738,-4.478636 l -0.0627,-0.07573 -3.94004,-2.757165 2.4414,-4.31993 4.48656,2.178184 c 0.88303,-1.778337 1.56127,-3.611799 2.13127,-5.470838 l -0.13939,-0.01224 -4.6405,-1.282791 0.81561,-4.895264 4.9984,0.475555 c 0.14752,-1.924642 0.16728,-3.87906 0.062,-5.807222 l -0.0626,-0.07573 -4.87577,0.446143 -0.79954,-4.838603 4.73907,-1.230685 c -0.4826,-1.886618 -1.13375,-3.7286 -1.99734,-5.512743 l -4.38929,1.964691 -2.46952,-4.226988 4.11522,-2.761267 c -0.0696,-0.02446 -0.0841,-0.04739 -0.0627,-0.07573 -1.1466,-1.604807 -2.37361,-3.086232 -3.70588,-4.48518 l -3.41092,3.457198 -3.76228,-3.158869 2.83287,-4.002611 c -1.61918,-1.143325 -3.30081,-2.136815 -5.03719,-3.001063 l -2.10135,4.423078 -4.60194,-1.698743 1.29504,-4.779886 c -1.87455,-0.469704 -3.7943,-0.831173 -5.71475,-1.03412 l -0.46129,4.859207 -4.89979,-0.04553 -0.44614,-4.875782 c -1.90839,0.135789 -3.8375,0.445111 -5.76143,0.923092 l 1.23069,4.739072 -4.64045,1.660703 -2.02615,-4.465914 c -1.79971,0.791039 -3.5598,1.776932 -5.25183,2.932186 l 2.75924,4.115024 -3.72467,3.077495 -3.45718,-3.410933 -0.0624,-0.07567 c -1.40241,1.382571 -2.66809,2.871149 -3.78107,4.403841 l 4.06628,2.907671 -2.50599,4.244033 -4.42198,-2.102283 -0.13822,-0.01316 c -0.77605,1.769885 -1.45191,3.59537 -1.99299,5.483994 l 4.84246,1.370756 -0.87816,4.819542 -4.86013,-0.462397 -0.13828,-0.01317 c -0.17874,1.921404 -0.19752,3.854525 -0.0621,5.807227 l 0.0627,0.07574 5.01406,-0.432995 0.80045,4.839721 -4.73999,1.229572 -0.1514,0.12515 c 0.48791,1.787771 1.12901,3.600593 1.87013,5.361086 l 0.20287,0.08906 4.54073,-2.089817 2.3927,4.290477 -4.03839,2.697787 -0.0888,0.200829 c 0.54992,0.781988 1.13128,1.542519 1.73978,2.277994 z m 10.17589,-6.991307 13.8508,-11.444225 a 3.4221307,3.4221307 0 0 0 2.93033,0.278795 l 11.36785,13.758398 a 21.189701,21.189701 0 0 1 -28.14898,-2.592968 z m -1.44581,-1.765804 a 21.189701,21.189701 0 0 1 2.661,-28.238925 l 11.46078,13.870866 a 3.4221307,3.4221307 0 0 0 -0.27769,2.929391 z m 16.04299,-11.775309 a 1.3118168,1.3118168 0 0 1 0.17568,-1.846449 1.3118168,1.3118168 0 0 1 1.84644,0.175676 1.3118168,1.3118168 0 0 1 -0.17567,1.84644 1.3118168,1.3118168 0 0 1 -1.84645,-0.175667 z M 216.6835,72.214981 205.30735,58.446548 a 3.4221307,3.4221307 0 0 0 0.27768,-2.929382 l 13.77173,-11.378868 a 21.189701,21.189701 0 0 1 -2.67331,28.076717 z M 201.20311,53.479235 189.75429,39.622848 a 21.189701,21.189701 0 0 1 28.16553,2.742319 l -13.78735,11.391778 a 3.4221307,3.4221307 0 0 0 -2.9294,-0.277677 z"
     id="path16-6-7"
     inkscape:connector-curvature="0" /></svg>