<?xml version="1.0" encoding="UTF-8" standalone="no"?>
<!-- Created with Inkscape (http://www.inkscape.org/) -->

<svg
   xmlns:dc="http://purl.org/dc/elements/1.1/"
   xmlns:cc="http://creativecommons.org/ns#"
   xmlns:rdf="http://www.w3.org/1999/02/22-rdf-syntax-ns#"
   xmlns:svg="http://www.w3.org/2000/svg"
   xmlns="http://www.w3.org/2000/svg"
   xmlns:sodipodi="http://sodipodi.sourceforge.net/DTD/sodipodi-0.dtd"
   xmlns:inkscape="http://www.inkscape.org/namespaces/inkscape"
   width="210mm"
   height="297mm"
   viewBox="0 0 210 297"
   version="1.1"
   id="svg1812"
   inkscape:version="0.92.5 (2060ec1f9f, 2020-04-08)"
   sodipodi:docname="hw-naughty-solenoid.svg">
  <defs
     id="defs1806" />
  <sodipodi:namedview
     id="base"
     pagecolor="#ffffff"
     bordercolor="#666666"
     borderopacity="1.0"
     inkscape:pageopacity="0.0"
     inkscape:pageshadow="2"
     inkscape:zoom="1.6697117"
     inkscape:cx="182.57037"
     inkscape:cy="789.19859"
     inkscape:document-units="mm"
     inkscape:current-layer="layer1"
     showgrid="false"
     inkscape:snap-global="false"
     inkscape:window-width="1280"
     inkscape:window-height="998"
     inkscape:window-x="0"
     inkscape:window-y="0"
     inkscape:window-maximized="1" />
  <metadata
     id="metadata1809">
    <rdf:RDF>
      <cc:Work
         rdf:about="">
        <dc:format>image/svg+xml</dc:format>
        <dc:type
           rdf:resource="http://purl.org/dc/dcmitype/StillImage" />
        <dc:title></dc:title>
      </cc:Work>
    </rdf:RDF>
  </metadata>
  <g
     inkscape:label="Layer 1"
     inkscape:groupmode="layer"
     id="layer1">
    <g
       id="g3662"
       transform="matrix(1.4050343,0,0,1.4050343,4.6873266,-50.711622)">
      <g
         transform="rotate(90,28.639876,99.203279)"
         id="g3447">
        <rect
           style="opacity:1;vector-effect:none;fill:#dedede;fill-opacity:1;fill-rule:evenodd;stroke:none;stroke-width:1.39044034;stroke-linecap:butt;stroke-linejoin:miter;stroke-miterlimit:4;stroke-dasharray:none;stroke-dashoffset:0;stroke-opacity:1"
           id="rect3199-6"
           width="52"
           height="39.464085"
           x="2.6398759"
           y="99.951736" />
        <rect
           style="opacity:1;vector-effect:none;fill:#dedede;fill-opacity:1;fill-rule:evenodd;stroke:none;stroke-width:1.39044034;stroke-linecap:butt;stroke-linejoin:miter;stroke-miterlimit:4;stroke-dasharray:none;stroke-dashoffset:0;stroke-opacity:1"
           id="rect3199"
           width="52"
           height="39.464085"
           x="2.6398759"
           y="58.990738" />
        <g
           id="image"
           transform="matrix(6.4674326,0,0,-6.4674326,28.639876,78.880435)">
          <g
             style="fill:none;stroke:#000000;stroke-width:0.02;stroke-linecap:round;stroke-linejoin:round"
             id="fieldlines">
            <g
               id="fieldline1">
              <path
                 inkscape:connector-curvature="0"
                 d="M 0,-0.56 0.5215,-0.561 0.9165,-0.5637 1.2038,-0.5675 1.4198,-0.5722 1.5886,-0.5778 1.7247,-0.5843 1.8383,-0.5917 1.9342,-0.6 1.814,-0.6944 1.6187,-0.8495 1.5074,-0.9351 1.4112,-1.0062 1.323,-1.0685 1.2397,-1.1243 1.1599,-1.175 1.0826,-1.2211 1.0073,-1.2633 0.9335,-1.3018 0.8609,-1.3369 0.7893,-1.3689 0.7186,-1.3978 0.6485,-1.4237 0.579,-1.4468 0.5099,-1.4673 0.4412,-1.485 0.3729,-1.5001 0.3047,-1.5126 0.2368,-1.5226 0.1691,-1.53 0.1013,-1.535 0.0337,-1.5375 h -0.0674 l -0.0677,0.0025 -0.0677,0.005 -0.0678,0.0074 -0.0678,0.01 -0.0682,0.0125 -0.0684,0.0151 -0.0686,0.0178 -0.0691,0.0204 -0.0695,0.0231 -0.0701,0.026 -0.0708,0.0289 -0.0715,0.0319 -0.0726,0.0351 -0.0738,0.0385 -0.0754,0.0422 -0.0772,0.0462 -0.0799,0.0506 -0.0832,0.0558 -0.0882,0.0623 -0.0962,0.0711 -0.1113,0.0856 -0.1953,0.1551 -0.1202,0.0944 0.096,0.0083 0.1137,0.0074 0.1363,0.0065 0.1691,0.0056 0.2165,0.0047 0.2881,0.0038 0.3959,0.0027 z"
                 id="path185" />
              <g
                 id="arrows1">
                <path
                   inkscape:connector-curvature="0"
                   d="m 0.0015875,-0.56010111 -0.01322084,0.0119155 0.03174167,-0.0119284 -0.0317583,-0.0118841 z"
                   id="use187"
                   style="fill:#000000;stroke:none;stroke-width:0.00529166" />
                <path
                   inkscape:connector-curvature="0"
                   d="m 1.2809816,-1.0966843 0.017619,-0.00252 -0.033,-0.0078 0.019736,0.027574 z"
                   id="use189"
                   style="fill:#000000;stroke:none;stroke-width:0.00529166" />
                <path
                   inkscape:connector-curvature="0"
                   d="m -1.2836183,-1.0949155 0.00435,-0.017258 -0.019732,0.027577 0.032999,-0.0078 z"
                   id="use191"
                   style="fill:#000000;stroke:none;stroke-width:0.00529166" />
              </g>
            </g>
            <g
               id="fieldline2">
              <path
                 inkscape:connector-curvature="0"
                 d="m -0.3791,-3.01 -0.0626,0.0158 -0.0623,0.0183 -0.0621,0.0207 -0.0616,0.0232 -0.0613,0.0256 -0.0608,0.0281 -0.0604,0.0305 -0.0599,0.0331 -0.0594,0.0355 -0.0588,0.0381 -0.0581,0.0405 -0.0575,0.0431 -0.0569,0.0457 -0.0561,0.0482 -0.0554,0.0508 -0.0546,0.0534 -0.0538,0.0561 -0.053,0.0587 -0.0522,0.0615 -0.0513,0.0643 -0.0505,0.0672 -0.0496,0.0701 -0.0488,0.0732 -0.048,0.0765 -0.0473,0.0798 -0.0465,0.0836 -0.046,0.0876 -0.0455,0.0921 -0.0455,0.0975 -0.0457,0.1042 -0.0472,0.1138 -0.0516,0.1316 -0.0657,0.1761 -0.0593,0.1602 -0.0339,0.0865 -0.0238,0.0551 -0.0188,0.0381 -0.0145,0.0255 0.0165,0.0071 0.0363,0.0133 0.0428,0.0131 0.0491,0.0122 0.0567,0.0115 0.0656,0.0107 0.0765,0.0097 0.0896,0.0088 0.1071,0.0078 0.1307,0.007 0.164,0.0059 0.2131,0.005 0.2903,0.004 0.4142,0.0029 L 0,-0.48 0.5537,-0.481 0.9611,-0.4837 1.2494,-0.4875 1.4624,-0.4922 1.6266,-0.4977 1.7579,-0.5042 1.8665,-0.5116 1.9575,-0.5199 2.0349,-0.529 2.1014,-0.5389 2.159,-0.5497 2.2092,-0.5612 2.253,-0.5734 2.2914,-0.5863 2.3255,-0.6 2.3087,-0.6299 2.2892,-0.6702 2.2647,-0.7275 2.2302,-0.8163 2.1211,-1.1107 2.0686,-1.2461 2.021,-1.3626 1.9748,-1.469 1.9291,-1.5684 1.8833,-1.6622 1.8371,-1.7513 1.7904,-1.8362 1.7429,-1.9174 1.6947,-1.995 1.6457,-2.0693 1.5958,-2.1405 1.5451,-2.2086 1.4935,-2.2738 1.441,-2.3362 1.3877,-2.3958 1.3336,-2.4526 1.2787,-2.5068 1.2229,-2.5582 1.1665,-2.6071 1.1093,-2.6533 1.0514,-2.697 0.9928,-2.7381 0.9336,-2.7766 0.8738,-2.8126 0.8135,-2.846 0.7527,-2.877 0.6914,-2.9054 0.6297,-2.9313 0.5675,-2.9547 0.505,-2.9756 0.4422,-2.994 0.3791,-3.01"
                 id="path195" />
              <g
                 id="arrows2">
                <path
                   inkscape:connector-curvature="0"
                   d="m -1.5151841,-2.2462543 -0.00114,-0.017761 -0.01034,0.032294 0.029025,-0.017532 z"
                   id="use197"
                   style="fill:#000000;stroke:none;stroke-width:0.00529166" />
                <path
                   inkscape:connector-curvature="0"
                   d="m -1.3919129,-0.4906626 -0.013506,0.0115913 0.032022,-0.0111549 -0.031461,-0.012651 z"
                   id="use199"
                   style="fill:#000000;stroke:none;stroke-width:0.00529166" />
                <path
                   inkscape:connector-curvature="0"
                   d="m 1.3952871,-0.49063491 -0.012964,0.0121943 0.031481,-0.0126015 -0.032004,-0.0112052 z"
                   id="use201"
                   style="fill:#000000;stroke:none;stroke-width:0.00529166" />
                <path
                   inkscape:connector-curvature="0"
                   d="m 1.5132068,-2.2486384 0.017565,0.00287 -0.029153,-0.017319 0.010576,0.032217 z"
                   id="use203"
                   style="fill:#000000;stroke:none;stroke-width:0.00529166" />
              </g>
            </g>
            <g
               id="fieldline3">
              <path
                 inkscape:connector-curvature="0"
                 d="m -2.3491,-3.01 -0.0277,0.0966 -0.0255,0.0986 -0.0235,0.1006 -0.0213,0.1026 -0.019,0.1046 -0.0169,0.1066 -0.0145,0.1087 -0.0123,0.1108 -0.0099,0.1129 -0.0075,0.1151 -0.0051,0.1174 -0.0026,0.1197 v 0.1219 l 0.0024,0.1241 0.0051,0.126 0.0077,0.1269 0.0102,0.1261 0.0123,0.1213 0.0135,0.1103 0.0136,0.0913 0.0124,0.0688 0.0107,0.0478 0.0092,0.0315 0.0083,0.0209 0.0087,0.0155 0.0105,0.0136 0.0139,0.0135 0.0181,0.0138 0.023,0.0141 0.0282,0.0141 0.0337,0.0137 0.0396,0.0132 0.0463,0.0125 0.0538,0.0117 0.0627,0.0109 0.0735,0.0099 0.0864,0.0089 0.104,0.008 0.1279,0.0069 0.1624,0.006 0.2149,0.0049 0.3003,0.004 0.4464,0.0027 L 0.0639,-0.4 0.6726,-0.4014 1.086,-0.4044 1.3669,-0.4085 1.5694,-0.4136 1.7239,-0.4197 1.8465,-0.4268 1.9467,-0.4349 2.0303,-0.4439 2.1016,-0.454 2.1625,-0.4649 2.2148,-0.4767 2.2599,-0.4893 2.2984,-0.5025 2.3312,-0.5162 2.3586,-0.5302 2.3808,-0.5443 2.3983,-0.558 2.4117,-0.5714 2.4219,-0.5851 2.4303,-0.6008 2.4387,-0.6225 2.448,-0.6553 2.4588,-0.7047 2.4713,-0.7753 2.4849,-0.8681 2.4983,-0.979 2.5104,-1.1004 2.5203,-1.226 2.5278,-1.3523 2.5327,-1.4776 2.535,-1.6011 2.5348,-1.7223 2.5321,-1.8414 2.5269,-1.9581 2.5193,-2.0726 2.5094,-2.1849 2.4971,-2.2951 2.4825,-2.4033 2.4657,-2.5094 2.4467,-2.6134 2.4255,-2.7155 2.4021,-2.8157 2.3766,-2.9138 2.3491,-3.01"
                 id="path207" />
              <g
                 id="arrows3">
                <path
                   inkscape:connector-curvature="0"
                   d="m -2.5292349,-1.3893138 -0.012439,-0.01273 0.013198,0.031235 0.010594,-0.032212 z"
                   id="use209"
                   style="fill:#000000;stroke:none;stroke-width:0.00529166" />
                <path
                   inkscape:connector-curvature="0"
                   d="m 0.0015875,-0.40009751 -0.01324785,0.0118854 0.03176866,-0.0118563 -0.03173125,-0.0119561 z"
                   id="use211"
                   style="fill:#000000;stroke:none;stroke-width:0.00529166" />
                <path
                   inkscape:connector-curvature="0"
                   d="m 2.529362,-1.3924863 0.01138,0.013684 -0.010656,-0.032191 -0.013138,0.03126 z"
                   id="use213"
                   style="fill:#000000;stroke:none;stroke-width:0.00529166" />
              </g>
            </g>
            <g
               id="fieldline4">
              <path
                 inkscape:connector-curvature="0"
                 d="m -3.4674,-3.01 0.0222,0.1282 0.0248,0.1287 0.0275,0.1291 0.0302,0.1295 0.0328,0.1297 0.0355,0.1301 0.0382,0.1302 0.0409,0.1302 0.0434,0.13 0.0459,0.1296 0.0483,0.1285 0.0503,0.1269 0.0519,0.1242 0.0529,0.12 0.0528,0.1138 0.0516,0.1054 0.0492,0.0948 0.0457,0.083 0.0416,0.0709 0.0376,0.0593 0.034,0.0492 0.0309,0.0407 0.0287,0.0339 0.0273,0.0285 0.0268,0.0245 0.0272,0.0215 0.0284,0.0192 0.0306,0.0176 0.0333,0.0162 0.037,0.015 0.0415,0.014 0.0467,0.013 0.053,0.0119 0.061,0.0109 0.0707,0.0099 0.0823,0.0089 0.0986,0.0078 0.121,0.0068 0.1536,0.0058 0.2045,0.0049 0.2892,0.0038 0.4411,0.0028 L 0,-0.32 0.6767,-0.3211 1.1178,-0.3239 1.407,-0.3277 1.6115,-0.3326 1.7651,-0.3384 1.8861,-0.3452 1.9847,-0.353 2.067,-0.3619 l 0.0707,-0.0099 0.061,-0.0109 0.053,-0.0119 0.0467,-0.013 0.0415,-0.014 0.037,-0.015 0.0333,-0.0162 0.0306,-0.0176 0.0284,-0.0192 0.0272,-0.0215 0.0268,-0.0245 0.0273,-0.0285 0.0287,-0.0339 0.0309,-0.0407 0.034,-0.0492 0.0376,-0.0593 0.0416,-0.0709 0.0457,-0.083 0.0492,-0.0948 0.0516,-0.1054 0.0528,-0.1138 0.0529,-0.12 0.0519,-0.1242 0.0503,-0.1269 0.0483,-0.1285 0.0459,-0.1296 0.0434,-0.13 L 3.2562,-2.1045 3.2944,-2.2347 3.3299,-2.3648 3.3627,-2.4945 3.3929,-2.624 3.4204,-2.7531 3.4452,-2.8818 3.4674,-3.01"
                 id="path217" />
              <g
                 id="arrows4">
                <path
                   inkscape:connector-curvature="0"
                   d="m -2.9760698,-1.337243 -0.01618,-0.00742 0.023532,0.024414 -0.00168,-0.033867 z"
                   id="use219"
                   style="fill:#000000;stroke:none;stroke-width:0.00529166" />
                <path
                   inkscape:connector-curvature="0"
                   d="m 0.0015875,-0.32010111 -0.01322084,0.0119155 0.03174167,-0.0119284 -0.0317583,-0.0118841 z"
                   id="use221"
                   style="fill:#000000;stroke:none;stroke-width:0.00529166" />
                <path
                   inkscape:connector-curvature="0"
                   d="m 2.9773195,-1.3401616 0.0058,0.016827 0.00143,-0.033879 -0.023353,0.024586 z"
                   id="use223"
                   style="fill:#000000;stroke:none;stroke-width:0.00529166" />
              </g>
            </g>
            <g
               id="fieldline5">
              <path
                 inkscape:connector-curvature="0"
                 d="m -4.01,-1.9388 0.099,0.1342 0.1007,0.1322 0.1019,0.1298 0.1028,0.1268 0.103,0.1231 0.1021,0.1183 0.1002,0.1122 0.0966,0.1046 0.0917,0.0956 0.0853,0.0856 0.0782,0.0752 0.0711,0.0649 0.0643,0.0556 0.0584,0.0474 0.0534,0.0403 0.0496,0.0343 0.0468,0.0296 0.0451,0.0256 0.0443,0.0223 0.0446,0.0196 0.0459,0.0175 0.0482,0.0156 0.0515,0.014 0.0562,0.0126 0.0624,0.0112 0.0706,0.01 0.0812,0.0088 0.0958,0.0077 0.1171,0.0066 0.1489,0.0056 0.1994,0.0046 0.2871,0.0037 0.4551,0.0026 L 0,-0.24 0.7515,-0.2411 1.2066,-0.2437 1.4937,-0.2474 1.6931,-0.252 1.842,-0.2576 1.9591,-0.2642 2.0549,-0.2719 2.1361,-0.2807 2.2067,-0.2907 2.2691,-0.3019 2.3253,-0.3145 2.3768,-0.3285 2.425,-0.3441 2.4709,-0.3616 2.5155,-0.3812 2.5598,-0.4035 2.6049,-0.4291 2.6517,-0.4587 2.7013,-0.493 2.7547,-0.5333 2.8131,-0.5807 2.8774,-0.6363 2.9485,-0.7012 3.0267,-0.7764 3.112,-0.862 3.2037,-0.9576 3.3003,-1.0622 3.4005,-1.1744 3.5026,-1.2927 3.6056,-1.4158 3.7084,-1.5426 3.8103,-1.6724 3.911,-1.8046 4.01,-1.9388"
                 id="path227" />
              <g
                 id="arrows5">
                <path
                   inkscape:connector-curvature="0"
                   d="m -2.993755,-0.74470042 -0.017789,-5.7544e-4 0.031147,0.0134038 -0.014654,-0.0305792 z"
                   id="use229"
                   style="fill:#000000;stroke:none;stroke-width:0.00529166" />
                <path
                   inkscape:connector-curvature="0"
                   d="m 0.0015875,-0.24000083 -0.01322292,0.0119132 0.03174376,-0.0119229 -0.03175623,-0.0118896 z"
                   id="use231"
                   style="fill:#000000;stroke:none;stroke-width:0.00529166" />
                <path
                   inkscape:connector-curvature="0"
                   d="m 2.9960433,-0.74700137 -0.00127,0.0177528 0.014606,-0.0306022 -0.031126,0.0134528 z"
                   id="use233"
                   style="fill:#000000;stroke:none;stroke-width:0.00529166" />
              </g>
            </g>
            <g
               id="fieldline6">
              <path
                 inkscape:connector-curvature="0"
                 d="m -4.01,-1.0378 0.1676,0.1076 0.1622,0.1013 0.1545,0.0936 0.1444,0.0847 0.1325,0.075 0.1198,0.065 0.1072,0.0556 0.0958,0.0471 0.0861,0.0396 0.0782,0.0335 0.0722,0.0282 0.0678,0.024 0.0652,0.0205 0.0642,0.0175 0.0647,0.0152 0.0669,0.013 0.0714,0.0113 0.0782,0.0098 0.0887,0.0084 0.1036,0.0071 0.1267,0.0059 0.1644,0.0049 0.2297,0.0039 0.3577,0.003 0.6377,0.0018 H 0.5026 L 1.1403,-0.1621 1.498,-0.1651 1.7277,-0.169 1.8921,-0.1739 2.0188,-0.1798 2.1224,-0.1869 2.2111,-0.1953 2.2893,-0.2051 2.3607,-0.2164 2.4276,-0.2294 2.4923,-0.2446 2.5565,-0.2621 2.6217,-0.2826 2.6895,-0.3066 2.7617,-0.3348 2.8399,-0.3683 2.926,-0.4079 3.0218,-0.455 3.129,-0.5106 3.2488,-0.5756 3.3813,-0.6506 3.5257,-0.7353 3.6802,-0.8289 3.8424,-0.9302 4.01,-1.0378"
                 id="path237" />
              <g
                 id="arrows6">
                <path
                   inkscape:connector-curvature="0"
                   d="m -2.7867348,-0.34578891 -0.016793,0.005896 0.033887,0.001233 -0.02472,-0.0232106 z"
                   id="use239"
                   style="fill:#000000;stroke:none;stroke-width:0.00529166" />
                <path
                   inkscape:connector-curvature="0"
                   d="m 0.0015875,-0.1603 -0.01322916,0.0119062 0.03175,-0.0119062 -0.03175,-0.0119062 z"
                   id="use241"
                   style="fill:#000000;stroke:none;stroke-width:0.00529166" />
                <path
                   inkscape:connector-curvature="0"
                   d="m 2.7896598,-0.34682385 -0.00749,0.0161471 0.024517,-0.0234254 -0.033875,0.001529 z"
                   id="use243"
                   style="fill:#000000;stroke:none;stroke-width:0.00529166" />
              </g>
            </g>
            <g
               id="fieldline7">
              <path
                 inkscape:connector-curvature="0"
                 d="m -4.01,-0.4729 0.2549,0.0712 0.2318,0.0624 0.2047,0.0526 0.1769,0.0431 0.1517,0.0347 0.1314,0.0276 0.1161,0.0221 0.1056,0.0177 0.0996,0.0142 0.0979,0.0115 0.1009,0.0093 0.1097,0.0076 0.1262,0.006 0.1576,0.0047 0.2174,0.0036 0.3471,0.0027 0.7025,0.0016 H 0.678 L 1.3805,-0.0819 1.7276,-0.0846 1.945,-0.0882 2.1026,-0.0929 2.2288,-0.0989 2.3385,-0.1065 2.4394,-0.1158 2.5373,-0.1273 2.6369,-0.1415 2.7425,-0.1592 2.8586,-0.1813 2.99,-0.2089 3.1417,-0.2436 3.3186,-0.2867 3.5233,-0.3393 3.7551,-0.4017 4.01,-0.4729"
                 id="path247" />
              <g
                 id="arrows7">
                <path
                   inkscape:connector-curvature="0"
                   d="m -2.6968343,-0.15153799 -0.015013,0.00956 0.03328,-0.006503 -0.029349,-0.0169832 z"
                   id="use249"
                   style="fill:#000000;stroke:none;stroke-width:0.00529166" />
                <path
                   inkscape:connector-curvature="0"
                   d="m 0.0015875,-0.0803 -0.01322916,0.01190624 0.03175,-0.01190624 -0.03175,-0.01190624 z"
                   id="use251"
                   style="fill:#000000;stroke:none;stroke-width:0.00529166" />
                <path
                   inkscape:connector-curvature="0"
                   d="m 2.6999654,-0.1521642 -0.011063,0.0139419 0.029326,-0.0170242 -0.033289,-0.006456 z"
                   id="use253"
                   style="fill:#000000;stroke:none;stroke-width:0.00529166" />
              </g>
            </g>
            <g
               id="fieldline8">
              <path
                 inkscape:connector-curvature="0"
                 d="M -4.01,0 H 4.01"
                 id="path257" />
              <g
                 id="arrows8">
                <path
                   inkscape:connector-curvature="0"
                   d="M -2.6717125,0 -2.6849417,0.01190624 -2.6531917,0 l -0.03175,-0.01190624 z"
                   id="use259"
                   style="fill:#000000;stroke:none;stroke-width:0.00529166" />
                <path
                   inkscape:connector-curvature="0"
                   d="M 0.0015875,0 -0.01164166,0.01190624 0.02010834,0 l -0.03175,-0.01190624 z"
                   id="use261"
                   style="fill:#000000;stroke:none;stroke-width:0.00529166" />
                <path
                   inkscape:connector-curvature="0"
                   d="M 2.6748875,0 2.6616583,0.01190624 2.6934083,0 2.6616583,-0.01190624 Z"
                   id="use263"
                   style="fill:#000000;stroke:none;stroke-width:0.00529166" />
              </g>
            </g>
            <g
               id="fieldline9">
              <path
                 inkscape:connector-curvature="0"
                 d="M -4.01,0.4729 -3.7551,0.4017 -3.5233,0.3393 -3.3186,0.2867 -3.1417,0.2436 -2.99,0.2089 -2.8586,0.1813 -2.7425,0.1592 -2.6369,0.1415 -2.5373,0.1273 -2.4394,0.1158 -2.3385,0.1065 -2.2288,0.0989 -2.1026,0.0929 -1.945,0.0882 -1.7276,0.0846 -1.3805,0.0819 -0.678,0.0803 H 0.678 L 1.3805,0.0819 1.7276,0.0846 1.945,0.0882 2.1026,0.0929 2.2288,0.0989 2.3385,0.1065 2.4394,0.1158 2.5373,0.1273 2.6369,0.1415 2.7425,0.1592 2.8586,0.1813 2.99,0.2089 3.1417,0.2436 3.3186,0.2867 3.5233,0.3393 3.7551,0.4017 4.01,0.4729"
                 id="path267" />
              <g
                 id="arrows9">
                <path
                   inkscape:connector-curvature="0"
                   d="m -2.6968343,0.15153799 -0.011083,0.0139264 0.029349,-0.0169832 -0.03328,-0.006503 z"
                   id="use269"
                   style="fill:#000000;stroke:none;stroke-width:0.00529166" />
                <path
                   inkscape:connector-curvature="0"
                   d="M 0.0015875,0.0803 -0.01164166,0.09220624 0.02010834,0.0803 -0.01164166,0.06839376 Z"
                   id="use271"
                   style="fill:#000000;stroke:none;stroke-width:0.00529166" />
                <path
                   inkscape:connector-curvature="0"
                   d="M 2.6999654,0.1521642 2.6849394,0.1617032 2.7182284,0.1552472 2.6889024,0.138223 Z"
                   id="use273"
                   style="fill:#000000;stroke:none;stroke-width:0.00529166" />
              </g>
            </g>
            <g
               id="fieldline10">
              <path
                 inkscape:connector-curvature="0"
                 d="M -4.01,1.0378 -3.8424,0.9302 -3.6802,0.8289 -3.5257,0.7353 -3.3813,0.6506 -3.2488,0.5756 -3.129,0.5106 -3.0218,0.455 -2.926,0.4079 -2.8399,0.3683 -2.7617,0.3348 -2.6895,0.3066 -2.6217,0.2826 -2.5565,0.2621 -2.4923,0.2446 -2.4276,0.2294 -2.3607,0.2164 -2.2893,0.2051 -2.2111,0.1953 -2.1224,0.1869 -2.0188,0.1798 -1.8921,0.1739 -1.7277,0.169 -1.498,0.1651 -1.1403,0.1621 -0.5026,0.1603 H 0.5026 L 1.1403,0.1621 1.498,0.1651 1.7277,0.169 1.8921,0.1739 2.0188,0.1798 2.1224,0.1869 2.2111,0.1953 2.2893,0.2051 2.3607,0.2164 2.4276,0.2294 2.4923,0.2446 2.5565,0.2621 2.6217,0.2826 2.6895,0.3066 2.7617,0.3348 2.8399,0.3683 2.926,0.4079 3.0218,0.455 3.129,0.5106 3.2488,0.5756 3.3813,0.6506 3.5257,0.7353 3.6802,0.8289 3.8424,0.9302 4.01,1.0378"
                 id="path277" />
              <g
                 id="arrows10">
                <path
                   inkscape:connector-curvature="0"
                   d="m -2.7867348,0.34578891 -0.00763,0.0160812 0.02472,-0.0232106 -0.033887,0.001233 z"
                   id="use279"
                   style="fill:#000000;stroke:none;stroke-width:0.00529166" />
                <path
                   inkscape:connector-curvature="0"
                   d="m 0.0015875,0.1603 -0.01322916,0.0119062 0.03175,-0.0119062 -0.03175,-0.0119062 z"
                   id="use281"
                   style="fill:#000000;stroke:none;stroke-width:0.00529166" />
                <path
                   inkscape:connector-curvature="0"
                   d="m 2.7896598,0.34682385 -0.016844,0.00575 0.033875,0.001529 -0.024517,-0.0234254 z"
                   id="use283"
                   style="fill:#000000;stroke:none;stroke-width:0.00529166" />
              </g>
            </g>
            <g
               id="fieldline11">
              <path
                 inkscape:connector-curvature="0"
                 d="M -4.01,1.9388 -3.911,1.8046 -3.8103,1.6724 -3.7084,1.5426 -3.6056,1.4158 -3.5026,1.2927 -3.4005,1.1744 -3.3003,1.0622 -3.2037,0.9576 -3.112,0.862 -3.0267,0.7764 -2.9485,0.7012 -2.8774,0.6363 -2.8131,0.5807 -2.7547,0.5333 -2.7013,0.493 -2.6517,0.4587 -2.6049,0.4291 -2.5598,0.4035 -2.5155,0.3812 -2.4709,0.3616 -2.425,0.3441 -2.3768,0.3285 -2.3253,0.3145 -2.2691,0.3019 -2.2067,0.2907 -2.1361,0.2807 -2.0549,0.2719 -1.9591,0.2642 -1.842,0.2576 -1.6931,0.252 -1.4937,0.2474 -1.2066,0.2437 -0.7515,0.2411 0,0.24 0.7515,0.2411 1.2066,0.2437 1.4937,0.2474 1.6931,0.252 1.842,0.2576 1.9591,0.2642 2.0549,0.2719 2.1361,0.2807 2.2067,0.2907 2.2691,0.3019 2.3253,0.3145 2.3768,0.3285 2.425,0.3441 2.4709,0.3616 2.5155,0.3812 2.5598,0.4035 2.6049,0.4291 2.6517,0.4587 2.7013,0.493 2.7547,0.5333 2.8131,0.5807 2.8774,0.6363 2.9485,0.7012 3.0267,0.7764 3.112,0.862 3.2037,0.9576 3.3003,1.0622 3.4005,1.1744 3.5026,1.2927 3.6056,1.4158 3.7084,1.5426 3.8103,1.6724 3.911,1.8046 4.01,1.9388"
                 id="path287" />
              <g
                 id="arrows11">
                <path
                   inkscape:connector-curvature="0"
                   d="m -2.993755,0.74470042 -0.00129,0.0177508 0.014654,-0.0305792 -0.031147,0.0134038 z"
                   id="use289"
                   style="fill:#000000;stroke:none;stroke-width:0.00529166" />
                <path
                   inkscape:connector-curvature="0"
                   d="m 0.0015875,0.24000083 -0.01323539,0.0118993 0.03175623,-0.0118896 -0.03174376,-0.0119229 z"
                   id="use291"
                   style="fill:#000000;stroke:none;stroke-width:0.00529166" />
                <path
                   inkscape:connector-curvature="0"
                   d="m 2.9960433,0.74700137 -0.017788,-6.0338e-4 0.031126,0.0134528 -0.014606,-0.0306022 z"
                   id="use293"
                   style="fill:#000000;stroke:none;stroke-width:0.00529166" />
              </g>
            </g>
            <g
               id="fieldline12">
              <path
                 inkscape:connector-curvature="0"
                 d="m -3.4674,3.01 0.0222,-0.1282 0.0248,-0.1287 0.0275,-0.1291 0.0302,-0.1295 0.0328,-0.1297 0.0355,-0.1301 0.0382,-0.1302 0.0409,-0.1302 0.0434,-0.13 0.0459,-0.1296 0.0483,-0.1285 0.0503,-0.1269 0.0519,-0.1242 0.0529,-0.12 0.0528,-0.1138 0.0516,-0.1054 0.0492,-0.0948 0.0457,-0.083 0.0416,-0.0709 0.0376,-0.0593 0.034,-0.0492 0.0309,-0.0407 0.0287,-0.0339 0.0273,-0.0285 0.0268,-0.0245 0.0272,-0.0215 0.0284,-0.0192 0.0306,-0.0176 0.0333,-0.0162 0.037,-0.015 0.0415,-0.014 0.0467,-0.013 0.053,-0.0119 0.061,-0.0109 L -2.067,0.3619 -1.9847,0.353 -1.8861,0.3452 -1.7651,0.3384 -1.6115,0.3326 -1.407,0.3277 -1.1178,0.3239 -0.6767,0.3211 0,0.32 0.6767,0.3211 1.1178,0.3239 1.407,0.3277 1.6115,0.3326 1.7651,0.3384 1.8861,0.3452 1.9847,0.353 2.067,0.3619 l 0.0707,0.0099 0.061,0.0109 0.053,0.0119 0.0467,0.013 0.0415,0.014 0.037,0.015 0.0333,0.0162 0.0306,0.0176 0.0284,0.0192 0.0272,0.0215 0.0268,0.0245 0.0273,0.0285 0.0287,0.0339 0.0309,0.0407 0.034,0.0492 0.0376,0.0593 0.0416,0.0709 0.0457,0.083 0.0492,0.0948 0.0516,0.1054 0.0528,0.1138 0.0529,0.12 0.0519,0.1242 0.0503,0.1269 0.0483,0.1285 0.0459,0.1296 0.0434,0.13 L 3.2562,2.1045 3.2944,2.2347 3.3299,2.3648 3.3627,2.4945 3.3929,2.624 3.4204,2.7531 3.4452,2.8818 3.4674,3.01"
                 id="path297" />
              <g
                 id="arrows12">
                <path
                   inkscape:connector-curvature="0"
                   d="m -2.9760698,1.337243 0.00568,0.016869 0.00168,-0.033867 -0.023532,0.024414 z"
                   id="use299"
                   style="fill:#000000;stroke:none;stroke-width:0.00529166" />
                <path
                   inkscape:connector-curvature="0"
                   d="m 0.0015875,0.32010111 -0.01323747,0.011897 0.0317583,-0.0118841 -0.03174167,-0.0119284 z"
                   id="use301"
                   style="fill:#000000;stroke:none;stroke-width:0.00529166" />
                <path
                   inkscape:connector-curvature="0"
                   d="m 2.9773195,1.3401616 -0.016125,-0.00753 0.023353,0.024586 -0.00143,-0.033879 z"
                   id="use303"
                   style="fill:#000000;stroke:none;stroke-width:0.00529166" />
              </g>
            </g>
            <g
               id="fieldline13">
              <path
                 inkscape:connector-curvature="0"
                 d="M -2.3491,3.01 -2.3768,2.9134 -2.4023,2.8148 -2.4258,2.7142 -2.4471,2.6116 -2.4661,2.507 -2.483,2.4004 -2.4975,2.2917 -2.5098,2.1809 -2.5197,2.068 -2.5272,1.9529 -2.5323,1.8355 -2.5349,1.7158 V 1.5939 l 0.0024,-0.1241 0.0051,-0.126 0.0077,-0.1269 0.0102,-0.1261 0.0123,-0.1213 0.0135,-0.1103 0.0136,-0.0913 0.0124,-0.0688 0.0107,-0.0478 0.0092,-0.0315 0.0083,-0.0209 0.0087,-0.0155 0.0105,-0.0136 0.0139,-0.0135 0.0181,-0.0138 0.023,-0.0141 0.0282,-0.0141 0.0337,-0.0137 0.0396,-0.0132 0.0463,-0.0125 0.0538,-0.0117 0.0627,-0.0109 0.0735,-0.0099 0.0864,-0.0089 0.104,-0.008 0.1279,-0.0069 0.1624,-0.006 0.2149,-0.0049 0.3003,-0.004 L -0.5752,0.401 0.0639,0.4 0.6726,0.4014 1.086,0.4044 1.3669,0.4085 1.5694,0.4136 1.7239,0.4197 1.8465,0.4268 1.9467,0.4349 2.0303,0.4439 2.1016,0.454 2.1625,0.4649 2.2148,0.4767 2.2599,0.4893 2.2984,0.5025 2.3312,0.5162 2.3586,0.5302 2.3808,0.5443 2.3983,0.558 2.4117,0.5714 2.4219,0.5851 2.4303,0.6008 2.4387,0.6225 2.448,0.6553 2.4588,0.7047 2.4713,0.7753 2.4849,0.8681 2.4983,0.979 2.5104,1.1004 2.5203,1.226 2.5278,1.3523 2.5327,1.4776 2.535,1.6011 2.5348,1.7223 2.5321,1.8414 2.5269,1.9581 2.5193,2.0726 2.5094,2.1849 2.4971,2.2951 2.4825,2.4033 2.4657,2.5094 2.4467,2.6134 2.4255,2.7155 2.4021,2.8157 2.3766,2.9138 2.3491,3.01"
                 id="path307" />
              <g
                 id="arrows13">
                <path
                   inkscape:connector-curvature="0"
                   d="m -2.5292349,1.3893138 0.011354,0.013706 -0.010594,-0.032212 -0.013198,0.031235 z"
                   id="use309"
                   style="fill:#000000;stroke:none;stroke-width:0.00529166" />
                <path
                   inkscape:connector-curvature="0"
                   d="m 0.0015875,0.40009751 -0.01321044,0.011927 0.03173125,-0.0119561 -0.03176866,-0.0118563 z"
                   id="use311"
                   style="fill:#000000;stroke:none;stroke-width:0.00529166" />
                <path
                   inkscape:connector-curvature="0"
                   d="m 2.529362,1.3924863 -0.012414,-0.012754 0.013138,0.03126 0.010656,-0.032191 z"
                   id="use313"
                   style="fill:#000000;stroke:none;stroke-width:0.00529166" />
              </g>
            </g>
            <g
               id="fieldline14">
              <path
                 inkscape:connector-curvature="0"
                 d="M -0.3791,3.01 -0.4417,2.9942 -0.504,2.9759 -0.5661,2.9552 -0.6277,2.932 -0.689,2.9064 -0.7498,2.8783 -0.8102,2.8478 -0.8701,2.8147 -0.9295,2.7792 -0.9883,2.7411 -1.0464,2.7006 -1.1039,2.6575 -1.1608,2.6118 -1.2169,2.5636 -1.2723,2.5128 -1.3269,2.4594 -1.3807,2.4033 -1.4337,2.3446 -1.4859,2.2831 -1.5372,2.2188 -1.5877,2.1516 -1.6373,2.0815 -1.6861,2.0083 -1.7341,1.9318 -1.7814,1.852 -1.8279,1.7684 -1.8739,1.6808 -1.9194,1.5887 -1.9649,1.4912 -2.0106,1.387 -2.0578,1.2732 -2.1094,1.1416 -2.1751,0.9656 -2.2343,0.8053 -2.2683,0.7188 -2.2921,0.6637 -2.3109,0.6256 -2.3254,0.6001 -2.3089,0.593 -2.2726,0.5797 -2.2298,0.5666 -2.1807,0.5544 -2.124,0.5429 -2.0584,0.5322 -1.9819,0.5225 -1.8923,0.5137 -1.7852,0.5059 -1.6545,0.4989 -1.4905,0.493 -1.2774,0.488 -0.9871,0.484 -0.5729,0.4811 0,0.48 0.5537,0.481 0.9611,0.4837 1.2494,0.4875 1.4624,0.4922 1.6266,0.4977 1.7579,0.5042 1.8665,0.5116 1.9575,0.5199 2.0349,0.529 2.1014,0.5389 2.159,0.5497 2.2092,0.5612 2.253,0.5734 2.2914,0.5863 2.3255,0.6 2.3087,0.6299 2.2892,0.6702 2.2647,0.7275 2.2302,0.8163 2.1211,1.1107 2.0686,1.2461 2.021,1.3626 1.9748,1.469 1.9291,1.5684 1.8833,1.6622 1.8371,1.7513 1.7904,1.8362 1.7429,1.9174 1.6947,1.995 1.6457,2.0693 1.5958,2.1405 1.5451,2.2086 1.4935,2.2738 1.441,2.3362 1.3877,2.3958 1.3336,2.4526 1.2787,2.5068 1.2229,2.5582 1.1665,2.6071 1.1093,2.6533 1.0514,2.697 0.9928,2.7381 0.9336,2.7766 0.8738,2.8126 0.8135,2.846 0.7527,2.877 0.6914,2.9054 0.6297,2.9313 0.5675,2.9547 0.505,2.9756 0.4422,2.994 0.3791,3.01"
                 id="path317" />
              <g
                 id="arrows14">
                <path
                   inkscape:connector-curvature="0"
                   d="m -1.5151841,2.2462543 0.017543,0.003 -0.029025,-0.017532 0.01034,0.032294 z"
                   id="use319"
                   style="fill:#000000;stroke:none;stroke-width:0.00529166" />
                <path
                   inkscape:connector-curvature="0"
                   d="m -1.3919129,0.4906626 -0.012945,0.0122146 0.031461,-0.012651 -0.032022,-0.0111549 z"
                   id="use321"
                   style="fill:#000000;stroke:none;stroke-width:0.00529166" />
                <path
                   inkscape:connector-curvature="0"
                   d="m 1.3952871,0.49063491 -0.013488,0.0116125 0.032004,-0.0112052 -0.031481,-0.0126015 z"
                   id="use323"
                   style="fill:#000000;stroke:none;stroke-width:0.00529166" />
                <path
                   inkscape:connector-curvature="0"
                   d="m 1.5132068,2.2486384 -0.00101,-0.017769 -0.010576,0.032217 0.029153,-0.017319 z"
                   id="use325"
                   style="fill:#000000;stroke:none;stroke-width:0.00529166" />
              </g>
            </g>
            <g
               id="fieldline15">
              <path
                 inkscape:connector-curvature="0"
                 d="M 0,0.56 0.5215,0.561 0.9165,0.5637 1.2038,0.5675 1.4198,0.5722 1.5886,0.5778 1.7247,0.5843 1.8383,0.5917 1.9342,0.6 1.814,0.6944 1.6187,0.8495 1.5074,0.9351 1.4112,1.0062 1.323,1.0685 1.2397,1.1243 1.1599,1.175 1.0826,1.2211 1.0073,1.2633 0.9335,1.3018 0.8609,1.3369 0.7893,1.3689 0.7186,1.3978 0.6485,1.4237 0.579,1.4468 0.5099,1.4673 0.4412,1.485 0.3729,1.5001 0.3047,1.5126 0.2368,1.5226 0.1691,1.53 0.1013,1.535 0.0337,1.5375 H -0.0338 L -0.1014,1.535 -0.1691,1.53 -0.2369,1.5226 -0.3047,1.5126 -0.3729,1.5001 -0.4413,1.485 -0.5099,1.4672 -0.579,1.4468 -0.6485,1.4237 -0.7186,1.3977 -0.7894,1.3688 -0.8609,1.3369 -0.9335,1.3018 -1.0073,1.2633 -1.0827,1.2211 -1.1599,1.175 -1.2398,1.1243 -1.323,1.0685 -1.4112,1.0062 -1.5074,0.9351 -1.6187,0.8495 -1.814,0.6944 -1.9342,0.6 -1.8382,0.5917 -1.7245,0.5843 -1.5882,0.5778 -1.4191,0.5722 -1.2026,0.5675 -0.9145,0.5637 -0.5186,0.561 Z"
                 id="path329" />
              <g
                 id="arrows15">
                <path
                   inkscape:connector-curvature="0"
                   d="m 0.0015875,0.56010111 -0.01323747,0.011897 0.0317583,-0.0118841 -0.03174167,-0.0119284 z"
                   id="use331"
                   style="fill:#000000;stroke:none;stroke-width:0.00529166" />
                <path
                   inkscape:connector-curvature="0"
                   d="m 1.2809816,1.0966843 0.00435,-0.017257 -0.019736,0.027574 0.033,-0.0078 z"
                   id="use333"
                   style="fill:#000000;stroke:none;stroke-width:0.00529166" />
                <path
                   inkscape:connector-curvature="0"
                   d="m -1.2836183,1.0949155 0.017619,-0.00252 -0.032999,-0.0078 0.019732,0.027577 z"
                   id="use335"
                   style="fill:#000000;stroke:none;stroke-width:0.00529166" />
              </g>
            </g>
          </g>
          <g
             id="symbols">
            <path
               inkscape:connector-curvature="0"
               style="fill:none;stroke:#808080;stroke-width:0.06;stroke-linecap:butt"
               d="M -2.4,-0.6 H 2.4"
               id="path340" />
            <path
               inkscape:connector-curvature="0"
               style="fill:none;stroke:#808080;stroke-width:0.06;stroke-linecap:butt"
               d="M -2.4,0.6 H 2.4"
               id="path342" />
          </g>
        </g>
        <g
           id="image-6"
           transform="matrix(6.4674326,0,0,-6.4674326,28.639876,119.86884)">
          <g
             style="fill:none;stroke:#000000;stroke-width:0.02;stroke-linecap:round;stroke-linejoin:round"
             id="fieldlines-7">
            <g
               id="fieldline1-5">
              <path
                 inkscape:connector-curvature="0"
                 d="M 0,-0.5797 0.5484,-0.5808 0.9574,-0.5839 1.2507,-0.5882 1.4693,-0.5936 1.6391,-0.6 1.4622,-0.6966 1.3373,-0.7623 1.228,-0.8171 1.1279,-0.8645 1.0337,-0.9064 0.9439,-0.9437 0.8573,-0.9769 0.7734,-1.0064 0.6914,-1.0326 0.6112,-1.0556 0.5322,-1.0756 0.4543,-1.0927 0.3774,-1.107 0.3011,-1.1187 0.2254,-1.1277 0.1501,-1.1341 0.0749,-1.1379 0,-1.1392 l -0.075,0.0013 -0.0751,0.0038 -0.0753,0.0064 -0.0757,0.009 -0.0762,0.0117 -0.077,0.0143 -0.0779,0.0171 -0.0789,0.02 -0.0803,0.023 -0.0819,0.0262 -0.084,0.0295 -0.0865,0.0332 -0.0899,0.0373 -0.0941,0.0419 -0.1002,0.0474 -0.1093,0.0548 -0.1249,0.0656 -0.1769,0.0967 0.1698,0.0064 0.2184,0.0054 0.2934,0.0043 0.4091,0.0031 z"
                 id="path10" />
              <g
                 id="arrows1-3">
                <path
                   inkscape:connector-curvature="0"
                   d="m 0.0015875,-0.57970139 -0.01321877,0.0119178 0.0317396,-0.0119339 -0.03176038,-0.0118785 z"
                   id="use12"
                   style="fill:#000000;stroke:none;stroke-width:0.00529166" />
                <path
                   inkscape:connector-curvature="0"
                   d="m -0.00158747,-1.1386895 0.01314991,-0.011994 -0.03167034,0.012117 0.03182827,0.011695 z"
                   id="use14"
                   style="fill:#000000;stroke:none;stroke-width:0.00529166" />
              </g>
            </g>
            <g
               id="fieldline2-5">
              <path
                 inkscape:connector-curvature="0"
                 d="m 0,-0.5367 0.5476,-0.0011 0.4072,-0.0028 0.2905,-0.0041 0.2158,-0.005 0.1673,-0.006 0.1342,-0.007 0.1106,-0.0079 0.0937,-0.0088 0.08,-0.0099 L 2.1162,-0.6 2.0617,-0.6559 1.9904,-0.7334 1.8287,-0.9156 1.7189,-1.0377 1.6317,-1.1312 1.5527,-1.2125 1.4782,-1.2857 1.4066,-1.3527 1.3369,-1.4145 1.2686,-1.4719 1.2013,-1.5253 1.1347,-1.5749 1.0687,-1.6211 1.0031,-1.664 0.9377,-1.7038 0.8727,-1.7406 0.8077,-1.7744 0.743,-1.8054 0.6782,-1.8336 0.6136,-1.8591 0.549,-1.882 0.4844,-1.9022 0.4198,-1.9198 0.3552,-1.9348 0.2906,-1.9473 0.2261,-1.9573 0.1615,-1.9648 0.0969,-1.9698 0.0324,-1.9723 h -0.0646 l -0.0646,0.0025 -0.0646,0.005 -0.0645,0.0075 -0.0647,0.0099 -0.0645,0.0125 -0.0646,0.0151 -0.0646,0.0176 -0.0645,0.0202 -0.0647,0.0228 -0.0646,0.0255 -0.0647,0.0282 -0.0648,0.031 -0.0649,0.0339 -0.0651,0.0367 -0.0653,0.0398 -0.0656,0.0429 -0.066,0.0462 -0.0666,0.0496 -0.0673,0.0534 -0.0684,0.0573 -0.0696,0.0619 -0.0716,0.067 -0.0745,0.0731 -0.0789,0.0812 -0.0873,0.0936 -0.1097,0.122 -0.1619,0.1824 -0.0714,0.0775 -0.0545,0.056 0.0693,0.0107 0.0801,0.0099 0.0937,0.0088 0.1108,0.0079 0.1344,0.007 0.1673,0.006 0.2158,0.0051 0.2905,0.004 0.4071,0.0028 z"
                 id="path18" />
              <g
                 id="arrows2-6">
                <path
                   inkscape:connector-curvature="0"
                   d="m 0.0015875,-0.53670139 -0.01321877,0.0119178 0.0317396,-0.0119339 -0.03176038,-0.0118785 z"
                   id="use20"
                   style="fill:#000000;stroke:none;stroke-width:0.00529166" />
                <path
                   inkscape:connector-curvature="0"
                   d="m 1.4065219,-1.3521641 0.017798,3.19e-5 -0.031542,-0.012446 0.015581,0.030118 z"
                   id="use22"
                   style="fill:#000000;stroke:none;stroke-width:0.00529166" />
                <path
                   inkscape:connector-curvature="0"
                   d="m -1.4088672,-1.350024 0.00166,-0.017721 -0.015275,0.030274 0.031415,-0.012765 z"
                   id="use24"
                   style="fill:#000000;stroke:none;stroke-width:0.00529166" />
              </g>
            </g>
            <g
               id="fieldline3-2">
              <path
                 inkscape:connector-curvature="0"
                 d="M 0,-0.4899 0.5579,-0.491 0.9674,-0.4937 1.2567,-0.4976 1.4701,-0.5025 1.6347,-0.5082 1.7664,-0.5149 1.8752,-0.5225 1.9663,-0.5311 2.0438,-0.5405 2.1104,-0.5508 2.168,-0.5619 2.2183,-0.5738 2.2623,-0.5865 2.3014,-0.6 2.2802,-0.6341 2.2553,-0.6794 2.2241,-0.7427 2.1769,-0.8458 2.0544,-1.1223 1.9944,-1.2522 1.9397,-1.3645 1.8871,-1.4669 1.8354,-1.5621 1.7839,-1.6516 1.7323,-1.7363 1.6804,-1.8167 1.6281,-1.8932 1.5751,-1.9661 1.5216,-2.0355 1.4673,-2.1017 1.4124,-2.1647 1.3568,-2.2247 1.3005,-2.2817 1.2435,-2.3358 1.1858,-2.3871 1.1275,-2.4356 1.0685,-2.4813 1.0089,-2.5242 0.9487,-2.5645 0.888,-2.6021 0.8268,-2.637 0.7651,-2.6693 0.7029,-2.6989 0.6403,-2.7259 0.5773,-2.7503 0.514,-2.7721 0.4505,-2.7914 0.3866,-2.808 0.3225,-2.8221 0.2582,-2.8336 0.1938,-2.8426 0.1293,-2.8489 0.0646,-2.8528 0,-2.854 l -0.0647,0.0012 -0.0646,0.0039 -0.0646,0.0064 -0.0644,0.0089 -0.0642,0.0115 -0.0641,0.0141 -0.0639,0.0166 -0.0636,0.0193 -0.0633,0.0218 -0.063,0.0244 -0.0625,0.027 -0.0622,0.0297 -0.0617,0.0322 -0.0613,0.035 -0.0607,0.0375 -0.0601,0.0403 -0.0596,0.043 -0.059,0.0457 -0.0583,0.0484 -0.0577,0.0513 -0.057,0.0541 -0.0563,0.0571 -0.0557,0.0599 -0.0549,0.0631 -0.0542,0.0661 -0.0536,0.0695 -0.0529,0.0728 -0.0524,0.0765 -0.0519,0.0805 -0.0515,0.0846 -0.0515,0.0896 -0.0517,0.0952 -0.0526,0.1024 -0.0547,0.1123 -0.0601,0.1299 -0.1223,0.276 -0.0472,0.1033 -0.0313,0.0634 -0.0248,0.0453 -0.0213,0.0342 0.0391,0.0135 0.0441,0.0127 0.0503,0.0119 0.0577,0.0112 0.0667,0.0102 0.0775,0.0095 0.0907,0.0085 0.1081,0.0076 0.1318,0.0067 0.1647,0.0057 0.2134,0.0049 0.2893,0.0039 0.4096,0.0027 z"
                 id="path28" />
              <g
                 id="arrows3-9">
                <path
                   inkscape:connector-curvature="0"
                   d="m 0.0015875,-0.49000139 -0.01321877,0.0119178 0.0317396,-0.0119339 -0.03176038,-0.0118785 z"
                   id="use30"
                   style="fill:#000000;stroke:none;stroke-width:0.00529166" />
                <path
                   inkscape:connector-curvature="0"
                   d="m 2.0616472,-1.1055471 0.016293,0.00716 -0.023909,-0.024046 0.0022,0.033837 z"
                   id="use32"
                   style="fill:#000000;stroke:none;stroke-width:0.00529166" />
                <path
                   inkscape:connector-curvature="0"
                   d="m -0.00158745,-2.8533878 0.01313733,-0.012007 -0.03165763,0.01215 0.0318405,0.011662 z"
                   id="use34"
                   style="fill:#000000;stroke:none;stroke-width:0.00529166" />
                <path
                   inkscape:connector-curvature="0"
                   d="m -2.0631437,-1.1027488 -0.00552,-0.01692 -0.00199,0.033851 0.023757,-0.024196 z"
                   id="use36"
                   style="fill:#000000;stroke:none;stroke-width:0.00529166" />
              </g>
            </g>
            <g
               id="fieldline4-1">
              <path
                 inkscape:connector-curvature="0"
                 d="m -1.7076,-3.01 -0.0466,0.0699 -0.0452,0.0723 -0.0437,0.0747 -0.0423,0.077 -0.0408,0.0795 -0.0392,0.0819 -0.0376,0.0844 -0.0361,0.0868 -0.0344,0.0894 -0.0328,0.0921 -0.0311,0.0948 -0.0294,0.0977 -0.0278,0.1006 -0.026,0.104 -0.0244,0.1074 -0.0227,0.1113 -0.021,0.1158 -0.0194,0.121 -0.018,0.1277 -0.0166,0.1368 -0.0159,0.1529 -0.0249,0.2723 -0.0054,0.0437 -0.0037,0.016 0.0154,0.0131 0.0192,0.013 0.0243,0.0133 0.0296,0.0133 0.035,0.0129 0.041,0.0125 0.0477,0.0118 0.0551,0.0111 0.064,0.0103 0.0747,0.0095 0.0882,0.0085 0.105,0.0076 0.1284,0.0067 0.1617,0.0057 0.211,0.0048 0.2892,0.0039 0.4178,0.0027 L 0,-0.4382 0.5855,-0.4392 1.0032,-0.442 1.2924,-0.4458 1.5035,-0.4507 1.665,-0.4564 1.7934,-0.4631 1.8984,-0.4707 1.9867,-0.4792 2.0615,-0.4887 2.1255,-0.499 2.1806,-0.5101 2.2282,-0.5219 2.2692,-0.5344 2.3042,-0.5473 2.3338,-0.5606 2.3581,-0.5739 2.3772,-0.5869 2.3926,-0.6 2.3891,-0.6149 2.3841,-0.6537 2.3695,-0.8139 2.3531,-0.9878 2.3373,-1.1312 2.3206,-1.2623 2.3026,-1.3856 2.283,-1.503 2.2619,-1.6157 2.2392,-1.7241 2.2148,-1.829 2.1888,-1.9304 2.1612,-2.0289 2.1319,-2.1244 2.1011,-2.2172 2.0686,-2.3073 2.0345,-2.3949 1.9988,-2.4801 1.9616,-2.5628 1.9229,-2.6432 1.8827,-2.7211 1.841,-2.7968 1.7979,-2.8702 1.7535,-2.9412 1.7076,-3.01"
                 id="path40" />
              <g
                 id="arrows4-2">
                <path
                   inkscape:connector-curvature="0"
                   d="m 0.03363098,-0.41427148 -0.002722,-0.0175886 -0.0074166,0.033088 0.02734435,-0.0200526 z"
                   id="use42"
                   style="fill:#000000;stroke:none;stroke-width:0.00529166" />
                <path
                   inkscape:connector-curvature="0"
                   d="m 2.2867284,-1.4795641 0.013994,0.010997 -0.017162,-0.029245 -0.0063,0.033319 z"
                   id="use44"
                   style="fill:#000000;stroke:none;stroke-width:0.00529166" />
                <path
                   inkscape:connector-curvature="0"
                   d="m -2.287365,-1.4764348 -0.00953,-0.015031 0.00644,0.033292 0.01704,-0.029317 z"
                   id="use46"
                   style="fill:#000000;stroke:none;stroke-width:0.00529166" />
              </g>
            </g>
            <g
               id="fieldline5-7">
              <path
                 inkscape:connector-curvature="0"
                 d="m -2.6477,-3.01 -0.0158,0.1064 -0.0134,0.1081 -0.0111,0.1097 -0.0087,0.1113 -0.0062,0.1129 -0.0039,0.1145 -0.0013,0.1162 0.0012,0.1177 0.0037,0.1194 0.0064,0.121 0.0089,0.1224 0.0116,0.1238 0.0142,0.1248 0.0169,0.1253 0.0192,0.1244 0.0214,0.1217 0.0227,0.1156 0.0232,0.1052 0.0222,0.09 0.0203,0.0732 0.0181,0.0568 0.0159,0.0428 0.0141,0.0318 0.0133,0.0242 0.0133,0.0196 0.0145,0.0168 0.0169,0.0157 0.0202,0.0151 0.0242,0.0148 0.0288,0.0144 0.0338,0.0139 0.0394,0.0133 0.0456,0.0125 0.0529,0.0118 0.0613,0.0108 0.0718,0.0099 0.0844,0.0089 0.1011,0.008 0.1241,0.0069 0.1572,0.006 0.2075,0.005 0.2894,0.0039 0.4308,0.0029 0.6321,0.0011 0.6344,-0.0011 0.4337,-0.0028 0.2911,-0.004 0.2085,-0.0049 0.1579,-0.006 0.1246,-0.0069 0.1014,-0.0079 0.0851,-0.009 L 2.1031,-0.432 2.1646,-0.4428 2.2176,-0.4545 2.2633,-0.4671 2.3027,-0.4804 2.3366,-0.4943 2.3654,-0.5087 2.3896,-0.5234 2.4099,-0.5385 2.4268,-0.5542 2.4414,-0.571 2.4547,-0.5905 2.4679,-0.6147 2.482,-0.6464 2.4979,-0.689 2.516,-0.7456 2.5363,-0.8187 2.5585,-0.9085 2.5816,-1.0136 2.6044,-1.1291 2.6258,-1.2508 2.6451,-1.3753 2.6619,-1.5006 2.6762,-1.6256 2.6878,-1.7495 2.6968,-1.872 2.7031,-1.993 2.7069,-2.1125 2.7081,-2.2304 2.7068,-2.3466 2.703,-2.4612 2.6967,-2.5742 2.688,-2.6856 2.6769,-2.7953 2.6635,-2.9035 2.6477,-3.01"
                 id="path50" />
              <g
                 id="arrows5-0">
                <path
                   inkscape:connector-curvature="0"
                   d="m -2.6430618,-1.3636305 -0.013756,-0.011293 0.016536,0.029604 0.00701,-0.033177 z"
                   id="use52"
                   style="fill:#000000;stroke:none;stroke-width:0.00529166" />
                <path
                   inkscape:connector-curvature="0"
                   d="m 0.0015875,-0.37950139 -0.01321877,0.0119178 0.0317396,-0.0119339 -0.03176038,-0.0118785 z"
                   id="use54"
                   style="fill:#000000;stroke:none;stroke-width:0.00529166" />
                <path
                   inkscape:connector-curvature="0"
                   d="m 2.6435259,-1.3667713 0.0099,0.014789 -0.00727,-0.033121 -0.016303,0.029733 z"
                   id="use56"
                   style="fill:#000000;stroke:none;stroke-width:0.00529166" />
              </g>
            </g>
            <g
               id="fieldline6-9">
              <path
                 inkscape:connector-curvature="0"
                 d="m -3.6096,-3.01 0.029,0.1304 0.0318,0.1307 0.0343,0.1309 0.037,0.131 0.0396,0.1311 0.0423,0.1312 0.0448,0.1311 0.0474,0.1308 0.05,0.1304 0.0523,0.1296 0.0545,0.1283 0.0563,0.1264 0.0577,0.1233 0.0584,0.1188 0.0579,0.1125 0.0564,0.1041 0.0534,0.0938 0.0497,0.0823 0.0453,0.0707 0.041,0.0595 0.0371,0.0498 0.0338,0.0416 0.0314,0.0347 0.0297,0.0295 0.029,0.0253 0.0291,0.0221 0.0301,0.0198 0.0319,0.0179 0.0345,0.0164 0.0379,0.0152 0.042,0.014 0.0472,0.0129 0.0533,0.0119 0.061,0.0109 0.0707,0.0099 0.0822,0.0087 0.0982,0.0077 0.1206,0.0068 0.1531,0.0057 0.204,0.0048 0.289,0.0038 0.4422,0.0027 L 0,-0.3098 0.6825,-0.311 1.1247,-0.3137 1.4137,-0.3175 1.6177,-0.3223 1.7708,-0.328 1.8914,-0.3348 1.9896,-0.3425 2.0718,-0.3512 2.1425,-0.3611 2.2035,-0.372 2.2568,-0.3839 2.304,-0.3968 2.346,-0.4108 2.3839,-0.426 2.4184,-0.4424 2.4503,-0.4603 2.4804,-0.4801 2.5095,-0.5022 2.5385,-0.5275 2.5682,-0.557 2.5996,-0.5917 2.6334,-0.6333 2.6705,-0.6831 2.7115,-0.7426 2.7568,-0.8133 2.8065,-0.8956 2.8599,-0.9894 2.9163,-1.0935 2.9742,-1.206 3.0326,-1.3248 3.0903,-1.4481 3.1466,-1.5745 3.2011,-1.7028 3.2534,-1.8324 3.3034,-1.9628 3.3508,-2.0936 3.3956,-2.2247 3.4379,-2.3559 3.4775,-2.487 3.5145,-2.618 3.5488,-2.7489 3.5806,-2.8796 3.6096,-3.01"
                 id="path60" />
              <g
                 id="arrows6-3">
                <path
                   inkscape:connector-curvature="0"
                   d="m -3.217104,-1.7425286 -0.016002,-0.00779 0.022955,0.024958 -8.841e-4,-0.033897 z"
                   id="use62"
                   style="fill:#000000;stroke:none;stroke-width:0.00529166" />
                <path
                   inkscape:connector-curvature="0"
                   d="m -1.3254126,-0.31627922 -0.013384,0.0117321 0.031903,-0.0114896 -0.031591,-0.0123208 z"
                   id="use64"
                   style="fill:#000000;stroke:none;stroke-width:0.00529166" />
                <path
                   inkscape:connector-curvature="0"
                   d="m 1.3285874,-0.31632078 -0.013072,0.0120784 0.031591,-0.0123208 -0.031903,-0.0114896 z"
                   id="use66"
                   style="fill:#000000;stroke:none;stroke-width:0.00529166" />
                <path
                   inkscape:connector-curvature="0"
                   d="m 3.2182942,-1.7454721 0.00609,0.016724 8.426e-4,-0.033899 -0.022924,0.024986 z"
                   id="use68"
                   style="fill:#000000;stroke:none;stroke-width:0.00529166" />
              </g>
            </g>
            <g
               id="fieldline7-6">
              <path
                 inkscape:connector-curvature="0"
                 d="m -4.01,-1.6366 0.1181,0.1286 0.1186,0.1256 0.1184,0.1217 0.1172,0.117 0.1146,0.111 0.1106,0.1037 0.1048,0.0949 0.0976,0.0853 0.0895,0.0751 0.0813,0.0651 0.0735,0.0558 0.0665,0.0476 0.0606,0.0405 0.0561,0.0346 0.0525,0.0296 0.0504,0.0256 0.0491,0.0223 0.049,0.0195 0.05,0.0172 0.0521,0.0152 0.0554,0.0135 0.0602,0.0121 0.0667,0.0107 0.0757,0.0094 0.0881,0.0083 0.105,0.0071 0.1303,0.0061 0.1697,0.005 0.2357,0.0041 0.3572,0.0031 0.6024,0.0019 h 0.8662 l 0.6024,-0.0019 0.3572,-0.0031 0.2357,-0.0041 0.1697,-0.005 0.1303,-0.0061 0.105,-0.0071 0.0881,-0.0083 0.0757,-0.0094 0.0667,-0.0107 0.0602,-0.0121 0.0554,-0.0135 0.0521,-0.0152 0.05,-0.0172 0.049,-0.0195 0.0491,-0.0223 0.0504,-0.0256 0.0525,-0.0296 0.0561,-0.0346 0.0606,-0.0405 0.0665,-0.0476 0.0735,-0.0558 0.0813,-0.0651 0.0895,-0.0751 0.0976,-0.0853 0.1048,-0.0949 0.1106,-0.1037 0.1146,-0.111 0.1172,-0.117 L 3.7733,-1.3824 3.8919,-1.508 4.01,-1.6366"
                 id="path72" />
              <g
                 id="arrows7-0">
                <path
                   inkscape:connector-curvature="0"
                   d="m -2.923037,-0.59633821 -0.017738,0.001457 0.032473,0.009763 -0.018046,-0.0287081 z"
                   id="use74"
                   style="fill:#000000;stroke:none;stroke-width:0.00529166" />
                <path
                   inkscape:connector-curvature="0"
                   d="m 0.0015875,-0.2194 -0.01322916,0.0119062 0.03175,-0.0119062 -0.03175,-0.0119062 z"
                   id="use76"
                   style="fill:#000000;stroke:none;stroke-width:0.00529166" />
                <path
                   inkscape:connector-curvature="0"
                   d="m 2.9254534,-0.5984743 -0.00314,0.0175193 0.01776,-0.0288862 -0.032374,0.0100859 z"
                   id="use78"
                   style="fill:#000000;stroke:none;stroke-width:0.00529166" />
              </g>
            </g>
            <g
               id="fieldline8-6">
              <path
                 inkscape:connector-curvature="0"
                 d="M -4.01,0 H 4.01"
                 id="path82" />
              <g
                 id="arrows8-2">
                <path
                   inkscape:connector-curvature="0"
                   d="M -2.6717125,0 -2.6849417,0.01190624 -2.6531917,0 l -0.03175,-0.01190624 z"
                   id="use84"
                   style="fill:#000000;stroke:none;stroke-width:0.00529166" />
                <path
                   inkscape:connector-curvature="0"
                   d="M 0.0015875,0 -0.01164166,0.01190624 0.02010834,0 l -0.03175,-0.01190624 z"
                   id="use86"
                   style="fill:#000000;stroke:none;stroke-width:0.00529166" />
                <path
                   inkscape:connector-curvature="0"
                   d="M 2.6748875,0 2.6616583,0.01190624 2.6934083,0 2.6616583,-0.01190624 Z"
                   id="use88"
                   style="fill:#000000;stroke:none;stroke-width:0.00529166" />
              </g>
            </g>
            <g
               id="fieldline9-6">
              <path
                 inkscape:connector-curvature="0"
                 d="m -4.01,1.6366 0.1181,-0.1286 0.1186,-0.1256 0.1184,-0.1217 0.1172,-0.117 0.1146,-0.111 0.1106,-0.1037 0.1048,-0.0949 0.0976,-0.0853 0.0895,-0.0751 0.0813,-0.0651 0.0735,-0.0558 0.0665,-0.0476 0.0606,-0.0405 0.0561,-0.0346 0.0525,-0.0296 0.0504,-0.0256 0.0491,-0.0223 0.049,-0.0195 0.05,-0.0172 0.0521,-0.0152 0.0554,-0.0135 0.0602,-0.0121 0.0667,-0.0107 0.0757,-0.0094 0.0881,-0.0083 0.105,-0.0071 0.1303,-0.0061 0.1697,-0.005 0.2357,-0.0041 0.3572,-0.0031 0.6024,-0.0019 h 0.8662 l 0.6024,0.0019 0.3572,0.0031 0.2357,0.0041 0.1697,0.005 0.1303,0.0061 0.105,0.0071 0.0881,0.0083 0.0757,0.0094 0.0667,0.0107 0.0602,0.0121 0.0554,0.0135 0.0521,0.0152 0.05,0.0172 0.049,0.0195 0.0491,0.0223 0.0504,0.0256 0.0525,0.0296 0.0561,0.0346 0.0606,0.0405 0.0665,0.0476 0.0735,0.0558 0.0813,0.0651 0.0895,0.0751 0.0976,0.0853 0.1048,0.0949 0.1106,0.1037 0.1146,0.111 0.1172,0.117 L 3.7733,1.3824 3.8919,1.508 4.01,1.6366"
                 id="path92" />
              <g
                 id="arrows9-1">
                <path
                   inkscape:connector-curvature="0"
                   d="m -2.923037,0.59633821 -0.00331,0.0174872 0.018046,-0.0287081 -0.032473,0.009763 z"
                   id="use94"
                   style="fill:#000000;stroke:none;stroke-width:0.00529166" />
                <path
                   inkscape:connector-curvature="0"
                   d="m 0.0015875,0.2194 -0.01322916,0.0119062 0.03175,-0.0119062 -0.03175,-0.0119062 z"
                   id="use96"
                   style="fill:#000000;stroke:none;stroke-width:0.00529166" />
                <path
                   inkscape:connector-curvature="0"
                   d="m 2.9254534,0.5984743 -0.017752,0.001281 0.032374,0.0100859 -0.01776,-0.0288862 z"
                   id="use98"
                   style="fill:#000000;stroke:none;stroke-width:0.00529166" />
              </g>
            </g>
            <g
               id="fieldline10-8">
              <path
                 inkscape:connector-curvature="0"
                 d="m -3.6096,3.01 0.029,-0.1304 0.0318,-0.1307 0.0343,-0.1309 0.037,-0.131 0.0396,-0.1311 0.0423,-0.1312 0.0448,-0.1311 0.0474,-0.1308 0.05,-0.1304 L -3.2011,1.7028 -3.1466,1.5745 -3.0903,1.4481 -3.0326,1.3248 -2.9742,1.206 -2.9163,1.0935 -2.8599,0.9894 -2.8065,0.8956 -2.7568,0.8133 -2.7115,0.7426 -2.6705,0.6831 -2.6334,0.6333 -2.5996,0.5917 -2.5682,0.557 -2.5385,0.5275 -2.5095,0.5022 -2.4804,0.4801 -2.4503,0.4603 -2.4184,0.4424 -2.3839,0.426 -2.346,0.4108 -2.304,0.3968 -2.2568,0.3839 -2.2035,0.372 -2.1425,0.3611 -2.0718,0.3512 -1.9896,0.3425 -1.8914,0.3348 -1.7708,0.328 -1.6177,0.3223 -1.4137,0.3175 -1.1247,0.3137 -0.6825,0.311 0,0.3098 0.6825,0.311 1.1247,0.3137 1.4137,0.3175 1.6177,0.3223 1.7708,0.328 1.8914,0.3348 1.9896,0.3425 2.0718,0.3512 2.1425,0.3611 2.2035,0.372 2.2568,0.3839 2.304,0.3968 2.346,0.4108 2.3839,0.426 2.4184,0.4424 2.4503,0.4603 2.4804,0.4801 2.5095,0.5022 2.5385,0.5275 2.5682,0.557 2.5996,0.5917 2.6334,0.6333 2.6705,0.6831 2.7115,0.7426 2.7568,0.8133 2.8065,0.8956 2.8599,0.9894 2.9163,1.0935 2.9742,1.206 3.0326,1.3248 3.0903,1.4481 3.1466,1.5745 3.2011,1.7028 3.2534,1.8324 3.3034,1.9628 3.3508,2.0936 3.3956,2.2247 3.4379,2.3559 3.4775,2.487 3.5145,2.618 3.5488,2.7489 3.5806,2.8796 3.6096,3.01"
                 id="path102" />
              <g
                 id="arrows10-7">
                <path
                   inkscape:connector-curvature="0"
                   d="m -3.217104,1.7425286 0.00607,0.016731 8.841e-4,-0.033897 -0.022955,0.024958 z"
                   id="use104"
                   style="fill:#000000;stroke:none;stroke-width:0.00529166" />
                <path
                   inkscape:connector-curvature="0"
                   d="m -1.3254126,0.31627922 -0.013072,0.0120784 0.031591,-0.0123208 -0.031903,-0.0114896 z"
                   id="use106"
                   style="fill:#000000;stroke:none;stroke-width:0.00529166" />
                <path
                   inkscape:connector-curvature="0"
                   d="m 1.3285874,0.31632078 -0.013384,0.0117321 0.031903,-0.0114896 -0.031591,-0.0123208 z"
                   id="use108"
                   style="fill:#000000;stroke:none;stroke-width:0.00529166" />
                <path
                   inkscape:connector-curvature="0"
                   d="m 3.2182942,1.7454721 -0.015992,-0.00781 0.022924,0.024986 -8.426e-4,-0.033899 z"
                   id="use110"
                   style="fill:#000000;stroke:none;stroke-width:0.00529166" />
              </g>
            </g>
            <g
               id="fieldline11-9">
              <path
                 inkscape:connector-curvature="0"
                 d="M -2.6477,3.01 -2.6635,2.9036 -2.6769,2.7955 -2.688,2.6858 -2.6967,2.5745 -2.7029,2.4616 -2.7068,2.3471 -2.7081,2.2309 l 0.0012,-0.1177 0.0037,-0.1194 0.0064,-0.121 0.0089,-0.1224 0.0116,-0.1238 0.0142,-0.1248 0.0169,-0.1253 0.0192,-0.1244 0.0214,-0.1217 0.0227,-0.1156 0.0232,-0.1052 0.0222,-0.09 0.0203,-0.0732 0.0181,-0.0568 0.0159,-0.0428 0.0141,-0.0318 0.0133,-0.0242 0.0133,-0.0196 0.0145,-0.0168 0.0169,-0.0157 0.0202,-0.0151 0.0242,-0.0148 0.0288,-0.0144 0.0338,-0.0139 0.0394,-0.0133 0.0456,-0.0125 0.0529,-0.0118 0.0613,-0.0108 0.0718,-0.0099 0.0844,-0.0089 0.1011,-0.008 0.1241,-0.0069 0.1572,-0.006 0.2075,-0.005 0.2894,-0.0039 0.4308,-0.0029 0.6321,-0.0011 0.6344,0.0011 0.4337,0.0028 0.2911,0.004 0.2085,0.0049 0.1579,0.006 0.1246,0.0069 0.1014,0.0079 0.0851,0.009 L 2.1031,0.432 2.1646,0.4428 2.2176,0.4545 2.2633,0.4671 2.3027,0.4804 2.3366,0.4943 2.3654,0.5087 2.3896,0.5234 2.4099,0.5385 2.4268,0.5542 2.4414,0.571 2.4547,0.5905 2.4679,0.6147 2.482,0.6464 2.4979,0.689 2.516,0.7456 2.5363,0.8187 2.5585,0.9085 2.5816,1.0136 2.6044,1.1291 2.6258,1.2508 2.6451,1.3753 2.6619,1.5006 2.6762,1.6256 2.6878,1.7495 2.6968,1.872 2.7031,1.993 2.7069,2.1125 2.7081,2.2304 2.7068,2.3466 2.703,2.4612 2.6967,2.5742 2.688,2.6856 2.6769,2.7953 2.6635,2.9035 2.6477,3.01"
                 id="path114" />
              <g
                 id="arrows11-2">
                <path
                   inkscape:connector-curvature="0"
                   d="m -2.6430618,1.3636305 0.00979,0.014866 -0.00701,-0.033177 -0.016536,0.029604 z"
                   id="use116"
                   style="fill:#000000;stroke:none;stroke-width:0.00529166" />
                <path
                   inkscape:connector-curvature="0"
                   d="m 0.0015875,0.37950139 -0.01323955,0.0118947 0.03176038,-0.0118785 -0.0317396,-0.0119339 z"
                   id="use118"
                   style="fill:#000000;stroke:none;stroke-width:0.00529166" />
                <path
                   inkscape:connector-curvature="0"
                   d="m 2.6435259,1.3667713 -0.013667,-0.0114 0.016303,0.029733 0.00727,-0.033121 z"
                   id="use120"
                   style="fill:#000000;stroke:none;stroke-width:0.00529166" />
              </g>
            </g>
            <g
               id="fieldline12-0">
              <path
                 inkscape:connector-curvature="0"
                 d="M -1.7076,3.01 -1.7542,2.9401 -1.7994,2.8678 -1.8431,2.7931 -1.8854,2.7161 -1.9262,2.6366 -1.9654,2.5547 -2.003,2.4703 -2.0391,2.3835 -2.0735,2.2941 -2.1063,2.202 -2.1374,2.1072 -2.1668,2.0095 -2.1946,1.9089 -2.2206,1.8049 -2.245,1.6975 -2.2677,1.5862 -2.2887,1.4704 -2.3081,1.3494 -2.3261,1.2217 -2.3427,1.0849 -2.3586,0.932 -2.3835,0.6597 -2.3889,0.616 -2.3926,0.6 -2.3772,0.5869 -2.358,0.5739 -2.3337,0.5606 -2.3041,0.5473 -2.2691,0.5344 -2.2281,0.5219 -2.1804,0.5101 -2.1253,0.499 -2.0613,0.4887 -1.9866,0.4792 -1.8984,0.4707 -1.7934,0.4631 -1.665,0.4564 -1.5033,0.4507 -1.2923,0.4459 -1.0031,0.442 -0.5853,0.4393 0,0.4382 0.5855,0.4392 1.0032,0.442 1.2924,0.4458 1.5035,0.4507 1.665,0.4564 1.7934,0.4631 1.8984,0.4707 1.9867,0.4792 2.0615,0.4887 2.1255,0.499 2.1806,0.5101 2.2282,0.5219 2.2692,0.5344 2.3042,0.5473 2.3338,0.5606 2.3581,0.5739 2.3772,0.5869 2.3926,0.6 2.3891,0.6149 2.3841,0.6537 2.3695,0.8139 2.3531,0.9878 2.3373,1.1312 2.3206,1.2623 2.3026,1.3856 2.283,1.503 2.2619,1.6157 2.2392,1.7241 2.2148,1.829 2.1888,1.9304 2.1612,2.0289 2.1319,2.1244 2.1011,2.2172 2.0686,2.3073 2.0345,2.3949 1.9988,2.4801 1.9616,2.5628 1.9229,2.6432 1.8827,2.7211 1.841,2.7968 1.7979,2.8702 1.7535,2.9412 1.7076,3.01"
                 id="path124" />
              <g
                 id="arrows12-2">
                <path
                   inkscape:connector-curvature="0"
                   d="m 0.03363098,0.41427148 0.01720572,0.004553 -0.02734435,-0.0200526 0.0074166,0.033088 z"
                   id="use126"
                   style="fill:#000000;stroke:none;stroke-width:0.00529166" />
                <path
                   inkscape:connector-curvature="0"
                   d="m 2.2867284,1.4795641 -0.00947,-0.015071 0.0063,0.033319 0.017162,-0.029245 z"
                   id="use128"
                   style="fill:#000000;stroke:none;stroke-width:0.00529166" />
                <path
                   inkscape:connector-curvature="0"
                   d="m -2.287365,1.4764348 0.013948,0.011056 -0.01704,-0.029317 -0.00644,0.033292 z"
                   id="use130"
                   style="fill:#000000;stroke:none;stroke-width:0.00529166" />
              </g>
            </g>
            <g
               id="fieldline13-3">
              <path
                 inkscape:connector-curvature="0"
                 d="M 0,0.4899 0.5579,0.491 0.9675,0.4937 1.2567,0.4976 1.4701,0.5024 1.6348,0.5082 1.7664,0.5149 1.8752,0.5225 1.9663,0.5311 2.0438,0.5405 2.1104,0.5508 2.1681,0.5619 2.2183,0.5738 2.2624,0.5865 2.3014,0.6 2.2802,0.6341 2.2553,0.6794 2.2241,0.7427 2.177,0.8458 2.0544,1.1223 1.9943,1.2522 1.9397,1.3645 1.8871,1.4669 1.8354,1.5621 1.7839,1.6516 1.7323,1.7363 1.6804,1.8167 1.6281,1.8932 1.5751,1.9661 1.5216,2.0355 1.4673,2.1017 1.4124,2.1647 1.3568,2.2247 1.3005,2.2817 1.2435,2.3358 1.1858,2.3871 1.1275,2.4356 1.0685,2.4813 1.0089,2.5242 0.9487,2.5645 0.888,2.6021 0.8268,2.637 0.7651,2.6693 0.7029,2.6989 0.6403,2.7259 0.5773,2.7503 0.514,2.7721 0.4505,2.7914 0.3866,2.808 0.3225,2.8221 0.2582,2.8336 0.1938,2.8426 0.1292,2.8489 0.0646,2.8528 0,2.854 -0.0647,2.8528 -0.1293,2.8489 -0.1939,2.8425 -0.2583,2.8336 -0.3226,2.8221 -0.3866,2.808 -0.4505,2.7914 -0.5141,2.7721 -0.5774,2.7503 -0.6404,2.7259 -0.7029,2.6989 -0.7651,2.6692 -0.8268,2.637 -0.8881,2.602 -0.9488,2.5645 -1.0089,2.5242 -1.0685,2.4812 -1.1275,2.4355 -1.1858,2.3871 -1.2435,2.3358 -1.3005,2.2817 -1.3569,2.2246 -1.4125,2.1647 -1.4674,2.1016 -1.5216,2.0355 -1.5752,1.966 -1.6281,1.8932 -1.6805,1.8167 -1.7324,1.7362 -1.7839,1.6516 -1.8354,1.562 -1.8871,1.4668 -1.9397,1.3644 -1.9944,1.2521 -2.0545,1.1222 -2.1768,0.8462 -2.224,0.7429 -2.2553,0.6795 -2.2801,0.6342 -2.3014,0.6 -2.2623,0.5865 -2.2182,0.5738 -2.1679,0.5619 -2.1102,0.5507 -2.0435,0.5405 -1.966,0.531 -1.8753,0.5225 -1.7672,0.5149 -1.6354,0.5082 -1.4707,0.5025 -1.2573,0.4976 -0.968,0.4937 -0.5584,0.491 Z"
                 id="path134" />
              <g
                 id="arrows13-7">
                <path
                   inkscape:connector-curvature="0"
                   d="m 0.0015875,0.49000111 -0.01323747,0.011897 0.0317583,-0.0118841 -0.03174167,-0.0119284 z"
                   id="use136"
                   style="fill:#000000;stroke:none;stroke-width:0.00529166" />
                <path
                   inkscape:connector-curvature="0"
                   d="m 2.0616472,1.1055471 -0.00541,-0.016955 -0.0022,0.033837 0.023909,-0.024046 z"
                   id="use138"
                   style="fill:#000000;stroke:none;stroke-width:0.00529166" />
                <path
                   inkscape:connector-curvature="0"
                   d="m -0.00158745,2.8533878 0.0133202,-0.011804 -0.0318405,0.011662 0.03165763,0.01215 z"
                   id="use140"
                   style="fill:#000000;stroke:none;stroke-width:0.00529166" />
                <path
                   inkscape:connector-curvature="0"
                   d="m -2.0631437,1.1027488 0.016248,0.00727 -0.023757,-0.024196 0.00199,0.033851 z"
                   id="use142"
                   style="fill:#000000;stroke:none;stroke-width:0.00529166" />
              </g>
            </g>
            <g
               id="fieldline14-5">
              <path
                 inkscape:connector-curvature="0"
                 d="m 0,0.5367 0.5476,0.0011 0.4073,0.0028 0.2904,0.0041 0.2158,0.005 0.1673,0.006 0.1342,0.007 0.1106,0.0079 0.0937,0.0088 0.08,0.0099 L 2.1162,0.6 2.0617,0.656 1.9904,0.7334 1.8285,0.9158 1.7187,1.0378 1.6315,1.1314 1.5526,1.2126 1.4781,1.2858 1.4065,1.3528 1.3368,1.4146 1.2685,1.472 1.2012,1.5253 1.1346,1.575 1.0686,1.6212 1.003,1.6641 0.9377,1.7038 0.8726,1.7406 0.8077,1.7744 0.7429,1.8054 0.6782,1.8336 0.6136,1.8591 0.5489,1.882 0.4843,1.9022 0.4198,1.9198 0.3552,1.9348 0.2907,1.9473 0.2261,1.9573 0.1614,1.9648 0.0969,1.9698 0.0324,1.9723 H -0.0323 L -0.0969,1.9698 -0.1614,1.9648 -0.226,1.9573 -0.2906,1.9474 -0.3551,1.9349 -0.4197,1.9198 -0.4843,1.9022 -0.5489,1.882 -0.6135,1.8592 -0.6781,1.8337 -0.7429,1.8054 -0.8076,1.7745 -0.8725,1.7406 -0.9376,1.7039 -1.0029,1.6641 -1.0685,1.6212 -1.1346,1.575 -1.2011,1.5254 -1.2685,1.472 -1.3368,1.4146 -1.4064,1.3528 -1.4781,1.2858 -1.5525,1.2126 -1.6315,1.1314 -1.7187,1.0379 -1.8284,0.9159 -1.9903,0.7335 -2.0617,0.656 -2.1162,0.6 l 0.0693,-0.0107 0.0801,-0.0099 0.0937,-0.0088 0.1108,-0.0079 0.1344,-0.007 0.1673,-0.006 0.2158,-0.0051 0.2905,-0.004 0.4071,-0.0028 z"
                 id="path146" />
              <g
                 id="arrows14-9">
                <path
                   inkscape:connector-curvature="0"
                   d="m 0.0015875,0.53670139 -0.01323955,0.0118947 0.03176038,-0.0118785 -0.0317396,-0.0119339 z"
                   id="use148"
                   style="fill:#000000;stroke:none;stroke-width:0.00529166" />
                <path
                   inkscape:connector-curvature="0"
                   d="m 1.4065219,1.3521641 0.00184,-0.017703 -0.015581,0.030118 0.031542,-0.012446 z"
                   id="use150"
                   style="fill:#000000;stroke:none;stroke-width:0.00529166" />
                <path
                   inkscape:connector-curvature="0"
                   d="m -1.4088672,1.350024 0.017797,2.121e-4 -0.031415,-0.012765 0.015275,0.030274 z"
                   id="use152"
                   style="fill:#000000;stroke:none;stroke-width:0.00529166" />
              </g>
            </g>
            <g
               id="fieldline15-2">
              <path
                 inkscape:connector-curvature="0"
                 d="M 0,0.5797 0.5483,0.5808 0.9573,0.5839 1.2509,0.5882 1.4693,0.5936 1.6391,0.6 1.4622,0.6967 1.3372,0.7623 1.2279,0.8171 1.1278,0.8645 1.0336,0.9064 0.9439,0.9437 0.8573,0.9769 0.7733,1.0064 0.6914,1.0326 0.6111,1.0556 0.5322,1.0756 0.4543,1.0927 0.3774,1.107 0.3011,1.1187 0.2254,1.1277 0.1501,1.1341 0.0749,1.1379 0,1.1392 -0.075,1.1379 -0.1501,1.1341 -0.2253,1.1277 -0.3011,1.1187 -0.3774,1.107 -0.4543,1.0927 -0.5322,1.0756 -0.6111,1.0556 -0.6914,1.0326 -0.7733,1.0064 -0.8573,0.9769 -0.9438,0.9437 -1.0337,0.9064 -1.1278,0.8645 -1.228,0.8171 -1.3373,0.7623 -1.4621,0.6967 -1.6391,0.6 -1.4693,0.5936 -1.2509,0.5882 -0.9575,0.5839 -0.5484,0.5808 Z"
                 id="path156" />
              <g
                 id="arrows15-2">
                <path
                   inkscape:connector-curvature="0"
                   d="m 0.0015875,0.57970139 -0.01323955,0.0118947 0.03176038,-0.0118785 -0.0317396,-0.0119339 z"
                   id="use158"
                   style="fill:#000000;stroke:none;stroke-width:0.00529166" />
                <path
                   inkscape:connector-curvature="0"
                   d="m -0.00158747,1.1386895 0.01330784,-0.011818 -0.03182827,0.011695 0.03167034,0.012117 z"
                   id="use160"
                   style="fill:#000000;stroke:none;stroke-width:0.00529166" />
              </g>
            </g>
          </g>
          <g
             id="symbols-8">
            <path
               inkscape:connector-curvature="0"
               style="fill:none;stroke:#808080;stroke-width:0.06;stroke-linecap:butt"
               d="M -2.4,-0.6 H 2.4"
               id="path165" />
            <path
               inkscape:connector-curvature="0"
               style="fill:none;stroke:#808080;stroke-width:0.06;stroke-linecap:butt"
               d="M -2.4,0.6 H 2.4"
               id="path167" />
          </g>
        </g>
        <g
           id="g3109"
           transform="matrix(-1,0,0,1,57.930574,0)">
          <path
             inkscape:connector-curvature="0"
             id="path3055"
             d="m 28.891853,75.495781 0.79769,0.252926 -0.778232,0.36966 z"
             style="opacity:1;vector-effect:none;fill:#000000;fill-opacity:1;stroke:none;stroke-width:0.24694444;stroke-linecap:butt;stroke-linejoin:miter;stroke-miterlimit:4;stroke-dasharray:none;stroke-dashoffset:0;stroke-opacity:1" />
          <path
             inkscape:connector-curvature="0"
             id="path3055-9"
             d="m 28.891853,76.523685 0.79769,0.252926 -0.778232,0.36966 z"
             style="opacity:1;vector-effect:none;fill:#000000;fill-opacity:1;stroke:none;stroke-width:0.24694444;stroke-linecap:butt;stroke-linejoin:miter;stroke-miterlimit:4;stroke-dasharray:none;stroke-dashoffset:0;stroke-opacity:1" />
          <path
             inkscape:connector-curvature="0"
             id="path3055-7"
             d="m 28.891853,77.551615 0.79769,0.252926 -0.778232,0.36966 z"
             style="opacity:1;vector-effect:none;fill:#000000;fill-opacity:1;stroke:none;stroke-width:0.24694444;stroke-linecap:butt;stroke-linejoin:miter;stroke-miterlimit:4;stroke-dasharray:none;stroke-dashoffset:0;stroke-opacity:1" />
          <path
             inkscape:connector-curvature="0"
             id="path3055-3"
             d="m 28.891853,78.579516 0.79769,0.252926 -0.778232,0.36966 z"
             style="opacity:1;vector-effect:none;fill:#000000;fill-opacity:1;stroke:none;stroke-width:0.24694444;stroke-linecap:butt;stroke-linejoin:miter;stroke-miterlimit:4;stroke-dasharray:none;stroke-dashoffset:0;stroke-opacity:1" />
          <path
             inkscape:connector-curvature="0"
             id="path3055-6"
             d="m 28.891853,79.607434 0.79769,0.252926 -0.778232,0.36966 z"
             style="opacity:1;vector-effect:none;fill:#000000;fill-opacity:1;stroke:none;stroke-width:0.24694444;stroke-linecap:butt;stroke-linejoin:miter;stroke-miterlimit:4;stroke-dasharray:none;stroke-dashoffset:0;stroke-opacity:1" />
          <path
             inkscape:connector-curvature="0"
             id="path3055-1"
             d="m 28.891853,80.635351 0.79769,0.252926 -0.778232,0.36966 z"
             style="opacity:1;vector-effect:none;fill:#000000;fill-opacity:1;stroke:none;stroke-width:0.24694444;stroke-linecap:butt;stroke-linejoin:miter;stroke-miterlimit:4;stroke-dasharray:none;stroke-dashoffset:0;stroke-opacity:1" />
          <path
             inkscape:connector-curvature="0"
             id="path3055-2"
             d="m 28.891853,81.663269 0.79769,0.252926 -0.778232,0.36966 z"
             style="opacity:1;vector-effect:none;fill:#000000;fill-opacity:1;stroke:none;stroke-width:0.24694444;stroke-linecap:butt;stroke-linejoin:miter;stroke-miterlimit:4;stroke-dasharray:none;stroke-dashoffset:0;stroke-opacity:1" />
        </g>
        <g
           id="g3197"
           transform="matrix(-1,0,0,1,57.175172,0)">
          <path
             inkscape:connector-curvature="0"
             id="path3055-36"
             d="m 28.136451,116.42937 0.79769,0.25293 -0.778232,0.36966 z"
             style="opacity:1;vector-effect:none;fill:#000000;fill-opacity:1;stroke:none;stroke-width:0.24694444;stroke-linecap:butt;stroke-linejoin:miter;stroke-miterlimit:4;stroke-dasharray:none;stroke-dashoffset:0;stroke-opacity:1" />
          <path
             inkscape:connector-curvature="0"
             id="path3055-9-1"
             d="m 28.136451,117.11919 0.79769,0.25292 -0.778232,0.36966 z"
             style="opacity:1;vector-effect:none;fill:#000000;fill-opacity:1;stroke:none;stroke-width:0.24694444;stroke-linecap:butt;stroke-linejoin:miter;stroke-miterlimit:4;stroke-dasharray:none;stroke-dashoffset:0;stroke-opacity:1" />
          <path
             inkscape:connector-curvature="0"
             id="path3055-7-0"
             d="m 28.136451,118.19322 0.79769,0.25292 -0.778232,0.36966 z"
             style="opacity:1;vector-effect:none;fill:#000000;fill-opacity:1;stroke:none;stroke-width:0.24694444;stroke-linecap:butt;stroke-linejoin:miter;stroke-miterlimit:4;stroke-dasharray:none;stroke-dashoffset:0;stroke-opacity:1" />
          <path
             inkscape:connector-curvature="0"
             id="path3055-3-6"
             d="m 28.136451,119.55921 0.79769,0.25292 -0.778232,0.36966 z"
             style="opacity:1;vector-effect:none;fill:#000000;fill-opacity:1;stroke:none;stroke-width:0.24694444;stroke-linecap:butt;stroke-linejoin:miter;stroke-miterlimit:4;stroke-dasharray:none;stroke-dashoffset:0;stroke-opacity:1" />
          <path
             inkscape:connector-curvature="0"
             id="path3055-6-3"
             d="m 28.136451,121.06353 0.79769,0.25292 -0.778232,0.36966 z"
             style="opacity:1;vector-effect:none;fill:#000000;fill-opacity:1;stroke:none;stroke-width:0.24694444;stroke-linecap:butt;stroke-linejoin:miter;stroke-miterlimit:4;stroke-dasharray:none;stroke-dashoffset:0;stroke-opacity:1" />
          <path
             inkscape:connector-curvature="0"
             id="path3055-1-2"
             d="m 28.136451,122.04533 0.79769,0.25293 -0.778232,0.36966 z"
             style="opacity:1;vector-effect:none;fill:#000000;fill-opacity:1;stroke:none;stroke-width:0.24694444;stroke-linecap:butt;stroke-linejoin:miter;stroke-miterlimit:4;stroke-dasharray:none;stroke-dashoffset:0;stroke-opacity:1" />
          <path
             inkscape:connector-curvature="0"
             id="path3055-2-0"
             d="m 28.136451,122.79664 0.79769,0.25293 -0.778232,0.36966 z"
             style="opacity:1;vector-effect:none;fill:#000000;fill-opacity:1;stroke:none;stroke-width:0.24694444;stroke-linecap:butt;stroke-linejoin:miter;stroke-miterlimit:4;stroke-dasharray:none;stroke-dashoffset:0;stroke-opacity:1" />
        </g>
      </g>
    </g>
    <text
       xml:space="preserve"
       style="font-style:normal;font-variant:normal;font-weight:normal;font-stretch:normal;font-size:3.52777767px;line-height:125%;font-family:'Liberation Sans';-inkscape-font-specification:'Liberation Sans';font-variant-ligatures:normal;font-variant-position:normal;font-variant-caps:normal;font-variant-numeric:normal;font-variant-alternates:normal;font-feature-settings:normal;text-indent:0;text-align:start;text-decoration:none;text-decoration-line:none;text-decoration-style:solid;text-decoration-color:#000000;letter-spacing:0px;word-spacing:0px;text-transform:none;writing-mode:lr-tb;direction:ltr;text-orientation:mixed;dominant-baseline:auto;baseline-shift:baseline;text-anchor:start;white-space:normal;shape-padding:0;opacity:1;vector-effect:none;fill:#000000;fill-opacity:1;stroke:none;stroke-width:0.35277775px;stroke-linecap:butt;stroke-linejoin:miter;stroke-miterlimit:4;stroke-dasharray:none;stroke-dashoffset:0;stroke-opacity:1;marker:none;marker-start:none;marker-mid:none;marker-end:none"
       x="34.861309"
       y="124.01493"
       id="text3666"><tspan
         sodipodi:role="line"
         id="tspan3664"
         x="34.861309"
         y="124.01493"
         style="stroke-width:0.35277775px">1</tspan></text>
    <text
       xml:space="preserve"
       style="font-style:normal;font-variant:normal;font-weight:normal;font-stretch:normal;font-size:3.52777767px;line-height:125%;font-family:'Liberation Sans';-inkscape-font-specification:'Liberation Sans';font-variant-ligatures:normal;font-variant-position:normal;font-variant-caps:normal;font-variant-numeric:normal;font-variant-alternates:normal;font-feature-settings:normal;text-indent:0;text-align:start;text-decoration:none;text-decoration-line:none;text-decoration-style:solid;text-decoration-color:#000000;letter-spacing:0px;word-spacing:0px;text-transform:none;writing-mode:lr-tb;direction:ltr;text-orientation:mixed;dominant-baseline:auto;baseline-shift:baseline;text-anchor:start;white-space:normal;shape-padding:0;opacity:1;vector-effect:none;fill:#000000;fill-opacity:1;stroke:none;stroke-width:0.35277775px;stroke-linecap:butt;stroke-linejoin:miter;stroke-miterlimit:4;stroke-dasharray:none;stroke-dashoffset:0;stroke-opacity:1;marker:none;marker-start:none;marker-mid:none;marker-end:none"
       x="94.600914"
       y="124.01493"
       id="text3670"><tspan
         sodipodi:role="line"
         id="tspan3668"
         x="94.600914"
         y="124.01493"
         style="stroke-width:0.35277775px">2</tspan></text>
  </g>
</svg>
