<?xml version="1.0" encoding="UTF-8" standalone="no"?>
<svg
   xmlns:dc="http://purl.org/dc/elements/1.1/"
   xmlns:cc="http://creativecommons.org/ns#"
   xmlns:rdf="http://www.w3.org/1999/02/22-rdf-syntax-ns#"
   xmlns:svg="http://www.w3.org/2000/svg"
   xmlns="http://www.w3.org/2000/svg"
   xmlns:xlink="http://www.w3.org/1999/xlink"
   xmlns:sodipodi="http://sodipodi.sourceforge.net/DTD/sodipodi-0.dtd"
   xmlns:inkscape="http://www.inkscape.org/namespaces/inkscape"
   version="1.1"
   width="800"
   height="600"
   id="svg428"
   sodipodi:docname="hw-spherical-magnets-tilted.svg"
   inkscape:version="0.92.3 (2405546, 2018-03-11)">
  <metadata
     id="metadata432">
    <rdf:RDF>
      <cc:Work
         rdf:about="">
        <dc:format>image/svg+xml</dc:format>
        <dc:type
           rdf:resource="http://purl.org/dc/dcmitype/StillImage" />
      </cc:Work>
    </rdf:RDF>
  </metadata>
  <sodipodi:namedview
     pagecolor="#ffffff"
     bordercolor="#666666"
     borderopacity="1"
     objecttolerance="10"
     gridtolerance="10"
     guidetolerance="10"
     inkscape:pageopacity="0"
     inkscape:pageshadow="2"
     inkscape:window-width="1280"
     inkscape:window-height="996"
     id="namedview430"
     showgrid="false"
     inkscape:zoom="10.658354"
     inkscape:cx="144.64698"
     inkscape:cy="71.960283"
     inkscape:window-x="0"
     inkscape:window-y="0"
     inkscape:window-maximized="1"
     inkscape:current-layer="svg428"
     inkscape:snap-global="false" />
  <title
     id="title2">a</title>
  <desc
     id="desc4">a
created with VectorFieldPlot 1.3
http://commons.wikimedia.org/wiki/User:Geek3/VectorFieldPlot

about: http://commons.wikimedia.org/wiki/File:a.svg
rights: GNU Free Documentation license,
        Creative Commons Attribution ShareAlike license
  </desc>
  <defs
     id="defs7">
    <path
       id="arrow1"
       stroke="none"
       fill="#000000"
       transform="scale(0.01)"
       d="M 0.3,0 L -2.2,2.25 L 3.8,0 L -2.2,-2.25 L 0.3,0 Z" />
  </defs>
  <rect
     style="fill:#dedede;fill-opacity:1;stroke:none;stroke-width:2.63349938;stroke-miterlimit:4;stroke-dasharray:none;stroke-dashoffset:0;stroke-opacity:1"
     id="rect1433"
     width="196.53543"
     height="146.98663"
     x="-1.6429288"
     y="454.65628" />
  <circle
     style="fill:#ffffff;fill-opacity:1;stroke:none;stroke-width:2.66666675;stroke-miterlimit:4;stroke-dasharray:none;stroke-dashoffset:0;stroke-opacity:1"
     id="path1630-3"
     cx="133.26529"
     cy="527.61731"
     r="23.986761" />
  <circle
     style="fill:#ffffff;fill-opacity:1;stroke:none;stroke-width:2.66666675;stroke-miterlimit:4;stroke-dasharray:none;stroke-dashoffset:0;stroke-opacity:1"
     id="path1630"
     cx="59.991482"
     cy="528.65015"
     r="23.986761" />
  <path
     style="fill:none;stroke:#000000;stroke-width:0.48887679;stroke-linecap:round;stroke-linejoin:round"
     inkscape:connector-curvature="0"
     id="path96"
     d="m -1.7663195,544.85861 2.71815501,0.066 2.69371119,0.01 2.6692673,-0.0464 2.6423791,-0.10267 2.6130469,-0.15644 2.581269,-0.20777 2.551937,-0.26399 2.515271,-0.31533 2.48105,-0.36666 2.444384,-0.41554 2.405274,-0.46688 2.366163,-0.51576 2.32461,-0.56221 2.28061,-0.60865 2.236611,-0.6551 2.187724,-0.69665 8.831559,-8.57979 7.888028,-7.58492 7.704698,-7.32582 9.550208,-8.97822 1.581517,-3.57369 1.478852,-3.49058 1.246636,-3.08726 1.014419,-2.66682 0.831091,-2.34905 0.686872,-2.12173 0.57443,-1.95551 0.47421,-1.84062 0.393546,-1.75751 0.315326,-1.70129 0.249327,-1.66463 0.180884,-1.64018 0.119775,-1.63285 0.05867,-1.63285 -0.0049,-1.64262 -0.06844,-1.65974 -0.129553,-1.67929 -0.19555,-1.70618 -0.261549,-1.73551 -0.329992,-1.76485 -0.398435,-1.79662 -0.469322,-1.82595 -0.540208,-1.85285 -0.615985,-1.87728 -0.686872,-1.89929 -0.757759,-1.9164" />
  <use
     style="fill:none;stroke:#000000;stroke-width:0.02;stroke-linecap:round;stroke-linejoin:round"
     xlink:href="#arrow1"
     transform="matrix(47.994353,-9.3030806,-9.3030806,-47.994353,24.721026,542.94711)"
     id="use98"
     x="0"
     y="0"
     width="100%"
     height="100%" />
  <use
     style="fill:none;stroke:#000000;stroke-width:0.02;stroke-linecap:round;stroke-linejoin:round"
     xlink:href="#arrow1"
     transform="matrix(5.6613884,-48.558769,-48.558769,-5.6613884,80.790306,480.5982)"
     id="use100"
     x="0"
     y="0"
     width="100%"
     height="100%" />
  <path
     style="fill:none;stroke:#000000;stroke-width:0.48887679;stroke-linecap:round;stroke-linejoin:round"
     inkscape:connector-curvature="0"
     id="path104"
     d="m -1.7663195,551.566 3.0163699,-0.37643 2.9748153,-0.42777 2.9332608,-0.4791 2.8892615,-0.52798 2.845263,-0.57688 2.79882,-0.62576 2.754821,-0.67221 2.705933,-0.71865 2.65949,-0.76509 2.610602,-0.80909 2.561714,-0.85064 2.512827,-0.89465 2.45905,-0.9362 2.407719,-0.97531 2.353941,-1.01442 7.470038,-7.26226 6.665835,-6.41895 6.240512,-5.95208 6.304067,-5.95207 7.89536,-7.3796 5.494975,-9.43043 1.975062,-3.47103 1.324857,-2.43216 1.03153,-2.0044 0.843312,-1.75751 0.706427,-1.60351 0.601319,-1.50574 0.515765,-1.43975 0.439989,-1.40307 0.371546,-1.38108 0.312881,-1.37863 0.251772,-1.38597 0.195551,-1.40796 0.141774,-1.4373 0.08555,-1.47396 0.02933,-1.51797 -0.03178,-1.57174 -0.09044,-1.62551 -0.156441,-1.68663 -0.219994,-1.74773 -0.288438,-1.80884 -0.35688,-1.86751 -0.430211,-1.92862 -0.503544,-1.97751 -0.576874,-2.02639 -0.650206,-2.06551" />
  <use
     style="fill:none;stroke:#000000;stroke-width:0.02;stroke-linecap:round;stroke-linejoin:round"
     xlink:href="#arrow1"
     transform="matrix(46.69882,-14.464631,-14.464631,-46.69882,25.153681,545.98059)"
     id="use106"
     x="0"
     y="0"
     width="100%"
     height="100%" />
  <use
     style="fill:none;stroke:#000000;stroke-width:0.02;stroke-linecap:round;stroke-linejoin:round"
     xlink:href="#arrow1"
     transform="matrix(11.561887,-47.500822,-47.500822,-11.561887,86.541941,481.68595)"
     id="use108"
     x="0"
     y="0"
     width="100%"
     height="100%" />
  <path
     style="fill:none;stroke:#000000;stroke-width:0.48887679;stroke-linecap:round;stroke-linejoin:round"
     inkscape:connector-curvature="0"
     id="path112"
     d="m -1.7663195,558.52272 3.3341398,-0.89464 3.2754745,-0.94109 3.214365,-0.98509 3.1532552,-1.02664 3.09459,-1.0682 3.035925,-1.10975 2.97726,-1.14886 2.918594,-1.19041 2.85993,-1.22953 2.803708,-1.26863 2.749932,-1.30775 2.691267,-1.34441 2.63749,-1.38352 2.58127,-1.41774 7.782918,-7.56048 6.856498,-6.59251 6.350509,-6.04007 6.335844,-5.95207 7.707142,-7.16694 2.556826,-3.42947 2.283055,-2.96748 2.402829,-3.02615 4.705439,-5.79319 1.451964,-1.86751 1.070641,-1.46418 0.865311,-1.28086 0.725983,-1.1733 0.620873,-1.1122 0.53532,-1.07797 0.466878,-1.07064 0.403323,-1.07309 0.347102,-1.09264 0.295771,-1.12441 0.246883,-1.17086 0.19555,-1.22708 0.144219,-1.29553 0.09289,-1.37374 0.03911,-1.46419 -0.01955,-1.56196 -0.08311,-1.66707 -0.149108,-1.77951 -0.219994,-1.89195 -0.293326,-1.99951 -0.369102,-2.10217 -0.447323,-2.19261 -0.523098,-2.27328 -0.601318,-2.33683 -0.67465,-2.39061" />
  <use
     style="fill:none;stroke:#000000;stroke-width:0.02;stroke-linecap:round;stroke-linejoin:round"
     xlink:href="#arrow1"
     transform="matrix(44.809091,-19.548676,-19.548676,-44.809091,25.449452,549.20473)"
     id="use114"
     x="0"
     y="0"
     width="100%"
     height="100%" />
  <use
     style="fill:none;stroke:#000000;stroke-width:0.02;stroke-linecap:round;stroke-linejoin:round"
     xlink:href="#arrow1"
     transform="matrix(13.860306,-46.881735,-46.881735,-13.860306,92.865563,482.94481)"
     id="use116"
     x="0"
     y="0"
     width="100%"
     height="100%" />
  <path
     style="fill:none;stroke:#000000;stroke-width:0.48887679;stroke-linecap:round;stroke-linejoin:round"
     inkscape:connector-curvature="0"
     id="path120"
     d="m -1.7663195,566.03187 3.6763535,-1.53263 3.5956889,-1.56441 3.5150242,-1.59618 3.4368039,-1.6304 3.363472,-1.66218 3.290141,-1.69396 3.221698,-1.73063 3.158144,-1.76484 3.097035,-1.80151 3.043258,-1.84062 2.991926,-1.88462 2.947927,-1.92618 2.903928,-1.97506 8.076245,-7.83914 7.022715,-6.74161 6.433619,-6.09874 6.333399,-5.92519 7.479815,-6.91027 2.072838,-2.23661 1.88462,-1.95062 1.7844,-1.75996 1.740401,-1.6304 1.733069,-1.53996 1.777067,-1.49841 1.906619,-1.52041 2.38083,-1.81128 2.823264,-2.11684 1.293079,-1.03153 0.916644,-0.80176 0.725982,-0.71131 0.598874,-0.66488 0.498655,-0.64776 0.425322,-0.6502 0.364214,-0.66732 0.312881,-0.70154 0.266438,-0.75531 0.222439,-0.82132 0.17844,-0.91175 0.134441,-1.0242 0.088,-1.16353 0.03178,-1.33707 -0.02689,-1.53997 -0.100219,-1.77217 -0.17844,-2.0264 -0.266438,-2.28061 -0.359325,-2.50549 -0.449766,-2.68638 -0.532876,-2.81349 -0.613541,-2.8917 -0.684427,-2.93326 -0.75287,-2.94793 -0.81398,-2.94793" />
  <use
     style="fill:none;stroke:#000000;stroke-width:0.02;stroke-linecap:round;stroke-linejoin:round"
     xlink:href="#arrow1"
     transform="matrix(42.329437,-24.458616,-24.458616,-42.329437,25.691446,552.73686)"
     id="use122"
     x="0"
     y="0"
     width="100%"
     height="100%" />
  <use
     style="fill:none;stroke:#000000;stroke-width:0.02;stroke-linecap:round;stroke-linejoin:round"
     xlink:href="#arrow1"
     transform="matrix(4.7790934,-48.653525,-48.653525,-4.7790934,99.819835,484.64855)"
     id="use124"
     x="0"
     y="0"
     width="100%"
     height="100%" />
  <path
     style="fill:none;stroke:#000000;stroke-width:0.48887679;stroke-linecap:round;stroke-linejoin:round"
     d="m -1.7663195,574.45522 3.7350188,-2.15106 3.6421321,-2.16084 3.55169,-2.17305 3.4685806,-2.19017 3.390361,-2.20484 3.319473,-2.22439 3.253475,-2.25127 3.199699,-2.28306 3.158144,-2.32216 5.086974,-3.49355"
     id="path1799"
     inkscape:connector-curvature="0"
     sodipodi:nodetypes="ccccccccccc" />
  <use
     style="fill:none;stroke:#000000;stroke-width:0.02;stroke-linecap:round;stroke-linejoin:round"
     xlink:href="#arrow1"
     transform="matrix(39.38986,-28.955902,-28.955902,-39.38986,26.744975,556.11745)"
     id="use130"
     x="0"
     y="0"
     width="100%"
     height="100%" />
  <use
     style="fill:none;stroke:#000000;stroke-width:0.02;stroke-linecap:round;stroke-linejoin:round"
     xlink:href="#arrow1"
     transform="matrix(19.837631,44.681917,44.681917,-19.837631,108.25052,516.57465)"
     id="use132"
     x="0"
     y="0"
     width="100%"
     height="100%" />
  <path
     style="fill:none;stroke:#000000;stroke-width:0.48887679;stroke-linecap:round;stroke-linejoin:round"
     inkscape:connector-curvature="0"
     id="path136"
     d="m 116.22898,511.50499 2.53728,-2.34416 2.77926,-2.60816 -0.76509,-0.0391 -0.74554,0.0171 -0.72109,0.0733 -0.69665,0.12467 -0.66732,0.17844 -0.63309,0.22488 -0.60132,0.27622 -0.5671,0.31777 -0.53043,0.36421 -0.49377,0.40821 -0.4571,0.44977 -0.41799,0.49132 -0.38132,0.53288 -0.33732,0.57443 -0.29578,0.61354 -0.25177,0.65509 -0.20533,0.69421 -0.15644,0.73331 -0.10755,0.76754 -0.0513,0.80176 1.79662,-1.61819 1.9164,-1.74773" />
  <use
     style="fill:none;stroke:#000000;stroke-width:0.02;stroke-linecap:round;stroke-linejoin:round"
     xlink:href="#arrow1"
     transform="matrix(-39.415113,28.921516,28.921516,39.415113,115.98699,507.88975)"
     id="use138"
     x="0"
     y="0"
     width="100%"
     height="100%" />
  <path
     style="fill:none;stroke:#000000;stroke-width:0.48887679;stroke-linecap:round;stroke-linejoin:round"
     d="m 33.960797,551.06979 2.52016,-2.04839 2.534826,-2.1095 2.393485,-2.45229"
     id="path4597"
     inkscape:connector-curvature="0"
     sodipodi:nodetypes="cccc" />
  <path
     style="fill:none;stroke:#000000;stroke-width:0.48887679;stroke-linecap:round;stroke-linejoin:round"
     d="m 76.613839,511.09927 2.330957,-1.50823 1.701291,-1.36885 1.598627,-1.21486 1.522851,-1.08042 1.459298,-0.96064 1.400632,-0.85309 1.351744,-0.75287 1.300412,-0.6551 1.249081,-0.55976 1.195303,-0.47421 1.136639,-0.38377 1.075529,-0.3031 1.011975,-0.22244 0.943532,-0.14667 0.87509,-0.0758 0.806646,-0.0122 0.740649,0.0489 0.679538,0.10511 0.625763,0.15644 0.574434,0.20533 0.53287,0.25422 0.49866,0.30799 0.46687,0.35932 0.44733,0.42288 0.42776,0.49621 0.42044,0.58421 0.41799,0.69421 0.42532,0.83353 0.45465,1.03886 0.5231,1.37619 0.80176,2.34172 1.01931,3.01148 0.68443,1.86262 0.64043,1.57174 0.63309,1.3933 0.63798,1.26619 0.6551,1.16353"
     id="path1819"
     inkscape:connector-curvature="0"
     sodipodi:nodetypes="cccccccccccccccccccccccccccccccccccccc" />
  <path
     style="fill:none;stroke:#000000;stroke-width:0.48887679;stroke-linecap:round;stroke-linejoin:round"
     d="m 109.84656,519.4169 2.9137,-2.60816 3.27303,-2.99437 3.73013,-3.4808 5.81988,-5.69503"
     id="path1807"
     inkscape:connector-curvature="0"
     sodipodi:nodetypes="ccccc" />
  <path
     inkscape:connector-curvature="0"
     style="fill:none;stroke:#000000;stroke-width:0.48887679;stroke-linecap:round;stroke-linejoin:round"
     d="m -1.7663195,590.52949 4.0405668,-3.51503 3.9012368,-3.46614 3.7716845,-3.42702 3.6592424,-3.3977 3.561468,-3.38547 3.488136,-3.38791 3.434359,-3.41725 3.419694,-3.48081 3.45147,-3.59813 3.573689,-3.80346 3.867016,-4.20434 4.70055,-5.20654 7.355152,-7.13027 6.32851,-6.0694 5.661193,-5.35565 5.265203,-4.91565 5.17965,-4.75922 5.712525,-5.17476"
     id="path4525" />
  <path
     inkscape:connector-curvature="0"
     style="fill:none;stroke:#000000;stroke-width:0.48887679;stroke-linecap:round;stroke-linejoin:round"
     d="m 92.670012,507.11733 0.933755,-0.044 0.887311,0.0147 0.845757,0.0733 0.804202,0.12956 0.767537,0.18333 0.733315,0.23466 0.706427,0.28843 0.681983,0.34466 0.659984,0.40088 0.647757,0.46199 0.64043,0.53288 0.64043,0.61354 0.65021,0.70887 0.67954,0.83598 0.73331,1.00464 0.8702,1.3053 1.8944,3.04326 1.14153,1.78684 0.93375,1.36152 0.86776,1.16597 2.8917,-2.50549 3.22659,-2.87459 3.65924,-3.34392 4.22879,-3.94524 4.96454,-4.7201"
     id="path1815" />
  <path
     inkscape:connector-curvature="0"
     style="fill:none;stroke:#000000;stroke-width:0.48887679;stroke-linecap:round;stroke-linejoin:round"
     d="m 10.301604,601.76632 3.688576,-5.28232 3.49058,-5.08187 3.339029,-4.95232 3.243697,-4.89855 3.214365,-4.94499 3.304807,-5.17965 3.678798,-5.86407 8.088467,-13.06524 3.378327,-4.21461 34.382495,-32.77597"
     id="path4591" />
  <path
     style="fill:none;stroke:#000000;stroke-width:0.48887679;stroke-linecap:round;stroke-linejoin:round"
     d="m 95.318622,513.00512 0.833454,0.40002 0.827385,0.45624 0.828646,0.39355 0.826202,0.4571 0.828646,0.52798 0.848205,0.61599 0.88975,0.71865 0.97042,0.86775 1.13909,1.10487 3.01392,3.1117 1.3493,1.34196 1.15131,1.06575 2.70104,-2.30749 2.96748,-2.61061 3.30481,-2.9797 3.73746,-3.44414 4.30945,-4.0479 5.07943,-4.84966"
     id="path1874"
     inkscape:connector-curvature="0"
     sodipodi:nodetypes="ccccccccccccccccccc" />
  <use
     style="fill:none;stroke:#000000;stroke-width:0.02;stroke-linecap:round;stroke-linejoin:round"
     xlink:href="#arrow1"
     transform="matrix(25.732634,-41.567256,-41.567256,-25.732634,33.468122,566.78687)"
     id="use160"
     x="0"
     y="0"
     width="100%"
     height="100%" />
  <use
     style="fill:none;stroke:#000000;stroke-width:0.02;stroke-linecap:round;stroke-linejoin:round"
     xlink:href="#arrow1"
     transform="matrix(-35.253258,-33.870534,-33.870534,35.253258,117.37,494.49238)"
     id="use162"
     x="0"
     y="0"
     width="100%"
     height="100%"
     inkscape:transform-center-x="0.37039557"
     inkscape:transform-center-y="-8.5190981" />
  <path
     inkscape:connector-curvature="0"
     style="fill:none;stroke:#000000;stroke-width:0.48887679;stroke-linecap:round;stroke-linejoin:round"
     d="m 25.143904,601.76632 3.126367,-7.24516 2.943038,-6.9616 2.974816,-7.19627 3.715463,-9.16399 3.918348,-9.6871 2.087504,-5.03787 1.68418,-3.92324 1.498408,-3.35369 6.690279,-6.47273 5.705192,-5.45587 5.015876,-4.72988 4.536777,-4.20923 4.219007,-3.8499 4.057677,-3.63725 4.116343,-3.61769"
     id="path4531" />
  <path
     style="fill:none;stroke:#000000;stroke-width:0.48887679;stroke-linecap:round;stroke-linejoin:round"
     d="m 94.789293,517.14497 0.999753,0.52232 0.997309,0.43754 1.016863,0.51821 1.048641,0.60621 1.124417,0.72598 1.271084,0.90198 1.75017,1.33708 2.68883,2.09972 1.53018,1.12686 1.32975,0.90931 2.97481,-2.52749 3.27303,-2.86971 3.65924,-3.29258 4.17012,-3.84502 4.81544,-4.53189 5.76386,-5.51453 -0.6331,-1.39085 -0.70154,-1.39574 -0.77242,-1.40797 -0.8482,-1.42263"
     id="path1870"
     inkscape:connector-curvature="0"
     sodipodi:nodetypes="ccccccccccccccccccccc" />
  <use
     style="fill:none;stroke:#000000;stroke-width:0.02;stroke-linecap:round;stroke-linejoin:round"
     xlink:href="#arrow1"
     transform="matrix(-31.129296,-37.695784,-37.695784,31.129296,122.22422,492.78012)"
     id="use170"
     x="0"
     y="0"
     width="100%"
     height="100%" />
  <path
     inkscape:connector-curvature="0"
     style="fill:none;stroke:#000000;stroke-width:0.48887679;stroke-linecap:round;stroke-linejoin:round"
     d="m 36.363627,601.76632 1.830843,-7.55559 1.752623,-7.45293 2.12417,-9.30821 2.143725,-9.4231 1.180637,-4.99877 0.967976,-3.88901 0.879979,-3.33414 0.833535,-2.95771 0.809091,-2.68149 6.64628,-6.42139 5.663638,-5.40454 4.9401,-4.64188 4.431668,-4.0919 4.074788,-3.69591 3.864571,-3.42947 3.801017,-3.30236"
     id="path4537" />
  <path
     style="fill:none;stroke:#000000;stroke-width:0.48887679;stroke-linecap:round;stroke-linejoin:round"
     d="m 95.831703,520.9862 1.2382,0.7681 1.297968,0.69909 1.520407,0.89465 4.038122,2.53482 1.72085,1.03398 1.46663,0.81642 1.36152,0.69176 2.74015,-2.31483 2.95526,-2.57149 3.23637,-2.88438 3.59569,-3.27791 4.06256,-3.77658 4.681,-4.42922 5.53164,-5.3092"
     id="path1937"
     inkscape:connector-curvature="0"
     sodipodi:nodetypes="ccccccccccccccc" />
  <use
     style="fill:none;stroke:#000000;stroke-width:0.02;stroke-linecap:round;stroke-linejoin:round"
     xlink:href="#arrow1"
     transform="matrix(11.810441,-47.439632,-47.439632,-11.810441,45.618064,562.13552)"
     id="use176"
     x="0"
     y="0"
     width="100%"
     height="100%" />
  <use
     style="fill:none;stroke:#000000;stroke-width:0.02;stroke-linecap:round;stroke-linejoin:round"
     xlink:href="#arrow1"
     transform="matrix(-14.908858,-46.558901,-46.558901,14.908858,130.21633,491.58447)"
     id="use178"
     x="0"
     y="0"
     width="100%"
     height="100%" />
  <path
     inkscape:connector-curvature="0"
     style="fill:none;stroke:#000000;stroke-width:0.48887679;stroke-linecap:round;stroke-linejoin:round"
     d="m 45.891835,601.76632 0.623318,-7.01783 0.554875,-6.90538 0.642873,-8.78267 0.620874,-8.60179 0.383768,-4.66878 0.35688,-3.72768 0.359325,-3.20948 0.376435,-2.86726 0.39599,-2.62038 0.422879,-2.43216 6.548504,-6.32118 5.553641,-5.2872 4.820325,-4.51722 4.294783,-3.95013 3.920792,-3.53213 3.666576,-3.23148 3.534579,-3.03837"
     id="path4543" />
  <path
     style="fill:none;stroke:#000000;stroke-width:0.48887679;stroke-linecap:round;stroke-linejoin:round"
     d="m 94.539966,523.53846 1.407965,0.73111 1.635293,0.82376 2.923486,1.57418 2.2415,1.18797 1.62796,0.80909 1.46418,0.66487 1.38597,0.56954 1.3493,0.49133 2.94304,-2.49328 3.16303,-2.74993 3.44658,-3.07748 3.82791,-3.49302 4.329,-4.03324 5.0061,-4.74455 5.90319,-5.67585 -0.264,-1.79663 -0.33243,-1.86506 -0.40333,-1.94573 -0.48154,-2.0484 -0.57199,-2.18527 -0.68687,-2.39306 -0.84087,-2.72304 -1.17086,-3.56391 -2.51038,-7.41871 -1.20752,-3.70813 -0.99242,-3.20947 -0.89465,-3.07015 -0.83842,-3.07992 -0.81398,-3.20215 -0.81643,-3.44413 -0.85553,-3.8548"
     id="path182"
     inkscape:connector-curvature="0"
     sodipodi:nodetypes="cccccccccccccccccccccccccccccccc" />
  <g
     style="fill:none;stroke:#000000;stroke-width:0.02;stroke-linecap:round;stroke-linejoin:round"
     id="arrows23"
     transform="matrix(24.44384,0,0,-24.44384,96.253479,528.19036)">
    <use
       height="100%"
       width="100%"
       y="0"
       x="0"
       id="use184"
       transform="matrix(0.21461056,1.9884522,-1.9884522,0.21461056,-1.9295,-1.3821)"
       xlink:href="#arrow1" />
    <use
       height="100%"
       width="100%"
       y="0"
       x="0"
       id="use186"
       transform="matrix(-0.55462931,1.9215583,-1.9215583,-0.55462931,1.5746,1.4439)"
       xlink:href="#arrow1" />
  </g>
  <path
     inkscape:connector-curvature="0"
     style="fill:none;stroke:#000000;stroke-width:0.48887679;stroke-linecap:round;stroke-linejoin:round"
     d="m 54.56451,601.76632 -0.251772,-5.84697 -0.298215,-5.54631 -0.376435,-5.84696 -0.787091,-10.70885 -0.354436,-5.20898 -0.202884,-3.76924 -0.11733,-3.19481 -0.04889,-2.83793 0.01467,-2.59349 0.07089,-2.41016 0.124664,-2.26839 6.374953,-6.14518 5.394756,-5.12588 4.666329,-4.36078 4.140786,-3.79368 3.754574,-3.36836 3.480803,-3.04815 3.297474,-2.81349"
     id="path4549" />
  <path
     style="fill:none;stroke:#000000;stroke-width:0.48887679;stroke-linecap:round;stroke-linejoin:round"
     d="m 95.033191,526.71451 2.79936,1.31697 2.319719,1.13908 1.66952,0.76265 1.49351,0.62331 1.41041,0.52555 1.3713,0.45221 1.35908,0.38621 1.35908,0.32755 3.15081,-2.6766 3.35125,-2.92349 3.6348,-3.25347 4.01857,-3.6788 4.54411,-4.23856 5.25542,-4.98654 6.20874,-5.98141 -0.0513,-2.05817 -0.11488,-2.16573 -0.17844,-2.30016 -0.25422,-2.46883 -0.33732,-2.71082 -0.44732,-3.08237 -0.61354,-3.78146 -1.14642,-6.56317 -1.10731,-6.3774 -0.75776,-4.67122 -0.65509,-4.395 -0.6111,-4.48056 -0.59887,-4.83988"
     id="path190"
     inkscape:connector-curvature="0"
     sodipodi:nodetypes="ccccccccccccccccccccccccccccc" />
  <g
     style="fill:none;stroke:#000000;stroke-width:0.02;stroke-linecap:round;stroke-linejoin:round"
     id="arrows24"
     transform="matrix(24.44384,0,0,-24.44384,96.253479,528.19036)">
    <use
       height="100%"
       width="100%"
       y="0"
       x="0"
       id="use192"
       transform="matrix(-0.0596814,1.9991093,-1.9991093,-0.0596814,-1.8022,-1.3932)"
       xlink:href="#arrow1" />
    <use
       height="100%"
       width="100%"
       y="0"
       x="0"
       id="use194"
       transform="matrix(-0.25378298,1.9838332,-1.9838332,-0.25378298,1.7143,1.4095)"
       xlink:href="#arrow1" />
  </g>
  <path
     inkscape:connector-curvature="0"
     style="fill:none;stroke:#000000;stroke-width:0.48887679;stroke-linecap:round;stroke-linejoin:round"
     d="m 62.804528,601.76632 -0.716204,-4.63944 -0.71376,-4.24834 -0.750426,-4.10168 -0.831091,-4.21656 -1.029086,-4.86677 -2.053282,-9.37666 -0.762648,-3.72279 -0.567097,-3.02859 -0.439989,-2.66927 -0.344658,-2.43461 -0.261549,-2.27328 -0.190662,-2.14861 -0.122219,-2.04839 6.132959,-5.90075 5.191872,-4.92543 4.485444,-4.18234 3.967235,-3.62991 3.585912,-3.20214 3.297474,-2.87704 3.092146,-2.62283"
     id="path4555" />
  <path
     inkscape:connector-curvature="0"
     style="fill:none;stroke:#000000;stroke-width:0.48887679;stroke-linecap:round;stroke-linejoin:round"
     d="m 96.7448,530.17031 1.730624,0.82131 1.473964,0.64043 1.359082,0.53288 1.31263,0.4571 1.29308,0.38866 1.29063,0.33243 1.30286,0.27622 1.32241,0.22488 1.3493,0.17111 3.36347,-2.8746 3.53214,-3.09703 3.80346,-3.41481 4.18479,-3.84012 4.71277,-4.40723 5.44364,-5.1772 6.43362,-6.20141 0.19555,-2.21705 0.154,-2.36128 0.10755,-2.53971 0.0636,-2.77682 0.01,-3.11659 -0.044,-3.66658 -0.14422,-5.45342 -0.33732,-10.24686 -0.16866,-6.35295 -0.0953,-5.71008 -0.0416,-5.94719"
     id="path198" />
  <g
     style="fill:none;stroke:#000000;stroke-width:0.02;stroke-linecap:round;stroke-linejoin:round"
     id="arrows25"
     transform="matrix(24.44384,0,0,-24.44384,96.253479,528.19036)">
    <use
       height="100%"
       width="100%"
       y="0"
       x="0"
       id="use200"
       transform="matrix(-0.32596315,1.9732582,-1.9732582,-0.32596315,-1.6769,-1.418)"
       xlink:href="#arrow1" />
    <use
       height="100%"
       width="100%"
       y="0"
       x="0"
       id="use202"
       transform="matrix(0.00733037,1.9999866,-1.9999866,0.00733037,1.8378,1.3885)"
       xlink:href="#arrow1" />
  </g>
  <path
     inkscape:connector-curvature="0"
     style="fill:none;stroke:#000000;stroke-width:0.48887679;stroke-linecap:round;stroke-linejoin:round"
     d="m 70.77322,601.76632 -0.950865,-3.98679 -0.897089,-3.50525 -0.884867,-3.22414 -0.909311,-3.07259 -0.960643,-3.03593 -1.060863,-3.13859 -1.256413,-3.50524 -2.20239,-5.87875 -1.601072,-4.31678 -1.041307,-2.96015 -0.831091,-2.53727 -0.689316,-2.29772 -0.579319,-2.13883 -0.488877,-2.02884 -0.403323,-1.94329 -0.329992,-1.87484 5.8323,-5.60497 4.947433,-4.68833 4.280117,-3.98435 3.783906,-3.45391 3.407472,-3.03837 3.123922,-2.71571 2.901484,-2.45905"
     id="path4583" />
  <path
     inkscape:connector-curvature="0"
     style="fill:none;stroke:#000000;stroke-width:0.48887679;stroke-linecap:round;stroke-linejoin:round"
     d="m 95.351501,532.10382 1.471519,0.72598 1.324856,0.59154 1.253969,0.5011 1.227085,0.42532 1.2173,0.35933 1.22464,0.3031 1.24908,0.24688 1.27596,0.19311 1.31019,0.13933 1.35419,0.0831 1.39575,0.0244 3.58591,-3.08725 3.70568,-3.26815 3.95257,-3.56635 4.32412,-3.97946 4.84721,-4.54411 5.58053,-5.31409 6.57539,-6.35051 0.4791,-2.41261 0.46444,-2.60815 0.44976,-2.85749 0.44732,-3.20214 0.46444,-3.72769 0.5231,-4.67121 0.88242,-8.62868 0.9142,-8.856 0.76509,-6.95428 0.83109,-7.05449"
     id="path206" />
  <g
     style="fill:none;stroke:#000000;stroke-width:0.02;stroke-linecap:round;stroke-linejoin:round"
     id="arrows26"
     transform="matrix(24.44384,0,0,-24.44384,96.253479,528.19036)">
    <use
       height="100%"
       width="100%"
       y="0"
       x="0"
       id="use208"
       transform="matrix(-0.62068924,1.9012482,-1.9012482,-0.62068924,-1.5432,-1.452)"
       xlink:href="#arrow1" />
    <use
       height="100%"
       width="100%"
       y="0"
       x="0"
       id="use210"
       transform="matrix(0.25482167,1.9837001,-1.9837001,0.25482167,1.9564,1.3818)"
       xlink:href="#arrow1" />
  </g>
  <g
     style="fill:none;stroke:#000000;stroke-width:0.02;stroke-linecap:round;stroke-linejoin:round"
     id="arrows27"
     transform="matrix(24.44384,0,0,-24.44384,96.253479,528.19036)">
    <use
       height="100%"
       width="100%"
       y="0"
       x="0"
       id="use216"
       transform="matrix(-0.90268967,1.7846992,-1.7846992,-0.90268967,-1.3941,-1.4864)"
       xlink:href="#arrow1" />
    <use
       height="100%"
       width="100%"
       y="0"
       x="0"
       id="use218"
       transform="matrix(0.4926449,1.9383759,-1.9383759,0.4926449,2.0796,1.3896)"
       xlink:href="#arrow1" />
  </g>
  <g
     style="fill:none;stroke:#000000;stroke-width:0.02;stroke-linecap:round;stroke-linejoin:round"
     id="arrows28"
     transform="matrix(24.44384,0,0,-24.44384,96.253479,528.19036)">
    <use
       height="100%"
       width="100%"
       y="0"
       x="0"
       id="use224"
       transform="matrix(-1.1955301,1.6033427,-1.6033427,-1.1955301,-1.2272,-1.5068)"
       xlink:href="#arrow1" />
    <use
       height="100%"
       width="100%"
       y="0"
       x="0"
       id="use226"
       transform="matrix(0.70466344,1.8717504,-1.8717504,0.70466344,2.2169,1.4136)"
       xlink:href="#arrow1" />
  </g>
  <path
     inkscape:connector-curvature="0"
     style="fill:none;stroke:#000000;stroke-width:0.48887679;stroke-linecap:round;stroke-linejoin:round"
     d="m 94.911512,540.13851 0.894645,0.42777 0.899533,0.36665 0.911755,0.30555 0.933755,0.25177 0.958198,0.19555 0.989972,0.14178 1.02909,0.0856 1.0682,0.0293 1.11708,-0.0318 1.16841,-0.0929 1.22464,-0.15888 1.28575,-0.22733 1.35419,-0.30311 1.42752,-0.38132 1.50085,-0.46443 4.31922,-3.82546 4.17257,-3.75702 4.29234,-3.93302 4.58322,-4.26789 5.04276,-4.7641 5.70519,-5.4632 6.65362,-6.4434 2.03372,-3.75702 2.56905,-4.87654 7.13516,-13.80344 3.53213,-6.7465 3.20703,-6.01318 3.18748,-5.85919 3.29747,-5.94719 3.50525,-6.21118"
     id="path230" />
  <use
     style="fill:none;stroke:#000000;stroke-width:0.02;stroke-linecap:round;stroke-linejoin:round"
     xlink:href="#arrow1"
     transform="matrix(-32.718916,-36.324614,-36.324614,32.718916,70.857358,564.3419)"
     id="use232"
     x="0"
     y="0"
     width="100%"
     height="100%" />
  <use
     style="fill:none;stroke:#000000;stroke-width:0.02;stroke-linecap:round;stroke-linejoin:round"
     xlink:href="#arrow1"
     transform="matrix(22.452636,-43.42677,-43.42677,-22.452636,154.4616,492.58791)"
     id="use234"
     x="0"
     y="0"
     width="100%"
     height="100%" />
  <path
     inkscape:connector-curvature="0"
     style="fill:none;stroke:#000000;stroke-width:0.48887679;stroke-linecap:round;stroke-linejoin:round"
     d="m 93.408216,542.44845 0.789536,0.46932 0.794425,0.40822 0.804202,0.3471 0.823758,0.29088 0.848201,0.23711 0.875089,0.18577 0.906867,0.12955 0.943536,0.0758 0.98264,0.0171 1.02664,-0.0391 1.07553,-0.10267 1.1293,-0.16866 1.18309,-0.2371 1.24419,-0.31044 1.30774,-0.38866 1.38108,-0.47421 1.4593,-0.56465 1.53996,-0.65999 5.31409,-4.75432 5.02076,-4.57344 5.20654,-4.82766 5.67586,-5.34587 6.43118,-6.15252 7.52625,-7.28915 4.47812,-6.66583 6.60228,-9.86065 4.06501,-5.9643 3.71546,-5.34342 3.65191,-5.14054 3.70569,-5.11121 3.83279,-5.17965 4.01857,-5.31897 4.25078,-5.52187"
     id="path238" />
  <use
     style="fill:none;stroke:#000000;stroke-width:0.02;stroke-linecap:round;stroke-linejoin:round"
     xlink:href="#arrow1"
     transform="matrix(-39.52467,-28.771615,-28.771615,39.52467,76.480546,562.8682)"
     id="use240"
     x="0"
     y="0"
     width="100%"
     height="100%" />
  <use
     style="fill:none;stroke:#000000;stroke-width:0.02;stroke-linecap:round;stroke-linejoin:round"
     xlink:href="#arrow1"
     transform="matrix(27.528332,-40.400449,-40.400449,-27.528332,159.58014,491.02106)"
     id="use242"
     x="0"
     y="0"
     width="100%"
     height="100%" />
  <path
     inkscape:connector-curvature="0"
     style="fill:none;stroke:#000000;stroke-width:0.48887679;stroke-linecap:round;stroke-linejoin:round"
     d="m 92.298466,545.33771 0.708871,0.50355 0.71376,0.43754 0.733315,0.37399 0.752871,0.31533 0.782202,0.2591 0.809092,0.20289 0.845756,0.1491 0.884867,0.088 0.928866,0.0318 0.972864,-0.0318 1.02175,-0.0978 1.07553,-0.16622 1.12686,-0.23711 1.18797,-0.31777 1.24664,-0.39843 1.31263,-0.48888 1.38597,-0.58421 1.46419,-0.68442 1.54974,-0.79932 1.64995,-0.92153 5.57564,-5.03299 5.13566,-4.70544 5.25298,-4.89121 5.66852,-5.36053 6.36762,-6.09874 7.43093,-7.2036 6.26985,-7.58003 4.18723,-4.97677 3.80346,-4.42922 3.65924,-4.17257 3.6348,-4.0479 3.67146,-3.99657 3.75458,-3.99656 3.86946,-4.0259 4.00879,-4.07968 4.17501,-4.16034 4.35589,-4.25323"
     id="path246" />
  <use
     style="fill:none;stroke:#000000;stroke-width:0.02;stroke-linecap:round;stroke-linejoin:round"
     xlink:href="#arrow1"
     transform="matrix(32.661485,-36.376267,-36.376267,-32.661485,169.22812,485.82185)"
     id="use250"
     x="0"
     y="0"
     width="100%"
     height="100%" />
  <path
     inkscape:connector-curvature="0"
     style="fill:none;stroke:#000000;stroke-width:0.48887679;stroke-linecap:round;stroke-linejoin:round"
     d="m 89.277207,546.67235 0.59643,0.83598 0.579319,0.71131 0.57443,0.6111 0.576875,0.53043 0.59154,0.45954 0.606208,0.39599 0.633095,0.33977 0.657539,0.28355 0.691761,0.23222 0.730871,0.17844 0.769981,0.12466 0.81398,0.0684 0.865312,0.01 0.914199,-0.0538 0.965532,-0.11978 1.019311,-0.18822 1.07553,-0.26399 1.1293,-0.34221 1.18553,-0.42533 1.24419,-0.51576 1.30286,-0.60621 1.36885,-0.70643 1.43974,-0.81398 1.51552,-0.93131 1.61085,-1.0633 1.72085,-1.21486 5.87141,-5.34098 5.22365,-4.82033 5.27742,-4.93521 5.64164,-5.34587 6.27718,-6.0254 7.25248,-7.03494 4.00146,-3.99657 3.67147,-3.58591 3.51991,-3.35614 3.46369,-3.21925 3.45392,-3.12881 3.48569,-3.07748 3.54191,-3.0457 3.61769,-3.03104 3.71057,-3.03104 3.81569,-3.03592 3.93301,-3.05304 4.05768,-3.07503"
     id="path254" />
  <use
     style="fill:none;stroke:#000000;stroke-width:0.02;stroke-linecap:round;stroke-linejoin:round"
     xlink:href="#arrow1"
     transform="matrix(36.256311,-32.794589,-32.794589,-36.256311,167.28972,494.16453)"
     id="use258"
     x="0"
     y="0"
     width="100%"
     height="100%" />
  <path
     style="fill:none;stroke:#000000;stroke-width:0.48887679;stroke-linecap:round;stroke-linejoin:round"
     d="m 82.85879,536.92096 0.358789,0.67295 0.608652,1.22952 0.596429,1.34197 0.591541,1.48863 0.608652,1.69884 0.703982,2.18284 1.168416,3.82302 0.571986,1.70618 0.425323,1.10241 0.391101,0.86043 0.381324,0.70398 0.37888,0.58665 0.388657,0.49132 0.400879,0.42044 0.425322,0.35443 0.449767,0.30311 0.483988,0.25177 0.525543,0.20532 0.57443,0.16133 0.628207,0.11 0.69176,0.0587 0.757759,0.002 0.828646,-0.0587 0.901978,-0.12711 0.967976,-0.198 1.038863,-0.27377 1.099973,-0.35688 1.158637,-0.4351 1.20997,-0.5231 1.2613,-0.61109 1.3053,-0.6991 1.3493,-0.79198 1.40064,-0.8922 1.44952,-0.99731 1.51307,-1.11219 1.58396,-1.24175 1.68174,-1.39819 1.81373,-1.5864 6.1574,-5.64653 5.28965,-4.90343 5.27498,-4.95721 5.58786,-5.31165 6.16229,-5.92274 7.04228,-6.83694 3.14836,-2.60327 3.11659,-2.50794 3.11415,-2.42972 3.12636,-2.36861 3.15815,-2.32216 3.1997,-2.28306 3.25347,-2.25127 3.31947,-2.22439 3.39037,-2.20484 3.46858,-2.19017 3.55169,-2.17305 3.64213,-2.16084 3.73502,-2.15106"
     id="path262"
     inkscape:connector-curvature="0"
     sodipodi:nodetypes="cccccccccccccccccccccccccccccccccccccccccccccccccccccccccc" />
  <g
     style="fill:none;stroke:#000000;stroke-width:0.02;stroke-linecap:round;stroke-linejoin:round"
     id="arrows33"
     transform="matrix(24.44384,0,0,-24.44384,96.253479,528.19036)">
    <use
       height="100%"
       width="100%"
       y="0"
       x="0"
       id="use264"
       transform="matrix(0.77792633,-1.8425066,1.8425066,0.77792633,-0.491,-0.4752)"
       xlink:href="#arrow1" />
    <use
       height="100%"
       width="100%"
       y="0"
       x="0"
       id="use266"
       transform="matrix(1.6116499,1.1843077,-1.1843077,1.6116499,2.8436,1.1425)"
       xlink:href="#arrow1" />
  </g>
  <path
     style="fill:none;stroke:#000000;stroke-width:0.48887679;stroke-linecap:round;stroke-linejoin:round"
     inkscape:connector-curvature="0"
     id="path270"
     d="m 97.304564,601.76632 -0.81398,-2.94793 -0.75287,-2.94793 -0.684428,-2.93326 -0.61354,-2.8917 -0.532876,-2.81349 -0.449766,-2.68638 -0.359325,-2.50549 -0.266438,-2.28061 -0.17844,-2.0264 -0.100219,-1.77217 -0.02689,-1.53997 0.03178,-1.33707 0.088,-1.16353 0.134441,-1.0242 0.17844,-0.91175 0.222439,-0.82132 0.266438,-0.75531 0.312881,-0.70154 0.364213,-0.66732 0.425323,-0.6502 0.498655,-0.64776 0.598874,-0.66488 0.725982,-0.71131 0.916644,-0.80176 1.293079,-1.03153 2.823259,-2.11684 2.38083,-1.81128 1.90662,-1.52041 1.77707,-1.49841 1.73307,-1.53996 1.7404,-1.6304 1.7844,-1.75996 1.88462,-1.95062 2.07283,-2.23661 7.47982,-6.91027 6.3334,-5.92519 6.43362,-6.09874 7.02271,-6.74161 8.07625,-7.83914 2.90393,-1.97506 2.94792,-1.92618 2.99193,-1.88462 3.04326,-1.84062 3.09703,-1.80151 3.15815,-1.76484 3.22169,-1.73063 3.29014,-1.69396 3.36348,-1.66218 3.4368,-1.6304 3.51502,-1.59618 3.59569,-1.56441 3.67636,-1.53263" />
  <g
     style="fill:none;stroke:#000000;stroke-width:0.02;stroke-linecap:round;stroke-linejoin:round"
     id="arrows34"
     transform="matrix(24.44384,0,0,-24.44384,96.253479,528.19036)">
    <use
       height="100%"
       width="100%"
       y="0"
       x="0"
       id="use272"
       transform="matrix(0.26520476,1.9823386,-1.9823386,0.26520476,-0.1457,-1.7813)"
       xlink:href="#arrow1" />
    <use
       height="100%"
       width="100%"
       y="0"
       x="0"
       id="use274"
       transform="matrix(1.7382998,0.98909754,-0.98909754,1.7382998,2.8867,1.0041)"
       xlink:href="#arrow1" />
  </g>
  <path
     style="fill:none;stroke:#000000;stroke-width:0.48887679;stroke-linecap:round;stroke-linejoin:round"
     inkscape:connector-curvature="0"
     id="path278"
     d="m 101.84379,601.76632 -0.67465,-2.39061 -0.60132,-2.33683 -0.5231,-2.27328 -0.447324,-2.19261 -0.369102,-2.10217 -0.293326,-1.99951 -0.219994,-1.89195 -0.149108,-1.77951 -0.08311,-1.66707 -0.01956,-1.56196 0.03911,-1.46419 0.09289,-1.37374 0.144218,-1.29553 0.195551,-1.22708 0.246883,-1.17086 0.29577,-1.12441 0.347103,-1.09264 0.403329,-1.07309 0.46687,-1.07064 0.53532,-1.07797 0.62088,-1.1122 0.72598,-1.1733 0.86531,-1.28086 1.07064,-1.46418 1.45197,-1.86751 4.70544,-5.79319 2.40283,-3.02615 2.28305,-2.96748 2.55683,-3.42947 7.70714,-7.16694 6.33584,-5.95207 6.35051,-6.04007 6.8565,-6.59251 7.78292,-7.56048 2.58127,-1.41774 2.63749,-1.38352 2.69126,-1.34441 2.74994,-1.30775 2.8037,-1.26863 2.85993,-1.22953 2.9186,-1.19041 2.97726,-1.14886 3.03592,-1.10975 3.09459,-1.0682 3.15326,-1.02664 3.21436,-0.98509 3.27548,-0.94109 3.33414,-0.89464" />
  <g
     style="fill:none;stroke:#000000;stroke-width:0.02;stroke-linecap:round;stroke-linejoin:round"
     id="arrows35"
     transform="matrix(24.44384,0,0,-24.44384,96.253479,528.19036)">
    <use
       height="100%"
       width="100%"
       y="0"
       x="0"
       id="use280"
       transform="matrix(0.63692603,1.8958706,-1.8958706,0.63692603,0.1385,-1.851)"
       xlink:href="#arrow1" />
    <use
       height="100%"
       width="100%"
       y="0"
       x="0"
       id="use282"
       transform="matrix(1.8375824,0.78948771,-0.78948771,1.8375824,2.8966,0.8598)"
       xlink:href="#arrow1" />
  </g>
  <path
     style="fill:none;stroke:#000000;stroke-width:0.48887679;stroke-linecap:round;stroke-linejoin:round"
     inkscape:connector-curvature="0"
     id="path286"
     d="m 108.19674,601.76632 -0.65021,-2.06551 -0.57687,-2.02639 -0.50354,-1.97751 -0.43022,-1.92862 -0.35688,-1.86751 -0.28843,-1.80884 -0.22,-1.74773 -0.15644,-1.68663 -0.0904,-1.62551 -0.0318,-1.57174 0.0293,-1.51797 0.0856,-1.47396 0.14177,-1.4373 0.19555,-1.40796 0.25177,-1.38597 0.31289,-1.37863 0.37154,-1.38108 0.43999,-1.40307 0.51577,-1.43975 0.60131,-1.50574 0.70643,-1.60351 0.84331,-1.75751 1.03153,-2.0044 1.32486,-2.43216 1.97506,-3.47103 5.49498,-9.43043 7.89536,-7.3796 6.30406,-5.95207 6.24052,-5.95208 6.66583,-6.41895 7.47004,-7.26226 2.35394,-1.01442 2.40772,-0.97531 2.45905,-0.9362 2.51283,-0.89465 2.56171,-0.85064 2.6106,-0.80909 2.65949,-0.76509 2.70594,-0.71865 2.75482,-0.67221 2.79882,-0.62576 2.84526,-0.57688 2.88926,-0.52798 2.93326,-0.4791 2.97482,-0.42777 3.01637,-0.37643" />
  <g
     style="fill:none;stroke:#000000;stroke-width:0.02;stroke-linecap:round;stroke-linejoin:round"
     id="arrows36"
     transform="matrix(24.44384,0,0,-24.44384,96.253479,528.19036)">
    <use
       height="100%"
       width="100%"
       y="0"
       x="0"
       id="use288"
       transform="matrix(0.50413872,1.9354183,-1.9354183,0.50413872,0.3972,-1.9025)"
       xlink:href="#arrow1" />
    <use
       height="100%"
       width="100%"
       y="0"
       x="0"
       id="use290"
       transform="matrix(1.9104535,0.59174955,-0.59174955,1.9104535,2.9087,0.7278)"
       xlink:href="#arrow1" />
  </g>
  <path
     style="fill:none;stroke:#000000;stroke-width:0.48887679;stroke-linecap:round;stroke-linejoin:round"
     inkscape:connector-curvature="0"
     id="path294"
     d="m 115.84033,601.76632 -0.75776,-1.9164 -0.68687,-1.89929 -0.61599,-1.87728 -0.54021,-1.85285 -0.46932,-1.82595 -0.39843,-1.79662 -0.32999,-1.76485 -0.26155,-1.73551 -0.19555,-1.70618 -0.12956,-1.67929 -0.0684,-1.65974 -0.005,-1.64262 0.0587,-1.63285 0.11977,-1.63285 0.18089,-1.64018 0.24932,-1.66463 0.31533,-1.70129 0.39354,-1.75751 0.47421,-1.84062 0.57444,-1.95551 0.68687,-2.12173 0.83109,-2.34905 1.01442,-2.66682 1.24663,-3.08726 1.47886,-3.49058 1.58151,-3.57369 9.55021,-8.97822 7.7047,-7.32582 7.88803,-7.58492 8.83155,-8.57979 2.18773,-0.69665 2.23661,-0.6551 2.28061,-0.60865 2.32461,-0.56221 2.36616,-0.51576 2.40528,-0.46688 2.44438,-0.41554 2.48105,-0.36666 2.51527,-0.31533 2.55194,-0.26399 2.58127,-0.20777 2.61304,-0.15644 2.64238,-0.10267 2.66927,-0.0464 2.69371,0.01 2.71816,0.066" />
  <g
     style="fill:none;stroke:#000000;stroke-width:0.02;stroke-linecap:round;stroke-linejoin:round"
     id="arrows37"
     transform="matrix(24.44384,0,0,-24.44384,96.253479,528.19036)">
    <use
       height="100%"
       width="100%"
       y="0"
       x="0"
       id="use296"
       transform="matrix(0.26036021,1.9829807,-1.9829807,0.26036021,0.6328,-1.9471)"
       xlink:href="#arrow1" />
    <use
       height="100%"
       width="100%"
       y="0"
       x="0"
       id="use298"
       transform="matrix(1.9664462,0.36481427,-0.36481427,1.9664462,2.9265,0.6035)"
       xlink:href="#arrow1" />
  </g>
  <path
     style="fill:none;stroke:#000000;stroke-width:0.48887679;stroke-linecap:round;stroke-linejoin:round"
     inkscape:connector-curvature="0"
     id="path302"
     d="m 124.70611,601.76632 -0.94598,-1.68418 -0.88242,-1.6964 -0.81642,-1.70374 -0.75288,-1.70618 -0.68931,-1.70618 -0.62087,-1.70862 -0.55732,-1.70374 -0.49377,-1.69885 -0.43021,-1.6964 -0.36421,-1.69396 -0.30555,-1.69151 -0.242,-1.69396 -0.18333,-1.6964 -0.12221,-1.70863 -0.0636,-1.72573 -0.002,-1.74774 0.0562,-1.78195 0.12222,-1.82596 0.18577,-1.88462 0.25666,-1.96039 0.33244,-2.05329 0.4131,-2.17061 0.50354,-2.30261 0.59887,-2.45416 0.69665,-2.59349 0.78954,-2.69127 0.85309,-2.70593 9.60154,-9.06622 7.55559,-7.20605 7.63626,-7.35515 8.4209,-8.18868 2.07284,-0.4351 2.11195,-0.38622 2.14616,-0.33488 2.18284,-0.2811 2.21461,-0.22977 2.24395,-0.17355 2.27327,-0.11734 2.29528,-0.0635 2.32216,-0.005 2.34172,0.0513 2.36128,0.10756 2.37838,0.16866 2.39306,0.22488 2.40527,0.28355 2.4175,0.34222 2.42483,0.40332 2.43216,0.45954" />
  <g
     style="fill:none;stroke:#000000;stroke-width:0.02;stroke-linecap:round;stroke-linejoin:round"
     id="arrows38"
     transform="matrix(24.44384,0,0,-24.44384,96.253479,528.19036)">
    <use
       height="100%"
       width="100%"
       y="0"
       x="0"
       id="use304"
       transform="matrix(-0.05793682,1.9991607,-1.9991607,-0.05793682,0.8598,-2.0002)"
       xlink:href="#arrow1" />
    <use
       height="100%"
       width="100%"
       y="0"
       x="0"
       id="use306"
       transform="matrix(1.9966635,0.11547654,-0.11547654,1.9966635,2.9503,0.4814)"
       xlink:href="#arrow1" />
  </g>
  <path
     style="fill:none;stroke:#000000;stroke-width:0.48887679;stroke-linecap:round;stroke-linejoin:round"
     inkscape:connector-curvature="0"
     id="path310"
     d="m 135.51517,601.76632 -1.21485,-1.35663 -1.16353,-1.39086 -1.1122,-1.42508 -1.05841,-1.45685 -1.00465,-1.48618 -0.94842,-1.50819 -0.88975,-1.53507 -0.83109,-1.55463 -0.77243,-1.57174 -0.71376,-1.59374 -0.65265,-1.6084 -0.59398,-1.62307 -0.53532,-1.64263 -0.47666,-1.65729 -0.41799,-1.67929 -0.36177,-1.69885 -0.30066,-1.72573 -0.24688,-1.75263 -0.18577,-1.78684 -0.132,-1.83085 -0.0709,-1.87484 -0.01,-1.93351 0.0513,-1.99217 0.11488,-2.0655 0.18333,-2.1364 0.24933,-2.20727 0.32021,-2.26839 0.38866,-2.3075 0.45221,-2.31728 9.62354,-9.12733 7.32093,-7.00071 7.35271,-7.09361 7.99313,-7.77558 2.0044,-0.20533 2.03373,-0.14666 2.06306,-0.0856 2.08506,-0.0269 2.1095,0.0342 2.12661,0.0978 2.14128,0.15889 2.15595,0.21999 2.16573,0.286 2.17305,0.3471 2.17795,0.41065 2.18039,0.47421 2.18039,0.53532 2.17795,0.59888 2.17061,0.65998 2.16328,0.72354 2.1535,0.7822 2.13884,0.84332" />
  <g
     style="fill:none;stroke:#000000;stroke-width:0.02;stroke-linecap:round;stroke-linejoin:round"
     id="arrows39"
     transform="matrix(24.44384,0,0,-24.44384,96.253479,528.19036)">
    <use
       height="100%"
       width="100%"
       y="0"
       x="0"
       id="use312"
       transform="matrix(-0.45602203,1.9473171,-1.9473171,-0.45602203,1.1048,-2.0855)"
       xlink:href="#arrow1" />
    <use
       height="100%"
       width="100%"
       y="0"
       x="0"
       id="use314"
       transform="matrix(1.9945004,-0.14821698,0.14821698,1.9945004,2.9799,0.3552)"
       xlink:href="#arrow1" />
  </g>
  <path
     style="fill:none;stroke:#000000;stroke-width:0.48887679;stroke-linecap:round;stroke-linejoin:round"
     inkscape:connector-curvature="0"
     id="path318"
     d="m 194.27328,591.88612 -0.85554,1.05353 -0.89464,1.01686 -0.9362,0.97531 -0.97531,0.9362 -1.01197,0.89464 -1.05109,0.85309 -1.08286,0.80665 -1.11953,0.76265 -1.1513,0.7162 -1.18309,0.66976 -1.21241,0.62332 -1.2393,0.57199 m -28.59196,0 -1.46908,-0.62088 -1.45196,-0.67953 -1.43241,-0.73821 -1.41041,-0.79442 -1.38352,-0.85065 -1.35664,-0.90442 -1.32485,-0.95575 -1.29064,-1.00954 -1.25641,-1.05597 -1.21975,-1.10486 -1.17575,-1.14886 -1.13663,-1.19286 -1.0902,-1.23686 -1.04375,-1.27352 -0.99731,-1.31264 -0.94842,-1.34685 -0.89709,-1.38352 -0.84576,-1.4153 -0.79442,-1.44708 -0.74309,-1.47885 -0.68932,-1.50818 -0.63799,-1.53997 -0.58176,-1.56929 -0.53043,-1.60352 -0.4791,-1.63529 -0.42288,-1.67196 -0.3691,-1.70862 -0.31777,-1.74774 -0.2591,-1.78929 -0.20533,-1.83328 -0.14911,-1.87974 -0.0904,-1.92373 -0.0318,-1.96284 0.0293,-1.9995 0.0905,-2.02395 0.15399,-2.03129 9.49154,-9.03688 7.11072,-6.81983 7.04227,-6.80273 7.54337,-7.34293 1.81129,0.0147 1.83084,0.0733 1.84551,0.132 1.85529,0.19066 1.86262,0.25177 1.86751,0.31044 1.87239,0.37155 1.86996,0.43021 1.86506,0.49132 1.86018,0.54754 1.85284,0.60865 1.84062,0.66487 1.82596,0.7211 1.81129,0.77976 1.78929,0.83353 1.76973,0.88976 1.74529,0.94109 1.72085,0.99486 1.69151,1.0462 1.65974,1.09508 1.62796,1.14397" />
  <g
     style="fill:none;stroke:#000000;stroke-width:0.02;stroke-linecap:round;stroke-linejoin:round"
     id="arrows40"
     transform="matrix(24.44384,0,0,-24.44384,96.253479,528.19036)">
    <use
       height="100%"
       width="100%"
       y="0"
       x="0"
       id="use320"
       transform="matrix(-1.5892532,-1.214197,1.214197,-1.5892532,3.7749,-2.8401)"
       xlink:href="#arrow1" />
    <use
       height="100%"
       width="100%"
       y="0"
       x="0"
       id="use322"
       transform="matrix(-1.0625014,1.6944293,-1.6944293,-1.0625014,1.4762,-2.3051)"
       xlink:href="#arrow1" />
    <use
       height="100%"
       width="100%"
       y="0"
       x="0"
       id="use324"
       transform="matrix(1.9515285,-0.43764901,0.43764901,1.9515285,2.9981,0.2213)"
       xlink:href="#arrow1" />
  </g>
  <path
     inkscape:connector-curvature="0"
     style="fill:none;stroke:#000000;stroke-width:0.48887679;stroke-linecap:round;stroke-linejoin:round"
     d="m 148.88351,589.00908 -1.31752,-0.6771 -1.29553,-0.73576 -1.27108,-0.79442 -1.24419,-0.85065 -1.21241,-0.90442 -1.18064,-0.9582 -1.14397,-1.01197 -1.10731,-1.06331 -1.06819,-1.10975 -1.02664,-1.15864 -0.98265,-1.20508 -0.94108,-1.24663 -0.8922,-1.29308 -0.84821,-1.33464 -0.79686,-1.37619 -0.75043,-1.41774 -0.69909,-1.45685 -0.65021,-1.49596 -0.59887,-1.53752 -0.54755,-1.57907 -0.49376,-1.61574 -0.43999,-1.65729 -0.38377,-1.69396 -0.32999,-1.73063 -0.27133,-1.76729 -0.21021,-1.79417 -0.15156,-1.81862 -0.0904,-1.83329 11.49594,-10.98995 9.00267,-8.68246 9.38887,-9.13221 1.67196,0.21021 1.67929,0.26889 1.6793,0.33243 1.67684,0.3911 1.67441,0.44977 1.66462,0.51088 1.65241,0.56954 1.63773,0.62576 1.62063,0.68443 1.60107,0.74065 1.57907,0.79442 1.55219,0.8482 1.52529,0.89954 1.49352,0.9533 1.4593,0.99976 1.42507,1.04864 1.38842,1.09508 1.34685,1.13909 1.3053,1.18063 1.26375,1.21975 1.21486,1.25886 1.16841,1.29552 1.11953,1.32975 1.0682,1.36152 1.01686,1.39085 0.96309,1.41775"
     id="path1781" />
  <path
     style="fill:none;stroke:#000000;stroke-width:0.48887679;stroke-linecap:round;stroke-linejoin:round"
     inkscape:connector-curvature="0"
     id="path340"
     d="m 143.18076,538.45188 7.17779,-6.54429 6.89698,-6.51996 1.54514,0.73038 1.32945,0.54021 1.40797,0.85016 1.38841,0.65509 1.35907,0.71132 1.32975,0.76753 1.29797,0.81887 1.2613,0.8702 1.22464,0.91665 1.18063,0.96553 1.13664,1.00709 1.0902,1.05108 1.04375,1.08775 0.98997,1.12442 0.93865,1.15864 0.88242,1.19041 0.82865,1.2173 0.76998,1.24175 0.71131,1.26619 0.65021,1.2833 0.59154,1.30042 0.52799,1.31263 0.46443,1.32241 0.40332,1.33219 0.33977,1.33463 0.27622,1.33464 0.21266,1.33463 0.14911,1.32975 0.088,1.32241 0.0244,1.31263 -0.0391,1.30042 -0.0978,1.28574 -0.16133,1.26619 -0.21755,1.24664 -0.27866,1.22219 -0.33488,1.19775 -0.3911,1.17086 -0.44732,1.14153 -0.5011,1.10975 -0.55487,1.07552 -0.60377,1.03887 -0.65509,1.00464 -0.70154,0.96064 -0.75043,0.92398 -0.79198,0.87753 -0.83842,0.83598 -0.87998,0.78709 -0.91909,0.7431 -0.95575,0.69176 -0.99242,0.64043 -1.02664,0.58909 -1.06086,0.53777 -1.08776,0.48154 -1.11708,0.42777 -1.14397,0.3691 -1.16597,0.31288 -1.18797,0.25422 -1.20508,0.1931 -1.22464,0.13445 -1.23686,0.0733 -1.24663,0.01 -1.25642,-0.0513 -1.2613,-0.11244 -1.26619,-0.17844 -1.26375,-0.2371 -1.26374,-0.30311 -1.25642,-0.36421 -1.24663,-0.42777 -1.23686,-0.48888 -1.22219,-0.54998 -1.20753,-0.6111 -1.18308,-0.66976 -1.16353,-0.73087 -1.13908,-0.78709 -1.10975,-0.84331 -1.08042,-0.89709 -1.04619,-0.95331 -1.01198,-1.00709 -0.97775,-1.05597 -0.9362,-1.10731 -0.89954,-1.15619 -0.85553,-1.20264 -0.81154,-1.24908 -0.76753,-1.29552 -0.7211,-1.33953 -0.6722,-1.38107 -0.62576,-1.42263 -0.57199,-1.46419 -0.52065,-1.50085 -0.46932,-1.53507 -0.41066,-1.56686 -0.35444,-1.59373 -0.29577,-1.61819 8.38424,-8.03469 6.01807,-5.79319"
     sodipodi:nodetypes="cccccccccccccccccccccccccccccccccccccccccccccccccccccccccccccccccccccccccccccccccccccccccccccccccc" />
  <use
     style="fill:none;stroke:#000000;stroke-width:0.02;stroke-linecap:round;stroke-linejoin:round"
     xlink:href="#arrow1"
     transform="matrix(14.529821,46.678578,46.678578,-14.529821,181.25449,548.9774)"
     id="use342"
     x="0"
     y="0"
     width="100%"
     height="100%" />
  <use
     style="fill:none;stroke:#000000;stroke-width:0.02;stroke-linecap:round;stroke-linejoin:round"
     xlink:href="#arrow1"
     transform="matrix(-43.261018,-22.770365,-22.770365,43.261018,146.95978,578.92844)"
     id="use344"
     x="0"
     y="0"
     width="100%"
     height="100%" />
  <path
     style="fill:none;stroke:#000000;stroke-width:0.48887679;stroke-linecap:round;stroke-linejoin:round"
     sodipodi:nodetypes="ccccccccccccccccccccccccccccccccccccccccccccccccccccccccccccccccccccccccccccccccccccc"
     inkscape:connector-curvature="0"
     id="path348"
     d="m 144.08235,539.86826 6.96718,-6.37446 6.30622,-5.93898 1.27596,0.59887 1.24908,0.6551 1.21975,0.70887 1.18553,0.7602 1.14886,0.8091 1.10975,0.85553 1.06575,0.89953 1.02175,0.94353 0.97287,0.9802 0.92398,1.01931 0.87264,1.05109 0.81887,1.08286 0.7602,1.10975 0.70643,1.13419 0.64532,1.1562 0.58665,1.1733 0.52554,1.19042 0.46443,1.20019 0.40333,1.20997 0.33977,1.21486 0.27621,1.2173 0.21511,1.2173 0.15155,1.21242 0.088,1.20508 0.0269,1.19775 -0.0342,1.18308 -0.0929,1.16842 -0.154,1.14886 -0.21266,1.1293 -0.27133,1.10486 -0.32754,1.07798 -0.38133,1.05108 -0.43754,1.02175 -0.48888,0.98753 -0.54021,0.95331 -0.58665,0.9142 -0.63798,0.87754 -0.68199,0.83598 -0.72842,0.79198 -0.76998,0.75042 -0.8091,0.70154 -0.8482,0.65754 -0.88486,0.60621 -0.92154,0.55487 -0.95331,0.50355 -0.98264,0.44976 -1.01197,0.39599 -1.03642,0.33977 -1.06087,0.28111 -1.08041,0.22488 -1.09998,0.16622 -1.11708,0.10511 -1.12931,0.044 -1.13908,-0.0147 -1.14886,-0.0782 -1.1513,-0.14178 -1.1562,-0.20043 -1.1513,-0.26644 -1.15131,-0.32755 -1.14152,-0.38866 -1.1342,-0.44976 -1.11953,-0.51332 -1.1073,-0.57443 -1.08531,-0.6331 -1.06575,-0.69176 -1.04131,-0.75043 -1.01686,-0.80664 -0.98753,-0.86287 -0.95576,-0.91909 -0.92153,-0.97042 -0.88487,-1.02175 -0.8482,-1.07309 -0.80909,-1.12197 -0.76509,-1.16841 -0.72109,-1.21486 -0.6771,-1.25642 -0.62576,-1.29796 -0.57688,-1.33464 -0.52554,-1.36885 -0.46932,-1.39819 7.7707,-7.47004 5.46007,-5.20057" />
  <g
     style="fill:none;stroke:#000000;stroke-width:0.02;stroke-linecap:round;stroke-linejoin:round"
     id="arrows43"
     transform="matrix(24.44384,0,0,-24.44384,96.253479,528.19036)">
    <use
       height="100%"
       width="100%"
       y="0"
       x="0"
       id="use350"
       transform="matrix(0.56468291,-1.9186279,1.9186279,0.56468291,3.1932,-0.7343)"
       xlink:href="#arrow1" />
    <use
       height="100%"
       width="100%"
       y="0"
       x="0"
       id="use352"
       transform="matrix(-1.7995727,0.87266144,-0.87266144,-1.7995727,2.044,-1.7581)"
       xlink:href="#arrow1" />
  </g>
  <path
     style="fill:none;stroke:#000000;stroke-width:0.48887679;stroke-linecap:round;stroke-linejoin:round"
     sodipodi:nodetypes="ccccccccccccccccccccccccccccccccccccccccccccccccccccccccccccccccccccccc"
     inkscape:connector-curvature="0"
     id="path356"
     d="m 145.43038,540.70883 6.01973,-5.54464 5.88119,-5.73453 1.09753,0.71621 1.05842,0.76753 1.01931,0.81154 0.97042,0.85553 0.92642,0.89709 0.87264,0.93376 0.82376,0.97042 0.76509,0.99975 0.71132,1.02664 0.65265,1.05353 0.59154,1.07309 0.53288,1.09019 0.46932,1.10486 0.40577,1.11709 0.34465,1.12197 0.28111,1.12442 0.2151,1.12686 0.154,1.12197 0.088,1.11708 0.0269,1.10486 -0.0342,1.09264 -0.0978,1.07553 -0.15644,1.05842 -0.21755,1.03398 -0.27377,1.00953 -0.32999,0.98264 -0.38622,0.95086 -0.43999,0.91909 -0.49132,0.88487 -0.54265,0.84576 -0.5891,0.80664 -0.63798,0.76754 -0.67954,0.72109 -0.72354,0.6771 -0.76509,0.63065 -0.80176,0.57932 -0.83842,0.53043 -0.87265,0.4791 -0.90442,0.42288 -0.93375,0.3691 -0.9582,0.31288 -0.98509,0.25421 -1.00464,0.19556 -1.0242,0.13688 -1.03886,0.0733 -1.05109,0.0147 -1.0633,-0.0489 -1.07064,-0.11244 -1.07309,-0.176 -1.07308,-0.23955 -1.07309,-0.30066 -1.06575,-0.36665 -1.05842,-0.42777 -1.04375,-0.49377 -1.03153,-0.55243 -1.01197,-0.61598 -0.99242,-0.67465 -0.96553,-0.73576 -0.94109,-0.79198 -0.90931,-0.8482 -0.87754,-0.90442 -0.84331,-0.9582 -0.8042,-1.00709 -0.76265,-1.05842 -0.71865,-1.10486 -0.67465,-1.14886 -0.62332,-1.18797 12.55954,-11.92097" />
  <g
     style="fill:none;stroke:#000000;stroke-width:0.02;stroke-linecap:round;stroke-linejoin:round"
     id="arrows44"
     transform="matrix(24.44384,0,0,-24.44384,96.253479,528.19036)">
    <use
       height="100%"
       width="100%"
       y="0"
       x="0"
       id="use358"
       transform="matrix(0.49332149,-1.9382038,1.9382038,0.49332149,2.9594,-0.6517)"
       xlink:href="#arrow1" />
    <use
       height="100%"
       width="100%"
       y="0"
       x="0"
       id="use360"
       transform="matrix(-1.8367547,0.79141159,-0.79141159,-1.8367547,2.0174,-1.5017)"
       xlink:href="#arrow1" />
  </g>
  <path
     style="fill:none;stroke:#000000;stroke-width:0.48887679;stroke-linecap:round;stroke-linejoin:round"
     sodipodi:nodetypes="ccccccccccccccccccccccccccccccccccccccccccccccccccccccccccc"
     inkscape:connector-curvature="0"
     id="path364"
     d="m 146.46328,541.68903 10.66758,-10.1352 0.86776,0.80176 0.82131,0.83842 0.76998,0.87265 0.71621,0.90442 0.66243,0.93131 0.60376,0.95576 0.54754,0.97775 0.48888,0.99242 0.42532,1.00709 0.36666,1.01686 0.3031,1.02175 0.242,1.0242 0.18088,1.0242 0.11733,1.0193 0.0562,1.01198 -0.005,0.99975 -0.0636,0.98509 -0.12467,0.96553 -0.18088,0.94842 -0.23711,0.92153 -0.29332,0.89709 -0.34955,0.86531 -0.39843,0.83598 -0.44977,0.79932 -0.49865,0.76509 -0.54755,0.72598 -0.58909,0.68443 -0.63554,0.64287 -0.67221,0.59643 -0.71376,0.54999 -0.75042,0.50354 -0.78221,0.45221 -0.81642,0.39844 -0.84331,0.3471 -0.87265,0.29333 -0.89464,0.2371 -0.91665,0.17844 -0.9362,0.12222 -0.95086,0.0611 h -0.96553 l -0.97531,-0.0587 -0.9802,-0.12221 -0.98509,-0.18089 -0.98508,-0.24688 -0.98265,-0.30555 -0.97531,-0.3691 -0.96797,-0.43021 -0.95331,-0.49132 -0.93864,-0.55244 -0.91909,-0.61109 -0.89709,-0.66976 -0.8702,-0.72598 -0.84087,-0.78221 -0.81154,-0.83598 -0.77487,-0.88731 -0.73576,-0.93375 11.35339,-10.88377" />
  <g
     style="fill:none;stroke:#000000;stroke-width:0.02;stroke-linecap:round;stroke-linejoin:round"
     id="arrows45"
     transform="matrix(24.44384,0,0,-24.44384,96.253479,528.19036)">
    <use
       height="100%"
       width="100%"
       y="0"
       x="0"
       id="use366"
       transform="matrix(-1.5087319,-1.3129082,1.3129082,-1.5087319,2.5974,-1.1835)"
       xlink:href="#arrow1" />
  </g>
  <path
     style="fill:none;stroke:#000000;stroke-width:0.48887679;stroke-linecap:round;stroke-linejoin:round"
     inkscape:connector-curvature="0"
     id="path370"
     d="m 147.57577,542.84933 9.08577,-8.84622 0.62332,0.87264 0.56221,0.89709 0.50598,0.91664 0.44244,0.93376 0.38132,0.94597 0.31777,0.95576 0.25422,0.9582 0.19066,0.9582 0.12711,0.95575 0.066,0.94598 0.002,0.9362 -0.0587,0.92153 -0.11734,0.90198 -0.17844,0.88242 -0.23466,0.85553 -0.29332,0.82865 -0.34466,0.79931 -0.39844,0.76265 -0.44976,0.72843 -0.49621,0.68931 -0.5451,0.65021 -0.58665,0.60376 -0.63065,0.55977 -0.66976,0.51332 -0.70643,0.46199 -0.74065,0.4131 -0.77487,0.35932 -0.80176,0.3031 -0.83109,0.24689 -0.85309,0.19066 -0.87264,0.132 -0.8922,0.0709 -0.90442,0.01 -0.91909,-0.0538 -0.92398,-0.11488 -0.92887,-0.17844 -0.92886,-0.242 -0.92642,-0.30554 -0.91909,-0.36666 -0.90931,-0.43266 -0.89465,-0.49376 -0.87509,-0.55488 -0.85553,-0.61598 -0.83109,-0.67221 9.6602,-9.35955" />
  <g
     style="fill:none;stroke:#000000;stroke-width:0.02;stroke-linecap:round;stroke-linejoin:round"
     id="arrows46"
     transform="matrix(24.44384,0,0,-24.44384,96.253479,528.19036)">
    <use
       height="100%"
       width="100%"
       y="0"
       x="0"
       id="use372"
       transform="matrix(-1.513762,-1.3071054,1.3071054,-1.513762,2.4534,-1.0171)"
       xlink:href="#arrow1" />
  </g>
  <path
     style="fill:none;stroke:#000000;stroke-width:0.48887679;stroke-linecap:round;stroke-linejoin:round"
     inkscape:connector-curvature="0"
     id="path376"
     d="m 148.61218,543.88575 7.13272,-6.94938 0.31532,0.88975 0.25177,0.89709 0.18822,0.89465 0.12222,0.89464 0.0611,0.88487 -0.005,0.87264 -0.0635,0.85798 -0.12467,0.83842 -0.18577,0.81643 -0.24199,0.78953 -0.29822,0.76021 -0.35199,0.72842 -0.40332,0.69177 -0.45466,0.65265 -0.5011,0.61354 -0.54754,0.56954 -0.5891,0.52554 -0.6282,0.47665 -0.66732,0.42777 -0.70154,0.37399 -0.73331,0.32022 -0.76265,0.26644 -0.78954,0.20777 -0.81153,0.14911 -0.83109,0.088 -0.84576,0.0269 -0.86042,-0.0342 -0.8702,-0.0978 -0.87265,-0.16377 -0.87509,-0.22488 -0.87264,-0.29088 -0.86531,-0.35444 7.65336,-7.43093" />
  <g
     style="fill:none;stroke:#000000;stroke-width:0.02;stroke-linecap:round;stroke-linejoin:round"
     id="arrows47"
     transform="matrix(24.44384,0,0,-24.44384,96.253479,528.19036)">
    <use
       height="100%"
       width="100%"
       y="0"
       x="0"
       id="use378"
       transform="matrix(-1.5203584,-1.2994269,1.2994269,-1.5203584,2.3329,-0.8821)"
       xlink:href="#arrow1" />
  </g>
  <path
     style="fill:none;stroke:#000000;stroke-width:0.48887679;stroke-linecap:round;stroke-linejoin:round"
     inkscape:connector-curvature="0"
     id="path382"
     d="m 149.66816,544.93928 4.11145,-4.00635 -0.0929,0.77243 -0.14911,0.75043 -0.20289,0.72598 -0.25666,0.70154 -0.31043,0.66976 -0.35688,0.63554 -0.40822,0.60376 -0.45221,0.56221 -0.49376,0.5231 -0.53777,0.47665 -0.57443,0.4351 -0.60865,0.38621 -0.64532,0.33733 -0.67465,0.28599 -0.69909,0.23222 -0.72598,0.17844 -0.74798,0.12222 -0.7651,0.0635 4.58567,-4.461 z" />
  <g
     style="fill:none;stroke:#000000;stroke-width:0.02;stroke-linecap:round;stroke-linejoin:round"
     id="arrows48"
     transform="matrix(24.44384,0,0,-24.44384,96.253479,528.19036)">
    <use
       height="100%"
       width="100%"
       y="0"
       x="0"
       id="use384"
       transform="matrix(-1.5307418,-1.2871789,1.2871789,-1.5307418,2.2317,-0.7717)"
       xlink:href="#arrow1" />
  </g>
  <path
     style="opacity:1;vector-effect:none;fill:none;fill-opacity:1;stroke:#000000;stroke-width:0.48887679;stroke-linecap:butt;stroke-linejoin:miter;stroke-miterlimit:4;stroke-dasharray:none;stroke-dashoffset:0;stroke-opacity:1"
     d="m 148.70214,588.90941 c 25.80288,14.00221 45.21284,-13.09364 45.21284,-13.09364"
     id="path1783"
     inkscape:connector-curvature="0"
     sodipodi:nodetypes="cc" />
  <path
     style="opacity:1;vector-effect:none;fill:none;fill-opacity:1;stroke:#000000;stroke-width:0.48887679;stroke-linecap:butt;stroke-linejoin:miter;stroke-miterlimit:4;stroke-dasharray:none;stroke-dashoffset:0;stroke-opacity:1"
     d="m 130.75545,503.73987 c -13.58083,-17.74563 -16.84023,-21.36718 -18.37939,-25.07928 -2.08644,-5.03199 -5.97557,-23.90227 -5.97557,-23.90227"
     id="path1852"
     inkscape:connector-curvature="0"
     sodipodi:nodetypes="csc" />
  <path
     style="opacity:1;vector-effect:none;fill:none;fill-opacity:1;stroke:#000000;stroke-width:0.48887679;stroke-linecap:butt;stroke-linejoin:miter;stroke-miterlimit:4;stroke-dasharray:none;stroke-dashoffset:0;stroke-opacity:1"
     d="m 133.2,503.28717 c -10.86467,-18.56047 -13.06621,-19.89006 -16.93077,-30.23999 -4.3804,-11.73143 -5.3418,-18.28886 -5.3418,-18.28886"
     id="path1854"
     inkscape:connector-curvature="0"
     sodipodi:nodetypes="csc" />
  <path
     style="opacity:1;vector-effect:none;fill:none;fill-opacity:1;stroke:#000000;stroke-width:0.48887679;stroke-linecap:butt;stroke-linejoin:miter;stroke-miterlimit:4;stroke-dasharray:none;stroke-dashoffset:0;stroke-opacity:1"
     d="m 127.76767,504.10202 c -8.69174,-10.68359 -15.03231,-10.29005 -18.10778,-19.46586 -3.69103,-11.01236 -6.9715,-29.96838 -6.9715,-29.96838"
     id="path1856"
     inkscape:connector-curvature="0"
     sodipodi:nodetypes="csc" />
  <path
     style="opacity:1;vector-effect:none;fill:none;fill-opacity:1;stroke:#000000;stroke-width:0.48887679;stroke-linecap:butt;stroke-linejoin:miter;stroke-miterlimit:4;stroke-dasharray:none;stroke-dashoffset:0;stroke-opacity:1"
     d="m 125.41366,504.37364 c -10.2309,-7.33365 -19.818,-12.58686 -20.91449,-18.19832 -1.53916,-7.87688 -0.59574,-9.84932 -2.8067,-19.91856 -1.87034,-8.51796 -2.625632,-11.49844 -2.625632,-11.49844"
     id="path1858"
     inkscape:connector-curvature="0"
     sodipodi:nodetypes="cssc" />
  <use
     style="fill:none;stroke:#000000;stroke-width:0.02;stroke-linecap:round;stroke-linejoin:round"
     xlink:href="#arrow1"
     transform="matrix(-41.088729,-26.490029,-26.490029,41.088729,113.85537,496.4275)"
     id="use162-9"
     x="0"
     y="0"
     width="100%"
     height="100%" />
  <use
     style="fill:none;stroke:#000000;stroke-width:0.02;stroke-linecap:round;stroke-linejoin:round"
     xlink:href="#arrow1"
     transform="matrix(-28.235872,-39.909157,-39.909157,28.235872,125.98824,491.56794)"
     id="use162-9-1"
     x="0"
     y="0"
     width="100%"
     height="100%" />
  <path
     style="opacity:1;vector-effect:none;fill:none;fill-opacity:1;stroke:#000000;stroke-width:0.48887679;stroke-linecap:butt;stroke-linejoin:miter;stroke-miterlimit:4;stroke-dasharray:none;stroke-dashoffset:0;stroke-opacity:1"
     d="m 135.19186,503.64933 c -8.87281,-21.6388 -13.04509,-30.3824 -14.39569,-34.58586 -2.81131,-8.74966 -3.97432,-14.43778 -3.89317,-14.21461"
     id="path1933"
     inkscape:connector-curvature="0"
     sodipodi:nodetypes="csc" />
  <path
     style="fill:none;stroke:#000000;stroke-width:0.48887679;stroke-linecap:round;stroke-linejoin:round"
     d="m 82.746434,537.00418 -2.913706,2.60815 -3.27303,2.99437 -3.73013,3.48081 -5.819883,5.69502"
     id="path1807-8-1"
     inkscape:connector-curvature="0"
     sodipodi:nodetypes="ccccc" />
  <g
     style="fill:none;stroke:#000000;stroke-width:0.02;stroke-linecap:round;stroke-linejoin:round"
     id="fieldline17-2-6"
     transform="matrix(-24.44384,0,0,24.44384,96.339509,528.23072)">
    <path
       d="M 0.8172,0.6826 0.921,0.7785 1.0347,0.8852 1.0034,0.8868 0.9729,0.8861 0.9434,0.8831 0.9149,0.878 0.8876,0.8707 0.8617,0.8615 0.8371,0.8502 0.8139,0.8372 0.7922,0.8223 0.772,0.8056 0.7533,0.7872 0.7362,0.7671 0.7206,0.7453 0.7068,0.7218 0.6947,0.6967 0.6844,0.6699 0.676,0.6415 0.6696,0.6115 0.6652,0.5801 0.6631,0.5473 0.7366,0.6135 0.815,0.685"
       id="path136-8-4"
       inkscape:connector-curvature="0" />
    <g
       id="arrows17-9-8">
      <use
         xlink:href="#arrow1"
         transform="matrix(-1.6124763,-1.1831822,1.1831822,-1.6124763,0.8073,0.8305)"
         id="use138-3-0"
         x="0"
         y="0"
         width="100%"
         height="100%" />
    </g>
  </g>
  <path
     style="opacity:1;vector-effect:none;fill:none;fill-opacity:1;stroke:#000000;stroke-width:0.48887679;stroke-linecap:butt;stroke-linejoin:miter;stroke-miterlimit:4;stroke-dasharray:none;stroke-dashoffset:0;stroke-opacity:1"
     d="m 61.837535,552.68121 c 13.580836,17.74562 16.840234,21.36719 18.379396,25.07928 2.086439,5.03199 5.975568,23.90226 5.975568,23.90226"
     id="path1852-9-0"
     inkscape:connector-curvature="0"
     sodipodi:nodetypes="csc" />
  <path
     style="opacity:1;vector-effect:none;fill:none;fill-opacity:1;stroke:#000000;stroke-width:0.48887679;stroke-linecap:butt;stroke-linejoin:miter;stroke-miterlimit:4;stroke-dasharray:none;stroke-dashoffset:0;stroke-opacity:1"
     d="m 58.904108,553.13391 c 10.864668,18.56048 13.06621,19.89005 16.930774,30.23999 4.380402,11.73143 5.341795,18.28885 5.341795,18.28885"
     id="path1854-4-2"
     inkscape:connector-curvature="0"
     sodipodi:nodetypes="csc" />
  <path
     style="opacity:1;vector-effect:none;fill:none;fill-opacity:1;stroke:#000000;stroke-width:0.48887679;stroke-linecap:butt;stroke-linejoin:miter;stroke-miterlimit:4;stroke-dasharray:none;stroke-dashoffset:0;stroke-opacity:1"
     d="m 64.825318,552.31905 c 8.691735,10.6836 15.032306,10.29005 18.107781,19.46588 3.691032,11.01234 6.971496,29.96836 6.971496,29.96836"
     id="path1856-3-2"
     inkscape:connector-curvature="0"
     sodipodi:nodetypes="csc" />
  <path
     style="opacity:1;vector-effect:none;fill:none;fill-opacity:1;stroke:#000000;stroke-width:0.48887679;stroke-linecap:butt;stroke-linejoin:miter;stroke-miterlimit:4;stroke-dasharray:none;stroke-dashoffset:0;stroke-opacity:1"
     d="m 67.17933,552.04743 c 10.230896,7.33367 19.817995,12.58687 20.914487,18.19832 1.53916,7.87689 0.595745,9.84933 2.806705,19.91856 1.870335,8.51796 2.625628,11.49844 2.625628,11.49844"
     id="path1858-5-9"
     inkscape:connector-curvature="0"
     sodipodi:nodetypes="cssc" />
  <path
     style="opacity:1;vector-effect:none;fill:none;fill-opacity:1;stroke:#000000;stroke-width:0.48887679;stroke-linecap:butt;stroke-linejoin:miter;stroke-miterlimit:4;stroke-dasharray:none;stroke-dashoffset:0;stroke-opacity:1"
     d="m 57.401129,552.77175 c 8.872811,21.63879 13.045091,30.3824 14.395684,34.58586 2.811311,8.74966 3.974327,14.43778 3.893173,14.21461"
     id="path1933-3-6"
     inkscape:connector-curvature="0"
     sodipodi:nodetypes="csc" />
  <path
     style="opacity:1;vector-effect:none;fill:none;fill-opacity:1;stroke:#000000;stroke-width:0.48887679;stroke-linecap:butt;stroke-linejoin:miter;stroke-miterlimit:4;stroke-dasharray:none;stroke-dashoffset:0;stroke-opacity:1"
     d="M 58.96948,552.4865 83.564002,529.81663"
     id="path4138"
     inkscape:connector-curvature="0"
     sodipodi:nodetypes="cc" />
  <path
     style="opacity:1;vector-effect:none;fill:none;fill-opacity:1;stroke:#000000;stroke-width:0.48887679;stroke-linecap:butt;stroke-linejoin:miter;stroke-miterlimit:4;stroke-dasharray:none;stroke-dashoffset:0;stroke-opacity:1"
     d="M 61.944425,552.80638 83.828237,531.43576"
     id="path4142"
     inkscape:connector-curvature="0"
     sodipodi:nodetypes="cc" />
  <path
     style="opacity:1;vector-effect:none;fill:none;fill-opacity:1;stroke:#000000;stroke-width:0.48887679;stroke-linecap:butt;stroke-linejoin:miter;stroke-miterlimit:4;stroke-dasharray:none;stroke-dashoffset:0;stroke-opacity:1"
     d="M 64.970233,552.35251 83.28048,533.95403"
     id="path4144"
     inkscape:connector-curvature="0"
     sodipodi:nodetypes="cc" />
  <path
     inkscape:connector-curvature="0"
     style="fill:none;stroke:#000000;stroke-width:0.48887679;stroke-linecap:round;stroke-linejoin:round"
     d="m 166.98294,454.24702 -3.12637,7.24516 -2.94304,6.9616 -2.97482,7.19627 -3.71546,9.16399 -3.91835,9.6871 -2.0875,5.03787 -1.68418,3.92324 -1.49841,3.3537 -6.69028,6.47272 -5.70519,5.45587 -5.01587,4.72988 -4.53678,4.20923 -4.21901,3.84991 -4.05767,3.63724 -4.11635,3.61769 -1.50574,0.33243 -1.43241,0.25422 -1.36396,0.18088 -1.29797,0.11 -1.23686,0.044 -1.18553,-0.0171 -1.13663,-0.0782 -1.09509,-0.13689 -1.060861,-0.19555 -1.029085,-0.25177 -1.011975,-0.31043 -0.999754,-0.374 -0.997308,-0.43754"
     id="path4565" />
  <path
     inkscape:connector-curvature="0"
     style="fill:none;stroke:#000000;stroke-width:0.48887679;stroke-linecap:round;stroke-linejoin:round"
     d="m 156.47778,454.33655 -1.83084,7.5556 -1.75263,7.45292 -2.12417,9.30822 -2.14372,9.4231 -1.18064,4.99876 -0.96798,3.88902 -0.87997,3.33414 -0.83354,2.9577 -0.80909,2.68149 -6.64628,6.4214 -5.66364,5.40453 -4.9401,4.64189 -4.43167,4.0919 -4.07478,3.6959 -3.86458,3.42948 -3.80101,3.30236 -1.44463,0.11733 -1.38352,0.0538 -1.32731,-0.007 -1.27841,-0.0684 -1.23197,-0.12466 -1.19286,-0.17844 -1.16108,-0.23711 -1.13908,-0.29333 -1.129308,-0.35199 -1.126861,-0.41799 -1.14886,-0.48887 -1.197748,-0.57932 -1.297968,-0.6991"
     id="path4561" />
  <path
     inkscape:connector-curvature="0"
     style="fill:none;stroke:#000000;stroke-width:0.48887679;stroke-linecap:round;stroke-linejoin:round"
     d="m 84.366007,527.67785 -2.740155,2.31483 -2.95526,2.5715 -3.236364,2.88437 -3.595689,3.27792 -4.062566,3.77657 -4.680996,4.42923 -5.531641,5.3092"
     id="path1937-9" />
  <path
     style="fill:none;stroke:#000000;stroke-width:0.48887679;stroke-linecap:round;stroke-linejoin:round"
     inkscape:connector-curvature="0"
     id="path310-7"
     d="m 58.097292,455.16211 1.214859,1.35664 1.163527,1.39085 1.112195,1.42508 1.058418,1.45685 1.004642,1.48618 0.948421,1.50819 0.889756,1.53507 0.83109,1.55463 0.772426,1.57174 0.71376,1.59374 0.65265,1.6084 0.593986,1.62307 0.53532,1.64263 0.476654,1.65729 0.41799,1.67929 0.361769,1.69885 0.300659,1.72574 0.246883,1.75262 0.185773,1.78684 0.131997,1.83085 0.07089,1.87484 0.0098,1.93351 -0.05133,1.99217 -0.114887,2.0655 -0.183328,2.1364 -0.249327,2.20728 -0.320215,2.26838 -0.388657,2.3075 -0.452211,2.31728 -9.62354,9.12733 -7.32093,7.00071 -7.352707,7.09361 -7.993136,7.77558 -2.004394,0.20533 -2.033728,0.14666 -2.06306,0.0856 -2.08506,0.0269 -2.109503,-0.0342 -2.126614,-0.0978 -2.14128,-0.15889 -2.155948,-0.21999 -2.165724,-0.28599 -2.173057,-0.34711 -2.177945,-0.41065 -2.180391,-0.47421 -2.18039,-0.53532 -2.1779465,-0.59888 -2.170613,-0.65998 -2.1632799,-0.72354 -2.1535023,-0.7822 -2.13883598,-0.84332" />
  <use
     style="fill:none;stroke:#000000;stroke-width:0.02;stroke-linecap:round;stroke-linejoin:round"
     xlink:href="#arrow1"
     transform="matrix(11.14693,47.599908,47.599908,-11.14693,70.353434,477.76044)"
     id="use312-9"
     x="0"
     y="0"
     width="100%"
     height="100%" />
  <use
     style="fill:none;stroke:#000000;stroke-width:0.02;stroke-linecap:round;stroke-linejoin:round"
     xlink:href="#arrow1"
     transform="matrix(-48.753249,-3.6229921,-3.6229921,48.753249,24.518789,537.42052)"
     id="use314-1"
     x="0"
     y="0"
     width="100%"
     height="100%" />
  <path
     style="fill:none;stroke:#000000;stroke-width:0.48887679;stroke-linecap:round;stroke-linejoin:round"
     inkscape:connector-curvature="0"
     id="path318-7"
     d="m -0.66080968,465.04231 0.8555344,-1.05353 0.89464458,-1.01686 0.936199,-0.97531 0.9753093,-0.9362 1.0119749,-0.89464 1.0510851,-0.85309 1.0828622,-0.80665 1.1195278,-0.76265 1.1513049,-0.7162 1.1830819,-0.66976 1.2124146,-0.62332 1.239303,-0.57199 m 28.591959,0 1.469074,0.62088 1.451965,0.67953 1.432409,0.73821 1.410409,0.79442 1.383521,0.85065 1.356634,0.90442 1.324856,0.95576 1.290634,1.00953 1.256414,1.05597 1.219747,1.10486 1.175749,1.14886 1.136639,1.19286 1.090195,1.23686 1.043752,1.27352 0.997309,1.31264 0.948421,1.34685 0.897089,1.38352 0.845756,1.4153 0.794425,1.44708 0.743093,1.47885 0.689316,1.50819 0.637984,1.53996 0.581764,1.56929 0.530431,1.60352 0.479099,1.63529 0.422879,1.67196 0.369102,1.70862 0.31777,1.74774 0.259104,1.78929 0.205329,1.83329 0.149107,1.87973 0.09044,1.92373 0.03178,1.96284 -0.02933,1.9995 -0.09044,2.02395 -0.153997,2.03129 -9.491543,9.03688 -7.110713,6.81984 -7.04227,6.80272 -7.543369,7.34293 -1.811289,-0.0147 -1.830843,-0.0733 -1.84551,-0.132 -1.855288,-0.19066 -1.86262,-0.25177 -1.86751,-0.31044 -1.872398,-0.37155 -1.869954,-0.43021 -1.865065,-0.49132 -1.860176,-0.54754 -1.852843,-0.60865 -1.840621,-0.66487 -1.825954,-0.7211 -1.811289,-0.77976 -1.7892889,-0.83353 -1.7697341,-0.88976 -1.7452901,-0.94108 -1.7208464,-0.99487 -1.6915137,-1.0462 -1.65973674,-1.09508 -1.62795974,-1.14397" />
  <use
     style="fill:none;stroke:#000000;stroke-width:0.02;stroke-linecap:round;stroke-linejoin:round"
     xlink:href="#arrow1"
     transform="matrix(-38.847451,29.679637,29.679637,38.847451,4.9144264,459.2132)"
     id="use320-6"
     x="0"
     y="0"
     width="100%"
     height="100%" />
  <use
     style="fill:none;stroke:#000000;stroke-width:0.02;stroke-linecap:round;stroke-linejoin:round"
     xlink:href="#arrow1"
     transform="matrix(-25.971614,-41.418359,-41.418359,25.971614,60.758625,472.22035)"
     id="use322-08"
     x="0"
     y="0"
     width="100%"
     height="100%" />
  <use
     style="fill:none;stroke:#000000;stroke-width:0.02;stroke-linecap:round;stroke-linejoin:round"
     xlink:href="#arrow1"
     transform="matrix(-47.70285,-10.697822,-10.697822,47.70285,24.073912,534.14749)"
     id="use324-5"
     x="0"
     y="0"
     width="100%"
     height="100%" />
  <path
     inkscape:connector-curvature="0"
     style="fill:none;stroke:#000000;stroke-width:0.48887679;stroke-linecap:round;stroke-linejoin:round"
     d="m 44.728956,467.91935 1.317523,0.6771 1.295524,0.73576 1.27108,0.79442 1.244191,0.85065 1.212414,0.90442 1.180638,0.9582 1.143972,1.01197 1.107306,1.06331 1.068195,1.10975 1.026642,1.15864 0.982642,1.20508 0.941088,1.24663 0.8922,1.29308 0.848201,1.33464 0.796869,1.37619 0.750426,1.41774 0.699094,1.45685 0.650206,1.49596 0.598874,1.53752 0.547542,1.57907 0.493766,1.61574 0.439989,1.65729 0.383768,1.69396 0.329992,1.73063 0.271327,1.76729 0.210217,1.79417 0.151552,1.81863 0.09044,1.83328 -11.495938,10.98995 -9.002666,8.68246 -9.388879,9.13221 -1.671959,-0.21021 -1.679292,-0.26888 -1.679292,-0.33244 -1.676847,-0.3911 -1.674403,-0.44977 -1.664626,-0.51088 -1.652403,-0.56954 -1.637737,-0.62576 -1.620627,-0.68443 -1.601072,-0.74065 -1.579072,-0.79442 -1.552184,-0.8482 -1.525296,-0.89953 -1.493517,-0.95331 -1.459297,-0.99976 -1.425076,-1.04864 -1.3884104,-1.09508 -1.3468556,-1.13908 -1.305301,-1.18064 -1.2637466,-1.21975 -1.2148588,-1.25886 -1.1684156,-1.29552 -1.1195278,-1.32975 -1.0681958,-1.36152 -1.01686379,-1.39085 -0.96308729,-1.41775"
     id="path1781-3" />
  <path
     style="fill:none;stroke:#000000;stroke-width:0.48887679;stroke-linecap:round;stroke-linejoin:round"
     inkscape:connector-curvature="0"
     id="path340-9"
     d="m 50.431704,518.47655 -7.177787,6.54429 -6.896976,6.51996 -1.545144,-0.73038 -1.329451,-0.54021 -1.407966,-0.85016 -1.38841,-0.65509 -1.359077,-0.71132 -1.329745,-0.76753 -1.297968,-0.81887 -1.261302,-0.8702 -1.224637,-0.91665 -1.180637,-0.96553 -1.136639,-1.00708 -1.090195,-1.05109 -1.043752,-1.08775 -0.989976,-1.12442 -0.938643,-1.15864 -0.882423,-1.19041 -0.828646,-1.2173 -0.769981,-1.24175 -0.711315,-1.26619 -0.650206,-1.2833 -0.591541,-1.30042 -0.527987,-1.31263 -0.464433,-1.32241 -0.403323,-1.33219 -0.33977,-1.33463 -0.276215,-1.33464 -0.212661,-1.33463 -0.149108,-1.32975 -0.088,-1.32241 -0.02444,-1.31263 0.03911,-1.30041 0.09778,-1.28575 0.161329,-1.26619 0.217551,-1.24664 0.278659,-1.22219 0.334881,-1.19775 0.391101,-1.17086 0.447323,-1.14152 0.501098,-1.10976 0.554876,-1.07552 0.603762,-1.03887 0.655094,-1.00464 0.701539,-0.96064 0.750425,-0.92398 0.791981,-0.87753 0.838424,-0.83598 0.879978,-0.78709 0.919088,-0.7431 0.955754,-0.69176 0.99242,-0.64043 1.026642,-0.58909 1.060863,-0.53777 1.087751,-0.48154 1.117083,-0.42777 1.143972,-0.3691 1.165971,-0.31288 1.187971,-0.25422 1.205081,-0.1931 1.224636,-0.13444 1.236859,-0.0733 1.246635,-0.01 1.256414,0.0513 1.261302,0.11244 1.266191,0.17844 1.263746,0.23711 1.263747,0.3031 1.256413,0.36421 1.246636,0.42777 1.236858,0.48888 1.222192,0.54998 1.207526,0.6111 1.183082,0.66976 1.163527,0.73087 1.139083,0.78709 1.10975,0.84331 1.080418,0.89709 1.046196,0.95331 1.011975,1.00709 0.977754,1.05597 0.936199,1.10731 0.899533,1.15619 0.855534,1.20264 0.811536,1.24908 0.767537,1.29552 0.721093,1.33953 0.672205,1.38107 0.625763,1.42263 0.571986,1.46419 0.520653,1.50085 0.469322,1.53508 0.410657,1.56685 0.354435,1.59373 0.295771,1.61819 -8.384237,8.03469 -6.018074,5.79319"
     sodipodi:nodetypes="cccccccccccccccccccccccccccccccccccccccccccccccccccccccccccccccccccccccccccccccccccccccccccccccccc" />
  <use
     style="fill:none;stroke:#000000;stroke-width:0.02;stroke-linecap:round;stroke-linejoin:round"
     xlink:href="#arrow1"
     transform="matrix(14.529821,46.678578,46.678578,-14.529821,12.496181,507.53109)"
     id="use342-4"
     x="0"
     y="0"
     width="100%"
     height="100%" />
  <use
     style="fill:none;stroke:#000000;stroke-width:0.02;stroke-linecap:round;stroke-linejoin:round"
     xlink:href="#arrow1"
     transform="matrix(-43.261018,-22.770365,-22.770365,43.261018,46.83253,477.89206)"
     id="use344-1"
     x="0"
     y="0"
     width="100%"
     height="100%" />
  <path
     style="fill:none;stroke:#000000;stroke-width:0.48887679;stroke-linecap:round;stroke-linejoin:round"
     sodipodi:nodetypes="ccccccccccccccccccccccccccccccccccccccccccccccccccccccccccccccccccccccccccccccccccccc"
     inkscape:connector-curvature="0"
     id="path348-5"
     d="m 49.530115,517.06017 -6.967176,6.37446 -6.306218,5.93898 -1.275968,-0.59887 -1.24908,-0.6551 -1.219748,-0.70887 -1.185526,-0.7602 -1.148861,-0.80909 -1.10975,-0.85554 -1.065751,-0.89953 -1.021753,-0.94353 -0.972865,-0.9802 -0.923977,-1.01931 -0.872645,-1.05109 -0.818869,-1.08286 -0.760204,-1.10975 -0.706426,-1.13419 -0.645318,-1.1562 -0.586652,-1.1733 -0.525543,-1.19042 -0.464433,-1.20019 -0.403323,-1.20997 -0.339769,-1.21486 -0.276216,-1.2173 -0.215105,-1.2173 -0.151552,-1.21242 -0.088,-1.20508 -0.02689,-1.19775 0.03422,-1.18308 0.09289,-1.16841 0.153996,-1.14886 0.212661,-1.12931 0.271327,-1.10486 0.327547,-1.07798 0.381324,-1.05108 0.437545,-1.02175 0.488877,-0.98753 0.540209,-0.95331 0.586652,-0.9142 0.637984,-0.87754 0.681984,-0.83598 0.728426,-0.79198 0.769981,-0.75042 0.809091,-0.70154 0.848201,-0.65754 0.884867,-0.60621 0.921533,-0.55487 0.95331,-0.50355 0.982642,-0.44976 1.011975,-0.39599 1.036419,-0.33977 1.060863,-0.28111 1.080417,-0.22488 1.099973,-0.16622 1.117084,-0.10511 1.129305,-0.044 1.139083,0.0147 1.148861,0.0782 1.151304,0.14178 1.156194,0.20044 1.151305,0.26643 1.151305,0.32755 1.141527,0.38866 1.134194,0.44976 1.119528,0.51332 1.107306,0.57444 1.085307,0.63309 1.065751,0.69176 1.041308,0.75043 1.016863,0.80664 0.987532,0.86287 0.955754,0.91909 0.921532,0.97042 0.884867,1.02175 0.848202,1.07309 0.809091,1.12197 0.765092,1.16842 0.721093,1.21485 0.677095,1.25642 0.625762,1.29797 0.576875,1.33463 0.525542,1.36885 0.469322,1.39819 -7.770697,7.47004 -5.460072,5.20057" />
  <use
     style="fill:none;stroke:#000000;stroke-width:0.02;stroke-linecap:round;stroke-linejoin:round"
     xlink:href="#arrow1"
     transform="matrix(13.803019,46.898633,46.898633,-13.803019,19.41114,510.34915)"
     id="use350-1"
     x="0"
     y="0"
     width="100%"
     height="100%" />
  <use
     style="fill:none;stroke:#000000;stroke-width:0.02;stroke-linecap:round;stroke-linejoin:round"
     xlink:href="#arrow1"
     transform="matrix(-43.988467,-21.331197,-21.331197,43.988467,47.494364,485.86658)"
     id="use352-5"
     x="0"
     y="0"
     width="100%"
     height="100%" />
  <path
     style="fill:none;stroke:#000000;stroke-width:0.48887679;stroke-linecap:round;stroke-linejoin:round"
     sodipodi:nodetypes="ccccccccccccccccccccccccccccccccccccccccccccccccccccccccccccccccccccccc"
     inkscape:connector-curvature="0"
     id="path356-5"
     d="m 48.182089,516.2196 -6.019736,5.54464 -5.881188,5.73453 -1.097528,-0.71621 -1.058418,-0.76753 -1.019309,-0.81154 -0.97042,-0.85553 -0.926422,-0.89709 -0.872645,-0.93376 -0.823757,-0.97042 -0.765092,-0.99975 -0.711316,-1.02664 -0.652651,-1.05353 -0.59154,-1.07309 -0.532876,-1.09019 -0.469322,-1.10486 -0.405768,-1.11709 -0.344658,-1.12197 -0.281104,-1.12441 -0.215106,-1.12687 -0.153996,-1.12197 -0.088,-1.11708 -0.02689,-1.10486 0.03422,-1.09264 0.09778,-1.07553 0.15644,-1.05842 0.217551,-1.03397 0.273771,-1.00953 0.329991,-0.98265 0.386213,-0.95086 0.439989,-0.91909 0.491321,-0.88487 0.542654,-0.84575 0.589096,-0.80665 0.637984,-0.76754 0.679539,-0.72109 0.723538,-0.6771 0.765092,-0.63065 0.801758,-0.57932 0.838424,-0.53043 0.872645,-0.4791 0.904422,-0.42287 0.933754,-0.36911 0.958199,-0.31288 0.985087,-0.25421 1.004642,-0.19555 1.024196,-0.13689 1.038864,-0.0733 1.051085,-0.0147 1.063307,0.0489 1.07064,0.11244 1.073085,0.176 1.073084,0.23955 1.073085,0.30066 1.065751,0.36665 1.058418,0.42777 1.043752,0.49377 1.03153,0.55243 1.011975,0.61598 0.99242,0.67465 0.965532,0.73576 0.941088,0.79198 0.909311,0.8482 0.877534,0.90442 0.843312,0.9582 0.804202,1.00709 0.762648,1.05842 0.718649,1.10486 0.67465,1.14886 0.623318,1.18797 -12.559538,11.92097" />
  <use
     style="fill:none;stroke:#000000;stroke-width:0.02;stroke-linecap:round;stroke-linejoin:round"
     xlink:href="#arrow1"
     transform="matrix(12.058672,47.377144,47.377144,-12.058672,25.049358,512.32131)"
     id="use358-9"
     x="0"
     y="0"
     width="100%"
     height="100%" />
  <use
     style="fill:none;stroke:#000000;stroke-width:0.02;stroke-linecap:round;stroke-linejoin:round"
     xlink:href="#arrow1"
     transform="matrix(-44.897338,-19.345138,-19.345138,44.897338,47.953245,491.8312)"
     id="use360-8"
     x="0"
     y="0"
     width="100%"
     height="100%" />
  <path
     style="fill:none;stroke:#000000;stroke-width:0.48887679;stroke-linecap:round;stroke-linejoin:round"
     sodipodi:nodetypes="ccccccccccccccccccccccccccccccccccccccccccccccccccccccccccc"
     inkscape:connector-curvature="0"
     id="path364-3"
     d="m 47.14919,515.2394 -10.667585,10.1352 -0.867757,-0.80176 -0.821313,-0.83842 -0.769981,-0.87265 -0.716204,-0.90442 -0.662428,-0.93131 -0.603763,-0.95575 -0.547542,-0.97776 -0.488877,-0.99242 -0.425323,-1.00708 -0.366657,-1.01687 -0.303104,-1.02175 -0.241994,-1.0242 -0.180884,-1.02419 -0.117331,-1.01931 -0.05622,-1.01198 0.0049,-0.99975 0.06355,-0.98509 0.124664,-0.96553 0.180884,-0.94842 0.237105,-0.92153 0.293327,-0.89709 0.349546,-0.86531 0.398435,-0.83598 0.449767,-0.79932 0.498654,-0.76509 0.547542,-0.72598 0.589097,-0.68443 0.635539,-0.64287 0.672206,-0.59643 0.71376,-0.54999 0.750426,-0.50354 0.782203,-0.45221 0.816424,-0.39844 0.843313,-0.3471 0.872645,-0.29333 0.894644,-0.2371 0.916644,-0.17844 0.936199,-0.12222 0.950866,-0.0611 h 0.965531 l 0.97531,0.0587 0.980198,0.12222 0.985086,0.18088 0.985087,0.24688 0.982642,0.30555 0.97531,0.3691 0.967976,0.43021 0.95331,0.49133 0.938643,0.55243 0.919088,0.61109 0.897089,0.66976 0.870201,0.72599 0.840868,0.7822 0.811536,0.83598 0.774869,0.88731 0.73576,0.93375 -11.353382,10.88377" />
  <use
     style="fill:none;stroke:#000000;stroke-width:0.02;stroke-linecap:round;stroke-linejoin:round"
     xlink:href="#arrow1"
     transform="matrix(-36.879201,32.092518,32.092518,36.879201,33.736544,500.12509)"
     id="use366-5"
     x="0"
     y="0"
     width="100%"
     height="100%" />
  <path
     style="fill:none;stroke:#000000;stroke-width:0.48887679;stroke-linecap:round;stroke-linejoin:round"
     inkscape:connector-curvature="0"
     id="path370-22"
     d="m 46.036702,514.0791 -9.085776,8.84623 -0.623317,-0.87265 -0.562209,-0.89709 -0.505987,-0.91664 -0.442434,-0.93376 -0.381324,-0.94597 -0.31777,-0.95576 -0.254216,-0.9582 -0.190662,-0.95819 -0.127107,-0.95576 -0.066,-0.94598 -0.0024,-0.93619 0.05866,-0.92154 0.11733,-0.90198 0.17844,-0.88242 0.234661,-0.85553 0.293326,-0.82865 0.344659,-0.79931 0.398434,-0.76265 0.449767,-0.72843 0.49621,-0.68931 0.545097,-0.65021 0.586653,-0.60376 0.630651,-0.55977 0.669761,-0.51332 0.706427,-0.46198 0.740648,-0.41311 0.77487,-0.35932 0.801758,-0.3031 0.83109,-0.24689 0.85309,-0.19066 0.872645,-0.132 0.892201,-0.0709 0.904422,-0.01 0.919088,0.0538 0.923977,0.11488 0.928866,0.17844 0.928866,0.242 0.926422,0.30554 0.919088,0.36666 0.909311,0.43266 0.894644,0.49376 0.87509,0.55488 0.855534,0.61598 0.831091,0.67221 -9.660206,9.35955" />
  <use
     style="fill:none;stroke:#000000;stroke-width:0.02;stroke-linecap:round;stroke-linejoin:round"
     xlink:href="#arrow1"
     transform="matrix(-37.002156,31.950675,31.950675,37.002156,37.261615,504.19758)"
     id="use372-7"
     x="0"
     y="0"
     width="100%"
     height="100%" />
  <path
     style="fill:none;stroke:#000000;stroke-width:0.48887679;stroke-linecap:round;stroke-linejoin:round"
     inkscape:connector-curvature="0"
     id="path376-0"
     d="m 45.000283,513.04268 -7.132713,6.94938 -0.315325,-0.88975 -0.251772,-0.89709 -0.188217,-0.89464 -0.122219,-0.89465 -0.06111,-0.88487 0.0049,-0.87264 0.06355,-0.85798 0.124663,-0.83842 0.185774,-0.81643 0.241994,-0.78953 0.298214,-0.76021 0.351992,-0.72842 0.403323,-0.69176 0.454655,-0.65266 0.501099,-0.61354 0.547542,-0.56954 0.589097,-0.52554 0.628206,-0.47665 0.667317,-0.42777 0.701538,-0.37399 0.733316,-0.32022 0.762647,-0.26643 0.789536,-0.20778 0.811536,-0.1491 0.831091,-0.088 0.845756,-0.0269 0.860424,0.0342 0.8702,0.0978 0.872645,0.16377 0.87509,0.22488 0.872645,0.29088 0.865312,0.35444 -7.653366,7.43093" />
  <use
     style="fill:none;stroke:#000000;stroke-width:0.02;stroke-linecap:round;stroke-linejoin:round"
     xlink:href="#arrow1"
     transform="matrix(-37.163397,31.762983,31.762983,37.163397,40.2139,507.50413)"
     id="use378-4"
     x="0"
     y="0"
     width="100%"
     height="100%" />
  <path
     style="fill:none;stroke:#000000;stroke-width:0.48887679;stroke-linecap:round;stroke-linejoin:round"
     inkscape:connector-curvature="0"
     id="path382-6"
     d="m 43.944309,511.98915 -4.111454,4.00635 0.09289,-0.77243 0.149107,-0.75042 0.202884,-0.72599 0.25666,-0.70153 0.310437,-0.66977 0.35688,-0.63554 0.408212,-0.60376 0.452211,-0.56221 0.493766,-0.5231 0.537764,-0.47665 0.574431,-0.4351 0.608651,-0.38621 0.645318,-0.33733 0.67465,-0.28599 0.699093,-0.23222 0.725983,-0.17844 0.747981,-0.12222 0.765092,-0.0635 -4.585664,4.461 z" />
  <use
     style="fill:none;stroke:#000000;stroke-width:0.02;stroke-linecap:round;stroke-linejoin:round"
     xlink:href="#arrow1"
     transform="matrix(-37.417208,31.463595,31.463595,37.417208,42.698416,510.21323)"
     id="use384-6"
     x="0"
     y="0"
     width="100%"
     height="100%" />
  <path
     style="opacity:1;vector-effect:none;fill:none;fill-opacity:1;stroke:#000000;stroke-width:0.48887679;stroke-linecap:butt;stroke-linejoin:miter;stroke-miterlimit:4;stroke-dasharray:none;stroke-dashoffset:0;stroke-opacity:1"
     d="M 44.910325,468.01902 C 19.107443,454.01681 -0.30250943,481.11266 -0.30250943,481.11266"
     id="path1783-3"
     inkscape:connector-curvature="0"
     sodipodi:nodetypes="cc" />
  <path
     style="opacity:1;vector-effect:none;fill:none;fill-opacity:1;stroke:#000000;stroke-width:0.48887679;stroke-linecap:butt;stroke-linejoin:miter;stroke-miterlimit:4;stroke-dasharray:none;stroke-dashoffset:0;stroke-opacity:1"
     d="m 78.845676,514.28875 -34.470065,33.10489 c 0,0 -12.175428,16.56953 -23.887282,29.29103 -11.7118548,12.7215 -22.0102101,24.43335 -22.0102101,24.43335"
     id="path4477"
     inkscape:connector-curvature="0"
     sodipodi:nodetypes="ccsc" />
  <path
     style="opacity:1;vector-effect:none;fill:none;fill-opacity:1;stroke:#000000;stroke-width:0.48887679;stroke-linecap:butt;stroke-linejoin:miter;stroke-miterlimit:4;stroke-dasharray:none;stroke-dashoffset:0;stroke-opacity:1"
     d="m 77.230249,512.26947 -34.933638,32.91435 c 0,0 -19.990925,19.58707 -23.827567,22.21214 -3.836642,2.62507 -20.1928536,13.52921 -20.1928536,13.52921"
     id="path4479"
     inkscape:connector-curvature="0" />
  <path
     style="opacity:1;vector-effect:none;fill:none;fill-opacity:1;stroke:#000000;stroke-width:0.48887679;stroke-linecap:butt;stroke-linejoin:miter;stroke-miterlimit:4;stroke-dasharray:none;stroke-dashoffset:0;stroke-opacity:1"
     d="m 94.912096,507.11335 c -13.151724,0.173 -17.81679,5.21751 -17.81679,5.21751"
     id="path4481"
     inkscape:connector-curvature="0"
     sodipodi:nodetypes="cc" />
  <path
     style="opacity:1;vector-effect:none;fill:none;fill-opacity:1;stroke:#000000;stroke-width:0.48887679;stroke-linecap:butt;stroke-linejoin:miter;stroke-miterlimit:4;stroke-dasharray:none;stroke-dashoffset:0;stroke-opacity:1"
     d="m 95.868559,513.3585 c -6.279754,-4.22186 -17.289111,-0.50348 -17.289111,-0.50348"
     id="path4483"
     inkscape:connector-curvature="0"
     sodipodi:nodetypes="cc" />
  <path
     style="opacity:1;vector-effect:none;fill:none;fill-opacity:1;stroke:#000000;stroke-width:0.48887679;stroke-linecap:butt;stroke-linejoin:miter;stroke-miterlimit:4;stroke-dasharray:none;stroke-dashoffset:0;stroke-opacity:1"
     d="m 96.193034,517.85373 c -9.075098,-4.5836 -17.441912,-3.54871 -17.441912,-3.54871"
     id="path4485"
     inkscape:connector-curvature="0"
     sodipodi:nodetypes="cc" />
  <path
     style="opacity:1;vector-effect:none;fill:none;fill-opacity:1;stroke:#000000;stroke-width:0.48887679;stroke-linecap:butt;stroke-linejoin:miter;stroke-miterlimit:4;stroke-dasharray:none;stroke-dashoffset:0;stroke-opacity:1"
     d="M 95.812297,521.0102 C 82.817326,514.78443 80.283839,515.46628 80.283839,515.46628"
     id="path4487"
     inkscape:connector-curvature="0"
     sodipodi:nodetypes="cc" />
  <path
     style="opacity:1;vector-effect:none;fill:none;fill-opacity:1;stroke:#000000;stroke-width:0.48887679;stroke-linecap:butt;stroke-linejoin:miter;stroke-miterlimit:4;stroke-dasharray:none;stroke-dashoffset:0;stroke-opacity:1"
     d="M 94.642068,523.61819 C 83.164511,517.09174 81.577876,517.24061 81.577876,517.24061"
     id="path4489"
     inkscape:connector-curvature="0"
     sodipodi:nodetypes="cc" />
  <path
     style="opacity:1;vector-effect:none;fill:none;fill-opacity:1;stroke:#000000;stroke-width:0.48887679;stroke-linecap:butt;stroke-linejoin:miter;stroke-miterlimit:4;stroke-dasharray:none;stroke-dashoffset:0;stroke-opacity:1"
     d="m 95.756035,527.08655 c -2.305101,-1.20151 -5.18814,-3.54072 -7.973549,-5.23766 -2.785413,-1.69694 -5.473196,-2.75162 -5.473196,-2.75162"
     id="path4491"
     inkscape:connector-curvature="0"
     sodipodi:nodetypes="csc" />
  <path
     style="opacity:1;vector-effect:none;fill:none;fill-opacity:1;stroke:#000000;stroke-width:0.48887679;stroke-linecap:butt;stroke-linejoin:miter;stroke-miterlimit:4;stroke-dasharray:none;stroke-dashoffset:0;stroke-opacity:1"
     d="m 96.845983,530.217 c -4.033224,-2.42501 -6.17723,-4.2822 -7.633755,-5.46751 -1.735158,-1.41207 -6.171525,-3.73929 -6.171525,-3.73929"
     id="path4493"
     inkscape:connector-curvature="0"
     sodipodi:nodetypes="csc" />
  <path
     style="opacity:1;vector-effect:none;fill:none;fill-opacity:1;stroke:#000000;stroke-width:0.48887679;stroke-linecap:butt;stroke-linejoin:miter;stroke-miterlimit:4;stroke-dasharray:none;stroke-dashoffset:0;stroke-opacity:1"
     d="m 95.298135,532.06189 c -4.171226,-3.1546 -7.368441,-5.82944 -9.11258,-7.33955 -1.710749,-1.48119 -2.718984,-1.99223 -2.718984,-1.99223"
     id="path4495"
     inkscape:connector-curvature="0"
     sodipodi:nodetypes="csc" />
  <path
     style="opacity:1;vector-effect:none;fill:none;fill-opacity:1;stroke:#000000;stroke-width:0.48887679;stroke-linecap:butt;stroke-linejoin:miter;stroke-miterlimit:4;stroke-dasharray:none;stroke-dashoffset:0;stroke-opacity:1"
     d="m 94.614351,533.75756 c -4.434443,-2.87469 -10.842237,-9.0903 -10.842237,-9.0903"
     id="path4497"
     inkscape:connector-curvature="0"
     sodipodi:nodetypes="cc" />
  <path
     style="opacity:1;vector-effect:none;fill:none;fill-opacity:1;stroke:#000000;stroke-width:0.48887679;stroke-linecap:butt;stroke-linejoin:miter;stroke-miterlimit:4;stroke-dasharray:none;stroke-dashoffset:0;stroke-opacity:1"
     d="m 95.506006,537.98115 c -3.685195,-1.88786 -6.484059,-5.76116 -8.334658,-7.87583 -1.850597,-2.11468 -2.779895,-3.48388 -2.779895,-3.48388"
     id="path4499"
     inkscape:connector-curvature="0"
     sodipodi:nodetypes="csc" />
  <path
     style="opacity:1;vector-effect:none;fill:none;fill-opacity:1;stroke:#000000;stroke-width:0.48887679;stroke-linecap:butt;stroke-linejoin:miter;stroke-miterlimit:4;stroke-dasharray:none;stroke-dashoffset:0;stroke-opacity:1"
     d="M 94.816005,540.14377 C 87.330431,534.42644 84.184301,527.62966 84.424934,527.72591"
     id="path4501"
     inkscape:connector-curvature="0"
     sodipodi:nodetypes="cc" />
  <path
     style="opacity:1;vector-effect:none;fill:none;fill-opacity:1;stroke:#000000;stroke-width:0.48887679;stroke-linecap:butt;stroke-linejoin:miter;stroke-miterlimit:4;stroke-dasharray:none;stroke-dashoffset:0;stroke-opacity:1"
     d="m 93.336745,542.27744 c -4.84903,-4.01555 -9.672286,-12.60467 -9.672286,-12.60467"
     id="path4503"
     inkscape:connector-curvature="0"
     sodipodi:nodetypes="cc" />
  <path
     style="opacity:1;vector-effect:none;fill:none;fill-opacity:1;stroke:#000000;stroke-width:0.48887679;stroke-linecap:butt;stroke-linejoin:miter;stroke-miterlimit:4;stroke-dasharray:none;stroke-dashoffset:0;stroke-opacity:1"
     d="M 92.251675,545.36018 C 87.196032,539.2806 83.888936,531.41562 83.888936,531.41562"
     id="path4509"
     inkscape:connector-curvature="0"
     sodipodi:nodetypes="cc" />
  <path
     style="opacity:1;vector-effect:none;fill:none;fill-opacity:1;stroke:#000000;stroke-width:0.48887679;stroke-linecap:butt;stroke-linejoin:miter;stroke-miterlimit:4;stroke-dasharray:none;stroke-dashoffset:0;stroke-opacity:1"
     d="M 90.400499,548.19359 C 84.50682,539.35307 83.508698,534.2674 83.508698,534.2674"
     id="path4511"
     inkscape:connector-curvature="0" />
  <path
     style="opacity:1;vector-effect:none;fill:none;fill-opacity:1;stroke:#000000;stroke-width:0.16295893;stroke-linecap:butt;stroke-linejoin:miter;stroke-miterlimit:4;stroke-dasharray:none;stroke-dashoffset:0;stroke-opacity:1"
     d="M 88.214135,551.42561 C 85.885182,544.6764 82.890811,536.97659 82.890811,536.97659"
     id="path4513"
     inkscape:connector-curvature="0" />
  <path
     style="opacity:1;vector-effect:none;fill:none;fill-opacity:1;stroke:#000000;stroke-width:0.48887679;stroke-linecap:butt;stroke-linejoin:miter;stroke-miterlimit:4;stroke-dasharray:none;stroke-dashoffset:0;stroke-opacity:1"
     d="M 41.021733,544.20371 76.623086,511.00545"
     id="path4599"
     inkscape:connector-curvature="0" />
</svg>
