<?xml version="1.0" encoding="UTF-8" standalone="no"?>
<!-- Created with Inkscape (http://www.inkscape.org/) -->

<svg
   xmlns:dc="http://purl.org/dc/elements/1.1/"
   xmlns:cc="http://creativecommons.org/ns#"
   xmlns:rdf="http://www.w3.org/1999/02/22-rdf-syntax-ns#"
   xmlns:svg="http://www.w3.org/2000/svg"
   xmlns="http://www.w3.org/2000/svg"
   xmlns:xlink="http://www.w3.org/1999/xlink"
   xmlns:sodipodi="http://sodipodi.sourceforge.net/DTD/sodipodi-0.dtd"
   xmlns:inkscape="http://www.inkscape.org/namespaces/inkscape"
   width="210mm"
   height="297mm"
   viewBox="0 0 210 297"
   version="1.1"
   id="svg8"
   inkscape:version="0.92.3 (2405546, 2018-03-11)"
   sodipodi:docname="hw-two-climbing-routes.svg">
  <defs
     id="defs2" />
  <sodipodi:namedview
     id="base"
     pagecolor="#ffffff"
     bordercolor="#666666"
     borderopacity="1.0"
     inkscape:pageopacity="0.0"
     inkscape:pageshadow="2"
     inkscape:zoom="0.82239821"
     inkscape:cx="-146.50438"
     inkscape:cy="-50.645143"
     inkscape:document-units="mm"
     inkscape:current-layer="layer1"
     showgrid="false"
     inkscape:snap-global="false"
     inkscape:window-width="1280"
     inkscape:window-height="996"
     inkscape:window-x="0"
     inkscape:window-y="0"
     inkscape:window-maximized="1" />
  <metadata
     id="metadata5">
    <rdf:RDF>
      <cc:Work
         rdf:about="">
        <dc:format>image/svg+xml</dc:format>
        <dc:type
           rdf:resource="http://purl.org/dc/dcmitype/StillImage" />
        <dc:title />
      </cc:Work>
    </rdf:RDF>
  </metadata>
  <g
     inkscape:label="Layer 1"
     inkscape:groupmode="layer"
     id="layer1">
    <image
       sodipodi:absref="/home/bcrowell/a/hw-two-climbing-routes-bitmap.jpg"
       xlink:href="/home/bcrowell/a/hw-two-climbing-routes-bitmap.jpg"
       y="214.70399"
       x="0"
       id="image866"
       preserveAspectRatio="none"
       height="82.296005"
       width="51.985332" />
    <path
       style="opacity:1;vector-effect:none;fill:none;fill-opacity:1;stroke:#000000;stroke-width:0.58173269;stroke-linecap:butt;stroke-linejoin:miter;stroke-miterlimit:4;stroke-dasharray:none;stroke-dashoffset:0;stroke-opacity:1"
       d="m 8.753666,244.04107 0.730135,-1.3212 1.703648,-8.76164 2.781477,-1.91226 -0.208613,-3.96359 0.104286,-2.85101 -0.660604,-1.87749 0.312919,-0.90398"
       id="path929"
       inkscape:connector-curvature="0" />
    <path
       style="opacity:1;vector-effect:none;fill:none;fill-opacity:1;stroke:#ffffff;stroke-width:0.58191597;stroke-linecap:butt;stroke-linejoin:miter;stroke-miterlimit:4;stroke-dasharray:1.16383203, 1.16383203;stroke-dashoffset:0;stroke-opacity:1"
       d="m 8.753667,244.04107 0.730134,-1.3212 1.703648,-8.76164 2.781477,-1.91226 -0.208612,-3.96359 0.104285,-2.85101 -0.660604,-1.8775 0.31292,-0.90397"
       id="path929-6"
       inkscape:connector-curvature="0" />
    <path
       style="opacity:1;vector-effect:none;fill:none;fill-opacity:1;stroke:#000000;stroke-width:0.58191597;stroke-linecap:butt;stroke-linejoin:miter;stroke-miterlimit:4;stroke-dasharray:none;stroke-dashoffset:0;stroke-opacity:1"
       d="m 44.069046,292.83724 -0.808674,-3.1468 0.404337,-3.69178 -1.195432,-2.47876 0.01758,-1.28333 1.35365,-0.59772 -0.931734,-1.30091 0.281279,-2.40844 2.267805,-3.30502 -1.793149,-0.12305 0.896574,-5.81894 0.966893,-5.90684 -0.01758,-1.56461 0.615296,-3.77967 -0.01758,-3.0589 1.142693,-3.51598 0.629394,-5.13183 0.08702,-1.61601 -3.045559,-2.93368 -3.119289,-3.49687 -2.748071,-2.86773 -5.390434,-2.30606 0.29891,-0.73447 -2.220472,-1.79346"
       id="path1708"
       inkscape:connector-curvature="0"
       sodipodi:nodetypes="cccccccccccccccccccccc" />
    <path
       style="opacity:1;vector-effect:none;fill:none;fill-opacity:1;stroke:#ffffff;stroke-width:0.58191597;stroke-linecap:butt;stroke-linejoin:miter;stroke-miterlimit:4;stroke-dasharray:1.16383202, 1.16383202;stroke-dashoffset:0;stroke-opacity:1"
       d="m 44.069046,292.83724 -0.808674,-3.1468 0.404337,-3.69178 -1.195432,-2.47876 0.01758,-1.28333 1.35365,-0.59772 -0.931734,-1.30091 0.281279,-2.40844 2.267805,-3.30502 -1.793149,-0.12305 0.896574,-5.81894 0.966893,-5.90684 -0.01758,-1.56461 0.615296,-3.77967 -0.01758,-3.0589 1.142693,-3.51598 0.629394,-5.13183 0.08702,-1.61601 -3.045559,-2.93368 -3.119289,-3.49687 -2.748071,-2.86773 -5.390434,-2.30606 0.29891,-0.73447 -2.220472,-1.79346"
       id="path1708-7"
       inkscape:connector-curvature="0"
       sodipodi:nodetypes="cccccccccccccccccccccc" />
    <g
       id="g1748"
       transform="matrix(0.5498419,0,0,0.5498419,-5.6468385,209.96212)">
      <path
         inkscape:connector-curvature="0"
         id="path1729"
         d="m 86.018493,132.69501 -11.246543,-15.81546 -3.514545,-4.65677 -7.292684,-2.98736 -4.041724,-6.23832 -0.527183,-7.55627 -2.811637,-1.581547 -0.351454,-2.723772 -4.041727,-5.886863 -2.284455,-2.284454 -5.008226,-2.8995 -1.845136,-4.481044 c 0,0 -0.08787,-3.778137 -3.690273,-7.116956 C 35.760498,65.127877 27.32559,62.404103 27.32559,62.404103"
         style="opacity:1;vector-effect:none;fill:none;fill-opacity:1;stroke:#000000;stroke-width:1.05833328;stroke-linecap:butt;stroke-linejoin:miter;stroke-miterlimit:4;stroke-dasharray:none;stroke-dashoffset:0;stroke-opacity:1" />
      <path
         inkscape:connector-curvature="0"
         id="path1729-5"
         d="m 86.018471,132.69501 -11.246521,-15.81546 -3.514545,-4.65677 -7.292684,-2.98736 -4.041725,-6.23832 -0.527182,-7.556269 -2.811637,-1.581547 -0.351454,-2.723772 -4.041727,-5.886863 -2.284455,-2.284454 -5.008226,-2.8995 -1.845136,-4.481044 c 0,0 -0.08787,-3.778137 -3.690273,-7.116956 C 35.760499,65.127878 27.32559,62.404104 27.32559,62.404104"
         style="opacity:1;vector-effect:none;fill:none;fill-opacity:1;stroke:#ffffff;stroke-width:1.05833328;stroke-linecap:butt;stroke-linejoin:miter;stroke-miterlimit:4;stroke-dasharray:2.11666667, 2.11666667;stroke-dashoffset:0;stroke-opacity:1" />
    </g>
    <path
       style="opacity:1;vector-effect:none;fill:none;fill-opacity:1;stroke:#000000;stroke-width:0.58191597;stroke-linecap:butt;stroke-linejoin:miter;stroke-miterlimit:4;stroke-dasharray:none;stroke-dashoffset:0;stroke-opacity:1"
       d="m 31.541225,229.96009 c -0.176665,-0.0589 -4.887742,-2.76776 -4.887742,-2.76776 l -7.007726,-2.62054 -1.207214,-1.41332 -4.44608,-0.88333"
       id="path844"
       inkscape:connector-curvature="0" />
    <path
       style="opacity:1;vector-effect:none;fill:none;fill-opacity:1;stroke:#ffffff;stroke-width:0.58191597;stroke-linecap:butt;stroke-linejoin:miter;stroke-miterlimit:4;stroke-dasharray:1.16383196, 1.16383196;stroke-dashoffset:0;stroke-opacity:1"
       d="m 31.541225,229.96009 c -0.176665,-0.0589 -4.887742,-2.76776 -4.887742,-2.76776 l -7.007726,-2.62054 -1.207214,-1.41332 -4.44608,-0.88333"
       id="path844-3"
       inkscape:connector-curvature="0" />
    <path
       style="opacity:1;vector-effect:none;fill:none;fill-opacity:1;stroke:#000000;stroke-width:0.58191597;stroke-linecap:butt;stroke-linejoin:miter;stroke-miterlimit:4;stroke-dasharray:none;stroke-dashoffset:0;stroke-opacity:1"
       d="m 31.245658,229.84778 0.753563,0.35273"
       id="path878"
       inkscape:connector-curvature="0" />
  </g>
</svg>
