<?xml version="1.0" encoding="UTF-8" standalone="no"?>
<!-- Created with Inkscape (http://www.inkscape.org/) -->

<svg
   xmlns:dc="http://purl.org/dc/elements/1.1/"
   xmlns:cc="http://creativecommons.org/ns#"
   xmlns:rdf="http://www.w3.org/1999/02/22-rdf-syntax-ns#"
   xmlns:svg="http://www.w3.org/2000/svg"
   xmlns="http://www.w3.org/2000/svg"
   xmlns:xlink="http://www.w3.org/1999/xlink"
   xmlns:sodipodi="http://sodipodi.sourceforge.net/DTD/sodipodi-0.dtd"
   xmlns:inkscape="http://www.inkscape.org/namespaces/inkscape"
   width="210mm"
   height="297mm"
   viewBox="0 0 210 297"
   version="1.1"
   id="svg8"
   inkscape:version="0.92.3 (2405546, 2018-03-11)"
   sodipodi:docname="jello-shear.svg">
  <defs
     id="defs2" />
  <sodipodi:namedview
     id="base"
     pagecolor="#ffffff"
     bordercolor="#666666"
     borderopacity="1.0"
     inkscape:pageopacity="0.0"
     inkscape:pageshadow="2"
     inkscape:zoom="0.63023309"
     inkscape:cx="224.95631"
     inkscape:cy="922.47185"
     inkscape:document-units="mm"
     inkscape:current-layer="layer1"
     showgrid="false"
     inkscape:snap-global="false"
     inkscape:window-width="1280"
     inkscape:window-height="996"
     inkscape:window-x="0"
     inkscape:window-y="0"
     inkscape:window-maximized="1" />
  <metadata
     id="metadata5">
    <rdf:RDF>
      <cc:Work
         rdf:about="">
        <dc:format>image/svg+xml</dc:format>
        <dc:type
           rdf:resource="http://purl.org/dc/dcmitype/StillImage" />
        <dc:title></dc:title>
      </cc:Work>
    </rdf:RDF>
  </metadata>
  <g
     inkscape:label="Layer 1"
     inkscape:groupmode="layer"
     id="layer1">
    <image
       sodipodi:absref="/home/bcrowell/Documents/writing/books/physics/share/em-fields/figs/jello-shear-bitmaps/jello.jpg"
       xlink:href="jello-shear-bitmaps/jello.jpg"
       width="51.985332"
       height="42.248665"
       preserveAspectRatio="none"
       id="image877"
       x="14.072807"
       y="17.339947" />
    <path
       style="fill:#ffffff;fill-opacity:1;stroke:none;stroke-width:0.39067659;stroke-miterlimit:4;stroke-dasharray:none;stroke-dashoffset:0;stroke-opacity:1"
       d="m 13.489492,52.910911 v 8.571601 H 65.651683 V 53.573187 A 91.921493,105.09729 0 0 1 40.904873,57.463209 91.921493,105.09729 0 0 1 14.22433,52.910911 Z"
       id="rect880"
       inkscape:connector-curvature="0" />
    <path
       style="opacity:1;vector-effect:none;fill:#ffffff;fill-opacity:1;stroke:none;stroke-width:0.35277778;stroke-linecap:butt;stroke-linejoin:miter;stroke-miterlimit:4;stroke-dasharray:none;stroke-dashoffset:0;stroke-opacity:1;marker:none;marker-start:none;marker-mid:none;marker-end:none"
       d="m 14.195365,33.245853 1.975801,-0.303969 0.334366,-0.759923 0.577542,-0.577543 0.455953,-0.455954 1.671831,-1.27667 0.668733,-0.364763 0.547145,-0.547145 0.303969,-0.121589 1.155083,-1.124685 1.307068,-1.094291 3.799615,-4.073187 0.942306,-0.39516 5.015492,-0.06079 8.389553,0.182382 6.018591,-0.0304 5.897004,0.151984 3.495646,-0.121587 2.826917,0.547145 0.972701,1.276671 1.550244,2.614135 0.395158,1.398259 0.699129,1.27667 0.638337,1.276673 1.09429,1.671831 0.212778,0.729525 -0.0304,0.516747 1.124688,0.09119 V 17.135481 H 13.891396 V 33.18506 Z"
       id="path885"
       inkscape:connector-curvature="0" />
    <path
       style="opacity:1;vector-effect:none;fill:#ffffff;fill-opacity:1;stroke:none;stroke-width:0.35277778;stroke-linecap:butt;stroke-linejoin:miter;stroke-miterlimit:4;stroke-dasharray:none;stroke-dashoffset:0;stroke-opacity:1;marker:none;marker-start:none;marker-mid:none;marker-end:none"
       d="m 16.10331,32.911867 -0.277112,0.492646 0.246322,1.231609 -0.246322,0.892919 0.277112,0.769757 -0.246322,1.17003 0.307903,0.677386 -0.123161,0.923708 0.06158,2.37085 -0.09237,1.816626 h 0.184742 l -0.09237,3.725622 0.215532,1.878205 0.215532,3.879575 -0.153952,1.13924 -2.617172,-0.862128 0,-20.044463 z"
       id="path887"
       inkscape:connector-curvature="0"
       sodipodi:nodetypes="cccccccccccccccccc" />
    <path
       style="opacity:1;vector-effect:none;fill:#ffffff;fill-opacity:1;stroke:none;stroke-width:0.35277778;stroke-linecap:butt;stroke-linejoin:miter;stroke-miterlimit:4;stroke-dasharray:none;stroke-dashoffset:0;stroke-opacity:1;marker:none;marker-start:none;marker-mid:none;marker-end:none"
       d="m 65.213787,33.496882 -0.400272,1.016079 -0.369485,0.277114 0.800547,1.108448 -0.492644,1.416352 0.06158,0.492646 -0.738968,1.693463 -0.03079,3.510092 -0.09237,2.093738 0.09237,2.30927 -0.184743,0.831337 0.06158,1.539512 -0.123161,1.724256 v 1.354772 l 0.369483,0.708176 1.970576,-0.615805 v -19.49024 z"
       id="path889"
       inkscape:connector-curvature="0" />
    <path
       style="fill:none;fill-opacity:1;stroke:#000000;stroke-width:0.33844978;stroke-miterlimit:4;stroke-dasharray:2.03069873, 2.03069873;stroke-dashoffset:0;stroke-opacity:1"
       d="m 64.455089,54.072829 0.105234,-0.39274 -0.137789,0.0398 -0.179649,-0.70849 0.362921,-1.35444 0.585055,-1.72444 0.350991,-1.53944 0.407276,-0.83147 0.526827,-2.30942 0.652908,-2.09341 0.971616,-3.51039 1.192727,-1.69343 0.07047,-0.49248 0.872011,-1.41645 -0.503456,-1.10846 0.443704,-0.27698 0.613244,-0.92708 -0.0666,-0.006 0.168956,-0.51676 -0.0174,-0.72966 -0.646049,-1.67174 -0.29671,-1.2764 -0.35703,-1.27693 -0.02012,-1.39836 -0.849927,-2.6138 -0.630918,-1.27692 -2.680065,-0.54725 -3.528071,0.12195 -5.856468,-0.15244 -6.026927,0.0305 -8.340272,-0.18242 -5.032059,0.061 -1.047986,0.39532 -4.891162,4.07314 -1.600033,1.09399 -1.456923,1.12499 -0.336398,0.12144 -0.693892,0.54726 -0.766448,0.36483 -2.013746,1.27641 -0.578052,0.4563 -0.732409,0.57723 -0.538033,0.76016 -0.09639,0.0145 -0.372232,0.44803 -0.08398,1.23145 -0.485252,0.89297 0.07067,0.76998 -0.559984,1.16995 0.126464,0.67748 -0.370433,0.92346 -0.573783,2.37091 -0.579211,1.81643 h 0.185 l -1.090844,3.72587 -0.287695,1.87792 -0.824118,3.87987 -0.32546,0.8077"
       id="rect938-2"
       inkscape:connector-curvature="0"
       sodipodi:nodetypes="cccccccccccccccccccccccccccccccccccccccccccccccccccccccccc" />
    <path
       style="fill:none;fill-opacity:1;stroke:#000000;stroke-width:0.33844978;stroke-miterlimit:4;stroke-dasharray:2.03069873, 2.03069873;stroke-dashoffset:0;stroke-opacity:1"
       d="m 64.323767,53.889529 -0.10523,-0.39274 -0.11647,0.0398 -0.55932,-0.70848 -0.36292,-1.35444 -0.33907,-1.72444 -0.47399,-1.53944 -0.0383,-0.83148 -0.71081,-2.30942 -0.46893,-2.09341 -0.9096,-3.51038 0.28521,-1.69344 -0.19345,-0.49247 0.11294,-1.41645 -1.09748,-1.10846 0.29527,-0.27699 0.11642,-0.92707 -0.0698,-0.006 -0.10796,-0.51677 -0.40843,-0.72966 -1.54192,-1.67173 -0.98074,-1.27641 -1.04133,-1.27692 -0.7695,-1.39837 -2.25065,-2.61379 -1.31522,-1.27692 -2.97334,-0.54726 -3.46272,0.12196 -5.93816,-0.15245 -6.01059,0.0305 -8.43802,-0.18241 -4.99937,0.061 -0.83613,0.39533 -2.70838,4.07313 -1.01376,1.09399 -0.85404,1.125 -0.27132,0.12144 -0.40062,0.54725 -0.57094,0.36484 -1.32972,1.2764 -0.33352,0.45631 -0.42307,0.57722 -0.13067,0.76016 -0.0886,0.0145 -0.13214,0.44804 0.57594,1.23145 -0.007,0.89297 0.48331,0.76997 0.067,1.16996 0.48952,0.67748 0.12445,0.92346 0.69678,2.37091 0.39421,1.81643 h 0.185 l 0.90585,3.72587 0.71867,1.87792 1.2551,3.87986 0.10738,0.80771"
       id="rect938-9"
       inkscape:connector-curvature="0"
       sodipodi:nodetypes="cccccccccccccccccccccccccccccccccccccccccccccccccccccccccc" />
  </g>
</svg>
