<?xml version="1.0" encoding="UTF-8" standalone="no"?>
<!-- Created with Inkscape (http://www.inkscape.org/) -->

<svg
   xmlns:dc="http://purl.org/dc/elements/1.1/"
   xmlns:cc="http://creativecommons.org/ns#"
   xmlns:rdf="http://www.w3.org/1999/02/22-rdf-syntax-ns#"
   xmlns:svg="http://www.w3.org/2000/svg"
   xmlns="http://www.w3.org/2000/svg"
   xmlns:xlink="http://www.w3.org/1999/xlink"
   xmlns:sodipodi="http://sodipodi.sourceforge.net/DTD/sodipodi-0.dtd"
   xmlns:inkscape="http://www.inkscape.org/namespaces/inkscape"
   version="1.1"
   width="550"
   height="300"
   id="svg6476"
   sodipodi:docname="chladni-guitar.svg"
   inkscape:version="0.92.3 (2405546, 2018-03-11)">
  <metadata
     id="metadata49">
    <rdf:RDF>
      <cc:Work
         rdf:about="">
        <dc:format>image/svg+xml</dc:format>
        <dc:type
           rdf:resource="http://purl.org/dc/dcmitype/StillImage" />
      </cc:Work>
    </rdf:RDF>
  </metadata>
  <sodipodi:namedview
     pagecolor="#ffffff"
     bordercolor="#666666"
     borderopacity="1"
     objecttolerance="10"
     gridtolerance="10"
     guidetolerance="10"
     inkscape:pageopacity="0"
     inkscape:pageshadow="2"
     inkscape:window-width="1280"
     inkscape:window-height="996"
     id="namedview47"
     showgrid="false"
     inkscape:zoom="1.4932953"
     inkscape:cx="236.40139"
     inkscape:cy="71.149934"
     inkscape:window-x="0"
     inkscape:window-y="0"
     inkscape:window-maximized="1"
     inkscape:current-layer="svg6476" />
  <defs
     id="defs6478" />
  <g
     id="g851"
     transform="matrix(0.80625137,0,0,0.80625137,1.9277989,51.436651)">
    <path
       d="m 49.418856,13.62634 c -17.57016,0 -30.25007,8.86876 -30.25007,21.11463 0,5.33508 3.703145,13.95293 3.703145,23.15113 0,9.1982 -11.921931,18.98034 -11.921931,41.26556 0,12.94725 13.349976,24.99591 39.684146,24.95661 26.334165,-0.0393 38.034785,-12.15903 38.034785,-24.95661 0,-20.87262 -12.17714,-32.97175 -12.17714,-41.49475 0,-8.523 4.73957,-18.3682 4.73957,-23.44275 0,-12.24587 -14.24234,-20.59382 -31.812505,-20.59382 z"
       id="path5624"
       style="fill:#cbcbcb;fill-opacity:1;stroke:#000000;stroke-width:2"
       inkscape:connector-curvature="0" />
    <use
       transform="translate(90)"
       xlink:href="#path5624"
       id="use6"
       x="0"
       y="0"
       width="100%"
       height="100%" />
    <use
       transform="translate(180)"
       xlink:href="#path5624"
       id="use8"
       x="0"
       y="0"
       width="100%"
       height="100%" />
    <use
       transform="translate(270)"
       xlink:href="#path5624"
       id="use10"
       x="0"
       y="0"
       width="100%"
       height="100%" />
    <use
       transform="translate(360)"
       xlink:href="#path5624"
       id="use12"
       x="0"
       y="0"
       width="100%"
       height="100%" />
    <use
       transform="translate(450)"
       xlink:href="#path5624"
       id="use14"
       x="0"
       y="0"
       width="100%"
       height="100%" />
    <path
       inkscape:connector-curvature="0"
       style="fill:#cbcbcb;fill-opacity:1;stroke:#000000;stroke-width:2"
       id="path856"
       d="m 49.418856,153.99334 c -17.57016,0 -30.25007,8.86876 -30.25007,21.11463 0,5.33508 3.703145,13.95293 3.703145,23.15113 0,9.1982 -11.921931,18.98034 -11.921931,41.26556 0,12.94725 13.349976,24.99591 39.684146,24.95661 26.334165,-0.0393 38.034785,-12.15903 38.034785,-24.95661 0,-20.87262 -12.17714,-32.97175 -12.17714,-41.49475 0,-8.523 4.73957,-18.3682 4.73957,-23.44275 0,-12.24587 -14.24234,-20.59382 -31.812505,-20.59382 z" />
    <use
       height="100%"
       width="100%"
       y="0"
       x="0"
       id="use858"
       xlink:href="#path5624"
       transform="translate(90,140.367)" />
    <use
       height="100%"
       width="100%"
       y="0"
       x="0"
       id="use860"
       xlink:href="#path5624"
       transform="translate(180,140.367)" />
    <use
       height="100%"
       width="100%"
       y="0"
       x="0"
       id="use862"
       xlink:href="#path5624"
       transform="translate(270,140.367)" />
    <use
       height="100%"
       width="100%"
       y="0"
       x="0"
       id="use864"
       xlink:href="#path5624"
       transform="translate(360,140.367)" />
    <use
       height="100%"
       width="100%"
       y="0"
       x="0"
       id="use866"
       xlink:href="#path5624"
       transform="translate(450,140.367)" />
    <path
       id="path19"
       style="fill:none;stroke:#000000;stroke-width:1px"
       d="m 519.8866,262.27522 c -0.27606,-17.94383 -22.08472,-70.39504 -3.03665,-104.35029 m 20.1523,67.91051 c -15.25648,3.17702 -18.23435,21.76084 -6.0733,30.64254 m -41.20034,8.00571 c 0,-49.16995 19.60018,-49.11682 19.60018,0 v 0.27606 m -29.53831,-2.48453 c 0.27606,-17.94383 22.08472,-70.39504 3.03665,-104.35029 m -20.1523,67.91051 c 15.25648,3.17702 18.23435,21.76084 6.0733,30.64254 m 4.14088,-61.00903 c 20.40512,8.61452 37.8304,6.79958 53.8315,0 m -155.14514,49.96667 c 21.90068,15.4593 54.75169,16.01142 76.19227,0 m -72.05139,-29.26225 c 23.10742,9.7064 45.44716,9.43289 67.08233,0 m -61.56115,-27.32983 c 20.98048,6.99349 39.75249,6.99349 56.31603,0 m -46.10185,-30.36649 c 12.31118,3.83487 24.31223,4.25826 35.88767,0 m -17.94383,-3.86483 V 265.03581 M 281.85621,245.43562 c 21.90068,15.4593 54.75169,16.01142 76.19227,0 m -72.05139,-29.26225 c 23.10742,9.7064 45.44716,9.43289 67.08233,0 m -61.56115,-27.32983 c 20.98048,6.99349 39.75249,6.99349 56.31603,0 m -46.10185,-30.36649 c 12.31118,3.83487 24.31223,4.25826 35.88767,0 m -68.69763,80.88528 c -12.6179,-5.83052 -26.5597,5.57533 -18.77201,22.91289 m -36.20478,1.10424 c 4.69402,-25.31861 25.27961,-24.78608 31.19466,0.55212 m -54.10755,-24.56925 c 12.6179,-5.83052 26.5597,5.57533 18.77201,22.91289 m -11.87054,-49.13849 c 14.61448,22.13103 48.60292,21.66835 63.76962,0 m -60.18085,-23.74108 c 17.9718,15.68306 38.70895,15.94486 56.31603,0 m -47.48215,-30.36648 c 13.13172,5.11484 25.97583,5.91538 38.3722,0 m -70.72333,73.43168 c -32.01254,4.58308 -30.251,-45.79143 -25.39743,-75.91621 m -51.57079,75.91621 c 32.01254,4.58308 30.251,-45.79143 25.39743,-75.91621 m -17.11566,23.46501 c 24.33058,8.19465 44.31039,7.2527 61.28509,0 m -67.63445,68.46262 c 25.23996,-9.38995 49.93775,-11.18945 73.70775,0 m -59.62874,12.1466 c 19.04807,-8.00571 16.01354,-3.60252 24.01713,-3.58877 8.0036,0.0138 5.52118,-3.58876 23.46501,3.58877 M 15.459302,252.06104 h 69.56686 M 31.746781,158.47705 c 10.403418,4.05376 21.820768,5.47129 35.887666,0 m -44.997612,41.96096 h 53.55544 M 50.242732,154.61222 V 265.03581 M 473.3211,23.596739 c 17.37017,9.589486 35.27714,10.858492 53.96653,0 M 473.3211,57.26393 c 19.33773,7.045891 37.3421,8.758345 52.72877,0 m -64.85886,35.152509 c 27.89096,13.532891 53.47142,13.532891 76.74139,0 M 418.11681,14.18973 C 405.17662,51.533171 403.68572,89.058411 414.40352,123.6081 M 392.61887,16.665258 c -14.1462,43.08358 -10.84124,76.818569 -2.97063,104.219762 m 47.53014,-70.55257 c -4.28963,20.299977 -6.42054,40.441553 0.99021,66.59172 M 288.89421,35.47928 c 20.28161,9.39048 40.94687,8.4224 61.88822,0 m -69.80991,61.888217 c 25.48025,-15.997348 51.34406,-14.350583 77.48405,0 M 318.84811,13.199518 V 123.6081 M 244.40763,15.67505 c -6.51487,40.05164 -3.79441,74.56208 6.18882,104.71486 M 215.371,15.675047 c 6.51487,40.051643 3.79441,74.562085 -6.18882,104.714863 m -6.68393,-58.917581 c 17.55471,-4.793338 35.58893,-5.750671 54.46164,0 m -144.07578,-1.73287 c 18.34537,5.476449 36.43469,8.264301 53.47142,0 M 141.10514,12.951965 V 123.6081 M 19.061572,35.72683 h 61.888219 m -68.8197,52.976316 h 75.256075"
       inkscape:connector-curvature="0" />
  </g>
  <g
     id="g927"
     transform="translate(0,-127.23538)">
    <text
       id="text855"
       y="293.5083"
       x="25.966766"
       style="font-style:normal;font-variant:normal;font-weight:normal;font-stretch:normal;font-size:13.33333302px;line-height:1.25;font-family:'Liberation Sans';-inkscape-font-specification:'Liberation Sans';font-variant-ligatures:normal;font-variant-position:normal;font-variant-caps:normal;font-variant-numeric:normal;font-variant-alternates:normal;font-feature-settings:normal;text-indent:0;text-align:start;text-decoration:none;text-decoration-line:none;text-decoration-style:solid;text-decoration-color:#000000;letter-spacing:0px;word-spacing:0px;text-transform:none;writing-mode:lr-tb;direction:ltr;text-orientation:mixed;dominant-baseline:auto;baseline-shift:baseline;text-anchor:start;white-space:normal;shape-padding:0;opacity:1;vector-effect:none;fill:#000000;fill-opacity:1;stroke:none;stroke-width:0.99999994;stroke-linecap:butt;stroke-linejoin:miter;stroke-miterlimit:4;stroke-dasharray:none;stroke-dashoffset:0;stroke-opacity:1"
       xml:space="preserve"><tspan
         y="293.5083"
         x="25.966766"
         id="tspan853"
         sodipodi:role="line">60 Hz</tspan></text>
    <text
       id="text859"
       y="293.5083"
       x="98.47274"
       style="font-style:normal;font-variant:normal;font-weight:normal;font-stretch:normal;font-size:13.33333302px;line-height:1.25;font-family:'Liberation Sans';-inkscape-font-specification:'Liberation Sans';font-variant-ligatures:normal;font-variant-position:normal;font-variant-caps:normal;font-variant-numeric:normal;font-variant-alternates:normal;font-feature-settings:normal;text-indent:0;text-align:start;text-decoration:none;text-decoration-line:none;text-decoration-style:solid;text-decoration-color:#000000;letter-spacing:0px;word-spacing:0px;text-transform:none;writing-mode:lr-tb;direction:ltr;text-orientation:mixed;dominant-baseline:auto;baseline-shift:baseline;text-anchor:start;white-space:normal;shape-padding:0;opacity:1;vector-effect:none;fill:#000000;fill-opacity:1;stroke:none;stroke-width:0.99999994;stroke-linecap:butt;stroke-linejoin:miter;stroke-miterlimit:4;stroke-dasharray:none;stroke-dashoffset:0;stroke-opacity:1"
       xml:space="preserve"><tspan
         y="293.5083"
         x="98.47274"
         id="tspan857"
         sodipodi:role="line">72 Hz</tspan></text>
    <text
       id="text863"
       y="293.5083"
       x="171.01126"
       style="font-style:normal;font-variant:normal;font-weight:normal;font-stretch:normal;font-size:13.33333302px;line-height:1.25;font-family:'Liberation Sans';-inkscape-font-specification:'Liberation Sans';font-variant-ligatures:normal;font-variant-position:normal;font-variant-caps:normal;font-variant-numeric:normal;font-variant-alternates:normal;font-feature-settings:normal;text-indent:0;text-align:start;text-decoration:none;text-decoration-line:none;text-decoration-style:solid;text-decoration-color:#000000;letter-spacing:0px;word-spacing:0px;text-transform:none;writing-mode:lr-tb;direction:ltr;text-orientation:mixed;dominant-baseline:auto;baseline-shift:baseline;text-anchor:start;white-space:normal;shape-padding:0;opacity:1;vector-effect:none;fill:#000000;fill-opacity:1;stroke:none;stroke-width:0.99999994;stroke-linecap:butt;stroke-linejoin:miter;stroke-miterlimit:4;stroke-dasharray:none;stroke-dashoffset:0;stroke-opacity:1"
       xml:space="preserve"><tspan
         y="293.5083"
         x="171.01126"
         id="tspan861"
         sodipodi:role="line">95 Hz</tspan></text>
    <text
       id="text867"
       y="293.5083"
       x="239.61426"
       style="font-style:normal;font-variant:normal;font-weight:normal;font-stretch:normal;font-size:13.33333302px;line-height:1.25;font-family:'Liberation Sans';-inkscape-font-specification:'Liberation Sans';font-variant-ligatures:normal;font-variant-position:normal;font-variant-caps:normal;font-variant-numeric:normal;font-variant-alternates:normal;font-feature-settings:normal;text-indent:0;text-align:start;text-decoration:none;text-decoration-line:none;text-decoration-style:solid;text-decoration-color:#000000;letter-spacing:0px;word-spacing:0px;text-transform:none;writing-mode:lr-tb;direction:ltr;text-orientation:mixed;dominant-baseline:auto;baseline-shift:baseline;text-anchor:start;white-space:normal;shape-padding:0;opacity:1;vector-effect:none;fill:#000000;fill-opacity:1;stroke:none;stroke-width:0.99999994;stroke-linecap:butt;stroke-linejoin:miter;stroke-miterlimit:4;stroke-dasharray:none;stroke-dashoffset:0;stroke-opacity:1"
       xml:space="preserve"><tspan
         y="293.5083"
         x="239.61426"
         id="tspan865"
         sodipodi:role="line">109 Hz</tspan></text>
    <text
       id="text871"
       y="293.5083"
       x="312.12347"
       style="font-style:normal;font-variant:normal;font-weight:normal;font-stretch:normal;font-size:13.33333302px;line-height:1.25;font-family:'Liberation Sans';-inkscape-font-specification:'Liberation Sans';font-variant-ligatures:normal;font-variant-position:normal;font-variant-caps:normal;font-variant-numeric:normal;font-variant-alternates:normal;font-feature-settings:normal;text-indent:0;text-align:start;text-decoration:none;text-decoration-line:none;text-decoration-style:solid;text-decoration-color:#000000;letter-spacing:0px;word-spacing:0px;text-transform:none;writing-mode:lr-tb;direction:ltr;text-orientation:mixed;dominant-baseline:auto;baseline-shift:baseline;text-anchor:start;white-space:normal;shape-padding:0;opacity:1;vector-effect:none;fill:#000000;fill-opacity:1;stroke:none;stroke-width:0.99999994;stroke-linecap:butt;stroke-linejoin:miter;stroke-miterlimit:4;stroke-dasharray:none;stroke-dashoffset:0;stroke-opacity:1"
       xml:space="preserve"><tspan
         y="293.5083"
         x="312.12347"
         id="tspan869"
         sodipodi:role="line">128 Hz</tspan></text>
    <text
       id="text875"
       y="293.5083"
       x="384.63269"
       style="font-style:normal;font-variant:normal;font-weight:normal;font-stretch:normal;font-size:13.33333302px;line-height:1.25;font-family:'Liberation Sans';-inkscape-font-specification:'Liberation Sans';font-variant-ligatures:normal;font-variant-position:normal;font-variant-caps:normal;font-variant-numeric:normal;font-variant-alternates:normal;font-feature-settings:normal;text-indent:0;text-align:start;text-decoration:none;text-decoration-line:none;text-decoration-style:solid;text-decoration-color:#000000;letter-spacing:0px;word-spacing:0px;text-transform:none;writing-mode:lr-tb;direction:ltr;text-orientation:mixed;dominant-baseline:auto;baseline-shift:baseline;text-anchor:start;white-space:normal;shape-padding:0;opacity:1;vector-effect:none;fill:#000000;fill-opacity:1;stroke:none;stroke-width:0.99999994;stroke-linecap:butt;stroke-linejoin:miter;stroke-miterlimit:4;stroke-dasharray:none;stroke-dashoffset:0;stroke-opacity:1"
       xml:space="preserve"><tspan
         y="293.5083"
         x="384.63269"
         id="tspan873"
         sodipodi:role="line">175 Hz</tspan></text>
  </g>
  <g
     id="g913"
     transform="translate(0,-53.572792)">
    <text
       id="text879"
       y="335.83453"
       x="21.097994"
       style="font-style:normal;font-variant:normal;font-weight:normal;font-stretch:normal;font-size:13.33333302px;line-height:1.25;font-family:'Liberation Sans';-inkscape-font-specification:'Liberation Sans';font-variant-ligatures:normal;font-variant-position:normal;font-variant-caps:normal;font-variant-numeric:normal;font-variant-alternates:normal;font-feature-settings:normal;text-indent:0;text-align:start;text-decoration:none;text-decoration-line:none;text-decoration-style:solid;text-decoration-color:#000000;letter-spacing:0px;word-spacing:0px;text-transform:none;writing-mode:lr-tb;direction:ltr;text-orientation:mixed;dominant-baseline:auto;baseline-shift:baseline;text-anchor:start;white-space:normal;shape-padding:0;opacity:1;vector-effect:none;fill:#000000;fill-opacity:1;stroke:none;stroke-width:0.99999994;stroke-linecap:butt;stroke-linejoin:miter;stroke-miterlimit:4;stroke-dasharray:none;stroke-dashoffset:0;stroke-opacity:1"
       xml:space="preserve"><tspan
         y="335.83453"
         x="21.097994"
         id="tspan877"
         sodipodi:role="line">240 Hz</tspan></text>
    <text
       id="text883"
       y="335.83453"
       x="94.012131"
       style="font-style:normal;font-variant:normal;font-weight:normal;font-stretch:normal;font-size:13.33333302px;line-height:1.25;font-family:'Liberation Sans';-inkscape-font-specification:'Liberation Sans';font-variant-ligatures:normal;font-variant-position:normal;font-variant-caps:normal;font-variant-numeric:normal;font-variant-alternates:normal;font-feature-settings:normal;text-indent:0;text-align:start;text-decoration:none;text-decoration-line:none;text-decoration-style:solid;text-decoration-color:#000000;letter-spacing:0px;word-spacing:0px;text-transform:none;writing-mode:lr-tb;direction:ltr;text-orientation:mixed;dominant-baseline:auto;baseline-shift:baseline;text-anchor:start;white-space:normal;shape-padding:0;opacity:1;vector-effect:none;fill:#000000;fill-opacity:1;stroke:none;stroke-width:0.99999994;stroke-linecap:butt;stroke-linejoin:miter;stroke-miterlimit:4;stroke-dasharray:none;stroke-dashoffset:0;stroke-opacity:1"
       xml:space="preserve"><tspan
         y="335.83453"
         x="94.012131"
         id="tspan881"
         sodipodi:role="line">378 Hz</tspan></text>
    <text
       id="text887"
       y="335.83453"
       x="166.84488"
       style="font-style:normal;font-variant:normal;font-weight:normal;font-stretch:normal;font-size:13.33333302px;line-height:1.25;font-family:'Liberation Sans';-inkscape-font-specification:'Liberation Sans';font-variant-ligatures:normal;font-variant-position:normal;font-variant-caps:normal;font-variant-numeric:normal;font-variant-alternates:normal;font-feature-settings:normal;text-indent:0;text-align:start;text-decoration:none;text-decoration-line:none;text-decoration-style:solid;text-decoration-color:#000000;letter-spacing:0px;word-spacing:0px;text-transform:none;writing-mode:lr-tb;direction:ltr;text-orientation:mixed;dominant-baseline:auto;baseline-shift:baseline;text-anchor:start;white-space:normal;shape-padding:0;opacity:1;vector-effect:none;fill:#000000;fill-opacity:1;stroke:none;stroke-width:0.99999994;stroke-linecap:butt;stroke-linejoin:miter;stroke-miterlimit:4;stroke-dasharray:none;stroke-dashoffset:0;stroke-opacity:1"
       xml:space="preserve"><tspan
         y="335.83453"
         x="166.84488"
         id="tspan885"
         sodipodi:role="line">338 Hz</tspan></text>
    <text
       id="text891"
       y="335.83453"
       x="239.67764"
       style="font-style:normal;font-variant:normal;font-weight:normal;font-stretch:normal;font-size:13.33333302px;line-height:1.25;font-family:'Liberation Sans';-inkscape-font-specification:'Liberation Sans';font-variant-ligatures:normal;font-variant-position:normal;font-variant-caps:normal;font-variant-numeric:normal;font-variant-alternates:normal;font-feature-settings:normal;text-indent:0;text-align:start;text-decoration:none;text-decoration-line:none;text-decoration-style:solid;text-decoration-color:#000000;letter-spacing:0px;word-spacing:0px;text-transform:none;writing-mode:lr-tb;direction:ltr;text-orientation:mixed;dominant-baseline:auto;baseline-shift:baseline;text-anchor:start;white-space:normal;shape-padding:0;opacity:1;vector-effect:none;fill:#000000;fill-opacity:1;stroke:none;stroke-width:0.99999994;stroke-linecap:butt;stroke-linejoin:miter;stroke-miterlimit:4;stroke-dasharray:none;stroke-dashoffset:0;stroke-opacity:1"
       xml:space="preserve"><tspan
         y="335.83453"
         x="239.67764"
         id="tspan889"
         sodipodi:role="line">352 Hz</tspan></text>
    <text
       id="text895"
       y="335.83453"
       x="312.61133"
       style="font-style:normal;font-variant:normal;font-weight:normal;font-stretch:normal;font-size:13.33333302px;line-height:1.25;font-family:'Liberation Sans';-inkscape-font-specification:'Liberation Sans';font-variant-ligatures:normal;font-variant-position:normal;font-variant-caps:normal;font-variant-numeric:normal;font-variant-alternates:normal;font-feature-settings:normal;text-indent:0;text-align:start;text-decoration:none;text-decoration-line:none;text-decoration-style:solid;text-decoration-color:#000000;letter-spacing:0px;word-spacing:0px;text-transform:none;writing-mode:lr-tb;direction:ltr;text-orientation:mixed;dominant-baseline:auto;baseline-shift:baseline;text-anchor:start;white-space:normal;shape-padding:0;opacity:1;vector-effect:none;fill:#000000;fill-opacity:1;stroke:none;stroke-width:0.99999994;stroke-linecap:butt;stroke-linejoin:miter;stroke-miterlimit:4;stroke-dasharray:none;stroke-dashoffset:0;stroke-opacity:1"
       xml:space="preserve"><tspan
         y="335.83453"
         x="312.61133"
         id="tspan893"
         sodipodi:role="line">426 Hz</tspan></text>
    <text
       id="text899"
       y="335.83453"
       x="385.44409"
       style="font-style:normal;font-variant:normal;font-weight:normal;font-stretch:normal;font-size:13.33333302px;line-height:1.25;font-family:'Liberation Sans';-inkscape-font-specification:'Liberation Sans';font-variant-ligatures:normal;font-variant-position:normal;font-variant-caps:normal;font-variant-numeric:normal;font-variant-alternates:normal;font-feature-settings:normal;text-indent:0;text-align:start;text-decoration:none;text-decoration-line:none;text-decoration-style:solid;text-decoration-color:#000000;letter-spacing:0px;word-spacing:0px;text-transform:none;writing-mode:lr-tb;direction:ltr;text-orientation:mixed;dominant-baseline:auto;baseline-shift:baseline;text-anchor:start;white-space:normal;shape-padding:0;opacity:1;vector-effect:none;fill:#000000;fill-opacity:1;stroke:none;stroke-width:0.99999994;stroke-linecap:butt;stroke-linejoin:miter;stroke-miterlimit:4;stroke-dasharray:none;stroke-dashoffset:0;stroke-opacity:1"
       xml:space="preserve"><tspan
         y="335.83453"
         x="385.44409"
         id="tspan897"
         sodipodi:role="line">478 Hz</tspan></text>
  </g>
</svg>
