<?xml version="1.0" encoding="UTF-8" standalone="no"?>
<!-- Generator: Adobe Illustrator 11 Build 196, SVG Export Plug-In . SVG Version: 6.0.0 Build 78)  -->

<svg
   xmlns:xapGImg="http://ns.adobe.com/xap/1.0/g/img/"
   xmlns:xap="http://ns.adobe.com/xap/1.0/"
   xmlns:x="adobe:ns:meta/"
   xmlns:dc="http://purl.org/dc/elements/1.1/"
   xmlns:cc="http://creativecommons.org/ns#"
   xmlns:rdf="http://www.w3.org/1999/02/22-rdf-syntax-ns#"
   xmlns:svg="http://www.w3.org/2000/svg"
   xmlns="http://www.w3.org/2000/svg"
   xmlns:sodipodi="http://sodipodi.sourceforge.net/DTD/sodipodi-0.dtd"
   xmlns:inkscape="http://www.inkscape.org/namespaces/inkscape"
   width="147.419"
   height="104.333"
   viewBox="0 0 147.419 104.333"
   style="overflow:visible;enable-background:new 0 0 147.419 104.333"
   xml:space="preserve"
   id="svg2"
   version="1.1"
   sodipodi:docname="squaretorque-fac.svg"><defs
     id="defs133" /><sodipodi:namedview
     pagecolor="#ffffff"
     bordercolor="#666666"
     borderopacity="1"
     objecttolerance="10"
     gridtolerance="10"
     guidetolerance="10"
     inkscape:pageopacity="0"
     inkscape:pageshadow="2"
     inkscape:window-width="1280"
     inkscape:window-height="997"
     id="namedview131"
     showgrid="false"
     inkscape:zoom="2.2619881"
     inkscape:cx="73.709503"
     inkscape:cy="52.1665"
     inkscape:window-x="0"
     inkscape:window-y="0"
     inkscape:window-maximized="1"
     inkscape:current-layer="svg2" /><rect
     style="color:#000000;clip-rule:nonzero;display:inline;overflow:visible;visibility:visible;opacity:1;isolation:auto;mix-blend-mode:normal;color-interpolation:sRGB;color-interpolation-filters:linearRGB;solid-color:#000000;solid-opacity:1;fill:#dedede;fill-opacity:1;fill-rule:nonzero;stroke:none;stroke-width:0.875;stroke-linecap:butt;stroke-linejoin:miter;stroke-miterlimit:1;stroke-dasharray:none;stroke-dashoffset:0;stroke-opacity:1;color-rendering:auto;image-rendering:auto;shape-rendering:auto;text-rendering:auto;enable-background:accumulate"
     id="rect4323"
     width="184.25197"
     height="100.3542"
     x="-0.44208899"
     y="-11.26267" /><g
     id="g7"
     transform="translate(9.7259576,0)"><circle
       id="circle9"
       r="3.526"
       cy="69.411003"
       cx="56.044998"
       style="fill:none;stroke:#000000;stroke-width:0.5" /><circle
       id="circle11"
       r="0.78500003"
       cy="69.411003"
       cx="56.044998"
       style="stroke:#000000;stroke-width:0.5" /></g><g
     id="g13"
     transform="translate(9.7259576,0)"><line
       id="line15"
       y2="39.976002"
       x2="103.106"
       y1="44.874001"
       x1="98.208"
       style="fill:none;stroke:#000000;stroke-width:0.5" /><g
       id="g17"><circle
         id="circle19"
         r="3.526"
         cy="42.424999"
         cx="100.657"
         style="fill:none;stroke:#000000;stroke-width:0.5" /><line
         id="line21"
         y2="39.976002"
         x2="98.208"
         y1="44.874001"
         x1="103.106"
         style="fill:none;stroke:#000000;stroke-width:0.5" /></g></g><g
     id="g4334"><g
       transform="translate(41.114275,11.936403)"
       id="g23"><g
         id="g25"><line
           style="fill:none;stroke:#000000;stroke-width:0.5"
           x1="98.849998"
           y1="32.798"
           x2="98.849998"
           y2="20.132999"
           id="line27" /><path
           d="m 98.85,17.745 c 0.417,1.124 1.128,2.518 1.882,3.382 l -1.882,-0.681 -1.882,0.681 c 0.753,-0.864 1.465,-2.258 1.882,-3.382 z"
           id="path29"
           inkscape:connector-curvature="0" /></g><g
         id="g31"><text
           transform="translate(95.4209,14.5928)"
           id="text33"><tspan
             x="0"
             y="0"
             style="font-size:10px;font-family:Helvetica-Bold"
             id="tspan35">B</tspan></text>
</g></g></g><g
     id="g4325"><g
       transform="translate(-34.040852,-11.936403)"
       id="g37"><g
         id="g39"><line
           style="fill:none;stroke:#000000;stroke-width:0.5"
           x1="54.821999"
           y1="59.134998"
           x2="54.821999"
           y2="46.471001"
           id="line41" /><path
           d="m 54.822,44.082 c 0.417,1.124 1.129,2.518 1.882,3.382 l -1.882,-0.681 -1.881,0.681 c 0.753,-0.864 1.465,-2.258 1.881,-3.382 z"
           id="path43"
           inkscape:connector-curvature="0" /></g><g
         id="g45"><text
           transform="translate(51.394,40.9297)"
           id="text47"><tspan
             x="0"
             y="0"
             style="font-size:10px;font-family:Helvetica-Bold"
             id="tspan49">B</tspan></text>
</g></g></g><path
     inkscape:connector-curvature="0"
     id="path51"
     d="m 114.71696,39.526 c -1.564,-2.55 -4.9,-3.349 -7.45,-1.784 -0.215,0.131 -0.398,0.292 -0.587,0.447 l -44.091002,27.054 0.008,0.013 c -2.448,1.597 -3.204,4.853 -1.666,7.36 1.538,2.506 4.784,3.308 7.315,1.849 l 0.008,0.013 L 113.03496,47 l -0.042,-0.069 c 2.498,-1.581 3.275,-4.877 1.724,-7.405 z"
     style="fill:none;stroke:#000000;stroke-width:0.5" /><g
     id="g109"
     transform="translate(9.7259576,0)"><line
       id="line111"
       y2="15.82"
       x2="59.383999"
       y1="43.776001"
       x1="77.539001"
       style="fill:none;stroke:#000000;stroke-width:0.5" /><path
       inkscape:connector-curvature="0"
       id="path113"
       d="m 57.741,13.29 c 1.215,0.904 2.929,1.892 4.321,2.289 l -2.462,0.573 -1.525,2.016 c 0.203,-1.434 -0.003,-3.401 -0.334,-4.878 z" /></g><g
     id="g115"
     transform="translate(9.7259576,0)"><text
       id="text117"
       transform="translate(49.5005,10)"><tspan
         id="tspan119"
         style="font-size:10px;font-family:Helvetica-Bold"
         y="0"
         x="0">m</tspan></text>
</g><path
     inkscape:connector-curvature="0"
     id="path121"
     d="m 87.448958,22.409 c -0.062,0 -0.123,0 -0.185,0 -4.321,0 -8.342,1.282 -11.704,3.487"
     style="fill:none;stroke:#000000;stroke-width:0.5" /><g
     id="g123"
     transform="translate(9.7259576,0)"><text
       id="text125"
       transform="translate(69.0757,20.4165)"><tspan
         id="tspan127"
         style="font-size:10px;font-family:Symbol"
         y="0"
         x="0">θ</tspan></text>
</g><line
     id="line129"
     y2="44.667"
     x2="87.448959"
     y1="12.667"
     x1="87.448959"
     style="fill:none;stroke:#000000;stroke-width:0.5;stroke-dasharray:2" /></svg>
