<?xml version="1.0" encoding="UTF-8" standalone="no"?>
<svg
   xmlns:dc="http://purl.org/dc/elements/1.1/"
   xmlns:cc="http://creativecommons.org/ns#"
   xmlns:rdf="http://www.w3.org/1999/02/22-rdf-syntax-ns#"
   xmlns:svg="http://www.w3.org/2000/svg"
   xmlns="http://www.w3.org/2000/svg"
   xmlns:sodipodi="http://sodipodi.sourceforge.net/DTD/sodipodi-0.dtd"
   xmlns:inkscape="http://www.inkscape.org/namespaces/inkscape"
   version="1.0"
   width="1070.000000pt"
   height="1538.000000pt"
   viewBox="0 0 1070.000000 1538.000000"
   preserveAspectRatio="xMidYMid meet"
   id="svg54"
   sodipodi:docname="pushmi-pullyu.svg"
   inkscape:version="0.92.3 (2405546, 2018-03-11)">
  <defs
     id="defs58" />
  <sodipodi:namedview
     pagecolor="#ffffff"
     bordercolor="#666666"
     borderopacity="1"
     objecttolerance="10"
     gridtolerance="10"
     guidetolerance="10"
     inkscape:pageopacity="0"
     inkscape:pageshadow="2"
     inkscape:window-width="1280"
     inkscape:window-height="996"
     id="namedview56"
     showgrid="false"
     inkscape:zoom="0.34586492"
     inkscape:cx="301.04042"
     inkscape:cy="953.95724"
     inkscape:window-x="0"
     inkscape:window-y="0"
     inkscape:window-maximized="1"
     inkscape:current-layer="svg54" />
  <metadata
     id="metadata2">
Created by potrace 1.15, written by Peter Selinger 2001-2017
<rdf:RDF>
  <cc:Work
     rdf:about="">
    <dc:format>image/svg+xml</dc:format>
    <dc:type
       rdf:resource="http://purl.org/dc/dcmitype/StillImage" />
  </cc:Work>
</rdf:RDF>
</metadata>
  <g
     id="g855"
     transform="matrix(0.16669278,0,0,0.16669278,163.74666,214.62976)">
    <path
       d="m 188.6,52.3 c -2.3,1.8 -2.8,2.9 -2.3,4.8 1.1,4 4.6,8.9 7.1,9.9 1.3,0.4 3.3,2.3 4.4,4.2 1.2,1.8 3,3.9 4.1,4.5 1.1,0.7 2.8,2.8 3.8,4.7 1,1.9 4.6,5.7 8,8.6 3.4,2.9 6,5.6 5.8,6 -0.3,0.4 0.2,2.7 1,5 0.8,2.3 1.2,4.6 0.9,5.1 -0.9,1.5 1.5,7.5 3.8,9.5 2.6,2.4 9.8,13.4 9.8,15.1 0,0.7 0.9,2.1 2,3 1.1,1 2,2.7 2,3.9 0,2.2 4.4,11.9 5.8,12.8 0.4,0.2 0.9,1.9 1,3.8 0.2,1.8 1.2,5 2.2,7.1 1.2,2.2 2,5.7 2,8.7 0,3.4 0.5,5.2 1.5,5.8 1.1,0.6 1.7,2.7 1.9,6.5 0.2,3.6 0.9,6.4 1.9,7.5 0.9,1 1.7,3.1 1.7,4.6 0,1.5 0.7,3.8 1.6,5.1 1,1.5 2,6.4 2.6,12.3 0.5,5.3 1.4,13.1 1.9,17.2 0.9,6.6 2.8,34.5 2.9,42.5 0.1,1.6 -0.2,16.8 -0.5,33.7 -0.5,22.1 -0.3,31.2 0.5,32.8 0.8,1.4 1.1,10.2 1,27.3 0,13.9 -0.1,26.1 -0.1,27.2 0,2.3 0.7,9.1 2.3,22.4 1,8.3 0.9,9.7 -0.6,12.6 -2.8,5.1 -1.9,7.8 2.9,8.8 2.2,0.5 6,1.5 8.5,2.2 l 4.5,1.3 0.2,5.8 c 0,3.3 -0.1,7.1 -0.4,8.6 -0.4,2.5 -0.9,2.8 -4.4,2.8 -3.4,0 -4.1,-0.4 -5.1,-2.8 -0.6,-1.5 -1.1,-4.8 -1,-7.5 0.1,-4 -0.3,-5 -2.4,-6.4 -3.2,-2.1 -4.6,-0.8 -4.6,4.4 0,2.1 -0.5,4.7 -1.1,5.8 -0.6,1.1 -1.1,9.9 -1.3,20.5 -0.3,17.7 -0.7,24.3 -2,32 -0.3,1.9 -0.9,7.1 -1.4,11.5 -0.4,4.4 -1.4,11.8 -2,16.5 -0.7,4.7 -1.2,9.2 -1.2,10 0.1,1.9 -1.8,14 -2.5,16 -0.3,1.1 -1.4,0.5 -3.9,-2.4 -1.9,-2.2 -3.4,-4.5 -3.4,-5.1 0,-0.7 -0.7,-1.8 -1.5,-2.5 -2.5,-2.1 -6.5,-11.7 -6.5,-15.8 0,-2.3 -1.4,-6.4 -3.6,-10.7 -2,-3.9 -4,-9 -4.5,-11.4 -0.5,-2.5 -1.7,-5.6 -2.6,-7 -1,-1.4 -1.8,-2.8 -1.9,-3.1 -1.7,-8.3 -3.4,-10 -9.8,-10 -9.9,0 -13,6 -8.1,15.7 2.8,5.5 4,9.4 5.4,16.8 0.9,4.8 2.2,7.4 5,9.7 1.1,0.9 2.3,3.4 2.6,5.5 0.3,2.1 1.1,4.7 1.7,5.7 0.5,1.1 1.2,2.9 1.3,4 1.2,7.3 2,10.5 3.5,13.6 1,1.9 2.1,6.9 2.5,11 0.4,4.1 1.4,8.7 2.1,10.2 0.8,1.5 1.4,5.7 1.4,9.6 0,4.3 0.6,8.1 1.6,10 0.8,1.8 1.4,4.3 1.2,5.6 -0.1,1.3 0.6,3.3 1.6,4.5 1.7,1.8 1.8,2.4 0.6,4.5 -0.7,1.5 -1,3.6 -0.6,5.3 0.4,1.5 0.9,11.3 1.2,21.8 0.2,10.4 0.9,20.2 1.5,21.7 0.8,1.8 0.8,3.2 0,4.6 -1.4,2.6 -1.4,6.8 -0.1,9.2 1.4,2.6 1.5,16.9 0.1,18.3 -0.7,0.7 -1.1,5.8 -1.1,13.3 0,7.2 -0.4,12.5 -1,12.9 -0.6,0.4 -1,1.8 -0.9,3.3 0.1,1.5 -0.5,4.1 -1.2,5.9 -1.1,2.6 -1.1,3.6 0,5.7 1,1.8 1.2,3.9 0.6,7.3 -1.1,6.2 -1,10.3 0.2,18.6 0.7,5.2 0.7,7 -0.3,7.8 -0.9,0.7 -1.3,5.2 -1.4,15.2 -0.1,19.1 -1.5,36.4 -3,38.2 -0.9,1.1 -1,3 -0.6,6.3 0.4,2.6 1,8 1.2,12.1 0.2,4 0.9,8.1 1.4,9.1 0.6,1 1,2.9 1,4.2 0,1.3 0.5,2.9 1,3.4 0.8,0.8 0.8,1.9 0,3.8 -1.4,3.7 -1.3,9.2 0.2,11.9 0.7,1.2 1.3,6.6 1.4,12.2 0.2,5.5 0.6,13 1,16.6 0.5,4.7 0.3,7.2 -0.7,9 -0.9,1.7 -1.2,6.4 -1,17.2 0.1,10.3 -0.2,15.3 -1,16.3 -0.9,1.1 -0.9,2.1 0,4.2 1.2,2.9 0.9,11.6 -0.8,20 -0.9,4.3 -0.4,21.5 0.6,24.2 1,2.7 1.2,25.9 0.2,26.5 -1.1,0.8 -1,15.3 0.2,16.1 1.3,0.7 1.1,4.8 -0.3,7.9 -0.9,1.9 -0.8,3.1 0.1,4.9 1,1.7 1,2.9 0.2,4.3 -0.5,1.1 -0.7,2.3 -0.3,2.7 0.3,0.4 0.7,3.4 0.8,6.6 0,3.3 0.6,6.6 1.3,7.4 0.9,1 1.2,8.7 1.2,27.8 0.1,16 0.5,26.8 1.1,27.5 0.5,0.7 0.6,1.8 0.2,2.5 -1,1.5 -2.5,12 -2.4,16.3 0.1,4.9 0.8,44.9 1,60.7 0.1,8.8 -0.3,15.5 -0.9,16.7 -1.5,2.8 -1.3,10.2 0.3,12.4 1,1.3 1.1,2.8 0.5,5.5 -1.1,5.2 -1.1,11.2 0.2,22.7 1.5,13.1 1.4,18.4 -0.5,24.9 -1.9,6.4 -2.1,12.9 -0.4,15.5 0.9,1.5 0.9,2.5 0,4.6 -0.7,1.4 -1.2,3.5 -1.2,4.6 0,1 -0.8,3.8 -1.9,6.2 -3.1,7.1 -3.9,9.9 -4.4,16.2 -0.5,5.3 -2.1,11.9 -4.6,18 -1.6,3.9 -3.1,9.2 -3.1,10.9 0,0.9 -0.7,1.9 -1.5,2.2 -1.8,0.7 -6.5,8.6 -6.5,11.1 0,1 -1.4,4.2 -3,7.2 -1.7,3 -3,6.4 -3,7.6 0,2.7 -8.2,11.2 -12.5,13.1 -3.9,1.6 -7.4,4.9 -10.4,9.6 -1.2,2.1 -2.9,3.8 -3.6,3.8 -1.8,0 -6.5,5.7 -6.5,8 0,0.9 0.6,2.3 1.4,2.9 0.8,0.7 2.6,3.7 4.1,6.7 2.1,4.3 2.6,6.5 2.2,9.6 -0.6,4.6 -4.1,8.8 -7.3,8.8 -1.2,0 -2.7,0.7 -3.5,1.6 -1,1.3 -2.4,1.4 -6.6,0.9 -4.5,-0.5 -5.7,-0.3 -7.9,1.4 -1.5,1.2 -3.5,2.1 -4.5,2.1 -1.1,0 -2.1,0.9 -2.5,2.4 -0.3,1.3 -1.9,3.3 -3.5,4.5 -1.6,1.2 -2.9,2.8 -2.9,3.6 0,1.1 -1.3,1.5 -5.2,1.5 -3.3,0 -5.8,0.6 -6.9,1.6 -1,0.9 -3.7,1.8 -6.1,2.1 -8.2,1.1 -16.9,9.9 -15.4,15.7 1,4.2 5.9,3.5 13,-1.8 5.8,-4.3 7,-4.7 18.6,-6.2 2.4,-0.4 5.3,-1.2 6.5,-1.9 1.2,-0.8 3.9,-1.2 7,-0.9 2.7,0.2 6.4,-0.2 8.2,-0.8 2.5,-0.9 4.6,-0.9 8.6,-0.1 4.8,1 6.4,0.8 14.3,-1.4 4.9,-1.3 10.5,-2.8 12.5,-3.2 1.9,-0.4 4.1,-1.1 4.7,-1.5 1.8,-1.1 1.4,-3.4 -0.7,-4.6 -2.5,-1.3 -12.7,-1.3 -15.2,0.1 -1.1,0.5 -4.8,1.2 -8.2,1.4 -7.9,0.6 -12.6,1.5 -13.3,2.6 -1,1.6 -8.1,1 -10.5,-1 l -2.3,-1.8 2.8,-2.6 c 1.8,-1.7 4.3,-2.7 7.4,-3 9,-1 11.7,-2 18.4,-6.5 4.2,-2.7 7.5,-4.3 8.6,-4 1.1,0.3 3,-0.3 4.3,-1.3 2.4,-1.9 2.4,-2 0.5,-3.4 -1.1,-0.8 -2.6,-1.5 -3.3,-1.5 -1.6,0 -1.8,-6.2 -0.3,-9 0.9,-1.7 2.2,-1.8 16.4,-1.5 12.7,0.3 15.5,0.2 16,-1 0.3,-0.8 -0.2,-2.2 -1.1,-3 -1.6,-1.7 -1.7,-1.7 -22.9,-0.3 -1.7,0.1 -5.3,-0.9 -8,-2.3 -4.3,-2.1 -4.9,-2.8 -5.2,-5.9 -0.4,-4.8 3.6,-8.7 13.8,-13.6 7.7,-3.7 12.7,-3.4 22.7,1.1 1.7,0.8 3.8,1.5 4.6,1.5 1.9,0 4.1,-2.6 3.3,-3.9 -1.2,-1.9 -11.9,-6.1 -15.6,-6.1 -6.1,0 -6.9,-5 -1.5,-9.3 l 3.5,-2.8 2.8,2.1 c 1.6,1.2 3.9,2.2 5.3,2.4 1.3,0.1 3.4,0.8 4.5,1.4 1.2,0.6 5.7,1.8 10,2.6 4.4,0.8 10.8,2.1 14.4,2.9 4.5,1 6.9,1.2 7.8,0.5 0.9,-0.8 1.2,-0.5 1.2,0.9 0,2.3 -4.8,5.3 -8.5,5.3 -3.5,0 -8.1,3.3 -8.9,6.3 -0.3,1.3 -2.4,3.8 -4.6,5.6 -2.2,1.7 -4,3.7 -4,4.4 0,0.7 -2,2 -4.4,3 -4.8,2 -5.6,3.8 -5.6,12.4 0,2.4 -0.5,5.4 -1.1,6.6 -1.4,2.4 -1.2,16.2 0.2,18.8 1.5,2.9 7,6.2 10.8,6.6 2,0.2 7.2,0.6 11.6,0.9 6.2,0.4 8.5,1 10.2,2.6 1.8,1.7 3.4,2 9.3,1.9 4.6,-0.1 8,0.4 10,1.4 1.6,0.8 4.2,1.5 5.8,1.5 1.5,0 3.3,0.5 4,1.2 1,1 8.3,1.4 14.7,0.8 1.1,-0.1 6.3,0.1 11.5,0.5 9.2,0.7 9.8,0.6 17,-2.5 9.6,-4 12.8,-5 16.5,-5 1.7,0 3.5,-0.4 4.1,-0.9 1.3,-1.3 5.4,-1.6 8.3,-0.7 1.3,0.5 3.8,0.9 5.5,1.1 1.7,0.2 7.2,1.1 12.1,2 5,1 11.7,1.9 15.1,2 3.3,0.1 6.6,0.5 7.2,0.9 1.3,0.8 14.1,2.1 19.7,1.9 14.5,-0.4 27.1,-2.1 31.7,-4.4 2.1,-1.1 4.2,-1.9 4.7,-1.9 0.6,0 3.9,-1.4 7.3,-3.1 8.6,-4.2 18.5,-4.8 22.7,-1.4 1.9,1.7 4.6,2.6 9.2,3.1 3.5,0.4 7.9,1.3 9.8,2.1 1.8,0.8 3.5,1.2 3.8,0.9 0.3,-0.2 1.9,0.2 3.7,0.9 2.9,1.2 3.6,1.2 5.5,-0.1 1.9,-1.4 2.6,-1.4 6.7,0.2 3.9,1.5 5,1.5 8.7,0.4 2.3,-0.7 10.4,-1.4 18.1,-1.5 11.1,-0.2 14.4,0 16.6,1.3 2.6,1.5 3,1.5 5.6,-0.3 3.9,-2.7 8.2,-4.5 10.5,-4.5 3,0 13.7,-5.7 14.9,-7.9 3.6,-6.7 -1.2,-16.6 -10.8,-22.5 -3.3,-2 -6.4,-3.6 -6.9,-3.6 -0.6,0 -2.3,-1 -3.9,-2.2 -3.3,-2.6 -9.4,-6.2 -14.4,-8.4 -1.9,-0.9 -4.3,-2.3 -5.2,-3.1 -1.8,-1.6 -9.9,-2 -20.1,-1.1 -2.8,0.3 -5.1,0 -5.5,-0.6 -1.2,-2 -0.8,-11.1 0.7,-14.4 1.4,-3.1 1.4,-3.3 -1.2,-6 -1.5,-1.5 -2.7,-3.3 -2.7,-3.9 0,-6.8 -15.8,-24.6 -26.3,-29.5 -5.6,-2.6 -15.3,-9.9 -18.5,-13.7 -0.6,-0.8 -1.2,-3.1 -1.2,-5.2 0,-2 -0.8,-4.7 -1.9,-6 -1,-1.3 -2.6,-4 -3.6,-5.9 -5,-9.7 -14.1,-17.1 -20.3,-16.5 -2.1,0.1 -4.4,-0.3 -5.2,-0.9 -0.8,-0.7 -4.2,-2.1 -7.5,-3.1 -19,-5.7 -44.5,-20.8 -44.5,-26.3 0,-2.6 -6.2,-11.6 -10.7,-15.6 -4.5,-3.9 -7.8,-9 -6.9,-10.5 0.3,-0.4 -0.1,-1.7 -0.9,-2.7 -0.8,-1 -1.5,-2.5 -1.5,-3.3 0,-2.6 -5.2,-11.7 -8.9,-15.6 -4.1,-4.3 -9.1,-14.2 -9.1,-18.1 0,-2.3 -2,-10.7 -3.7,-15.4 -1.2,-3.3 1,-37.8 2.6,-40.8 1.6,-2.9 1.8,-27.1 0.2,-29.9 -1.5,-3 -1.4,-4.8 0.8,-9.3 1.3,-2.8 1.7,-5.2 1.3,-8.9 -0.3,-3.5 0,-5.8 1,-7.3 2.6,-4.1 2.8,-9.3 0.6,-15.5 -3.5,-9.4 -5.9,-30.7 -4,-34.7 2,-4.1 3.2,-8.9 3.2,-12.7 0,-2.1 0.5,-4.1 1.1,-4.4 1.7,-1.1 2.7,-4.8 1.8,-7.2 -0.9,-2.4 1.9,-18.4 3.5,-19.5 0.5,-0.4 2.2,-0.1 3.6,0.7 1.4,0.7 4.1,2 6.1,2.9 2,0.9 4.2,2.2 4.9,3.1 2.3,2.8 8,1.8 14.4,-2.5 3.2,-2.2 6.3,-4 6.8,-4 1.9,0 10.9,5.1 14.4,8.2 3.4,3 4.3,3.3 10.7,3.4 6.8,0.1 7.1,0.2 10.1,3.7 3.3,3.9 4.5,4.3 7.7,2.6 1.9,-1 1.9,-1.2 0.4,-3.5 -1.3,-2.1 -1.4,-2.4 -0.1,-2.4 0.9,0 3.9,-1.1 6.8,-2.4 6.3,-2.9 15.2,-12.3 23.1,-24.3 2.9,-4.4 6.1,-8.8 7,-9.7 0.9,-1 1.7,-2.2 1.7,-2.7 0,-0.5 0.6,-0.9 1.4,-0.9 0.7,0 2.6,-1.8 4.1,-4 1.5,-2.2 3.1,-4 3.6,-4 0.4,0 1.5,-0.8 2.5,-1.7 3.1,-3.2 14.8,-12.3 15.9,-12.4 1.3,0 7.7,-4.9 15,-11.3 3.2,-2.8 6.8,-5 8.3,-5.2 1.5,-0.1 5.4,-0.9 8.7,-1.8 3.3,-0.8 8,-1.5 10.5,-1.6 2.6,0 5.2,-0.6 5.8,-1.2 0.9,-0.9 5.4,-1.4 13.4,-1.5 10,-0.2 12.9,-0.7 16.6,-2.4 5,-2.4 5.8,-3.8 4.2,-6.8 -0.9,-1.8 -1.4,-1.9 -3.1,-1 -1.2,0.6 -2.3,0.8 -2.6,0.5 -0.3,-0.2 -1.7,0 -3.2,0.6 -1.4,0.6 -7.5,1.2 -13.6,1.3 -12.6,0.3 -21.1,1.3 -24,2.8 -1.1,0.6 -2.8,1 -3.8,0.8 -3.5,-0.5 -14.3,4.3 -22.2,9.9 -2.8,2 -6.3,4.2 -7.8,5 -1.6,0.8 -3.9,2.6 -5.1,4 -1.2,1.4 -3.7,3.3 -5.6,4.4 -1.9,1 -4.4,2.8 -5.5,4 -1.1,1.2 -4,3.5 -6.4,5.1 -6.1,4.1 -13.3,11.2 -16.6,16.5 -1.5,2.5 -4.1,6.1 -5.7,8 -1.6,1.9 -5.1,6.3 -7.8,9.8 -10.6,13.7 -20.2,17.6 -33.3,13.6 -8.4,-2.5 -14.4,-5.5 -17.4,-8.6 -2.3,-2.5 -2.6,-3.1 -1.5,-4.8 0.7,-1.1 1.2,-2.9 1.2,-4.1 0,-1.3 2,-4.1 4.9,-6.9 2.6,-2.6 5,-5.2 5.2,-5.8 0.9,-2.3 9.1,-10.2 12.2,-11.5 7.8,-3.5 9.8,-3.9 15,-3.3 4.2,0.6 5.6,0.4 6.6,-0.8 1.1,-1.3 0.8,-2.1 -2.2,-5.1 -3.8,-3.8 -5.2,-4.1 -10.6,-2.4 -8.8,2.9 -11.4,4.1 -17,8.5 -5.6,4.3 -15.1,15.1 -15.1,17.1 0,0.5 -1.3,1.7 -3,2.6 -1.6,1 -3,2.6 -3,3.5 0,1 -1.3,3.3 -3,5.2 -1.6,1.9 -2.9,4 -3,4.5 0,0.6 -2.3,2.8 -5.1,4.9 -5.2,3.8 -5.2,3.8 -8.6,2.2 -1.8,-0.9 -4.1,-1.6 -4.9,-1.6 -3,0 -10,-6.1 -15.3,-13.4 l -3.4,-4.7 0.2,-11 c 0.2,-11.3 0.7,-13 5.4,-19 1.5,-2 2.7,-4.5 2.7,-5.6 0,-1 2,-4.3 4.5,-7.2 2.5,-2.9 4.5,-5.6 4.5,-6.1 0,-0.5 2.2,-2.4 4.9,-4.4 2.6,-1.9 6,-5.3 7.4,-7.5 1.8,-2.7 3.5,-4 5.9,-4.5 1.8,-0.3 5.3,-2 7.7,-3.6 2.5,-1.7 5.1,-2.8 5.8,-2.6 1.1,0.5 3.6,-0.5 7.3,-2.9 0.8,-0.5 2.2,-1 3,-1.2 0.8,-0.1 3.3,-0.4 5.5,-0.8 2.3,-0.3 5.6,-1.5 7.5,-2.7 1.9,-1.2 4.4,-2.2 5.5,-2.2 1.2,-0.1 3.4,-1 5,-2.1 1.7,-1 3.5,-2 4,-2 0.6,0 2,-0.4 3.3,-0.9 1.4,-0.5 2.8,-0.3 3.7,0.4 1.1,0.9 1.1,1.6 0,4.4 -1.4,3.4 -0.6,5.6 2,5.6 2.2,0 4.8,-3.8 4.2,-6.2 -0.6,-2.4 -0.3,-2.8 10.6,-11.9 2,-1.7 3.7,-3.8 3.7,-4.6 0,-0.8 1,-2.8 2.3,-4.3 1.2,-1.5 3,-4 3.9,-5.6 1,-1.6 2.2,-3.6 2.7,-4.4 1.4,-2.4 2.7,-6 5.1,-14 2.1,-6.8 3.5,-9.9 7.2,-15.9 3,-5 13.8,-9.2 23.3,-9.1 10.8,0.1 21.3,2.9 28.6,7.5 5.7,3.7 10.6,4.5 11.6,1.9 0.3,-0.8 -0.1,-2.2 -0.8,-2.9 -2,-2 -15.1,-8.7 -15.7,-8 -0.3,0.3 -1.2,-0.1 -2.1,-0.9 -2,-1.7 -6,-2.5 -18.3,-3.6 -5.3,-0.4 -11,-1.1 -12.7,-1.5 -2.3,-0.5 -4.1,-0.1 -6.8,1.5 -2.8,1.7 -5.6,2.2 -13.7,2.4 -5.5,0.2 -11,0.7 -12,1.2 -1.8,0.7 -7.7,0.8 -14,0.2 -1.9,-0.2 -3.1,0.3 -3.7,1.4 -0.5,1 -1.3,2.6 -1.7,3.5 -0.5,1 -2.2,2.2 -3.9,2.8 -3,1 -13.5,10.6 -15.6,14.3 -0.7,1.1 -3,4.6 -5.1,7.8 -2.2,3.3 -4.6,8.1 -5.4,10.7 -0.9,3.3 -2.1,5.1 -3.7,5.7 -2.7,1 -6.5,5.6 -6.5,8 0,0.9 -0.9,2.5 -2,3.5 -1.1,1 -2,2.2 -2,2.7 0,2.1 -5.6,9 -8.9,11 -2,1.2 -5.5,4.3 -7.9,7 -2.4,2.6 -5.6,5.1 -7.2,5.5 -3.5,0.9 -16,12.8 -16,15.2 0,0.9 -1.8,3.9 -4.1,6.6 -2.3,2.7 -5.2,7 -6.5,9.5 -1.4,2.5 -4,6.9 -5.8,9.8 -3.3,5.2 -4.2,9.3 -5,21.7 -0.3,4 0.3,6 2.5,10.1 2.4,4.3 2.9,6.3 3,12.9 0.1,4.4 -0.3,8.1 -1,8.8 -0.7,0.7 -1.1,5.2 -1.1,11.3 0,5.8 -0.4,10.6 -1,10.9 -0.6,0.3 -1,1.7 -1,3.1 0,1.4 -0.5,3.4 -1,4.4 -0.6,1.1 -1.5,5.7 -2.1,10.2 -1.1,8.4 -2.8,11.8 -5.9,11.8 -2.3,0 -4.3,-4.7 -4.1,-9.2 0.1,-2 -0.7,-5.8 -1.8,-8.4 -1.7,-3.6 -2.1,-6.7 -2.1,-14.2 0,-8.6 -0.2,-9.8 -2.5,-12.8 -2.2,-2.9 -2.3,-3.3 -0.9,-4.5 1.7,-1.4 1.6,-4.6 -0.4,-13.4 -0.5,-2.2 -1.7,-7.6 -2.7,-12 -0.9,-4.4 -2,-8.6 -2.5,-9.5 -0.7,-1.4 -2.4,-31.7 -2.2,-39 0,-1.9 0.3,-12.3 0.5,-23 0.4,-18.3 0.3,-19.7 -1.6,-22.4 -2.4,-3.4 -1.6,-5.3 3.3,-7.8 4,-2 5,-3.4 5,-7 0,-2.7 -4.1,-11 -6.7,-13.6 -1.6,-1.7 -5.3,-8.7 -5.3,-10.1 0,-0.6 -1.8,-3.7 -4,-6.8 -2.2,-3.2 -4,-6.6 -4,-7.5 0,-0.9 -0.5,-2 -1,-2.3 -0.6,-0.4 -1.9,-2.4 -3,-4.5 -2.2,-4.2 -2.8,-16.4 -1,-17.5 0.5,-0.3 1,-1.9 1,-3.5 0,-1.9 1.3,-4.2 4,-7.1 2.2,-2.4 4,-4.7 4,-5.1 0,-0.5 3,-4 6.7,-7.9 5,-5.2 7.2,-8.4 8.1,-11.8 0.8,-2.5 3,-6.6 5.1,-9.1 7.1,-8.6 8.5,-12 6.7,-16.6 -1,-2.5 -2.4,-1.5 -5.6,4.1 -2.1,3.7 -3.6,5.2 -4.5,4.8 -1.7,-0.6 -1.9,-2.5 -0.5,-3.9 0.5,-0.5 1.2,-3.6 1.5,-6.9 0.3,-3.3 0.9,-7.1 1.4,-8.5 0.5,-1.4 1.2,-5.9 1.5,-10 0.5,-7.8 1.9,-17.6 3.6,-27 0.6,-3 1.5,-7.8 2,-10.5 1.2,-6.8 2.6,-13.2 4,-18 0.6,-2.2 1.3,-4.9 1.6,-6 0.3,-1.1 1.4,-6.8 2.4,-12.7 1,-5.8 2.3,-11.5 2.9,-12.7 0.6,-1.2 1.6,-3 2.1,-4.1 0.6,-1.1 1,-3.3 1,-5 0,-1.7 0.7,-4.7 1.5,-6.8 0.9,-2 1.9,-5.2 2.3,-7.2 0.9,-4.7 0.4,-15 -0.8,-16.5 -0.6,-0.7 -1.2,-3.9 -1.4,-7.1 -0.2,-3.3 -1.4,-8.6 -2.6,-11.9 -2.2,-6 -3.3,-10.4 -4.8,-20.3 -0.9,-5.7 -2.3,-7.9 -4.2,-6.7 -1.8,1.1 -0.7,24.6 1.4,30.5 0.9,2.5 1.6,7 1.6,10 0,3 0.7,7.4 1.5,9.7 2.2,6.3 1.9,17.6 -0.5,20.8 -0.4,0.5 -1.1,3.2 -1.5,6 -0.4,2.7 -1.2,5.9 -1.8,7 -0.6,1.1 -1.4,4.5 -1.8,7.5 -0.3,3 -1.7,8.2 -2.9,11.5 -1.3,3.3 -2.7,8.5 -3.1,11.5 -1.1,8 -2.7,14.7 -4.3,18.3 -0.8,1.8 -1.8,7.2 -2.1,12.2 -0.4,4.9 -1.8,13.6 -3.1,19.2 -1.3,5.7 -2.4,12.6 -2.4,15.5 0,2.9 -0.7,7.3 -1.6,9.8 -0.9,2.5 -1.8,8.8 -2,14 -0.6,14.5 -2.4,19.2 -11.3,28.2 -9.6,9.7 -12.1,13.4 -13.8,19.9 -1.3,5.1 -1.4,7.2 -0.4,11.1 0.6,2.7 1.1,6.6 1.1,8.7 0,3.1 0.8,4.4 4.5,8.1 3.3,3.3 4.5,5.2 4.5,7.5 0.1,1.7 1.3,4.7 3,7 5.8,7.8 6.4,10 4.7,17.9 -0.9,3.9 -1.3,7.4 -1.1,7.8 0.3,0.4 0.7,4.9 0.9,10 0.2,5.1 0.9,12.9 1.5,17.3 0.6,4.7 0.7,12.5 0.3,19 -0.4,6 -0.8,13.2 -0.8,16 0.1,9.2 2.6,36 3.6,36.9 0.5,0.6 0.9,3 0.9,5.4 0,2.4 0.5,5.3 1.2,6.5 0.6,1.2 1,4.5 0.9,7.3 -0.1,3.7 0.5,6.8 2.4,11 3.7,8.3 4.6,13.2 3.6,19.3 -0.5,3.1 -0.4,6.8 0.1,9 2.5,9.3 3.1,15.1 3.8,35.6 0.4,12.1 1,23.1 1.3,24.5 0.4,1.4 0.9,13.7 1.2,27.5 0.3,13.7 0.8,31.4 1.1,39.2 0.3,8.5 0.2,14.9 -0.4,16 -0.7,1.2 -0.7,3.6 -0.1,6.8 0.7,3.9 0.6,5.6 -0.7,8.4 -2.4,4.9 -4.4,12.9 -4.4,17.3 0,5.7 1.8,8.5 7.6,11.8 3.5,1.9 6,4.3 7.5,7 1.2,2.2 2.6,4 3.1,4 2.1,0 4.7,6.5 4.7,11.7 0,3.4 0.6,6.4 1.6,7.9 1.7,2.6 1.3,6 -0.5,4.9 -0.6,-0.4 -4.8,-0.6 -9.4,-0.6 -9.5,0.1 -14.9,1.9 -20.8,7.3 -2,1.8 -5.3,4.5 -7.2,6.1 -1.9,1.5 -4.3,4.4 -5.2,6.5 -1,2 -3.3,5.4 -5.1,7.5 -1.8,2 -3.3,4.3 -3.3,5.1 0,1.9 -2.6,2.8 -3.8,1.3 -1.3,-1.6 -4.2,-17.2 -4.2,-22.6 0,-2.3 -0.5,-5.1 -1.1,-6.2 -0.6,-1.1 -1.1,-3.5 -1.1,-5.2 0,-1.8 -0.5,-3.7 -1,-4.3 -0.4,-0.6 -1.3,-6.3 -1.9,-12.5 -0.6,-6.3 -1.5,-11.9 -2,-12.5 -0.5,-0.6 -0.8,-4.6 -0.7,-9 0.2,-7.3 -0.7,-12 -3.5,-18.1 -0.6,-1.4 -0.7,-6.7 -0.1,-15 2,-29.1 0.5,-90 -2.6,-110.3 -0.5,-3.6 -1.3,-9.8 -1.6,-13.8 -0.4,-4 -1.1,-7.5 -1.5,-7.8 -0.5,-0.3 -0.9,-2.8 -0.9,-5.5 0,-2.8 -0.5,-6 -1.2,-7.2 -0.6,-1.2 -1.2,-5.1 -1.3,-8.7 -0.3,-6.2 -2.4,-18.4 -4.7,-26.1 -0.5,-1.9 -0.8,-6.6 -0.5,-10.5 1,-13.4 0.4,-55 -0.7,-56.1 -0.4,-0.4 -2.7,-1.2 -5.1,-1.9 -3.5,-0.8 -4.9,-0.8 -6.3,0.2 -1.9,1.3 -17.6,2.3 -18.8,1.1 -0.3,-0.3 -1,-4.3 -1.5,-8.9 -0.7,-7.4 -0.6,-8.5 1,-10.2 1.5,-1.4 2.3,-1.6 3.9,-0.7 1.1,0.6 5.6,1.1 9.9,1.1 4.8,0 8.4,0.5 9.1,1.2 0.7,0.7 1.2,3.6 1.2,6.4 0,2.9 0.5,5.6 1,5.9 1.8,1.1 4,-1.6 4,-4.9 0,-1.7 0.4,-4.7 1,-6.6 2.3,-8.3 3,-64.7 1.1,-80.5 -0.6,-5 -1.5,-15.3 -2.1,-23 -0.5,-7.7 -1.4,-16.3 -2,-19 -1.5,-6.6 -3.2,-18.4 -3.2,-21.5 0,-1.4 0.3,-13.9 0.7,-27.8 0.5,-19.4 0.4,-25.7 -0.6,-26.8 -1,-1.2 -0.8,-2.2 1,-5.4 2.8,-5 2.8,-15.1 0,-17.6 -1.5,-1.4 -1.9,-1.4 -2.3,-0.3 -0.3,0.8 -1.5,4 -2.7,7.3 -1.5,4.2 -2,7 -1.5,10 1.6,10.5 1.4,13.3 -0.9,17.2 -1.7,2.8 -3.3,4.1 -6.5,5 -3.8,1.1 -4.7,1.1 -8.1,-0.7 -4.7,-2.3 -5.3,-4.2 -4.5,-14.4 0.4,-6.3 0.9,-8 2.6,-9.2 2.2,-1.5 2.7,-6.2 0.9,-8 -0.6,-0.6 -0.9,-2.8 -0.6,-5 1,-7.2 1.3,-7.8 3.8,-7.5 1.3,0.2 5.8,0.6 9.9,0.9 6.5,0.4 7.7,0.2 9.1,-1.4 3.3,-4 4.8,-11.7 5.8,-30.3 0.7,-12.2 1.6,-20 2.7,-23 1.1,-3 1.4,-6.1 1,-9.5 -0.3,-2.7 -0.1,-6.3 0.4,-8 0.5,-1.6 1.4,-7.1 2,-12 0.6,-5 1.5,-11.9 2,-15.5 0.8,-5.5 0.6,-6.7 -0.8,-8.3 -1.4,-1.6 -1.4,-2.1 -0.2,-4 2.3,-3.7 4.9,-18.6 5.4,-30.7 0.4,-10.1 0.2,-11.8 -1.4,-14 -1.7,-2.3 -2.4,-2.4 -8.7,-2.2 -6.5,0.3 -6.9,0.2 -9.6,-2.7 -1.6,-1.9 -3.7,-3.1 -5.2,-3.1 -2.2,0 -2.5,-0.4 -2.5,-3.3 0.1,-5.5 1.4,-6.2 11.4,-6.2 8.3,0.1 8.9,0.2 10.2,2.5 0.7,1.4 1.4,3.6 1.4,5 0.1,6.8 4,5.3 4,-1.6 0,-13.8 1.3,-37.1 2.1,-37.9 1.2,-1.2 1.2,-21.1 -0.1,-23.5 -0.8,-1.5 -1.1,-13.5 -0.8,-34.5 0.1,-1.7 0.5,-5.9 1,-9.5 1.3,-8.9 1.1,-22.2 -0.4,-26.7 -0.9,-2.6 -1.1,-7.1 -0.8,-13.8 0.3,-5.5 0.3,-16.8 0,-25 -0.3,-8.3 -0.1,-19.5 0.3,-25 0.4,-5.5 0.7,-12 0.7,-14.5 -0.3,-9.2 -0.3,-15.7 -0.2,-25 0.1,-5.2 -0.1,-14.6 -0.4,-20.7 -0.5,-9.9 -0.8,-11.4 -2.6,-12.7 -1.8,-1.3 -2.4,-1.3 -5.5,0.4 -2.3,1.2 -4.3,1.6 -6.1,1.1 -2.3,-0.6 -2.7,-1.3 -2.8,-4.7 -0.1,-2.1 0.5,-4.9 1.3,-6.2 1.2,-1.9 2,-2.2 5.6,-1.8 2.3,0.3 4.3,0.5 4.3,0.5 0.1,0.1 0.5,1.2 0.8,2.6 0.7,2.6 3.1,3.4 3.8,1.2 0.3,-0.6 0.1,-5 -0.4,-9.7 -0.7,-6.2 -0.5,-13.1 0.6,-25.5 0.8,-9.4 1.3,-18.3 0.9,-19.8 -0.6,-2.9 -0.3,-3.8 3.5,-11.7 1.2,-2.5 2.2,-5.5 2.2,-6.8 0,-3.7 3.5,-15.2 7.4,-23.9 2,-4.5 3.6,-8.7 3.6,-9.5 0.1,-0.7 2.1,-4.5 4.5,-8.3 2.5,-3.9 5.1,-8.4 5.8,-10 0.8,-1.7 2.1,-3.8 2.9,-4.6 0.9,-0.8 2.3,-3.1 3.3,-4.9 1,-1.9 3.9,-6 6.5,-9 2.6,-3 5.2,-6.5 5.9,-7.8 1.4,-2.5 5.8,-3 6.7,-0.7 1.4,3.5 4.4,0.9 4.4,-3.9 0,-1.2 1.4,-4.8 3.1,-8.1 3.2,-6 4.6,-13.8 3,-16.3 -1.6,-2.6 -8.6,0.3 -12.7,5.4 -2.1,2.5 -5.8,5.6 -8.3,6.9 -6.6,3.3 -31,29.1 -31.1,32.7 -0.1,0.7 -1.4,2.9 -3,4.8 -1.7,1.9 -3,3.8 -3,4.3 0,0.5 -1.3,2.8 -3,5.2 -1.6,2.4 -3,4.7 -3,5 0,0.4 -0.8,1.9 -1.8,3.3 -2.3,3.2 -4.5,11.7 -3.7,14.1 0.3,1 2.8,2.7 5.5,3.9 4,1.8 5,2.7 5,4.6 0,1.3 -0.7,2.9 -1.6,3.7 -1.3,1.1 -2.1,1 -5.1,-0.6 -1.9,-1.1 -3.8,-2.6 -4.1,-3.5 -0.3,-0.8 -1.9,-2.9 -3.6,-4.6 -3.9,-3.9 -6,-9.3 -11.5,-30.2 -0.5,-1.9 -1.6,-4.1 -2.3,-5 -2.3,-2.7 -6.5,-11.7 -7.3,-15.3 -0.4,-1.9 -1.4,-4.2 -2.3,-5.2 -0.8,-0.9 -1.2,-1.7 -0.8,-1.7 0.9,0 -4.2,-9.6 -5.9,-11 -0.7,-0.6 -1.9,-3.1 -2.6,-5.5 -0.8,-2.7 -3.2,-6.5 -6.2,-9.7 C 235.8,88.5 232,82 232,79 c 0,-0.9 -1.1,-2.7 -2.5,-4 -1.4,-1.3 -2.5,-2.8 -2.5,-3.3 0,-1.9 -7.5,-9.9 -11.1,-11.7 -3.6,-1.9 -3.7,-1.9 -5.4,0 -2.3,2.6 -3.3,2.5 -4.6,-0.3 -0.9,-2.1 -2.9,-3.6 -10.4,-7.9 -3.8,-2.2 -3.5,-2.2 -6.9,0.5 z m 36.6,32.9 c 1.3,1.8 3,4.6 3.8,6.1 1.7,3.3 5.1,7.2 6.8,7.8 0.7,0.2 1.4,1.8 1.6,3.4 0.4,3 4,10.1 6.2,12 0.6,0.5 1.6,2.8 2.2,5.1 0.7,2.2 2.5,5.5 4.2,7.2 1.6,1.7 3.2,4.4 3.6,5.9 0.4,1.5 1.5,3.9 2.6,5.2 1,1.3 1.8,3.3 1.8,4.5 0,1.1 1.2,3.9 2.5,6.1 1.4,2.2 2.5,4.9 2.5,6.1 0,2.3 2.6,8 4,8.9 1.2,0.7 3,6.5 4.1,13 1.8,10.9 2.1,11.6 4.8,12.7 1.4,0.6 4.1,1 5.9,0.9 7.9,-0.4 10,3.5 5.7,10.1 -2.3,3.4 -3.1,3.9 -5.3,3.5 -1.5,-0.3 -4.2,-0.8 -6,-1.2 -8.1,-1.6 -12.2,-6.2 -12.2,-13.6 0,-3.3 -0.9,-6.4 -3,-10.4 -1.6,-3.1 -3,-6.6 -3,-7.6 0,-1.1 -0.9,-3.9 -2,-6.1 -1.1,-2.4 -2,-6.2 -2,-8.8 0,-6.1 -3.5,-17 -6,-18.5 -0.6,-0.4 -0.8,-1.1 -0.4,-1.6 0.3,-0.5 -0.2,-2.2 -1.2,-3.7 -1,-1.5 -2.9,-5 -4.3,-7.7 -1.4,-2.8 -4.2,-7.1 -6.3,-9.6 -2.1,-2.5 -4,-5.6 -4.3,-6.8 -0.2,-1.1 -0.7,-2.6 -1,-3.1 -0.4,-0.6 -0.8,-2.6 -1,-4.6 -0.4,-4.5 -5.1,-14.1 -7.6,-15.4 -2.2,-1.2 -2.5,-3 -0.5,-3 0.7,0 2.4,1.5 3.8,3.2 z M 345,105.3 c 0,0.7 -0.9,1.8 -2,2.4 -2.6,1.7 -4,-0.5 -1.5,-2.4 2.3,-1.6 3.5,-1.7 3.5,0 z m -10.5,9.8 c 0.4,1.1 0.5,2.1 0.3,2.2 -0.1,0.1 -2.2,1.7 -4.5,3.5 -4.8,3.7 -7.3,4.1 -7.3,1.2 0,-1.2 1.8,-3.3 4.8,-5.5 5.5,-4.1 5.9,-4.1 6.7,-1.4 z M 321,131 c 0,0.6 -0.4,1.6 -1,2.3 -5.8,7.2 -5.5,7 -8.8,6.2 -1.8,-0.3 -3.2,-1.1 -3.2,-1.7 0,-2.1 7.4,-7.8 10.2,-7.8 1.5,0 2.8,0.5 2.8,1 z m -10.4,14.1 c 1.6,1.3 0.6,4.6 -1.6,5.2 -1.1,0.3 -2.2,1.8 -2.6,3.3 -1.2,5 -2.1,5.5 -6,3.2 -2,-1.2 -3.1,-2.5 -2.7,-3.1 2.3,-3.7 5.5,-8.2 6.3,-8.7 1.6,-1 5.4,-0.9 6.6,0.1 z M 300,164.6 c 0,2.2 -3.3,8.4 -4.4,8.4 -6.1,-0.1 -7.8,-4 -3.5,-8 3.2,-2.8 7.9,-3.1 7.9,-0.4 z m -17.7,44.3 c 2.1,0.1 2.7,0.6 2.7,2.4 0,1.3 -0.9,3.2 -2,4.2 -1.1,1 -2,2.4 -2,3.1 0,2.4 -4.9,2.8 -7.8,0.7 -2.8,-2.1 -4.7,-8 -3.1,-9.9 0.5,-0.6 2.8,-1 5.1,-0.9 2.4,0.1 5.5,0.3 7.1,0.4 z m -2,19.9 c 2,1.7 2.2,9.8 0.3,11 -1.7,1 -4,1.2 -5.2,0.4 -1.9,-1.3 -5.4,-7 -5.4,-8.8 0,-4.7 6.1,-6.3 10.3,-2.6 z m -1.1,18.1 c 2.1,0.8 2.3,1.4 2.1,7.2 -0.1,3.5 -0.2,6.8 -0.2,7.3 -0.1,1.2 -5.3,-0.3 -7.3,-2.1 -1.7,-1.5 -3.4,-10.5 -2.3,-12.3 0.8,-1.2 4.6,-1.3 7.7,-0.1 z m 4.2,49.9 c -0.4,3 -0.7,7.7 -0.8,10.6 -0.1,4.3 -0.4,5.1 -2.2,5.4 -1.9,0.3 -7.4,-3.2 -7.4,-4.7 0,-0.3 1.4,-1.2 3.1,-1.8 2.9,-1.1 3.1,-1.5 2.5,-4.4 -0.3,-1.7 -1.7,-4.4 -3.1,-6.1 -3,-3.6 -3.1,-5.2 -0.5,-7.8 l 2.1,-2.1 3.5,2.7 c 3.5,2.7 3.5,2.8 2.8,8.2 z m 0,27.4 c 0,1 -0.1,3.6 -0.2,5.9 l -0.2,4 -4.7,-0.3 -4.8,-0.3 -0.3,-4.9 c -0.4,-5.7 0.3,-6.4 6.1,-6.2 3.3,0.1 4.2,0.5 4.1,1.8 z m 1.8,18.3 c -0.2,1.6 -0.9,3.6 -1.4,4.2 -0.6,0.7 -0.8,1.9 -0.5,2.6 0.3,0.7 -0.3,2.4 -1.2,3.6 -3.3,4.4 -7.4,-0.2 -7.4,-8.3 0,-3.7 2.8,-5.8 7.3,-5.4 3.2,0.3 3.5,0.5 3.2,3.3 z m -3,19.4 c 2.1,3 1.1,9.6 -1.6,10.9 -3.4,1.5 -5,-0.1 -5.1,-5 -0.1,-2.4 -0.5,-5.1 -0.9,-6.1 -0.7,-1.4 -0.3,-1.7 2.7,-1.7 2.4,0 4,0.6 4.9,1.9 z m 2.4,19.5 c 0.1,0 0.5,1.5 0.8,3.2 0.6,2.5 0.2,3.8 -1.7,6 -2.2,2.5 -2.8,2.7 -5,1.7 -2,-1 -2.6,-2 -2.9,-5.8 -0.2,-2.5 0.1,-5 0.6,-5.5 0.8,-0.8 7.3,-0.4 8.2,0.4 z m -2.2,20.7 c 2.6,2.1 3.4,6 1.8,8.7 -1.2,1.7 -4.9,2.3 -6,0.9 -1.2,-1.6 -3,-8.9 -2.4,-10.5 0.6,-1.8 3.6,-1.5 6.6,0.9 z m 3.1,23.2 c 0,3.2 -0.4,6.2 -1,6.7 -0.5,0.4 -2.7,0.1 -4.7,-0.7 -3,-1.2 -3.9,-2.2 -4.4,-4.8 -0.3,-1.9 -0.3,-3.9 0.1,-4.5 1,-1.7 4.6,-2.9 7.5,-2.7 2.4,0.2 2.5,0.5 2.5,6 z m 1.4,37 c 0.7,0.9 0.8,2.4 0.1,4.8 -0.6,1.8 -1,4.6 -1,6.1 0,3.7 -2.2,4.7 -8.1,3.5 -4.4,-0.9 -5.2,-1.4 -6.5,-4.6 -1.6,-3.9 -1.3,-7.1 1.2,-9.5 2,-2 12.6,-2.2 14.3,-0.3 z m -4.4,21.2 c 1.8,0.4 2,1.2 1.9,8.4 -0.1,4.3 -0.4,8.4 -0.8,8.9 -0.7,1.2 -11.5,0.4 -13.3,-1 -0.8,-0.7 -0.9,-1.7 -0.3,-3.4 0.6,-1.4 1.1,-4.6 1.1,-7.2 0.1,-2.6 0.6,-5.2 1.1,-5.9 0.8,-1 4.1,-1 10.3,0.2 z m 2.2,25.2 c 1.5,1.9 0.1,6.8 -2.9,10.1 -2,2.1 -2.9,2.3 -6.7,1.8 -2.4,-0.3 -5,-1.1 -5.7,-1.7 -2.2,-1.8 -1.7,-7.3 0.9,-10.1 2.1,-2.3 3,-2.5 7.8,-2.1 3,0.3 5.9,1.2 6.6,2 z m -57.9,8.1 c 1.2,4.7 1.5,7.2 0.8,7.2 -2.6,0 -5.6,-9.9 -4.2,-13.6 0.9,-2.4 1.4,-1.6 3.4,6.4 z m 50.7,9.8 c 2.8,0.2 5.6,0.3 6.3,0.3 0.7,0.1 1.2,1.7 1.2,4.4 0,5.1 -3.6,9.5 -6.7,8.2 -1,-0.4 -2.9,-0.9 -4.4,-1.1 -1.4,-0.2 -3.8,-1 -5.4,-1.8 -2.6,-1.4 -2.9,-2 -2.6,-5.3 0.4,-4.8 1.8,-6.7 4.5,-5.7 1.2,0.4 4.4,0.8 7.1,1 z m -42.7,8.2 c 0.5,0.9 1.2,3.3 1.6,5.3 0.4,2.1 1.3,4.2 2.1,4.9 0.8,0.6 1.9,2.8 2.6,4.8 0.6,2 1.7,4.4 2.4,5.2 3.9,4.8 7.4,15.8 9.2,28.5 0.3,2.6 1.2,4.9 2,5.2 2.3,0.9 5.3,-2.7 5.3,-6.4 0,-2.8 0.3,-3.3 2.4,-3.3 1.4,0 2.8,0.4 3.1,1 1,1.6 5.2,1.2 5.9,-0.6 0.9,-2.3 -1.1,-4.3 -6.2,-6.5 -4.7,-2.1 -6.1,-4.2 -4.4,-7 0.7,-1 1.2,-2.8 1.2,-3.9 0,-2.4 0.4,-2.4 3.3,-0.6 1.9,1.2 7.8,2.5 13.8,3.1 3.1,0.4 3.9,1.7 3.9,6.5 0,4.6 -0.2,5 -2.7,5.6 -3.5,0.8 -5.5,2.3 -4.7,3.5 0.3,0.5 2.1,1.6 4,2.4 2.8,1.1 3.4,1.9 3.4,4.4 0,5.1 -1.9,8.1 -4.9,7.6 -1.4,-0.2 -4.7,-0.6 -7.4,-0.9 -4.5,-0.5 -4.7,-0.5 -3.7,1.4 0.8,1.6 2.1,2 5.9,2 5.6,0 7.6,1.7 8.6,7.2 0.6,3.4 0.5,3.8 -1.3,3.8 -1.2,0 -2.3,0.4 -2.6,0.8 -0.7,1.1 -15.4,1.4 -16,0.3 -0.5,-0.8 -7.7,-2.2 -11.1,-2.2 -2,0 -5.3,-4 -4.8,-6 0.3,-1 -0.2,-3.6 -1,-5.8 -0.9,-2.2 -2.1,-7.5 -2.6,-11.9 -0.6,-4.3 -1.7,-9.9 -2.5,-12.3 -0.9,-2.4 -1.6,-5.8 -1.6,-7.5 0,-1.7 -1.1,-5.3 -2.5,-8 -2.7,-5.3 -3,-7.5 -1.5,-10.4 0.7,-1.3 0.7,-2.1 0,-2.5 -1.7,-1.1 -4.7,-7.9 -4.2,-9.7 0.3,-1.4 0.7,-1.6 2.2,-0.8 1.1,0.6 2.4,1.8 2.8,2.8 z m 22.2,80.3 c 3,0.5 8.8,1 12.8,1 4,0.1 7.4,0.5 7.7,0.9 0.2,0.3 0.2,1.6 -0.1,2.7 -0.7,2.5 -9.6,5.6 -14.6,5.2 -1.8,-0.2 -6.6,-2.3 -10.6,-4.7 -6.1,-3.7 -7.1,-4.6 -6.1,-5.9 0.8,-0.9 2,-1.2 3.3,-0.8 1.2,0.4 4.6,1.1 7.6,1.6 z m -1.2,12.8 c 7.6,2.6 9.2,2.9 9.8,2 1,-1.7 10.2,-1.1 11.2,0.7 1.1,2 0.1,6.9 -2.4,12 -1.5,3 -2.5,3.8 -4.7,3.9 -2.9,0.1 -4.8,2 -4.1,4 0.3,0.6 1.9,1.8 3.7,2.6 3.4,1.5 4.7,5 2.8,7.2 -0.6,0.7 -0.9,5.7 -0.7,11.9 0.3,10.2 0.2,10.8 -2,12.9 -3,2.8 -3.1,6 -0.3,7.7 1.6,1.1 2,1.9 1.4,4 -0.4,1.5 -1,5.2 -1.3,8.2 l -0.7,5.5 -6.5,-0.3 c -8.8,-0.4 -12,-1.7 -12.2,-5.1 -0.6,-9.7 -0.3,-12.3 1.5,-13.6 1.1,-0.7 2.5,-1.1 3.2,-0.9 0.7,0.3 1.6,0.1 2,-0.5 0.3,-0.6 1.5,-1.1 2.6,-1.1 3.9,0 1.5,-3.2 -3.3,-4.4 -2.8,-0.6 -6.7,-6.5 -6.2,-9.4 0.1,-0.6 0.2,-1.7 0.3,-2.3 0,-0.5 1.3,-0.9 2.9,-0.8 4.5,0.4 13.1,-1.3 14.4,-2.8 1.7,-2.1 -1.4,-4.3 -6.1,-4.3 -4.1,0 -9.3,-2.8 -11.5,-6.2 -1.3,-2 -1.4,-3.5 -0.5,-9.2 0.9,-5.3 0.8,-7.5 -0.2,-9.5 -1.6,-3.4 -2,-11.2 -0.6,-12.9 0.6,-0.7 1.8,-1.1 2.6,-0.9 0.9,0.3 3.1,1 4.9,1.6 z m 9,143.1 c 0.3,3.1 -0.2,3.9 -3.8,6.5 -2.3,1.7 -5.3,3.9 -6.7,5 -5.2,3.9 -10.1,2.8 -8.4,-1.8 0.7,-1.9 0.7,-3.4 0,-5.1 -1,-2 -0.8,-3 1.1,-5.6 2.2,-3 2.3,-3.1 9.8,-2.8 l 7.7,0.3 z m 2.3,17.2 c 0.5,6.1 -1.7,12.7 -4.4,13.3 -2.8,0.6 -14.2,2.3 -14.3,2.1 0,0 -1.2,-1.6 -2.6,-3.3 -3.8,-4.7 -2.8,-7 3.7,-8.9 2.9,-0.8 5.9,-2.1 6.5,-2.9 1.6,-1.9 10.9,-2.1 11.1,-0.3 z m -7.4,20 c 3.4,-0.7 6.1,-0.8 6.6,-0.3 0.5,0.5 1.2,3.9 1.4,7.5 0.7,7.8 0,9 -7.5,12.3 -5.2,2.3 -5.4,2.3 -10.5,0.6 -2.9,-0.9 -5.5,-2.1 -5.9,-2.7 -0.4,-0.6 -0.8,-3.9 -0.8,-7.4 0,-5.5 0.3,-6.6 2.5,-8.6 2.3,-2.1 2.9,-2.3 5.5,-1.3 2.2,0.8 4.4,0.8 8.7,-0.1 z m 9.3,27 c 0,3.1 -0.6,4.5 -2.5,6 -1.6,1.2 -2.5,3 -2.5,4.6 0,2.4 0.4,2.7 3.3,2.7 2.9,0 3.2,0.3 3.5,3.4 0.3,2.6 -0.3,4 -2.4,6.2 -1.5,1.6 -3.2,2.9 -3.8,2.9 -0.5,0 -1.7,0.7 -2.6,1.5 -1,0.9 -4.2,1.6 -8.4,1.8 -7.9,0.3 -10.2,-0.9 -9.1,-5.2 0.9,-3.7 2.2,-5 6.4,-6.1 2,-0.5 4.5,-1.6 5.6,-2.5 1.9,-1.4 1.9,-1.6 0.2,-2.9 -1.2,-0.9 -3.2,-1.2 -5.6,-0.9 -5.2,0.7 -8.3,-2.2 -7.9,-7.3 0.3,-4.9 1,-5.2 12.4,-5.8 3.4,-0.2 7.4,-1.1 9,-1.9 3.7,-2 4.4,-1.4 4.4,3.5 z m 230.5,16.7 c 0.3,0.6 -0.8,2.5 -2.3,4.3 -3,3.4 -6.7,9.8 -5.7,9.8 0.3,0 0,1 -0.6,2.2 -0.7,1.3 -1.4,3.4 -1.5,4.8 -0.5,5.8 -3.8,12 -9.5,18.1 -6.4,6.8 -9.9,11.1 -9.9,12 0,0.5 -1,1.3 -2.2,1.8 -1.3,0.5 -3.6,1.5 -5.3,2.2 -1.6,0.7 -4.1,1.4 -5.3,1.5 -1.3,0.2 -3.5,1 -4.8,1.8 -1.3,0.9 -3.3,1.6 -4.4,1.6 -1.2,0 -3.1,0.5 -4.3,1.2 -1.2,0.7 -2.6,1.2 -3.2,1.3 -2.5,0.2 -9.5,2.7 -10,3.5 -1,1.6 -7.3,4.2 -8.4,3.5 -1.6,-0.9 -1.3,-2.5 0.3,-2.5 1.5,0 7.1,-7.3 9.9,-12.9 0.9,-1.9 3.1,-5.2 4.7,-7.5 2.6,-3.5 6.4,-9 10.5,-15.5 8.4,-13.3 15.7,-22.1 18.3,-22.1 0.7,0 2,-0.4 3,-0.9 3,-1.5 6.6,-2.8 11.2,-4.1 2.5,-0.7 6.3,-1.8 8.5,-2.5 7.5,-2.5 10.1,-2.9 11,-1.6 z m -226.3,19.9 c 0,2 0.2,5 0.3,6.6 0.2,2.3 -0.6,3.8 -3.3,6.2 -4.2,3.8 -6.6,4.4 -13,3.3 -8.5,-1.6 -11.3,-5.4 -9.8,-13.5 0.6,-3.1 0.9,-3.2 5.9,-3.7 2.9,-0.2 7.7,-1.3 10.7,-2.5 6.8,-2.5 8.9,-1.7 9.2,3.6 z m -11.2,23 c 1.9,0.5 5.2,0.7 7.3,0.4 2.8,-0.3 3.7,-0.1 3.7,1.1 0,2.4 -2.8,8.3 -5.5,11.5 -2.7,3.2 -2.5,6.2 0.5,6.2 2.1,0 3.2,1.3 5,5.8 1.1,2.8 1,3.5 -0.4,5.1 -0.9,0.9 -1.6,2.6 -1.6,3.7 0,1 -0.7,2.8 -1.6,3.9 -1.3,1.7 -2.5,2 -8.2,1.8 -7.6,-0.3 -10.5,-1.9 -13.8,-7.7 -2.1,-3.6 -2.1,-4 -0.5,-7.7 1.5,-3.6 1.8,-3.8 5.1,-3.3 2.5,0.4 4,0.1 4.8,-0.9 1.5,-1.8 -0.1,-3.3 -4.3,-4.1 -1.7,-0.3 -3.5,-1.3 -4.1,-2.1 -1.4,-1.9 -1.6,-14.8 -0.2,-15.6 0.9,-0.6 7.2,0.3 13.8,1.9 z m 7.4,69.8 c 2.4,0.9 2.3,15.5 -0.1,17.6 -3.7,3.2 -7.7,4.6 -10.3,3.6 -1.4,-0.6 -3.7,-1.1 -5.1,-1.2 -2.9,-0.1 -5.9,-2.2 -5.9,-4.1 0,-0.7 -0.7,-1.8 -1.5,-2.5 -1.8,-1.5 -2,-7 -0.2,-9.4 1.3,-1.7 2.6,-2.1 14,-3.5 3.4,-0.5 6.5,-0.9 6.9,-1 0.3,0 1.3,0.2 2.2,0.5 z m 1.1,28.6 c 0.6,0.3 1,2.8 1,5.5 0,4.7 -0.1,4.8 -5,7.5 -4.2,2.3 -6.1,2.7 -11.3,2.6 -8.7,-0.3 -9.6,-1.2 -9.3,-8.4 0.1,-3.2 0.7,-6.4 1.2,-7 1,-1.3 21.5,-1.4 23.4,-0.2 z m 1.4,23 c 0.7,2.4 1.7,5.3 2.2,6.6 0.5,1.3 0.9,2.8 0.9,3.5 0,1.9 -9.2,5.7 -13.5,5.6 -10.9,-0.2 -16.6,-5 -15.6,-13 l 0.6,-4.4 6.5,-0.1 c 3.6,-0.1 7.6,-0.6 9,-1.2 1.4,-0.6 3.9,-1.1 5.6,-1.1 2.8,-0.1 3.2,0.3 4.3,4.1 z m 4.6,30.8 c 1.5,1.6 1.4,1.9 0,3.4 -1.1,1 -2.5,1.4 -4.1,1 -2.8,-0.7 -8,1.1 -8.8,3.2 -0.5,1.3 -9.5,3.1 -12.6,2.5 -3.6,-0.7 -5,-3.3 -5,-9.4 0,-8.7 0.8,-9.3 12.5,-9 5.2,0.1 10.5,-0.1 11.7,-0.6 2.1,-0.8 2.4,-0.4 3.5,3.2 0.7,2.2 2,4.8 2.8,5.7 z m 1.2,14.9 c 0.6,1 1.3,5.3 1.4,9.5 0.2,7 0,8 -2.2,10.2 -3.6,3.5 -12.3,3.5 -20.1,0 -6.7,-3.2 -8.2,-4.8 -7.5,-8.2 0.2,-1.4 0,-3.9 -0.6,-5.5 -1.7,-4.4 -0.1,-5.2 9.5,-5 5.6,0.1 9.5,-0.3 11.8,-1.3 4.7,-2 6.3,-2 7.7,0.3 z m 79.5,22.8 c 1.3,1.1 1.8,3 1.8,6.4 0,2.6 0.5,5.1 1,5.4 0.6,0.3 1,1.7 1,3.1 0,1.4 0.5,3.5 1.2,4.7 1.5,2.8 1.2,6.7 -1.3,14.2 -1.1,3.3 -2.4,7.5 -3,9.4 -0.6,1.8 -1,8.6 -0.9,15 0.2,6.4 0.4,14.1 0.4,17.1 0.1,3 -0.5,8.6 -1.1,12.4 -0.7,3.7 -1.2,9.3 -1.2,12.5 0.1,3.1 0.1,10.5 0.1,16.5 -0.1,6 0.1,11.3 0.4,11.8 0.4,0.6 1,3.5 1.4,6.6 2.4,18.3 5.5,25.6 13.9,33.6 1.7,1.6 2.8,3.3 2.5,3.8 -0.3,0.4 0.4,2.3 1.5,4.2 1.2,1.8 2.1,4 2.1,4.8 0,0.9 0.6,2.1 1.4,2.7 1.4,1.2 1.4,4 0.1,6.1 -0.3,0.6 -1.9,1 -3.4,1 -2.7,0 -3.3,-0.7 -6,-7.3 -0.6,-1.2 -1.2,-4.6 -1.5,-7.5 -0.2,-2.9 -1.3,-6.5 -2.3,-8.1 -6.2,-9.6 -8.5,-12.5 -11.9,-15 -6.3,-4.6 -7.7,-6.6 -6.4,-9 0.6,-1.2 1,-2.7 0.8,-3.4 -0.1,-0.6 0.7,-3 1.9,-5.2 1.6,-3.1 1.9,-4.5 1.1,-5.9 -0.7,-1.3 -0.7,-3 0.1,-5.5 1,-3.5 0.9,-5.9 -0.4,-10.1 -0.3,-1.1 0.1,-4.1 1,-6.7 0.9,-2.6 1.4,-5.6 1.1,-6.8 -0.3,-1.1 -0.6,-6.1 -0.7,-11 -0.1,-5 -0.5,-10 -1,-11.2 -0.4,-1.2 -0.9,-17.4 -1,-36 -0.1,-18.6 -0.5,-34.3 -0.9,-34.8 -1.1,-1.5 -2.1,-8.1 -1.3,-8.8 1.3,-1.3 7.7,-0.7 9.5,1 z m -90.8,5.4 c 3.4,-0.1 8.1,-0.3 10.6,-0.4 4.4,-0.2 4.5,-0.1 4.8,3.1 0.5,5 -1.6,6.7 -11.9,10 -4.5,1.5 -13.7,1.5 -17.8,0.1 -2.9,-1 -3.2,-1.5 -2.6,-3.8 0.4,-1.4 0.7,-4.3 0.7,-6.3 0,-4.2 1.3,-4.9 6.7,-3.5 1.9,0.5 6.2,0.8 9.5,0.8 z m 17.3,15.7 c 0.8,0.5 1.1,3.1 1,7.2 -0.2,5.6 -0.5,6.5 -2.2,6.8 -1.1,0.2 -2.7,1 -3.5,1.7 -3,2.7 -10.9,4.6 -15.8,4 -7.4,-1 -7.9,-1.3 -11.1,-6.2 -3,-4.5 -3,-4.6 -1.4,-7.4 1.7,-2.8 1.9,-2.9 10.3,-2.8 6.5,0.1 9.7,-0.4 13.5,-1.9 5.4,-2.3 7.4,-2.6 9.2,-1.4 z m -31,22.7 c 3.1,2.2 16,3.1 20.9,1.4 2.1,-0.7 4.6,-1.3 5.4,-1.4 0.8,-0.1 2.7,-0.6 4.2,-1 2,-0.5 2.8,-0.3 3.5,1.2 0.5,1 0.9,2.5 0.8,3.3 -0.1,0.8 -0.3,2.1 -0.3,2.7 -0.1,0.7 -0.9,1.3 -1.7,1.3 -1.7,0 -5.1,3.5 -7,7.3 -1.3,2.5 -1.2,2.8 0.3,2.3 5.1,-1.3 7.1,-1.5 7.7,-0.6 0.3,0.5 0.8,4.6 1,9.2 0.4,8.7 -0.7,11.8 -4.5,11.8 -1,0 -3.1,0.7 -4.6,1.5 -2.1,1.1 -6.1,1.5 -14.4,1.4 -11.5,0 -11.5,0 -13.8,-2.9 -1.9,-2.5 -2.3,-3.9 -2,-9.2 l 0.3,-6.2 6,0.3 c 7.8,0.3 16,-1.4 19.2,-3.8 l 2.4,-2 -6.8,-0.1 c -3.7,-0.1 -8.3,-0.3 -10,-0.5 -1.8,-0.1 -5.1,-0.3 -7.2,-0.4 -4.5,-0.1 -5.5,-2 -4.2,-8.8 0.5,-2.3 0.5,-4.7 0,-5.4 -1.8,-2.9 1.3,-3.8 4.8,-1.4 z m 34.7,43.3 c -0.1,0.7 -0.2,3.9 -0.2,7.2 -0.2,4.8 -0.6,6.2 -1.9,6.6 -1,0.3 -2.5,1 -3.3,1.5 -7.5,4.5 -8.9,4.9 -19.2,4.9 -6.3,0 -11.3,-0.5 -12.8,-1.3 -2.3,-1.1 -2.5,-1.9 -2.8,-8.5 -0.1,-5.2 0.1,-7.2 1,-7.3 0.7,0 6.7,-0.2 13.3,-0.3 12,-0.3 18.3,-1.2 22,-3.4 2.3,-1.3 4,-1 3.9,0.6 z m -2.3,22.9 c 1,16.7 0.8,19.8 -1.7,22.6 -2.2,2.6 -3.1,2.9 -10,3.1 -5.6,0.2 -8.5,-0.2 -11.2,-1.5 -2.1,-1 -5,-2 -6.6,-2.3 -5,-0.9 -7.4,-4.3 -7.7,-10.7 -0.1,-3 0,-6 0.4,-6.5 0.3,-0.6 4.6,-1.1 9.4,-1.1 7.7,-0.1 23.4,-3.1 25.1,-4.8 1.1,-1 2.2,-0.4 2.3,1.2 z m -29.3,28.5 c 1.5,1.5 9,2.8 17.4,3 5.1,0.1 7.2,-0.3 8.6,-1.5 1,-1 2.5,-1.7 3.3,-1.7 1.3,0 3.9,6.2 3.9,9.2 0,1.5 -4.7,4.7 -11.2,7.6 -6.4,2.8 -18.6,2.8 -24,0.1 -4.5,-2.3 -5.8,-4.5 -5.8,-9.6 0,-6.4 4.4,-10.5 7.8,-7.1 z m 34,19 c 0.5,0.7 1.2,4 1.3,7.4 0.5,7.7 -1,10 -8.7,13.9 -4.8,2.3 -7.4,2.9 -14.3,3.1 -9,0.4 -14.5,-1.4 -17.4,-5.6 -1.8,-2.7 -2.3,-13.6 -0.5,-14.2 0.7,-0.2 6.7,-0.3 13.3,-0.2 6.6,0.1 12.8,-0.3 13.8,-0.8 1,-0.5 2.8,-1.1 4,-1.3 1.1,-0.3 2.8,-1.1 3.6,-2 1.9,-1.8 3.5,-1.9 4.9,-0.3 z m 4.4,28.8 c 1,6.9 0.9,17.8 -0.2,18.5 -1.6,1 -1.2,2.3 1.6,4.8 2.3,2.2 2.7,3.4 3,10.9 l 0.5,8.5 -6.8,5.5 c -4.4,3.6 -9,6.3 -13,7.7 -6,2 -6.7,2 -16.2,0.7 -8.7,-1.2 -10.5,-1.8 -14,-4.7 -2.3,-1.8 -4.1,-3.5 -4.1,-3.9 0,-2.4 2.4,-12.7 3.2,-13.5 0.5,-0.6 4.8,-1 9.6,-1 9.9,-0.1 20,-1.1 25.4,-2.7 4.4,-1.3 8.4,-6.1 6.4,-7.7 -0.9,-0.7 -1.9,-0.6 -3.6,0.6 -1.3,0.9 -3.3,1.9 -4.5,2 -5.3,1 -22.7,1.7 -24.2,1.1 -1,-0.4 -3.5,-1 -5.7,-1.3 l -3.8,-0.6 0.6,-5.7 c 1.4,-12.8 1.9,-15.2 3.1,-16.2 0.8,-0.7 5.6,-1.3 10.7,-1.4 11.2,-0.4 23.4,-2.8 25.7,-5 2.9,-3 5.5,-1.6 6.3,3.4 z m 83.3,14 c 4.4,0 8.9,-0.1 10,-0.2 2.6,-0.2 5.7,4.2 6,8.7 0.1,2 1.2,4.8 2.4,6.3 1.1,1.5 3.3,4.4 4.7,6.5 1.3,2.1 3.3,4.1 4.2,4.4 0.9,0.3 2.8,1.6 4.2,2.8 4.3,3.8 14.8,8.4 23.7,10.5 2.8,0.6 6.9,2 8.9,3.1 2.5,1.2 5.1,1.7 7.8,1.5 3.2,-0.3 4.6,0.1 6.6,1.9 1.4,1.3 4.3,3.1 6.5,4.2 4.2,1.9 10,9.2 11.2,14.2 0.3,1.4 1.5,3.2 2.6,4 1.5,1 1.7,2.1 1.3,4.6 -0.5,2.6 -0.2,3.7 1.2,4.7 1,0.7 2.5,2.3 3.3,3.4 2,3 9.7,8.7 13.9,10.4 1.9,0.7 4.5,2.4 5.7,3.7 2,2.1 3.4,2.7 5.5,2.4 1.5,-0.2 12.2,11.6 15.7,17.2 1.1,1.8 2.2,5.8 2.5,8.8 0.3,3 1.2,7 1.9,8.9 0.8,1.9 1.5,6.1 1.6,9.2 l 0.1,5.7 -4.7,2.6 c -9.7,5.2 -10.8,5.8 -12.5,6.7 -1,0.4 -2.4,0.8 -3.2,0.8 -0.9,0 -3.2,1.1 -5.2,2.5 -2.1,1.4 -4.9,2.8 -6.3,3.2 -3.2,0.8 -10.7,5.8 -14.3,9.5 -1.7,1.9 -4,3 -6.4,3.4 -2.1,0.2 -4.5,1 -5.3,1.7 -0.9,0.7 -3.4,1.9 -5.6,2.6 -2.2,0.7 -6,2.2 -8.4,3.3 -3.1,1.4 -6.6,2 -11.9,2 -4.4,0 -9.1,0.7 -11.1,1.6 -4.4,1.8 -25.7,1.8 -28.7,-0.1 -0.5,-0.2 -3.6,-0.8 -6.9,-1.2 -3.2,-0.3 -6.6,-1 -7.5,-1.4 -0.8,-0.5 -2,-0.7 -2.5,-0.4 -0.6,0.2 -7.2,-0.6 -14.5,-1.8 -20.4,-3.2 -23.6,-3.4 -26.5,-1.5 -1.3,0.9 -4,1.6 -5.9,1.6 -2.6,0 -4.4,0.8 -6.5,2.9 -3.9,3.8 -8.4,4.3 -30.1,3.7 -17.6,-0.5 -24.3,-1.3 -30.2,-3.9 -2,-0.8 -4.6,-1.3 -5.8,-1 -1.1,0.3 -4.9,0 -8.3,-0.7 -3.4,-0.7 -7.3,-1.4 -8.7,-1.5 -1.4,0 -5.1,-1.6 -8.3,-3.4 -5.4,-3.1 -5.7,-3.4 -5.9,-7.4 -0.3,-8.5 0.4,-16.2 1.5,-17.2 0.7,-0.6 3,-3.3 5.1,-6 5,-6.2 9.3,-10.3 12,-11.1 1.1,-0.4 3.3,-2 4.9,-3.5 1.6,-1.6 3.4,-2.9 4.1,-2.9 1.7,0 6.9,-5 9.1,-8.8 1.1,-1.7 2.4,-3.2 3,-3.2 1,0 3.1,-2.6 11.3,-14.3 6.7,-9.6 8.9,-14.3 9.5,-19.8 1,-8.9 2.2,-13.2 5,-17.3 1.5,-2.1 2.7,-5 2.7,-6.4 0,-2.3 0.6,-5.1 3.3,-14.7 2,-7.3 5,-12.9 9.6,-18.1 2.5,-2.8 6,-7.1 7.7,-9.5 7.2,-10.4 8.6,-11.8 13.7,-14.3 5.2,-2.6 20.4,-4.9 26.7,-4 1.4,0.2 6.1,0.4 10.5,0.4 z m -74.8,38.6 c 0.3,0.8 0.1,2 -0.6,2.7 -0.6,0.6 -1.1,3 -1.1,5.3 0,2.4 -0.4,4.6 -1,4.9 -0.5,0.3 -1,1.7 -1,3 0,1.3 -0.4,2.7 -1,3 -0.5,0.3 -1,1.9 -1,3.4 0,3.8 -1.4,4.8 -10,7.2 -8.5,2.3 -24.9,2.8 -29.5,0.8 -1.6,-0.7 -5.5,-1.5 -8.5,-1.8 -4.8,-0.5 -5.7,-1 -7.8,-4.1 -2,-3 -2.3,-4.3 -1.7,-8.4 0.7,-5.4 2.8,-10.2 4.7,-10.8 1.9,-0.7 11.1,1.2 12.8,2.6 3.3,2.7 9.3,3.8 15,2.7 13.2,-2.6 15.7,-3.6 25,-10.2 3.1,-2.2 4.9,-2.3 5.7,-0.3 z m -54.2,36.1 c 25.7,1.4 29.8,1.4 36.2,-0.2 5,-1.3 6.8,-1.4 7.9,-0.4 2,1.6 1.8,3.1 -0.9,7.1 -1.3,1.9 -2.6,5.3 -3,7.7 -0.3,2.3 -1.8,6 -3.4,8.2 -1.5,2.2 -4,6 -5.4,8.5 -3.4,6 -5.7,7 -15.9,6.8 -10.4,-0.2 -28,-4 -30.6,-6.7 -0.4,-0.4 -1.8,-0.7 -3,-0.7 -5.9,0 -6.6,-13.3 -1.2,-22.5 0.7,-1.1 2.2,-4.1 3.5,-6.7 l 2.3,-4.7 3.7,1.6 c 2.1,0.9 6.5,1.8 9.8,2 z m 307,74.3 c 0.3,0.5 1.3,0.6 2.1,0.3 0.9,-0.3 2.7,0.5 4.2,1.9 1.5,1.3 5.2,3.7 8.2,5.3 3,1.5 6.1,3.3 6.9,3.9 0.7,0.5 2.1,1.5 3.1,2.1 9.7,5.7 13,9.2 13,13.7 0,5.2 -5.2,6.4 -32.5,7.3 -7.7,0.3 -18.9,1.1 -24.8,1.8 -7.1,0.9 -13,1 -17,0.5 -15.1,-2.1 -19.5,-3 -23.4,-5.1 -4.3,-2.2 -4.7,-3.2 -2.8,-8 0.8,-1.9 14.4,-8.7 18.7,-9.3 4.1,-0.5 9.1,-2.8 12,-5.5 5.5,-5 8.8,-7.3 12,-8.5 4,-1.4 19.4,-1.8 20.3,-0.4 z"
       id="path4"
       inkscape:connector-curvature="0"
       style="fill:#000000;stroke:none;stroke-width:0.1" />
    <path
       d="m 254.8,648.2 c 0.9,0.9 1.5,0.9 2.4,0 0.9,-0.9 0.7,-1.2 -1.2,-1.2 -1.9,0 -2.1,0.3 -1.2,1.2 z"
       id="path6"
       inkscape:connector-curvature="0"
       style="fill:#000000;stroke:none;stroke-width:0.1" />
    <path
       d="m 260,1093.9 c 0,0.5 0.7,1.1 1.5,1.5 0.9,0.3 1.5,0 1.5,-0.9 0,-0.8 -0.7,-1.5 -1.5,-1.5 -0.8,0 -1.5,0.4 -1.5,0.9 z"
       id="path8"
       inkscape:connector-curvature="0"
       style="fill:#000000;stroke:none;stroke-width:0.1" />
    <path
       d="m 412.2,51.2 c -0.7,0.7 -1.2,3.7 -1.2,6.7 0,3.9 -0.6,6.3 -1.9,8.1 l -1.9,2.4 -3.6,-1.9 c -4.8,-2.6 -7.3,-1.2 -6.8,3.6 0.5,4.9 1.8,6 6.3,5.3 3.5,-0.6 3.9,-0.4 4.9,2 2,5.5 2,7.1 -0.3,9.8 -1.2,1.5 -3.6,3 -5.4,3.4 -2.6,0.5 -3.5,0.1 -5.9,-2.5 -3.2,-3.6 -3.8,-3.7 -6.2,-1.3 -1.2,1.2 -3.2,1.9 -5.3,1.8 l -3.4,-0.1 0.2,-5 c 0.1,-2.8 0.7,-7 1.3,-9.5 1.3,-5.1 0.7,-8.5 -1.5,-9.4 -2.4,-0.9 -4.5,5.1 -4.5,12.4 0,3.4 -0.5,7 -1.1,8.1 -1,1.9 -1,1.9 -3.5,0 -1.7,-1.3 -3.5,-1.8 -5.2,-1.5 -1.5,0.2 -3.3,0 -4.1,-0.5 -1.5,-1 -0.7,-3.1 1.3,-3.1 1.7,0 2.9,-13.5 1.5,-16.2 -2,-3.8 -4.3,-1.7 -5.2,4.7 -3.8,29.2 -3.7,29 -1.2,29 1.3,0 2.6,-1.3 3.8,-3.8 1.4,-2.7 2.5,-3.7 4.2,-3.7 3.1,0 4,1.5 3.6,6.2 -0.1,2 0.2,4.6 0.8,5.7 1.7,3.2 -2.1,5.3 -8.2,4.5 -3.8,-0.5 -5.2,-0.3 -6.7,1.1 -2.5,2.3 -2.5,3.7 -0.1,5.9 1.2,1.1 2.1,1.4 2.6,0.7 0.9,-1.5 3.2,-1.4 3.8,0.2 0.2,0.7 0.1,3 -0.2,5.2 -0.6,3.2 -0.3,4.8 1.5,8 1.2,2.2 2.9,6.2 3.8,8.8 0.9,2.7 2.7,6.3 4,8 1.4,1.8 2.7,5.3 3,7.9 1.8,14.4 1.6,13.7 5.1,15.4 5.1,2.4 6.8,5.7 6.1,11.8 -0.4,3.2 -0.1,7.1 0.9,10.6 0.8,3 1.5,7.4 1.5,9.7 0,3.3 0.6,4.6 3,6.6 2.1,1.8 3.8,2.4 5.7,2.1 4.8,-0.9 6.2,-2.4 7.8,-7.9 1.7,-5.7 1.4,-8.8 -1.3,-11.8 -0.8,-0.9 -1.7,-3.9 -1.9,-6.5 -0.6,-9.4 -0.4,-24.3 0.4,-25.5 1.2,-1.9 3.3,-8 3.3,-9.9 0,-2.2 -1.8,-3.2 -3.4,-1.9 -0.7,0.6 -1.9,2.9 -2.6,5.1 -0.7,2.2 -2.1,4.2 -3.1,4.5 -2.3,0.8 -3.1,3.2 -1.3,3.9 1.8,0.7 1.8,4.4 -0.1,8.9 -1.9,4.7 -3.9,4 -5.4,-1.9 -0.9,-3.6 -1.5,-4.4 -3.5,-4.4 -3.4,0 -7.6,-5.7 -6.5,-8.8 1,-2.7 1.7,-2.8 4.4,-0.2 1.2,1.1 3.6,2.5 5.3,3 2.9,0.8 3.2,0.7 3.2,-1.4 0,-1.2 1.1,-3.2 2.5,-4.4 1.4,-1.2 2.5,-2.6 2.5,-3.2 0,-1.7 -2.9,-1.1 -4.2,0.9 -1.1,1.8 -1.4,1.8 -4,0.5 -1.8,-0.9 -2.8,-2.2 -2.6,-3.2 0.2,-1.3 -0.6,-1.8 -3.9,-2.2 -5.3,-0.6 -8.3,-3.1 -8.3,-6.9 0,-3.3 1.4,-4.8 5,-5.3 1.7,-0.2 2.7,-1.2 3.4,-3.3 0.5,-1.7 1.2,-3.9 1.7,-5 0.5,-1.1 1,-3.3 1.1,-5 0.3,-3.5 3.3,-4.6 5.2,-2 0.8,1.1 3,1.9 6.1,2.1 2.6,0.2 5,0.5 5.2,0.7 1.1,1.1 0.8,7.9 -0.4,8.8 -0.7,0.7 -1.3,1.7 -1.3,2.4 0,1.2 -4,2.9 -4.8,2.1 -0.2,-0.2 0.6,-2.3 1.8,-4.6 1.6,-3.1 1.9,-4.5 1.1,-5.3 -1.7,-1.7 -4.4,0.4 -5.6,4.1 -0.7,2.6 -1.5,3.2 -3.6,3.2 -1.5,0 -3.7,0.8 -4.9,1.8 l -2.3,1.8 2.8,2.2 c 1.7,1.3 3.6,2 4.6,1.7 1.3,-0.4 2.2,0.2 3.4,2.4 0.8,1.7 2.4,3.5 3.5,4.1 4.6,2.5 6.8,-0.5 11,-15.2 2,-6.7 2.1,-8.1 1,-10.8 -0.7,-1.7 -1.2,-5.7 -1.2,-8.8 0.1,-6.8 0.1,-8.7 0,-12.6 0,-1.7 0.6,-3.2 1.6,-3.8 0.9,-0.5 1.6,-1.8 1.6,-3 0,-1.1 1.3,-3.5 2.8,-5.2 2.4,-2.7 3.2,-3.1 5,-2.3 1.5,0.7 3.5,0.6 6.5,-0.3 2.4,-0.8 10.3,-1.4 18.7,-1.6 12.1,-0.2 15.5,0.1 20.1,1.6 3.1,1.1 7.1,2.1 9,2.3 1.9,0.2 5.2,1.3 7.4,2.5 3.9,2.1 9.5,6.6 9.5,7.7 0,0.3 0.8,1.3 1.8,2.3 4.8,5.2 9.7,12.8 11.7,18.2 0.9,2.5 2.2,6 2.9,7.8 0.7,1.9 2.5,4.6 4.1,6 l 2.7,2.7 -0.5,-6.7 c -0.3,-4.2 -1.2,-8 -2.4,-10.1 -1.1,-1.8 -2.6,-5.1 -3.3,-7.3 -0.7,-2.1 -2.6,-5.8 -4.1,-8.2 -1.6,-2.4 -2.9,-4.6 -2.9,-5 0,-0.4 -2.2,-3 -5,-5.7 -6.8,-6.7 -5.8,-7.6 4,-4.1 2.5,0.9 7,1.9 10,2.2 3,0.3 6,1 6.6,1.5 0.5,0.4 2,0.6 3.2,0.2 1.2,-0.3 2.9,0 3.8,0.8 0.8,0.7 2.8,1.3 4.4,1.4 1.6,0.1 3.4,0.6 4.2,1.1 0.7,0.6 2.7,1.1 4.5,1.2 1.8,0.1 4.4,0.7 5.8,1.2 1.8,0.7 3.3,0.7 4.5,0 1,-0.5 3.4,-1 5.3,-1 2.8,0 3.6,0.4 4.1,2.4 0.5,1.9 1.9,2.8 6.8,4.4 7.7,2.4 9.8,1.7 9.8,-3.3 0,-2.5 -0.6,-3.8 -2.2,-4.9 -2.5,-1.5 -7.1,-2.9 -10.5,-3 -1.2,-0.1 -2.8,-0.7 -3.5,-1.4 -0.6,-0.6 -2,-1.2 -3,-1.2 -2.1,0 -10.4,-1.9 -13.3,-3.1 -1.1,-0.4 -2.7,-0.7 -3.5,-0.7 -0.8,0 -3.9,-0.9 -6.9,-2.1 -3,-1.1 -5.7,-1.8 -6.1,-1.6 -0.4,0.2 -2.2,0 -4.1,-0.6 -4.5,-1.5 -11.4,-2.7 -22.4,-4 -4.9,-0.5 -10.8,-1.5 -13,-2.1 -5.6,-1.6 -36.3,-2.6 -50.6,-1.6 -4.6,0.3 -7.9,2 -7.9,4.2 -0.1,2 -2.5,4.4 -5.1,5.1 -2.1,0.5 -2.6,0.1 -3.6,-2.7 -1.4,-3.7 -1.2,-7.3 0.4,-10.3 2.8,-5.3 2.3,-11.4 -1.1,-13.7 -1.5,-1 -2,-1 -3.4,0.4 z m -22.8,44.9 c 1.7,1.5 -0.4,5.8 -4.5,9 l -4.1,3.2 -1.9,-2.4 c -1,-1.3 -1.6,-3.1 -1.3,-4 0.2,-0.9 0,-2.8 -0.5,-4.2 -1,-2.5 -0.8,-2.6 2.7,-2.9 4.2,-0.5 8.3,0.1 9.6,1.3 z m 13.2,1.2 c 0.7,0.7 -1.6,9 -3,11.3 l -1.8,2.6 -2.4,-2.3 c -1.3,-1.2 -2.2,-2.4 -1.9,-2.7 0.2,-0.3 0,-1.3 -0.5,-2.2 -0.7,-1.2 -0.5,-2.8 0.6,-4.9 1.5,-2.9 1.9,-3.1 5.2,-2.6 2,0.3 3.7,0.7 3.8,0.8 z M 378,112.5 c 1.5,0.8 3,2 3.3,2.7 1.2,3.4 -6.4,12.7 -8.9,11 -3.2,-2.3 -4.4,-11.1 -1.8,-13.6 1.9,-2 3.7,-2 7.4,-0.1 z m 15.4,67.6 c -0.3,0.5 -1,0.7 -1.5,0.3 -0.5,-0.3 -0.7,-1 -0.3,-1.5 0.3,-0.5 1,-0.7 1.5,-0.3 0.5,0.3 0.7,1 0.3,1.5 z m 7.1,9.2 c 1.5,3.2 0.7,11.7 -1.2,11.7 -1.5,0 -3.6,-4.3 -4.7,-9.7 -0.6,-2.5 -0.4,-3.2 1.1,-3.6 3.3,-0.9 3.8,-0.7 4.8,1.6 z"
       id="path10"
       inkscape:connector-curvature="0"
       style="fill:#000000;stroke:none;stroke-width:0.1" />
    <path
       d="m 577.6,97.6 c -0.9,0.8 -1.6,2.1 -1.6,2.9 0,1.8 4,4.2 8.2,5 6.9,1.3 7.1,-4.6 0.3,-8.1 -3.5,-1.8 -5,-1.8 -6.9,0.2 z"
       id="path12"
       inkscape:connector-curvature="0"
       style="fill:#000000;stroke:none;stroke-width:0.1" />
    <path
       d="m 599.8,102.7 c -2.5,0.6 -2.9,3 -1.4,6.8 1,2.3 2.4,3.7 4.2,4.1 1.6,0.4 5.4,2.5 8.6,4.7 4,2.8 7,4 9.8,4.2 4.6,0.2 4.3,0 5.6,4 0.6,2.1 1.9,3.3 4.1,4 3.8,1.3 12.7,8.6 14.5,11.9 0.7,1.4 2.8,4.5 4.5,7 3.3,4.7 4.1,7.6 5,17.7 0.3,4.2 0,6.6 -1.6,10 -4.2,9.3 -5.4,20.9 -2.9,29.1 1.4,4.9 4.5,6.9 6.5,4.2 0.7,-1 1.1,-2.5 0.8,-3.3 -0.3,-0.8 -0.8,-4.6 -1.1,-8.5 -0.4,-5.3 -0.2,-7.6 0.8,-9 1.4,-1.7 1.5,-1.7 3.1,0.7 1.7,2.7 4.7,10 5.1,12.7 0.1,0.8 0.7,2.4 1.4,3.6 1,1.9 0.7,14.2 -0.5,15.4 -0.2,0.2 -1.8,0.4 -3.6,0.5 -2.9,0 -3.2,0.3 -3.5,3.6 -0.3,3.1 0.3,4.1 4.6,8.2 3.6,3.3 5.5,4.4 7,4 1.6,-0.4 2.6,0.3 4.1,2.8 1.2,1.9 2.1,4.1 2.1,5 0,0.9 1.9,4.5 4.3,8 3.2,4.9 4.9,6.5 7,6.7 4.4,0.5 5.4,-3.1 3.8,-13.1 -0.8,-4.5 -1.6,-10.2 -1.8,-12.7 -0.2,-2.5 -0.8,-5.4 -1.2,-6.5 -0.5,-1.1 -1.6,-4.1 -2.5,-6.7 -1,-2.5 -2.4,-5.2 -3.2,-5.8 -0.7,-0.7 -1.4,-1.7 -1.4,-2.3 0,-0.6 -1.2,-3.7 -2.7,-6.9 -1.8,-4 -3.4,-6 -4.9,-6.4 -1.2,-0.3 -2.5,-1.3 -2.8,-2.2 -0.3,-1 -1,-2.4 -1.5,-3.2 -0.6,-0.8 -1.5,-3.3 -2.1,-5.6 -0.5,-2.2 -2.3,-6.1 -3.9,-8.4 -2.3,-3.4 -2.7,-4.8 -2,-6.2 0.6,-1.1 0.7,-2.9 0.2,-4.1 -0.4,-1.2 -0.8,-2.7 -0.9,-3.2 0,-0.6 -0.4,-2.1 -0.7,-3.5 -0.4,-1.4 -0.8,-4 -1.1,-5.8 -0.2,-1.8 -0.9,-3.9 -1.5,-4.6 -1.3,-1.5 -0.9,-6.8 0.5,-7.3 0.6,-0.2 3,1.7 5.5,4.2 2.4,2.5 4.9,4.5 5.4,4.5 0.6,0 3.1,1.9 5.7,4.2 2.5,2.4 6.1,5.7 8,7.3 1.8,1.7 4,3.8 4.8,4.8 2.2,2.5 8.6,7.7 9.6,7.7 0.5,0.1 2.9,2.6 5.4,5.6 2.5,3 5.5,5.7 6.8,6.1 1.3,0.3 3.1,2.1 4.2,4.3 1.1,2.1 3.4,4.9 5.2,6.1 4.1,2.9 5.7,4.9 5.8,7 0,1 1.7,3.2 3.8,5 2,1.7 4.2,4 4.7,5 1.7,3 22.9,24.9 24.2,24.9 0.6,0 2.1,1.9 3.2,4.3 1.1,2.4 3.7,5.8 5.6,7.7 1.9,1.9 3.5,3.9 3.5,4.5 0,0.6 1.4,2.7 3,4.7 2.6,3.1 2.9,4 1.9,5.6 -1,1.5 -0.9,3 0.5,7.2 l 1.7,5.3 -2.9,3.1 c -4.9,5.1 -9.2,13 -9.2,16.8 0,2 0.9,4.6 2,6.1 1.1,1.4 2,4 2,6 0,2.7 0.7,4.1 3.1,6.1 1.7,1.4 3.7,2.6 4.4,2.6 2.1,0 3.5,3.3 3.2,7.7 -0.2,3.1 0.1,3.8 1.7,3.8 2.5,0 5.7,-4.5 6.2,-8.6 0.2,-1.9 1.1,-5.3 2,-7.6 1.1,-2.9 1.7,-7.8 1.7,-15.7 0.1,-10.5 0,-11.8 -2.1,-14.3 -4.7,-6 -5.4,-7.4 -5.6,-12 -0.1,-6.4 1.9,-6.3 6.1,0.1 1.8,2.7 5.5,7.3 8.3,10.1 2.7,2.8 5,5.4 5,5.7 0,1.6 5.6,8.8 11.8,15.3 14.9,15.4 19.3,19.3 23.7,20.5 6.1,1.7 15.8,12.7 19.5,22 1.8,4.8 3.9,7 6.5,7 3.1,0 16.5,14.8 16.5,18.1 0,0.7 0.4,2.6 0.9,4.3 0.5,1.7 1.5,5.1 2.1,7.6 0.7,2.5 1.7,5.5 2.2,6.7 0.6,1.1 0.7,2.6 0.4,3.2 -1,1.5 -3.9,1.4 -3.3,-0.2 0.6,-1.7 -1.6,-5.7 -4.7,-8.6 -1.4,-1.4 -2.6,-3.3 -2.6,-4.3 0,-1 -1.8,-3.8 -4,-6.2 -3,-3.3 -4.2,-5.4 -4.6,-9 -0.4,-2.5 -1.2,-5.3 -1.9,-6.3 -1.1,-1.5 -1.4,-1.4 -3,1.1 -1,1.5 -3.2,3.4 -4.9,4.3 -3.4,1.7 -4.7,3.3 -3.9,4.5 0.8,1.4 8.1,5.8 9.6,5.8 0.7,0 1.9,1.7 2.6,3.7 2.4,6.6 9.3,14.6 15.5,17.8 4.4,2.3 6,2.7 7.4,1.9 0.9,-0.6 1.7,-1.7 1.7,-2.5 0.1,-0.8 0.6,-2.3 1.2,-3.4 0.5,-1.1 0.8,-2.6 0.6,-3.3 -0.3,-0.7 0.5,-1.2 2.1,-1.2 1.4,0 2.6,0.3 2.6,0.8 0,0.4 1.7,2.5 3.8,4.7 2.1,2.2 5.3,6 7.2,8.5 1.9,2.5 4,5.1 4.7,5.8 0.7,0.7 1.3,2 1.3,2.7 0,1.4 1.1,2.7 10.5,13.3 2.2,2.4 4.9,5.9 6,7.6 1.1,1.8 3.9,5.7 6.3,8.7 8.9,11.3 11.2,14.6 14.2,20.1 2.9,5.5 5.2,7.6 7.8,7.2 0.6,-0.1 1.8,-0.2 2.5,-0.3 0.6,-0.1 2,-1.5 3,-3.2 1.7,-3.1 1.7,-3.1 -1.5,-7.2 -1.8,-2.3 -5.9,-6.8 -9,-9.9 -3.2,-3.2 -5.8,-6.3 -5.8,-7 0,-0.6 -1.8,-3.5 -4,-6.4 -2.2,-2.9 -4,-5.6 -4,-5.9 0,-0.7 -7.9,-10.4 -11.3,-13.7 -1.5,-1.5 -2.7,-3.3 -2.7,-4.1 0,-0.8 -2.1,-3.4 -4.7,-5.8 -2.7,-2.4 -6.3,-6.2 -8.2,-8.4 -7.6,-9.2 -17.4,-18.6 -18.6,-18.1 -1.3,0.5 -6.5,-5.3 -6.5,-7.3 0,-1.3 -4.6,-9.6 -6.8,-12.3 -4.6,-5.4 -10.9,-10.8 -13.3,-11.3 -2.4,-0.6 -6.2,-3.5 -4.5,-3.5 1,0 -4,-9.5 -5.8,-10.9 -0.9,-0.8 -1.6,-1.8 -1.6,-2.3 0,-1.6 -8.9,-11 -12.2,-13.1 -1.6,-1 -3.8,-1.5 -4.8,-1.2 -2.9,0.9 -23.7,-20.9 -36.5,-38.2 -6.3,-8.6 -17.4,-20.3 -19.2,-20.3 -0.7,0 -1.3,-0.4 -1.3,-1 0,-0.5 -1.4,-2.4 -3.1,-4.2 -1.7,-1.8 -5.9,-7 -9.5,-11.6 -3.6,-4.5 -6.9,-8.2 -7.5,-8.2 -0.5,0 -1.7,-1.3 -2.7,-3 -1,-1.6 -5,-6.4 -8.8,-10.5 C 734,203.6 732,201.3 732,200.3 c 0,-0.6 -1.7,-2.3 -3.7,-3.9 -2.1,-1.6 -4.7,-4 -5.7,-5.4 -1.1,-1.4 -5,-5.6 -8.8,-9.4 -3.8,-3.7 -7.4,-7.6 -8.1,-8.5 C 703.6,170.2 688,158.2 674.9,149.4 662.4,141 658.6,138 650,129.5 c -2.5,-2.5 -7,-5.7 -10,-7.1 -3,-1.4 -6.2,-3 -7,-3.5 -0.8,-0.5 -4.7,-2.5 -8.7,-4.4 -3.9,-1.9 -7.4,-3.9 -7.7,-4.4 -0.5,-0.8 -14.4,-8.2 -14.9,-8 -0.1,0.1 -0.9,0.3 -1.9,0.6 z m 80.1,116.7 c 1,2.8 2.2,7.8 2.6,11.1 0.3,3.3 1.1,7.3 1.7,8.8 0.6,1.5 0.8,3 0.5,3.4 -1.2,1.1 -3.3,-1.6 -7,-8.7 -3.4,-6.3 -3.7,-7.6 -3.7,-15.1 0,-8.1 0,-8.2 2,-6.4 1.1,1 2.8,4.1 3.9,6.9 z m 104.9,71.3 c 0.4,1 0.7,6.9 0.5,13.2 -0.2,9.9 -0.5,11.8 -2.2,13.5 -2,1.9 -2,1.9 -4,-0.5 -1.2,-1.3 -2.4,-3.5 -2.7,-4.9 -0.4,-1.4 -1.2,-3.2 -1.9,-4 -3.4,-4.1 2.5,-19 7.6,-19 1,0 2.2,0.8 2.7,1.7 z"
       id="path14"
       inkscape:connector-curvature="0"
       style="fill:#000000;stroke:none;stroke-width:0.1" />
    <path
       d="m 510.7,137 c -1.7,2.8 -1.7,2.9 0.1,3.9 3.4,1.8 5.4,-1.8 2.8,-5.1 -1.1,-1.5 -1.4,-1.4 -2.9,1.2 z"
       id="path16"
       inkscape:connector-curvature="0"
       style="fill:#000000;stroke:none;stroke-width:0.1" />
    <path
       d="m 519.4,142.1 c -0.3,0.6 -0.1,1.6 0.5,2.2 0.8,0.8 1.1,0.5 1.1,-1.1 0,-2.4 -0.5,-2.8 -1.6,-1.1 z"
       id="path18"
       inkscape:connector-curvature="0"
       style="fill:#000000;stroke:none;stroke-width:0.1" />
    <path
       d="m 506.6,145.9 c -1,1.1 -1.5,2.5 -1.1,3.1 1.1,1.9 -1.4,4.1 -3.5,3 -2,-1.1 -2.8,-0.4 -5.4,4.8 -2.2,4.2 -2.8,19.2 -0.8,19.9 0.6,0.3 1.2,1 1.2,1.7 0,0.6 1.4,1.9 3.2,2.9 l 3.1,1.8 -2.3,1.6 c -2.1,1.5 -2.2,2.1 -1.8,10.1 0.4,7.6 0.7,8.7 2.9,10.3 4.7,3.5 5.8,4.9 5.3,6.3 -1,2.5 2.6,12.6 5,14.2 2.4,1.5 6.7,0.7 8,-1.5 0.8,-1.2 -1.4,-5.1 -2.9,-5.1 -1.7,-0.1 -4.7,-7.8 -4,-10.1 0.7,-2 0.8,-1.9 2.6,1 1,1.7 2.3,3.1 2.8,3.1 0.5,0 1.4,1.3 2,3 0.5,1.6 1.6,3 2.4,3 1.4,0 4.7,-3.1 4.7,-4.4 0,-0.4 1.3,-3.4 2.9,-6.6 1.6,-3.2 2.7,-6.1 2.4,-6.4 -0.3,-0.2 0.2,-1.5 1.1,-2.8 0.9,-1.2 1.6,-3.7 1.6,-5.6 0,-1.8 0.9,-6 2.1,-9.4 1.1,-3.4 1.8,-7.4 1.5,-8.9 -0.3,-1.6 0.2,-3.5 1.2,-5 1.3,-1.9 1.6,-4.2 1.4,-10.8 -0.3,-9.2 -0.5,-10.1 -3.1,-10.1 -1,0 -2.8,-0.9 -4.1,-2 -1.7,-1.5 -2.6,-1.7 -3.7,-0.9 -0.7,0.6 -1.3,1.7 -1.3,2.5 0,2.2 -4.2,8.5 -5.4,8.1 -0.6,-0.2 -1,-1.1 -0.8,-1.9 0.1,-0.8 -0.7,-2.3 -1.8,-3.3 -2,-1.8 -2.1,-1.8 -5,0.3 -1.6,1.2 -3.8,2.2 -4.8,2.2 -2.2,0 -3.4,-2.9 -2.1,-5.2 0.5,-0.9 0.3,-2.2 -0.4,-3.2 -1.2,-1.6 -1.4,-1.6 -3.1,0.3 z m 0.2,13.1 c 2.4,2.1 3.1,3.6 2.8,5.2 -0.3,1.3 -0.7,3.9 -1.1,6 -0.7,4.4 -2.8,5.5 -5.6,2.7 -1.7,-1.7 -2,-3.1 -1.8,-8.7 0.3,-9.5 0.6,-9.9 5.7,-5.2 z m 28.9,1.8 c -0.4,5.1 -1.5,6.7 -3.3,5.1 -1.7,-1.4 -1.8,-4.3 -0.2,-6.9 2.1,-3.4 3.9,-2.5 3.5,1.8 z m -11.7,3.1 c 0,1.6 -7.8,9.1 -9.4,9.1 -2.8,0 -3,-2.9 -0.4,-5.8 1.4,-1.5 3.1,-3.7 3.7,-4.9 1.1,-2.2 1.3,-2.2 3.6,-0.7 1.4,0.9 2.5,2 2.5,2.3 z m 8.8,11.5 c 0.7,0.4 1.1,1.9 0.8,3.4 -0.2,1.5 -0.5,3 -0.5,3.4 -0.1,0.4 -1.5,2.3 -3.2,4.3 -2.5,2.9 -3.4,3.3 -5,2.5 -1.1,-0.6 -1.9,-2.1 -1.9,-3.5 0,-1.5 -0.7,-2.6 -2,-3 -2.6,-0.8 -4,0.1 -4,2.9 0,1.2 -1,3.3 -2.2,4.6 l -2.2,2.4 -1.4,-3.3 c -0.7,-1.9 -1.2,-5 -1,-7 0.3,-3.3 0.6,-3.6 3.4,-3.7 1.7,0 4.4,-1 6,-2.1 2.9,-2.1 10.4,-2.6 13.2,-0.9 z m -5.4,22.8 c 0.9,1.4 0.6,2.3 -1.6,4.5 -2.2,2.2 -2.9,2.4 -4.2,1.4 -2.2,-1.9 -2.9,-5 -1.5,-6.7 1.6,-1.9 5.9,-1.4 7.3,0.8 z m -16.4,1.3 c 0,1.6 -3.5,2.1 -4.4,0.6 -0.8,-1.2 0.4,-2.1 2.6,-2.1 1,0 1.8,0.7 1.8,1.5 z"
       id="path20"
       inkscape:connector-curvature="0"
       style="fill:#000000;stroke:none;stroke-width:0.1" />
    <path
       d="m 380.3,215.4 c -1.8,0.6 -4.3,2.2 -5.6,3.4 -1.3,1.2 -3.2,2.2 -4.3,2.2 -2.9,0 -3.8,0.9 -8.6,8 -5.4,8 -8.5,14.4 -9.2,19 -1.7,9.9 -1.8,11.8 -0.7,12.4 0.6,0.4 1.1,2.5 1.1,4.7 0,3.2 0.7,4.7 3,7.1 1.9,1.9 3,4 3,5.8 0,5.3 4,11 15.6,22.5 15.1,14.9 20.9,18.6 35.4,23.1 3.2,1 5.5,1.1 8.2,0.4 2.1,-0.6 5.6,-1.5 7.9,-2.1 4.8,-1.2 14.3,-1.4 16.1,-0.3 0.7,0.5 4,0.9 7.2,1.1 3.3,0.1 6.9,0.6 8,1.1 4.5,2 9.4,3.2 13.1,3.2 3,0 5.5,1.1 10.9,4.9 3.9,2.6 8,5.1 9.1,5.5 2.5,0.9 10.5,10.5 10.5,12.6 0,0.9 1.1,2.7 2.5,4 1.8,1.7 2.5,3.4 2.5,6.1 0,2 0.6,4.2 1.4,4.8 0.8,0.7 2.5,3.5 3.9,6.4 1.4,2.9 3.2,5.9 4.1,6.6 0.9,0.7 1.6,1.9 1.6,2.5 0,0.7 1.7,2.5 3.8,4.1 2.2,1.6 4.6,4.1 5.4,5.6 0.9,1.5 3.2,3.3 5.3,4 l 3.7,1.4 -0.5,11.5 c -0.7,14.3 -1.5,18.9 -3.8,21.9 -1.1,1.3 -1.9,3.3 -1.9,4.5 0,1.1 -0.7,3 -1.5,4 -0.8,1.1 -1.5,2.7 -1.5,3.6 0,0.9 -1,2.5 -2.2,3.6 -1.3,1.1 -4.5,4.8 -7.1,8.3 -2.6,3.4 -5.5,6.5 -6.5,6.8 -0.9,0.4 -3.5,1.9 -5.7,3.4 -4.6,3.1 -10.4,4.9 -15.8,4.9 -4.3,0 -9.1,2.2 -10.5,4.7 -0.8,1.3 -2.2,1.6 -6.6,1.4 -3,-0.1 -6.6,0.4 -7.8,1 -1.3,0.7 -3.3,1.4 -4.5,1.5 -1.2,0.1 -3.4,1.1 -5,2.2 -5.4,3.7 -8.8,5.6 -9.6,5.4 -0.4,-0.1 -2.3,0.7 -4.3,1.7 -2.8,1.5 -4.2,1.7 -6.4,0.9 -3.1,-1 -12,-10.3 -12,-12.5 0,-0.8 -1,-3.3 -2.2,-5.6 -1.1,-2.3 -2.2,-5.8 -2.3,-7.7 -0.2,-4.4 -1.3,-7.8 -3.6,-11.2 -1.1,-1.4 -1.9,-3.3 -1.9,-4.1 0,-0.7 -1.4,-3.3 -3.1,-5.6 -6.4,-8.9 -8.1,-13.6 -9.9,-26.4 -1.2,-9.1 -3.6,-17.1 -5.6,-18.8 -0.8,-0.6 -1.4,-1.7 -1.4,-2.3 0,-2.4 -6.7,-7.7 -12.1,-9.5 -5.9,-2.1 -18.6,-3.3 -19.5,-2 -0.3,0.5 -1.8,0.9 -3.3,0.9 -1.7,0 -3.6,1 -5.2,2.7 -3.8,4.4 -6.9,9.1 -6.9,10.7 0,0.8 -0.4,1.8 -1,2.1 -1.3,0.8 -1.2,28.1 0.2,32.1 0.8,2.4 0.7,4.3 -0.6,8.5 -3.3,11 -3.9,16.7 -5.6,53.9 -1,22.7 -0.4,30.6 2.3,29.7 2.1,-0.7 3,-7 3.7,-26.7 1.2,-30.5 1.9,-39 3.7,-43.9 1.2,-3.2 1.9,-9.7 2.5,-21.1 1.3,-27.6 1.8,-32.2 3.9,-35.1 1,-1.5 1.9,-3.2 1.9,-3.7 0,-1.8 2.2,-2.6 6.3,-2.3 2.1,0.1 4.5,-0.3 5.2,-0.9 1.1,-0.9 3.2,-0.2 9.2,2.7 8.4,4.1 7.4,2.8 15.5,19.5 0.4,1 0.8,4.6 0.8,8.1 0,5.2 0.6,7.5 3.5,13.3 1.9,3.8 3.5,7.3 3.5,7.7 0,0.5 1.6,4.2 3.5,8.3 1.9,4 3.5,8.4 3.5,9.7 0,1.4 0.9,3.6 2,5 1.1,1.4 2,4 2,5.8 0,3.4 5.6,12.8 9.5,16 1.1,0.9 4.1,3.8 6.8,6.4 4.7,4.7 4.8,4.7 10.5,4.3 4.8,-0.3 6.7,-1.1 12.4,-5.1 3.7,-2.6 7.5,-4.7 8.5,-4.7 1.1,0 2.3,-0.4 2.8,-0.8 1.3,-1.2 9.4,-3.5 12.7,-3.7 1.5,-0.1 3.3,-0.6 4,-1.2 0.7,-0.5 2.7,-1 4.3,-1 3.6,0 8.4,-1.1 10.7,-2.4 1,-0.5 2.6,-0.9 3.6,-0.9 1,0 2.2,-0.4 2.7,-0.8 0.6,-0.5 2.9,-1.5 5.2,-2.2 5.6,-1.7 24.3,-20.6 26.2,-26.3 0.7,-2 1.6,-3.7 2.1,-3.7 0.7,0 2.2,-3 2.5,-5 0,-0.3 0.8,-1.7 1.8,-3.1 1,-1.5 2.2,-5.1 2.7,-8 0.5,-3 1.5,-7.3 2.4,-9.6 0.8,-2.3 1.4,-6.4 1.4,-9.1 -0.1,-2.7 0.2,-5.3 0.5,-5.9 0.4,-0.6 2.8,-1 5.4,-0.9 2.7,0 7.7,-0.7 11.3,-1.6 3.6,-1 7.4,-1.8 8.6,-1.8 1.1,0 3.1,-1.1 4.4,-2.5 2.2,-2.3 2.2,-2.7 0.8,-4.1 -2.7,-2.7 -7.7,-2.8 -10.5,-0.2 -2.2,2 -3.4,2.3 -11.6,2.4 -8.9,0 -16.7,-1.8 -16.7,-3.9 0,-0.5 -3.6,-4.5 -8,-8.9 -4.4,-4.5 -8,-8.6 -8,-9.3 0,-0.6 -1.1,-2.2 -2.5,-3.5 -1.4,-1.3 -2.5,-3.4 -2.5,-4.6 0,-1.3 -0.4,-2.6 -1,-2.9 -0.5,-0.3 -3,-4.9 -5.5,-10.3 -4.1,-8.7 -5.3,-10.3 -11.5,-15.5 -3.8,-3.1 -7.2,-5.7 -7.6,-5.7 -0.4,0 -1.6,-0.7 -2.6,-1.7 -1,-0.9 -3.4,-1.7 -5.3,-1.8 -2,-0.2 -4.4,-1 -5.3,-1.8 -1.8,-1.7 -6.5,-3.7 -9.7,-4.3 -1.1,-0.2 -4.4,-1 -7.3,-1.8 -7.2,-2 -26.1,-3.7 -28.3,-2.5 -1,0.5 -3.1,0.6 -4.7,0.3 -1.7,-0.4 -3.2,-0.1 -3.6,0.5 -1.2,1.9 -6.6,1.3 -15.1,-1.9 -1.1,-0.4 -3,-0.8 -4.2,-0.8 -2,-0.1 -7.4,-3.2 -9.8,-5.8 -0.5,-0.6 -2.3,-1.9 -4,-2.9 -4.6,-2.8 -15.3,-13.3 -19.8,-19.5 -3,-3.9 -4.2,-6.6 -4.3,-9.3 -0.1,-2.1 -1.2,-5.4 -2.8,-7.7 -2.2,-3.3 -2.6,-5.1 -2.6,-10.7 0,-8.6 1.3,-13.1 5,-17.8 1.7,-2.1 3,-4.3 3.1,-4.9 0,-0.6 1.5,-3.1 3.2,-5.5 3.6,-4.9 9,-7.1 18.4,-7.2 7.7,-0.2 13.8,4.8 16.3,13.1 1.6,5.7 3.8,10.8 4.9,11.4 0.5,0.3 2.3,3.4 3.9,6.9 3.6,7.5 8.4,11.8 18.9,17.1 8.1,4 15.9,4.9 18.7,2 3,-2.9 1.7,-4.4 -4.9,-5.5 -7.6,-1.3 -17.5,-5.7 -20.8,-9.2 -4.2,-4.4 -9.8,-12.4 -11.4,-16.1 -1.1,-2.3 -1.1,-3.6 -0.1,-6.2 0.7,-1.9 1.6,-3.4 2,-3.4 0.5,0 2.1,-0.9 3.6,-2 4.4,-3.3 8.6,-3.8 22.7,-3 4.3,0.2 8,1.3 12.8,3.7 3.8,1.9 7.4,3.2 8,3 1.2,-0.4 7,3.8 13.6,10.1 2,1.8 4.8,4 6.3,4.7 1.4,0.8 3.5,2.6 4.5,3.9 1.1,1.3 3.7,3.6 5.8,5 2,1.4 6.4,5 9.7,7.8 3.3,2.9 8.3,6.6 11.1,8.1 2.9,1.6 6.1,3.7 7.3,4.8 1.1,1 2.7,1.9 3.6,1.9 0.8,0 5.2,1.8 9.8,4 4.5,2.3 8.5,3.8 8.8,3.6 0.3,-0.3 1.1,-0.1 1.8,0.5 3.7,3 26.7,5.4 39.9,4.1 7.6,-0.8 11,0 19.8,4.4 5.7,3 18.7,13.1 18.7,14.7 0,1.7 11,14.6 13.1,15.2 1,0.4 3.1,0.8 4.6,1.1 1.6,0.3 3.7,0.8 4.8,1.1 1.1,0.4 2.7,0.7 3.5,0.8 0.8,0.1 4.1,1.2 7.3,2.5 3.2,1.2 6.1,1.9 6.4,1.6 0.3,-0.3 1.8,0.1 3.4,0.9 1.5,0.8 3.7,1.5 4.7,1.5 2.1,0 17.4,7.2 26.7,12.6 3.3,1.9 7.6,4.1 9.5,5 1.9,0.8 4.2,1.9 5,2.4 0.8,0.6 4.2,2.4 7.5,4.1 7.4,3.9 14.2,7.7 18.4,10.5 2.4,1.6 2.8,2.3 1.7,2.7 -2,0.8 -10.6,-2.2 -22.1,-7.7 -9.3,-4.5 -20.5,-8.6 -23.4,-8.6 -0.9,0 -3.6,-0.8 -6.1,-1.7 -4.1,-1.4 -6.3,-2 -15.5,-3.8 -10,-1.9 -14.1,-2.9 -15,-3.6 -1.5,-1 -11.1,-2.9 -14.9,-2.9 -2.1,0 -4,0.8 -5.2,2.1 -1,1.2 -3.8,3.5 -6.1,5.1 -4.5,3.1 -5.6,6.4 -2.5,7.5 0.9,0.4 3.8,2.8 6.4,5.5 4.5,4.5 8,6 9.3,3.8 0.5,-0.8 -0.8,-2.4 -4.9,-5.8 -3.7,-3 0.6,-11.4 6.1,-11.7 5.8,-0.4 26.7,3.7 30.3,6 2,1.2 6.1,2.5 9.5,2.9 3.3,0.4 7.8,1.8 10,3 2.2,1.3 6.2,2.6 8.8,2.8 2.8,0.4 5.7,1.4 7,2.6 1.2,1.1 3.8,2.3 5.7,2.7 1.9,0.4 5.1,1.5 7,2.6 6,3.1 17.2,7.9 18.7,7.9 0.7,0 4.1,2 7.6,4.5 3.4,2.4 7.7,5.4 9.6,6.7 1.8,1.3 5,3.7 7,5.4 2,1.6 6.5,4.4 10.1,6.1 3.6,1.8 7.9,4.6 9.5,6.3 1.7,1.8 4.6,4 6.5,5 1.9,1 5.9,3.9 8.8,6.4 3,2.5 5.8,4.6 6.4,4.6 0.6,0 3.6,2.6 6.7,5.7 3.1,3.2 8.1,7.4 11.1,9.5 3,2 8.7,6.7 12.5,10.5 3.9,3.7 9.9,8.8 13.4,11.3 3.5,2.5 8.8,6.6 11.7,9.2 2.9,2.6 6.7,5.4 8.4,6.3 1.6,0.8 3,2 3,2.6 0,0.8 14.3,15.9 23.5,24.8 0.6,0.6 4.5,4.4 8.7,8.5 4.2,4.1 8.3,8.9 9.1,10.8 1.6,3.8 7.3,9.9 11.6,12.4 1.6,1 3.4,2.7 3.9,3.8 0.5,1.2 5.5,7.2 11.1,13.4 5.6,6.3 10.1,11.7 10.1,12 0,0.4 4.3,5.2 9.5,10.7 5.2,5.5 9.5,10.5 9.5,11.2 0,0.7 1.6,2.5 3.5,4 1.9,1.5 3.7,4 4,5.5 0.8,3.6 6,5.6 8.6,3.2 3.5,-3.2 3,-12.4 -0.7,-12.4 -1.1,0 -9.2,-9 -11,-12.2 -0.5,-0.9 -4.3,-5.2 -8.5,-9.5 -4.2,-4.3 -8.3,-9 -9.3,-10.5 -0.9,-1.4 -3,-3.1 -4.5,-3.8 -2.4,-0.9 -13.7,-14.7 -21,-25.4 -2.6,-3.8 -6.5,-7.6 -7.7,-7.6 -0.6,0 -2.7,-1.9 -4.7,-4.3 -1.9,-2.3 -5.6,-6.4 -8.1,-9.2 -2.5,-2.7 -4.6,-5.3 -4.6,-5.6 0,-0.4 -1.7,-1.7 -3.7,-3 -2.1,-1.2 -10,-8.3 -17.6,-15.8 -13.8,-13.7 -16.6,-16.2 -26.7,-24.7 -3,-2.6 -8.5,-7.6 -12.2,-11.3 -8.1,-8.1 -15.2,-14.1 -16.5,-14.1 -0.6,0 -4,-2.8 -7.5,-6.3 -6.2,-6 -18.7,-15.7 -20.2,-15.7 -0.4,0 -3.3,-2.5 -6.4,-5.5 -5.5,-5.2 -9,-7.9 -21.2,-16.1 -3,-2.1 -8.1,-5.7 -11.4,-8.1 -7.2,-5.5 -12.1,-8.3 -14.4,-8.3 -1,0 -3.4,-1.5 -5.4,-3.3 -2,-1.7 -5.5,-4.3 -7.8,-5.7 -2.3,-1.4 -6,-3.9 -8.3,-5.5 -2.3,-1.7 -5.3,-3.5 -6.7,-4.2 -6.5,-2.9 -11.9,-5.7 -16.5,-8.4 -2.7,-1.5 -5.9,-3.3 -7,-3.8 -1.2,-0.5 -2.7,-1.6 -3.3,-2.4 -0.7,-0.9 -3.1,-1.8 -5.3,-2.2 -2.1,-0.4 -4.1,-1.1 -4.5,-1.6 -0.3,-0.5 -1.5,-0.9 -2.7,-0.9 -2.4,0 -9.3,-2.2 -10.3,-3.3 -0.4,-0.4 -1.7,-0.7 -2.9,-0.7 -1.1,0 -2.6,-0.5 -3.1,-1 -1.1,-1.1 -10.3,-4.7 -20.9,-8.1 -6.9,-2.3 -9.6,-4.5 -12,-9.9 -1,-2.2 -2.5,-4.2 -3.4,-4.5 -1,-0.3 -3.5,-2.4 -5.8,-4.8 -2.2,-2.3 -6.7,-5.6 -9.9,-7.2 -3.3,-1.7 -7.7,-4.2 -9.9,-5.6 -3.3,-2.2 -9,-4.7 -9,-4 0,0.1 -1.7,-0.5 -3.9,-1.4 -3.1,-1.3 -7,-1.6 -20,-1.4 -10,0.1 -16.9,-0.2 -18.1,-0.9 -1.1,-0.5 -4.7,-1.6 -8,-2.3 -10,-2 -35.9,-15.9 -39,-20.9 -0.3,-0.6 -2.5,-2 -4.8,-3.1 -2.3,-1.2 -6.9,-4.8 -10.2,-8 -3.3,-3.2 -7.3,-6.8 -9,-8 -1.6,-1.2 -4.8,-3.9 -7,-5.9 -4.1,-3.8 -12.8,-9 -15,-9 -0.7,0 -3.9,-1.4 -7,-3 -5.3,-2.8 -6.5,-3 -15.9,-3 -8.2,0 -11.1,0.4 -14.4,2 -2.2,1.1 -4.5,2 -5,2 -0.6,0 -2.3,0.7 -3.8,1.5 -4.4,2.3 -6.5,1.8 -11.2,-2.5 -2.4,-2.2 -4.8,-4 -5.3,-4 -1.7,0 -2.4,-0.2 -4.4,-1.6 -2.3,-1.7 -10.7,-1.6 -15.2,0 z M 751,375.1 c 4.2,2.2 5.6,3.6 4.6,4.7 -0.8,0.7 -6.1,-2.3 -8.7,-4.9 -2.5,-2.5 -0.9,-2.4 4.1,0.2 z"
       id="path22"
       inkscape:connector-curvature="0"
       style="fill:#000000;stroke:none;stroke-width:0.1" />
    <path
       d="m 605.9,303.1 c -0.8,0.5 -2.8,0.9 -4.5,0.9 -3.5,0 -5.9,2.2 -6.9,6.3 -1.2,4.7 2.9,8.8 11.2,11.2 2.8,0.8 8.1,-1.7 11.7,-5.4 3.1,-3.3 2.8,-4.8 -2.1,-9.2 -3.7,-3.4 -7.6,-4.9 -9.4,-3.8 z m 3.4,8.3 c 2.6,2 2.1,3.6 -1.2,3.6 -3.5,0 -5.6,-2.1 -3.9,-3.8 1.5,-1.5 2.9,-1.5 5.1,0.2 z"
       id="path24"
       inkscape:connector-curvature="0"
       style="fill:#000000;stroke:none;stroke-width:0.1" />
    <path
       d="m 836,333.5 c -1,1.3 -1,2.9 0.5,9 0.9,4.1 2.3,8.2 3.1,9.2 0.7,1 1.4,2.5 1.4,3.4 0,2 6.1,7.9 8.2,7.9 2.9,0 3,-1.9 0.4,-7.5 -1.4,-2.9 -2.6,-5.8 -2.6,-6.3 0,-1.7 -4.3,-14.7 -5.3,-16 -1.3,-1.7 -4.2,-1.5 -5.7,0.3 z"
       id="path26"
       inkscape:connector-curvature="0"
       style="fill:#000000;stroke:none;stroke-width:0.1" />
    <path
       d="m 620.6,363.5 c -2.3,2.3 -2,3.1 1.4,5.2 1.7,0.9 3,2.1 3,2.6 0,1.6 -3.3,7.2 -5.7,9.8 -1.3,1.5 -2.3,3.3 -2.2,4 0.2,0.8 -0.2,2.3 -0.8,3.4 -0.6,1.1 -1.1,6.1 -1.2,11 -0.1,5 -0.6,10.6 -1.1,12.5 -0.6,1.9 -1.5,7.3 -2,12 -0.6,4.7 -1.4,9.4 -1.9,10.5 -0.4,1.1 -1.7,4 -2.8,6.5 -1.1,2.5 -2.5,6.5 -3.2,9 -0.7,2.5 -1.7,5.8 -2.2,7.5 -0.6,1.6 -1.7,5.1 -2.4,7.7 -0.7,2.7 -2.5,7.1 -3.9,10 -1.4,2.9 -2.6,5.6 -2.6,6 0,0.5 -3.3,7.5 -7.3,15.6 -6.3,12.8 -12.3,22.5 -16.9,27.3 -0.7,0.8 -2.5,3.3 -4,5.6 -4,6 -23.5,26.4 -28.5,29.6 -4.5,2.8 -6.8,6.7 -5.8,9.7 0.3,1 -0.3,3.3 -1.5,5.2 -1.1,1.8 -2,3.9 -2,4.6 0,0.7 -1.1,2.8 -2.4,4.5 -1.3,1.8 -3.1,4.8 -4,6.7 -3.3,7.2 -6.5,11.6 -10.5,14.3 -2.2,1.6 -4.4,3.9 -4.7,5.2 -0.3,1.3 -3.4,5 -6.9,8.3 -3.6,3.3 -7.2,7.8 -8.3,10.4 -1.2,2.4 -2.8,5.1 -3.7,5.8 -0.8,0.7 -1.5,2 -1.5,2.9 0,0.9 -1.3,2.4 -2.8,3.3 -3.5,2.1 -5.1,5.2 -6.8,13.6 -0.1,0.7 -1.6,2.5 -3.3,4.1 -1.7,1.6 -3.1,3.7 -3.1,4.8 0,1 -1,3.4 -2.2,5.3 -4.7,7.4 -5.2,8.7 -5.9,15 -1.5,13.7 -1.8,15.2 -4.9,22.2 -0.5,1.3 -1.1,6.3 -1.3,11.3 -0.2,4.9 -0.7,10 -1.1,11.1 -0.6,1.7 -0.1,2.8 2.1,4.8 1.5,1.4 3.3,2.6 3.9,2.6 0.6,0 1.9,0.9 2.9,2 0.9,1 3.7,2.2 6.1,2.6 3,0.4 4.5,1.2 4.9,2.5 0.6,1.8 4.2,3.6 5.2,2.5 0.4,-0.3 1.1,-0.2 1.7,0.3 3.2,2.6 15.8,8.1 18.4,8.1 1.7,0 4.6,0.8 6.4,1.8 3,1.7 7.8,3.4 10.3,3.6 0.6,0.1 2,0.7 3.3,1.4 1.3,0.7 2.8,1.2 3.5,0.9 0.6,-0.2 2.6,0.6 4.3,1.8 1.8,1.2 5.4,2.8 8.1,3.5 2.6,0.7 7.4,3.1 10.6,5.2 3.2,2.1 6.2,3.8 6.6,3.8 0.4,0 1.6,0.9 2.6,2 1,1.1 2.3,2 3,2 0.7,0 2,0.9 2.9,1.9 1,1.1 3.1,2.3 4.7,2.6 1.6,0.4 3.5,1.4 4.1,2.4 0.7,1 2.7,2.6 4.3,3.6 3.6,2.3 7,5.7 7.8,7.9 0.4,0.9 2.1,2.5 3.8,3.5 3.8,2.3 11.2,11.5 13.3,16.5 0.8,2 1.9,3.6 2.5,3.6 1,0 2.7,3.3 5.1,10 0.7,1.9 2.7,5.7 4.4,8.5 5.4,8.6 7,15.1 3.9,16.2 -1,0.3 -2.9,1.6 -4.3,2.8 -1.4,1.2 -3.8,2.6 -5.5,3 -5.7,1.3 -6.9,3.5 -3.2,6 3.9,2.5 8.7,0.4 16.6,-7.5 7,-6.9 9.2,-8 18.3,-9.3 2.4,-0.4 4.1,-0.1 4.8,0.8 0.9,1 -0.2,2.6 -4.7,7 -3.2,3.2 -8.4,7.5 -11.6,9.6 -5,3.3 -6.6,3.9 -11.2,3.9 -5,0 -8.5,1.6 -8.5,3.9 0,1.8 2.8,3 5.9,2.6 4.2,-0.5 7.1,2.5 8.6,8.6 1.4,5.5 3.3,6.7 8,5 2.8,-1 4.3,-1 6.3,-0.2 3,1.2 5.7,6.2 4.8,8.6 -0.6,1.7 -4.6,3.5 -7.9,3.5 -3.9,0.1 -6.6,3.2 -8.4,9.5 -1.3,5 -2.6,7.1 -8.1,12.7 -6.8,6.9 -7.4,9.2 -3,10.3 3.4,0.9 7.7,-1.1 8.8,-3.9 0.5,-1.3 1.3,-2.7 1.9,-3 1,-0.6 4.8,-8.4 7.1,-14.3 1.3,-3.5 4.8,-6.3 7.9,-6.3 1.1,0 2.3,-0.5 2.6,-1 0.3,-0.6 1.8,-1 3.3,-1 3.6,0 7.2,-2.6 7.2,-5.2 0,-1.1 -1.3,-4 -3,-6.5 -3.7,-5.5 -4.1,-9.4 -0.7,-8.5 4.1,1 8.2,3.8 9.5,6.5 0.7,1.5 2.8,3.9 4.7,5.3 2.9,2.2 4.1,2.5 7.2,2 2.1,-0.4 5.7,-0.9 8,-1.2 2.3,-0.3 5,-1.4 6,-2.4 1.1,-1 2.9,-2.1 4.1,-2.4 1.2,-0.4 3.1,-2 4.2,-3.6 1.8,-2.5 2.5,-2.8 5.6,-2.3 2.6,0.4 4.2,0.1 6.3,-1.5 1.6,-1.1 4.6,-2.5 6.8,-3.1 2.2,-0.6 5.6,-2.2 7.6,-3.5 1.9,-1.3 4.9,-2.7 6.6,-3.1 3.7,-0.8 8.8,-3.2 9.6,-4.6 0.4,-0.5 1.5,-0.9 2.5,-0.9 1,0 2.7,-1.1 3.8,-2.5 1.1,-1.4 3.5,-3.2 5.4,-4 1.9,-0.7 4,-2.1 4.7,-2.9 1.5,-1.7 1.6,-1.8 18.7,-10.5 6.7,-3.3 12.7,-6.8 13.5,-7.7 0.7,-0.9 2.2,-2 3.4,-2.5 2.2,-1 5.9,-3.4 9.6,-6.2 7.1,-5.3 11.4,-8.4 13.8,-9.7 1.4,-0.9 4.1,-3 6,-4.7 5,-4.6 7,-6.3 7.7,-6.3 0.4,0 2.6,-1.7 5,-3.8 2.4,-2 7.3,-6.2 11,-9.2 3.7,-3 8.7,-7.4 11.2,-9.7 2.4,-2.4 6,-5.2 7.8,-6.4 1.9,-1.1 3.4,-2.6 3.4,-3.3 0,-0.7 3.4,-4.6 7.6,-8.7 10.3,-10 11.5,-11.3 21.9,-22.5 5,-5.3 11.4,-12.1 14.3,-15 2.8,-3 5.2,-5.7 5.2,-6.1 0,-0.5 3.4,-4.3 7.5,-8.7 4.1,-4.3 7.5,-8.4 7.5,-9 0,-1.5 4.2,-5.6 5.7,-5.6 0.6,0 2.3,-1.9 3.9,-4.2 1.6,-2.4 6,-7.9 9.8,-12.3 3.8,-4.4 8,-9.8 9.5,-12 1.4,-2.2 5.3,-7.4 8.6,-11.7 3.3,-4.2 8.6,-11.2 11.8,-15.6 3.2,-4.4 6.7,-8.8 7.8,-9.8 1,-0.9 1.9,-2.1 1.9,-2.6 0,-0.5 2.4,-4.2 5.4,-8.1 2.9,-4 6.3,-9.2 7.5,-11.7 2.1,-4.3 2.1,-4.5 0.2,-6.3 -1.7,-1.7 -2.2,-1.8 -4.7,-0.6 -2.6,1.3 -8.4,8.2 -10.3,12.4 -0.5,1.1 -3,4 -5.4,6.4 -2.5,2.4 -5.1,5.7 -5.8,7.3 -1.1,2.8 -2.3,4.2 -10.3,12.8 -1.9,2 -4,5 -4.9,6.6 -0.9,1.7 -7.2,8.8 -14.2,16 -6.9,7.1 -13.8,14.7 -15.2,16.9 -1.4,2.1 -3.6,5.1 -4.9,6.5 -3.9,4.2 -10.4,12.1 -12.1,14.6 -0.8,1.3 -2.1,2.4 -2.8,2.4 -0.7,0 -2.5,1.7 -4.1,3.7 -3.9,5.2 -12.1,14.4 -20.3,22.8 -16.4,16.9 -16.5,17.1 -16.2,22.5 0.2,4 -0.2,5.1 -2,6.3 -1.9,1.4 -2.4,1.4 -4.4,0.1 -2,-1.3 -2.5,-1.2 -5.1,0.8 -1.6,1.3 -3.6,3 -4.4,3.9 -0.8,0.9 -5.1,3.8 -9.5,6.5 -11.4,6.9 -13.2,10 -7.4,13 l 3.1,1.6 -3.8,3.8 c -4.3,4.3 -6.4,3.9 -6.4,-1 0,-2.7 -0.1,-2.7 -4.2,-2 -3,0.6 -5,1.8 -7,4.2 -1.5,1.8 -2.8,3.6 -2.8,4 0,0.5 -1.1,0.8 -2.4,0.8 -1.3,0 -2.6,0.7 -3,1.5 -0.3,0.8 -1.2,1.5 -1.9,1.5 -0.8,0 -2.2,0.9 -3.2,2 -1,1.1 -2.4,2 -3,2 -0.7,0 -1.9,0.7 -2.6,1.6 -0.7,0.9 -3.3,2.6 -5.9,3.9 -2.5,1.2 -7,3.5 -10,5 -3,1.5 -7.3,3.7 -9.5,4.8 -2.2,1.1 -6.1,3.7 -8.6,5.8 -5.3,4.4 -16.3,10.9 -18.7,11 -1,0 -3,0.9 -4.7,2 -1.6,1 -4.1,2.4 -5.5,3 -1.4,0.6 -3.3,1.5 -4.2,2 -1,0.5 -2.3,0.9 -2.8,0.9 -0.6,0 -3,0.9 -5.2,2 -2.3,1.1 -4.8,2 -5.7,2 -0.8,0 -2.2,0.6 -3,1.4 -3,2.6 -18.6,10.2 -23.6,11.5 -2.7,0.7 -5.9,1.7 -7,2.1 -2.1,0.9 -5.9,1.8 -11,2.6 -4.9,0.8 -10.8,2.7 -14.3,4.6 -1.8,1 -4.2,1.8 -5.3,1.8 -2.6,0 -6.9,2.9 -6.9,4.6 0,1.1 -1.4,1.3 -6.2,0.8 -10.3,-0.9 -10.8,-1.1 -10.8,-4.3 0,-4.7 0.8,-5.8 8,-11.1 3.8,-2.8 7.9,-6.7 9.1,-8.8 7.8,-12.6 7.9,-13 5.1,-15.5 -2.1,-1.9 -12.1,-2.4 -15,-0.8 -0.9,0.5 -3.8,1.2 -6.3,1.6 l -4.6,0.7 -1.7,-4.4 c -1,-2.3 -2.4,-5 -3.1,-5.8 -0.7,-0.8 -2,-3.8 -3,-6.5 -0.9,-2.8 -2.7,-6.7 -4.1,-8.7 -1.3,-2.1 -2.4,-4.4 -2.4,-5.1 0,-0.8 -1.8,-3.5 -4,-6 -2.2,-2.5 -4,-4.8 -4,-5.3 0,-0.6 -4.3,-5.3 -14.7,-15.7 -6.8,-6.9 -15.6,-13.7 -17.6,-13.7 -1.1,0 -3.9,-1.8 -6.3,-4 -2.4,-2.2 -5.2,-4 -6.2,-4 -0.9,0 -2.6,-0.6 -3.7,-1.4 -2.2,-1.5 -16.8,-9.3 -25.8,-13.8 -3.2,-1.5 -6.2,-2.6 -6.7,-2.3 -0.5,0.3 -2.6,-0.2 -4.7,-1.1 -6.6,-2.9 -7.7,-3.2 -11.9,-3.7 -2.3,-0.3 -7.5,-2.1 -11.7,-4.1 -4.2,-2 -8.1,-3.6 -8.7,-3.6 -1.7,0 -5.2,-2.3 -9.7,-6.3 -2.4,-2 -4.9,-3.7 -5.7,-3.7 -0.7,0 -1.7,-0.8 -2.1,-1.8 -1,-2.2 -0.6,-15.3 0.6,-19.4 0.5,-1.8 0.9,-5.2 0.9,-7.6 0,-2.3 0.4,-5 0.9,-6 0.5,-0.9 1.4,-3.5 1.9,-5.7 2.5,-9.8 3.7,-13.3 6,-18.3 1.3,-2.9 2.8,-5.5 3.3,-5.8 0.5,-0.3 1.8,-2.4 2.8,-4.7 1.1,-2.4 2.9,-5.1 4,-6.1 1.2,-1.1 2.7,-3.1 3.5,-4.5 6.9,-13.5 14.6,-24.2 28.7,-40.4 8.7,-9.9 12.9,-16.7 12.9,-20.6 0,-1.1 0.4,-2.2 0.9,-2.6 2.7,-1.6 9.7,-14.5 8.6,-15.7 -0.3,-0.2 0.8,-1.6 2.3,-3 10.6,-10.1 21.6,-21.7 22.8,-24 0.8,-1.6 1.8,-2.8 2.3,-2.8 1.9,0 7,-6.5 11.6,-14.7 2.6,-4.9 6.5,-10.7 8.7,-13 2.1,-2.4 3.8,-5.1 3.8,-6.2 0,-1.1 1.1,-3.7 2.5,-5.7 1.4,-2 2.5,-4.9 2.5,-6.3 0,-1.4 0.9,-3.7 2,-5.1 1.1,-1.4 2,-3.1 2,-3.9 0,-0.8 1.3,-3.5 2.8,-6 3.3,-5.2 4.2,-8.3 4.9,-16.1 0.3,-3.2 1.3,-6.5 2.4,-7.9 1,-1.3 1.9,-3.5 1.9,-4.8 0,-1.3 0.9,-4.2 2,-6.3 1.1,-2.2 1.7,-4 1.4,-4 -0.4,0 0,-0.8 1,-1.9 1.1,-1.2 2.2,-5.5 3.1,-12.2 2.5,-18.6 4.6,-31 5.5,-33.5 0.5,-1.3 0.8,-2.4 0.5,-2.4 -0.6,0 1.6,-4.9 4,-8.8 1,-1.7 2.5,-3.2 3.3,-3.2 1.3,0 8.5,6.6 9.3,8.6 0.6,1.4 11.6,9.5 12.5,9.2 0.5,-0.2 2.3,0.2 3.9,0.8 1.7,0.7 5.9,1.6 9.5,2.1 5.7,0.9 7,0.8 10.7,-1 5.1,-2.5 5.4,-3.2 4,-8.3 -1.5,-4.8 -11.8,-15.4 -15.1,-15.4 -1.3,0 -3.3,-1.1 -4.5,-2.4 -2.3,-2.4 -8.7,-4.1 -11.5,-3 -4.6,1.8 1.8,6.4 8.9,6.4 3.5,0 5.6,1.3 12.3,7.8 5,4.9 4.1,6.5 -4.2,7.5 -9.3,1.2 -13.5,-0.5 -22.4,-9.1 -17.9,-17.1 -22.3,-20 -25.6,-16.7 z m 290.4,356 c 0,0.9 -0.6,1.2 -1.5,0.9 -0.8,-0.4 -1.2,-1 -0.9,-1.5 0.8,-1.4 2.4,-1 2.4,0.6 z m -7,8.4 c 0,0.5 -1.3,1.9 -3,3.1 -3.3,2.3 -4.2,0.9 -1.3,-2.2 1.7,-1.9 4.3,-2.4 4.3,-0.9 z m -53,54.5 c 0,1.5 -3.6,5.1 -8.2,8.1 -2.9,1.9 -3.9,2.1 -4.8,1.1 -0.8,-1 0.1,-2.6 3.8,-6.4 3.7,-4.1 5.2,-5 7,-4.5 1.2,0.3 2.2,1.1 2.2,1.7 z m -31.3,24.2 c 0.2,0.7 -0.9,2.1 -2.6,3.3 -2.7,1.9 -3.1,2 -4.5,0.5 -2.5,-2.5 -0.3,-5.6 3.6,-5.2 1.7,0.2 3.3,0.8 3.5,1.4 z m -13,8 c 1.5,0.4 2,1.1 1.5,2.2 -1.2,3.3 -4.6,7.2 -6.3,7.2 -1,0 -2.1,0.4 -2.4,1 -1.1,1.7 -4.4,1.1 -5.5,-1 -0.9,-1.7 -0.5,-2.6 2.7,-5.9 3.8,-3.9 5.8,-4.6 10,-3.5 z M 789,827.5 c 1.1,1.3 0.6,2.2 -3,5.5 -4.8,4.4 -7.1,4.3 -6.8,-0.3 0.2,-2.1 1.1,-3.5 3.3,-4.8 3.7,-2.3 4.9,-2.4 6.5,-0.4 z m -16.2,11.7 c 0.2,1.9 -0.1,2.8 -1.1,2.8 -0.7,0 -3.5,1.4 -6.1,3.1 -2.6,1.7 -4.9,3 -5.1,2.8 -0.2,-0.2 -0.6,-1.6 -1,-3.1 -0.6,-2.3 -0.2,-2.8 2.9,-4.3 1.9,-0.9 4.1,-2.3 4.7,-3.1 2,-2.4 5.4,-1.3 5.7,1.8 z m -20,10.4 c 2.1,0.6 -0.3,4 -3.7,5.2 -4.8,1.7 -9.7,-3.2 -5.5,-5.6 1.4,-0.8 6.2,-0.6 9.2,0.4 z m -15.4,6 c 3.3,3.2 1.2,8.2 -4,9.8 -1.5,0.5 -3.1,-0.1 -5.3,-2 -3.7,-3.1 -3.1,-4.4 3.3,-7.3 2.3,-1.1 4.2,-2 4.3,-2 0.1,-0.1 0.9,0.6 1.7,1.5 z m -17.3,9.1 c 3.3,2 3.5,3 1.3,6.2 -1.4,1.9 -2.3,2.2 -5.1,1.8 -6.3,-1.1 -8.4,-5.1 -4.1,-8.1 2.9,-2 4.3,-2 7.9,0.1 z m -14.1,9.6 c 0,3 -3.9,6.7 -7,6.7 -2.9,0 -5.4,-2.2 -6.4,-5.7 -0.6,-1.8 -0.1,-2.3 2.6,-3.2 7.6,-2.3 10.8,-1.7 10.8,2.2 z m -17.4,6.8 c 1.3,1.2 2.4,3.3 2.4,4.5 0,1.9 -0.6,2.3 -5.2,2.6 -6,0.5 -7.4,-0.2 -9.2,-4.6 -1.9,-4.4 -0.4,-5.9 5.2,-5.3 2.6,0.3 5.3,1.4 6.8,2.8 z m -16.6,3.9 1.9,3.7 -3.2,3 c -1.8,1.6 -3.8,2.9 -4.4,2.7 -0.7,-0.1 -1.7,-0.2 -2.2,-0.3 -1.2,-0.1 -4.3,-10 -3.7,-11.7 0.5,-1.3 5.9,-2.3 8.4,-1.5 0.7,0.2 2.1,2 3.2,4.1 z"
       id="path28"
       inkscape:connector-curvature="0"
       style="fill:#000000;stroke:none;stroke-width:0.1" />
    <path
       d="m 361.3,409.2 c -0.4,0.7 -0.8,8.7 -0.8,17.8 -0.1,9.3 -0.7,18.7 -1.4,21.5 -0.7,2.7 -1.5,6.6 -1.8,8.5 -0.3,1.9 -1.1,3.9 -1.8,4.5 -1.2,1 -3.5,12.1 -3.5,17.1 0,1.6 -0.6,3.9 -1.4,5 -0.9,1.2 -1.6,5.5 -1.9,10.5 -0.5,9.1 -1.8,17.7 -3,19.6 -0.4,0.6 -0.7,5.3 -0.8,10.3 -0.1,7.9 0.2,9.5 1.9,11.2 1.8,1.8 2,1.8 3.6,0.3 1.3,-1.3 1.6,-3.8 1.6,-12.3 0,-5.9 0.8,-15.2 1.6,-20.7 0.8,-5.5 1.7,-12.5 2,-15.5 0.3,-3 1.4,-8.5 2.5,-12.1 1,-3.6 1.9,-8 1.9,-9.8 0,-1.8 1.2,-5 2.8,-7.3 1.5,-2.3 2.8,-5.1 2.9,-6.2 0.6,-5.7 1.9,-10.7 2.8,-10.8 0.6,-0.1 1.8,2.8 2.8,6.3 1,3.5 2.2,7.8 2.7,9.5 0.6,1.7 1,5.1 1,7.6 0,2.5 0.4,6.7 0.9,9.4 1.5,8 1.1,32 -0.7,41.4 -0.9,5.1 -2.2,7.8 -4.9,10.1 -3.2,2.9 -11.7,13.9 -14,18 -1.7,3.2 -1.9,4.7 -1.2,7.1 0.7,2.6 0.4,3.6 -1.7,6.1 -2,2.4 -2.4,3.9 -2.3,7.9 0.3,5.5 2.7,9.5 5.1,8.5 1.3,-0.4 1.5,-2.1 1.1,-9.4 -0.5,-8.7 -0.5,-8.9 3,-14.8 2,-3.3 4.5,-7.6 5.6,-9.5 2.7,-4.9 6.8,-9.1 8.3,-8.5 0.9,0.4 1.3,2.8 1.3,8.3 0,5.7 0.5,8.5 1.8,10.5 0.9,1.4 1.7,3.5 1.7,4.6 0,1.1 2.5,4.5 5.7,7.6 l 5.7,5.5 h 7.1 c 8.2,0 12.9,-2.4 12.3,-6.4 -0.3,-1.8 -0.9,-2.1 -4.3,-1.9 -2.2,0.1 -5.6,0.5 -7.5,0.8 -4.9,0.9 -9.6,-2.5 -13.8,-9.9 -3.5,-6.4 -3.6,-6.7 -3,-31.6 0.1,-4.1 0.1,-10.2 0.1,-13.5 -0.1,-3.3 -0.1,-11.4 0,-18 0.3,-14.8 -1.1,-36.7 -2.3,-37.9 -0.6,-0.6 -1,-1.7 -1,-2.6 0,-0.9 -0.8,-3.4 -1.9,-5.6 -1,-2.1 -2.2,-6.2 -2.6,-8.9 -0.8,-6.4 -5.3,-19.5 -7.3,-21.8 -1.8,-2 -3.8,-2.2 -4.9,-0.5 z"
       id="path30"
       inkscape:connector-curvature="0"
       style="fill:#000000;stroke:none;stroke-width:0.1" />
    <path
       d="m 970.3,469.7 c -2,0.8 -1.5,2.3 0.7,2.3 1.1,0 2,-0.7 2,-1.5 0,-1.5 -0.6,-1.7 -2.7,-0.8 z"
       id="path32"
       inkscape:connector-curvature="0"
       style="fill:#000000;stroke:none;stroke-width:0.1" />
    <path
       d="m 336,525.2 c -1.6,2.5 -3.9,15.7 -4,22.7 0,3.1 -0.8,5.6 -2.5,8.1 -2.2,3.2 -2.5,4.6 -2.6,14.7 -0.1,9 0.2,11.7 1.5,13.8 2.1,3.2 3.2,3.1 8.3,-0.2 7.3,-4.7 9.3,-12 7.8,-27.8 l -0.6,-6 4,-2.3 c 4.2,-2.3 4.8,-3.6 3.2,-6.1 -0.8,-1.2 -1.4,-1.3 -3.5,-0.3 -1.4,0.6 -2.6,1.9 -2.6,2.7 0,0.9 -1.2,2.6 -2.7,3.9 -2.6,2.3 -2.7,2.6 -2.8,14 -0.1,12.4 -1.1,15.4 -4.9,14 -1.7,-0.6 -1.8,-1.6 -1.2,-10.2 0.6,-7.5 1.3,-10.7 3.5,-15.1 2.4,-4.7 2.9,-7.3 3.3,-15.6 0.3,-5.5 0.3,-10.6 0.1,-11.3 -0.7,-1.9 -2.7,-1.4 -4.3,1 z"
       id="path36"
       inkscape:connector-curvature="0"
       style="fill:#000000;stroke:none;stroke-width:0.1" />
    <path
       d="m 589.5,915.3 c -5.2,1.2 -7.7,2.4 -11.7,5.7 -3,2.5 -3.1,2.8 -1.9,5.8 1.6,3.8 2.8,4.3 11.7,4.1 5.5,-0.2 7.5,-0.6 10.1,-2.5 4,-3 4.8,-5.5 3,-9.1 -1.9,-3.7 -6,-5.1 -11.2,-4 z m 0.5,7.2 c 0,0.8 -0.7,1.5 -1.5,1.5 -1.6,0 -2,-1.2 -0.8,-2.3 1.1,-1.2 2.3,-0.8 2.3,0.8 z"
       id="path38"
       inkscape:connector-curvature="0"
       style="fill:#000000;stroke:none;stroke-width:0.1" />
    <path
       d="m 239.5,1411 c -0.4,0.7 -0.3,1.6 0.3,2.2 1.4,1.4 4.5,0.2 4,-1.5 -0.6,-1.6 -3.4,-2.1 -4.3,-0.7 z"
       id="path42"
       inkscape:connector-curvature="0"
       style="fill:#000000;stroke:none;stroke-width:0.1" />
    <path
       d="m 618.6,1436.2 c -2,2.9 -2,3.3 0.3,5.5 1,1 2.6,3 3.5,4.5 l 1.8,2.7 -3.9,2.4 c -5.7,3.7 -11.3,10.6 -11.3,14 0,1.9 3.6,5 6.1,5.4 1.1,0.2 2.9,-0.2 4,-0.8 1.2,-0.6 6.2,-1.2 11.2,-1.4 15,-0.6 18.4,-1.4 21.2,-4.7 1.4,-1.6 2.5,-3.3 2.5,-3.6 0,-0.4 -2.2,-3.1 -4.9,-6 -4.7,-5.1 -11.7,-9.1 -16.9,-9.7 -1.5,-0.1 -2.8,-0.7 -3,-1.3 -0.8,-2.6 -6.4,-9.2 -7.6,-9.2 -0.8,0 -2.2,1 -3,2.2 z m 18.8,21.6 c 1.2,2 -1.3,2.9 -7.2,2.8 -7.2,-0.1 -7.9,-1.7 -2.3,-4.7 3,-1.6 3.7,-1.7 6.2,-0.4 1.5,0.8 3,1.8 3.3,2.3 z"
       id="path44"
       inkscape:connector-curvature="0"
       style="fill:#000000;stroke:none;stroke-width:0.1" />
    <path
       d="m 206.8,1449.9 c -3,2.5 -1.6,4 5,5.8 6,1.6 8.9,1.6 9.8,0.1 0.9,-1.4 -4.3,-5.8 -6.9,-5.8 -1,0 -2.7,-0.4 -3.7,-1 -1.4,-0.7 -2.4,-0.5 -4.2,0.9 z"
       id="path46"
       inkscape:connector-curvature="0"
       style="fill:#000000;stroke:none;stroke-width:0.1" />
    <path
       d="m 367.2,1487.1 c 0.1,1.3 0.8,2.3 1.3,2.1 1.5,-0.3 1.2,-3.5 -0.3,-4 -0.9,-0.3 -1.3,0.3 -1,1.9 z"
       id="path48"
       inkscape:connector-curvature="0"
       style="fill:#000000;stroke:none;stroke-width:0.1" />
    <path
       d="m 438.3,1511.7 c 0.9,0.2 2.3,0.2 3,0 0.6,-0.3 -0.1,-0.5 -1.8,-0.5 -1.6,0 -2.2,0.2 -1.2,0.5 z"
       id="path50"
       inkscape:connector-curvature="0"
       style="fill:#000000;stroke:none;stroke-width:0.1" />
  </g>
</svg>
