<?xml version="1.0" encoding="UTF-8" standalone="no"?>
<!-- Created with Inkscape (http://www.inkscape.org/) -->

<svg
   xmlns:dc="http://purl.org/dc/elements/1.1/"
   xmlns:cc="http://creativecommons.org/ns#"
   xmlns:rdf="http://www.w3.org/1999/02/22-rdf-syntax-ns#"
   xmlns:svg="http://www.w3.org/2000/svg"
   xmlns="http://www.w3.org/2000/svg"
   xmlns:xlink="http://www.w3.org/1999/xlink"
   xmlns:sodipodi="http://sodipodi.sourceforge.net/DTD/sodipodi-0.dtd"
   xmlns:inkscape="http://www.inkscape.org/namespaces/inkscape"
   width="210mm"
   height="297mm"
   viewBox="0 0 210 297"
   version="1.1"
   id="svg8"
   inkscape:version="0.92.3 (2405546, 2018-03-11)"
   sodipodi:docname="a.svg">
  <defs
     id="defs2">
    <linearGradient
       id="linearGradient5697-9"
       x1="-13.206"
       x2="-13.206"
       y1="26.259001"
       y2="47.300999"
       gradientTransform="translate(13.878,13.831)"
       gradientUnits="userSpaceOnUse">
      <stop
         stop-color="#cbcbcb"
         stop-opacity=".27451"
         offset="0"
         id="stop1358" />
      <stop
         stop-color="#cbcbcb"
         offset=".04"
         id="stop1360" />
      <stop
         stop-color="#cbcbcb"
         offset=".96"
         id="stop1362" />
      <stop
         stop-color="#cbcbcb"
         stop-opacity=".2757"
         offset="1"
         id="stop1364" />
    </linearGradient>
    <clipPath
       id="clipPath5738-1">
      <path
         style="color:#000000"
         inkscape:connector-curvature="0"
         d="M 0.45114,39.688 C 0.20128,39.688 1e-5,39.88876 1e-5,40.13862 v 20.945 c 0,0.24986 0.20127,0.45114 0.45113,0.45114 h 3.4742 c 0.24986,0 0.45114,-0.20127 0.45114,-0.45114 v -20.945 c 0,-0.24986 -0.20127,-0.45062 -0.45114,-0.45062 z"
         id="path1367" />
    </clipPath>
    <filter
       style="color-interpolation-filters:sRGB"
       id="filter5465-7-2-5"
       x="-0.32506001"
       y="-0.025913"
       width="1.6501"
       height="1.0518">
      <feGaussianBlur
         stdDeviation="0.07139097"
         id="feGaussianBlur1370" />
    </filter>
    <linearGradient
       id="linearGradient5475"
       x1="-13.206"
       x2="-13.206"
       y1="26.259001"
       y2="32.870998"
       gradientUnits="userSpaceOnUse"
       xlink:href="#linearGradient5473-6" />
    <linearGradient
       id="linearGradient5473-6">
      <stop
         stop-color="#cbcbcb"
         stop-opacity=".27451"
         offset="0"
         id="stop1289" />
      <stop
         stop-color="#cbcbcb"
         offset=".05"
         id="stop1291" />
      <stop
         stop-color="#cbcbcb"
         offset=".95"
         id="stop1293" />
      <stop
         stop-color="#cbcbcb"
         stop-opacity=".2757"
         offset="1"
         id="stop1295" />
    </linearGradient>
    <clipPath
       id="clipPath5401">
      <rect
         style="color:#000000"
         x="-13.878"
         y="25.857"
         width="4.3765001"
         height="7.4166999"
         ry="0.45102"
         id="rect1319" />
    </clipPath>
    <filter
       style="color-interpolation-filters:sRGB"
       id="filter5465"
       x="-0.32506001"
       y="-0.025913"
       width="1.6501"
       height="1.0518">
      <feGaussianBlur
         stdDeviation="0.07139097"
         id="feGaussianBlur1322" />
    </filter>
    <linearGradient
       id="linearGradient5475-9"
       x1="-13.206"
       x2="-13.206"
       y1="26.259001"
       y2="39.269001"
       gradientTransform="translate(13.878,13.831)"
       gradientUnits="userSpaceOnUse"
       xlink:href="#linearGradient5473-6" />
    <clipPath
       id="clipPath5589">
      <path
         style="color:#000000"
         inkscape:connector-curvature="0"
         d="M 0.45114,39.688 C 0.20128,39.688 0,39.88876 0,40.13862 v 12.913 c 0,0.24986 0.20127,0.45114 0.45114,0.45114 h 3.4742 c 0.24986,0 0.45114,-0.20127 0.45114,-0.45114 v -12.913 c 0,-0.24986 -0.20127,-0.45062 -0.45114,-0.45062 z"
         id="path1330" />
    </clipPath>
    <filter
       style="color-interpolation-filters:sRGB"
       id="filter5465-7"
       x="-0.32506001"
       y="-0.025913"
       width="1.6501"
       height="1.0518">
      <feGaussianBlur
         stdDeviation="0.07139097"
         id="feGaussianBlur1327" />
    </filter>
    <clipPath
       id="clipPath5589-7">
      <path
         style="color:#000000"
         inkscape:connector-curvature="0"
         d="M 0.45114,39.688 C 0.20128,39.688 0,39.88876 0,40.13862 v 12.913 c 0,0.24986 0.20127,0.45114 0.45114,0.45114 h 3.4742 c 0.24986,0 0.45114,-0.20127 0.45114,-0.45114 v -12.913 c 0,-0.24986 -0.20127,-0.45062 -0.45114,-0.45062 z"
         id="path1333" />
    </clipPath>
    <filter
       style="color-interpolation-filters:sRGB"
       id="filter5465-7-8"
       x="-0.32506001"
       y="-0.025913"
       width="1.6501"
       height="1.0518">
      <feGaussianBlur
         stdDeviation="0.07139097"
         id="feGaussianBlur1336" />
    </filter>
    <clipPath
       id="clipPath4960">
      <path
         style="color:#000000;fill:#ebebeb"
         inkscape:connector-curvature="0"
         d="m 56.734,2.0137 c -29.679,0 -53.572,23.894 -53.572,53.572 v 610.44 c 0,29.679 23.894,53.572 53.572,53.572 h 246.53 c 29.679,0 53.572,-23.894 53.572,-53.572 v -610.44 c 0,-29.679 -23.894,-53.572 -53.572,-53.572 z m -1.4238,3.9785 h 249.38 c 26.582,0 47.982,21.398 47.982,47.98 v 614.24 c 0,26.582 -21.4,47.982 -47.982,47.982 h -249.38 c -26.582,0 -47.982,-21.4 -47.982,-47.982 v -614.24 c 0,-26.582 21.4,-47.98 47.982,-47.98 z"
         id="path1305" />
    </clipPath>
    <filter
       style="color-interpolation-filters:sRGB"
       id="filter4996"
       x="-0.0017458"
       y="-0.00091419998"
       width="1.0035"
       height="1.0017999">
      <feGaussianBlur
         stdDeviation="0.26620632"
         id="feGaussianBlur1308" />
    </filter>
    <linearGradient
       id="linearGradient5226"
       x1="340.64999"
       x2="349.57001"
       y1="361.12"
       y2="361.12"
       gradientTransform="matrix(0.26458,0,0,0.26458,8.7313,0)"
       gradientUnits="userSpaceOnUse"
       xlink:href="#linearGradient5220" />
    <linearGradient
       id="linearGradient5220">
      <stop
         stop-color="#404040"
         offset="0"
         id="stop1298" />
      <stop
         stop-color="#838383"
         offset=".6"
         id="stop1300" />
      <stop
         stop-color="#a7a7a7"
         offset="1"
         id="stop1302" />
    </linearGradient>
    <linearGradient
       id="linearGradient5226-6"
       x1="340.64999"
       x2="349.57001"
       y1="361.12"
       y2="361.12"
       gradientTransform="matrix(-0.26458,0,0,0.26458,95.476,7.5448999e-7)"
       gradientUnits="userSpaceOnUse"
       xlink:href="#linearGradient5220" />
    <pattern
       id="pattern956"
       patternTransform="matrix(.26458 0 0 .26458 -72.212 -24.236)"
       xlink:href="#pattern2874" />
    <pattern
       id="pattern2874"
       width="1.171848"
       height="1.1718804"
       patternTransform="matrix(.26458 0 0 .26458 -76.446 -5.7813)"
       patternUnits="userSpaceOnUse">
      <g
         transform="matrix(3.7795 0 0 3.7795 288.93 -26.721)"
         id="g1355">
        <rect
           x="-76.446"
           y="7.0699"
           width=".15503"
           height=".15503"
           fill="#212121"
           id="rect1347" />
        <rect
           x="-76.291"
           y="7.225"
           width=".15503"
           height=".15503"
           fill="#212121"
           id="rect1349" />
        <rect
           x="-76.291"
           y="7.0699"
           width=".15503"
           height=".15503"
           fill="#060606"
           id="rect1351" />
        <rect
           x="-76.446"
           y="7.225"
           width=".15503"
           height=".15503"
           fill="#060606"
           id="rect1353" />
      </g>
    </pattern>
    <filter
       style="color-interpolation-filters:sRGB"
       id="filter5343"
       x="-0.19227999"
       y="-0.082465"
       width="1.3846"
       height="1.1648999">
      <feGaussianBlur
         stdDeviation="0.030983682"
         id="feGaussianBlur1313" />
    </filter>
    <filter
       style="color-interpolation-filters:sRGB"
       id="filter5347"
       x="-0.10878"
       y="-0.082314"
       width="1.2176"
       height="1.1646">
      <feGaussianBlur
         stdDeviation="0.030983682"
         id="feGaussianBlur1316" />
    </filter>
    <linearGradient
       id="linearGradient5832"
       x1="8.3153"
       x2="95.955002"
       y1="8.4800997"
       y2="8.4800997"
       gradientTransform="translate(0.066817,-21.061)"
       gradientUnits="userSpaceOnUse"
       xlink:href="#linearGradient5830" />
    <linearGradient
       id="linearGradient5830">
      <stop
         stop-color="#4f4f4f"
         stop-opacity=".13084"
         offset="0"
         id="stop1280" />
      <stop
         stop-color="#4f4f4f"
         offset=".07"
         id="stop1282" />
      <stop
         stop-color="#4f4f4f"
         stop-opacity=".95327"
         offset=".937"
         id="stop1284" />
      <stop
         stop-color="#4f4f4f"
         stop-opacity="0"
         offset="1"
         id="stop1286" />
    </linearGradient>
    <linearGradient
       id="linearGradient5832-3"
       x1="8.3153"
       x2="95.666"
       y1="8.4800997"
       y2="8.4800997"
       gradientTransform="matrix(1,0,0,-1,0.066817,193.83)"
       gradientUnits="userSpaceOnUse"
       xlink:href="#linearGradient5830" />
    <mask
       id="mask1062"
       maskUnits="userSpaceOnUse">
      <path
         style="color:#000000;fill:none;stroke:#ffffff;stroke-width:0.052917;stroke-linecap:round"
         inkscape:connector-curvature="0"
         d="m 42.747,7.2621 c -0.39917,0 -0.72037,0.3212 -0.72037,0.72037 0,0.39917 0.3212,0.72037 0.72037,0.72037 h 9.9219 c 0.39917,0 0.72037,-0.3212 0.72037,-0.72037 0,-0.39917 -0.3212,-0.72037 -0.72037,-0.72037 z"
         id="path1341" />
    </mask>
    <filter
       style="color-interpolation-filters:sRGB"
       id="filter1214"
       x="-0.09973"
       y="-2.5666001"
       width="1.1995"
       height="6.1332002">
      <feGaussianBlur
         stdDeviation="0.49125426"
         id="feGaussianBlur1344" />
    </filter>
    <linearGradient
       id="linearGradient2973"
       x1="-41.980999"
       x2="155.56"
       y1="95.480003"
       y2="95.480003"
       gradientTransform="matrix(0,3.7795,-3.7795,0,540.87,180.12)"
       gradientUnits="userSpaceOnUse">
      <stop
         stop-color="#343434"
         offset="0"
         id="stop1373" />
      <stop
         stop-color="#171717"
         offset="1"
         id="stop1375" />
    </linearGradient>
    <clipPath
       id="clipPath4960-8">
      <path
         style="color:#000000;fill:#ebebeb"
         inkscape:connector-curvature="0"
         d="m 56.734,2.0137 c -29.679,0 -53.572,23.894 -53.572,53.572 v 610.44 c 0,29.679 23.894,53.572 53.572,53.572 h 246.53 c 29.679,0 53.572,-23.894 53.572,-53.572 v -610.44 c 0,-29.679 -23.894,-53.572 -53.572,-53.572 z m -1.4238,3.9785 h 249.38 c 26.582,0 47.982,21.398 47.982,47.98 v 614.24 c 0,26.582 -21.4,47.982 -47.982,47.982 h -249.38 c -26.582,0 -47.982,-21.4 -47.982,-47.982 v -614.24 c 0,-26.582 21.4,-47.98 47.982,-47.98 z"
         id="path1378" />
    </clipPath>
    <filter
       style="color-interpolation-filters:sRGB"
       id="filter4996-32"
       x="-0.0017458"
       y="-0.00091419998"
       width="1.0035"
       height="1.0017999">
      <feGaussianBlur
         stdDeviation="0.26620632"
         id="feGaussianBlur1381" />
    </filter>
    <clipPath
       id="clipPath4960-9">
      <path
         style="color:#000000;fill:#ebebeb"
         inkscape:connector-curvature="0"
         d="m 56.734,2.0137 c -29.679,0 -53.572,23.894 -53.572,53.572 v 610.44 c 0,29.679 23.894,53.572 53.572,53.572 h 246.53 c 29.679,0 53.572,-23.894 53.572,-53.572 v -610.44 c 0,-29.679 -23.894,-53.572 -53.572,-53.572 z m -1.4238,3.9785 h 249.38 c 26.582,0 47.982,21.398 47.982,47.98 v 614.24 c 0,26.582 -21.4,47.982 -47.982,47.982 h -249.38 c -26.582,0 -47.982,-21.4 -47.982,-47.982 v -614.24 c 0,-26.582 21.4,-47.98 47.982,-47.98 z"
         id="path1390" />
    </clipPath>
    <filter
       style="color-interpolation-filters:sRGB"
       id="filter4996-9"
       x="-0.0017458"
       y="-0.00091419998"
       width="1.0035"
       height="1.0017999">
      <feGaussianBlur
         stdDeviation="0.26620632"
         id="feGaussianBlur1393" />
    </filter>
    <clipPath
       id="clipPath4960-8-1">
      <path
         style="color:#000000;fill:#ebebeb"
         inkscape:connector-curvature="0"
         d="m 56.734,2.0137 c -29.679,0 -53.572,23.894 -53.572,53.572 v 610.44 c 0,29.679 23.894,53.572 53.572,53.572 h 246.53 c 29.679,0 53.572,-23.894 53.572,-53.572 v -610.44 c 0,-29.679 -23.894,-53.572 -53.572,-53.572 z m -1.4238,3.9785 h 249.38 c 26.582,0 47.982,21.398 47.982,47.98 v 614.24 c 0,26.582 -21.4,47.982 -47.982,47.982 h -249.38 c -26.582,0 -47.982,-21.4 -47.982,-47.982 v -614.24 c 0,-26.582 21.4,-47.98 47.982,-47.98 z"
         id="path1384" />
    </clipPath>
    <filter
       style="color-interpolation-filters:sRGB"
       id="filter4996-32-9"
       x="-0.0017458"
       y="-0.00091419998"
       width="1.0035"
       height="1.0017999">
      <feGaussianBlur
         stdDeviation="0.26620632"
         id="feGaussianBlur1387" />
    </filter>
    <linearGradient
       inkscape:collect="always"
       xlink:href="#linearGradient5473-6"
       id="linearGradient2512"
       gradientUnits="userSpaceOnUse"
       gradientTransform="translate(13.878,13.831)"
       x1="-13.206"
       y1="26.259001"
       x2="-13.206"
       y2="39.269001" />
  </defs>
  <sodipodi:namedview
     id="base"
     pagecolor="#ffffff"
     bordercolor="#666666"
     borderopacity="1.0"
     inkscape:pageopacity="0.0"
     inkscape:pageshadow="2"
     inkscape:zoom="0.9401183"
     inkscape:cx="141.85931"
     inkscape:cy="1023.6875"
     inkscape:document-units="mm"
     inkscape:current-layer="layer1"
     showgrid="false"
     inkscape:window-width="1280"
     inkscape:window-height="996"
     inkscape:window-x="0"
     inkscape:window-y="0"
     inkscape:window-maximized="1"
     inkscape:snap-global="false" />
  <metadata
     id="metadata5">
    <rdf:RDF>
      <cc:Work
         rdf:about="">
        <dc:format>image/svg+xml</dc:format>
        <dc:type
           rdf:resource="http://purl.org/dc/dcmitype/StillImage" />
        <dc:title />
      </cc:Work>
    </rdf:RDF>
  </metadata>
  <g
     inkscape:label="Layer 1"
     inkscape:groupmode="layer"
     id="layer1">
    <g
       id="g976">
      <image
         sodipodi:absref="/home/bcrowell/Documents/writing/books/physics/fac/fields/figs/brick-arch-bitmaps/brick-arch.jpg"
         xlink:href="/home/bcrowell/Documents/writing/books/physics/fac/fields/figs/brick-arch-bitmaps/brick-arch.jpg"
         width="52"
         height="62.38129"
         preserveAspectRatio="none"
         id="image874"
         x="4.6522121"
         y="3.9436908" />
      <path
         inkscape:connector-curvature="0"
         id="path877"
         d="M 28.784063,3.9779683 28.614822,4.355507 28.497654,4.6549341 28.26332,4.9934172 v 0.663947 l -0.377539,0.6639472 -0.273388,0.7420586 0.05207,0.4165944 -0.15622,0.4556501 -0.5598,1.0284671 -0.494706,1.1586534 0.09113,0.312445 -0.716022,1.119598 -0.859226,1.965804 -0.963375,1.64034 0.03906,0.260372 -0.36452,0.689984 -0.36452,0.598854 -0.611873,0.82017 -0.468668,0.559799 -0.598855,0.872244 -0.559798,0.611873 -0.520743,0.72904 -0.338483,0.390557 -0.143204,0.27339 -0.156223,0.18226 -0.117167,0.312446 -0.468669,0.416594 0.299427,0.781115 0.130186,0.143204 -0.416594,1.54921 0.03906,0.390557 -1.679396,1.809582 -0.247352,0.260371 -0.885263,1.080542 -0.963375,1.054505 -0.676965,0.768096 -0.742059,0.689983 -0.898282,1.145635 -0.169241,0.755076 0.169241,0.325464 -0.130185,0.703003 0.05207,0.169244 0.03906,0.377536 0.156222,0.09113 -0.05207,0.221316 0.143205,-0.05207 -0.169242,0.351501 0.156223,0.09113 -0.130186,0.54678 0.104149,0.442632 -0.338483,0.481687 0.01302,0.156223 -0.325464,0.663948 0.533762,0.01302 -0.07811,1.145635 -0.703003,0.559797 -0.429613,0.624893 -0.03905,0.221314 -1.379969,1.19771 -0.208297,-0.02604 -0.5597988,0.742058 -0.2082972,0.742059 -0.1301855,0.403577 -0.7941332,0.742058 -0.1692412,0.650928 0.1301856,0.390557 -0.3124457,0.260371 -0.3515013,0.494707 -0.1301859,0.54678 0.54678,0.260371 -0.1432041,0.598853 -0.5337617,0.885264 -0.2213155,0.885264 -0.065093,0.221316 -0.2473528,0.02604 -0.2603715,0.54678 0.052074,0.273391 -0.3645199,0.286409 -0.429613,0.54678 -0.5207428,0.247354 -0.3124457,0.572815 -0.1432044,0.143206 -0.065093,0.455649 -0.1562229,0.182261 0.026038,0.260371 -0.1041485,-0.09113 -0.09113,0.156223 -0.2213155,0.312446 0.065093,0.234334 -0.1301859,0.06509 V 3.9389153 H 28.64086 Z"
         style="opacity:1;vector-effect:none;fill:#103052;fill-opacity:1;stroke:none;stroke-width:0.35277778;stroke-linecap:butt;stroke-linejoin:miter;stroke-miterlimit:4;stroke-dasharray:none;stroke-dashoffset:0;stroke-opacity:1;marker:none;marker-start:none;marker-mid:none;marker-end:none" />
    </g>
    <g
       id="g2853"
       transform="matrix(0.9674294,0.1990908,-0.24932762,0.98235713,-1.0122907,18.334817)">
      <g
         id="g1502"
         transform="matrix(0.09587735,0,0,0.09587735,18.681697,-16.232558)">
        <path
           id="path1398"
           d="M 54.74,0 C 25.5,0 1.961,23.539 1.961,52.779 v 70.762 543.92 70.762 c 0,29.24 23.539,52.781 52.779,52.781 h 33 73.963 16.5 l 2.1856,-3.0977 h 32.221 l 2.1875,3.0977 h 16.5 73.963 33 c 29.24,0 52.779,-23.541 52.779,-52.781 V 667.461 123.541 52.779 C 391.0391,23.539 367.5001,0 338.2601,0 h -33 -217.52 z"
           transform="matrix(0.26458,0,0,0.26458,0,-18.256)"
           inkscape:connector-curvature="0"
           style="color:#000000" />
        <g
           id="g1404"
           transform="translate(8.7313,-18.455)">
          <path
             id="path1400"
             d="m 94.799,44.206 c 0.24986,0 0.45114,0.20076 0.45114,0.45062 v 20.945 c 0,0.24986 -0.20127,0.45114 -0.45114,0.45114 h -3.4742 c -0.24986,0 -0.45114,-0.20127 -0.45114,-0.45114 v -20.945 c 0,-0.24986 0.20127,-0.45062 0.45114,-0.45062 z"
             inkscape:connector-curvature="0"
             style="color:#000000" />
          <path
             id="path1402"
             clip-path="url(#clipPath5738-1)"
             d="m 0.54703,40.09 c -0.22275,0 -0.40204,0.17929 -0.40204,0.40204 v 20.238 c 0,0.22275 0.17929,0.40204 0.40204,0.40204 h 0.12506 v -21.042 z"
             transform="matrix(-1,0,0,1,95.25,4.5184)"
             inkscape:connector-curvature="0"
             style="color:#000000;fill:url(#linearGradient5697-9);filter:url(#filter5465-7-2-5)" />
        </g>
        <g
           id="g1410"
           transform="translate(0.013501,-18.455)">
          <rect
             id="rect1406"
             ry="0.45102"
             height="7.4166999"
             width="4.3765001"
             y="25.857"
             x="-0.013501"
             style="color:#000000" />
          <path
             id="path1408"
             clip-path="url(#clipPath5401)"
             d="m -13.331,26.259 c -0.22275,0 -0.40204,0.17929 -0.40204,0.40204 v 5.8079 c 0,0.22275 0.17929,0.40204 0.40204,0.40204 h 0.12506 v -6.612 z"
             transform="translate(13.864)"
             inkscape:connector-curvature="0"
             style="color:#000000;fill:url(#linearGradient5475);filter:url(#filter5465)" />
        </g>
        <g
           id="g1416"
           transform="translate(0,-18.455)">
          <path
             id="path1412"
             d="M 0.45114,39.688 C 0.20128,39.688 0,39.88876 0,40.13862 v 12.913 c 0,0.24986 0.20127,0.45114 0.45114,0.45114 h 3.4742 c 0.24986,0 0.45114,-0.20127 0.45114,-0.45114 v -12.913 c 0,-0.24986 -0.20127,-0.45062 -0.45114,-0.45062 z"
             inkscape:connector-curvature="0"
             style="color:#000000" />
          <path
             id="path1414"
             clip-path="url(#clipPath5589)"
             d="m 0.54703,40.09 c -0.22275,0 -0.40204,0.17929 -0.40204,0.40204 v 12.206 c 0,0.22275 0.17929,0.40204 0.40204,0.40204 h 0.12506 v -13.01 z"
             inkscape:connector-curvature="0"
             style="color:#000000;fill:url(#linearGradient2512);filter:url(#filter5465-7)" />
        </g>
        <g
           id="g1422"
           transform="translate(0,-1.0827)">
          <path
             id="path1418"
             d="M 0.45114,39.688 C 0.20128,39.688 0,39.88876 0,40.13862 v 12.913 c 0,0.24986 0.20127,0.45114 0.45114,0.45114 h 3.4742 c 0.24986,0 0.45114,-0.20127 0.45114,-0.45114 v -12.913 c 0,-0.24986 -0.20127,-0.45062 -0.45114,-0.45062 z"
             inkscape:connector-curvature="0"
             style="color:#000000" />
          <path
             id="path1420"
             clip-path="url(#clipPath5589-7)"
             d="m 0.54703,40.09 c -0.22275,0 -0.40204,0.17929 -0.40204,0.40204 v 12.206 c 0,0.22275 0.17929,0.40204 0.40204,0.40204 h 0.12506 v -13.01 z"
             inkscape:connector-curvature="0"
             style="color:#000000;fill:url(#linearGradient5475-9);filter:url(#filter5465-7-8)" />
        </g>
        <g
           id="g1438">
          <g
             id="g1434">
            <path
               id="path1424"
               d="m 0.83665,1.371 h 1.1022 V 0.0682 h -1.1022 z"
               inkscape:connector-curvature="0"
               style="color:#000000;fill:#7d7e7f" />
            <path
               id="path1426"
               d="m 0.83665,171.47 h 1.1022 V 1.37 h -1.1022 z"
               inkscape:connector-curvature="0"
               style="color:#000000;fill:#ebebeb" />
            <path
               id="path1428"
               d="m 0.83665,172.77 h 1.1022 v -1.3033 h -1.1022 z"
               inkscape:connector-curvature="0"
               style="color:#000000;fill:#7d7e7f" />
            <path
               id="path1430"
               d="m 103.18,172.78 h -1.1022 v 4.3594 c 0,7.0332 -5.6976,12.684 -12.731,12.684 h -74.713 c -7.0332,0 -12.695,-5.6622 -12.695,-12.695 V 172.769 H 0.8366 v 3.7827 c 0,7.8524 6.3219,14.174 14.174,14.174 h 73.959 c 7.8525,0 14.21,-6.3106 14.21,-14.163 z"
               inkscape:connector-curvature="0"
               style="color:#000000;fill:#ebebeb" />
            <path
               id="path1432"
               d="M 15.011,-17.856 C 7.1586,-17.8573 0.837,-11.5341 0.837,-3.682 v 3.7496 h 1.1022 v -4.1765 c 0,-7.0332 5.6622,-12.696 12.695,-12.695 l 74.748,0.01181 c 7.0332,0.0011 12.695,5.6616 12.695,12.695 v 4.1765 h 1.1022 v -3.7496 c 0,-7.8525 -6.3219,-14.173 -14.174,-14.174 z"
               inkscape:connector-curvature="0"
               style="color:#000000;fill:#ebebeb" />
          </g>
          <path
             id="path1436"
             clip-path="url(#clipPath4960)"
             d="m 37.924,11.58 c -6.5868,-0.16785 -19.141,1.8259 -32.031,16.312 -18.75,21.071 -1.9648,8.3926 -1.9648,8.3926 0,0 11.518,-17.856 27.59,-20.178 16.071,-2.3214 11.16,-3.9297 11.16,-3.9297 0,0 -1.7599,-0.52136 -4.7539,-0.59766 z"
             transform="matrix(0.26458,0,0,0.26458,0,-18.455)"
             inkscape:connector-curvature="0"
             style="fill:#434343;fill-rule:evenodd;filter:url(#filter4996)" />
        </g>
        <g
           id="g1444"
           transform="translate(-0.11323,-18.455)">
          <path
             id="path1440"
             d="m 94.874,4.0649 c -0.31077,-0.030774 -0.16407,0.27905 0.5333,0.92501 2.3009,2.1313 3.7295,5.216 3.7295,8.6496 v 81.908 l 6e-6,100.63 c 0,3.4336 -1.4286,6.5184 -3.7295,8.6496 -0.69737,0.64596 -0.84407,0.95581 -0.5333,0.925 0.18646,-0.0185 0.53768,-0.15949 1.033,-0.42374 3.3627,-1.794 5.315404,-5.6643 5.315404,-9.7751 l -1e-5,-100.01 v -81.283 c 0,-4.1108 -1.952704,-7.9811 -5.315404,-9.7751 -0.49533,-0.26425 -0.84655,-0.40528 -1.033,-0.42375 z"
             inkscape:connector-curvature="0"
             style="color:#000000;fill:url(#linearGradient5226)" />
          <path
             id="path1442"
             d="m 9.3334,4.0649 c 0.31077,-0.03077 0.16407,0.27905 -0.5333,0.92501 -2.3009,2.1312 -3.7295,5.216 -3.7295,8.6496 v 81.908 l -3e-7,100.63 c -10e-8,3.4336 1.4286,6.5184 3.7295,8.6496 0.69737,0.64596 0.84407,0.9558 0.5333,0.925 -0.18646,-0.0185 -0.53768,-0.15949 -1.033,-0.42374 -3.3627,-1.794 -5.3154,-5.6643 -5.3154,-9.7751 l 3e-7,-100.01 v -81.283 c 0,-4.1108 1.9527,-7.9811 5.3154,-9.7751 0.49533,-0.26425 0.84655,-0.40528 1.033,-0.42375 z"
             inkscape:connector-curvature="0"
             style="color:#000000;fill:url(#linearGradient5226-6)" />
        </g>
        <g
           id="g1454">
          <rect
             id="rect1446"
             ry="0.72052002"
             height="1.441"
             width="11.363"
             y="-11.193"
             x="46.258999"
             style="color:#000000;fill:url(#pattern956)" />
          <circle
             id="circle1448"
             r="1.3447"
             cy="-10.565"
             cx="62.147999"
             style="color:#000000;fill:#161616" />
          <circle
             id="circle1450"
             r="1.0774"
             cy="-10.565"
             cx="62.147999"
             style="color:#000000;fill:#0a0d13" />
          <circle
             id="circle1452"
             r="0.82091999"
             cy="-10.565"
             cx="62.147999"
             style="color:#000000;fill:#091427" />
        </g>
        <path
           id="path1456"
           d="m 61.583,-11.115 c -0.09735,0.01025 -0.23568,0.15883 -0.24593,0.45087 -0.01024,0.29204 0.11784,0.45087 0.18957,0.45087 0.07173,0 0.36889,-0.42525 0.05635,-0.90173 z"
           inkscape:connector-curvature="0"
           style="fill:#235a91;fill-opacity:0.55607001;fill-rule:evenodd;filter:url(#filter5343)" />
        <path
           id="path1458"
           d="m 62.282,-11.217 c -0.15355,0.04725 -0.18308,0.29529 -0.17718,0.43704 0.0059,0.14174 0.20671,0.51381 0.44885,0.43113 0.24214,-0.08268 0.28348,-0.38979 0.18308,-0.59649 -0.1004,-0.20671 -0.28348,-0.35435 -0.45475,-0.27167 z"
           inkscape:connector-curvature="0"
           style="fill:#235a91;fill-opacity:0.55607001;fill-rule:evenodd;filter:url(#filter5347)" />
        <path
           id="path1460"
           d="m 14.624,-15.878 c -2.2986,0 -4.4368,0.6574 -6.242,1.7921 v 1.5048 c 1.7204,-1.1285 3.78,-1.7854 6.0002,-1.7854 h 26.412 13.796 l 35.204,0.11921 c 2.2201,0.0075 4.2798,0.65696 6.0002,1.7854 v -1.5048 c -1.8052,-1.1347 -3.9434,-1.7843 -6.242,-1.7921 L 54.5894,-15.878 h -13.796 z"
           inkscape:connector-curvature="0"
           style="color:#000000;fill:url(#linearGradient5832)" />
        <path
           id="path1462"
           d="m 14.624,188.65 c -2.2986,0 -4.4368,-0.65741 -6.242,-1.7921 v -1.5048 c 1.7204,1.1285 3.78,1.7854 6.0002,1.7854 h 26.412 13.796 35.143 c 2.2201,0 4.2798,-0.65696 6.0002,-1.7854 v 1.5048 c -1.8052,1.1347 -3.9434,1.7921 -6.242,1.7921 h -34.901 -13.796 z"
           inkscape:connector-curvature="0"
           style="color:#000000;fill:url(#linearGradient5832-3)" />
        <g
           id="g1470"
           style="fill:#ffffff;fill-opacity:0.06542101">
          <circle
             id="circle1464"
             r="0.89769"
             cy="-10.565"
             cx="33.325001" />
          <circle
             id="circle1466"
             r="1.6064"
             cy="-10.565"
             cx="69.245003" />
          <circle
             id="circle1468"
             r="1.3229001"
             cy="-10.565"
             cx="40.873001" />
        </g>
        <path
           id="path1472"
           d="m 46.98,-11.193 c -0.39917,0 -0.72037,0.3212 -0.72037,0.72037 0,0.39917 0.3212,0.72037 0.72037,0.72037 h 9.9219 c 0.39917,0 0.72037,-0.3212 0.72037,-0.72037 0,-0.39917 -0.3212,-0.72037 -0.72037,-0.72037 z"
           inkscape:connector-curvature="0"
           style="color:#000000;fill:none;stroke:#292929;stroke-width:0.052917;stroke-linecap:round" />
        <g
           id="g1478"
           mask="url(#mask1062)"
           transform="translate(4.2332,-18.455)"
           style="fill:#ffffff;filter:url(#filter1214)">
          <path
             id="path1474"
             d="M 42.256,7.9825 A 0.22968,0.22968 0 0 1 42.02632,8.21218 0.22968,0.22968 0 0 1 41.79664,7.9825 0.22968,0.22968 0 0 1 42.02632,7.75282 0.22968,0.22968 0 0 1 42.256,7.9825 Z"
             inkscape:connector-curvature="0" />
          <path
             id="path1476"
             d="M 53.619,7.9825 A 0.22968,0.22968 0 0 1 53.38932,8.21218 0.22968,0.22968 0 0 1 53.15964,7.9825 0.22968,0.22968 0 0 1 53.38932,7.75282 0.22968,0.22968 0 0 1 53.619,7.9825 Z"
             inkscape:connector-curvature="0" />
        </g>
        <g
           id="g1492">
          <path
             id="path1480"
             d="m 85.3,-16.803 v -1.0526 h -1.3028 v 1.0526 z"
             inkscape:connector-curvature="0"
             style="color:#000000;fill:#7d7e7f" />
          <path
             id="path1482"
             d="m 18.681,189.83 v 0.90227 h 1.3028 V 189.83 Z"
             inkscape:connector-curvature="0"
             style="color:#000000;fill:#7d7e7f" />
          <path
             id="path1484"
             d="m 55.779,21.449 c -17.768,0 -32.072,14.304 -32.072,32.072 l 2e-6,683.96 c 0,17.768 14.304,32.072 32.072,32.072 H 337.219 c 17.768,0 32.072,-14.304 32.072,-32.072 V 53.521 c 0,-17.768 -14.304,-32.072 -32.072,-32.072 h -47.873 c -2.9587,2.34e-4 -5.3572,2.3987 -5.3574,5.3574 v 2.4668 c 0,9.6535 -7.7703,17.426 -17.424,17.426 h -140.13 c -9.6535,0 -17.424,-7.7723 -17.424,-17.426 v -2.4668 c -2.3e-4,-2.9587 -2.3987,-5.3572 -5.3574,-5.3574 z"
             transform="matrix(0.26458,0,0,0.26458,0,-18.256)"
             inkscape:connector-curvature="0"
             style="color:#000000;fill:url(#linearGradient2973)" />
          <path
             id="path1486"
             d="m 102.08,171.48 h 1.1022 V 1.38 H 102.08 Z"
             inkscape:connector-curvature="0"
             style="color:#000000;fill:#ebebeb" />
          <path
             id="path1488"
             d="m 102.08,1.3828 h 1.1022 V 0.08 H 102.08 Z"
             inkscape:connector-curvature="0"
             style="color:#000000;fill:#7d7e7f" />
          <path
             id="path1490"
             d="m 102.08,172.78 h 1.1022 v -1.3028 H 102.08 Z"
             inkscape:connector-curvature="0"
             style="color:#000000;fill:#7d7e7f" />
        </g>
        <g
           id="g1500"
           style="fill:#434343;fill-rule:evenodd">
          <path
             id="path1494"
             clip-path="url(#clipPath4960-8)"
             d="m 37.924,11.58 c -6.5868,-0.16785 -19.141,1.8259 -32.031,16.312 -18.75,21.071 -1.9648,8.3926 -1.9648,8.3926 0,0 11.518,-17.856 27.59,-20.178 16.071,-2.3214 11.16,-3.9297 11.16,-3.9297 0,0 -1.7599,-0.52136 -4.7539,-0.59766 z"
             transform="matrix(-0.26458,0,0,0.26458,104.02,-18.455)"
             inkscape:connector-curvature="0"
             style="filter:url(#filter4996-32)" />
          <path
             id="path1496"
             clip-path="url(#clipPath4960-9)"
             d="m 37.924,11.58 c -6.5868,-0.16785 -19.141,1.8259 -32.031,16.312 -18.75,21.071 -1.9648,8.3926 -1.9648,8.3926 0,0 11.518,-17.856 27.59,-20.178 16.071,-2.3214 11.16,-3.9297 11.16,-3.9297 0,0 -1.7599,-0.52136 -4.7539,-0.59766 z"
             transform="matrix(-0.26458,0,0,-0.26458,104.02,191.31)"
             inkscape:connector-curvature="0"
             style="filter:url(#filter4996-9)" />
          <path
             id="path1498"
             clip-path="url(#clipPath4960-8-1)"
             d="m 37.924,11.58 c -6.5868,-0.16785 -19.141,1.8259 -32.031,16.312 -18.75,21.071 -1.9648,8.3926 -1.9648,8.3926 0,0 11.518,-17.856 27.59,-20.178 16.071,-2.3214 11.16,-3.9297 11.16,-3.9297 0,0 -1.7599,-0.52136 -4.7539,-0.59766 z"
             transform="matrix(0.26458,0,0,-0.26458,8e-6,191.31)"
             inkscape:connector-curvature="0"
             style="filter:url(#filter4996-32-9)" />
        </g>
      </g>
      <rect
         ry="0.66190434"
         y="-17.035999"
         x="19.925257"
         height="18.249523"
         width="7.6570601"
         id="rect2672"
         style="fill:#ffffff;fill-opacity:1;stroke:none;stroke-width:0.36614102;stroke-miterlimit:4;stroke-dasharray:none;stroke-dashoffset:0;stroke-opacity:1" />
      <rect
         ry="0"
         y="-15.403983"
         x="23.727236"
         height="15.29274"
         width="3.823185"
         id="rect2514"
         style="fill:#10c100;fill-opacity:1;stroke:none;stroke-width:0.18664953;stroke-miterlimit:4;stroke-dasharray:none;stroke-dashoffset:0;stroke-opacity:1" />
      <rect
         ry="0"
         y="-15.403983"
         x="19.904051"
         height="15.29274"
         width="3.823185"
         id="rect2514-9"
         style="fill:#dbffd7;fill-opacity:1;stroke:none;stroke-width:0.18664953;stroke-miterlimit:4;stroke-dasharray:none;stroke-dashoffset:0;stroke-opacity:1" />
      <text
         transform="rotate(-90)"
         id="text2590"
         y="25.22035"
         x="2.8984025"
         style="font-style:normal;font-variant:normal;font-weight:normal;font-stretch:normal;font-size:1.86649525px;line-height:1.25;font-family:'Liberation Sans';-inkscape-font-specification:'Liberation Sans';font-variant-ligatures:normal;font-variant-position:normal;font-variant-caps:normal;font-variant-numeric:normal;font-variant-alternates:normal;font-feature-settings:normal;text-indent:0;text-align:start;text-decoration:none;text-decoration-line:none;text-decoration-style:solid;text-decoration-color:#000000;letter-spacing:0px;word-spacing:0px;text-transform:none;writing-mode:lr-tb;direction:ltr;text-orientation:mixed;dominant-baseline:auto;baseline-shift:baseline;text-anchor:start;white-space:normal;shape-padding:0;opacity:1;vector-effect:none;fill:#000000;fill-opacity:1;stroke:none;stroke-width:0.13998714;stroke-linecap:butt;stroke-linejoin:miter;stroke-miterlimit:4;stroke-dasharray:none;stroke-dashoffset:0;stroke-opacity:1"
         xml:space="preserve"><tspan
           style="font-size:4.47958851px;stroke-width:0.13998714"
           y="25.22035"
           x="2.8984025"
           id="tspan2588"
           sodipodi:role="line">+<tspan
   id="tspan2609"
   style="font-style:normal;font-variant:normal;font-weight:bold;font-stretch:normal;font-family:'Liberation Sans';-inkscape-font-specification:'Liberation Sans Bold';stroke-width:0.13998714">14</tspan>°</tspan></text>
      <circle
         r="0.52509701"
         cy="-16.248154"
         cx="23.749943"
         id="path2788"
         style="fill:none;fill-opacity:1;stroke:#888888;stroke-width:0.24421147;stroke-miterlimit:4;stroke-dasharray:none;stroke-dashoffset:0;stroke-opacity:1" />
      <rect
         ry="0"
         y="0.33495688"
         x="23.174503"
         height="0.4185012"
         width="1.3078163"
         id="rect2790"
         style="fill:#939393;fill-opacity:1;stroke:none;stroke-width:0.35277778;stroke-miterlimit:4;stroke-dasharray:none;stroke-dashoffset:0;stroke-opacity:1" />
    </g>
  </g>
</svg>
