<?xml version="1.0" encoding="UTF-8" standalone="no"?>
<!-- Created with Inkscape (http://www.inkscape.org/) -->

<svg
   xmlns:dc="http://purl.org/dc/elements/1.1/"
   xmlns:cc="http://creativecommons.org/ns#"
   xmlns:rdf="http://www.w3.org/1999/02/22-rdf-syntax-ns#"
   xmlns:svg="http://www.w3.org/2000/svg"
   xmlns="http://www.w3.org/2000/svg"
   xmlns:sodipodi="http://sodipodi.sourceforge.net/DTD/sodipodi-0.dtd"
   xmlns:inkscape="http://www.inkscape.org/namespaces/inkscape"
   width="286.70993"
   height="236.89198"
   id="svg3211"
   sodipodi:version="0.32"
   inkscape:version="0.92.5 (2060ec1f9f, 2020-04-08)"
   version="1.0"
   sodipodi:docname="conservative-europe.svg"
   inkscape:output_extension="org.inkscape.output.svg.inkscape"
   sodipodi:modified="true">
  <defs
     id="defs3213">
    <inkscape:perspective
       sodipodi:type="inkscape:persp3d"
       inkscape:vp_x="0 : 365.6864 : 1"
       inkscape:vp_y="0 : 1000 : 0"
       inkscape:vp_z="840.54822 : 365.6864 : 1"
       inkscape:persp3d-origin="420.27411 : 243.79093 : 1"
       id="perspective4097" />
    <inkscape:perspective
       id="perspective2589"
       inkscape:persp3d-origin="372.04724 : 350.78739 : 1"
       inkscape:vp_z="744.09448 : 526.18109 : 1"
       inkscape:vp_y="0 : 1000 : 0"
       inkscape:vp_x="0 : 526.18109 : 1"
       sodipodi:type="inkscape:persp3d" />
    <inkscape:perspective
       id="perspective6275"
       inkscape:persp3d-origin="1007.0566 : 522.49137 : 1"
       inkscape:vp_z="2014.1133 : 783.73706 : 1"
       inkscape:vp_y="0 : 1000 : 0"
       inkscape:vp_x="0 : 783.73706 : 1"
       sodipodi:type="inkscape:persp3d" />
    <inkscape:perspective
       id="perspective3033"
       inkscape:persp3d-origin="372.04724 : 350.78739 : 1"
       inkscape:vp_z="744.09448 : 526.18109 : 1"
       inkscape:vp_y="0 : 1000 : 0"
       inkscape:vp_x="0 : 526.18109 : 1"
       sodipodi:type="inkscape:persp3d" />
    <inkscape:perspective
       id="perspective2953"
       inkscape:persp3d-origin="372.04724 : 350.78739 : 1"
       inkscape:vp_z="744.09448 : 526.18109 : 1"
       inkscape:vp_y="0 : 1000 : 0"
       inkscape:vp_x="0 : 526.18109 : 1"
       sodipodi:type="inkscape:persp3d" />
    <inkscape:perspective
       id="perspective3474"
       inkscape:persp3d-origin="372.04724 : 350.78739 : 1"
       inkscape:vp_z="744.09448 : 526.18109 : 1"
       inkscape:vp_y="0 : 1000 : 0"
       inkscape:vp_x="0 : 526.18109 : 1"
       sodipodi:type="inkscape:persp3d" />
    <inkscape:perspective
       id="perspective6305"
       inkscape:persp3d-origin="372.04724 : 350.78739 : 1"
       inkscape:vp_z="744.09448 : 526.18109 : 1"
       inkscape:vp_y="0 : 1000 : 0"
       inkscape:vp_x="0 : 526.18109 : 1"
       sodipodi:type="inkscape:persp3d" />
  </defs>
  <sodipodi:namedview
     id="base"
     pagecolor="#ffffff"
     bordercolor="#666666"
     borderopacity="1.0"
     inkscape:pageopacity="0.0"
     inkscape:pageshadow="2"
     inkscape:zoom="1.2062293"
     inkscape:cx="-165.05373"
     inkscape:cy="-107.07452"
     inkscape:document-units="px"
     inkscape:current-layer="layer1"
     inkscape:window-width="1280"
     inkscape:window-height="980"
     inkscape:window-x="-1"
     inkscape:window-y="31"
     showgrid="false"
     inkscape:window-maximized="0"
     fit-margin-top="0"
     fit-margin-left="0"
     fit-margin-right="0"
     fit-margin-bottom="0"
     inkscape:snap-global="false"
     showguides="false" />
  <metadata
     id="metadata3216">
    <rdf:RDF>
      <cc:Work
         rdf:about="">
        <dc:format>image/svg+xml</dc:format>
        <dc:type
           rdf:resource="http://purl.org/dc/dcmitype/StillImage" />
        <dc:title />
      </cc:Work>
    </rdf:RDF>
  </metadata>
  <g
     inkscape:label="Calque 1"
     inkscape:groupmode="layer"
     id="layer1"
     transform="translate(-321.67454,-163.90966)">
    <rect
       style="opacity:1;vector-effect:none;fill:#dedede;fill-opacity:1;fill-rule:evenodd;stroke:none;stroke-width:4.93018579;stroke-linecap:butt;stroke-linejoin:miter;stroke-miterlimit:4;stroke-dasharray:none;stroke-dashoffset:0;stroke-opacity:1"
       id="rect973"
       width="196.53543"
       height="176.91803"
       x="122.3791"
       y="239.4848" />
    <rect
       style="opacity:1;vector-effect:none;fill:#dedede;fill-opacity:1;fill-rule:evenodd;stroke:none;stroke-width:4.93018579;stroke-linecap:butt;stroke-linejoin:miter;stroke-miterlimit:4;stroke-dasharray:none;stroke-dashoffset:0;stroke-opacity:1"
       id="rect973-3"
       width="196.53543"
       height="176.91803"
       x="122.3791"
       y="418.95087" />
    <g
       id="g835"
       transform="matrix(0.93907811,0,0,0.93907811,-179.03536,31.663836)">
      <g
         transform="matrix(0.19355227,0,0,0.19355227,63.502351,331.16981)"
         style="display:inline;fill:none;stroke:#000000;stroke-width:6.88875055;stroke-miterlimit:4;stroke-dasharray:none;stroke-opacity:1"
         id="g98033">
        <g
           style="fill:none;stroke:#000000;stroke-width:6.88875055;stroke-miterlimit:4;stroke-dasharray:none;stroke-opacity:1"
           id="g98041" />
      </g>
      <path
         id="path4384-3"
         d="m 421.30271,281.32088 c -0.0202,-0.007 -0.0471,0.007 -0.0679,0 0.026,0.0428 0.065,0.0667 0.0906,0.11325 -0.008,-0.0333 -0.0138,-0.0773 -0.0226,-0.11325 z"
         style="fill:none;fill-opacity:1;fill-rule:evenodd;stroke:#000000;stroke-width:1.33333337;stroke-linejoin:round;stroke-miterlimit:4;stroke-dasharray:none;stroke-opacity:1"
         inkscape:connector-curvature="0" />
      <path
         style="fill:none;fill-opacity:1;fill-rule:evenodd;stroke:#000000;stroke-width:1.33333337;stroke-linejoin:round;stroke-miterlimit:4;stroke-dasharray:none;stroke-opacity:1"
         id="Switzerland-6"
         d="m 449.92875,289.89018 c -0.0957,0.38304 0,0.86178 -0.1915,1.24481 -0.0958,0.38304 -0.38302,0.67029 -0.57453,1.05333 0,0.19148 1.81936,1.53207 0.6703,1.9151 -2.01089,0.47881 -1.3406,-2.29814 -3.06421,-1.05333 -1.34057,0.95755 0.38304,2.01088 0.57454,2.48969 0.0958,0.38304 -0.47877,0.67029 -0.47877,1.05333 0.0957,0.38303 0.47877,0.57451 0.67028,0.86177 0.0958,0.38304 -0.67028,0.76607 -1.05331,0.57452 -0.6703,-0.38304 -0.28726,-1.9151 -1.05331,-2.01088 -2.58541,-0.47874 -1.34058,1.43636 -2.87268,0.95762 -2.48965,-0.57458 -0.95756,-2.48969 -2.20239,-2.68117 -1.62785,-0.28733 -0.57453,2.29814 -0.57453,2.48962 -0.38302,1.72362 -2.68116,2.29814 -2.68116,4.40479 0,0.95755 1.91511,0.57452 0.28727,1.81932 -0.57454,0.47882 -0.76605,-1.14903 -1.14908,-1.62784 -0.28727,-0.28726 -0.95756,-0.0957 -1.05332,-0.47874 -0.0958,-0.38303 0.57455,-0.67029 0.67029,-1.05333 0,-0.19155 -0.19151,-0.38303 -0.28727,-0.38303 -1.0533,-0.38303 -2.5854,-0.67029 -3.25568,-1.9151 -0.0958,-0.38304 0.19151,-0.76607 0.19151,-1.05333 0,-0.57451 0.0957,-1.1491 -0.0958,-1.72362 -0.0957,-0.0958 -0.28726,0.0958 -0.47877,0.19156 -0.47878,0.38296 -0.86181,0.76599 -1.34059,1.14903 -0.47877,0.38303 -1.24481,0.57451 -1.43632,1.1491 -0.0958,0.38296 0.76603,0.57452 0.67028,1.05333 0,0.47874 -2.68117,3.25568 -2.77692,3.25568 -0.86181,0 -1.53209,-1.1491 -2.3939,-0.95755 -1.24482,0.28726 -3.83022,2.20236 -4.7878,0.47874 -0.38302,-0.57451 -0.38302,-1.24481 -0.8618,-1.72362 -0.0958,-0.19148 -0.47878,0.38304 -0.57453,0.19156 -0.0958,-0.28726 0.38302,-0.76607 0.19151,-1.05333 -0.0958,-0.28726 -0.6703,0 -0.86181,-0.19148 -0.57452,-0.95762 0.76605,-0.86185 0.6703,-1.43636 -0.0958,-0.47881 -0.6703,-0.6703 -0.6703,-1.14911 -0.0958,-0.28725 0.6703,-0.86177 0.28727,-0.95755 -1.24483,-0.57451 -3.92598,-0.57451 -4.78779,0.76607 -0.19151,0.19148 -0.0958,0.38304 -0.0958,0.67029 0.0958,0.19149 0.57453,0.38304 0.47879,0.57452 -0.57454,1.1491 -1.91513,1.62784 -3.06419,1.34059 -0.0958,0 0.38302,-0.19149 0.38302,-0.38304 0,-1.24481 0.95755,-0.766 1.05332,-1.05333 0.47878,-1.53206 -0.76605,-2.87265 0.38302,-4.30901 0.67029,-0.95755 2.39389,-0.95755 2.77692,-2.0108 0.28727,-0.57459 -0.28726,-1.43637 0,-2.10666 0.38302,-0.76607 1.72361,-0.47881 2.29814,-1.1491 0.67029,-0.57452 1.43634,-2.48962 2.29814,-3.15991 0.47878,-0.38304 0.95756,0.67029 1.05333,-0.67029 0,-0.47882 -1.43635,0.47873 -1.53211,0 -0.19151,-0.47882 0.57453,-0.86185 0.86181,-1.24481 0,0 0.19151,0.0957 0.19151,0 0,-0.19156 -0.38302,-0.57459 -0.19151,-0.6703 2.68116,-0.76606 1.53209,2.87266 4.78779,-0.47881 0.0958,0 0.28727,-0.19148 0.38303,-0.38303 l 0.19151,-0.19148 c 0.1915,-0.0958 0.38303,-0.0958 0.57452,0.0958 0.0958,0.0957 -0.57452,0.19149 -0.47877,0.38297 0.28728,0.57458 4.69203,-0.47874 4.9793,-0.47874 1.91513,-0.0958 0.19151,1.72362 2.58541,0.47874 0.0958,-0.0957 -0.19151,-0.57452 0,-0.6703 0.28726,-0.19148 1.34059,-0.28725 0.95756,-0.38303 -0.57453,-0.0957 -1.14907,0.0958 -1.72361,0 -0.28726,-0.0957 1.34058,-2.6811 2.77692,-1.24481 0.19151,0.19155 -0.28726,0.57452 -0.1915,0.86185 0.0957,0.19148 0.47877,0.28726 0.67028,0.19148 0.19151,-0.0958 -0.0958,-0.76607 0,-0.57452 0.38303,0.19148 0.38303,0.86178 0.76606,1.05333 0,0 3.15994,-0.19155 3.2557,-0.19155 0.95754,0.19155 1.62784,1.1491 2.48964,1.62784 v 0.0958 c 0,0.67029 1.24483,0.86177 0.86181,1.81939 -0.0958,0.19148 -0.47878,0.0957 -0.57454,0.19148 -0.28727,0.47874 -1.24482,3.92598 -1.05331,4.02176 0.19151,0.0957 3.35146,0.38303 3.44721,0.38303 0.19152,0.19148 -0.28727,0.47874 -0.0958,0.6703 0.47878,0.57451 1.0533,0.95755 1.7236,1.2448 1.5321,0.76607 1.81936,-1.81939 2.87268,-1.62784 0.28726,0 0.47879,0.0957 0.6703,0.19148 l -0.0958,0.86185 c -0.0957,0.28726 -0.1915,0.47874 0,0.57451 z"
         class="fil2 str0"
         inkscape:connector-curvature="0" />
      <path
         inkscape:connector-curvature="0"
         id="path856"
         d="m 465.10939,286.89565 c -1.43633,0 -2.59665,1.24104 -4.03299,1.33675 -0.86182,0.0958 -4.21854,-0.28001 -4.9846,0.29458 0,0 -1.24616,2.58293 -1.24615,2.58293 -1.53208,0.86177 -2.29267,-1.15041 -3.05873,-1.24619 -1.53209,-0.19148 -0.18986,0.76607 -1.72195,0 -0.0957,0.38303 0.0102,0.86315 -0.18126,1.24619 -0.0958,0.38303 -0.39758,0.68189 -0.58909,1.06485 0,0.19155 1.82879,1.52025 0.67972,1.90321 -2.01089,0.47881 -1.33513,-2.28704 -3.05873,-1.04223 -1.34057,0.95755 0.37493,1.99086 0.56643,2.46968 0.0958,0.38303 -0.47579,0.68189 -0.4758,1.06485 0.0957,0.38304 0.46554,0.57372 0.65706,0.86098 0.0958,0.38303 -0.6592,0.75795 -1.04224,0.56646 -0.6703,-0.38303 -0.29885,-1.89806 -1.06489,-1.99383 -2.58541,-0.47882 -1.32271,1.43034 -2.85481,0.9516 -2.48965,-0.57452 -0.97559,-2.48208 -2.22041,-2.67356 -1.62785,-0.28725 -0.56643,2.27813 -0.56644,2.46961 -0.38301,1.72362 -2.67355,2.31155 -2.67355,4.4182 0,0.95755 1.89973,0.5677 0.27188,1.81258 -0.57453,0.47874 -0.74982,-1.15251 -1.13286,-1.63132 -0.28727,-0.28726 -0.96912,-0.0928 -1.06489,-0.47584 -0.0958,-0.38296 0.58398,-0.6592 0.67972,-1.04223 0,-0.19148 -0.19878,-0.38514 -0.29455,-0.38514 -1.0533,-0.38304 -2.59236,-0.6811 -3.26264,-1.9259 -0.0958,-0.38304 0.20391,-0.75498 0.20391,-1.04224 0,-0.57451 0.10088,-1.14736 -0.0906,-1.72195 -0.0957,-0.0957 -0.28429,0.0855 -0.4758,0.18126 -0.47878,0.38303 -0.88067,0.77252 -1.35944,1.15555 -0.47876,0.38304 -1.2359,0.58097 -1.4274,1.15549 -0.0958,0.38303 0.77547,0.56349 0.67972,1.04223 0,0.47881 -2.69111,3.26265 -2.78685,3.26265 -0.86181,0 -1.53987,-1.16571 -2.40167,-0.97423 -1.24482,0.28726 -3.8231,2.22201 -4.78068,0.49846 -4.40476,2.5854 -1.90702,1.41766 -0.56643,3.71579 0.19151,0.38304 -0.19665,1.06703 0.0906,1.45007 0.28726,0.67029 1.25343,0.76223 1.54069,1.33674 0.47878,0.86185 -2.60262,3.3482 -3.08139,3.44391 -0.28726,0.0958 -0.48309,-0.47577 -0.77034,-0.47577 -0.47879,0.0958 -1.33678,0.0877 -1.33678,0.56639 -0.19152,1.53214 2.96512,2.79116 3.4439,3.55723 0.28726,0.57452 0.38518,1.34109 0.38517,2.10709 -0.0958,0.28733 -0.94646,-0.19663 -1.04223,0.0906 -0.0957,0.19155 0.1864,0.38006 0.0906,0.47584 -0.28727,0.47874 -0.77249,0.77252 -1.15552,1.15548 -0.28727,0.57459 0.6746,0.84561 0.77035,1.13287 0,0.19155 -0.47581,0.19372 -0.47581,0.38521 -0.0958,1.34058 2.3906,3.17933 3.44391,3.46652 0.57454,0.19155 1.23805,-0.11325 1.81258,-0.11325 0.57454,-0.0958 1.26582,-0.46852 1.74461,-0.18126 1.43633,1.05333 -1.83823,3.26098 -1.35944,4.9846 1.43633,-0.19148 3.64915,-0.11463 4.89397,-1.35944 0.76605,-0.67029 1.23292,-2.18452 1.90321,-2.85481 0.28726,-0.28726 1.07216,-0.20606 1.35944,-0.58909 0.28726,-0.28726 -0.0102,-0.86308 0.18126,-1.24619 0.19151,-0.38296 2.67569,-1.81258 3.05873,-1.81258 0.95755,0 2.96513,0.96618 3.4439,1.5407 0.0958,0.19155 0.39756,0.27703 0.58909,0.18126 0.19149,-0.0957 -0.10088,-0.5664 0.0906,-0.5664 0.76605,0 3.15664,2.48208 3.4439,2.67356 0.67029,0.47874 1.25044,1.05463 2.0165,1.24611 0.28727,0.0958 -0.28727,-0.77027 0,-0.77035 0.47878,0 0.76737,0.57887 1.24615,0.77035 0.0958,0.0958 0.19878,-0.18126 0.29454,-0.18126 0.28728,0.0958 0.66948,0.18858 0.86098,0.47584 2.3939,2.20236 0.95724,4.78551 2.9681,7.65816 1.05332,1.62784 1.32951,2.29907 1.04223,4.21425 0,0.57451 -0.77331,1.43984 -0.29454,1.63132 0.76605,0.28726 1.7365,-0.29755 2.31104,0.18126 0.47878,0.28726 -0.37789,1.04434 -0.0906,1.42737 0.38304,0.57459 1.3338,0.29668 1.81258,0.67972 0.38303,0.28726 0.39246,0.86315 0.67972,1.24618 0.19151,0.19148 0.55619,-0.0101 0.74769,0.18126 0.28727,0.28726 1.43552,1.54497 0.86098,2.31104 -0.19151,0.19148 -0.94433,0.47069 -0.65706,0.5664 1.91512,0.76607 3.05194,-0.37658 4.87131,1.15556 1.05332,0.86177 1.05382,2.4915 2.10712,3.35327 0.19152,0.0957 0.57883,-0.18641 0.77035,-0.0906 0.67029,0.38304 1.35133,0.76738 1.92587,1.24611 1.34058,1.05333 -0.0162,0.74606 1.13286,2.46968 0.57455,0.67029 1.64075,0.78485 2.31104,1.35944 0,0 1.4274,1.99384 1.42741,1.99384 0.57452,0.38303 2.29781,0.19576 2.9681,0.77034 0.57454,0.57452 0.47498,1.82498 1.33678,2.01646 0.76603,0.19156 1.44924,-0.964 2.31104,-1.15548 0.95757,-0.0958 1.72113,0.964 2.58293,1.15548 0.86179,0.19156 -1.158,-1.63726 1.42741,-0.67971 0.95756,0.38303 2.97024,3.45043 3.35327,4.59946 0.0958,0.28726 -0.19663,0.7652 0.0906,0.86097 3.73448,0.47874 0.38188,-2.10448 3.82908,0.38514 0.95756,0.67029 -1.14824,2.21534 -0.86098,2.31104 2.68117,0.95755 3.07162,-3.45449 5.36977,-0.29451 0.38302,0.57452 0.96913,1.25039 1.0649,2.01646 0.0957,0.76607 -1.06276,1.43687 -0.67972,2.10717 0.38303,0.67029 1.53261,0.36976 2.10712,0.65702 0.57454,0.28726 1.04438,0.77252 1.42741,1.15556 0.0958,0.19148 -0.0958,0.47576 0,0.47576 2.87267,-0.19148 3.75217,-2.00732 5.18851,1.63133 1.14909,2.87272 -0.68137,1.33435 1.04224,3.91974 0.19151,0.19148 0.58395,0.19366 0.67972,0.38514 0.47878,0.57458 0.84559,1.25046 1.13286,2.01653 0.57454,1.24481 0.20821,2.86127 0.97426,4.0103 0.76604,1.05333 2.67009,1.34754 1.04224,3.26264 -0.67029,0.95756 -2.97025,0 -3.35328,1.72196 -0.0958,0.57459 0.87852,0.87555 0.97426,1.45006 0.0958,0.47881 -0.28942,0.85801 -0.38517,1.33682 -0.0958,0.47881 -0.0979,1.04441 -0.38517,1.42737 -0.47878,0.47881 -1.45221,0.37709 -1.83524,0.9516 -0.57454,1.05333 0.4925,3.54186 1.45006,3.82912 4.78778,1.34058 3.16225,-3.24561 5.4604,-5.25649 0.95756,-0.76607 1.91049,-0.37629 2.19776,-1.81258 0.38303,-1.72362 -1.24483,-3.1631 0,-4.59946 1.7236,-2.01088 5.54591,-1.25177 5.64166,-3.26265 0.19151,-3.44716 -1.03711,-0.94392 -1.13287,-3.62516 0,-0.38296 0.55404,-0.7776 0.36252,-1.06485 -0.19151,-0.38304 -0.74984,-0.19366 -1.13286,-0.38521 -1.05331,-0.47874 -1.81903,-1.63343 -2.9681,-2.01646 -1.05331,-0.28726 -1.35347,0.76389 -2.31105,-0.38521 -1.62784,-2.10659 0.29671,-2.00972 0.67972,-3.82904 0.0958,-0.38304 -0.38518,-0.66435 -0.38517,-0.95161 0,-0.19155 2.39143,-4.96923 2.58293,-5.25649 1.81937,-1.9151 2.86556,0.28124 4.78068,0.95161 1.43633,0.47874 4.21341,-0.67327 5.07523,0.47577 1.53209,2.01087 0.29422,3.74493 3.26264,4.89397 0.57454,0.28733 1.24829,0.55914 1.63133,0.27188 0.38302,-0.19148 0.10302,-2.10411 0.29454,-2.58293 0.28727,-0.86177 1.13072,-0.47707 0.74769,-1.72195 -0.95756,-3.35146 -4.01677,-3.06217 -5.16586,-4.69002 -0.28727,-0.28725 0.0885,-0.95885 -0.29454,-1.24618 -0.95755,-0.766 -4.10742,-1.24314 -5.25649,-1.72195 -1.43632,-0.47874 -1.90453,-1.52743 -3.14936,-2.19772 -3.54295,-1.8194 -8.33457,-1.62154 -11.78177,-3.91974 -3.63873,-2.48962 3.52676,-3.45892 1.13286,-6.14009 -0.8618,-0.95755 -2.29781,0.10818 -2.9681,0.20388 -3.06419,0.47881 -7.92755,1.32174 -10.51297,-1.35943 -0.19151,-0.19148 0.0833,-0.76006 -0.20392,-0.95161 -0.47877,-0.47874 -1.32868,-0.56857 -1.90321,-0.9516 -1.7236,-1.34059 -3.93128,-3.15498 -4.9846,-5.16586 -1.05331,-1.9151 -2.87368,-9.49981 -4.21425,-10.64891 -1.24483,-1.05333 -1.62752,-0.57075 -2.9681,-1.33675 -1.34058,-0.76607 -8.05788,-5.54504 -8.63242,-6.50267 -0.28725,-0.57451 -1.52828,-5.75197 -1.33677,-6.23071 0.67028,-1.62784 2.9762,-0.55885 2.40167,-3.24002 -0.0958,-0.6703 -1.0568,-0.97126 -1.63133,-1.45007 -0.19152,0 -0.38005,0.18641 -0.4758,0.0906 -0.0958,-0.19148 -0.0102,-0.37999 0.18126,-0.47577 0.38302,-0.28725 0.0102,-1.04441 -0.18126,-1.42744 -0.19151,-0.19148 -0.28429,0.48099 -0.4758,0.38521 -0.38303,-0.19155 0.003,-1.24619 -0.47581,-1.24619 -0.0239,0 -0.053,0.0123 -0.0679,0.0225 0.178,-0.2592 0.37442,-0.55675 0.45314,-0.79297 0.19152,-0.38303 -0.20177,-0.94653 0.18126,-1.04223 0.38302,-0.28726 0.85802,0.18633 1.33678,0.0906 1.5321,-0.28726 2.78304,-1.82716 4.12362,-2.40167 0.57454,-0.19156 1.2483,0.0884 1.63133,-0.29458 0.38302,-0.38304 -0.0936,-1.4347 0.38517,-1.72196 0.86179,-0.38303 2.67355,-0.1872 2.67356,0.77035 0,0 0.012,0.0319 0,0.0682 0.93353,-1.24495 0.92332,-1.90734 2.67355,-0.24919 -0.30015,1.29179 0.95062,2.14863 2.35636,2.76419 -0.007,0.0239 -0.005,0.0507 -0.0226,0.0682 -0.8618,0.47881 -2.5821,0.38303 -3.44391,0 -0.21545,0 -0.59552,-0.15371 -0.77034,-0.11332 -0.0583,0.0138 -0.0906,0.0413 -0.0906,0.11332 0.0958,0.76607 0.77762,1.32355 1.06489,1.99384 0,0.0957 -0.20392,0.10817 -0.20392,0.20388 0.0958,0.76607 -0.0885,1.53264 0.29455,2.10716 0,0 0.0906,-0.007 0.0906,0.0906 -0.38301,0.57451 1.15253,1.25561 1.63132,1.92583 0.38302,0.57459 0.67674,3.04419 1.15552,2.46968 0.47878,-0.57452 0.74984,-1.32355 1.13286,-1.99384 0.0958,-0.28726 0.20392,-0.57372 0.20392,-0.86098 0,-0.0958 -0.29454,-0.0123 -0.29454,-0.20395 0,-0.0957 -0.005,-0.48091 0.0906,-0.38514 0.38302,0.0957 0.10222,2.31271 1.15552,0.58909 0.19152,-0.47881 0.18126,-0.96618 0.18126,-1.54069 0,-0.0958 -0.18126,-0.19366 -0.18126,-0.38521 0,-0.0957 0.0855,0.29973 0.18126,0.20395 0.76604,-0.38303 0.11246,-2.96814 0.97427,-2.96814 0.1423,-0.0102 0.24538,-2.1e-4 0.36251,0 0.009,0.0167 0.007,0.0297 0,0.045 0.0115,-0.0174 0.0244,-0.0377 0.0453,-0.045 0.19655,-0.0742 0.89954,0.25144 0.86097,0.0682 -0.41456,-1.97158 2.28525,-4.83626 1.81105,-5.92859 -0.56777,-1.30796 -2.42298,-2.79247 -2.88027,-3.9792 -0.46703,-1.21196 -2.58277,-0.85452 -3.60502,-1.59623 -1.34299,-0.97445 -1.65174,-2.42458 -2.77352,-3.02252 -2.39391,-0.19148 -4.77229,-0.45713 -7.16617,-0.74446 -2.48966,-0.38296 -2.96133,-0.56263 -4.78069,-1.90321 -0.19151,-0.19148 -0.49333,0.19148 -0.58908,0 -0.19151,-0.38303 0.28213,-0.7776 0.0906,-1.06486 -0.76606,-1.1491 -1.99681,0.1983 -1.51803,-1.81258 0.0958,-0.38303 1.15339,-0.86097 0.77034,-0.86097 z"
         style="fill:none;fill-opacity:1;fill-rule:evenodd;stroke:#000000;stroke-width:1.33333337;stroke-linejoin:round;stroke-miterlimit:4;stroke-dasharray:none;stroke-opacity:1" />
      <path
         style="fill:none;fill-opacity:1;fill-rule:evenodd;stroke:#000000;stroke-width:1.33333337;stroke-linejoin:round;stroke-miterlimit:4;stroke-dasharray:none;stroke-opacity:1"
         id="Belgium-3"
         d="m 411.6264,255.51379 c -0.28726,-0.0957 -0.57452,-0.19149 -0.86179,-0.19149 -0.67029,-0.0958 -1.34057,0.57452 -1.91512,0.28726 -0.47877,-0.19148 -0.0958,-1.05333 -0.38303,-1.43636 -0.19151,-0.28726 -0.67028,-0.0957 -0.95755,-0.28726 -0.0958,-0.0957 0.38303,-0.28726 0.38303,-0.38296 -0.0958,-0.19155 -0.19151,-0.38303 -0.38303,-0.47881 -0.19151,-0.0958 -0.47878,0.28726 -0.57454,0.19148 -0.38303,-0.28726 -0.47878,-0.86177 -0.8618,-1.14903 -0.6703,-0.28726 -1.62786,0 -2.01087,-0.57452 -0.38303,-0.38303 0.38301,-0.95762 0.38301,-1.43636 -0.0957,-0.38303 -0.67028,-0.47881 -0.67028,-0.86185 0,-0.47873 0.38302,-0.86177 0.47878,-1.2448 0.0958,-0.28726 0.57454,-0.57452 0.38303,-0.76607 -0.6703,-0.57452 -1.24484,1.1491 -1.91512,1.72362 -1.34058,1.24488 -4.50054,0.47881 -4.21327,-0.0957 0.28727,-0.47881 0.76606,-0.76607 0.76606,-1.24488 0,-0.28726 -0.76606,-0.28726 -0.6703,-0.67029 0,-0.57452 0.76605,-1.05333 0.76605,-1.62784 -0.19151,-1.62785 -4.11751,-0.6703 -4.30902,-1.43629 -0.0957,-0.38304 0.19151,-0.86185 0.0958,-1.24488 -0.28727,-1.53207 -2.3939,0 -2.96844,-1.34059 -0.38301,-0.766 0.19152,-2.96843 -1.0533,-3.44717 -0.57454,-0.28725 -1.05332,1.05333 -1.81937,1.05333 -2.10663,0 -2.20238,-3.63872 -2.39389,-4.9793 0.0958,-0.0958 0.0958,-0.0958 0.0958,-0.0958 1.7236,-0.47881 4.40477,-2.58539 6.60716,-3.25569 l 0.1915,0.38304 c -0.1915,2.48961 1.81937,0.86177 3.2557,1.53206 0.19151,0.0958 -0.19149,0.47882 0,0.6703 1.14907,0.76607 2.10664,-0.57452 2.87268,-1.24481 0.57454,0.47874 1.14908,0.86177 1.34058,0.766 0.28727,-0.19149 0.19151,-0.57452 0,-0.95755 0.28727,0.0958 0.47878,0.19155 0.76605,0.0958 0.6703,0 -1.14907,-2.20236 1.14907,-1.53206 0.19151,0 -0.19151,0.47873 -0.0958,0.57451 1.14908,0.95755 1.43635,-1.34058 2.29814,-0.67029 0.28728,0.28726 -0.76603,0.86177 -0.47876,1.05333 2.20237,1.14903 0.28725,-0.28726 2.01086,-0.6703 0.28727,-0.0958 0.76606,2.68117 1.43635,2.77688 1.53208,0.28726 3.54295,0.19155 4.78778,1.81939 0.0958,0.19149 -0.38301,0.38304 -0.47877,0.57452 -0.19151,0.57452 -0.67029,1.05333 -0.76606,1.62784 0,0.19156 0.47879,0.0958 0.38303,0.28726 -0.0958,0.28726 -0.57454,0.38304 -0.6703,0.76607 -0.67028,2.39391 0.95757,1.72362 2.48967,1.8194 h 0.0958 c 0.38302,0.67029 0.95756,1.72354 1.05331,1.72354 0.19152,0.19156 0.76605,-0.19148 0.76605,0.0958 0.0958,0.38304 -0.67029,0.76607 -0.57453,1.1491 0.19151,0.57452 1.05331,0.47874 1.34057,0.95756 1.05333,1.72354 -1.53209,2.01087 -2.20238,3.8302 -1.05331,-1.81933 -2.96844,1.72362 -3.35145,2.77694 -0.28727,0.86178 2.58541,4.59627 0.47877,4.40479 z"
         class="fil4 str0"
         inkscape:connector-curvature="0" />
      <path
         style="fill:none;fill-opacity:1;fill-rule:evenodd;stroke:#000000;stroke-width:1.33333337;stroke-miterlimit:4;stroke-dasharray:none;stroke-opacity:1"
         id="Liechtenstein-9"
         d="m 441.78952,285.48539 0.47878,1.05333 v 1.14903 c -0.47878,0 -0.76604,-0.0957 -0.86181,-0.0957 -0.0958,-0.0958 0.19151,-1.05333 0.38303,-2.10666 z"
         class="fil3 str2"
         inkscape:connector-curvature="0" />
      <path
         sodipodi:nodetypes="csccccccsccccscccccccccccccsccccccccccccccccscccccccccsccccccccccccccccccccccccccccccccccccccccccccccccccsccccccccccccccccccccscccccccccccccccccccccccccccccccccccccccssccccccccccccccccccccccccccccccccsscccccccsccccccscccccccccccccccsccccscccscccccccccccccccsscccc"
         inkscape:connector-curvature="0"
         id="path844"
         d="m 387.00843,233.82371 c 0.19151,1.34059 0.28726,4.97931 2.39389,4.97931 0.76605,0 1.24483,-1.34059 1.81937,-1.05333 1.24482,0.47881 0.67029,2.68117 1.05331,3.44724 0.57453,1.34051 2.68117,-0.19155 2.96844,1.34051 0.0957,0.38304 -0.19151,0.86185 -0.0958,1.24488 0.19151,0.766 4.1175,-0.19155 4.30901,1.43629 0,0.57459 -0.76605,1.05333 -0.76605,1.62792 -0.0957,0.38296 0.6703,0.38296 0.6703,0.67029 0,0.47874 -0.47879,0.766 -0.76605,1.24481 -0.28728,0.57452 2.87268,1.34059 4.21326,0.0957 0.67029,-0.57451 1.24482,-2.29813 1.91512,-1.72354 0.19151,0.19148 -0.28727,0.47874 -0.38302,0.76599 -0.0958,0.38304 -0.47879,0.76607 -0.47879,1.24489 0,0.38296 0.57454,0.47873 0.67028,0.86177 0,0.47881 -0.76604,1.05333 -0.383,1.43636 0.383,0.57452 1.34057,0.28726 2.01086,0.57452 0.38303,0.28725 0.47877,0.86177 0.8618,1.1491 0.0958,0.0957 0.38304,-0.28733 0.57454,-0.19155 0.19152,0.0958 0.28727,0.28725 0.38303,0.47881 0,0.0957 -0.47879,0.28726 -0.38303,0.38296 0.28727,0.19155 0.76605,0 0.95756,0.28726 0.28727,0.38303 -0.0958,1.24488 0.38302,1.43636 0.57455,0.28726 1.24483,-0.38303 1.91512,-0.28726 0.28727,0 0.57454,0.0958 0.86179,0.19148 0.47879,0.19156 0.86182,0.38304 1.24484,0.57459 0.0958,0.0958 0,0.47874 0.0958,0.38304 0.57453,0 1.05331,-0.47882 1.53208,-0.47882 0.57455,0 1.14909,0.28726 1.62786,0.47882 0.19151,0.28725 0.76605,0 1.05332,0.28725 0.76603,0.47874 1.24482,2.68117 2.20238,3.63872 1.14908,1.24481 -0.76605,-2.68117 2.10662,-0.0958 0.19152,0.19148 -0.1915,0.57451 -0.0957,0.86184 0.19151,0.28726 3.2557,-0.95762 3.73448,-0.57458 0.28726,0.28725 0.0958,0.86184 0.38303,1.1491 0.38303,0.28726 6.12838,0.95755 5.74535,1.62784 -1.05331,1.81933 -2.96843,2.96843 -3.73448,4.5005 -0.28726,0.67029 -0.38302,2.77694 -0.47877,3.35146 l -1.3406,2.20243 c -0.1915,0.47874 -0.38301,0.95755 -0.28727,1.43629 0,0.28726 0.38303,0.28726 0.38303,0.47881 -0.0958,1.34059 -1.05331,2.58539 -0.95756,3.92598 0,1.24481 0,1.62784 0.0958,1.62784 -3.2557,3.35146 -2.10663,-0.28726 -4.78779,0.47881 -0.19151,0.0957 0.19151,0.47874 0.19151,0.6703 0,0.0957 -0.19151,0 -0.19151,0 -0.28727,0.38296 -1.05332,0.76599 -0.86181,1.2448 0.0958,0.47881 1.53211,-0.47881 1.53211,0 -0.0958,1.34059 -0.57455,0.28726 -1.05333,0.6703 -0.8618,0.67029 -1.62785,2.58539 -2.29813,3.1599 -0.57454,0.6703 -1.91513,0.38304 -2.29815,1.14911 -0.28726,0.67029 0.28728,1.53206 0,2.10665 -0.38302,1.05326 -2.10663,1.05326 -2.77691,2.01081 -1.14908,1.43636 0.0958,2.77694 -0.38303,4.30908 -0.0958,0.28726 -1.05332,-0.19155 -1.05332,1.05326 0,0.19155 -0.47878,0.38303 -0.38302,0.38303 1.14907,0.28726 2.48965,-0.19148 3.06419,-1.34058 0.0958,-0.19148 -0.38303,-0.38304 -0.47879,-0.57452 0,-0.28726 -0.0957,-0.47881 0.0958,-0.67029 0.86181,-1.34059 3.54297,-1.34059 4.7878,-0.76607 0.38302,0.0958 -0.38303,0.67029 -0.28728,0.95755 0,0.47881 0.57454,0.67029 0.6703,1.1491 0.0958,0.57452 -1.24482,0.47882 -0.6703,1.43637 0.19151,0.19148 0.76605,-0.0958 0.86181,0.19148 0.19151,0.28726 -0.28727,0.76607 -0.19151,1.05332 0.0958,0.19149 0.47878,-0.38303 0.57453,-0.19155 0.47878,0.47881 0.47878,1.14911 0.86181,1.72362 -4.40476,2.58539 -1.91513,1.43636 -0.57454,3.7345 0.19151,0.38303 -0.19151,1.05333 0.0958,1.43636 0.28727,0.67029 1.24482,0.76607 1.5321,1.34058 0.47877,0.86178 -2.58542,3.35147 -3.06419,3.44717 -0.28726,0.0958 -0.47879,-0.47874 -0.76605,-0.47874 -0.47878,0.0957 -1.34058,0.0957 -1.34058,0.57452 -0.19152,1.53206 2.96844,2.77695 3.44721,3.54294 0.28726,0.57452 0.38302,1.34059 0.38302,2.10666 -0.0958,0.28725 -0.95756,-0.19148 -1.05332,0.0958 -0.0958,0.19148 0.19153,0.38304 0.0958,0.47874 -0.28727,0.47881 -0.76604,0.76607 -1.14906,1.14911 -0.28727,0.57451 0.67028,0.86177 0.76604,1.14903 0,0.19155 -0.47879,0.19155 -0.47879,0.38303 -0.0958,1.34059 2.39391,3.15998 3.44721,3.44724 0.57454,0.19148 1.24483,-0.0958 1.81937,-0.0958 0.57454,-0.0958 1.24483,-0.47873 1.72361,-0.19148 1.43634,1.05326 -1.81936,3.25569 -1.34058,4.97931 -0.0958,0 -1.72361,0.57451 -1.91513,0.766 -0.0957,0.0958 0.19152,0.47881 0,0.47881 -0.0957,-0.0958 0,-0.47881 -0.0957,-0.47881 -0.57452,0.0958 -1.24482,0.19155 -1.62785,0.57458 -0.28727,0.28726 0.19152,0.95755 -0.19151,1.24481 -0.38302,0.28726 -1.05332,-0.0958 -1.53209,0.19148 -0.38303,0.28733 -0.28728,1.05333 -0.76604,1.43636 -0.38303,0.19149 -0.86181,-0.28725 -1.24484,-0.0958 -0.28726,0.0958 -0.0957,0.57451 -0.38301,0.86184 -0.28728,0.38297 -1.05333,0.47874 -1.24484,0.95755 -0.0958,0.38304 0.76605,0.95755 0.38303,1.24481 -0.47878,0.47881 -1.43634,0 -2.10663,0.0958 -0.8618,0.19148 -1.43634,1.05333 -2.20239,1.34058 -0.86181,0.28726 -0.19151,-1.05332 -2.10662,-1.1491 -1.24484,-0.0958 0.0958,0.47881 -0.0958,0.67029 -0.19151,0.19156 -0.57453,0.19156 -0.86181,0.0958 -0.28727,0 -0.57453,0 -0.67029,-0.19155 0,-0.19148 0.67029,-0.6703 -0.67029,-1.34059 -0.28726,-0.0957 -0.57453,0 -0.95756,0 -0.6703,-0.19148 -1.43634,-0.0957 -1.91511,-0.57451 -0.47878,-0.47874 0,-1.43637 -0.38302,-1.91511 -0.19152,-0.28725 -0.57454,0.38304 -0.95757,0.38304 -0.57454,0 -1.7236,0.19148 -1.62786,-0.38304 0.0958,-0.76606 1.81937,-0.47881 1.91513,-1.2448 0,-0.76607 -1.05331,-1.34059 -1.7236,-1.24488 -0.57453,0.0958 0.47877,1.1491 0.19151,1.53213 -0.47878,0.47874 -1.24483,0.76607 -1.91512,0.6703 -1.53209,-0.0958 -1.05332,-2.77695 -1.34058,-2.39392 -1.34058,1.53214 1.62785,2.20236 0.76605,2.5854 -3.06419,1.24481 -1.72362,-0.766 -1.81936,-1.14903 -0.0958,-0.38304 -3.44722,-0.76607 -3.73449,-0.95755 -0.76604,-0.38304 -1.7236,-1.62785 -2.68116,-1.05333 -1.05331,0.57451 -2.58541,2.48962 -3.63873,3.0642 -0.95756,0.47874 -2.87266,0.0957 -4.02174,1.72355 -0.19151,0.19155 0.28727,0.57459 0.28727,0.86185 -0.19152,0.95755 -1.43635,1.53206 -1.5321,2.58539 0,0.28726 0.6703,0.19148 0.76605,0.47881 0.47878,1.72355 -0.76605,1.24481 -0.0958,3.15991 0.19151,0.57452 0.76603,1.05333 1.34057,1.53207 h -0.38303 c -1.53209,-0.38297 -3.2557,-1.24481 -4.69203,-0.28726 -0.28726,0.19155 0.0958,0.95755 -0.28726,1.05333 -0.95756,0.28725 -2.5854,-1.62785 -3.54298,-1.62785 -0.86179,0 -1.53209,0.47881 -2.29812,0.57452 -0.57456,0.0958 -0.6703,-0.95755 -0.86181,-1.14903 -0.47878,-0.38304 -1.24483,-0.57459 -1.91513,-0.86185 0.95757,-1.24481 0.76605,-2.48962 -1.72359,-2.29813 -0.0958,0 -0.38303,0.38303 -0.57455,0.86184 v -0.0958 c -0.47877,-0.28726 -0.19151,-1.14911 -0.67028,-1.53207 -0.28728,-0.28733 -0.8618,-0.28733 -1.34059,-0.38304 -0.19151,0 -0.47878,0.0957 -0.57454,0 -1.05331,-0.95755 -2.01086,-2.10665 -3.63872,-2.39391 -1.14907,-0.19148 -0.67028,2.01088 -0.67028,2.01088 -1.05332,-0.0958 -1.91512,-0.86185 -2.87268,-0.76607 -0.28728,0 -0.28728,0.57452 -0.57454,0.57452 -0.57453,-0.0957 -0.8618,-0.766 -1.43633,-0.86178 -0.57453,-0.0958 -0.95757,0.47881 -1.53211,0.38304 -1.24482,0 -0.76604,-1.24481 -1.43633,-1.8194 -1.34058,-1.14903 -2.58541,0.57459 -3.83024,-0.38303 -0.0958,0 -1.05331,-2.20236 -1.14907,-2.29807 -1.24482,-0.95762 -3.35144,-0.47881 -4.69203,-1.72362 -0.19151,-0.19155 0.0958,-0.67029 0,-0.86184 -0.19151,-0.19148 -0.76604,0.86184 -1.34058,0.67029 -1.24484,-0.57452 1.53209,-1.72362 0.67029,-2.68117 -0.28727,-0.38303 -0.86181,-0.57452 -1.34059,-0.67029 -0.0958,0 0,0.47881 -0.1915,0.38303 0,0 -1.05332,-0.95755 -1.62785,-1.53206 0.57453,-0.0958 0.95755,-0.19156 1.34057,-0.38304 2.77692,-1.34058 3.92599,-10.53312 4.97931,-13.40585 0.19152,-0.47874 0.38303,-1.14903 0.8618,-1.34058 0.38304,-0.19148 1.24483,0.67029 1.43634,0.19155 0.28727,-0.47881 -0.38303,-1.24488 -0.95756,-1.34058 -0.47878,-0.0958 -0.57453,1.2448 -1.05332,1.05332 -0.95755,-0.28733 0.47879,-1.81939 0.6703,-2.77694 0.38302,-1.53207 1.43634,-7.18167 2.48964,-7.94774 l 0.86181,-0.67029 c -0.38302,-0.47881 -0.86181,-0.95755 -1.43633,-1.34059 v 0 c 0.57452,0.19149 1.24482,0.38304 1.81936,0.0958 0.67028,-0.38303 -1.43635,-1.34058 -1.24484,-2.10665 0.19153,-0.76607 1.05333,-1.14911 1.14908,-1.9151 0.0958,-0.57459 -0.57454,-1.05333 -0.57454,-1.62785 0,-0.67029 0.57454,-1.34058 0.57454,-2.01087 0,-0.19156 -0.47878,-0.19156 -0.76604,-0.0958 -0.19151,0.0958 0,0.67029 -0.19151,0.57451 -0.47879,-0.19148 -0.57453,-0.95755 -0.95756,-1.2448 -0.28727,-0.0958 -0.67029,0.28725 -0.95756,0.0958 -0.28727,-0.19155 0,-0.86184 -0.28727,-1.05332 -1.7236,-1.62785 -0.76605,1.9151 -2.3939,-1.24481 -0.0958,-0.28726 -0.1915,-2.39391 -0.57454,-2.87273 -0.0958,-0.0957 -0.38302,0 -0.47878,-0.0957 -0.38302,-0.57459 -0.86179,-1.24488 -1.14906,-1.91517 -0.38302,-0.95755 1.53208,-1.9151 1.72361,-2.29814 0.38301,-0.86177 -1.91512,-1.43629 -1.91512,-1.53206 -0.19151,-0.6703 -0.19151,-1.05333 -0.0958,-1.34059 h -0.0958 c -3.926,-0.38303 -0.28727,-1.34058 -0.19152,-3.44724 0.0958,-1.24481 -3.92599,-0.19148 -4.02174,-0.67029 -0.19151,-0.766 0.95755,-1.05333 1.5321,-1.43629 0.0957,-0.0958 -0.47879,0.19148 -0.57455,0.0957 -0.0958,-0.0957 0,-0.38296 -0.0958,-0.47874 -0.28727,0 -0.38303,0.28726 -0.67029,0.38304 -0.76604,0 -1.5321,-0.57459 -2.20239,-0.28726 -0.0958,0.0957 -0.19152,0.19148 -0.19152,0.28726 v -0.0958 c 0.19152,-1.24481 1.14908,-2.48969 -0.86179,-2.68117 -1.05332,-0.0958 -0.76605,1.24481 -1.5321,0.76607 -0.57454,-0.38303 -1.34058,-1.62784 -1.91512,-1.91517 -0.38301,-0.0957 -0.8618,0.28733 -1.14907,0 -1.24483,-0.95755 0.28727,-2.10658 -2.10663,-1.9151 -0.19151,0.0958 0.19152,0.57459 0,0.67029 -0.67028,0.28726 -1.62784,0.86185 -2.20238,0.38304 -0.57453,-0.38304 0,-1.43637 -0.19151,-2.10666 -0.28728,-1.14903 -1.5321,-0.86177 -2.29815,-1.34051 -0.0958,-0.0958 0.19151,-0.38304 0.38303,-0.38304 0.95756,-0.19155 1.91512,-0.0958 2.87268,-0.0958 0.1915,0 0.67029,0.38303 0.67029,0.19148 0,-0.19148 -0.8618,-1.53207 -1.43634,-2.48962 l 0.0958,0.0958 c 0.47879,0.19148 1.05332,0 1.62785,0.0957 0.38303,0 1.24483,0.38304 0.95757,0.19156 -0.6703,-0.38304 -1.81937,-0.19156 -2.10663,-0.86185 -0.19152,-0.57452 1.34058,-0.38303 1.43633,-0.95755 0.28726,-1.14903 -5.74536,3.25569 -3.73448,-1.9151 0.0958,0 3.25571,-1.24481 4.11751,-1.24481 1.05331,0 -1.34059,1.24481 0.95755,0.57452 0.6703,-0.0958 1.34059,-0.86178 2.01089,-0.6703 0.57452,0.19149 0.28726,1.34059 0.86179,1.53207 0.38302,0 0.0958,-1.14903 0.47878,-1.24481 0.67029,0 1.14907,1.24481 1.81937,1.05333 0.57453,-0.19148 0.19151,-1.43636 0.76604,-1.8194 0.19151,-0.19148 0.57454,0.38304 0.8618,0.38304 0.57454,0 1.24484,-0.57452 1.7236,-0.28726 0.47878,0.28726 0.0958,1.24481 0.57454,1.53214 0.28727,0.19148 0.28727,-0.47881 0.57454,-0.67037 0.47879,-0.38296 2.01088,3.7345 2.39389,4.50057 0.0958,0.0958 0.0958,-0.38304 0.28727,-0.38304 0.57454,-0.38303 1.14908,-0.47873 1.81936,-0.76606 0.47879,-0.28726 0.8618,-1.05326 1.34059,-0.86178 0.8618,0.38304 0.0957,3.7345 2.3939,2.77695 0.67028,-0.28733 0.28727,-1.53214 0.76604,-2.20243 0.47878,-0.67029 0.57454,1.34058 1.14906,1.43636 0.57454,0.0958 1.05333,-0.19148 1.62786,-0.0958 0.57454,0 1.7236,0.86185 1.91511,0.28726 0.19152,-1.05325 -2.01086,-1.81932 -1.72359,-2.87265 0.19151,-0.67029 0.38302,-1.34059 0.67029,-2.01088 -0.19151,0 -0.38304,-0.0958 -0.28727,-0.47874 0.19151,-0.67036 0.76604,-1.43636 0.76604,-2.20243 0,-0.19148 -0.57453,0.0958 -0.67028,-0.0958 -0.19153,-0.47874 0,-1.24481 -0.28727,-1.72355 -0.0958,-0.28726 -0.67029,-0.28726 -0.86181,-0.57459 -0.19151,-0.57452 -0.28727,-1.34059 -0.19151,-1.9151 0,-0.28726 0.47878,-0.38304 0.47878,-0.57452 0,-0.67029 -0.38302,-1.34058 -0.47878,-2.01087 0,-0.19156 0.19151,0.38303 0.28727,0.47873 0.76605,0.38304 1.43633,0.76607 2.20239,0.95763 0.1915,0.0957 0.47877,-0.0958 0.67028,-0.0958 0.76605,0 1.5321,-0.38303 2.20239,0 0.38303,0.0958 0.1915,0.67029 0,1.05333 -0.0958,0.19148 -0.38303,0.0957 -0.57454,0.28726 -0.28726,0.28725 0.76604,3.35146 0.86181,3.35146 3.92599,0.57451 -1.72361,-1.8194 1.34058,-0.67029 1.43634,0.57451 3.25571,0.86177 4.59628,1.53206 0.47878,0.28726 0.76605,0.95755 1.24483,1.05333 2.20238,0.28726 1.7236,-0.95755 3.35145,-1.43636 0.38302,-0.0957 0.76605,-0.0957 1.24483,-0.0957 -1.05332,-0.19155 -2.01087,-0.86184 -0.67028,-3.15998 0.95755,-1.53206 7.37319,-1.72362 9.09681,-2.68117 0.67027,-0.28726 1.14906,-0.86177 1.81936,-1.24481 0.57453,-0.28725 1.62784,-0.19148 1.91511,-0.76607 0.28727,-0.57451 -0.76605,-0.86177 -0.86181,-1.43629 -0.0957,-0.28733 0,-0.76606 0.19151,-0.95762 0.19152,-0.19148 0.57454,0.19156 0.57454,0 0,-0.19148 -0.47878,-0.19148 -0.47878,-0.47874 0,-0.67029 0.76605,-5.26656 0.95756,-5.74537 0.38303,-1.14903 3.54297,-1.34059 4.40478,-1.43636 1.14906,-0.0957 2.29812,-0.19148 3.35145,-0.38297 z"
         style="fill:none;fill-opacity:1;fill-rule:evenodd;stroke:#000000;stroke-width:1.33333337;stroke-linejoin:round;stroke-miterlimit:4;stroke-dasharray:none;stroke-opacity:1" />
    </g>
    <rect
       style="opacity:1;vector-effect:none;fill:#dedede;fill-opacity:1;fill-rule:evenodd;stroke:none;stroke-width:5.00841665;stroke-linecap:butt;stroke-linejoin:miter;stroke-miterlimit:4;stroke-dasharray:none;stroke-dashoffset:0;stroke-opacity:1"
       id="rect1162"
       width="6.0522513"
       height="3.5097532"
       x="205.26636"
       y="309.27734" />
    <path
       style="opacity:1;vector-effect:none;fill:none;fill-opacity:1;stroke:#000000;stroke-width:1.25210416;stroke-linecap:butt;stroke-linejoin:miter;stroke-miterlimit:4;stroke-dasharray:none;stroke-dashoffset:0;stroke-opacity:1"
       d="m 207.95919,308.66041 1.55165,-0.0163"
       id="path1164"
       inkscape:connector-curvature="0" />
    <path
       style="opacity:1;vector-effect:none;fill:none;fill-opacity:1;stroke:#000000;stroke-width:1.25210416;stroke-linecap:butt;stroke-linejoin:miter;stroke-miterlimit:4;stroke-dasharray:none;stroke-dashoffset:0;stroke-opacity:1"
       d="m 130.36786,458.75176 13.48783,59.00923 70.81107,2.52897 -1.68598,-23.1822 6.32242,-18.96725 -10.11587,-24.44668 -25.28966,-21.91772 z"
       id="path837"
       inkscape:connector-curvature="0" />
    <path
       style="opacity:1;vector-effect:none;fill:none;fill-opacity:1;stroke:#000000;stroke-width:1.25210416;stroke-linecap:butt;stroke-linejoin:miter;stroke-miterlimit:4;stroke-dasharray:none;stroke-dashoffset:0;stroke-opacity:1"
       d="m 183.89767,431.77611 14.98919,-4.78183 13.84234,13.29831 -3.54187,13.40124"
       id="path839"
       inkscape:connector-curvature="0" />
    <path
       style="opacity:1;vector-effect:none;fill:none;fill-opacity:1;stroke:#000000;stroke-width:1.25210416;stroke-linecap:butt;stroke-linejoin:miter;stroke-miterlimit:4;stroke-dasharray:none;stroke-dashoffset:0;stroke-opacity:1"
       d="m 212.98078,497.10776 29.39778,-11.84718 -23.07536,-7.12007"
       id="path841"
       inkscape:connector-curvature="0"
       sodipodi:nodetypes="ccc" />
    <path
       style="opacity:1;vector-effect:none;fill:none;fill-opacity:1;stroke:#000000;stroke-width:1.25210416;stroke-linecap:butt;stroke-linejoin:miter;stroke-miterlimit:4;stroke-dasharray:none;stroke-dashoffset:0;stroke-opacity:1"
       d="m 214.66676,520.28996 43.39465,18.57689 36.55587,49.35142 16.67762,-32.66227 -58.56517,-45.64181 23.76478,-21.20024 -34.11595,-3.45337"
       id="path843"
       inkscape:connector-curvature="0"
       sodipodi:nodetypes="ccccccc" />
    <rect
       style="opacity:1;vector-effect:none;fill:#dedede;fill-opacity:1;fill-rule:evenodd;stroke:none;stroke-width:2.94385958;stroke-linecap:butt;stroke-linejoin:miter;stroke-miterlimit:4;stroke-dasharray:none;stroke-dashoffset:0;stroke-opacity:1"
       id="rect878"
       width="4.0789351"
       height="2.7093656"
       x="307.41489"
       y="453.51688"
       transform="rotate(6.3605559)" />
    <path
       style="opacity:1;vector-effect:none;fill:none;fill-opacity:1;stroke:#000000;stroke-width:1.25210416;stroke-linecap:butt;stroke-linejoin:miter;stroke-miterlimit:4;stroke-dasharray:none;stroke-dashoffset:0;stroke-opacity:1"
       d="m 255.64458,480.7036 -1.20722,10.82993"
       id="path861"
       inkscape:connector-curvature="0" />
    <path
       style="opacity:1;vector-effect:none;fill:none;fill-opacity:1;stroke:#000000;stroke-width:1.25210416;stroke-linecap:butt;stroke-linejoin:miter;stroke-miterlimit:4;stroke-dasharray:none;stroke-dashoffset:0;stroke-opacity:1"
       d="m 259.66882,481.15218 -1.20722,10.82993"
       id="path861-3"
       inkscape:connector-curvature="0" />
    <rect
       style="opacity:1;vector-effect:none;fill:#dedede;fill-opacity:1;fill-rule:evenodd;stroke:none;stroke-width:2.94385958;stroke-linecap:butt;stroke-linejoin:miter;stroke-miterlimit:4;stroke-dasharray:none;stroke-dashoffset:0;stroke-opacity:1"
       id="rect878-3"
       width="4.0789351"
       height="2.7093656"
       x="504.18518"
       y="-24.897961"
       transform="rotate(76.988926)" />
    <path
       style="opacity:1;vector-effect:none;fill:none;fill-opacity:1;stroke:#000000;stroke-width:1.25210416;stroke-linecap:butt;stroke-linejoin:miter;stroke-miterlimit:4;stroke-dasharray:none;stroke-dashoffset:0;stroke-opacity:1"
       d="m 141.7393,484.62683 -10.61724,2.45334"
       id="path861-6"
       inkscape:connector-curvature="0" />
    <path
       style="opacity:1;vector-effect:none;fill:none;fill-opacity:1;stroke:#000000;stroke-width:1.25210416;stroke-linecap:butt;stroke-linejoin:miter;stroke-miterlimit:4;stroke-dasharray:none;stroke-dashoffset:0;stroke-opacity:1"
       d="m 142.65093,488.57203 -10.61724,2.45335"
       id="path861-3-0"
       inkscape:connector-curvature="0" />
    <rect
       style="opacity:1;vector-effect:none;fill:#dedede;fill-opacity:1;fill-rule:evenodd;stroke:none;stroke-width:2.94385958;stroke-linecap:butt;stroke-linejoin:miter;stroke-miterlimit:4;stroke-dasharray:none;stroke-dashoffset:0;stroke-opacity:1"
       id="rect878-2"
       width="4.0789351"
       height="2.7093658"
       x="-51.518036"
       y="468.57196"
       transform="rotate(-25.078651)" />
    <path
       style="opacity:1;vector-effect:none;fill:none;fill-opacity:1;stroke:#000000;stroke-width:1.25210416;stroke-linecap:butt;stroke-linejoin:miter;stroke-miterlimit:4;stroke-dasharray:none;stroke-dashoffset:0;stroke-opacity:1"
       d="m 150.13247,442.56467 4.61882,9.86971"
       id="path861-61"
       inkscape:connector-curvature="0" />
    <path
       style="opacity:1;vector-effect:none;fill:none;fill-opacity:1;stroke:#000000;stroke-width:1.25210416;stroke-linecap:butt;stroke-linejoin:miter;stroke-miterlimit:4;stroke-dasharray:none;stroke-dashoffset:0;stroke-opacity:1"
       d="m 153.7999,440.84839 4.61883,9.86971"
       id="path861-3-8"
       inkscape:connector-curvature="0" />
    <rect
       style="opacity:1;vector-effect:none;fill:#dedede;fill-opacity:1;fill-rule:evenodd;stroke:none;stroke-width:2.94385958;stroke-linecap:butt;stroke-linejoin:miter;stroke-miterlimit:4;stroke-dasharray:none;stroke-dashoffset:0;stroke-opacity:1"
       id="rect878-9"
       width="4.0789351"
       height="2.7093656"
       x="432.18735"
       y="212.98787"
       transform="rotate(39.833145)" />
    <path
       style="opacity:1;vector-effect:none;fill:none;fill-opacity:1;stroke:#000000;stroke-width:1.25210416;stroke-linecap:butt;stroke-linejoin:miter;stroke-miterlimit:4;stroke-dasharray:none;stroke-dashoffset:0;stroke-opacity:1"
       d="m 198.00581,437.19462 -6.98012,8.36795"
       id="path861-2"
       inkscape:connector-curvature="0" />
    <path
       style="opacity:1;vector-effect:none;fill:none;fill-opacity:1;stroke:#000000;stroke-width:1.25210416;stroke-linecap:butt;stroke-linejoin:miter;stroke-miterlimit:4;stroke-dasharray:none;stroke-dashoffset:0;stroke-opacity:1"
       d="m 201.11522,439.78832 -6.98012,8.36796"
       id="path861-3-02"
       inkscape:connector-curvature="0" />
    <rect
       style="opacity:1;vector-effect:none;fill:#dedede;fill-opacity:1;fill-rule:evenodd;stroke:none;stroke-width:2.94385958;stroke-linecap:butt;stroke-linejoin:miter;stroke-miterlimit:4;stroke-dasharray:none;stroke-dashoffset:0;stroke-opacity:1"
       id="rect878-7"
       width="4.0789351"
       height="2.7093656"
       x="451.95526"
       y="158.04128"
       transform="rotate(45.256789)" />
    <path
       style="opacity:1;vector-effect:none;fill:none;fill-opacity:1;stroke:#000000;stroke-width:1.25210416;stroke-linecap:butt;stroke-linejoin:miter;stroke-miterlimit:4;stroke-dasharray:none;stroke-dashoffset:0;stroke-opacity:1"
       d="m 208.73819,429.3146 -7.73981,7.67073"
       id="path861-5"
       inkscape:connector-curvature="0" />
    <path
       style="opacity:1;vector-effect:none;fill:none;fill-opacity:1;stroke:#000000;stroke-width:1.25210416;stroke-linecap:butt;stroke-linejoin:miter;stroke-miterlimit:4;stroke-dasharray:none;stroke-dashoffset:0;stroke-opacity:1"
       d="m 211.58852,432.19059 -7.73981,7.67074"
       id="path861-3-9"
       inkscape:connector-curvature="0" />
    <rect
       style="opacity:1;vector-effect:none;fill:#dedede;fill-opacity:1;fill-rule:evenodd;stroke:none;stroke-width:2.94385958;stroke-linecap:butt;stroke-linejoin:miter;stroke-miterlimit:4;stroke-dasharray:none;stroke-dashoffset:0;stroke-opacity:1"
       id="rect878-1"
       width="4.0789351"
       height="2.7093656"
       x="337.19153"
       y="408.47595"
       transform="rotate(14.23742)" />
    <path
       style="opacity:1;vector-effect:none;fill:none;fill-opacity:1;stroke:#000000;stroke-width:1.25210416;stroke-linecap:butt;stroke-linejoin:miter;stroke-miterlimit:4;stroke-dasharray:none;stroke-dashoffset:0;stroke-opacity:1"
       d="m 227.29418,474.86858 -2.68001,10.56231"
       id="path861-29"
       inkscape:connector-curvature="0" />
    <path
       style="opacity:1;vector-effect:none;fill:none;fill-opacity:1;stroke:#000000;stroke-width:1.25210416;stroke-linecap:butt;stroke-linejoin:miter;stroke-miterlimit:4;stroke-dasharray:none;stroke-dashoffset:0;stroke-opacity:1"
       d="m 231.21898,475.86444 -2.68002,10.5623"
       id="path861-3-3"
       inkscape:connector-curvature="0" />
    <g
       transform="matrix(0.30870029,-0.88688885,0.88688885,0.30870029,-166.96705,823.44312)"
       id="g1081"
       style="fill:#dedede;fill-opacity:1">
      <rect
         y="265.71942"
         x="470.6413"
         height="2.8851335"
         width="4.3435526"
         id="rect878-94"
         style="opacity:1;vector-effect:none;fill:#dedede;fill-opacity:1;fill-rule:evenodd;stroke:none;stroke-width:3.13484001;stroke-linecap:butt;stroke-linejoin:miter;stroke-miterlimit:4;stroke-dasharray:none;stroke-dashoffset:0;stroke-opacity:1" />
      <path
         inkscape:connector-curvature="0"
         id="path861-7"
         d="m 470.5462,261.36001 v 11.60394"
         style="opacity:1;vector-effect:none;fill:#dedede;fill-opacity:1;stroke:#000000;stroke-width:1.33333337;stroke-linecap:butt;stroke-linejoin:miter;stroke-miterlimit:4;stroke-dasharray:none;stroke-dashoffset:0;stroke-opacity:1" />
      <path
         inkscape:connector-curvature="0"
         id="path861-3-84"
         d="m 474.85805,261.36001 v 11.60394"
         style="opacity:1;vector-effect:none;fill:#dedede;fill-opacity:1;stroke:#000000;stroke-width:1.33333337;stroke-linecap:butt;stroke-linejoin:miter;stroke-miterlimit:4;stroke-dasharray:none;stroke-dashoffset:0;stroke-opacity:1" />
    </g>
    <rect
       style="opacity:1;vector-effect:none;fill:#dedede;fill-opacity:1;fill-rule:evenodd;stroke:none;stroke-width:2.94385958;stroke-linecap:butt;stroke-linejoin:miter;stroke-miterlimit:4;stroke-dasharray:none;stroke-dashoffset:0;stroke-opacity:1"
       id="rect878-0"
       width="4.0789351"
       height="2.7093656"
       x="49.488068"
       y="537.47278"
       transform="rotate(-19.075736)" />
    <path
       style="opacity:1;vector-effect:none;fill:none;fill-opacity:1;stroke:#000000;stroke-width:1.25210416;stroke-linecap:butt;stroke-linejoin:miter;stroke-miterlimit:4;stroke-dasharray:none;stroke-dashoffset:0;stroke-opacity:1"
       d="m 221.00383,487.94535 3.56134,10.29863"
       id="path861-36"
       inkscape:connector-curvature="0" />
    <path
       style="opacity:1;vector-effect:none;fill:none;fill-opacity:1;stroke:#000000;stroke-width:1.25210416;stroke-linecap:butt;stroke-linejoin:miter;stroke-miterlimit:4;stroke-dasharray:none;stroke-dashoffset:0;stroke-opacity:1"
       d="m 224.83065,486.62201 3.56133,10.29863"
       id="path861-3-1"
       inkscape:connector-curvature="0" />
    <rect
       style="opacity:1;vector-effect:none;fill:#dedede;fill-opacity:1;fill-rule:evenodd;stroke:none;stroke-width:2.94385958;stroke-linecap:butt;stroke-linejoin:miter;stroke-miterlimit:4;stroke-dasharray:none;stroke-dashoffset:0;stroke-opacity:1"
       id="rect878-6"
       width="4.0789351"
       height="2.7093656"
       x="542.2334"
       y="270.79752"
       transform="rotate(35.253469)" />
    <path
       style="opacity:1;vector-effect:none;fill:none;fill-opacity:1;stroke:#000000;stroke-width:1.25210416;stroke-linecap:butt;stroke-linejoin:miter;stroke-miterlimit:4;stroke-dasharray:none;stroke-dashoffset:0;stroke-opacity:1"
       d="m 288.77853,530.71467 -6.2897,8.89857"
       id="path861-32"
       inkscape:connector-curvature="0" />
    <path
       style="opacity:1;vector-effect:none;fill:#dedede;fill-opacity:1;stroke:#000000;stroke-width:1.25210416;stroke-linecap:butt;stroke-linejoin:miter;stroke-miterlimit:4;stroke-dasharray:none;stroke-dashoffset:0;stroke-opacity:1"
       d="m 292.0851,533.05183 -6.28969,8.89856"
       id="path861-3-06"
       inkscape:connector-curvature="0" />
    <rect
       style="opacity:1;vector-effect:none;fill:#dedede;fill-opacity:1;fill-rule:evenodd;stroke:none;stroke-width:3.16449022;stroke-linecap:butt;stroke-linejoin:miter;stroke-miterlimit:4;stroke-dasharray:none;stroke-dashoffset:0;stroke-opacity:1"
       id="rect853"
       width="3.2004638"
       height="2.1123061"
       x="175.20578"
       y="517.79401" />
    <path
       style="opacity:1;vector-effect:none;fill:none;fill-opacity:1;stroke:#000000;stroke-width:1.25210416;stroke-linecap:butt;stroke-linejoin:miter;stroke-miterlimit:4;stroke-dasharray:none;stroke-dashoffset:0;stroke-opacity:1"
       d="m 175.15785,516.10029 v 5.4997"
       id="path845"
       inkscape:connector-curvature="0" />
    <path
       style="opacity:1;vector-effect:none;fill:none;fill-opacity:1;stroke:#000000;stroke-width:1.25210416;stroke-linecap:butt;stroke-linejoin:miter;stroke-miterlimit:4;stroke-dasharray:none;stroke-dashoffset:0;stroke-opacity:1"
       d="m 178.37272,513.04488 v 11.6105"
       id="path847"
       inkscape:connector-curvature="0" />
    <rect
       style="opacity:1;vector-effect:none;fill:#dedede;fill-opacity:1;fill-rule:evenodd;stroke:none;stroke-width:3.16449022;stroke-linecap:butt;stroke-linejoin:miter;stroke-miterlimit:4;stroke-dasharray:none;stroke-dashoffset:0;stroke-opacity:1"
       id="rect853-6"
       width="3.2004638"
       height="2.1123061"
       x="511.39417"
       y="2.4557829"
       transform="rotate(64.943105)" />
    <path
       style="opacity:1;vector-effect:none;fill:none;fill-opacity:1;stroke:#000000;stroke-width:1.25210416;stroke-linecap:butt;stroke-linejoin:miter;stroke-miterlimit:4;stroke-dasharray:none;stroke-dashoffset:0;stroke-opacity:1"
       d="m 215.87397,463.545 -4.98211,2.32923"
       id="path845-9"
       inkscape:connector-curvature="0" />
    <path
       style="opacity:1;vector-effect:none;fill:none;fill-opacity:1;stroke:#000000;stroke-width:1.25210416;stroke-linecap:butt;stroke-linejoin:miter;stroke-miterlimit:4;stroke-dasharray:none;stroke-dashoffset:0;stroke-opacity:1"
       d="m 220.00338,465.1633 -10.5178,4.91726"
       id="path847-3"
       inkscape:connector-curvature="0" />
    <rect
       style="opacity:1;vector-effect:none;fill:#dedede;fill-opacity:1;fill-rule:evenodd;stroke:none;stroke-width:2.94385958;stroke-linecap:butt;stroke-linejoin:miter;stroke-miterlimit:4;stroke-dasharray:none;stroke-dashoffset:0;stroke-opacity:1"
       id="rect878-5"
       width="4.0789351"
       height="2.7093658"
       x="595.11761"
       y="133.96645"
       transform="rotate(51.419838)" />
    <path
       style="opacity:1;vector-effect:none;fill:none;fill-opacity:1;stroke:#000000;stroke-width:1.25210416;stroke-linecap:butt;stroke-linejoin:miter;stroke-miterlimit:4;stroke-dasharray:none;stroke-dashoffset:0;stroke-opacity:1"
       d="m 269.53882,546.14503 -8.51858,6.79547"
       id="path861-4"
       inkscape:connector-curvature="0" />
    <path
       style="opacity:1;vector-effect:none;fill:#dedede;fill-opacity:1;stroke:#000000;stroke-width:1.25210416;stroke-linecap:butt;stroke-linejoin:miter;stroke-miterlimit:4;stroke-dasharray:none;stroke-dashoffset:0;stroke-opacity:1"
       d="m 272.06392,549.31041 -8.51859,6.79547"
       id="path861-3-76"
       inkscape:connector-curvature="0" />
    <circle
       r="2.8358157"
       cy="295.34448"
       cx="219.52837"
       id="path1123"
       style="fill:#000000;fill-opacity:1;stroke:none;stroke-width:0.1635211;stroke-miterlimit:4;stroke-dasharray:none;stroke-dashoffset:0;stroke-opacity:1" />
    <circle
       r="2.8358157"
       cy="314.87112"
       cx="214.42389"
       id="path1123-7"
       style="fill:#000000;fill-opacity:1;stroke:none;stroke-width:0.1635211;stroke-miterlimit:4;stroke-dasharray:none;stroke-dashoffset:0;stroke-opacity:1" />
    <text
       id="text1142"
       y="293.96707"
       x="207.94202"
       style="font-style:normal;font-variant:normal;font-weight:normal;font-stretch:normal;font-size:30.05049896px;line-height:1.25;font-family:'Liberation Sans';-inkscape-font-specification:'Liberation Sans';font-variant-ligatures:normal;font-variant-position:normal;font-variant-caps:normal;font-variant-numeric:normal;font-variant-alternates:normal;font-feature-settings:normal;text-indent:0;text-align:start;text-decoration:none;text-decoration-line:none;text-decoration-style:solid;text-decoration-color:#000000;letter-spacing:0px;word-spacing:0px;text-transform:none;writing-mode:lr-tb;direction:ltr;text-orientation:mixed;dominant-baseline:auto;baseline-shift:baseline;text-anchor:start;white-space:normal;shape-padding:0;opacity:1;vector-effect:none;fill:#000000;fill-opacity:1;stroke:none;stroke-width:0.93907803;stroke-linecap:butt;stroke-linejoin:miter;stroke-miterlimit:4;stroke-dasharray:none;stroke-dashoffset:0;stroke-opacity:1"
       xml:space="preserve"><tspan
         style="font-size:12.52104092px;stroke-width:0.93907803"
         y="293.96707"
         x="207.94202"
         id="tspan1140"
         sodipodi:role="line">A</tspan></text>
    <text
       id="text1142-4"
       y="321.77103"
       x="203.7663"
       style="font-style:normal;font-variant:normal;font-weight:normal;font-stretch:normal;font-size:30.05049896px;line-height:1.25;font-family:'Liberation Sans';-inkscape-font-specification:'Liberation Sans';font-variant-ligatures:normal;font-variant-position:normal;font-variant-caps:normal;font-variant-numeric:normal;font-variant-alternates:normal;font-feature-settings:normal;text-indent:0;text-align:start;text-decoration:none;text-decoration-line:none;text-decoration-style:solid;text-decoration-color:#000000;letter-spacing:0px;word-spacing:0px;text-transform:none;writing-mode:lr-tb;direction:ltr;text-orientation:mixed;dominant-baseline:auto;baseline-shift:baseline;text-anchor:start;white-space:normal;shape-padding:0;opacity:1;vector-effect:none;fill:#000000;fill-opacity:1;stroke:none;stroke-width:0.93907803;stroke-linecap:butt;stroke-linejoin:miter;stroke-miterlimit:4;stroke-dasharray:none;stroke-dashoffset:0;stroke-opacity:1"
       xml:space="preserve"><tspan
         style="font-size:12.52104092px;stroke-width:0.93907803"
         y="321.77103"
         x="203.7663"
         id="tspan1140-5"
         sodipodi:role="line">B</tspan></text>
    <text
       xml:space="preserve"
       style="font-style:normal;font-variant:normal;font-weight:normal;font-stretch:normal;font-size:13.33333302px;line-height:1.25;font-family:'Liberation Sans';-inkscape-font-specification:'Liberation Sans';font-variant-ligatures:normal;font-variant-position:normal;font-variant-caps:normal;font-variant-numeric:normal;font-variant-alternates:normal;font-feature-settings:normal;text-indent:0;text-align:start;text-decoration:none;text-decoration-line:none;text-decoration-style:solid;text-decoration-color:#000000;letter-spacing:0px;word-spacing:0px;text-transform:none;writing-mode:lr-tb;direction:ltr;text-orientation:mixed;dominant-baseline:auto;baseline-shift:baseline;text-anchor:start;white-space:normal;shape-padding:0;opacity:1;vector-effect:none;fill:#000000;fill-opacity:1;stroke:none;stroke-width:0.99999994;stroke-linecap:butt;stroke-linejoin:miter;stroke-miterlimit:4;stroke-dasharray:none;stroke-dashoffset:0;stroke-opacity:1"
       x="131.48169"
       y="402.31454"
       id="text1281"><tspan
         sodipodi:role="line"
         id="tspan1279"
         x="131.48169"
         y="402.31454">1</tspan></text>
    <text
       xml:space="preserve"
       style="font-style:normal;font-variant:normal;font-weight:normal;font-stretch:normal;font-size:13.33333302px;line-height:1.25;font-family:'Liberation Sans';-inkscape-font-specification:'Liberation Sans';font-variant-ligatures:normal;font-variant-position:normal;font-variant-caps:normal;font-variant-numeric:normal;font-variant-alternates:normal;font-feature-settings:normal;text-indent:0;text-align:start;text-decoration:none;text-decoration-line:none;text-decoration-style:solid;text-decoration-color:#000000;letter-spacing:0px;word-spacing:0px;text-transform:none;writing-mode:lr-tb;direction:ltr;text-orientation:mixed;dominant-baseline:auto;baseline-shift:baseline;text-anchor:start;white-space:normal;shape-padding:0;opacity:1;vector-effect:none;fill:#000000;fill-opacity:1;stroke:none;stroke-width:0.99999994;stroke-linecap:butt;stroke-linejoin:miter;stroke-miterlimit:4;stroke-dasharray:none;stroke-dashoffset:0;stroke-opacity:1"
       x="131.82674"
       y="586.50427"
       id="text1285"><tspan
         sodipodi:role="line"
         id="tspan1283"
         x="131.82674"
         y="586.50427">2</tspan></text>
  </g>
</svg>
