<?xml version="1.0" encoding="UTF-8" standalone="no"?>
<!-- Created with Inkscape (http://www.inkscape.org/) -->

<svg
   xmlns:dc="http://purl.org/dc/elements/1.1/"
   xmlns:cc="http://creativecommons.org/ns#"
   xmlns:rdf="http://www.w3.org/1999/02/22-rdf-syntax-ns#"
   xmlns:svg="http://www.w3.org/2000/svg"
   xmlns="http://www.w3.org/2000/svg"
   xmlns:sodipodi="http://sodipodi.sourceforge.net/DTD/sodipodi-0.dtd"
   xmlns:inkscape="http://www.inkscape.org/namespaces/inkscape"
   width="210mm"
   height="297mm"
   viewBox="0 0 210 297"
   version="1.1"
   id="svg8"
   inkscape:version="0.92.3 (2405546, 2018-03-11)"
   sodipodi:docname="field-lines-of-wire-handedness.svg">
  <defs
     id="defs2" />
  <sodipodi:namedview
     id="base"
     pagecolor="#ffffff"
     bordercolor="#666666"
     borderopacity="1.0"
     inkscape:pageopacity="0.0"
     inkscape:pageshadow="2"
     inkscape:zoom="2.75726"
     inkscape:cx="138.23965"
     inkscape:cy="582.15205"
     inkscape:document-units="mm"
     inkscape:current-layer="layer1"
     showgrid="false"
     inkscape:snap-global="false"
     inkscape:window-width="1280"
     inkscape:window-height="996"
     inkscape:window-x="0"
     inkscape:window-y="0"
     inkscape:window-maximized="1" />
  <metadata
     id="metadata5">
    <rdf:RDF>
      <cc:Work
         rdf:about="">
        <dc:format>image/svg+xml</dc:format>
        <dc:type
           rdf:resource="http://purl.org/dc/dcmitype/StillImage" />
        <dc:title />
      </cc:Work>
    </rdf:RDF>
  </metadata>
  <g
     inkscape:label="Layer 1"
     inkscape:groupmode="layer"
     id="layer1">
    <rect
       style="fill:#dedede;fill-opacity:1;stroke:none;stroke-width:0.22662209;stroke-miterlimit:4;stroke-dasharray:none;stroke-dashoffset:0;stroke-opacity:1"
       id="rect826"
       width="52"
       height="65.427711"
       x="6.8153858"
       y="111.16713" />
    <g
       id="g854">
      <path
         inkscape:connector-curvature="0"
         id="path863"
         d="m 44.724227,170.70542 c -0.69609,-4.01591 -0.856726,-5.51518 -0.856726,-5.51518"
         style="opacity:1;vector-effect:none;fill:none;fill-opacity:1;stroke:#000000;stroke-width:0.35277778;stroke-linecap:butt;stroke-linejoin:miter;stroke-miterlimit:4;stroke-dasharray:none;stroke-dashoffset:0;stroke-opacity:1;marker:none;marker-start:none;marker-mid:none;marker-end:none" />
      <path
         inkscape:connector-curvature="0"
         id="path865"
         d="m 40.333505,167.27851 c 1.552817,-0.0535 1.499272,-0.589 2.516634,-1.33863 1.017362,-0.74964 1.445726,-3.69464 1.445726,-3.69464"
         style="opacity:1;vector-effect:none;fill:none;fill-opacity:1;stroke:#000000;stroke-width:0.35277778;stroke-linecap:butt;stroke-linejoin:miter;stroke-miterlimit:4;stroke-dasharray:none;stroke-dashoffset:0;stroke-opacity:1;marker:none;marker-start:none;marker-mid:none;marker-end:none" />
      <path
         inkscape:connector-curvature="0"
         id="path869"
         d="m 43.439138,161.6027 c 2.463088,-1.44573 2.784361,-1.82054 3.641086,-1.98118 0.856728,-0.16064 2.409543,-0.26773 2.677271,-0.21418 0.267727,0.0535 0.963817,0.589 1.285089,0.42836 0.321272,-0.16063 0.749636,-1.01736 0.481908,-1.71345 -0.267727,-0.69609 -2.195361,-2.356 -3.266267,-2.356 -1.070909,0 -3.96236,0.48191 -4.711996,1.12446 -0.749636,0.64254 -1.445726,1.33863 -1.445726,1.33863"
         style="opacity:1;vector-effect:none;fill:none;fill-opacity:1;stroke:#000000;stroke-width:0.35277778;stroke-linecap:butt;stroke-linejoin:miter;stroke-miterlimit:4;stroke-dasharray:none;stroke-dashoffset:0;stroke-opacity:1;marker:none;marker-start:none;marker-mid:none;marker-end:none" />
      <path
         inkscape:connector-curvature="0"
         id="path871"
         d="m 46.651861,155.71271 c 0.428363,-1.767 1.392181,-3.26627 1.070908,-3.90882 -0.321272,-0.64254 -1.124453,-1.92763 -2.034725,-1.87409 -0.910271,0.0536 -2.463087,-0.37481 -3.052088,-0.37481 -0.588998,0 -2.891451,0 -2.891451,0 0,0 -0.749634,1.01736 -1.338634,1.87408 -0.589,0.85673 -1.766998,2.356 -1.766998,2.83791 0,0.48191 -0.160636,2.14182 -0.05354,2.67727 0.10709,0.53545 0.160636,2.19536 0.481909,2.24891 0.321272,0.0535 1.392178,0.48191 1.713451,-0.10709 0.321272,-0.589 0.803181,-1.28509 0.803181,-1.60637 0,-0.32127 -0.107089,-1.49927 -0.107089,-1.49927 0,0 0.642544,-0.53545 1.285089,-1.0709 0.642544,-0.53546 0.803181,-1.49928 0.803181,-1.49928 0,0 0.481908,0.32128 1.177997,0.589 0.69609,0.26773 2.784361,-0.37481 2.784361,-0.37481"
         style="opacity:1;vector-effect:none;fill:none;fill-opacity:1;stroke:#000000;stroke-width:0.35277778;stroke-linecap:butt;stroke-linejoin:miter;stroke-miterlimit:4;stroke-dasharray:none;stroke-dashoffset:0;stroke-opacity:1;marker:none;marker-start:none;marker-mid:none;marker-end:none" />
      <path
         sodipodi:nodetypes="czccssc"
         inkscape:connector-curvature="0"
         id="path873"
         d="m 36.210509,158.49707 c -0.856725,0.0535 -1.191169,-0.1389 -1.389642,-0.24864 -0.198471,-0.10973 -0.216719,-3.23181 -0.109628,-3.82081 0.107092,-0.589 1.070908,-5.56872 1.820543,-5.67581 0.749636,-0.1071 1.927634,-0.6961 3.748178,-0.53546 1.820543,0.16064 3.319814,0.53546 3.801722,0.85673 0.481909,0.32127 0.481909,0.589 0.481909,0.589"
         style="opacity:1;vector-effect:none;fill:none;fill-opacity:1;stroke:#000000;stroke-width:0.35277778;stroke-linecap:butt;stroke-linejoin:miter;stroke-miterlimit:4;stroke-dasharray:none;stroke-dashoffset:0;stroke-opacity:1;marker:none;marker-start:none;marker-mid:none;marker-end:none" />
      <path
         inkscape:connector-curvature="0"
         id="path875"
         d="m 34.657694,157.05134 c -0.428363,-0.10709 -1.285089,-1.767 -1.338636,-2.67727 -0.05354,-0.91027 0.803181,-4.06945 0.910273,-4.65845 0.107091,-0.589 0.214181,-1.767 0.642544,-1.767 0.428364,0 2.302451,0.10709 2.302451,0.10709"
         style="opacity:1;vector-effect:none;fill:none;fill-opacity:1;stroke:#000000;stroke-width:0.35277778;stroke-linecap:butt;stroke-linejoin:miter;stroke-miterlimit:4;stroke-dasharray:none;stroke-dashoffset:0;stroke-opacity:1;marker:none;marker-start:none;marker-mid:none;marker-end:none" />
      <path
         inkscape:connector-curvature="0"
         id="path877"
         d="m 33.051333,154.53471 c -0.696092,-0.32127 -1.178001,-0.0536 -0.963818,-1.12446 0.214181,-1.0709 0.214181,-2.94499 0.214181,-2.94499 0,0 0.963818,-1.55282 1.124454,-1.767 0.160636,-0.21418 1.713453,-1.07091 1.713453,-1.07091 l 0.642544,0.21418"
         style="opacity:1;vector-effect:none;fill:none;fill-opacity:1;stroke:#000000;stroke-width:0.35277778;stroke-linecap:butt;stroke-linejoin:miter;stroke-miterlimit:4;stroke-dasharray:none;stroke-dashoffset:0;stroke-opacity:1;marker:none;marker-start:none;marker-mid:none;marker-end:none" />
      <path
         inkscape:connector-curvature="0"
         id="path879"
         d="m 37.388509,160.31761 c -0.481908,1.07091 -0.910272,2.40954 -0.481908,2.945 0.428361,0.53545 0.803181,2.03472 0.803181,2.03472"
         style="opacity:1;vector-effect:none;fill:none;fill-opacity:1;stroke:#000000;stroke-width:0.35277778;stroke-linecap:butt;stroke-linejoin:miter;stroke-miterlimit:4;stroke-dasharray:none;stroke-dashoffset:0;stroke-opacity:1;marker:none;marker-start:none;marker-mid:none;marker-end:none" />
      <path
         inkscape:connector-curvature="0"
         id="path881"
         d="m 34.871875,159.19316 c 0,1.60636 1.49927,3.53399 1.606362,3.96236 0.107091,0.42836 0.267727,3.4269 0.267727,3.4269"
         style="opacity:1;vector-effect:none;fill:none;fill-opacity:1;stroke:#000000;stroke-width:0.35277778;stroke-linecap:butt;stroke-linejoin:miter;stroke-miterlimit:4;stroke-dasharray:none;stroke-dashoffset:0;stroke-opacity:1;marker:none;marker-start:none;marker-mid:none;marker-end:none" />
      <path
         inkscape:connector-curvature="0"
         id="path883"
         d="m 36.210509,165.24379 c -0.535453,1.12445 -1.713451,3.74817 -1.713451,4.17654 0,0.42836 -0.107091,0.85672 -0.107091,0.85672"
         style="opacity:1;vector-effect:none;fill:none;fill-opacity:1;stroke:#000000;stroke-width:0.35277778;stroke-linecap:butt;stroke-linejoin:miter;stroke-miterlimit:4;stroke-dasharray:none;stroke-dashoffset:0;stroke-opacity:1;marker:none;marker-start:none;marker-mid:none;marker-end:none" />
      <path
         inkscape:connector-curvature="0"
         id="path885"
         d="m 36.906466,157.34123 c 0.58299,0.25692 1.037526,0.54347 1.136337,0.89919 0.09881,0.35573 0.23715,0.71145 0.03953,0.80038 -0.197624,0.0889 -0.928832,0.0395 -0.928832,0.0395"
         style="opacity:1;vector-effect:none;fill:none;fill-opacity:1;stroke:#000000;stroke-width:0.35277778;stroke-linecap:butt;stroke-linejoin:miter;stroke-miterlimit:4;stroke-dasharray:none;stroke-dashoffset:0;stroke-opacity:1;marker:none;marker-start:none;marker-mid:none;marker-end:none" />
      <path
         inkscape:connector-curvature="0"
         id="path887"
         d="m 35.029038,156.70884 c 0.523705,-0.0692 1.175863,-0.13834 1.23515,0.22726 0.05929,0.36561 0.167982,0.85967 0.118574,1.00789 -0.0494,0.14821 -1.096812,0.22726 -1.195623,0.22726 -0.09881,0 -0.266794,-0.5237 -0.276674,-0.84978 -0.0099,-0.32608 0.118573,-0.61263 0.118573,-0.61263 z"
         style="opacity:1;vector-effect:none;fill:none;fill-opacity:1;stroke:#000000;stroke-width:0.35277778;stroke-linecap:butt;stroke-linejoin:miter;stroke-miterlimit:4;stroke-dasharray:none;stroke-dashoffset:0;stroke-opacity:1;marker:none;marker-start:none;marker-mid:none;marker-end:none" />
      <path
         inkscape:connector-curvature="0"
         id="path889"
         d="m 32.420405,152.88481 c 0.266792,0.0593 0.326078,0.13834 0.33596,0.4743 0.0099,0.33596 0.207504,0.66204 0.0099,0.68181 -0.197624,0.0198 -0.533585,0.0296 -0.533585,0.0296"
         style="opacity:1;vector-effect:none;fill:none;fill-opacity:1;stroke:#000000;stroke-width:0.35277778;stroke-linecap:butt;stroke-linejoin:miter;stroke-miterlimit:4;stroke-dasharray:none;stroke-dashoffset:0;stroke-opacity:1;marker:none;marker-start:none;marker-mid:none;marker-end:none" />
    </g>
    <path
       style="opacity:1;vector-effect:none;fill:none;fill-opacity:1;stroke:#000000;stroke-width:0.26458332;stroke-linecap:butt;stroke-linejoin:miter;stroke-miterlimit:4;stroke-dasharray:none;stroke-dashoffset:0;stroke-opacity:1;marker:none;marker-start:none;marker-mid:none;marker-end:none"
       d="m 19.191757,128.49636 17.36854,10.84335 -1.823215,0.47979 5.37369,0.096 -2.111092,-3.55048 -0.09596,1.6313 -18.424087,-10.26759 z"
       id="path912"
       inkscape:connector-curvature="0" />
    <path
       style="fill:none;fill-opacity:1;stroke:#000000;stroke-width:0.35277778;stroke-miterlimit:4;stroke-dasharray:none;stroke-dashoffset:0;stroke-opacity:1"
       id="path914"
       sodipodi:type="arc"
       sodipodi:cx="21.830624"
       sodipodi:cy="129.98372"
       sodipodi:rx="11.85091"
       sodipodi:ry="15.401385"
       sodipodi:start="0.49650039"
       sodipodi:end="0.30264842"
       sodipodi:open="true"
       d="m 32.250596,137.32019 a 11.85091,15.401385 0 0 1 -15.553757,6.54478 11.85091,15.401385 0 0 1 -5.78359,-19.8728 11.85091,15.401385 0 0 1 14.993396,-8.47021 11.85091,15.401385 0 0 1 7.236271,19.05213" />
    <text
       xml:space="preserve"
       style="font-style:normal;font-variant:normal;font-weight:normal;font-stretch:normal;font-size:3.52777767px;line-height:1.25;font-family:'Liberation Sans';-inkscape-font-specification:'Liberation Sans';font-variant-ligatures:normal;font-variant-position:normal;font-variant-caps:normal;font-variant-numeric:normal;font-variant-alternates:normal;font-feature-settings:normal;text-indent:0;text-align:start;text-decoration:none;text-decoration-line:none;text-decoration-style:solid;text-decoration-color:#000000;letter-spacing:0px;word-spacing:0px;text-transform:none;writing-mode:lr-tb;direction:ltr;text-orientation:mixed;dominant-baseline:auto;baseline-shift:baseline;text-anchor:start;white-space:normal;shape-padding:0;opacity:1;vector-effect:none;fill:#000000;fill-opacity:1;stroke:none;stroke-width:0.26458332;stroke-linecap:butt;stroke-linejoin:miter;stroke-miterlimit:4;stroke-dasharray:none;stroke-dashoffset:0;stroke-opacity:1"
       x="86.204437"
       y="107.86033"
       id="text918"
       transform="rotate(24.173309)"><tspan
         sodipodi:role="line"
         id="tspan916"
         x="86.204437"
         y="107.86033"
         style="stroke-width:0.26458332">current</tspan></text>
    <path
       style="opacity:1;vector-effect:none;fill:#000000;fill-opacity:1;stroke:none;stroke-width:0.26458332;stroke-linecap:butt;stroke-linejoin:miter;stroke-miterlimit:4;stroke-dasharray:none;stroke-dashoffset:0;stroke-opacity:1;marker:none;marker-start:none;marker-mid:none;marker-end:none"
       d="m 11.706972,140.68313 2.686846,1.05555 -0.863629,-2.68685 -0.575753,1.05555 z"
       id="path920"
       inkscape:connector-curvature="0" />
    <text
       xml:space="preserve"
       style="font-style:normal;font-variant:normal;font-weight:normal;font-stretch:normal;font-size:3.52777767px;line-height:1.25;font-family:'Liberation Sans';-inkscape-font-specification:'Liberation Sans';font-variant-ligatures:normal;font-variant-position:normal;font-variant-caps:normal;font-variant-numeric:normal;font-variant-alternates:normal;font-feature-settings:normal;text-indent:0;text-align:start;text-decoration:none;text-decoration-line:none;text-decoration-style:solid;text-decoration-color:#000000;letter-spacing:0px;word-spacing:0px;text-transform:none;writing-mode:lr-tb;direction:ltr;text-orientation:mixed;dominant-baseline:auto;baseline-shift:baseline;text-anchor:start;white-space:normal;shape-padding:0;opacity:1;vector-effect:none;fill:#000000;fill-opacity:1;stroke:none;stroke-width:0.26458332;stroke-linecap:butt;stroke-linejoin:miter;stroke-miterlimit:4;stroke-dasharray:none;stroke-dashoffset:0;stroke-opacity:1"
       x="104.17085"
       y="99.207314"
       id="text924"
       transform="rotate(42.430397)"><tspan
         sodipodi:role="line"
         id="tspan922"
         x="104.17085"
         y="99.207314"
         style="stroke-width:0.26458332">field</tspan></text>
  </g>
</svg>
