<?xml version="1.0" encoding="UTF-8" standalone="no"?>
<!-- Created with Inkscape (http://www.inkscape.org/) -->

<svg
   xmlns:dc="http://purl.org/dc/elements/1.1/"
   xmlns:cc="http://creativecommons.org/ns#"
   xmlns:rdf="http://www.w3.org/1999/02/22-rdf-syntax-ns#"
   xmlns:svg="http://www.w3.org/2000/svg"
   xmlns="http://www.w3.org/2000/svg"
   xmlns:sodipodi="http://sodipodi.sourceforge.net/DTD/sodipodi-0.dtd"
   xmlns:inkscape="http://www.inkscape.org/namespaces/inkscape"
   width="210mm"
   height="297mm"
   viewBox="0 0 210 297"
   version="1.1"
   id="svg8"
   inkscape:version="0.92.5 (2060ec1f9f, 2020-04-08)"
   sodipodi:docname="terrier-conservative.svg">
  <defs
     id="defs2" />
  <sodipodi:namedview
     id="base"
     pagecolor="#ffffff"
     bordercolor="#666666"
     borderopacity="1.0"
     inkscape:pageopacity="0.0"
     inkscape:pageshadow="2"
     inkscape:zoom="0.55001226"
     inkscape:cx="613.44257"
     inkscape:cy="594.9431"
     inkscape:document-units="mm"
     inkscape:current-layer="layer1"
     showgrid="false"
     inkscape:window-width="1280"
     inkscape:window-height="998"
     inkscape:window-x="0"
     inkscape:window-y="0"
     inkscape:window-maximized="1"
     inkscape:snap-global="false"
     showguides="false" />
  <metadata
     id="metadata5">
    <rdf:RDF>
      <cc:Work
         rdf:about="">
        <dc:format>image/svg+xml</dc:format>
        <dc:type
           rdf:resource="http://purl.org/dc/dcmitype/StillImage" />
        <dc:title />
      </cc:Work>
    </rdf:RDF>
  </metadata>
  <g
     inkscape:label="Layer 1"
     inkscape:groupmode="layer"
     id="layer1">
    <g
       id="g1767"
       transform="translate(0,10.102048)">
      <path
         inkscape:connector-curvature="0"
         id="path956"
         d="m 41.218405,133.21306 c -0.870986,0.39591 -1.451701,0.76531 -1.610058,1.16122 -0.158362,0.39591 -0.765398,1.31973 -0.870973,1.53088 -0.105575,0.21115 -0.290329,0.65981 -0.07919,1.42523 0.211151,0.76542 0.633515,1.84759 0.897447,2.79775 0.263937,0.95017 0.422137,2.16431 0.342958,2.87693 -0.07918,0.71263 -0.422137,1.58359 -0.422137,1.58359 0,0 0.158351,0.18468 0.55426,0.29025 0.395904,0.10557 0.923674,0.15836 1.161221,0 0.237535,-0.15836 0.659899,-0.34319 0.659899,-0.34319 0,0 -0.42244,-0.52785 -0.448836,-1.18769 -0.0264,-0.65984 0.02651,-1.45147 0.02651,-1.45147 0,0 0.237453,0.1582 0.369419,0.65967 0.131972,0.50148 0.184824,1.53096 0.580733,1.95326 0.395904,0.42229 1.372586,1.00301 2.269968,1.0558 0.897377,0.0528 2.111367,0.079 2.428092,0.0262 0.31672,-0.0528 1.768414,-0.42213 1.768414,-0.42213 0,0 -0.0264,-0.63367 -0.158356,-0.71286 -0.131972,-0.0792 -1.873989,-1.05564 -2.08514,-1.24039 -0.211144,-0.18476 -1.477934,-0.97646 -1.477934,-1.31958 0,-0.34311 -0.501548,-2.45471 -0.659911,-3.06176 -0.158356,-0.60705 -2.111524,-4.30208 -2.401852,-4.82995 -0.290329,-0.52787 -0.844507,-0.79179 -0.844507,-0.79179 z m -0.05297,0.58049 c 0,0 0.316865,0.18482 0.528021,0.58073 0.211145,0.39591 0.844577,1.82128 1.108509,2.19079 0.263938,0.36951 1.346126,3.03521 1.451701,3.32554 0.105575,0.29032 0.369425,1.9003 0.369425,1.9003 0,0 -0.263926,8e-5 -0.554254,-0.0527 -0.290329,-0.0528 -0.554412,-1.42546 -0.6072,-1.74218 -0.05279,-0.31672 -2.401777,-5.72738 -2.296202,-6.20247 z"
         style="opacity:1;vector-effect:none;fill:#000000;fill-opacity:1;stroke:#000000;stroke-width:0.12101452;stroke-linecap:butt;stroke-linejoin:miter;stroke-miterlimit:4;stroke-dasharray:none;stroke-dashoffset:0;stroke-opacity:1;marker:none;marker-start:none;marker-mid:none;marker-end:none" />
      <path
         inkscape:connector-curvature="0"
         id="path3050-6"
         d="m 26.609264,153.85148 c 0,0 0.01872,0.15908 0.02936,0.31483 0.0065,0.10856 0.0096,0.2162 -0.0023,0.26395 -0.01072,0.0429 -0.03562,0.13334 -0.06628,0.23053 -0.05384,0.16436 -0.130681,0.35445 -0.222093,0.4093 -0.123953,0.0744 -0.289887,0.50739 -0.426163,0.77703 -0.0031,0.006 -0.0065,0.0135 -0.0096,0.0195 -1.3e-4,2.5e-4 -1.61e-4,4.8e-4 -2.91e-4,10e-4 -0.01964,0.0378 -0.0387,0.0718 -0.05669,0.10058 -0.0089,0.0143 -0.01588,0.029 -0.02151,0.0439 -7.5e-5,2e-4 -2.16e-4,3.8e-4 -2.9e-4,4.8e-4 -0.0054,0.0141 -0.009,0.0286 -0.01163,0.043 -1.79e-4,0.001 -6.99e-4,0.002 -8.74e-4,0.003 -0.0022,0.0129 -0.0029,0.0256 -0.0032,0.0387 -7.7e-5,0.003 -5.8e-4,0.006 -5.8e-4,0.009 0,0 0,2.9e-4 0,2.9e-4 6.1e-5,0.0155 0.0015,0.0311 0.0038,0.0465 0.0012,0.008 0.0042,0.0149 0.0058,0.0224 0.03761,0.17985 0.199418,0.34651 0.199418,0.34651 l -0.52064,0.52064 c 0,0 -0.0094,0.0481 -0.01396,0.11163 -0.0069,0.0831 -0.0051,0.19609 0.04419,0.29477 0.08703,0.17405 0.261071,0.40635 0.551162,0.52239 0.0194,0.008 0.04018,0.0134 0.06163,0.018 0.09135,0.0255 0.18264,0.0302 0.272674,0.0209 l 0.0282,0.0169 1.195057,-0.11221 c -0.0013,0.0351 0.0072,0.0816 0.03809,0.14331 0.08703,0.17406 0.145058,0.87035 0.145057,0.87035 l 0.04244,-0.3125 0.01104,0.21686 -0.02442,0.0375 0.03604,0.18663 0.005,0.093 0.08052,0.40291 -0.03459,0.0427 c 0,0 0.0047,-4.8e-4 0.005,-4.8e-4 l -0.002,0.002 c 0,0 0.0128,-0.002 0.02181,-0.004 0.0044,-3.4e-4 0.01168,-0.001 0.01918,-0.002 l 0.17878,0.87675 -0.105815,-0.0895 c 2.07e-4,3.9e-4 3.76e-4,10e-4 5.81e-4,10e-4 l -0.0015,-10e-4 c 0.232072,0.43514 0.261178,0.8993 0.464244,1.5375 0.203063,0.6382 0.464136,1.33446 0.551161,1.82761 0.08703,0.49316 0.02885,1.07352 0.05785,1.3346 0.02901,0.26107 -0.348041,0.11578 -0.522094,0.43488 -0.14479,0.26545 -0.168,0.36614 -0.172093,0.3939 -1.31e-4,0.001 -0.0038,0.0128 -0.0038,0.0128 0,0 0.0016,-10e-4 0.0017,-10e-4 v 10e-4 c 0,0 0.0044,-0.004 0.01308,-0.008 0,0 2.91e-4,0 2.91e-4,0 0.02939,-0.0121 0.118062,-0.0268 0.30465,2.9e-4 0.02147,0.003 0.03487,0.003 0.0593,0.008 0.07977,0.0145 0.159513,0.0452 0.234302,0.0788 0.01916,0.009 0.0339,0.0157 0.05233,0.0244 0.197476,0.0946 0.351454,0.18645 0.351454,-0.0134 0,-0.001 -3e-6,-0.002 0,-0.003 0,-0.0139 0.001,-0.0249 0.0015,-0.0378 6.41e-4,-0.0204 0.001,-0.0417 0.0026,-0.0599 3e-5,-3.5e-4 -2.9e-5,-0.001 0,-0.001 0.01181,-0.13043 0.04959,-0.21348 0.09942,-0.31744 0.0067,-0.0139 0.01174,-0.0258 0.01889,-0.0407 1.14e-4,-2.4e-4 1.79e-4,-4.8e-4 2.92e-4,-0.001 0.02439,-0.0506 0.05165,-0.10833 0.08052,-0.18052 0.116036,-0.29009 0.115988,-0.26085 0.115988,-0.725 0,-0.46415 0.05785,-0.75446 0.05785,-1.2186 0,-0.46415 -0.05785,-0.40585 -0.05785,-0.84099 0,-0.039 -0.0037,-0.0735 -0.005,-0.11134 -0.0015,-0.05 -0.0031,-0.0981 -0.0061,-0.14302 -0.0027,-0.0371 -0.0051,-0.0711 -0.0084,-0.10582 -0.0019,-0.0188 -0.0038,-0.033 -0.0058,-0.0509 -0.01269,-0.11471 -0.02073,-0.17126 -0.03314,-0.2404 l 0.22529,-0.16047 0.01773,0.014 0.01686,0.0168 0.142151,0.23896 0.06192,0.1061 0.01657,0.0887 0.158139,0.86948 0.186046,0.60493 0.04535,0.15058 c 0,0 -0.01101,0.12433 -0.01628,0.1878 -0.01822,0.21355 -0.0545,0.62302 -0.09913,0.91308 -0.02176,0.14141 -0.06401,0.27071 -0.11279,0.38459 -0.01608,0.0372 -0.03271,0.0731 -0.04971,0.10697 -2.79e-4,4.9e-4 -5.8e-4,0.001 -8.74e-4,0.002 -0.06906,0.13726 -0.141571,0.24584 -0.184884,0.31803 -0.08703,0.14504 -0.464086,0.31994 -0.66715,0.40697 -0.02556,0.011 -0.04193,0.0224 -0.05087,0.034 -0.0014,0.002 -0.0016,0.004 -0.0026,0.005 -0.04698,0.079 0.227617,0.16365 0.227617,0.16365 0,0 0.0045,2.9e-4 0.0047,3e-4 0.0082,4.8e-4 0.345076,0.0292 0.488372,0.0579 0.145046,0.029 0.493313,-0.0872 0.493313,-0.0872 0,0 8.74e-4,-0.002 8.74e-4,-0.002 1.9e-5,0 0.002,-4.8e-4 0.002,-4.8e-4 0,0 0.116461,-0.28322 0.203488,-0.60233 0.06497,-0.23821 0.322705,-0.52841 0.449418,-0.66046 0.0013,-0.001 8.16e-4,-0.001 0.002,-0.002 0,0 2.92e-4,-2.9e-4 2.92e-4,-2.9e-4 0.03974,-0.0404 0.06715,-0.066 0.06715,-0.066 0,0 -2.89e-4,-10e-4 -2.9e-4,-10e-4 5.9e-5,-6e-5 0.0023,-0.002 0.0023,-0.002 0,0 -0.05594,-0.26164 -0.113953,-0.40669 -0.04698,-0.11746 0.05384,-0.44026 0.125581,-0.77442 0.01259,-0.0582 0.02375,-0.11612 0.03343,-0.17383 0.0034,-0.0202 0.0088,-0.0407 0.01163,-0.0608 0.05801,-0.40612 0.146513,-1.04951 0.146513,-1.51366 0,-0.13516 -0.0013,-0.2861 0,-0.4311 0,0 0.02295,0.004 0.0407,0.008 0.0941,0.0192 0.364476,0.0679 0.508141,0.02 0.174054,-0.058 1.711626,-0.46424 1.711626,-0.46424 l 1.45029,-0.52209 c 0,0 0.174078,0.58013 0.290116,0.8122 0.05218,0.10437 0.183335,0.30378 0.322091,0.49826 0.168302,0.23854 0.349235,0.4707 0.429069,0.5186 0.126913,0.0762 0.387464,0.43774 0.722676,0.76018 0,0 2.91e-4,2.9e-4 2.91e-4,2.9e-4 9.9e-4,0.001 0.0015,0.001 0.0024,0.002 0.04708,0.0452 0.09581,0.0896 0.145638,0.13226 9.91e-4,0.001 0.0015,0.002 0.0024,0.002 0.02412,0.0209 0.04568,0.041 0.06425,0.0605 2.18e-4,2.2e-4 3.63e-4,4.8e-4 4.84e-4,0.001 0.239717,0.25196 0.03398,0.39061 -0.07413,0.50842 -0.0044,0.005 -0.0097,0.01 -0.01368,0.0143 -0.01624,0.019 -0.02924,0.0376 -0.03663,0.0561 -0.04688,0.11724 -0.07244,0.39324 -0.09622,0.69012 -0.0058,0.0712 -0.01272,0.13444 -0.01832,0.20726 -0.0034,0.0466 -0.0095,0.084 -0.01745,0.11454 -0.05761,0.21327 -0.225086,0.0676 -0.478487,0.1436 -0.290097,0.087 -0.20349,0.38256 -0.20349,0.38256 0,0 0.203215,0.0552 0.364827,0.0887 0.01087,0.002 0.02218,0.005 0.03258,0.007 0.05302,0.0105 0.09948,0.0177 0.127908,0.0177 4.26e-4,0 0.0015,-2.9e-4 0.0019,-2.9e-4 4.59e-4,0 0.0015,2.9e-4 0.0019,2.9e-4 0.05464,0 0.193437,-0.053 0.32471,-0.10843 0.0076,-0.004 0.01484,-0.005 0.02238,-0.009 9.91e-4,-3.2e-4 4.84e-4,-2.6e-4 0.0015,-4.8e-4 0.005,-0.002 0.0044,-0.002 0.0093,-0.004 0.129011,-0.0549 0.247674,-0.10989 0.247674,-0.10989 0,0 2.9e-4,-0.002 2.9e-4,-0.002 6.8e-5,-4e-5 0.0044,-0.002 0.0044,-0.002 0,0 0.170932,-0.78049 0.170932,-1.04157 0,-0.0979 0.06527,-0.22899 0.146803,-0.35436 0.02668,-0.041 0.05526,-0.0813 0.08372,-0.11977 0.116033,-0.15592 0.231974,-0.27907 0.231974,-0.27907 l -2.9e-4,-0.001 c 3.4e-5,-3e-5 0.0019,-0.002 0.0019,-0.002 l -0.0061,-0.0134 -0.12093,-0.43052 c 0.185065,0.24985 0.383321,0.51763 0.501162,0.67965 0.135522,0.18635 0.197898,0.28736 0.271802,0.42704 0.05197,0.0994 0.102436,0.20196 0.222965,0.44302 0.290087,0.58018 0.08692,0.98633 0.08692,0.98633 l -0.187791,0.0794 -0.564829,0.23693 0.0019,10e-4 -0.0034,0.001 0.07761,0.0517 0.09477,0.0677 0.960175,0.057 c 0,0 0.147548,-0.32497 0.08953,-0.58605 -0.05801,-0.26108 -0.118542,-0.86452 -0.08953,-1.41569 0.02905,-0.55117 -0.05698,-0.84622 -0.05698,-0.84622 l -0.405526,-0.55204 -0.265987,-0.3654 -0.02383,-0.15873 0.02586,0.0346 -4.83e-4,-0.004 0.0029,0.004 -0.0247,-0.13866 -0.09883,-0.61018 -0.193896,-1.22034 c 0.0048,0.0286 0.009,0.0706 0.01368,0.10697 l -0.01774,-0.11046 c 0.01073,0.0643 0.02073,0.13961 0.03054,0.22151 l -0.05899,-0.34099 c -0.02088,-0.13228 -0.03301,-0.19096 -0.04884,-0.28488 l -0.03258,-0.2032 c -0.0048,-0.0259 -0.01024,-0.0492 -0.01513,-0.0741 -0.0044,-0.0229 -0.01073,-0.0541 -0.01513,-0.0759 -0.02639,-0.12888 -0.05452,-0.25529 -0.09157,-0.40348 0,0 -2.9e-4,-3e-4 -2.9e-4,-3e-4 -0.08718,-0.34788 -0.576545,-0.95861 -0.577328,-0.95959 l 0.461339,-0.40377 c 0,0 0.138996,-0.10196 0.320055,-0.25001 0.0092,-0.008 0.01614,-0.0129 0.02557,-0.0206 0.324429,-0.26593 0.771794,-0.67249 0.844476,-0.94505 0.06475,-0.2428 0.172855,-0.73923 0.246803,-1.20727 0.05887,-0.36909 0.09713,-0.72091 0.07151,-0.91308 -1.65e-4,-0.001 -4.84e-4,-0.002 -9.91e-4,-0.003 -0.0071,-0.0531 -0.01769,-0.10348 -0.03079,-0.15116 -1.12e-4,-4e-4 -1.79e-4,-0.001 -2.91e-4,-0.001 -0.01339,-0.0485 -0.02949,-0.0938 -0.04708,-0.13634 -0.01629,-0.0393 -0.03379,-0.0756 -0.05203,-0.1096 -0.0015,-0.003 -0.0029,-0.007 -0.0048,-0.01 0,0 -2.9e-4,-2.9e-4 -2.9e-4,-2.9e-4 -0.0051,-0.009 -0.01025,-0.0167 -0.01542,-0.0256 -0.09508,-0.16525 -0.196801,-0.25902 -0.196801,-0.25902 0,0 -4.83e-4,0.003 -4.83e-4,0.003 -4.8e-5,-4e-5 -0.0019,-0.002 -0.0019,-0.002 0,0 -0.14547,0.72247 -0.203486,1.04157 -0.03355,0.18458 -0.08569,0.39472 -0.145348,0.64651 -0.04461,0.18353 -0.09285,0.38664 -0.141863,0.63168 -0.03625,0.18131 -0.07553,0.30316 -0.136044,0.40001 -0.0054,0.009 -0.01165,0.0164 -0.01745,0.0247 -0.0069,0.01 -0.01319,0.0198 -0.02064,0.0291 -0.14123,0.17568 -0.383726,0.2787 -0.873254,0.58693 -0.390504,0.24587 -0.54274,0.27639 -0.63692,0.2343 -0.09285,-0.0442 -0.129911,-0.15853 -0.288372,-0.20175 -0.138136,-0.0376 -0.382838,-0.0639 -0.657844,-0.0892 -0.04326,-0.004 -0.07887,-0.009 -0.123839,-0.0125 -0.164301,-0.0145 -0.338732,-0.0288 -0.511627,-0.045 -4.83e-4,-6e-5 -0.0015,-2.2e-4 -0.0019,-2.9e-4 -0.172874,-0.0163 -0.344188,-0.0345 -0.503196,-0.0561 -4.84e-4,-1e-4 -0.0015,-2e-4 -0.0019,-3e-4 -0.0791,-0.0108 -0.159148,-0.0187 -0.240114,-0.0244 -0.572277,-0.0408 -1.195559,0.0367 -1.932556,0.13838 -0.841264,0.11604 -0.924491,0.057 -1.098545,0.057 -0.117505,0 -0.478237,-0.0677 -0.957266,-0.20872 l -1.038663,-0.50815 c -7.57e-4,-0.001 -0.0031,-0.004 -0.0041,-0.005 -0.01786,-0.0228 -0.10518,-0.13394 -0.237499,-0.31918 -0.02388,-0.0335 -0.04413,-0.0547 -0.0657,-0.0811 -0.01323,-0.0163 -0.02761,-0.0359 -0.04041,-0.05 -0.04469,-0.0489 -0.08886,-0.0892 -0.13808,-0.12093 l -0.219767,-0.26857 c 0.02133,-0.0237 0.03712,-0.0518 0.05058,-0.0779 0.0019,-0.003 0.0044,-0.007 0.0061,-0.01 0.0074,-0.0147 0.01201,-0.0319 0.01425,-0.0509 0.01687,-0.13094 -0.07702,-0.35746 -0.127906,-0.56104 -0.05802,-0.23207 -0.05844,-0.22938 -0.203489,-0.37442 -0.145045,-0.14505 -0.349093,-0.206 -0.610174,-0.29302 -0.124442,-0.0415 -0.204969,-0.0735 -0.260174,-0.0971 -0.0616,-0.0282 -0.08866,-0.0451 -0.08866,-0.0451 4.81e-4,0.002 6.99e-4,0.004 0.0012,0.005 -4.1e-5,-2e-5 -0.0023,-10e-4 -0.0023,-10e-4 0.05801,0.20306 -10e-4,0.37234 0.05698,0.48837 l -0.06047,0.0227 0.0047,-0.10872 c 0,0 -0.0014,-2.9e-4 -0.0015,-2.9e-4 l 2.92e-4,-0.003 c 0,0 -0.02698,-0.002 -0.07413,-0.0101 -0.02073,-0.004 -0.03487,-0.007 -0.06977,-0.0154 -0.02966,-0.007 -0.06498,-0.009 -0.101163,-0.007 -9.9e-4,3e-5 -0.0019,2.4e-4 -0.0029,2.8e-4 -0.104715,0.004 -0.215698,0.0326 -0.215698,0.0326 0,0 -0.140878,-0.26089 -0.227906,-0.46396 -0.06649,-0.15515 -0.266623,-0.20547 -0.35843,-0.22092 -0.0036,-4.9e-4 -0.0026,-3.1e-4 -0.0058,-10e-4 -0.02534,-0.004 -0.04535,-0.007 -0.04535,-0.007 z m 2.948252,2.57239 0.06628,0.0663 -0.02006,-0.01 z"
         style="fill:#000000;fill-opacity:1;stroke:none;stroke-width:0.36431053" />
      <path
         sodipodi:nodetypes="ccc"
         inkscape:connector-curvature="0"
         id="path835"
         d="M 28.898928,182.04987 H 21.321155 V 153.74451"
         style="opacity:1;vector-effect:none;fill:none;fill-opacity:1;stroke:#000000;stroke-width:0.22;stroke-linecap:butt;stroke-linejoin:miter;stroke-miterlimit:4;stroke-dasharray:none;stroke-dashoffset:0;stroke-opacity:1;marker:none;marker-start:none;marker-mid:none;marker-end:none" />
      <path
         sodipodi:nodetypes="ccc"
         inkscape:connector-curvature="0"
         id="path837"
         d="m 38.259707,181.90128 h 5.349017 v -32.77407"
         style="opacity:1;vector-effect:none;fill:none;fill-opacity:1;stroke:#000000;stroke-width:0.22;stroke-linecap:butt;stroke-linejoin:miter;stroke-miterlimit:4;stroke-dasharray:none;stroke-dashoffset:0;stroke-opacity:1;marker:none;marker-start:none;marker-mid:none;marker-end:none" />
      <rect
         y="170.16316"
         x="28.304592"
         height="13.818292"
         width="10.549449"
         id="rect825"
         style="fill:#ffffff;fill-opacity:1;stroke:#000000;stroke-width:0.15409921;stroke-miterlimit:4;stroke-dasharray:none;stroke-dashoffset:0;stroke-opacity:1" />
      <text
         id="text829"
         y="182.8143"
         x="36.328114"
         style="font-style:normal;font-variant:normal;font-weight:normal;font-stretch:normal;font-size:2.20141721px;line-height:1.25;font-family:'Liberation Sans';-inkscape-font-specification:'Liberation Sans';font-variant-ligatures:normal;font-variant-position:normal;font-variant-caps:normal;font-variant-numeric:normal;font-variant-alternates:normal;font-feature-settings:normal;text-indent:0;text-align:start;text-decoration:none;text-decoration-line:none;text-decoration-style:solid;text-decoration-color:#000000;letter-spacing:0px;word-spacing:0px;text-transform:none;writing-mode:lr-tb;direction:ltr;text-orientation:mixed;dominant-baseline:auto;baseline-shift:baseline;text-anchor:start;white-space:normal;shape-padding:0;opacity:1;vector-effect:none;fill:#000000;fill-opacity:1;stroke:none;stroke-width:0.16510628;stroke-linecap:butt;stroke-linejoin:miter;stroke-miterlimit:4;stroke-dasharray:none;stroke-dashoffset:0;stroke-opacity:1"
         xml:space="preserve"><tspan
           style="stroke-width:0.16510628"
           y="182.8143"
           x="36.328114"
           id="tspan827"
           sodipodi:role="line">V</tspan></text>
      <text
         id="text833"
         y="182.8143"
         x="28.898926"
         style="font-style:normal;font-variant:normal;font-weight:normal;font-stretch:normal;font-size:2.20141721px;line-height:1.25;font-family:'Liberation Sans';-inkscape-font-specification:'Liberation Sans';font-variant-ligatures:normal;font-variant-position:normal;font-variant-caps:normal;font-variant-numeric:normal;font-variant-alternates:normal;font-feature-settings:normal;text-indent:0;text-align:start;text-decoration:none;text-decoration-line:none;text-decoration-style:solid;text-decoration-color:#000000;letter-spacing:0px;word-spacing:0px;text-transform:none;writing-mode:lr-tb;direction:ltr;text-orientation:mixed;dominant-baseline:auto;baseline-shift:baseline;text-anchor:start;white-space:normal;shape-padding:0;opacity:1;vector-effect:none;fill:#000000;fill-opacity:1;stroke:none;stroke-width:0.16510628;stroke-linecap:butt;stroke-linejoin:miter;stroke-miterlimit:4;stroke-dasharray:none;stroke-dashoffset:0;stroke-opacity:1"
         xml:space="preserve"><tspan
           style="stroke-width:0.16510628"
           y="182.8143"
           x="28.898926"
           id="tspan831"
           sodipodi:role="line">COM</tspan></text>
      <g
         transform="matrix(-1.054784,0,0,-1.054784,79.923805,324.14759)"
         id="g1953">
        <path
           inkscape:connector-curvature="0"
           id="path9"
           d="m 46.40088,143.91739 c 0.618887,0 1.120717,-0.50223 1.120717,-1.12111 v -1.44895 c 0,-0.61888 -0.50183,-1.12071 -1.120717,-1.12071 h -4.876342 c -0.618885,0 -1.120716,0.50183 -1.120716,1.12071 v 1.44895 c 0,0.61888 0.501831,1.12111 1.120716,1.12111 z"
           style="fill:#ffffff;stroke-width:0.26458332" />
        <polygon
           points="81.428,355.641 81.429,355.641 81.928,355.946 82.719,355.946 82.72,355.946 83.511,355.946 84.01,355.641 84.011,355.641 84.01,355.641 84.011,355.641 84.01,355.641 83.511,355.336 82.72,355.336 82.719,355.336 81.928,355.336 81.429,355.641 "
           id="polygon319"
           transform="matrix(0.39545392,0,0,0.39545392,14.057473,1.6037909)" />
        <polygon
           points="77.49,358.688 78.281,358.688 78.282,358.688 79.072,358.688 79.572,358.383 79.072,358.079 78.282,358.079 78.281,358.079 77.49,358.079 76.99,358.383 "
           id="polygon321"
           transform="matrix(0.39545392,0,0,0.39545392,14.057473,1.6037909)" />
        <polygon
           points="77.49,355.946 78.281,355.946 78.282,355.946 79.072,355.946 79.572,355.641 79.072,355.336 78.282,355.336 78.281,355.336 77.49,355.336 76.99,355.641 "
           id="polygon323"
           transform="matrix(0.39545392,0,0,0.39545392,14.057473,1.6037909)" />
        <polygon
           points="77.49,353.204 78.281,353.204 78.282,353.204 79.072,353.204 79.572,352.899 79.072,352.595 78.282,352.595 78.281,352.595 77.49,352.595 76.99,352.899 "
           id="polygon325"
           transform="matrix(0.39545392,0,0,0.39545392,14.057473,1.6037909)" />
        <polygon
           points="76.443,356.25 76.443,357.041 76.443,357.042 76.443,357.833 76.748,358.332 76.748,358.333 76.748,358.332 77.053,357.833 77.053,357.042 77.053,357.041 77.053,356.25 76.748,355.75 "
           id="polygon327"
           transform="matrix(0.39545392,0,0,0.39545392,14.057473,1.6037909)" />
        <polygon
           points="76.443,353.466 76.443,354.257 76.443,354.258 76.443,355.048 76.748,355.548 77.053,355.048 77.053,354.258 77.053,354.257 77.053,353.466 76.748,352.966 "
           id="polygon329"
           transform="matrix(0.39545392,0,0,0.39545392,14.057473,1.6037909)" />
        <polygon
           points="75.376,355.742 75.375,355.742 75.375,355.743 75.071,356.242 75.071,357.033 75.071,357.034 75.071,357.824 75.375,358.324 75.376,358.324 75.68,357.824 75.68,357.034 75.68,357.033 75.68,356.242 75.376,355.743 "
           id="polygon331"
           transform="matrix(0.39545392,0,0,0.39545392,14.057473,1.6037909)" />
        <polygon
           points="75.375,352.958 75.071,353.458 75.071,354.249 75.071,354.25 75.071,355.041 75.375,355.54 75.375,355.541 75.376,355.54 75.376,355.541 75.376,355.54 75.68,355.041 75.68,354.25 75.68,354.249 75.68,353.458 75.376,352.958 "
           id="polygon333"
           transform="matrix(0.39545392,0,0,0.39545392,14.057473,1.6037909)" />
        <polygon
           points="73.052,358.688 73.842,358.688 73.843,358.688 74.634,358.688 75.134,358.383 74.634,358.079 73.843,358.079 73.842,358.079 73.052,358.079 72.552,358.383 "
           id="polygon335"
           transform="matrix(0.39545392,0,0,0.39545392,14.057473,1.6037909)" />
        <polygon
           points="73.052,353.204 73.842,353.204 73.843,353.204 74.634,353.204 75.134,352.899 74.634,352.595 73.843,352.595 73.842,352.595 73.052,352.595 72.552,352.899 "
           id="polygon337"
           transform="matrix(0.39545392,0,0,0.39545392,14.057473,1.6037909)" />
        <polygon
           points="72.005,356.25 72.005,357.041 72.005,357.042 72.005,357.833 72.31,358.332 72.31,358.333 72.31,358.332 72.615,357.833 72.615,357.042 72.615,357.041 72.615,356.25 72.31,355.75 "
           id="polygon339"
           transform="matrix(0.39545392,0,0,0.39545392,14.057473,1.6037909)" />
        <polygon
           points="72.005,353.466 72.005,354.257 72.005,354.258 72.005,355.048 72.31,355.548 72.615,355.048 72.615,354.258 72.615,354.257 72.615,353.466 72.31,352.966 "
           id="polygon341"
           transform="matrix(0.39545392,0,0,0.39545392,14.057473,1.6037909)" />
        <polygon
           points="70.938,355.742 70.938,355.743 70.633,356.242 70.633,357.033 70.633,357.034 70.633,357.824 70.938,358.324 71.242,357.824 71.242,357.034 71.242,357.033 71.242,356.242 70.938,355.743 "
           id="polygon343"
           transform="matrix(0.39545392,0,0,0.39545392,14.057473,1.6037909)" />
        <polygon
           points="70.633,353.458 70.633,354.249 70.633,354.25 70.633,355.041 70.938,355.54 70.938,355.541 70.938,355.54 70.938,355.541 70.938,355.54 71.242,355.041 71.242,354.25 71.242,354.249 71.242,353.458 70.938,352.958 "
           id="polygon345"
           transform="matrix(0.39545392,0,0,0.39545392,14.057473,1.6037909)" />
        <polygon
           points="68.113,358.383 68.114,358.383 68.113,358.383 68.114,358.383 68.613,358.688 69.404,358.688 69.405,358.688 70.196,358.688 70.695,358.383 70.696,358.383 70.695,358.383 70.196,358.079 69.405,358.079 69.404,358.079 68.613,358.079 68.114,358.383 "
           id="polygon347"
           transform="matrix(0.39545392,0,0,0.39545392,14.057473,1.6037909)" />
        <polygon
           points="68.113,352.899 68.114,352.899 68.113,352.899 68.114,352.899 68.613,353.204 69.404,353.204 69.405,353.204 70.196,353.204 70.695,352.899 70.696,352.899 70.695,352.899 70.196,352.595 69.405,352.595 69.404,352.595 68.613,352.595 68.114,352.899 "
           id="polygon349"
           transform="matrix(0.39545392,0,0,0.39545392,14.057473,1.6037909)" />
        <polygon
           points="67.567,356.25 67.567,357.041 67.567,357.042 67.567,357.833 67.872,358.332 67.872,358.333 67.872,358.332 68.176,357.833 68.176,357.042 68.176,357.041 68.176,356.25 67.872,355.75 "
           id="polygon351"
           transform="matrix(0.39545392,0,0,0.39545392,14.057473,1.6037909)" />
        <polygon
           points="67.567,353.466 67.567,354.257 67.567,354.258 67.567,355.048 67.872,355.548 68.176,355.048 68.176,354.258 68.176,354.257 68.176,353.466 67.872,352.966 "
           id="polygon353"
           transform="matrix(0.39545392,0,0,0.39545392,14.057473,1.6037909)" />
        <circle
           cx="44.182362"
           cy="141.02226"
           r="0.16767246"
           id="circle355"
           style="stroke-width:0.39545393" />
      </g>
      <path
         inkscape:connector-curvature="0"
         id="path3204-6"
         d="m 27.818798,128.95138 6.5e-5,2e-4 c -0.02972,0.0129 -0.05393,0.0339 -0.0727,0.0599 -0.06198,0.061 -0.08148,0.16695 -0.02867,0.25611 0.03793,0.0668 0.02921,0.16915 -0.0323,0.3148 -0.03466,0.0872 -0.05699,0.13816 -0.08072,0.16929 -0.02997,0.0236 -0.06696,0.0251 -0.132952,0.0246 -0.0882,-0.003 -0.120822,-9.6e-4 -0.125731,0.0269 -0.02867,0.01 -0.02444,0.0352 -0.0079,0.0925 0.01333,0.0534 0.0072,0.0929 -0.0098,0.11957 -0.04348,0.0305 -0.117958,0.0132 -0.187294,-0.0666 -0.05806,-0.0646 -0.114218,-0.14828 -0.118719,-0.18839 -0.01115,-0.0394 -0.103625,-0.12093 -0.208413,-0.18024 -0.156928,-0.0923 -0.263795,-0.10007 -0.312004,-0.0266 -0.02496,0.0223 -0.04151,0.0566 -0.04657,0.10634 -0.0089,0.0721 0.06055,0.14549 0.320733,0.35316 0.307868,0.24574 0.327499,0.26334 0.260123,0.33223 -0.04453,0.0452 -0.100998,0.0695 -0.124472,0.0624 -0.03556,-0.013 -0.06305,3e-5 -0.07803,0.0288 -0.03124,0.0224 -0.04426,0.0774 -0.02548,0.1449 0.01222,0.0462 -0.019,0.12466 -0.07108,0.20609 -0.06445,0.008 -0.117884,0.0398 -0.152631,0.0856 -0.03648,0.0366 -0.05805,0.0861 -0.05986,0.14156 -0.02403,0.0185 -0.04779,0.0346 -0.07043,0.0445 -0.05542,0.0245 -0.08495,0.0432 -0.100955,0.0692 -0.02919,0.0258 -0.03806,0.056 -0.03575,0.11426 0.0072,0.12085 -0.417636,0.64888 -1.740648,2.18337 -0.06889,0.0798 -0.110482,0.12913 -0.184393,0.21467 -0.0078,0.009 -0.01158,0.0133 -0.01925,0.0225 -0.005,0.005 -0.01122,0.0131 -0.01634,0.0191 -0.2614,0.30374 -0.542486,0.6334 -0.831072,0.97087 l -0.154028,0.16451 -0.617756,-0.19476 0.03914,-0.16208 c -1.284806,-0.49666 -1.973545,-0.17846 -2.489588,0.34881 -8.98e-4,7.9e-4 -0.0019,0.002 -0.0031,0.003 -0.006,0.006 -0.01258,0.0115 -0.0185,0.0181 -0.395126,0.40371 -0.776089,1.10647 -0.776089,1.10647 l 0.0046,-0.006 c -0.07223,0.12014 -0.192741,0.32251 -0.269379,0.47107 -0.049,0.095 -0.109739,0.17193 -0.160907,0.22873 -0.04635,0.0486 -0.08187,0.0779 -0.08187,0.0779 l -0.140281,0.10292 c 0,0 0.0034,0.005 0.0038,0.006 l -0.02391,0.0184 c 0,0 0.03894,0.0586 0.08418,0.10887 0.0453,0.0504 0.196593,0.19975 0.274993,0.33355 0.07839,0.13381 -0.0035,0.39683 -0.10927,0.65429 -0.0264,0.0643 -0.06797,0.1286 -0.121266,0.1946 -1.35e-4,1.8e-4 -1.43e-4,3.9e-4 -2.67e-4,5.5e-4 -0.02167,0.0258 -0.04352,0.0514 -0.0684,0.0777 -3.22e-4,3.7e-4 -9.23e-4,7.1e-4 -8.99e-4,8e-4 -0.160913,0.17044 -0.383505,0.35503 -0.611047,0.57329 l -3.29e-4,0.004 c -0.0063,0.006 -0.01231,0.0114 -0.01878,0.0172 l -0.0035,0.0272 c -0.166344,0.11737 -0.4298,0.26729 -0.612908,0.34121 l -0.08979,0.0294 c -0.275742,0.0735 -0.626066,0.0123 -0.742274,-0.13991 -0.04312,-0.0527 -0.112942,-0.11107 -0.155289,-0.12663 -0.04407,-0.0151 -0.0639,-0.0101 -0.07233,0.0164 -0.0212,0.005 -0.02557,0.0298 -0.02412,0.0821 0.0014,0.0556 -0.03634,0.12745 -0.102913,0.20789 -0.121503,0.13948 -0.326289,0.30252 -0.580979,0.45463 -0.37925,0.22278 -0.698057,0.46884 -0.95465,0.73458 -0.430723,0.43826 -0.690221,0.9307 -0.764977,1.46142 -0.02283,0.15824 -0.08036,0.39739 -0.122555,0.5341 -0.103636,0.31282 -0.05345,0.6994 0.125133,0.99408 0.460603,0.75709 0.606524,0.94742 1.135911,1.44299 0.530137,0.50226 0.514074,0.42452 0.695868,0.56302 0.523812,0.32683 0.6908,0.39908 0.937466,0.4941 0.61782,0.22027 0.555639,0.17244 0.930822,0.25892 0.32318,0.0754 0.853167,0.061 0.918438,-0.0208 0.0026,-0.003 0.0019,-0.005 0.003,-0.008 0,0 1.33e-4,-2.6e-4 1.33e-4,-2.6e-4 0.0074,-0.004 0.01315,-0.01 0.01734,-0.0142 0.01775,-0.0224 -0.002,-0.0282 -0.04798,-0.0162 -0.04229,0.0149 -0.08388,0.008 -0.08319,-0.0153 -2.53e-4,-9.7e-4 0.0013,-0.002 0.0016,-0.003 0.02167,-0.0145 0.05869,-0.0277 0.102502,-0.0347 0.140348,-0.0158 0.25378,-0.0587 0.667338,-0.23363 0.213078,-0.0916 0.282681,-0.10338 0.252413,-0.0421 -0.07264,0.13674 0.391265,-0.19957 0.645737,-0.46502 0.0044,-0.005 0.0083,-0.0101 0.0125,-0.0146 0.0019,-0.002 0.0042,-0.004 0.0061,-0.006 0.308621,-0.32568 0.565654,-0.84041 0.732113,-1.43777 0.08574,-0.30427 0.154542,-0.48075 0.244625,-0.59305 0.05578,-0.0616 0.119827,-0.10241 0.201124,-0.13332 0.08754,-0.0309 0.124192,-0.0513 0.133434,-0.0784 0.02373,-0.0212 0.02422,-0.0441 0.01069,-0.0816 -0.01505,-0.0423 -0.09564,-0.1287 -0.177403,-0.19397 -0.285463,-0.22176 -0.364082,-0.51009 -0.260599,-0.94471 0.09776,-0.38288 0.422754,-0.92799 0.755807,-1.30275 0.108475,-0.11941 0.217406,-0.22055 0.319218,-0.29093 0.250865,-0.17703 0.478119,-0.17348 0.723447,0.0224 0.107792,0.086 0.167946,0.11014 0.197613,0.073 0.0031,-0.003 0.003,-0.008 0.0041,-0.0119 0.0057,-0.003 0.01082,-0.007 0.01506,-0.0123 0.02026,-0.0255 0.0045,-0.0587 -0.04068,-0.0928 l 0.0095,-0.0216 c 0.0013,6e-4 0.0091,0.004 0.0091,0.004 l 0.06899,-0.15768 c 0,0 0.05056,-0.10334 0.148248,-0.21656 0.02856,-0.0313 0.05962,-0.0631 0.09532,-0.0931 0.173737,-0.14623 0.495418,-0.46027 0.495418,-0.46027 l 0.01491,-0.0181 c 1.33e-4,-1.2e-4 0.0052,-0.004 0.0052,-0.004 l 0.797257,-0.95821 0.05006,-0.15789 c 0.01242,-0.009 0.02452,-0.0216 0.03647,-0.0398 0.07874,-0.0836 0.149121,-0.36723 0.169096,-0.63574 l 0.06713,-0.21746 -0.08042,-0.16899 c -0.06399,-0.40888 -0.243719,-0.82057 -0.531557,-1.21807 0.09003,-0.1262 0.09218,-0.16148 0.04765,-0.15776 -0.026,0.005 -0.113678,-0.0187 -0.214291,-0.0575 -0.08083,-0.10226 -0.147717,-0.21573 -0.152566,-0.25897 -0.0127,-0.0832 1.366314,-1.99013 2.398006,-3.32079 0.192106,-0.2483 0.365143,-0.49742 0.388839,-0.5576 0.0096,-0.0209 0.02133,-0.0495 0.03288,-0.077 0.01892,0.008 0.03797,0.0173 0.05685,0.0277 0.128056,0.0731 0.177115,0.0834 0.207703,0.0311 0.0094,-0.006 0.01707,-0.0168 0.02394,-0.0304 0.02816,-0.0505 -0.0012,-0.10884 -0.09192,-0.19341 -0.01445,-0.0139 -0.02716,-0.0296 -0.0394,-0.0441 0.01102,-0.042 0.03011,-0.0878 0.05505,-0.12445 0.0028,-0.004 0.006,-0.007 0.0087,-0.0113 0.0412,-0.038 0.08263,-0.0143 0.223389,0.098 0.144962,0.11574 0.194044,0.19175 0.223169,0.33061 0.04033,0.20866 0.191086,0.31027 0.39975,0.26994 0.05904,-0.01 0.114331,-0.0481 0.159521,-0.0998 0.07192,-0.0709 0.121681,-0.17883 0.12299,-0.28265 -0.0046,-0.13146 -0.272621,-0.32265 -0.395861,-0.27498 -0.08177,0.0258 -0.148594,0.004 -0.282402,-0.10265 -0.170985,-0.13648 -0.172695,-0.14714 -0.08967,-0.25121 0.0076,-0.01 0.0151,-0.016 0.02259,-0.0239 0.04229,-0.0348 0.08327,-0.0406 0.130848,-0.0208 0.0664,0.0289 0.112868,0.0166 0.128086,-0.017 0.03412,-0.0207 0.03761,-0.0703 -0.0074,-0.13146 -0.02782,-0.0387 -0.03542,-0.067 -0.03074,-0.0862 0.03426,-0.0134 0.103873,0.005 0.187861,0.0622 0.09515,0.0638 0.154058,0.13434 0.16156,0.20117 0.01347,0.12033 0.129647,0.22566 0.308701,0.28341 0.08563,0.0274 0.130756,0.0176 0.191999,-0.0469 0.01736,-0.0152 0.03556,-0.0358 0.05632,-0.0617 0.07418,-0.0929 0.09177,-0.15983 0.06717,-0.22813 -0.06329,-0.14179 -0.291469,-0.30357 -0.396912,-0.27819 -0.06319,0.0103 -0.134493,-0.025 -0.2141,-0.10018 -0.113146,-0.10737 -0.119959,-0.12288 -0.01777,-0.23464 0.09645,-0.10558 0.174697,-0.14118 0.316589,-0.14346 0.116506,-0.004 0.20407,-0.043 0.249752,-0.10088 0.0542,-0.0505 0.07131,-0.12027 0.03608,-0.19637 -0.02049,-0.0585 -0.04734,-0.16046 -0.05554,-0.234 -0.0075,-0.0668 -0.0293,-0.13934 -0.05162,-0.15714 -0.0186,-0.0148 -0.01138,-0.0753 0.01235,-0.1355 0.03853,-0.0787 0.02147,-0.13509 -0.06622,-0.22339 -0.03234,-0.0319 -0.06348,-0.0598 -0.09037,-0.0805 -0.02688,-0.0208 -0.05144,-0.0328 -0.0596,-0.0301 -0.01088,-6.4e-4 -0.03335,0.0194 -0.05819,0.046 -0.01953,0.0169 -0.04239,0.0411 -0.06449,0.0687 -0.04149,0.0374 -0.09202,0.0483 -0.140523,0.0251 -0.06366,-0.0275 -0.122109,-0.008 -0.142633,0.0308 -0.02829,0.022 -0.03734,0.0597 -0.01051,0.0997 0.0083,0.0124 0.0077,0.0273 0.0017,0.0404 -0.0045,0.003 -0.0084,0.006 -0.0137,0.008 -0.08089,0.0329 -0.219793,-0.0758 -0.172319,-0.13525 0.0237,-0.0298 -0.0016,-0.0446 -0.07137,-0.0334 -0.01655,0.002 -0.03157,0.006 -0.04581,0.0119 z m -8.041183,16.68291 c 0.02887,-0.0137 0.05948,-0.0143 0.07068,-0.005 0.0066,0.005 0.0016,0.0214 -0.0096,0.0396 -0.01664,0.007 -0.03995,0.005 -0.05674,-0.008 -0.0084,-0.007 -0.01037,-0.0152 -0.0083,-0.0235 0.0016,-7.3e-4 0.0023,-0.002 0.004,-0.003 z"
         style="display:inline;overflow:visible;visibility:visible;opacity:1;fill:#000000;fill-opacity:1;fill-rule:evenodd;stroke:none;stroke-width:0.03373297;stroke-linecap:butt;stroke-linejoin:miter;stroke-miterlimit:4;stroke-dasharray:none;stroke-dashoffset:0;stroke-opacity:1;marker:none;marker-start:none;marker-mid:none;marker-end:none;enable-background:accumulate" />
      <path
         d="m 28.675154,128.92068 a 14.243578,14.243578 0 0 1 14.898942,8.07186 14.243578,14.243578 0 0 1 -3.36342,16.60785 14.243578,14.243578 0 0 1 -16.865566,1.63892 14.243578,14.243578 0 0 1 -6.498044,-15.64957"
         sodipodi:open="true"
         sodipodi:end="3.385087"
         sodipodi:start="4.5718408"
         sodipodi:ry="14.243578"
         sodipodi:rx="14.243578"
         sodipodi:cy="143.0238"
         sodipodi:cx="30.670479"
         sodipodi:type="arc"
         id="path1451"
         style="fill:none;fill-opacity:1;stroke:#000000;stroke-width:0.24694444;stroke-miterlimit:4;stroke-dasharray:none;stroke-dashoffset:0;stroke-opacity:1" />
      <path
         sodipodi:nodetypes="csscccc"
         inkscape:connector-curvature="0"
         id="path1453"
         d="m 32.45862,156.9465 c 0.756962,0.0757 2.210334,0.0454 2.301171,0.0454 0.09083,0 2.467703,-0.74182 2.709931,-0.74182 0.242229,0 1.423091,-1.07489 1.423091,-1.07489 l 0.257368,-1.13545 c 0,0 -5.828623,1.2717 -5.858901,1.3474 -0.03028,0.0757 -0.83266,1.55934 -0.83266,1.55934 z"
         style="opacity:1;vector-effect:none;fill:#ffffff;fill-opacity:1;stroke:none;stroke-width:0.35277778;stroke-linecap:butt;stroke-linejoin:miter;stroke-miterlimit:4;stroke-dasharray:none;stroke-dashoffset:0;stroke-opacity:1" />
    </g>
    <g
       id="g1732"
       transform="translate(-10.583097,15.874646)">
      <path
         inkscape:connector-curvature="0"
         id="path956-3"
         d="m 102.93294,126.59918 c -0.87099,0.39591 -1.4517,0.76531 -1.61006,1.16122 -0.15836,0.39591 -0.7654,1.31973 -0.87097,1.53088 -0.10558,0.21115 -0.29033,0.65981 -0.0792,1.42523 0.21115,0.76542 0.63351,1.84759 0.89745,2.79775 0.26393,0.95017 0.42213,2.16431 0.34295,2.87693 -0.0792,0.71263 -0.42213,1.58359 -0.42213,1.58359 0,0 0.15835,0.18468 0.55426,0.29025 0.3959,0.10557 0.92367,0.15836 1.16122,0 0.23753,-0.15836 0.6599,-0.34319 0.6599,-0.34319 0,0 -0.42244,-0.52785 -0.44884,-1.18769 -0.0264,-0.65984 0.0265,-1.45147 0.0265,-1.45147 0,0 0.23745,0.1582 0.36942,0.65967 0.13197,0.50148 0.18482,1.53096 0.58073,1.95326 0.3959,0.42229 1.37259,1.00301 2.26997,1.0558 0.89738,0.0528 2.11137,0.079 2.42809,0.0262 0.31672,-0.0528 1.76841,-0.42213 1.76841,-0.42213 0,0 -0.0264,-0.63367 -0.15835,-0.71286 -0.13197,-0.0792 -1.87399,-1.05564 -2.08514,-1.24039 -0.21115,-0.18476 -1.47794,-0.97646 -1.47794,-1.31958 0,-0.34311 -0.50154,-2.45471 -0.65991,-3.06176 -0.15835,-0.60705 -2.11152,-4.30208 -2.40185,-4.82995 -0.29033,-0.52787 -0.8445,-0.79179 -0.8445,-0.79179 z m -0.053,0.58049 c 0,0 0.31686,0.18482 0.52802,0.58073 0.21115,0.39591 0.84458,1.82128 1.10851,2.19079 0.26394,0.36951 1.34612,3.03521 1.4517,3.32554 0.10558,0.29032 0.36943,1.9003 0.36943,1.9003 0,0 -0.26393,8e-5 -0.55426,-0.0527 -0.29033,-0.0528 -0.55441,-1.42546 -0.6072,-1.74218 -0.0528,-0.31672 -2.40178,-5.72738 -2.2962,-6.20247 z"
         style="opacity:1;vector-effect:none;fill:#000000;fill-opacity:1;stroke:#000000;stroke-width:0.12101453;stroke-linecap:butt;stroke-linejoin:miter;stroke-miterlimit:4;stroke-dasharray:none;stroke-dashoffset:0;stroke-opacity:1;marker:none;marker-start:none;marker-mid:none;marker-end:none" />
      <path
         inkscape:connector-curvature="0"
         id="path3050-6-6"
         d="m 88.882768,146.90345 c 0,0 0.01872,0.15908 0.02936,0.31483 0.0065,0.10856 0.0096,0.2162 -0.0023,0.26395 -0.01072,0.0429 -0.03562,0.13334 -0.06628,0.23053 -0.05384,0.16436 -0.130681,0.35445 -0.222093,0.4093 -0.123953,0.0744 -0.289887,0.50739 -0.426163,0.77703 -0.0031,0.006 -0.0065,0.0135 -0.0096,0.0195 -1.3e-4,2.6e-4 -1.61e-4,5.3e-4 -2.91e-4,0.001 -0.01964,0.0378 -0.0387,0.0718 -0.05669,0.10058 -0.0089,0.0143 -0.01588,0.029 -0.02151,0.0439 -7.5e-5,2e-4 -2.16e-4,2.7e-4 -2.91e-4,5.3e-4 -0.0054,0.0141 -0.009,0.0286 -0.01163,0.043 -1.79e-4,0.001 -6.88e-4,0.002 -8.73e-4,0.003 -0.0022,0.0129 -0.0029,0.0256 -0.0032,0.0387 -7.7e-5,0.003 -5.82e-4,0.006 -5.82e-4,0.009 0,0 0,2.7e-4 0,2.7e-4 6.1e-5,0.0155 0.0015,0.0311 0.0038,0.0465 0.0012,0.008 0.0042,0.0149 0.0058,0.0224 0.03761,0.17985 0.199418,0.34651 0.199418,0.34651 l -0.52064,0.52064 c 0,0 -0.0094,0.0481 -0.01396,0.11163 -0.0069,0.0831 -0.0051,0.19609 0.04419,0.29477 0.08703,0.17405 0.261071,0.40635 0.551162,0.52239 0.0194,0.008 0.04018,0.0134 0.06163,0.018 0.09135,0.0255 0.18264,0.0302 0.272674,0.0209 l 0.0282,0.0169 1.195057,-0.11221 c -0.0013,0.0351 0.0072,0.0816 0.03809,0.14331 0.08703,0.17406 0.145058,0.87035 0.145057,0.87035 l 0.04244,-0.3125 0.01104,0.21686 -0.02442,0.0375 0.03604,0.18663 0.005,0.093 0.08052,0.40291 -0.03459,0.0427 c 0,0 0.0047,-5.3e-4 0.005,-5.3e-4 l -0.002,0.002 c 0,0 0.0128,-0.002 0.02181,-0.004 0.0044,-2.7e-4 0.01168,-0.001 0.01918,-0.002 l 0.17878,0.87675 -0.105815,-0.0895 c 2.07e-4,2.6e-4 3.71e-4,0.001 5.82e-4,0.001 l -0.0015,-0.001 c 0.232072,0.43514 0.261178,0.8993 0.464244,1.5375 0.203063,0.6382 0.464136,1.33446 0.551161,1.82761 0.08703,0.49316 0.02885,1.07352 0.05785,1.3346 0.02901,0.26107 -0.348041,0.11578 -0.522094,0.43488 -0.14479,0.26545 -0.168,0.36614 -0.172093,0.3939 -1.31e-4,0.001 -0.0038,0.0128 -0.0038,0.0128 0,0 0.0016,-0.001 0.0017,-0.001 v 0.001 c 0,0 0.0044,-0.004 0.01308,-0.008 0,0 2.91e-4,0 2.91e-4,0 0.02939,-0.0121 0.118062,-0.0268 0.30465,2.6e-4 0.02147,0.003 0.03487,0.003 0.0593,0.008 0.07977,0.0145 0.159513,0.0452 0.234302,0.0788 0.01916,0.009 0.0339,0.0157 0.05233,0.0244 0.197476,0.0946 0.351454,0.18645 0.351454,-0.0134 0,-10e-4 -3e-6,-0.002 0,-0.003 0,-0.0139 0.001,-0.0249 0.0015,-0.0378 6.35e-4,-0.0204 10e-4,-0.0417 0.0026,-0.0599 3e-5,-2.6e-4 -2.9e-5,-0.001 0,-0.001 0.01181,-0.13043 0.04959,-0.21348 0.09942,-0.31744 0.0067,-0.0139 0.01174,-0.0258 0.01889,-0.0407 1.14e-4,-2.4e-4 1.79e-4,-5.3e-4 2.91e-4,-0.001 0.02439,-0.0506 0.05165,-0.10833 0.08052,-0.18052 0.116036,-0.29009 0.115988,-0.26085 0.115988,-0.725 0,-0.46415 0.05785,-0.75446 0.05785,-1.2186 0,-0.46415 -0.05785,-0.40585 -0.05785,-0.84099 0,-0.039 -0.0037,-0.0735 -0.005,-0.11134 -0.0015,-0.05 -0.0031,-0.0981 -0.0061,-0.14302 -0.0027,-0.0371 -0.0051,-0.0711 -0.0084,-0.10582 -0.0019,-0.0188 -0.0038,-0.033 -0.0058,-0.0509 -0.01269,-0.11471 -0.02073,-0.17126 -0.03314,-0.2404 l 0.22529,-0.16047 0.01773,0.014 0.01686,0.0168 0.142151,0.23896 0.06192,0.1061 0.01657,0.0887 0.158139,0.86948 0.186046,0.60493 0.04535,0.15058 c 0,0 -0.01101,0.12433 -0.01628,0.1878 -0.01822,0.21355 -0.0545,0.62302 -0.09913,0.91308 -0.02176,0.14141 -0.06401,0.27071 -0.11279,0.38459 -0.01608,0.0372 -0.03271,0.0731 -0.04971,0.10697 -2.91e-4,5.3e-4 -5.83e-4,0.001 -8.74e-4,0.002 -0.06906,0.13726 -0.141571,0.24584 -0.184884,0.31803 -0.08703,0.14504 -0.464086,0.31994 -0.66715,0.40697 -0.02556,0.011 -0.04193,0.0224 -0.05087,0.034 -0.0014,0.002 -0.0016,0.004 -0.0026,0.005 -0.04698,0.079 0.227617,0.16365 0.227617,0.16365 0,0 0.0045,2.7e-4 0.0047,2.7e-4 0.0082,5.3e-4 0.345076,0.0292 0.488372,0.0579 0.145047,0.029 0.493313,-0.0872 0.493313,-0.0872 0,0 8.73e-4,-0.002 8.73e-4,-0.002 2e-5,0 0.002,-5.3e-4 0.002,-5.3e-4 0,0 0.116461,-0.28322 0.203488,-0.60233 0.06497,-0.23821 0.322705,-0.52841 0.449418,-0.66046 0.0013,-0.001 8.2e-4,-0.001 0.002,-0.002 0,0 2.91e-4,-2.7e-4 2.91e-4,-2.7e-4 0.03974,-0.0404 0.06715,-0.066 0.06715,-0.066 0,0 -2.91e-4,-0.001 -2.91e-4,-0.001 5.9e-5,-5e-5 0.0023,-0.002 0.0023,-0.002 0,0 -0.05594,-0.26164 -0.113953,-0.40669 -0.04698,-0.11746 0.05384,-0.44026 0.125581,-0.77442 0.01259,-0.0582 0.02375,-0.11612 0.03343,-0.17383 0.0034,-0.0202 0.0088,-0.0407 0.01163,-0.0608 0.05801,-0.40612 0.146513,-1.04951 0.146513,-1.51366 0,-0.13516 -0.0013,-0.2861 0,-0.4311 0,0 0.02295,0.004 0.0407,0.008 0.0941,0.0192 0.364476,0.0679 0.508141,0.02 0.174054,-0.058 1.711626,-0.46424 1.711626,-0.46424 l 1.450286,-0.52164 c 0,0 0.174078,0.58013 0.290116,0.8122 0.05218,0.10437 0.183335,0.30378 0.322091,0.49826 0.168302,0.23854 0.349235,0.4707 0.429069,0.5186 0.126913,0.0762 0.387464,0.43774 0.722676,0.76018 0,0 2.91e-4,2.6e-4 2.91e-4,2.6e-4 9.79e-4,0.001 0.0015,0.001 0.0024,0.002 0.04708,0.0452 0.09581,0.0896 0.145638,0.13226 9.79e-4,10e-4 0.0015,0.002 0.0024,0.002 0.02412,0.0209 0.04568,0.041 0.06425,0.0605 2.18e-4,2.2e-4 3.71e-4,5.3e-4 4.77e-4,10e-4 0.239718,0.25196 0.03398,0.39061 -0.07413,0.50842 -0.0044,0.005 -0.0097,0.01 -0.01368,0.0143 -0.01624,0.019 -0.02924,0.0376 -0.03663,0.0561 -0.04688,0.11725 -0.07244,0.39325 -0.09622,0.69012 -0.0058,0.0712 -0.01272,0.13444 -0.01832,0.20727 -0.0034,0.0466 -0.0095,0.084 -0.01745,0.11453 -0.05761,0.21327 -0.225086,0.0676 -0.478487,0.1436 -0.290098,0.087 -0.20349,0.38256 -0.20349,0.38256 0,0 0.203214,0.0552 0.364826,0.0887 0.01087,0.002 0.02218,0.005 0.03258,0.007 0.05302,0.0105 0.09948,0.0177 0.127908,0.0177 4.24e-4,0 0.0015,-2.6e-4 0.0019,-2.6e-4 4.5e-4,0 0.0015,2.6e-4 0.0019,2.6e-4 0.05464,0 0.193438,-0.053 0.324711,-0.10843 0.0076,-0.004 0.01484,-0.005 0.02238,-0.009 9.79e-4,-2.6e-4 4.76e-4,-2.6e-4 0.0015,-5.3e-4 0.005,-0.002 0.0044,-0.002 0.0093,-0.004 0.129011,-0.0549 0.24767,-0.10989 0.24767,-0.10989 0,0 3e-4,-0.002 3e-4,-0.002 6e-5,-4e-5 0.004,-0.002 0.004,-0.002 0,0 0.17093,-0.78049 0.17093,-1.04157 0,-0.0979 0.0653,-0.22899 0.146797,-0.35436 0.0267,-0.041 0.0553,-0.0813 0.0837,-0.11977 0.11603,-0.15592 0.23197,-0.27907 0.23197,-0.27907 l -2.9e-4,-0.001 c 4e-5,-3e-5 0.002,-0.002 0.002,-0.002 l -0.006,-0.0134 -0.12093,-0.43052 c 0.18507,0.24985 0.38333,0.51763 0.50117,0.67965 0.13552,0.18635 0.1979,0.28736 0.2718,0.42704 0.052,0.0994 0.10244,0.20196 0.22297,0.44302 0.29008,0.58018 0.0869,0.98633 0.0869,0.98633 l -0.1878,0.0794 -0.56483,0.23693 0.002,0.001 -0.003,0.001 0.0776,0.0517 0.0948,0.0677 0.96017,0.057 c 0,0 0.14755,-0.32497 0.0895,-0.58605 -0.058,-0.26108 -0.11854,-0.86452 -0.0895,-1.41569 0.029,-0.55117 -0.057,-0.84622 -0.057,-0.84622 l -0.40553,-0.55204 -0.26598,-0.3654 -0.0238,-0.15873 0.0259,0.0346 -4.8e-4,-0.004 0.003,0.004 -0.0247,-0.13866 -0.0988,-0.61018 -0.1939,-1.22034 c 0.005,0.0286 0.009,0.0706 0.0137,0.10697 l -0.0177,-0.11046 c 0.0107,0.0643 0.0207,0.13961 0.0305,0.22151 l -0.059,-0.34099 c -0.0209,-0.13228 -0.033,-0.19096 -0.0488,-0.28488 l -0.0326,-0.2032 c -0.005,-0.0259 -0.0102,-0.0492 -0.0151,-0.0741 -0.004,-0.0229 -0.0107,-0.0541 -0.0151,-0.0759 -0.0264,-0.12888 -0.0545,-0.25529 -0.0916,-0.40348 0,0 -2.9e-4,-2.6e-4 -2.9e-4,-2.6e-4 -0.0872,-0.34788 -0.576537,-0.95861 -0.577327,-0.95959 l 0.461337,-0.40377 c 0,0 0.139,-0.10196 0.32006,-0.25001 0.009,-0.008 0.0161,-0.0129 0.0256,-0.0206 0.32443,-0.26593 0.77179,-0.67249 0.84448,-0.94505 0.0648,-0.2428 0.17285,-0.73923 0.2468,-1.20727 0.0589,-0.36909 0.0971,-0.72091 0.0715,-0.91308 -1.7e-4,-0.001 -4.8e-4,-0.002 -9.8e-4,-0.003 -0.007,-0.0531 -0.0177,-0.10348 -0.0308,-0.15116 -1.1e-4,-4e-4 -1.8e-4,-0.001 -2.9e-4,-0.001 -0.0134,-0.0485 -0.0295,-0.0938 -0.0471,-0.13634 -0.0163,-0.0393 -0.0338,-0.0756 -0.052,-0.1096 -10e-4,-0.003 -0.003,-0.007 -0.005,-0.01 0,0 -2.9e-4,-2.9e-4 -2.9e-4,-2.9e-4 -0.005,-0.009 -0.0102,-0.0167 -0.0154,-0.0256 -0.0951,-0.16525 -0.1968,-0.25902 -0.1968,-0.25902 0,0 -4.8e-4,0.003 -4.8e-4,0.003 -5e-5,-4e-5 -0.002,-0.002 -0.002,-0.002 0,0 -0.14547,0.72247 -0.20348,1.04157 -0.0335,0.18458 -0.0857,0.39472 -0.14535,0.64651 -0.0446,0.18353 -0.0928,0.38664 -0.14187,0.63168 -0.0363,0.18131 -0.0755,0.30316 -0.13604,0.40001 -0.005,0.009 -0.0116,0.0164 -0.0174,0.0247 -0.007,0.01 -0.0132,0.0198 -0.0206,0.0291 -0.14123,0.17568 -0.38373,0.2787 -0.873257,0.58693 -0.3905,0.24587 -0.542736,0.27639 -0.636916,0.2343 -0.09285,-0.0442 -0.129912,-0.15853 -0.288372,-0.20175 -0.138136,-0.0376 -0.382838,-0.0639 -0.657844,-0.0892 -0.04326,-0.004 -0.07887,-0.009 -0.12384,-0.0125 -0.1643,-0.0145 -0.338732,-0.0288 -0.511626,-0.045 -4.77e-4,-6e-5 -0.0015,-2.2e-4 -0.0019,-2.7e-4 -0.172874,-0.0163 -0.344188,-0.0345 -0.503196,-0.0561 -4.77e-4,-1e-4 -0.0015,-2e-4 -0.0019,-2.6e-4 -0.0791,-0.0108 -0.159148,-0.0187 -0.240114,-0.0244 -0.572277,-0.0408 -1.195559,0.0367 -1.932556,0.13838 -0.841264,0.11604 -0.924491,0.057 -1.098545,0.057 -0.117505,0 -0.478237,-0.0677 -0.957266,-0.20873 l -1.038663,-0.50814 c -7.68e-4,-10e-4 -0.0031,-0.004 -0.0041,-0.005 -0.01786,-0.0228 -0.10518,-0.13394 -0.237499,-0.31918 -0.02388,-0.0335 -0.04413,-0.0547 -0.0657,-0.0811 -0.01323,-0.0163 -0.02761,-0.0359 -0.04041,-0.05 -0.04469,-0.0489 -0.08886,-0.0892 -0.13808,-0.12093 l -0.219767,-0.26857 c 0.02133,-0.0237 0.03712,-0.0518 0.05058,-0.0779 0.0019,-0.003 0.0044,-0.007 0.0061,-0.01 0.0074,-0.0147 0.01201,-0.0319 0.01425,-0.0509 0.01687,-0.13094 -0.07702,-0.35746 -0.127906,-0.56104 -0.05802,-0.23207 -0.05844,-0.22938 -0.203489,-0.37442 -0.145045,-0.14505 -0.349093,-0.206 -0.610174,-0.29302 -0.124442,-0.0415 -0.204969,-0.0735 -0.260174,-0.0971 -0.0616,-0.0282 -0.08866,-0.0451 -0.08866,-0.0451 4.76e-4,0.002 6.88e-4,0.004 0.0012,0.005 -4.1e-5,-2e-5 -0.0023,-0.001 -0.0023,-0.001 0.05801,0.20306 -10e-4,0.37234 0.05698,0.48837 l -0.06047,0.0227 0.0047,-0.10872 c 0,0 -0.0014,-2.9e-4 -0.0015,-2.9e-4 l 2.91e-4,-0.003 c 0,0 -0.02698,-0.002 -0.07413,-0.0101 -0.02073,-0.004 -0.03487,-0.007 -0.06977,-0.0154 -0.02966,-0.007 -0.06498,-0.009 -0.101163,-0.007 -9.79e-4,3e-5 -0.0019,2.4e-4 -0.0029,2.9e-4 -0.104715,0.004 -0.215698,0.0326 -0.215698,0.0326 0,0 -0.140878,-0.26089 -0.227906,-0.46396 -0.06649,-0.15515 -0.266623,-0.20547 -0.35843,-0.22092 -0.0036,-5.1e-4 -0.0026,-3.2e-4 -0.0058,-0.001 -0.02534,-0.004 -0.04535,-0.007 -0.04535,-0.007 z m 2.948252,2.57239 0.06628,0.0663 -0.02006,-0.01 z"
         style="fill:#000000;fill-opacity:1;stroke:none;stroke-width:0.36431056" />
      <path
         sodipodi:nodetypes="ccc"
         inkscape:connector-curvature="0"
         id="path835-7"
         d="m 76.642617,114.57177 h -8.221944 v 28.30537"
         style="opacity:1;vector-effect:none;fill:none;fill-opacity:1;stroke:#000000;stroke-width:0.22;stroke-linecap:butt;stroke-linejoin:miter;stroke-miterlimit:4;stroke-dasharray:none;stroke-dashoffset:0;stroke-opacity:1;marker:none;marker-start:none;marker-mid:none;marker-end:none" />
      <path
         sodipodi:nodetypes="ccc"
         inkscape:connector-curvature="0"
         id="path837-5"
         d="m 87.293565,114.89778 h 5.349019 v 7.21936"
         style="opacity:1;vector-effect:none;fill:none;fill-opacity:1;stroke:#000000;stroke-width:0.22;stroke-linecap:butt;stroke-linejoin:miter;stroke-miterlimit:4;stroke-dasharray:none;stroke-dashoffset:0;stroke-opacity:1;marker:none;marker-start:none;marker-mid:none;marker-end:none" />
      <rect
         y="103.15488"
         x="76.693672"
         height="13.818292"
         width="10.549449"
         id="rect825-3"
         style="fill:#ffffff;fill-opacity:1;stroke:#000000;stroke-width:0.15409921;stroke-miterlimit:4;stroke-dasharray:none;stroke-dashoffset:0;stroke-opacity:1" />
      <text
         id="text829-5"
         y="115.80602"
         x="84.717194"
         style="font-style:normal;font-variant:normal;font-weight:normal;font-stretch:normal;font-size:2.20141721px;line-height:1.25;font-family:'Liberation Sans';-inkscape-font-specification:'Liberation Sans';font-variant-ligatures:normal;font-variant-position:normal;font-variant-caps:normal;font-variant-numeric:normal;font-variant-alternates:normal;font-feature-settings:normal;text-indent:0;text-align:start;text-decoration:none;text-decoration-line:none;text-decoration-style:solid;text-decoration-color:#000000;letter-spacing:0px;word-spacing:0px;text-transform:none;writing-mode:lr-tb;direction:ltr;text-orientation:mixed;dominant-baseline:auto;baseline-shift:baseline;text-anchor:start;white-space:normal;shape-padding:0;opacity:1;vector-effect:none;fill:#000000;fill-opacity:1;stroke:none;stroke-width:0.16510628;stroke-linecap:butt;stroke-linejoin:miter;stroke-miterlimit:4;stroke-dasharray:none;stroke-dashoffset:0;stroke-opacity:1"
         xml:space="preserve"><tspan
           style="stroke-width:0.16510628"
           y="115.80602"
           x="84.717194"
           id="tspan827-6"
           sodipodi:role="line">V</tspan></text>
      <text
         id="text833-2"
         y="115.80602"
         x="77.288002"
         style="font-style:normal;font-variant:normal;font-weight:normal;font-stretch:normal;font-size:2.20141721px;line-height:1.25;font-family:'Liberation Sans';-inkscape-font-specification:'Liberation Sans';font-variant-ligatures:normal;font-variant-position:normal;font-variant-caps:normal;font-variant-numeric:normal;font-variant-alternates:normal;font-feature-settings:normal;text-indent:0;text-align:start;text-decoration:none;text-decoration-line:none;text-decoration-style:solid;text-decoration-color:#000000;letter-spacing:0px;word-spacing:0px;text-transform:none;writing-mode:lr-tb;direction:ltr;text-orientation:mixed;dominant-baseline:auto;baseline-shift:baseline;text-anchor:start;white-space:normal;shape-padding:0;opacity:1;vector-effect:none;fill:#000000;fill-opacity:1;stroke:none;stroke-width:0.16510628;stroke-linecap:butt;stroke-linejoin:miter;stroke-miterlimit:4;stroke-dasharray:none;stroke-dashoffset:0;stroke-opacity:1"
         xml:space="preserve"><tspan
           style="stroke-width:0.16510628"
           y="115.80602"
           x="77.288002"
           id="tspan831-9"
           sodipodi:role="line">COM</tspan></text>
      <path
         style="fill:#ffffff;stroke-width:0.27907825"
         d="m 79.369974,105.33753 c -0.652792,0 -1.182114,0.52974 -1.182114,1.18253 v 1.52833 c 0,0.65278 0.529322,1.1821 1.182114,1.1821 h 5.143488 c 0.65279,0 1.182113,-0.52932 1.182113,-1.1821 v -1.52833 c 0,-0.65279 -0.529323,-1.18253 -1.182113,-1.18253 z"
         id="path9-2"
         inkscape:connector-curvature="0" />
      <polygon
         transform="matrix(-0.41711847,0,0,-0.41711847,113.48528,255.44764)"
         id="polygon321-0"
         points="77.49,358.079 76.99,358.383 77.49,358.688 78.281,358.688 78.282,358.688 79.072,358.688 79.572,358.383 79.072,358.079 78.282,358.079 78.281,358.079 " />
      <polygon
         transform="matrix(-0.41711847,0,0,-0.41711847,113.48528,255.44764)"
         id="polygon323-9"
         points="77.49,355.336 76.99,355.641 77.49,355.946 78.281,355.946 78.282,355.946 79.072,355.946 79.572,355.641 79.072,355.336 78.282,355.336 78.281,355.336 " />
      <polygon
         transform="matrix(-0.41711847,0,0,-0.41711847,113.48528,255.44764)"
         id="polygon325-3"
         points="77.49,352.595 76.99,352.899 77.49,353.204 78.281,353.204 78.282,353.204 79.072,353.204 79.572,352.899 79.072,352.595 78.282,352.595 78.281,352.595 " />
      <polygon
         transform="matrix(-0.41711847,0,0,-0.41711847,113.48528,255.44764)"
         id="polygon327-6"
         points="77.053,357.042 77.053,357.041 77.053,356.25 76.748,355.75 76.443,356.25 76.443,357.041 76.443,357.042 76.443,357.833 76.748,358.332 76.748,358.333 76.748,358.332 77.053,357.833 " />
      <polygon
         transform="matrix(-0.41711847,0,0,-0.41711847,112.31056,255.44764)"
         id="polygon329-0"
         points="76.748,352.966 76.443,353.466 76.443,354.257 76.443,354.258 76.443,355.048 76.748,355.548 77.053,355.048 77.053,354.258 77.053,354.257 77.053,353.466 " />
      <polygon
         transform="matrix(-0.41711847,0,0,-0.41711847,113.48528,255.44764)"
         id="polygon331-6"
         points="75.376,358.324 75.68,357.824 75.68,357.034 75.68,357.033 75.68,356.242 75.376,355.743 75.376,355.742 75.375,355.742 75.375,355.743 75.071,356.242 75.071,357.033 75.071,357.034 75.071,357.824 75.375,358.324 " />
      <polygon
         transform="matrix(-0.41711847,0,0,-0.41711847,113.48528,255.44764)"
         id="polygon333-2"
         points="75.376,355.541 75.376,355.54 75.68,355.041 75.68,354.25 75.68,354.249 75.68,353.458 75.376,352.958 75.375,352.958 75.071,353.458 75.071,354.249 75.071,354.25 75.071,355.041 75.375,355.54 75.375,355.541 75.376,355.54 " />
      <polygon
         transform="matrix(-0.41711847,0,0,-0.41711847,113.48528,255.44764)"
         id="polygon335-6"
         points="73.052,358.079 72.552,358.383 73.052,358.688 73.842,358.688 73.843,358.688 74.634,358.688 75.134,358.383 74.634,358.079 73.843,358.079 73.842,358.079 " />
      <polygon
         transform="matrix(-0.41711847,0,0,-0.41711847,113.48528,255.44764)"
         id="polygon337-1"
         points="73.052,352.595 72.552,352.899 73.052,353.204 73.842,353.204 73.843,353.204 74.634,353.204 75.134,352.899 74.634,352.595 73.843,352.595 73.842,352.595 " />
      <polygon
         transform="matrix(-0.41711847,0,0,-0.41711847,113.48528,255.44764)"
         id="polygon339-8"
         points="72.615,357.042 72.615,357.041 72.615,356.25 72.31,355.75 72.005,356.25 72.005,357.041 72.005,357.042 72.005,357.833 72.31,358.332 72.31,358.333 72.31,358.332 72.615,357.833 " />
      <polygon
         transform="matrix(-0.41711847,0,0,-0.41711847,113.48528,255.44764)"
         id="polygon341-7"
         points="72.615,353.466 72.31,352.966 72.005,353.466 72.005,354.257 72.005,354.258 72.005,355.048 72.31,355.548 72.615,355.048 72.615,354.258 72.615,354.257 " />
      <polygon
         transform="matrix(-0.41711847,0,0,-0.41711847,113.48528,255.44764)"
         id="polygon343-9"
         points="71.242,357.034 71.242,357.033 71.242,356.242 70.938,355.743 70.938,355.742 70.938,355.743 70.633,356.242 70.633,357.033 70.633,357.034 70.633,357.824 70.938,358.324 71.242,357.824 " />
      <polygon
         transform="matrix(-0.41711847,0,0,-0.41711847,113.48528,255.44764)"
         id="polygon345-2"
         points="70.938,355.54 71.242,355.041 71.242,354.25 71.242,354.249 71.242,353.458 70.938,352.958 70.633,353.458 70.633,354.249 70.633,354.25 70.633,355.041 70.938,355.54 70.938,355.541 70.938,355.54 70.938,355.541 " />
      <polygon
         transform="matrix(-0.41711847,0,0,-0.41711847,113.48528,255.44764)"
         id="polygon347-0"
         points="70.695,358.383 70.696,358.383 70.695,358.383 70.196,358.079 69.405,358.079 69.404,358.079 68.613,358.079 68.114,358.383 68.113,358.383 68.114,358.383 68.113,358.383 68.114,358.383 68.613,358.688 69.404,358.688 69.405,358.688 70.196,358.688 " />
      <polygon
         transform="matrix(-0.41711847,0,0,-0.41711847,113.48528,255.44764)"
         id="polygon349-2"
         points="70.695,352.899 70.696,352.899 70.695,352.899 70.196,352.595 69.405,352.595 69.404,352.595 68.613,352.595 68.114,352.899 68.113,352.899 68.114,352.899 68.113,352.899 68.114,352.899 68.613,353.204 69.404,353.204 69.405,353.204 70.196,353.204 " />
      <polygon
         transform="matrix(-0.41711847,0,0,-0.41711847,113.48528,255.44764)"
         id="polygon351-3"
         points="68.176,357.042 68.176,357.041 68.176,356.25 67.872,355.75 67.567,356.25 67.567,357.041 67.567,357.042 67.567,357.833 67.872,358.332 67.872,358.333 67.872,358.332 68.176,357.833 " />
      <polygon
         transform="matrix(-0.41711847,0,0,-0.41711847,113.48528,255.44764)"
         id="polygon353-7"
         points="68.176,353.466 67.872,352.966 67.567,353.466 67.567,354.257 67.567,354.258 67.567,355.048 67.872,355.548 68.176,355.048 68.176,354.258 68.176,354.257 " />
      <circle
         transform="scale(-1)"
         style="stroke-width:0.41711849"
         id="circle355-5"
         r="0.17685822"
         cy="-108.39127"
         cx="-81.71003" />
      <path
         inkscape:connector-curvature="0"
         id="path3204-6-9"
         d="m 89.533332,122.3375 6.5e-5,2e-4 c -0.02972,0.0129 -0.05393,0.0339 -0.0727,0.0599 -0.06198,0.061 -0.08148,0.16695 -0.02867,0.25611 0.03793,0.0668 0.02921,0.16915 -0.0323,0.3148 -0.03466,0.0872 -0.05699,0.13816 -0.08072,0.16929 -0.02997,0.0236 -0.06696,0.0251 -0.132952,0.0246 -0.0882,-0.003 -0.120822,-9.6e-4 -0.125731,0.0269 -0.02867,0.01 -0.02444,0.0352 -0.0079,0.0925 0.01333,0.0534 0.0072,0.0929 -0.0098,0.11957 -0.04348,0.0305 -0.117958,0.0132 -0.187294,-0.0666 -0.05806,-0.0646 -0.114217,-0.14828 -0.118718,-0.18839 -0.01115,-0.0394 -0.103625,-0.12093 -0.208413,-0.18024 -0.156928,-0.0923 -0.263795,-0.10007 -0.312004,-0.0266 -0.02496,0.0223 -0.04151,0.0566 -0.04657,0.10634 -0.0089,0.0721 0.06055,0.14549 0.320733,0.35316 0.307868,0.24574 0.327499,0.26334 0.260123,0.33223 -0.04453,0.0452 -0.100998,0.0695 -0.124472,0.0624 -0.03556,-0.013 -0.06305,3e-5 -0.07803,0.0288 -0.03124,0.0224 -0.04426,0.0774 -0.02548,0.1449 0.01222,0.0462 -0.019,0.12466 -0.07108,0.20609 -0.06445,0.008 -0.117884,0.0398 -0.152631,0.0856 -0.03648,0.0366 -0.05805,0.0861 -0.05986,0.14156 -0.02403,0.0185 -0.04779,0.0346 -0.07043,0.0445 -0.05542,0.0245 -0.08495,0.0432 -0.100955,0.0692 -0.02919,0.0258 -0.03806,0.056 -0.03575,0.11426 0.0072,0.12085 -0.417636,0.64888 -1.740648,2.18337 -0.06889,0.0798 -0.110482,0.12913 -0.184393,0.21467 -0.0078,0.009 -0.01158,0.0133 -0.01925,0.0225 -0.005,0.005 -0.01122,0.0131 -0.01634,0.0191 -0.261401,0.30374 -0.542486,0.6334 -0.831072,0.97087 l -0.154028,0.16451 -0.617756,-0.19476 0.03914,-0.16208 c -1.284808,-0.49666 -1.973547,-0.17846 -2.48959,0.34881 -9e-4,8e-4 -0.0019,0.002 -0.0031,0.003 -0.006,0.006 -0.01258,0.0115 -0.0185,0.0181 -0.395126,0.40371 -0.776089,1.10647 -0.776089,1.10647 l 0.0046,-0.006 c -0.07223,0.12014 -0.192741,0.32251 -0.269379,0.47107 -0.049,0.095 -0.109739,0.17193 -0.160907,0.22873 -0.04635,0.0486 -0.08187,0.0779 -0.08187,0.0779 l -0.140281,0.10292 c 0,0 0.0034,0.005 0.0038,0.006 l -0.02391,0.0184 c 0,0 0.03894,0.0586 0.08418,0.10887 0.0453,0.0504 0.196593,0.19975 0.274993,0.33355 0.07839,0.13381 -0.0035,0.39683 -0.10927,0.65429 -0.0264,0.0643 -0.06797,0.1286 -0.121266,0.1946 -1.35e-4,1.8e-4 -1.43e-4,4e-4 -2.65e-4,5.6e-4 -0.02167,0.0258 -0.04352,0.0514 -0.0684,0.0777 -3.17e-4,3.7e-4 -9.26e-4,7.1e-4 -8.99e-4,7.9e-4 -0.160913,0.17044 -0.383505,0.35503 -0.611047,0.57329 l -3.18e-4,0.004 c -0.0063,0.006 -0.01231,0.0114 -0.01878,0.0172 l -0.0035,0.0272 c -0.166344,0.11737 -0.4298,0.26729 -0.612908,0.34121 l -0.08979,0.0294 c -0.275742,0.0735 -0.626066,0.0123 -0.742274,-0.13991 -0.04312,-0.0527 -0.112942,-0.11107 -0.155289,-0.12663 -0.04407,-0.0151 -0.0639,-0.0101 -0.07233,0.0164 -0.0212,0.005 -0.02557,0.0298 -0.02412,0.0821 0.0014,0.0556 -0.03634,0.12745 -0.102913,0.20789 -0.121503,0.13948 -0.326289,0.30252 -0.580979,0.45463 -0.37925,0.22278 -0.698057,0.46884 -0.95465,0.73458 -0.430723,0.43826 -0.690221,0.9307 -0.764977,1.46142 -0.02283,0.15824 -0.08036,0.39739 -0.122555,0.5341 -0.103636,0.31282 -0.05345,0.6994 0.125133,0.99408 0.460603,0.75709 0.606524,0.94742 1.135911,1.44299 0.530137,0.50226 0.514074,0.42452 0.695868,0.56302 0.523812,0.32683 0.6908,0.39908 0.937466,0.4941 0.61782,0.22027 0.555639,0.17244 0.930822,0.25892 0.32318,0.0754 0.853167,0.061 0.918438,-0.0208 0.0026,-0.003 0.0019,-0.005 0.003,-0.008 0,0 1.33e-4,-2.6e-4 1.33e-4,-2.6e-4 0.0074,-0.004 0.01315,-0.01 0.01734,-0.0142 0.01775,-0.0224 -0.002,-0.0282 -0.04798,-0.0162 -0.04229,0.0149 -0.08388,0.008 -0.08319,-0.0153 -2.53e-4,-9.8e-4 0.0013,-0.002 0.0016,-0.003 0.02167,-0.0145 0.05869,-0.0277 0.102502,-0.0347 0.140348,-0.0158 0.25378,-0.0587 0.667338,-0.23363 0.213078,-0.0916 0.282681,-0.10338 0.252413,-0.0421 -0.07264,0.13674 0.391265,-0.19957 0.645737,-0.46502 0.0044,-0.005 0.0083,-0.0101 0.0125,-0.0146 0.0019,-0.002 0.0042,-0.004 0.0061,-0.006 0.308621,-0.32568 0.565654,-0.84041 0.732113,-1.43777 0.08574,-0.30427 0.154542,-0.48075 0.244625,-0.59305 0.05578,-0.0616 0.119827,-0.10241 0.201124,-0.13332 0.08754,-0.0309 0.124192,-0.0513 0.133434,-0.0784 0.02373,-0.0212 0.02422,-0.0441 0.01069,-0.0816 -0.01505,-0.0423 -0.09564,-0.1287 -0.177403,-0.19397 -0.285463,-0.22176 -0.364082,-0.51009 -0.260599,-0.94471 0.09776,-0.38288 0.422754,-0.92799 0.755807,-1.30275 0.108475,-0.11941 0.217406,-0.22055 0.319218,-0.29093 0.250865,-0.17703 0.478119,-0.17348 0.723447,0.0224 0.107792,0.086 0.167946,0.11014 0.197613,0.073 0.0031,-0.003 0.003,-0.008 0.0041,-0.0119 0.0057,-0.003 0.01082,-0.007 0.01506,-0.0123 0.02026,-0.0255 0.0045,-0.0587 -0.04068,-0.0928 l 0.0095,-0.0216 c 0.0013,6.1e-4 0.0091,0.004 0.0091,0.004 l 0.06899,-0.15768 c 0,0 0.05056,-0.10334 0.148248,-0.21656 0.02856,-0.0313 0.05962,-0.0631 0.09532,-0.0931 0.173737,-0.14623 0.495418,-0.46027 0.495418,-0.46027 l 0.01491,-0.0181 c 1.33e-4,-1.2e-4 0.0052,-0.004 0.0052,-0.004 l 0.797257,-0.95821 0.05006,-0.15789 c 0.01242,-0.009 0.02452,-0.0216 0.03647,-0.0398 0.07874,-0.0836 0.149121,-0.36723 0.169096,-0.63574 l 0.06713,-0.21746 -0.08042,-0.16899 c -0.06399,-0.40888 -0.243719,-0.82057 -0.531557,-1.21807 0.09003,-0.1262 0.09218,-0.16148 0.04765,-0.15776 -0.026,0.005 -0.113678,-0.0187 -0.214291,-0.0575 -0.08083,-0.10226 -0.147717,-0.21573 -0.152566,-0.25897 -0.0127,-0.0832 1.366314,-1.99013 2.398006,-3.32079 0.192106,-0.2483 0.365143,-0.49742 0.388839,-0.5576 0.0096,-0.0209 0.02133,-0.0495 0.03288,-0.077 0.01892,0.008 0.03797,0.0173 0.05685,0.0277 0.128056,0.0731 0.177115,0.0834 0.207703,0.0311 0.0094,-0.006 0.01707,-0.0168 0.02394,-0.0304 0.02816,-0.0505 -0.0012,-0.10884 -0.09192,-0.19341 -0.01445,-0.0139 -0.02716,-0.0296 -0.0394,-0.0441 0.01102,-0.042 0.03011,-0.0878 0.05505,-0.12445 0.0028,-0.004 0.006,-0.007 0.0087,-0.0113 0.0412,-0.038 0.08263,-0.0143 0.223389,0.098 0.144962,0.11574 0.194044,0.19175 0.223169,0.33061 0.04033,0.20866 0.191086,0.31027 0.39975,0.26994 0.05904,-0.01 0.114331,-0.0481 0.159521,-0.0998 0.07192,-0.0709 0.121681,-0.17883 0.12299,-0.28265 -0.0046,-0.13146 -0.272621,-0.32265 -0.395861,-0.27498 -0.08177,0.0258 -0.148594,0.004 -0.282402,-0.10265 -0.170985,-0.13648 -0.172695,-0.14714 -0.08967,-0.25121 0.0076,-0.01 0.0151,-0.016 0.02259,-0.0239 0.04229,-0.0348 0.08327,-0.0406 0.130848,-0.0208 0.0664,0.0289 0.112868,0.0166 0.128086,-0.017 0.03412,-0.0207 0.03761,-0.0703 -0.0074,-0.13146 -0.02782,-0.0387 -0.03542,-0.067 -0.03074,-0.0862 0.03426,-0.0134 0.103873,0.005 0.187861,0.0622 0.09515,0.0638 0.154058,0.13434 0.16156,0.20117 0.01347,0.12033 0.129647,0.22566 0.308701,0.28341 0.08563,0.0274 0.130756,0.0176 0.191999,-0.0469 0.01736,-0.0152 0.03556,-0.0358 0.05632,-0.0617 0.07418,-0.0929 0.09177,-0.15983 0.06717,-0.22813 -0.06329,-0.14179 -0.291469,-0.30357 -0.396912,-0.27819 -0.06319,0.0103 -0.134493,-0.025 -0.2141,-0.10018 -0.113146,-0.10737 -0.119959,-0.12288 -0.01777,-0.23464 0.09645,-0.10558 0.174697,-0.14118 0.316589,-0.14346 0.116506,-0.004 0.20407,-0.043 0.249752,-0.10088 0.0542,-0.0505 0.07131,-0.12027 0.03608,-0.19637 -0.02049,-0.0585 -0.04734,-0.16046 -0.05554,-0.234 -0.0075,-0.0668 -0.0293,-0.13934 -0.05162,-0.15714 -0.0186,-0.0148 -0.01138,-0.0753 0.01235,-0.1355 0.03853,-0.0787 0.02147,-0.13509 -0.06622,-0.22339 -0.03234,-0.0319 -0.06348,-0.0598 -0.09037,-0.0805 -0.02688,-0.0208 -0.05144,-0.0328 -0.0596,-0.0301 -0.01088,-6.4e-4 -0.03335,0.0194 -0.05819,0.046 -0.01953,0.0169 -0.04239,0.0411 -0.06449,0.0687 -0.04149,0.0374 -0.09202,0.0483 -0.140523,0.0251 -0.06366,-0.0275 -0.122109,-0.008 -0.142633,0.0308 -0.02829,0.022 -0.03734,0.0597 -0.01051,0.0997 0.0083,0.0124 0.0077,0.0273 0.0017,0.0404 -0.0045,0.003 -0.0084,0.006 -0.0137,0.008 -0.08089,0.0329 -0.219793,-0.0758 -0.172319,-0.13525 0.0237,-0.0298 -0.0016,-0.0446 -0.07137,-0.0334 -0.01655,0.002 -0.03157,0.006 -0.04581,0.0119 z m -8.041183,16.68291 c 0.02887,-0.0137 0.05948,-0.0143 0.07068,-0.005 0.0066,0.005 0.0016,0.0214 -0.0096,0.0396 -0.01664,0.007 -0.03995,0.005 -0.05674,-0.008 -0.0084,-0.007 -0.01037,-0.0152 -0.0083,-0.0235 0.0016,-7.4e-4 0.0023,-0.002 0.004,-0.003 z"
         style="display:inline;overflow:visible;visibility:visible;opacity:1;fill:#000000;fill-opacity:1;fill-rule:evenodd;stroke:none;stroke-width:0.03373297;stroke-linecap:butt;stroke-linejoin:miter;stroke-miterlimit:4;stroke-dasharray:none;stroke-dashoffset:0;stroke-opacity:1;marker:none;marker-start:none;marker-mid:none;marker-end:none;enable-background:accumulate" />
      <path
         d="m 90.389685,122.3068 a 14.243578,14.243578 0 0 1 14.898945,8.07186 14.243578,14.243578 0 0 1 -3.36342,16.60785 14.243578,14.243578 0 0 1 -16.865569,1.63892 14.243578,14.243578 0 0 1 -6.498044,-15.64956"
         sodipodi:open="true"
         sodipodi:end="3.385087"
         sodipodi:start="4.5718408"
         sodipodi:ry="14.243578"
         sodipodi:rx="14.243578"
         sodipodi:cy="136.40993"
         sodipodi:cx="92.38501"
         sodipodi:type="arc"
         id="path1451-2"
         style="fill:none;fill-opacity:1;stroke:#000000;stroke-width:0.24694444;stroke-miterlimit:4;stroke-dasharray:none;stroke-dashoffset:0;stroke-opacity:1" />
      <path
         sodipodi:nodetypes="csscccc"
         inkscape:connector-curvature="0"
         id="path1453-2"
         d="m 80.847698,89.938213 c 0.756962,0.0757 2.210334,0.0454 2.301171,0.0454 0.09083,0 2.467703,-0.74182 2.709931,-0.74182 0.242229,0 1.423094,-1.07489 1.423094,-1.07489 l 0.25737,-1.13545 c 0,0 -5.828628,1.2717 -5.858906,1.3474 -0.03028,0.0757 -0.83266,1.55934 -0.83266,1.55934 z"
         style="opacity:1;vector-effect:none;fill:#ffffff;fill-opacity:1;stroke:none;stroke-width:0.35277778;stroke-linecap:butt;stroke-linejoin:miter;stroke-miterlimit:4;stroke-dasharray:none;stroke-dashoffset:0;stroke-opacity:1" />
      <path
         sodipodi:nodetypes="csscccc"
         inkscape:connector-curvature="0"
         id="path1453-5"
         d="m 94.703306,150.06142 c 0.756962,0.0757 2.210334,0.0454 2.301171,0.0454 0.09083,0 2.467703,-0.74182 2.709931,-0.74182 0.242229,0 1.423092,-1.07489 1.423092,-1.07489 l 0.25737,-1.13545 c 0,0 -5.828626,1.2717 -5.858904,1.3474 -0.03028,0.0757 -0.83266,1.55934 -0.83266,1.55934 z"
         style="opacity:1;vector-effect:none;fill:#ffffff;fill-opacity:1;stroke:none;stroke-width:0.35277778;stroke-linecap:butt;stroke-linejoin:miter;stroke-miterlimit:4;stroke-dasharray:none;stroke-dashoffset:0;stroke-opacity:1" />
      <path
         inkscape:connector-curvature="0"
         id="path1651"
         d="M 68.340713,142.92595 H 79.760111"
         style="opacity:1;vector-effect:none;fill:none;fill-opacity:1;stroke:#000000;stroke-width:0.21166667;stroke-linecap:butt;stroke-linejoin:miter;stroke-miterlimit:4;stroke-dasharray:none;stroke-dashoffset:0;stroke-opacity:1" />
    </g>
    <g
       id="g1697"
       transform="translate(-22.128295,14.672082)">
      <path
         inkscape:connector-curvature="0"
         id="path956-8"
         d="m 157.02719,131.85835 c -0.87099,0.39591 -1.4517,0.76531 -1.61006,1.16122 -0.15836,0.39591 -0.7654,1.31973 -0.87097,1.53088 -0.10558,0.21115 -0.29033,0.65981 -0.0792,1.42523 0.21115,0.76542 0.63351,1.84759 0.89745,2.79775 0.26393,0.95017 0.42213,2.16431 0.34295,2.87693 -0.0792,0.71263 -0.42213,1.58359 -0.42213,1.58359 0,0 0.15835,0.18468 0.55426,0.29025 0.3959,0.10557 0.92367,0.15836 1.16122,0 0.23753,-0.15836 0.6599,-0.34319 0.6599,-0.34319 0,0 -0.42244,-0.52785 -0.44884,-1.18769 -0.0264,-0.65984 0.0265,-1.45147 0.0265,-1.45147 0,0 0.23745,0.1582 0.36942,0.65967 0.13197,0.50148 0.18482,1.53096 0.58073,1.95326 0.3959,0.42229 1.37259,1.00301 2.26997,1.0558 0.89738,0.0528 2.11137,0.079 2.42809,0.0262 0.31672,-0.0528 1.76842,-0.42213 1.76842,-0.42213 0,0 -0.0264,-0.63367 -0.15836,-0.71286 -0.13197,-0.0792 -1.87399,-1.05564 -2.08514,-1.24039 -0.21114,-0.18476 -1.47794,-0.97646 -1.47794,-1.31958 0,-0.34311 -0.50154,-2.45471 -0.65991,-3.06176 -0.15835,-0.60705 -2.11152,-4.30208 -2.40185,-4.82995 -0.29033,-0.52787 -0.8445,-0.79179 -0.8445,-0.79179 z m -0.053,0.58049 c 0,0 0.31686,0.18482 0.52802,0.58073 0.21115,0.39591 0.84458,1.82128 1.10851,2.19079 0.26394,0.36951 1.34613,3.03521 1.4517,3.32554 0.10558,0.29032 0.36943,1.9003 0.36943,1.9003 0,0 -0.26393,8e-5 -0.55426,-0.0527 -0.29033,-0.0528 -0.55441,-1.42546 -0.6072,-1.74218 -0.0528,-0.31672 -2.40177,-5.72738 -2.2962,-6.20247 z"
         style="opacity:1;vector-effect:none;fill:#000000;fill-opacity:1;stroke:#000000;stroke-width:0.12101453;stroke-linecap:butt;stroke-linejoin:miter;stroke-miterlimit:4;stroke-dasharray:none;stroke-dashoffset:0;stroke-opacity:1;marker:none;marker-start:none;marker-mid:none;marker-end:none" />
      <path
         inkscape:connector-curvature="0"
         id="path3050-6-9"
         d="m 142.41805,152.49677 c 0,0 0.0187,0.15908 0.0294,0.31483 0.007,0.10856 0.01,0.2162 -0.002,0.26395 -0.0107,0.0429 -0.0356,0.13334 -0.0663,0.23053 -0.0538,0.16436 -0.13068,0.35445 -0.22209,0.4093 -0.12396,0.0744 -0.28989,0.50739 -0.42617,0.77703 -0.003,0.006 -0.006,0.0135 -0.01,0.0195 -1.3e-4,2.5e-4 -1.6e-4,5.3e-4 -2.9e-4,0.001 -0.0196,0.0378 -0.0387,0.0718 -0.0567,0.10058 -0.009,0.0143 -0.0159,0.029 -0.0215,0.0439 -7e-5,2e-4 -2.1e-4,2.6e-4 -2.9e-4,5.3e-4 -0.005,0.0141 -0.009,0.0286 -0.0116,0.043 -1.8e-4,0.001 -6.9e-4,0.002 -8.7e-4,0.003 -0.002,0.0129 -0.003,0.0256 -0.003,0.0387 -8e-5,0.003 -5.8e-4,0.006 -5.8e-4,0.009 0,0 0,2.6e-4 0,2.6e-4 6e-5,0.0155 0.001,0.0311 0.004,0.0465 0.001,0.008 0.004,0.0149 0.006,0.0224 0.0376,0.17985 0.19941,0.34651 0.19941,0.34651 l -0.52064,0.52064 c 0,0 -0.009,0.0481 -0.014,0.11163 -0.007,0.0831 -0.005,0.19609 0.0442,0.29477 0.087,0.17405 0.26108,0.40635 0.55117,0.52239 0.0194,0.008 0.0402,0.0134 0.0616,0.018 0.0914,0.0255 0.18264,0.0302 0.27267,0.0209 l 0.0282,0.0169 1.19506,-0.11221 c -0.001,0.0351 0.007,0.0816 0.0381,0.14331 0.087,0.17406 0.14506,0.87035 0.14505,0.87035 l 0.0424,-0.3125 0.011,0.21686 -0.0244,0.0375 0.036,0.18663 0.005,0.093 0.0805,0.40291 -0.0346,0.0427 c 0,0 0.005,-5.3e-4 0.005,-5.3e-4 l -0.002,0.002 c 0,0 0.0128,-0.002 0.0218,-0.004 0.004,-2.6e-4 0.0117,-0.001 0.0192,-0.002 l 0.17878,0.87675 -0.10581,-0.0895 c 2.1e-4,2.7e-4 3.7e-4,0.001 5.8e-4,0.001 l -0.001,-0.001 c 0.23207,0.43514 0.26118,0.8993 0.46425,1.5375 0.20306,0.6382 0.46413,1.33446 0.55116,1.82761 0.087,0.49316 0.0289,1.07352 0.0579,1.3346 0.029,0.26107 -0.34804,0.11578 -0.5221,0.43488 -0.14479,0.26545 -0.168,0.36614 -0.17209,0.3939 -1.3e-4,0.001 -0.004,0.0128 -0.004,0.0128 0,0 0.002,-0.001 0.002,-0.001 v 0.001 c 0,0 0.004,-0.004 0.0131,-0.008 0,0 2.9e-4,0 2.9e-4,0 0.0294,-0.0121 0.11806,-0.0268 0.30465,2.6e-4 0.0215,0.003 0.0349,0.003 0.0593,0.008 0.0798,0.0145 0.15951,0.0452 0.2343,0.0788 0.0192,0.009 0.0339,0.0157 0.0523,0.0244 0.19748,0.0946 0.35146,0.18646 0.35146,-0.0134 0,-10e-4 -1e-5,-0.002 0,-0.003 0,-0.0139 10e-4,-0.0249 10e-4,-0.0378 6.3e-4,-0.0204 0.001,-0.0417 0.003,-0.0599 3e-5,-2.6e-4 -3e-5,-0.001 0,-0.001 0.0118,-0.13042 0.0496,-0.21347 0.0994,-0.31743 0.007,-0.0139 0.0117,-0.0258 0.0189,-0.0407 1.1e-4,-2.5e-4 1.8e-4,-5.3e-4 2.9e-4,-0.001 0.0244,-0.0506 0.0516,-0.10834 0.0805,-0.18052 0.11603,-0.29009 0.11599,-0.26085 0.11599,-0.72501 0,-0.46415 0.0579,-0.75445 0.0579,-1.21859 0,-0.46416 -0.0579,-0.40585 -0.0579,-0.841 0,-0.039 -0.004,-0.0735 -0.005,-0.11134 -0.001,-0.05 -0.003,-0.0981 -0.006,-0.14302 -0.003,-0.0371 -0.005,-0.0711 -0.008,-0.10582 -0.002,-0.0188 -0.004,-0.033 -0.006,-0.0509 -0.0127,-0.11471 -0.0207,-0.17126 -0.0331,-0.2404 l 0.22529,-0.16047 0.0177,0.014 0.0169,0.0168 0.14215,0.23896 0.0619,0.1061 0.0166,0.0887 0.15814,0.86949 0.18604,0.60493 0.0453,0.15057 c 0,0 -0.011,0.12434 -0.0163,0.1878 -0.0182,0.21355 -0.0545,0.62303 -0.0991,0.91308 -0.0218,0.14142 -0.064,0.27071 -0.11279,0.38459 -0.0161,0.0372 -0.0327,0.0731 -0.0497,0.10697 -2.9e-4,5.3e-4 -5.8e-4,0.001 -8.7e-4,0.002 -0.0691,0.13726 -0.14157,0.24584 -0.18489,0.31803 -0.087,0.14504 -0.46408,0.31994 -0.66715,0.40697 -0.0256,0.011 -0.0419,0.0224 -0.0509,0.034 -0.001,0.002 -0.002,0.004 -0.003,0.005 -0.047,0.079 0.22762,0.16365 0.22762,0.16365 0,0 0.005,2.7e-4 0.005,2.7e-4 0.008,5.3e-4 0.34508,0.0292 0.48837,0.0579 0.14505,0.029 0.49332,-0.0872 0.49332,-0.0872 0,0 8.7e-4,-0.002 8.7e-4,-0.002 2e-5,0 0.002,-5.3e-4 0.002,-5.3e-4 0,0 0.11646,-0.28322 0.20349,-0.60233 0.065,-0.23821 0.3227,-0.52841 0.44941,-0.66046 0.001,-0.001 8.2e-4,-0.001 0.002,-0.002 0,0 3e-4,-2.6e-4 3e-4,-2.6e-4 0.0397,-0.0404 0.0671,-0.066 0.0671,-0.066 0,0 -3e-4,-0.001 -3e-4,-0.001 6e-5,-6e-5 0.002,-0.002 0.002,-0.002 0,0 -0.0559,-0.26164 -0.11395,-0.40669 -0.047,-0.11746 0.0538,-0.44027 0.12558,-0.77442 0.0126,-0.0582 0.0237,-0.11612 0.0334,-0.17384 0.003,-0.0202 0.009,-0.0407 0.0116,-0.0608 0.058,-0.40612 0.14652,-1.04951 0.14652,-1.51366 0,-0.13516 -0.001,-0.2861 0,-0.4311 0,0 0.023,0.004 0.0407,0.008 0.0941,0.0192 0.36447,0.0679 0.50814,0.02 0.17405,-0.058 1.71162,-0.46424 1.71162,-0.46424 l 1.45029,-0.52164 c 0,0 0.17408,0.58013 0.29011,0.8122 0.0522,0.10437 0.18334,0.30378 0.3221,0.49826 0.1683,0.23854 0.34923,0.4707 0.42906,0.5186 0.12692,0.0762 0.38747,0.43774 0.72268,0.76018 0,0 2.9e-4,2.7e-4 2.9e-4,2.7e-4 9.8e-4,0.001 0.002,0.001 0.002,0.002 0.0471,0.0452 0.0958,0.0896 0.14564,0.13226 9.8e-4,0.001 0.001,0.002 0.002,0.002 0.0241,0.0209 0.0457,0.041 0.0643,0.0605 2.2e-4,2.1e-4 3.7e-4,5.2e-4 4.8e-4,0.001 0.23971,0.25196 0.034,0.39061 -0.0741,0.50842 -0.004,0.005 -0.01,0.01 -0.0137,0.0143 -0.0162,0.019 -0.0292,0.0376 -0.0366,0.0561 -0.0469,0.11724 -0.0724,0.39324 -0.0962,0.69012 -0.006,0.0712 -0.0127,0.13444 -0.0183,0.20726 -0.003,0.0466 -0.01,0.084 -0.0174,0.11454 -0.0576,0.21327 -0.22509,0.0676 -0.47849,0.1436 -0.2901,0.087 -0.20349,0.38256 -0.20349,0.38256 0,0 0.20321,0.0552 0.36483,0.0887 0.0109,0.002 0.0222,0.005 0.0326,0.007 0.053,0.0105 0.0995,0.0177 0.1279,0.0177 4.3e-4,0 0.001,-2.7e-4 0.002,-2.7e-4 4.5e-4,0 10e-4,2.7e-4 0.002,2.7e-4 0.0546,0 0.19344,-0.053 0.32471,-0.10843 0.008,-0.004 0.0148,-0.005 0.0224,-0.009 9.8e-4,-2.7e-4 4.8e-4,-2.6e-4 0.001,-5.3e-4 0.005,-0.002 0.004,-0.002 0.009,-0.004 0.12902,-0.0549 0.24768,-0.1099 0.24768,-0.1099 0,0 2.9e-4,-0.002 2.9e-4,-0.002 7e-5,-4e-5 0.004,-0.002 0.004,-0.002 0,0 0.17093,-0.78049 0.17093,-1.04157 0,-0.0979 0.0653,-0.22899 0.1468,-0.35436 0.0267,-0.041 0.0553,-0.0813 0.0837,-0.11977 0.11604,-0.15592 0.23198,-0.27907 0.23198,-0.27907 l -2.9e-4,-0.001 c 3e-5,-3e-5 0.002,-0.002 0.002,-0.002 l -0.006,-0.0134 -0.12093,-0.43052 c 0.18506,0.24985 0.38332,0.51763 0.50116,0.67965 0.13552,0.18635 0.1979,0.28736 0.2718,0.42704 0.052,0.0994 0.10244,0.20196 0.22297,0.44302 0.29008,0.58018 0.0869,0.98633 0.0869,0.98633 l -0.18779,0.0794 -0.56483,0.23693 0.002,0.001 -0.003,0.001 0.0776,0.0517 0.0948,0.0677 0.96017,0.057 c 0,0 0.14755,-0.32497 0.0895,-0.58605 -0.058,-0.26108 -0.11854,-0.86452 -0.0895,-1.41569 0.0291,-0.55117 -0.057,-0.84622 -0.057,-0.84622 l -0.40552,-0.55204 -0.26599,-0.3654 -0.0238,-0.15873 0.0259,0.0346 -4.8e-4,-0.004 0.003,0.004 -0.0247,-0.13866 -0.0988,-0.61018 -0.19389,-1.22034 c 0.005,0.0286 0.009,0.0706 0.0137,0.10697 l -0.0177,-0.11046 c 0.0107,0.0643 0.0207,0.13961 0.0305,0.22151 l -0.059,-0.34099 c -0.0209,-0.13228 -0.033,-0.19096 -0.0488,-0.28488 l -0.0326,-0.2032 c -0.005,-0.0259 -0.0102,-0.0492 -0.0151,-0.0741 -0.004,-0.0229 -0.0107,-0.0541 -0.0151,-0.0759 -0.0264,-0.12888 -0.0545,-0.25529 -0.0916,-0.40348 0,0 -3e-4,-2.6e-4 -3e-4,-2.6e-4 -0.0872,-0.34788 -0.57654,-0.95861 -0.57732,-0.95959 l 0.46134,-0.40377 c 0,0 0.13899,-0.10196 0.32005,-0.25001 0.009,-0.008 0.0161,-0.0129 0.0256,-0.0206 0.32443,-0.26593 0.7718,-0.67249 0.84448,-0.94505 0.0647,-0.2428 0.17285,-0.73923 0.2468,-1.20727 0.0589,-0.36909 0.0971,-0.72091 0.0715,-0.91308 -1.6e-4,-0.001 -4.8e-4,-0.002 -9.8e-4,-0.003 -0.007,-0.0531 -0.0177,-0.10348 -0.0308,-0.15116 -1.1e-4,-4e-4 -1.8e-4,-10e-4 -2.9e-4,-10e-4 -0.0134,-0.0485 -0.0295,-0.0938 -0.0471,-0.13634 -0.0163,-0.0393 -0.0338,-0.0756 -0.052,-0.1096 -0.002,-0.003 -0.003,-0.007 -0.005,-0.01 0,0 -2.9e-4,-2.9e-4 -2.9e-4,-2.9e-4 -0.005,-0.009 -0.0102,-0.0167 -0.0154,-0.0256 -0.0951,-0.16525 -0.1968,-0.25902 -0.1968,-0.25902 0,0 -4.8e-4,0.003 -4.8e-4,0.003 -5e-5,-4e-5 -0.002,-0.002 -0.002,-0.002 0,0 -0.14547,0.72247 -0.20348,1.04157 -0.0336,0.18458 -0.0857,0.39472 -0.14535,0.64651 -0.0446,0.18353 -0.0928,0.38664 -0.14186,0.63168 -0.0362,0.18131 -0.0755,0.30316 -0.13605,0.40001 -0.005,0.009 -0.0117,0.0164 -0.0175,0.0247 -0.007,0.01 -0.0132,0.0198 -0.0206,0.0291 -0.14123,0.17568 -0.38372,0.2787 -0.87325,0.58693 -0.39051,0.24587 -0.54274,0.27639 -0.63692,0.2343 -0.0929,-0.0442 -0.12991,-0.15853 -0.28837,-0.20175 -0.13814,-0.0376 -0.38284,-0.0639 -0.65785,-0.0892 -0.0433,-0.004 -0.0789,-0.009 -0.12384,-0.0125 -0.1643,-0.0145 -0.33873,-0.0288 -0.51162,-0.045 -4.8e-4,-6e-5 -0.002,-2.2e-4 -0.002,-2.7e-4 -0.17288,-0.0163 -0.34419,-0.0345 -0.5032,-0.0561 -4.8e-4,-1e-4 -0.002,-2e-4 -0.002,-2.6e-4 -0.0791,-0.0108 -0.15915,-0.0187 -0.24011,-0.0244 -0.57228,-0.0408 -1.19556,0.0367 -1.93256,0.13838 -0.84126,0.11604 -0.92449,0.057 -1.09855,0.057 -0.1175,0 -0.47823,-0.0677 -0.95726,-0.20872 l -1.03866,-0.50815 c -7.7e-4,-10e-4 -0.003,-0.004 -0.004,-0.005 -0.0179,-0.0228 -0.10518,-0.13394 -0.2375,-0.31918 -0.0239,-0.0335 -0.0441,-0.0547 -0.0657,-0.0811 -0.0132,-0.0163 -0.0276,-0.0359 -0.0404,-0.05 -0.0447,-0.0489 -0.0889,-0.0892 -0.13808,-0.12093 l -0.21977,-0.26857 c 0.0213,-0.0237 0.0371,-0.0518 0.0506,-0.0779 0.002,-0.003 0.004,-0.007 0.006,-0.01 0.007,-0.0147 0.012,-0.0319 0.0143,-0.0509 0.0169,-0.13094 -0.077,-0.35746 -0.12791,-0.56104 -0.058,-0.23207 -0.0584,-0.22938 -0.20349,-0.37442 -0.14504,-0.14505 -0.34909,-0.206 -0.61017,-0.29302 -0.12444,-0.0415 -0.20497,-0.0735 -0.26017,-0.0971 -0.0616,-0.0282 -0.0887,-0.0451 -0.0887,-0.0451 4.7e-4,0.002 6.8e-4,0.004 10e-4,0.005 -4e-5,-2e-5 -0.002,-0.001 -0.002,-0.001 0.058,0.20306 -0.001,0.37234 0.057,0.48837 l -0.0605,0.0227 0.005,-0.10872 c 0,0 -0.001,-2.9e-4 -0.001,-2.9e-4 l 2.9e-4,-0.003 c 0,0 -0.027,-0.002 -0.0741,-0.0101 -0.0207,-0.004 -0.0349,-0.007 -0.0698,-0.0154 -0.0297,-0.007 -0.065,-0.009 -0.10117,-0.007 -9.7e-4,3e-5 -0.002,2.4e-4 -0.003,2.9e-4 -0.10471,0.004 -0.21569,0.0326 -0.21569,0.0326 0,0 -0.14088,-0.26089 -0.22791,-0.46396 -0.0665,-0.15515 -0.26662,-0.20547 -0.35843,-0.22092 -0.004,-5e-4 -0.003,-3.2e-4 -0.006,-0.001 -0.0253,-0.004 -0.0454,-0.007 -0.0454,-0.007 z m 2.94825,2.57239 0.0663,0.0663 -0.0201,-0.01 z"
         style="fill:#000000;fill-opacity:1;stroke:none;stroke-width:0.36431056" />
      <g
         transform="translate(18.208108,-50.708601)"
         id="g1678">
        <rect
           style="fill:#ffffff;fill-opacity:1;stroke:#000000;stroke-width:0.15409921;stroke-miterlimit:4;stroke-dasharray:none;stroke-dashoffset:0;stroke-opacity:1"
           id="rect825-1"
           width="10.549449"
           height="13.818292"
           x="144.11337"
           y="168.80846" />
        <text
           xml:space="preserve"
           style="font-style:normal;font-variant:normal;font-weight:normal;font-stretch:normal;font-size:2.20141721px;line-height:1.25;font-family:'Liberation Sans';-inkscape-font-specification:'Liberation Sans';font-variant-ligatures:normal;font-variant-position:normal;font-variant-caps:normal;font-variant-numeric:normal;font-variant-alternates:normal;font-feature-settings:normal;text-indent:0;text-align:start;text-decoration:none;text-decoration-line:none;text-decoration-style:solid;text-decoration-color:#000000;letter-spacing:0px;word-spacing:0px;text-transform:none;writing-mode:lr-tb;direction:ltr;text-orientation:mixed;dominant-baseline:auto;baseline-shift:baseline;text-anchor:start;white-space:normal;shape-padding:0;opacity:1;vector-effect:none;fill:#000000;fill-opacity:1;stroke:none;stroke-width:0.16510628;stroke-linecap:butt;stroke-linejoin:miter;stroke-miterlimit:4;stroke-dasharray:none;stroke-dashoffset:0;stroke-opacity:1"
           x="152.1369"
           y="181.45958"
           id="text829-2"><tspan
             sodipodi:role="line"
             id="tspan827-9"
             x="152.1369"
             y="181.45958"
             style="stroke-width:0.16510628">V</tspan></text>
        <text
           xml:space="preserve"
           style="font-style:normal;font-variant:normal;font-weight:normal;font-stretch:normal;font-size:2.20141721px;line-height:1.25;font-family:'Liberation Sans';-inkscape-font-specification:'Liberation Sans';font-variant-ligatures:normal;font-variant-position:normal;font-variant-caps:normal;font-variant-numeric:normal;font-variant-alternates:normal;font-feature-settings:normal;text-indent:0;text-align:start;text-decoration:none;text-decoration-line:none;text-decoration-style:solid;text-decoration-color:#000000;letter-spacing:0px;word-spacing:0px;text-transform:none;writing-mode:lr-tb;direction:ltr;text-orientation:mixed;dominant-baseline:auto;baseline-shift:baseline;text-anchor:start;white-space:normal;shape-padding:0;opacity:1;vector-effect:none;fill:#000000;fill-opacity:1;stroke:none;stroke-width:0.16510628;stroke-linecap:butt;stroke-linejoin:miter;stroke-miterlimit:4;stroke-dasharray:none;stroke-dashoffset:0;stroke-opacity:1"
           x="144.70772"
           y="181.45958"
           id="text833-3"><tspan
             sodipodi:role="line"
             id="tspan831-1"
             x="144.70772"
             y="181.45958"
             style="stroke-width:0.16510628">COM</tspan></text>
      </g>
      <path
         inkscape:connector-curvature="0"
         id="path3204-6-93"
         d="m 143.62758,127.59667 7e-5,2e-4 c -0.0297,0.0129 -0.0539,0.0339 -0.0727,0.0599 -0.062,0.061 -0.0815,0.16695 -0.0287,0.25611 0.0379,0.0668 0.0292,0.16915 -0.0323,0.3148 -0.0347,0.0872 -0.057,0.13816 -0.0807,0.16929 -0.03,0.0236 -0.067,0.0251 -0.13295,0.0246 -0.0882,-0.003 -0.12083,-9.6e-4 -0.12573,0.0269 -0.0287,0.01 -0.0244,0.0352 -0.008,0.0925 0.0133,0.0534 0.007,0.0929 -0.01,0.11957 -0.0435,0.0305 -0.11796,0.0132 -0.1873,-0.0666 -0.0581,-0.0646 -0.11422,-0.14828 -0.11872,-0.18839 -0.0112,-0.0394 -0.10362,-0.12093 -0.20841,-0.18024 -0.15693,-0.0923 -0.26379,-0.10007 -0.312,-0.0266 -0.025,0.0223 -0.0415,0.0566 -0.0466,0.10634 -0.009,0.0721 0.0606,0.14549 0.32073,0.35316 0.30787,0.24574 0.3275,0.26334 0.26012,0.33223 -0.0445,0.0452 -0.101,0.0695 -0.12447,0.0624 -0.0356,-0.013 -0.0631,3e-5 -0.078,0.0288 -0.0312,0.0224 -0.0443,0.0774 -0.0255,0.1449 0.0122,0.0462 -0.019,0.12466 -0.0711,0.20609 -0.0644,0.008 -0.11788,0.0398 -0.15263,0.0856 -0.0365,0.0366 -0.0581,0.0861 -0.0599,0.14156 -0.024,0.0185 -0.0478,0.0346 -0.0704,0.0445 -0.0554,0.0245 -0.085,0.0432 -0.10096,0.0692 -0.0292,0.0258 -0.0381,0.056 -0.0358,0.11426 0.007,0.12085 -0.41763,0.64888 -1.74064,2.18337 -0.0689,0.0798 -0.11049,0.12913 -0.1844,0.21467 -0.008,0.009 -0.0116,0.0133 -0.0192,0.0225 -0.005,0.005 -0.0112,0.0131 -0.0163,0.0191 -0.2614,0.30374 -0.54248,0.6334 -0.83107,0.97087 l -0.15403,0.16451 -0.61775,-0.19476 0.0391,-0.16208 c -1.28481,-0.49666 -1.97355,-0.17846 -2.48959,0.34881 -9e-4,7.9e-4 -0.002,0.002 -0.003,0.003 -0.006,0.006 -0.0126,0.0115 -0.0185,0.0181 -0.39513,0.40371 -0.77609,1.10647 -0.77609,1.10647 l 0.005,-0.006 c -0.0722,0.12014 -0.19274,0.32251 -0.26938,0.47107 -0.049,0.095 -0.10974,0.17193 -0.16091,0.22873 -0.0464,0.0486 -0.0819,0.0779 -0.0819,0.0779 l -0.14028,0.10292 c 0,0 0.003,0.005 0.004,0.006 l -0.0239,0.0184 c 0,0 0.0389,0.0586 0.0842,0.10887 0.0453,0.0504 0.19659,0.19975 0.27499,0.33355 0.0784,0.13381 -0.004,0.39683 -0.10927,0.65429 -0.0264,0.0643 -0.068,0.1286 -0.12126,0.1946 -1.4e-4,1.8e-4 -1.5e-4,3.9e-4 -2.7e-4,5.5e-4 -0.0217,0.0258 -0.0435,0.0514 -0.0684,0.0777 -3.1e-4,3.7e-4 -9.2e-4,7.2e-4 -9e-4,8e-4 -0.16091,0.17044 -0.3835,0.35503 -0.61104,0.57329 l -3.2e-4,0.004 c -0.006,0.006 -0.0123,0.0114 -0.0188,0.0172 l -0.004,0.0272 c -0.16634,0.11737 -0.4298,0.26729 -0.61291,0.34121 l -0.0898,0.0294 c -0.27574,0.0735 -0.62607,0.0123 -0.74227,-0.13991 -0.0431,-0.0527 -0.11295,-0.11107 -0.15529,-0.12663 -0.0441,-0.0151 -0.0639,-0.0101 -0.0723,0.0164 -0.0212,0.005 -0.0256,0.0298 -0.0241,0.0821 0.001,0.0556 -0.0363,0.12745 -0.10292,0.20789 -0.1215,0.13948 -0.32628,0.30252 -0.58097,0.45463 -0.37925,0.22278 -0.69806,0.46884 -0.95465,0.73458 -0.43073,0.43826 -0.69023,0.9307 -0.76498,1.46142 -0.0228,0.15824 -0.0804,0.39739 -0.12256,0.5341 -0.10363,0.31282 -0.0534,0.6994 0.12514,0.99408 0.4606,0.75709 0.60652,0.94742 1.13591,1.44299 0.53013,0.50226 0.51407,0.42452 0.69587,0.56302 0.52381,0.32683 0.6908,0.39908 0.93746,0.4941 0.61782,0.22027 0.55564,0.17244 0.93082,0.25892 0.32318,0.0754 0.85317,0.061 0.91844,-0.0208 0.003,-0.003 0.002,-0.005 0.003,-0.008 0,0 1.3e-4,-2.6e-4 1.3e-4,-2.6e-4 0.007,-0.004 0.0131,-0.01 0.0173,-0.0142 0.0178,-0.0224 -0.002,-0.0282 -0.048,-0.0162 -0.0423,0.0149 -0.0839,0.008 -0.0832,-0.0153 -2.6e-4,-9.8e-4 0.001,-0.002 0.002,-0.003 0.0217,-0.0145 0.0587,-0.0277 0.1025,-0.0347 0.14035,-0.0158 0.25378,-0.0587 0.66734,-0.23363 0.21307,-0.0916 0.28268,-0.10338 0.25241,-0.0421 -0.0726,0.13674 0.39126,-0.19957 0.64574,-0.46502 0.004,-0.005 0.008,-0.0101 0.0125,-0.0146 0.002,-0.002 0.004,-0.004 0.006,-0.006 0.30863,-0.32568 0.56566,-0.84041 0.73212,-1.43777 0.0857,-0.30427 0.15454,-0.48075 0.24462,-0.59305 0.0558,-0.0616 0.11983,-0.10241 0.20113,-0.13332 0.0875,-0.0309 0.12419,-0.0513 0.13343,-0.0784 0.0237,-0.0212 0.0242,-0.0441 0.0107,-0.0816 -0.0151,-0.0423 -0.0956,-0.1287 -0.1774,-0.19397 -0.28547,-0.22176 -0.36409,-0.51009 -0.2606,-0.94471 0.0978,-0.38288 0.42275,-0.92799 0.7558,-1.30275 0.10848,-0.11941 0.21741,-0.22055 0.31922,-0.29093 0.25087,-0.17703 0.47812,-0.17348 0.72345,0.0224 0.10779,0.086 0.16795,0.11014 0.19761,0.073 0.003,-0.003 0.003,-0.008 0.004,-0.0119 0.006,-0.003 0.0108,-0.007 0.0151,-0.0123 0.0203,-0.0255 0.005,-0.0587 -0.0407,-0.0928 l 0.009,-0.0216 c 0.001,6e-4 0.009,0.004 0.009,0.004 l 0.069,-0.15768 c 0,0 0.0506,-0.10334 0.14825,-0.21656 0.0286,-0.0313 0.0596,-0.0631 0.0953,-0.0931 0.17374,-0.14623 0.49542,-0.46027 0.49542,-0.46027 l 0.0149,-0.0181 c 1.3e-4,-1.3e-4 0.005,-0.004 0.005,-0.004 l 0.79726,-0.95821 0.0501,-0.15789 c 0.0124,-0.009 0.0245,-0.0216 0.0365,-0.0398 0.0787,-0.0836 0.14912,-0.36723 0.16909,-0.63574 l 0.0671,-0.21747 -0.0804,-0.16899 c -0.064,-0.40888 -0.24372,-0.82057 -0.53156,-1.21807 0.09,-0.1262 0.0922,-0.16148 0.0477,-0.15776 -0.026,0.005 -0.11368,-0.0187 -0.21429,-0.0575 -0.0808,-0.10226 -0.14772,-0.21573 -0.15256,-0.25897 -0.0127,-0.0832 1.36631,-1.99013 2.398,-3.32079 0.19211,-0.2483 0.36514,-0.49742 0.38884,-0.5576 0.01,-0.0209 0.0213,-0.0495 0.0329,-0.077 0.0189,0.008 0.038,0.0173 0.0568,0.0277 0.12806,0.0731 0.17712,0.0834 0.2077,0.0311 0.009,-0.006 0.0171,-0.0168 0.0239,-0.0304 0.0282,-0.0505 -0.001,-0.10884 -0.0919,-0.19341 -0.0145,-0.0139 -0.0272,-0.0296 -0.0394,-0.0441 0.011,-0.042 0.0301,-0.0878 0.055,-0.12445 0.003,-0.004 0.006,-0.007 0.009,-0.0113 0.0412,-0.038 0.0826,-0.0143 0.22339,0.098 0.14496,0.11574 0.19405,0.19175 0.22317,0.33061 0.0403,0.20866 0.19109,0.31027 0.39975,0.26994 0.059,-0.01 0.11433,-0.0481 0.15952,-0.0998 0.0719,-0.0709 0.12168,-0.17883 0.12299,-0.28265 -0.005,-0.13146 -0.27262,-0.32265 -0.39586,-0.27498 -0.0818,0.0258 -0.14859,0.004 -0.2824,-0.10265 -0.17099,-0.13648 -0.1727,-0.14714 -0.0897,-0.25121 0.008,-0.01 0.0151,-0.016 0.0226,-0.0239 0.0423,-0.0348 0.0833,-0.0406 0.13085,-0.0208 0.0664,0.0289 0.11287,0.0166 0.12808,-0.017 0.0341,-0.0207 0.0376,-0.0703 -0.007,-0.13145 -0.0278,-0.0387 -0.0354,-0.067 -0.0307,-0.0862 0.0343,-0.0134 0.10388,0.005 0.18786,0.0622 0.0951,0.0638 0.15406,0.13434 0.16156,0.20117 0.0135,0.12033 0.12965,0.22566 0.30871,0.28341 0.0856,0.0274 0.13075,0.0176 0.19199,-0.0469 0.0174,-0.0152 0.0356,-0.0358 0.0563,-0.0617 0.0742,-0.0929 0.0918,-0.15983 0.0672,-0.22813 -0.0633,-0.14179 -0.29146,-0.30357 -0.39691,-0.27819 -0.0632,0.0103 -0.13449,-0.025 -0.2141,-0.10018 -0.11314,-0.10737 -0.11996,-0.12288 -0.0178,-0.23464 0.0965,-0.10558 0.1747,-0.14118 0.31659,-0.14346 0.11651,-0.004 0.20407,-0.043 0.24975,-0.10088 0.0542,-0.0505 0.0713,-0.12027 0.0361,-0.19637 -0.0205,-0.0585 -0.0473,-0.16046 -0.0555,-0.234 -0.007,-0.0668 -0.0293,-0.13934 -0.0516,-0.15714 -0.0186,-0.0148 -0.0114,-0.0753 0.0123,-0.1355 0.0385,-0.0787 0.0215,-0.13509 -0.0662,-0.22339 -0.0323,-0.0319 -0.0635,-0.0598 -0.0904,-0.0805 -0.0269,-0.0208 -0.0514,-0.0328 -0.0596,-0.0301 -0.0109,-6.4e-4 -0.0334,0.0194 -0.0582,0.046 -0.0195,0.0169 -0.0424,0.0411 -0.0645,0.0687 -0.0415,0.0374 -0.092,0.0483 -0.14052,0.0251 -0.0637,-0.0275 -0.12211,-0.008 -0.14263,0.0308 -0.0283,0.022 -0.0373,0.0597 -0.0105,0.0997 0.008,0.0124 0.008,0.0273 0.002,0.0404 -0.005,0.003 -0.008,0.006 -0.0137,0.008 -0.0809,0.0329 -0.2198,-0.0758 -0.17232,-0.13525 0.0237,-0.0298 -0.002,-0.0446 -0.0714,-0.0334 -0.0165,0.002 -0.0316,0.006 -0.0458,0.0119 z m -8.04118,16.68291 c 0.0289,-0.0137 0.0595,-0.0143 0.0707,-0.005 0.007,0.005 0.002,0.0214 -0.01,0.0396 -0.0166,0.007 -0.04,0.005 -0.0567,-0.008 -0.008,-0.007 -0.0104,-0.0152 -0.008,-0.0235 0.002,-7.4e-4 0.002,-0.002 0.004,-0.003 z"
         style="display:inline;overflow:visible;visibility:visible;opacity:1;fill:#000000;fill-opacity:1;fill-rule:evenodd;stroke:none;stroke-width:0.03373297;stroke-linecap:butt;stroke-linejoin:miter;stroke-miterlimit:4;stroke-dasharray:none;stroke-dashoffset:0;stroke-opacity:1;marker:none;marker-start:none;marker-mid:none;marker-end:none;enable-background:accumulate" />
      <path
         d="m 144.48394,127.56597 a 14.243578,14.243578 0 0 1 14.89894,8.07186 14.243578,14.243578 0 0 1 -3.36342,16.60785 14.243578,14.243578 0 0 1 -16.86557,1.63892 14.243578,14.243578 0 0 1 -6.49804,-15.64956"
         sodipodi:open="true"
         sodipodi:end="3.385087"
         sodipodi:start="4.5718408"
         sodipodi:ry="14.243578"
         sodipodi:rx="14.243578"
         sodipodi:cy="141.6691"
         sodipodi:cx="146.47926"
         sodipodi:type="arc"
         id="path1451-7"
         style="fill:none;fill-opacity:1;stroke:#000000;stroke-width:0.24694444;stroke-miterlimit:4;stroke-dasharray:none;stroke-dashoffset:0;stroke-opacity:1" />
      <path
         sodipodi:nodetypes="csscccc"
         inkscape:connector-curvature="0"
         id="path1453-4"
         d="m 148.26741,155.59179 c 0.75696,0.0757 2.21033,0.0454 2.30117,0.0454 0.0908,0 2.4677,-0.74182 2.70993,-0.74182 0.24223,0 1.42309,-1.07489 1.42309,-1.07489 l 0.25737,-1.13545 c 0,0 -5.82863,1.2717 -5.8589,1.3474 -0.0303,0.0757 -0.83266,1.55934 -0.83266,1.55934 z"
         style="opacity:1;vector-effect:none;fill:#ffffff;fill-opacity:1;stroke:none;stroke-width:0.35277778;stroke-linecap:butt;stroke-linejoin:miter;stroke-miterlimit:4;stroke-dasharray:none;stroke-dashoffset:0;stroke-opacity:1" />
      <path
         sodipodi:nodetypes="ccc"
         inkscape:connector-curvature="0"
         id="path1680"
         d="m 170.92127,131.75653 v 17.03339 h -12.12193"
         style="opacity:1;vector-effect:none;fill:none;fill-opacity:1;stroke:#000000;stroke-width:0.21872222;stroke-linecap:butt;stroke-linejoin:miter;stroke-miterlimit:4;stroke-dasharray:none;stroke-dashoffset:0;stroke-opacity:1" />
      <path
         sodipodi:nodetypes="cc"
         inkscape:connector-curvature="0"
         id="path1682"
         d="m 162.50246,129.99445 h -8.03613"
         style="opacity:1;vector-effect:none;fill:none;fill-opacity:1;stroke:#000000;stroke-width:0.21872222;stroke-linecap:butt;stroke-linejoin:miter;stroke-miterlimit:4;stroke-dasharray:none;stroke-dashoffset:0;stroke-opacity:1" />
    </g>
  </g>
</svg>
