<?xml version='1.0' encoding='utf-8'?>
<svg xmlns:xlink="http://www.w3.org/1999/xlink" xmlns="http://www.w3.org/2000/svg" version="1.1" baseProfile="full" width="300" height="600">
  <title>VFPt_capacitor</title>
  <desc>VFPt_capacitor
created with VectorFieldPlot 1.0
http://commons.wikimedia.org/wiki/User:Geek3/VectorFieldPlot

about: http://commons.wikimedia.org/wiki/File:VFPt_capacitor.svg
rights: GNU Free Documentation license,
        Creative Commons Attribution ShareAlike license
  </desc>
  <defs>
    <path id="arrow1" stroke="none" fill="#000000" transform="scale(0.01)" d="M 0.3,0 L -2.2,2.25 L 3.8,0 L -2.2,-2.25 L 0.3,0 Z"/>
  </defs>
  <rect id="background" x="0" y="0" width="300" height="600" fill="#ffffff"/>
  <g id="image" transform="translate(150.0,300.0) scale(100.0,-100.0)">
    <g id="fieldlines" fill="none" stroke="#000000" stroke-width="0.02" stroke-linejoin="round" stroke-linecap="round">
      <g id="fieldline1">
        <path d="M -0.7500,-0.3970 L -0.8410,-0.4141 L -0.9300,-0.4332 L -1.0171,-0.4542 L -1.1026,-0.4772 L -1.1865,-0.5022 L -1.2692,-0.5293 L -1.3505,-0.5583 L -1.4308,-0.5895 L -1.5100,-0.6227 M 1.5100,-0.6227 L 1.4308,-0.5895 L 1.3505,-0.5583 L 1.2692,-0.5293 L 1.1865,-0.5022 L 1.1026,-0.4772 L 1.0171,-0.4542 L 0.9300,-0.4332 L 0.8410,-0.4141 L 0.7500,-0.3970"/>
        <g id="arrows1">
          <use xlink:href="#arrow1" transform="translate(-1.1367,-0.4874) rotate(-163.42) scale(2.0)"/>
          <use xlink:href="#arrow1" transform="translate(1.1367,-0.4875) rotate(163.71) scale(2.0)"/>
        </g>
      </g>
      <g id="fieldline2">
        <path d="M -0.7500,-1.1323 L -0.7868,-1.1596 L -0.8208,-1.1880 L -0.8521,-1.2174 L -0.8807,-1.2477 L -0.9068,-1.2790 L -0.9303,-1.3112 L -0.9513,-1.3443 L -0.9700,-1.3784 L -0.9863,-1.4135 L -1.0003,-1.4497 L -1.0119,-1.4871 L -1.0212,-1.5256 L -1.0282,-1.5652 L -1.0327,-1.6059 L -1.0348,-1.6477 L -1.0343,-1.6904 L -1.0312,-1.7339 L -1.0255,-1.7780 L -1.0172,-1.8225 L -1.0061,-1.8672 L -0.9924,-1.9119 L -0.9761,-1.9565 L -0.9572,-2.0007 L -0.9357,-2.0443 L -0.9117,-2.0872 L -0.8853,-2.1292 L -0.8566,-2.1701 L -0.8255,-2.2098 L -0.7923,-2.2481 L -0.7570,-2.2849 L -0.7196,-2.3201 L -0.6804,-2.3536 L -0.6395,-2.3852 L -0.5968,-2.4148 L -0.5526,-2.4424 L -0.5070,-2.4679 L -0.4601,-2.4912 L -0.4120,-2.5122 L -0.3628,-2.5309 L -0.3127,-2.5472 L -0.2618,-2.5610 L -0.2103,-2.5724 L -0.1582,-2.5813 L -0.1057,-2.5877 L -0.0529,-2.5916 L 0.0000,-2.5928 L 0.0529,-2.5916 L 0.1057,-2.5877 L 0.1582,-2.5813 L 0.2103,-2.5724 L 0.2618,-2.5610 L 0.3127,-2.5472 L 0.3628,-2.5309 L 0.4120,-2.5122 L 0.4601,-2.4912 L 0.5070,-2.4679 L 0.5526,-2.4424 L 0.5968,-2.4148 L 0.6395,-2.3852 L 0.6804,-2.3536 L 0.7196,-2.3201 L 0.7570,-2.2849 L 0.7923,-2.2481 L 0.8255,-2.2098 L 0.8566,-2.1701 L 0.8853,-2.1292 L 0.9117,-2.0872 L 0.9357,-2.0443 L 0.9572,-2.0007 L 0.9761,-1.9565 L 0.9924,-1.9119 L 1.0061,-1.8672 L 1.0172,-1.8225 L 1.0255,-1.7780 L 1.0312,-1.7339 L 1.0343,-1.6904 L 1.0348,-1.6477 L 1.0327,-1.6059 L 1.0282,-1.5652 L 1.0212,-1.5256 L 1.0119,-1.4871 L 1.0003,-1.4497 L 0.9863,-1.4135 L 0.9700,-1.3784 L 0.9513,-1.3443 L 0.9303,-1.3112 L 0.9068,-1.2790 L 0.8807,-1.2477 L 0.8521,-1.2174 L 0.8208,-1.1880 L 0.7868,-1.1596 L 0.7500,-1.1323"/>
        <g id="arrows2">
          <use xlink:href="#arrow1" transform="translate(-1.0279,-1.7562) rotate(-81.36) scale(2.0)"/>
          <use xlink:href="#arrow1" transform="translate(-0.0000,-2.5921) rotate(0.54) scale(2.0)"/>
          <use xlink:href="#arrow1" transform="translate(1.0279,-1.7562) rotate(83.87) scale(2.0)"/>
        </g>
      </g>
      <g id="fieldline3">
        <path d="M -0.7500,-1.3731 L -0.7129,-1.3947 L -0.6745,-1.4200 L -0.6055,-1.4702 L -0.5493,-1.5103 L -0.5031,-1.5404 L -0.4589,-1.5665 L -0.4150,-1.5896 L -0.3708,-1.6100 L -0.3261,-1.6281 L -0.2808,-1.6438 L -0.2350,-1.6570 L -0.1886,-1.6679 L -0.1419,-1.6764 L -0.0948,-1.6825 L -0.0474,-1.6862 L 0.0000,-1.6874 L 0.0474,-1.6862 L 0.0948,-1.6825 L 0.1419,-1.6764 L 0.1886,-1.6679 L 0.2350,-1.6570 L 0.2808,-1.6438 L 0.3261,-1.6281 L 0.3708,-1.6100 L 0.4150,-1.5896 L 0.4589,-1.5665 L 0.5031,-1.5404 L 0.5493,-1.5103 L 0.6055,-1.4702 L 0.6745,-1.4200 L 0.7129,-1.3947 L 0.7500,-1.3731"/>
        <g id="arrows3">
          <use xlink:href="#arrow1" transform="translate(-0.0000,-1.6866) rotate(0.65) scale(2.0)"/>
        </g>
      </g>
      <g id="fieldline4">
        <path d="M -0.7500,-1.0866 L -0.5830,-1.1326 L -0.4658,-1.1642 L -0.3842,-1.1841 L -0.3128,-1.1992 L -0.2464,-1.2108 L -0.1830,-1.2195 L -0.1212,-1.2257 L -0.0604,-1.2293 L 0.0000,-1.2305 L 0.0604,-1.2293 L 0.1212,-1.2257 L 0.1830,-1.2195 L 0.2464,-1.2108 L 0.3128,-1.1992 L 0.3842,-1.1841 L 0.4658,-1.1642 L 0.5830,-1.1326 L 0.7500,-1.0866"/>
        <g id="arrows4">
          <use xlink:href="#arrow1" transform="translate(-0.0000,-1.2299) rotate(0.44) scale(2.0)"/>
        </g>
      </g>
      <g id="fieldline5">
        <path d="M -0.7500,-0.8083 L -0.5316,-0.8408 L -0.4091,-0.8570 L -0.3065,-0.8683 L -0.2141,-0.8761 L -0.1267,-0.8811 L -0.0419,-0.8836 L 0.0419,-0.8836 L 0.1267,-0.8811 L 0.2141,-0.8761 L 0.3065,-0.8683 L 0.4091,-0.8570 L 0.5316,-0.8408 L 0.7500,-0.8083"/>
        <g id="arrows5">
          <use xlink:href="#arrow1" transform="translate(-0.0000,-0.8835) rotate(0.17) scale(2.0)"/>
        </g>
      </g>
      <g id="fieldline6">
        <path d="M -0.7500,-0.5357 L -0.5257,-0.5540 L -0.3721,-0.5644 L -0.2401,-0.5710 L -0.1179,-0.5748 L -0.0000,-0.5760 L 0.1179,-0.5748 L 0.2401,-0.5710 L 0.3721,-0.5644 L 0.5257,-0.5540 L 0.7500,-0.5357"/>
        <g id="arrows6">
          <use xlink:href="#arrow1" transform="translate(-0.0000,-0.5757) rotate(0.23) scale(2.0)"/>
        </g>
      </g>
      <g id="fieldline7">
        <path d="M -0.7500,-0.2670 L -0.4703,-0.2769 L -0.2679,-0.2821 L -0.0872,-0.2845 L 0.0872,-0.2845 L 0.2679,-0.2821 L 0.4703,-0.2769 L 0.7500,-0.2670"/>
        <g id="arrows7">
          <use xlink:href="#arrow1" transform="translate(-0.0000,-0.2845) rotate(0.00) scale(2.0)"/>
        </g>
      </g>
      <g id="fieldline8">
        <path d="M -0.7500,0.0000 L 0.7500,0.0000"/>
        <g id="arrows8">
          <use xlink:href="#arrow1" transform="translate(0.0000,0.0000) rotate(0.00) scale(2.0)"/>
        </g>
      </g>
      <g id="fieldline9">
        <path d="M -0.7500,0.2670 L -0.4703,0.2769 L -0.2679,0.2821 L -0.0872,0.2845 L 0.0872,0.2845 L 0.2679,0.2821 L 0.4703,0.2769 L 0.7500,0.2670"/>
        <g id="arrows9">
          <use xlink:href="#arrow1" transform="translate(-0.0000,0.2845) rotate(-0.00) scale(2.0)"/>
        </g>
      </g>
      <g id="fieldline10">
        <path d="M -0.7500,0.5357 L -0.5257,0.5540 L -0.3721,0.5644 L -0.2401,0.5710 L -0.1179,0.5748 L 0.0000,0.5760 L 0.1179,0.5748 L 0.2401,0.5710 L 0.3721,0.5644 L 0.5257,0.5540 L 0.7500,0.5357"/>
        <g id="arrows10">
          <use xlink:href="#arrow1" transform="translate(-0.0000,0.5757) rotate(-0.23) scale(2.0)"/>
        </g>
      </g>
      <g id="fieldline11">
        <path d="M -0.7500,0.8083 L -0.5316,0.8408 L -0.4091,0.8570 L -0.3065,0.8683 L -0.2141,0.8761 L -0.1267,0.8811 L -0.0419,0.8836 L 0.0419,0.8836 L 0.1267,0.8811 L 0.2141,0.8761 L 0.3065,0.8683 L 0.4091,0.8570 L 0.5316,0.8408 L 0.7500,0.8083"/>
        <g id="arrows11">
          <use xlink:href="#arrow1" transform="translate(-0.0000,0.8835) rotate(-0.17) scale(2.0)"/>
        </g>
      </g>
      <g id="fieldline12">
        <path d="M -0.7500,1.0866 L -0.5830,1.1326 L -0.4658,1.1642 L -0.3842,1.1841 L -0.3128,1.1992 L -0.2464,1.2108 L -0.1830,1.2195 L -0.1212,1.2257 L -0.0604,1.2293 L 0.0000,1.2305 L 0.0604,1.2293 L 0.1212,1.2257 L 0.1830,1.2195 L 0.2464,1.2108 L 0.3128,1.1992 L 0.3842,1.1841 L 0.4658,1.1642 L 0.5830,1.1326 L 0.7500,1.0866"/>
        <g id="arrows12">
          <use xlink:href="#arrow1" transform="translate(-0.0000,1.2299) rotate(-0.44) scale(2.0)"/>
        </g>
      </g>
      <g id="fieldline13">
        <path d="M -0.7500,1.3731 L -0.7129,1.3947 L -0.6745,1.4200 L -0.6055,1.4702 L -0.5493,1.5103 L -0.5031,1.5404 L -0.4589,1.5665 L -0.4150,1.5896 L -0.3708,1.6100 L -0.3261,1.6281 L -0.2808,1.6438 L -0.2350,1.6570 L -0.1886,1.6679 L -0.1419,1.6764 L -0.0948,1.6825 L -0.0474,1.6862 L 0.0000,1.6874 L 0.0474,1.6862 L 0.0948,1.6825 L 0.1419,1.6764 L 0.1886,1.6679 L 0.2350,1.6570 L 0.2808,1.6438 L 0.3261,1.6281 L 0.3708,1.6100 L 0.4150,1.5896 L 0.4589,1.5665 L 0.5031,1.5404 L 0.5493,1.5103 L 0.6055,1.4702 L 0.6745,1.4200 L 0.7129,1.3947 L 0.7500,1.3731"/>
        <g id="arrows13">
          <use xlink:href="#arrow1" transform="translate(-0.0000,1.6866) rotate(-0.65) scale(2.0)"/>
        </g>
      </g>
      <g id="fieldline14">
        <path d="M -0.7500,1.1323 L -0.7868,1.1596 L -0.8208,1.1880 L -0.8521,1.2174 L -0.8807,1.2477 L -0.9068,1.2790 L -0.9303,1.3112 L -0.9513,1.3443 L -0.9700,1.3784 L -0.9863,1.4135 L -1.0003,1.4497 L -1.0119,1.4871 L -1.0212,1.5256 L -1.0282,1.5652 L -1.0327,1.6059 L -1.0348,1.6477 L -1.0343,1.6904 L -1.0312,1.7339 L -1.0255,1.7780 L -1.0172,1.8225 L -1.0061,1.8672 L -0.9924,1.9119 L -0.9761,1.9565 L -0.9572,2.0007 L -0.9357,2.0443 L -0.9117,2.0872 L -0.8853,2.1292 L -0.8566,2.1701 L -0.8255,2.2098 L -0.7923,2.2481 L -0.7570,2.2849 L -0.7196,2.3201 L -0.6804,2.3536 L -0.6395,2.3852 L -0.5968,2.4148 L -0.5526,2.4424 L -0.5070,2.4679 L -0.4601,2.4912 L -0.4120,2.5122 L -0.3628,2.5309 L -0.3127,2.5472 L -0.2618,2.5610 L -0.2103,2.5724 L -0.1582,2.5813 L -0.1057,2.5877 L -0.0529,2.5916 L -0.0000,2.5928 L 0.0529,2.5916 L 0.1057,2.5877 L 0.1582,2.5813 L 0.2103,2.5724 L 0.2618,2.5610 L 0.3127,2.5472 L 0.3628,2.5309 L 0.4120,2.5122 L 0.4601,2.4912 L 0.5070,2.4679 L 0.5526,2.4424 L 0.5968,2.4148 L 0.6395,2.3852 L 0.6804,2.3536 L 0.7196,2.3201 L 0.7570,2.2849 L 0.7923,2.2481 L 0.8255,2.2098 L 0.8566,2.1701 L 0.8853,2.1292 L 0.9117,2.0872 L 0.9357,2.0443 L 0.9572,2.0007 L 0.9761,1.9565 L 0.9924,1.9119 L 1.0061,1.8672 L 1.0172,1.8225 L 1.0255,1.7780 L 1.0312,1.7339 L 1.0343,1.6904 L 1.0348,1.6477 L 1.0327,1.6059 L 1.0282,1.5652 L 1.0212,1.5256 L 1.0119,1.4871 L 1.0003,1.4497 L 0.9863,1.4135 L 0.9700,1.3784 L 0.9513,1.3443 L 0.9303,1.3112 L 0.9068,1.2790 L 0.8807,1.2477 L 0.8521,1.2174 L 0.8208,1.1880 L 0.7868,1.1596 L 0.7500,1.1323"/>
        <g id="arrows14">
          <use xlink:href="#arrow1" transform="translate(-1.0279,1.7562) rotate(81.36) scale(2.0)"/>
          <use xlink:href="#arrow1" transform="translate(-0.0000,2.5921) rotate(-0.54) scale(2.0)"/>
          <use xlink:href="#arrow1" transform="translate(1.0279,1.7562) rotate(-83.87) scale(2.0)"/>
        </g>
      </g>
      <g id="fieldline15">
        <path d="M -0.7500,0.3970 L -0.8410,0.4141 L -0.9300,0.4332 L -1.0171,0.4542 L -1.1026,0.4772 L -1.1865,0.5022 L -1.2692,0.5293 L -1.3505,0.5583 L -1.4308,0.5895 L -1.5100,0.6227 M 1.5100,0.6227 L 1.4308,0.5895 L 1.3505,0.5583 L 1.2692,0.5293 L 1.1865,0.5022 L 1.1026,0.4772 L 1.0171,0.4542 L 0.9300,0.4332 L 0.8410,0.4141 L 0.7500,0.3970"/>
        <g id="arrows15">
          <use xlink:href="#arrow1" transform="translate(-1.1367,0.4874) rotate(163.42) scale(2.0)"/>
          <use xlink:href="#arrow1" transform="translate(1.1367,0.4875) rotate(-163.71) scale(2.0)"/>
        </g>
      </g>
    </g>
    <g id="symbols">
      <rect y="-1.495" x="-0.795" style="fill:#ff0000; stroke:#000000; stroke-width:.01" height="3.01" width="0.09"/>
      <path style="fill:none; stroke:#000000; stroke-width:.02; stroke-linecap:square" transform="translate(-0.75)" d="M -0.02,-1.4 h 0.04 m -0.02,-0.02 v 0.04 m -0.02,0.18 h 0.04 m -0.02,-0.02 v 0.04 m -0.02,0.18 h 0.04 m -0.02,-0.02 v 0.04 m -0.02,0.18 h 0.04 m -0.02,-0.02 v 0.04 m -0.02,0.18 h 0.04 m -0.02,-0.02 v 0.04 m -0.02,0.18 h 0.04 m -0.02,-0.02 v 0.04 m -0.02,0.18 h 0.04 m -0.02,-0.02 v 0.04 m -0.02,0.18 h 0.04 m -0.02,-0.02 v 0.04 m -0.02,0.18 h 0.04 m -0.02,-0.02 v 0.04 m -0.02,0.18 h 0.04 m -0.02,-0.02 v 0.04 m -0.02,0.18 h 0.04 m -0.02,-0.02 v 0.04 m -0.02,0.18 h 0.04 m -0.02,-0.02 v 0.04 m -0.02,0.18 h 0.04 m -0.02,-0.02 v 0.04 m -0.02,0.18 h 0.04 m -0.02,-0.02 v 0.04 m -0.02,0.18 h 0.04 m -0.02,-0.02 v 0.04"/>
      <rect y="-1.495" x="0.705" style="fill:#0000ff; stroke:#000000; stroke-width:.01" height="3.01" width="0.09"/>
      <path style="fill:none; stroke:#000000; stroke-width:.02; stroke-linecap:square" transform="translate(0.75)" d="M -0.02,-1.4 h 0.04 m -0.04,0.2 h 0.04 m -0.04,0.2 h 0.04 m -0.04,0.2 h 0.04 m -0.04,0.2 h 0.04 m -0.04,0.2 h 0.04 m -0.04,0.2 h 0.04 m -0.04,0.2 h 0.04 m -0.04,0.2 h 0.04 m -0.04,0.2 h 0.04 m -0.04,0.2 h 0.04 m -0.04,0.2 h 0.04 m -0.04,0.2 h 0.04 m -0.04,0.2 h 0.04 m -0.04,0.2 h 0.04"/>
    </g>
  </g>
</svg>
